<?xml version="1.0" encoding="utf-8"?>
<!-- Generator: Adobe Illustrator 22.1.0, SVG Export Plug-In . SVG Version: 6.00 Build 0)  -->
<svg version="1.1" baseProfile="tiny" id="Layer_1" xmlns="http://www.w3.org/2000/svg" xmlns:xlink="http://www.w3.org/1999/xlink"
	 x="0px" y="0px" viewBox="0 0 100 100" xml:space="preserve">
<g>
	<path fill="#FF9B30" d="M59.6,46.1c2.8,0,4.9-3,11.4-4.6c6.4-8.3,7.8-21.2,7.5-22.1c-0.4-0.9-24.2,9.8-28.9,21.7
		C49.1,42.3,57.5,46.1,59.6,46.1z"/>
	<path fill="#FF9B30" d="M69.7,72.1C69.7,72.1,69.7,72.1,69.7,72.1C69.7,72.1,69.6,72.1,69.7,72.1C69.6,72.1,69.6,72.1,69.7,72.1z"
		/>
	<path fill="#FF9B30" d="M62.8,47c-0.8,0.5-1.6,1.1-2.6,1.2s-2-0.3-3-0.7C38.6,39.7,23.3,29,19,25.2c-4.3-3.7-17.7,25.3,6.9,35.5
		c5.9,2.5,8.6,4.3,7.5,5.1c-2.8,2-24.8,8.3-30.3,8.5c-1.7,0.1,1.2,2.9,2.7,3c1.5,0.1,11.5-2.2,20.7-2.6c4.2-0.2,10.6,1,13,1.9
		c9.2,3,19.3-1.7,28.4-9.4s9.3-8.1,11.8-10.1c12.3-9.7,17.4-5.7,18.1-7.2S82.3,35.1,62.8,47z"/>
</g>
</svg>
