<?xml version="1.0" encoding="utf-8"?>
<!-- Generator: Adobe Illustrator 22.1.0, SVG Export Plug-In . SVG Version: 6.00 Build 0)  -->
<svg version="1.1" baseProfile="tiny" id="Layer_1" xmlns="http://www.w3.org/2000/svg" xmlns:xlink="http://www.w3.org/1999/xlink"
	 x="0px" y="0px" viewBox="0 0 32 32" xml:space="preserve">
<path fill="none" stroke="#2E2E2E" stroke-width="2.3" stroke-linejoin="round" stroke-miterlimit="10" d="M26.2,13.2
	c1.5,0,2.7,1.2,2.7,2.8s-1.2,2.8-2.7,2.8v0.3c0,5.9-4.6,10.7-10.3,10.7S5.6,25,5.6,19.1v-0.3c-1.5,0-2.7-1.2-2.7-2.8
	s1.2-2.8,2.7-2.8"/>
<path fill="none" stroke="#2E2E2E" stroke-width="2.3" stroke-linejoin="round" stroke-miterlimit="10" d="M5.6,13.2
	c0,0,0.5-4.4,1-6.9C7,3.8,8.5,1.9,10.8,1.9H21c2.3,0,3.7,1.9,4.2,4.4c0.5,2.5,1,6.9,1,6.9H5.6z"/>
<line fill="none" stroke="#2E2E2E" stroke-width="2.3" stroke-linejoin="round" stroke-miterlimit="10" x1="15.9" y1="4" x2="15.9" y2="11.2"/>
<line fill="none" stroke="#2E2E2E" stroke-width="2.3" stroke-linejoin="round" stroke-miterlimit="10" x1="19.4" y1="7.6" x2="12.3" y2="7.6"/>
</svg>
