<?xml version="1.0" encoding="utf-8"?>
<!-- Generator: Adobe Illustrator 24.0.0, SVG Export Plug-In . SVG Version: 6.00 Build 0)  -->
<svg version="1.1" baseProfile="tiny" id="Layer_1" xmlns="http://www.w3.org/2000/svg" xmlns:xlink="http://www.w3.org/1999/xlink"
	 x="0px" y="0px" width="420px" height="150px" viewBox="0 0 420 150" xml:space="preserve">
<title>handshake-colour</title>
<path fill="#D37C59" d="M-32.5-23.7C-21.9-11.8,98.6,76.9,103.8,80.6s89.8,60.7,96.7,63.4c39.6-1.7,57.3-32.4,57.3-40.2
	s-42.2-63.2-60.6-65.3c-3.3-0.4-41.5,11.4-41.5,11.4L71.3-21.6c-10.2-8.3-24.2-19.3-24.2-19.3l-31.1-5.7"/>
<path fill="#DE8E68" d="M264.1,40.5c-2.1,1.3-14.4,7.4-18.5,6.9c-4.1-0.5-22.5-7.2-28.1-5.1c-5.6,2-32.3,13.8-32.3,13.8
	s-24.1,25.6-24.6,26.1c-0.5,0.5,0,4.5,0.7,5.1c0.7,0.6,9,3.1,10.4,2.3c1.4-0.8,19.9-15,23.2-15c3.3,0,35.1,22.8,54,43
	c4.4-1.9,44.6-26.1,44.6-26.1L264.1,40.5z"/>
<path fill="#DE8E68" d="M136.8,101.9c0,0-1.6,9.3,2,14.6c3.6,5.3,32,24,36,24.6s11.3-5.1,12.1-8.2c0.8-3.2-4.5-14.8-6-16.4
	c-1.5-1.6-23.4-16.9-25.7-17.3C152.8,98.8,140.4,99.7,136.8,101.9z"/>
<line fill="none" stroke="#D67E5B" stroke-width="3" stroke-miterlimit="10" x1="141.1" y1="117.1" x2="155.2" y2="105.7"/>
<line fill="none" stroke="#D67E5B" stroke-width="3" stroke-miterlimit="10" x1="152.9" y1="126.5" x2="167.5" y2="115.6"/>
<line fill="none" stroke="#D67E5B" stroke-width="3" stroke-miterlimit="10" x1="164.6" y1="134.5" x2="175.7" y2="126.2"/>
<line fill="none" stroke="#BD6F50" stroke-width="3" stroke-miterlimit="10" x1="238.8" y1="129" x2="195.4" y2="93.4"/>
<line fill="none" stroke="#BD6F50" stroke-width="3" stroke-miterlimit="10" x1="221.6" y1="137" x2="195.1" y2="115.9"/>
<line fill="none" stroke="#BD6F50" stroke-width="3" stroke-miterlimit="10" x1="207.6" y1="142.1" x2="192.3" y2="129.4"/>
<path fill="#5B5B5B" d="M101.5,34.7L118.2,49c3.1,2.7,3.5,7.4,0.8,10.6l-16.5,19.3c-2.7,3.1-7.4,3.5-10.6,0.8L75.2,65.5
	c-3.1-2.7-3.5-7.4-0.8-10.6l16.5-19.3C93.6,32.4,98.3,32,101.5,34.7z"/>
<rect x="105.9" y="22.7" transform="matrix(0.6498 -0.7601 0.7601 0.6498 16.3135 101.2242)" fill="#74D5DE" width="24.2" height="20.5"/>
<path fill="#74D5DE" d="M372.2-28.5l-5.7,3.5c0,0-65.9,39.9-86.6,51.8l34.4,59.6l151.1-75.5L372.2-28.5z"/>
<polygon fill="#FED892" points="246.8,46.2 279.8,26.8 322.9,101.3 289.8,120.7 "/>
<circle fill="#FD8369" cx="308.6" cy="97.1" r="5.6"/>
<g>
	<path fill="none" stroke="#71D4AB" stroke-width="3" stroke-miterlimit="10" d="M66.6,95.3c0,7.5-6.1,13.6-13.6,13.6"/>
	<path fill="none" stroke="#71D4AB" stroke-width="3" stroke-miterlimit="10" d="M80.2,108.8c-7.5,0-13.6-6.1-13.6-13.6"/>
	<path fill="none" stroke="#71D4AB" stroke-width="3" stroke-miterlimit="10" d="M66.6,122.4c0-7.5,6.1-13.6,13.6-13.6"/>
	<path fill="none" stroke="#71D4AB" stroke-width="3" stroke-miterlimit="10" d="M53.1,108.8c7.5,0,13.6,6.1,13.6,13.6"/>
</g>
<g>
	<path fill="none" stroke="#71D4AB" stroke-width="3" stroke-miterlimit="10" d="M167.5,13.9c0,4.5-3.7,8.2-8.2,8.2"/>
	<path fill="none" stroke="#71D4AB" stroke-width="3" stroke-miterlimit="10" d="M175.7,22.1c-4.5,0-8.2-3.7-8.2-8.2"/>
	<path fill="none" stroke="#71D4AB" stroke-width="3" stroke-miterlimit="10" d="M167.5,30.3c0-4.5,3.7-8.2,8.2-8.2"/>
	<path fill="none" stroke="#71D4AB" stroke-width="3" stroke-miterlimit="10" d="M159.2,22.1c4.5,0,8.2,3.7,8.2,8.2"/>
</g>
<g>
	<path fill="none" stroke="#71D4AB" stroke-width="3" stroke-miterlimit="10" d="M49.8,81.5c0,3.6-2.9,6.5-6.5,6.5"/>
	<path fill="none" stroke="#71D4AB" stroke-width="3" stroke-miterlimit="10" d="M56.3,88.1c-3.6,0-6.5-2.9-6.5-6.5"/>
	<path fill="none" stroke="#71D4AB" stroke-width="3" stroke-miterlimit="10" d="M49.8,94.6c0-3.6,2.9-6.5,6.5-6.5"/>
	<path fill="none" stroke="#71D4AB" stroke-width="3" stroke-miterlimit="10" d="M43.3,88.1c3.6,0,6.5,2.9,6.5,6.5"/>
</g>
<g>
	<path fill="none" stroke="#71D4AB" stroke-width="3" stroke-miterlimit="10" d="M352.1,90.8c0,4.5-3.7,8.2-8.2,8.2"/>
	<path fill="none" stroke="#71D4AB" stroke-width="3" stroke-miterlimit="10" d="M360.4,99.1c-4.5,0-8.2-3.7-8.2-8.2"/>
	<path fill="none" stroke="#71D4AB" stroke-width="3" stroke-miterlimit="10" d="M352.1,107.3c0-4.5,3.7-8.2,8.2-8.2"/>
	<path fill="none" stroke="#71D4AB" stroke-width="3" stroke-miterlimit="10" d="M343.9,99.1c4.5,0,8.2,3.7,8.2,8.2"/>
</g>
</svg>
