<?xml version="1.0" encoding="UTF-8" standalone="no"?>
<!DOCTYPE svg PUBLIC "-//W3C//DTD SVG 1.1//EN"
 "http://www.w3.org/Graphics/SVG/1.1/DTD/svg11.dtd">
<!-- Generated by graphviz version 2.40.1 (20161225.0304)
 -->
<!-- Title: appointment_statuses Pages: 1 -->
<svg width="266pt" height="84pt"
 viewBox="0.00 0.00 266.00 84.00" xmlns="http://www.w3.org/2000/svg" xmlns:xlink="http://www.w3.org/1999/xlink">
<g id="graph0" class="graph" transform="scale(1 1) rotate(0) translate(4 80)">
<title>appointment_statuses</title>
<polygon fill="#ffffff" stroke="transparent" points="-4,4 -4,-80 262,-80 262,4 -4,4"/>
<!-- appointment_statuses -->
<g id="node1" class="node">
<title>appointment_statuses</title>
<g id="a_node1"><a xlink:href="../../tables/appointment_statuses.html" xlink:title="appointment_statuses" target="_top">
<polygon fill="#ffffff" stroke="transparent" points="8,-4 8,-72 250,-72 250,-4 8,-4"/>
<polygon fill="#f5f5f5" stroke="transparent" points="10,-47 10,-70 248,-70 248,-47 10,-47"/>
<polygon fill="none" stroke="#000000" points="10,-47 10,-70 248,-70 248,-47 10,-47"/>
<text text-anchor="start" x="15" y="-56.1" font-family="Helvetica,sans-Serif" font-weight="bold" font-size="11.00" fill="#000000">appointment_statuses</text>
<text text-anchor="start" x="213.0437" y="-55.1" font-family="Helvetica,sans-Serif" font-size="11.00" fill="#000000">[table]</text>
<polygon fill="none" stroke="#000000" points="10,-25 10,-47 158,-47 158,-25 10,-25"/>
<image xlink:href="../../images/primaryKeys.png" width="11px" height="12px" preserveAspectRatio="xMinYMin meet" x="15" y="-42"/>
<text text-anchor="start" x="30" y="-32.1" font-family="Helvetica,sans-Serif" font-size="11.00" fill="#000000">name</text>
<polygon fill="none" stroke="#000000" points="158,-25 158,-47 248,-47 248,-25 158,-25"/>
<text text-anchor="start" x="160.5042" y="-32.7" font-family="Helvetica,sans-Serif" font-size="11.00" fill="#000000">text[2147483647]</text>
<polygon fill="#ffffff" stroke="transparent" points="10,-6 10,-25 75,-25 75,-6 10,-6"/>
<polygon fill="none" stroke="#000000" points="10,-6 10,-25 75,-25 75,-6 10,-6"/>
<text text-anchor="start" x="13" y="-12.1" font-family="Helvetica,sans-Serif" font-size="11.00" fill="#000000">&lt; 0</text>
<polygon fill="#ffffff" stroke="transparent" points="75,-6 75,-25 158,-25 158,-6 75,-6"/>
<polygon fill="none" stroke="#000000" points="75,-6 75,-25 158,-25 158,-6 75,-6"/>
<text text-anchor="start" x="122.6105" y="-12.1" font-family="Helvetica,sans-Serif" font-size="11.00" fill="#000000">0 rows</text>
<polygon fill="#ffffff" stroke="transparent" points="158,-6 158,-25 248,-25 248,-6 158,-6"/>
<polygon fill="none" stroke="#000000" points="158,-6 158,-25 248,-25 248,-6 158,-6"/>
<text text-anchor="start" x="229.4053" y="-12.1" font-family="Helvetica,sans-Serif" font-size="11.00" fill="#000000">0 &gt;</text>
<polygon fill="none" stroke="#000000" stroke-width="2" points="9,-5 9,-71 249,-71 249,-5 9,-5"/>
</a>
</g>
</g>
</g>
</svg>
