<?xml version="1.0" encoding="UTF-8" standalone="no"?>
<!DOCTYPE svg PUBLIC "-//W3C//DTD SVG 1.1//EN"
 "http://www.w3.org/Graphics/SVG/1.1/DTD/svg11.dtd">
<!-- Generated by graphviz version 2.40.1 (20161225.0304)
 -->
<!-- Title: appointment_templates Pages: 1 -->
<svg width="277pt" height="128pt"
 viewBox="0.00 0.00 277.00 128.00" xmlns="http://www.w3.org/2000/svg" xmlns:xlink="http://www.w3.org/1999/xlink">
<g id="graph0" class="graph" transform="scale(1 1) rotate(0) translate(4 124)">
<title>appointment_templates</title>
<polygon fill="#ffffff" stroke="transparent" points="-4,4 -4,-124 273,-124 273,4 -4,4"/>
<!-- appointment_templates -->
<g id="node1" class="node">
<title>appointment_templates</title>
<g id="a_node1"><a xlink:href="../../tables/appointment_templates.html" xlink:title="appointment_templates" target="_top">
<polygon fill="#ffffff" stroke="transparent" points="8,-4 8,-116 261,-116 261,-4 8,-4"/>
<polygon fill="#f5f5f5" stroke="transparent" points="10.5,-91 10.5,-114 259.5,-114 259.5,-91 10.5,-91"/>
<polygon fill="none" stroke="#000000" points="10.5,-91 10.5,-114 259.5,-114 259.5,-91 10.5,-91"/>
<text text-anchor="start" x="15.5" y="-100.1" font-family="Helvetica,sans-Serif" font-weight="bold" font-size="11.00" fill="#000000">appointment_templates</text>
<text text-anchor="start" x="224.5437" y="-99.1" font-family="Helvetica,sans-Serif" font-size="11.00" fill="#000000">[table]</text>
<polygon fill="none" stroke="#000000" points="10.5,-69 10.5,-91 165.5,-91 165.5,-69 10.5,-69"/>
<image xlink:href="../../images/primaryKeys.png" width="11px" height="12px" preserveAspectRatio="xMinYMin meet" x="15.5" y="-86"/>
<text text-anchor="start" x="30.5" y="-76.1" font-family="Helvetica,sans-Serif" font-size="11.00" fill="#000000">id</text>
<polygon fill="none" stroke="#000000" points="165.5,-69 165.5,-91 259.5,-91 259.5,-69 165.5,-69"/>
<text text-anchor="start" x="168.4758" y="-76.7" font-family="Helvetica,sans-Serif" font-size="11.00" fill="#000000">uuid[2147483647]</text>
<polygon fill="none" stroke="#000000" points="10.5,-47 10.5,-69 165.5,-69 165.5,-47 10.5,-47"/>
<text text-anchor="start" x="30.5" y="-54.1" font-family="Helvetica,sans-Serif" font-size="11.00" fill="#000000">name</text>
<polygon fill="none" stroke="#000000" points="165.5,-47 165.5,-69 259.5,-69 259.5,-47 165.5,-47"/>
<text text-anchor="start" x="168.5" y="-54.7" font-family="Helvetica,sans-Serif" font-size="11.00" fill="#000000">text[2147483647]</text>
<polygon fill="none" stroke="#000000" points="10.5,-25 10.5,-47 165.5,-47 165.5,-25 10.5,-25"/>
<text text-anchor="start" x="30.5" y="-32.1" font-family="Helvetica,sans-Serif" font-size="11.00" fill="#000000">type</text>
<polygon fill="none" stroke="#000000" points="165.5,-25 165.5,-47 259.5,-47 259.5,-25 165.5,-25"/>
<text text-anchor="start" x="168.5" y="-32.7" font-family="Helvetica,sans-Serif" font-size="11.00" fill="#000000">text[2147483647]</text>
<polygon fill="#ffffff" stroke="transparent" points="10.5,-6 10.5,-25 79.5,-25 79.5,-6 10.5,-6"/>
<polygon fill="none" stroke="#000000" points="10.5,-6 10.5,-25 79.5,-25 79.5,-6 10.5,-6"/>
<text text-anchor="start" x="13.5" y="-12.1" font-family="Helvetica,sans-Serif" font-size="11.00" fill="#000000">&lt; 0</text>
<polygon fill="#ffffff" stroke="transparent" points="79.5,-6 79.5,-25 165.5,-25 165.5,-6 79.5,-6"/>
<polygon fill="none" stroke="#000000" points="79.5,-6 79.5,-25 165.5,-25 165.5,-6 79.5,-6"/>
<text text-anchor="start" x="130.1105" y="-12.1" font-family="Helvetica,sans-Serif" font-size="11.00" fill="#000000">0 rows</text>
<polygon fill="#ffffff" stroke="transparent" points="165.5,-6 165.5,-25 259.5,-25 259.5,-6 165.5,-6"/>
<polygon fill="none" stroke="#000000" points="165.5,-6 165.5,-25 259.5,-25 259.5,-6 165.5,-6"/>
<text text-anchor="start" x="240.9053" y="-12.1" font-family="Helvetica,sans-Serif" font-size="11.00" fill="#000000">0 &gt;</text>
<polygon fill="none" stroke="#000000" stroke-width="2" points="9,-5 9,-115 260,-115 260,-5 9,-5"/>
</a>
</g>
</g>
</g>
</svg>
