<?xml version="1.0" encoding="UTF-8" standalone="no"?>
<!DOCTYPE svg PUBLIC "-//W3C//DTD SVG 1.1//EN"
 "http://www.w3.org/Graphics/SVG/1.1/DTD/svg11.dtd">
<!-- Generated by graphviz version 2.40.1 (20161225.0304)
 -->
<!-- Title: appointments Pages: 1 -->
<svg width="277pt" height="304pt"
 viewBox="0.00 0.00 277.00 304.00" xmlns="http://www.w3.org/2000/svg" xmlns:xlink="http://www.w3.org/1999/xlink">
<g id="graph0" class="graph" transform="scale(1 1) rotate(0) translate(4 300)">
<title>appointments</title>
<polygon fill="#ffffff" stroke="transparent" points="-4,4 -4,-300 273,-300 273,4 -4,4"/>
<!-- appointments -->
<g id="node1" class="node">
<title>appointments</title>
<g id="a_node1"><a xlink:href="../../tables/appointments.html" xlink:title="appointments" target="_top">
<polygon fill="#ffffff" stroke="transparent" points="8,-4 8,-292 261,-292 261,-4 8,-4"/>
<polygon fill="#f5f5f5" stroke="transparent" points="10.5,-267 10.5,-290 259.5,-290 259.5,-267 10.5,-267"/>
<polygon fill="none" stroke="#000000" points="10.5,-267 10.5,-290 259.5,-290 259.5,-267 10.5,-267"/>
<text text-anchor="start" x="15.5" y="-276.1" font-family="Helvetica,sans-Serif" font-weight="bold" font-size="11.00" fill="#000000">appointments</text>
<text text-anchor="start" x="224.5437" y="-275.1" font-family="Helvetica,sans-Serif" font-size="11.00" fill="#000000">[table]</text>
<polygon fill="none" stroke="#000000" points="10.5,-245 10.5,-267 165.5,-267 165.5,-245 10.5,-245"/>
<image xlink:href="../../images/primaryKeys.png" width="11px" height="12px" preserveAspectRatio="xMinYMin meet" x="15.5" y="-262"/>
<text text-anchor="start" x="30.5" y="-252.1" font-family="Helvetica,sans-Serif" font-size="11.00" fill="#000000">id</text>
<polygon fill="none" stroke="#000000" points="165.5,-245 165.5,-267 259.5,-267 259.5,-245 165.5,-245"/>
<text text-anchor="start" x="168.4758" y="-252.7" font-family="Helvetica,sans-Serif" font-size="11.00" fill="#000000">uuid[2147483647]</text>
<polygon fill="none" stroke="#000000" points="10.5,-223 10.5,-245 165.5,-245 165.5,-223 10.5,-223"/>
<text text-anchor="start" x="30.5" y="-230.1" font-family="Helvetica,sans-Serif" font-size="11.00" fill="#000000">created_at</text>
<polygon fill="none" stroke="#000000" points="165.5,-223 165.5,-245 259.5,-245 259.5,-223 165.5,-223"/>
<text text-anchor="start" x="168.5" y="-230.7" font-family="Helvetica,sans-Serif" font-size="11.00" fill="#000000">timestamptz[35,6]</text>
<polygon fill="none" stroke="#000000" points="10.5,-201 10.5,-223 165.5,-223 165.5,-201 10.5,-201"/>
<text text-anchor="start" x="30.5" y="-208.1" font-family="Helvetica,sans-Serif" font-size="11.00" fill="#000000">updated_at</text>
<polygon fill="none" stroke="#000000" points="165.5,-201 165.5,-223 259.5,-223 259.5,-201 165.5,-201"/>
<text text-anchor="start" x="168.5" y="-208.7" font-family="Helvetica,sans-Serif" font-size="11.00" fill="#000000">timestamptz[35,6]</text>
<polygon fill="none" stroke="#000000" points="10.5,-179 10.5,-201 165.5,-201 165.5,-179 10.5,-179"/>
<text text-anchor="start" x="30.5" y="-186.1" font-family="Helvetica,sans-Serif" font-size="11.00" fill="#000000">patient_id</text>
<polygon fill="none" stroke="#000000" points="165.5,-179 165.5,-201 259.5,-201 259.5,-179 165.5,-179"/>
<text text-anchor="start" x="168.4758" y="-186.7" font-family="Helvetica,sans-Serif" font-size="11.00" fill="#000000">uuid[2147483647]</text>
<polygon fill="none" stroke="#000000" points="10.5,-157 10.5,-179 165.5,-179 165.5,-157 10.5,-157"/>
<text text-anchor="start" x="30.5" y="-164.1" font-family="Helvetica,sans-Serif" font-size="11.00" fill="#000000">template_id</text>
<polygon fill="none" stroke="#000000" points="165.5,-157 165.5,-179 259.5,-179 259.5,-157 165.5,-157"/>
<text text-anchor="start" x="168.5" y="-164.7" font-family="Helvetica,sans-Serif" font-size="11.00" fill="#000000">text[2147483647]</text>
<polygon fill="none" stroke="#000000" points="10.5,-135 10.5,-157 165.5,-157 165.5,-135 10.5,-135"/>
<text text-anchor="start" x="30.5" y="-142.1" font-family="Helvetica,sans-Serif" font-size="11.00" fill="#000000">professional_id</text>
<polygon fill="none" stroke="#000000" points="165.5,-135 165.5,-157 259.5,-157 259.5,-135 165.5,-135"/>
<text text-anchor="start" x="168.4758" y="-142.7" font-family="Helvetica,sans-Serif" font-size="11.00" fill="#000000">uuid[2147483647]</text>
<polygon fill="none" stroke="#000000" points="10.5,-113 10.5,-135 165.5,-135 165.5,-113 10.5,-113"/>
<text text-anchor="start" x="30.5" y="-120.1" font-family="Helvetica,sans-Serif" font-size="11.00" fill="#000000">start</text>
<polygon fill="none" stroke="#000000" points="165.5,-113 165.5,-135 259.5,-135 259.5,-113 165.5,-113"/>
<text text-anchor="start" x="168.5" y="-120.7" font-family="Helvetica,sans-Serif" font-size="11.00" fill="#000000">timestamptz[35,6]</text>
<polygon fill="none" stroke="#000000" points="10.5,-91 10.5,-113 165.5,-113 165.5,-91 10.5,-91"/>
<text text-anchor="start" x="30.5" y="-98.1" font-family="Helvetica,sans-Serif" font-size="11.00" fill="#000000">end</text>
<polygon fill="none" stroke="#000000" points="165.5,-91 165.5,-113 259.5,-113 259.5,-91 165.5,-91"/>
<text text-anchor="start" x="168.5" y="-98.7" font-family="Helvetica,sans-Serif" font-size="11.00" fill="#000000">timestamptz[35,6]</text>
<polygon fill="none" stroke="#000000" points="10.5,-69 10.5,-91 165.5,-91 165.5,-69 10.5,-69"/>
<text text-anchor="start" x="30.5" y="-76.1" font-family="Helvetica,sans-Serif" font-size="11.00" fill="#000000">provider_location_id</text>
<polygon fill="none" stroke="#000000" points="165.5,-69 165.5,-91 259.5,-91 259.5,-69 165.5,-69"/>
<text text-anchor="start" x="168.4758" y="-76.7" font-family="Helvetica,sans-Serif" font-size="11.00" fill="#000000">uuid[2147483647]</text>
<polygon fill="none" stroke="#000000" points="10.5,-47 10.5,-69 165.5,-69 165.5,-47 10.5,-47"/>
<text text-anchor="start" x="30.5" y="-54.1" font-family="Helvetica,sans-Serif" font-size="11.00" fill="#000000">status</text>
<polygon fill="none" stroke="#000000" points="165.5,-47 165.5,-69 259.5,-69 259.5,-47 165.5,-47"/>
<text text-anchor="start" x="168.5" y="-54.7" font-family="Helvetica,sans-Serif" font-size="11.00" fill="#000000">text[2147483647]</text>
<polygon fill="none" stroke="#000000" points="10.5,-25 10.5,-47 165.5,-47 165.5,-25 10.5,-25"/>
<text text-anchor="start" x="30.5" y="-32.1" font-family="Helvetica,sans-Serif" font-size="11.00" fill="#000000">schedulable_at_around</text>
<polygon fill="none" stroke="#000000" points="165.5,-25 165.5,-47 259.5,-47 259.5,-25 165.5,-25"/>
<text text-anchor="start" x="168.5" y="-32.7" font-family="Helvetica,sans-Serif" font-size="11.00" fill="#000000">timestamptz[35,6]</text>
<polygon fill="#ffffff" stroke="transparent" points="10.5,-6 10.5,-25 79.5,-25 79.5,-6 10.5,-6"/>
<polygon fill="none" stroke="#000000" points="10.5,-6 10.5,-25 79.5,-25 79.5,-6 10.5,-6"/>
<text text-anchor="start" x="13.5" y="-12.1" font-family="Helvetica,sans-Serif" font-size="11.00" fill="#000000">&lt; 0</text>
<polygon fill="#ffffff" stroke="transparent" points="79.5,-6 79.5,-25 165.5,-25 165.5,-6 79.5,-6"/>
<polygon fill="none" stroke="#000000" points="79.5,-6 79.5,-25 165.5,-25 165.5,-6 79.5,-6"/>
<text text-anchor="start" x="130.1105" y="-12.1" font-family="Helvetica,sans-Serif" font-size="11.00" fill="#000000">0 rows</text>
<polygon fill="#ffffff" stroke="transparent" points="165.5,-6 165.5,-25 259.5,-25 259.5,-6 165.5,-6"/>
<polygon fill="none" stroke="#000000" points="165.5,-6 165.5,-25 259.5,-25 259.5,-6 165.5,-6"/>
<text text-anchor="start" x="240.9053" y="-12.1" font-family="Helvetica,sans-Serif" font-size="11.00" fill="#000000">0 &gt;</text>
<polygon fill="none" stroke="#000000" stroke-width="2" points="9,-5 9,-291 260,-291 260,-5 9,-5"/>
</a>
</g>
</g>
</g>
</svg>
