<?xml version="1.0" encoding="UTF-8" standalone="no"?>
<!DOCTYPE svg PUBLIC "-//W3C//DTD SVG 1.1//EN"
 "http://www.w3.org/Graphics/SVG/1.1/DTD/svg11.dtd">
<!-- Generated by graphviz version 2.40.1 (20161225.0304)
 -->
<!-- Title: appointment_slots Pages: 1 -->
<svg width="261pt" height="172pt"
 viewBox="0.00 0.00 261.00 172.00" xmlns="http://www.w3.org/2000/svg" xmlns:xlink="http://www.w3.org/1999/xlink">
<g id="graph0" class="graph" transform="scale(1 1) rotate(0) translate(4 168)">
<title>appointment_slots</title>
<polygon fill="#ffffff" stroke="transparent" points="-4,4 -4,-168 257,-168 257,4 -4,4"/>
<!-- appointment_slots -->
<g id="node1" class="node">
<title>appointment_slots</title>
<g id="a_node1"><a xlink:href="../../tables/appointment_slots.html" xlink:title="appointment_slots" target="_top">
<polygon fill="#ffffff" stroke="transparent" points="8,-4 8,-160 245,-160 245,-4 8,-4"/>
<polygon fill="#f5f5f5" stroke="transparent" points="10.5,-135 10.5,-158 243.5,-158 243.5,-135 10.5,-135"/>
<polygon fill="none" stroke="#000000" points="10.5,-135 10.5,-158 243.5,-158 243.5,-135 10.5,-135"/>
<text text-anchor="start" x="15.5" y="-144.1" font-family="Helvetica,sans-Serif" font-weight="bold" font-size="11.00" fill="#000000">appointment_slots</text>
<text text-anchor="start" x="208.5437" y="-143.1" font-family="Helvetica,sans-Serif" font-size="11.00" fill="#000000">[table]</text>
<polygon fill="none" stroke="#000000" points="10.5,-113 10.5,-135 149.5,-135 149.5,-113 10.5,-113"/>
<image xlink:href="../../images/primaryKeys.png" width="11px" height="12px" preserveAspectRatio="xMinYMin meet" x="15.5" y="-130"/>
<text text-anchor="start" x="30.5" y="-120.1" font-family="Helvetica,sans-Serif" font-size="11.00" fill="#000000">start</text>
<polygon fill="none" stroke="#000000" points="149.5,-113 149.5,-135 243.5,-135 243.5,-113 149.5,-113"/>
<text text-anchor="start" x="152.5" y="-120.7" font-family="Helvetica,sans-Serif" font-size="11.00" fill="#000000">timestamptz[35,6]</text>
<polygon fill="none" stroke="#000000" points="10.5,-91 10.5,-113 149.5,-113 149.5,-91 10.5,-91"/>
<image xlink:href="../../images/primaryKeys.png" width="11px" height="12px" preserveAspectRatio="xMinYMin meet" x="15.5" y="-108"/>
<text text-anchor="start" x="30.5" y="-98.1" font-family="Helvetica,sans-Serif" font-size="11.00" fill="#000000">end</text>
<polygon fill="none" stroke="#000000" points="149.5,-91 149.5,-113 243.5,-113 243.5,-91 149.5,-91"/>
<text text-anchor="start" x="152.5" y="-98.7" font-family="Helvetica,sans-Serif" font-size="11.00" fill="#000000">timestamptz[35,6]</text>
<polygon fill="none" stroke="#000000" points="10.5,-69 10.5,-91 149.5,-91 149.5,-69 10.5,-69"/>
<image xlink:href="../../images/primaryKeys.png" width="11px" height="12px" preserveAspectRatio="xMinYMin meet" x="15.5" y="-86"/>
<text text-anchor="start" x="30.5" y="-76.1" font-family="Helvetica,sans-Serif" font-size="11.00" fill="#000000">template_id</text>
<polygon fill="none" stroke="#000000" points="149.5,-69 149.5,-91 243.5,-91 243.5,-69 149.5,-69"/>
<text text-anchor="start" x="152.4758" y="-76.7" font-family="Helvetica,sans-Serif" font-size="11.00" fill="#000000">uuid[2147483647]</text>
<polygon fill="none" stroke="#000000" points="10.5,-47 10.5,-69 149.5,-69 149.5,-47 10.5,-47"/>
<text text-anchor="start" x="30.5" y="-54.1" font-family="Helvetica,sans-Serif" font-size="11.00" fill="#000000">provider_location_id</text>
<polygon fill="none" stroke="#000000" points="149.5,-47 149.5,-69 243.5,-69 243.5,-47 149.5,-47"/>
<text text-anchor="start" x="152.4758" y="-54.7" font-family="Helvetica,sans-Serif" font-size="11.00" fill="#000000">uuid[2147483647]</text>
<polygon fill="none" stroke="#000000" points="10.5,-25 10.5,-47 149.5,-47 149.5,-25 10.5,-25"/>
<text text-anchor="start" x="30.5" y="-32.1" font-family="Helvetica,sans-Serif" font-size="11.00" fill="#000000">professional_id</text>
<polygon fill="none" stroke="#000000" points="149.5,-25 149.5,-47 243.5,-47 243.5,-25 149.5,-25"/>
<text text-anchor="start" x="152.4758" y="-32.7" font-family="Helvetica,sans-Serif" font-size="11.00" fill="#000000">uuid[2147483647]</text>
<polygon fill="#ffffff" stroke="transparent" points="10.5,-6 10.5,-25 71.5,-25 71.5,-6 10.5,-6"/>
<polygon fill="none" stroke="#000000" points="10.5,-6 10.5,-25 71.5,-25 71.5,-6 10.5,-6"/>
<text text-anchor="start" x="13.5" y="-12.1" font-family="Helvetica,sans-Serif" font-size="11.00" fill="#000000">&lt; 0</text>
<polygon fill="#ffffff" stroke="transparent" points="71.5,-6 71.5,-25 149.5,-25 149.5,-6 71.5,-6"/>
<polygon fill="none" stroke="#000000" points="71.5,-6 71.5,-25 149.5,-25 149.5,-6 71.5,-6"/>
<text text-anchor="start" x="114.1105" y="-12.1" font-family="Helvetica,sans-Serif" font-size="11.00" fill="#000000">0 rows</text>
<polygon fill="#ffffff" stroke="transparent" points="149.5,-6 149.5,-25 243.5,-25 243.5,-6 149.5,-6"/>
<polygon fill="none" stroke="#000000" points="149.5,-6 149.5,-25 243.5,-25 243.5,-6 149.5,-6"/>
<text text-anchor="start" x="224.9053" y="-12.1" font-family="Helvetica,sans-Serif" font-size="11.00" fill="#000000">0 &gt;</text>
<polygon fill="none" stroke="#000000" stroke-width="2" points="9,-5 9,-159 244,-159 244,-5 9,-5"/>
</a>
</g>
</g>
</g>
</svg>
