<?xml version="1.0" encoding="UTF-8" standalone="no"?>
<!DOCTYPE svg PUBLIC "-//W3C//DTD SVG 1.1//EN"
 "http://www.w3.org/Graphics/SVG/1.1/DTD/svg11.dtd">
<!-- Generated by graphviz version 2.40.1 (20161225.0304)
 -->
<!-- Title: balances Pages: 1 -->
<svg width="240pt" height="150pt"
 viewBox="0.00 0.00 240.00 150.00" xmlns="http://www.w3.org/2000/svg" xmlns:xlink="http://www.w3.org/1999/xlink">
<g id="graph0" class="graph" transform="scale(1 1) rotate(0) translate(4 146)">
<title>balances</title>
<polygon fill="#ffffff" stroke="transparent" points="-4,4 -4,-146 236,-146 236,4 -4,4"/>
<!-- balances -->
<g id="node1" class="node">
<title>balances</title>
<g id="a_node1"><a xlink:href="../../tables/balances.html" xlink:title="balances" target="_top">
<polygon fill="#ffffff" stroke="transparent" points="8,-4 8,-138 224,-138 224,-4 8,-4"/>
<polygon fill="#f5f5f5" stroke="transparent" points="10,-113 10,-136 222,-136 222,-113 10,-113"/>
<polygon fill="none" stroke="#000000" points="10,-113 10,-136 222,-136 222,-113 10,-113"/>
<text text-anchor="start" x="15" y="-122.1" font-family="Helvetica,sans-Serif" font-weight="bold" font-size="11.00" fill="#000000">balances</text>
<text text-anchor="start" x="187.0437" y="-121.1" font-family="Helvetica,sans-Serif" font-size="11.00" fill="#000000">[table]</text>
<polygon fill="none" stroke="#000000" points="10,-91 10,-113 128,-113 128,-91 10,-91"/>
<text text-anchor="start" x="30" y="-98.1" font-family="Helvetica,sans-Serif" font-size="11.00" fill="#000000">account_balance</text>
<polygon fill="none" stroke="#000000" points="128,-91 128,-113 222,-113 222,-91 128,-91"/>
<text text-anchor="start" x="131" y="-98.7" font-family="Helvetica,sans-Serif" font-size="11.00" fill="#000000">numeric[131089]</text>
<polygon fill="none" stroke="#000000" points="10,-69 10,-91 128,-91 128,-69 10,-69"/>
<text text-anchor="start" x="30" y="-76.1" font-family="Helvetica,sans-Serif" font-size="11.00" fill="#000000">due_now</text>
<polygon fill="none" stroke="#000000" points="128,-69 128,-91 222,-91 222,-69 128,-69"/>
<text text-anchor="start" x="131" y="-76.7" font-family="Helvetica,sans-Serif" font-size="11.00" fill="#000000">numeric[131089]</text>
<polygon fill="none" stroke="#000000" points="10,-47 10,-69 128,-69 128,-47 10,-47"/>
<image xlink:href="../../images/primaryKeys.png" width="11px" height="12px" preserveAspectRatio="xMinYMin meet" x="15" y="-64"/>
<text text-anchor="start" x="30" y="-54.1" font-family="Helvetica,sans-Serif" font-size="11.00" fill="#000000">patient_id</text>
<polygon fill="none" stroke="#000000" points="128,-47 128,-69 222,-69 222,-47 128,-47"/>
<text text-anchor="start" x="130.9758" y="-54.7" font-family="Helvetica,sans-Serif" font-size="11.00" fill="#000000">uuid[2147483647]</text>
<polygon fill="none" stroke="#000000" points="10,-25 10,-47 128,-47 128,-25 10,-25"/>
<image xlink:href="../../images/primaryKeys.png" width="11px" height="12px" preserveAspectRatio="xMinYMin meet" x="15" y="-42"/>
<text text-anchor="start" x="30" y="-32.1" font-family="Helvetica,sans-Serif" font-size="11.00" fill="#000000">payer_id</text>
<polygon fill="none" stroke="#000000" points="128,-25 128,-47 222,-47 222,-25 128,-25"/>
<text text-anchor="start" x="130.9758" y="-32.7" font-family="Helvetica,sans-Serif" font-size="11.00" fill="#000000">uuid[2147483647]</text>
<polygon fill="#ffffff" stroke="transparent" points="10,-6 10,-25 60,-25 60,-6 10,-6"/>
<polygon fill="none" stroke="#000000" points="10,-6 10,-25 60,-25 60,-6 10,-6"/>
<text text-anchor="start" x="13" y="-12.1" font-family="Helvetica,sans-Serif" font-size="11.00" fill="#000000">&lt; 0</text>
<polygon fill="#ffffff" stroke="transparent" points="60,-6 60,-25 128,-25 128,-6 60,-6"/>
<polygon fill="none" stroke="#000000" points="60,-6 60,-25 128,-25 128,-6 60,-6"/>
<text text-anchor="start" x="92.6105" y="-12.1" font-family="Helvetica,sans-Serif" font-size="11.00" fill="#000000">0 rows</text>
<polygon fill="#ffffff" stroke="transparent" points="128,-6 128,-25 222,-25 222,-6 128,-6"/>
<polygon fill="none" stroke="#000000" points="128,-6 128,-25 222,-25 222,-6 128,-6"/>
<text text-anchor="start" x="203.4053" y="-12.1" font-family="Helvetica,sans-Serif" font-size="11.00" fill="#000000">0 &gt;</text>
<polygon fill="none" stroke="#000000" stroke-width="2" points="9,-5 9,-137 223,-137 223,-5 9,-5"/>
</a>
</g>
</g>
</g>
</svg>
