<?xml version="1.0" encoding="UTF-8" standalone="no"?>
<!DOCTYPE svg PUBLIC "-//W3C//DTD SVG 1.1//EN"
 "http://www.w3.org/Graphics/SVG/1.1/DTD/svg11.dtd">
<!-- Generated by graphviz version 2.40.1 (20161225.0304)
 -->
<!-- Title: payment_auto_drafts Pages: 1 -->
<svg width="269pt" height="106pt"
 viewBox="0.00 0.00 269.00 106.00" xmlns="http://www.w3.org/2000/svg" xmlns:xlink="http://www.w3.org/1999/xlink">
<g id="graph0" class="graph" transform="scale(1 1) rotate(0) translate(4 102)">
<title>payment_auto_drafts</title>
<polygon fill="#ffffff" stroke="transparent" points="-4,4 -4,-102 265,-102 265,4 -4,4"/>
<!-- payment_auto_drafts -->
<g id="node1" class="node">
<title>payment_auto_drafts</title>
<g id="a_node1"><a xlink:href="../../tables/payment_auto_drafts.html" xlink:title="payment_auto_drafts" target="_top">
<polygon fill="#ffffff" stroke="transparent" points="8,-4 8,-94 253,-94 253,-4 8,-4"/>
<polygon fill="#f5f5f5" stroke="transparent" points="10.5,-69 10.5,-92 251.5,-92 251.5,-69 10.5,-69"/>
<polygon fill="none" stroke="#000000" points="10.5,-69 10.5,-92 251.5,-92 251.5,-69 10.5,-69"/>
<text text-anchor="start" x="15.5" y="-78.1" font-family="Helvetica,sans-Serif" font-weight="bold" font-size="11.00" fill="#000000">payment_auto_drafts</text>
<text text-anchor="start" x="216.5437" y="-77.1" font-family="Helvetica,sans-Serif" font-size="11.00" fill="#000000">[table]</text>
<polygon fill="none" stroke="#000000" points="10.5,-47 10.5,-69 152.5,-69 152.5,-47 10.5,-47"/>
<image xlink:href="../../images/primaryKeys.png" width="11px" height="12px" preserveAspectRatio="xMinYMin meet" x="15.5" y="-64"/>
<text text-anchor="start" x="30.5" y="-54.1" font-family="Helvetica,sans-Serif" font-size="11.00" fill="#000000">user_id</text>
<polygon fill="none" stroke="#000000" points="152.5,-47 152.5,-69 251.5,-69 251.5,-47 152.5,-47"/>
<text text-anchor="start" x="155.5" y="-54.7" font-family="Helvetica,sans-Serif" font-size="11.00" fill="#000000">uuid[2147483647]</text>
<polygon fill="none" stroke="#000000" points="10.5,-25 10.5,-47 152.5,-47 152.5,-25 10.5,-25"/>
<text text-anchor="start" x="30.5" y="-32.1" font-family="Helvetica,sans-Serif" font-size="11.00" fill="#000000">context</text>
<polygon fill="none" stroke="#000000" points="152.5,-25 152.5,-47 251.5,-47 251.5,-25 152.5,-25"/>
<text text-anchor="start" x="155.2258" y="-32.7" font-family="Helvetica,sans-Serif" font-size="11.00" fill="#000000">jsonb[2147483647]</text>
<polygon fill="#ffffff" stroke="transparent" points="10.5,-6 10.5,-25 72.5,-25 72.5,-6 10.5,-6"/>
<polygon fill="none" stroke="#000000" points="10.5,-6 10.5,-25 72.5,-25 72.5,-6 10.5,-6"/>
<text text-anchor="start" x="13.5" y="-12.1" font-family="Helvetica,sans-Serif" font-size="11.00" fill="#000000">&lt; 0</text>
<polygon fill="#ffffff" stroke="transparent" points="72.5,-6 72.5,-25 152.5,-25 152.5,-6 72.5,-6"/>
<polygon fill="none" stroke="#000000" points="72.5,-6 72.5,-25 152.5,-25 152.5,-6 72.5,-6"/>
<text text-anchor="start" x="117.1105" y="-12.1" font-family="Helvetica,sans-Serif" font-size="11.00" fill="#000000">0 rows</text>
<polygon fill="#ffffff" stroke="transparent" points="152.5,-6 152.5,-25 251.5,-25 251.5,-6 152.5,-6"/>
<polygon fill="none" stroke="#000000" points="152.5,-6 152.5,-25 251.5,-25 251.5,-6 152.5,-6"/>
<text text-anchor="start" x="232.9053" y="-12.1" font-family="Helvetica,sans-Serif" font-size="11.00" fill="#000000">0 &gt;</text>
<polygon fill="none" stroke="#000000" stroke-width="2" points="9,-5 9,-93 252,-93 252,-5 9,-5"/>
</a>
</g>
</g>
</g>
</svg>
