<?xml version="1.0" encoding="UTF-8" standalone="no"?>
<!DOCTYPE svg PUBLIC "-//W3C//DTD SVG 1.1//EN"
 "http://www.w3.org/Graphics/SVG/1.1/DTD/svg11.dtd">
<!-- Generated by graphviz version 2.40.1 (20161225.0304)
 -->
<!-- Title: payment_types Pages: 1 -->
<svg width="226pt" height="84pt"
 viewBox="0.00 0.00 226.00 84.00" xmlns="http://www.w3.org/2000/svg" xmlns:xlink="http://www.w3.org/1999/xlink">
<g id="graph0" class="graph" transform="scale(1 1) rotate(0) translate(4 80)">
<title>payment_types</title>
<polygon fill="#ffffff" stroke="transparent" points="-4,4 -4,-80 222,-80 222,4 -4,4"/>
<!-- payment_types -->
<g id="node1" class="node">
<title>payment_types</title>
<g id="a_node1"><a xlink:href="../../tables/payment_types.html" xlink:title="payment_types" target="_top">
<polygon fill="#ffffff" stroke="transparent" points="8,-4 8,-72 210,-72 210,-4 8,-4"/>
<polygon fill="#f5f5f5" stroke="transparent" points="10,-47 10,-70 208,-70 208,-47 10,-47"/>
<polygon fill="none" stroke="#000000" points="10,-47 10,-70 208,-70 208,-47 10,-47"/>
<text text-anchor="start" x="15" y="-56.1" font-family="Helvetica,sans-Serif" font-weight="bold" font-size="11.00" fill="#000000">payment_types</text>
<text text-anchor="start" x="173.0437" y="-55.1" font-family="Helvetica,sans-Serif" font-size="11.00" fill="#000000">[table]</text>
<polygon fill="none" stroke="#000000" points="10,-25 10,-47 118,-47 118,-25 10,-25"/>
<image xlink:href="../../images/primaryKeys.png" width="11px" height="12px" preserveAspectRatio="xMinYMin meet" x="15" y="-42"/>
<text text-anchor="start" x="30" y="-32.1" font-family="Helvetica,sans-Serif" font-size="11.00" fill="#000000">name</text>
<polygon fill="none" stroke="#000000" points="118,-25 118,-47 208,-47 208,-25 118,-25"/>
<text text-anchor="start" x="120.5042" y="-32.7" font-family="Helvetica,sans-Serif" font-size="11.00" fill="#000000">text[2147483647]</text>
<polygon fill="#ffffff" stroke="transparent" points="10,-6 10,-25 55,-25 55,-6 10,-6"/>
<polygon fill="none" stroke="#000000" points="10,-6 10,-25 55,-25 55,-6 10,-6"/>
<text text-anchor="start" x="13" y="-12.1" font-family="Helvetica,sans-Serif" font-size="11.00" fill="#000000">&lt; 0</text>
<polygon fill="#ffffff" stroke="transparent" points="55,-6 55,-25 118,-25 118,-6 55,-6"/>
<polygon fill="none" stroke="#000000" points="55,-6 55,-25 118,-25 118,-6 55,-6"/>
<text text-anchor="start" x="82.6105" y="-12.1" font-family="Helvetica,sans-Serif" font-size="11.00" fill="#000000">0 rows</text>
<polygon fill="#ffffff" stroke="transparent" points="118,-6 118,-25 208,-25 208,-6 118,-6"/>
<polygon fill="none" stroke="#000000" points="118,-6 118,-25 208,-25 208,-6 118,-6"/>
<text text-anchor="start" x="189.4053" y="-12.1" font-family="Helvetica,sans-Serif" font-size="11.00" fill="#000000">0 &gt;</text>
<polygon fill="none" stroke="#000000" stroke-width="2" points="9,-5 9,-71 209,-71 209,-5 9,-5"/>
</a>
</g>
</g>
</g>
</svg>
