<?xml version="1.0" encoding="UTF-8" standalone="no"?>
<!DOCTYPE svg PUBLIC "-//W3C//DTD SVG 1.1//EN"
 "http://www.w3.org/Graphics/SVG/1.1/DTD/svg11.dtd">
<!-- Generated by graphviz version 2.40.1 (20161225.0304)
 -->
<!-- Title: payments Pages: 1 -->
<svg width="208pt" height="238pt"
 viewBox="0.00 0.00 208.00 238.00" xmlns="http://www.w3.org/2000/svg" xmlns:xlink="http://www.w3.org/1999/xlink">
<g id="graph0" class="graph" transform="scale(1 1) rotate(0) translate(4 234)">
<title>payments</title>
<polygon fill="#ffffff" stroke="transparent" points="-4,4 -4,-234 204,-234 204,4 -4,4"/>
<!-- payments -->
<g id="node1" class="node">
<title>payments</title>
<g id="a_node1"><a xlink:href="../../tables/payments.html" xlink:title="payments" target="_top">
<polygon fill="#ffffff" stroke="transparent" points="8,-4 8,-226 192,-226 192,-4 8,-4"/>
<polygon fill="#f5f5f5" stroke="transparent" points="10,-201 10,-224 190,-224 190,-201 10,-201"/>
<polygon fill="none" stroke="#000000" points="10,-201 10,-224 190,-224 190,-201 10,-201"/>
<text text-anchor="start" x="15" y="-210.1" font-family="Helvetica,sans-Serif" font-weight="bold" font-size="11.00" fill="#000000">payments</text>
<text text-anchor="start" x="155.0437" y="-209.1" font-family="Helvetica,sans-Serif" font-size="11.00" fill="#000000">[table]</text>
<polygon fill="none" stroke="#000000" points="10,-179 10,-201 91,-201 91,-179 10,-179"/>
<image xlink:href="../../images/primaryKeys.png" width="11px" height="12px" preserveAspectRatio="xMinYMin meet" x="15" y="-196"/>
<text text-anchor="start" x="30" y="-186.1" font-family="Helvetica,sans-Serif" font-size="11.00" fill="#000000">id</text>
<polygon fill="none" stroke="#000000" points="91,-179 91,-201 190,-201 190,-179 91,-179"/>
<text text-anchor="start" x="94" y="-186.7" font-family="Helvetica,sans-Serif" font-size="11.00" fill="#000000">uuid[2147483647]</text>
<polygon fill="none" stroke="#000000" points="10,-157 10,-179 91,-179 91,-157 10,-157"/>
<text text-anchor="start" x="30" y="-164.1" font-family="Helvetica,sans-Serif" font-size="11.00" fill="#000000">created_at</text>
<polygon fill="none" stroke="#000000" points="91,-157 91,-179 190,-179 190,-157 91,-157"/>
<text text-anchor="start" x="94" y="-164.7" font-family="Helvetica,sans-Serif" font-size="11.00" fill="#000000">timestamptz[35,6]</text>
<polygon fill="none" stroke="#000000" points="10,-135 10,-157 91,-157 91,-135 10,-135"/>
<text text-anchor="start" x="30" y="-142.1" font-family="Helvetica,sans-Serif" font-size="11.00" fill="#000000">payer_id</text>
<polygon fill="none" stroke="#000000" points="91,-135 91,-157 190,-157 190,-135 91,-135"/>
<text text-anchor="start" x="94" y="-142.7" font-family="Helvetica,sans-Serif" font-size="11.00" fill="#000000">uuid[2147483647]</text>
<polygon fill="none" stroke="#000000" points="10,-113 10,-135 91,-135 91,-113 10,-113"/>
<text text-anchor="start" x="30" y="-120.1" font-family="Helvetica,sans-Serif" font-size="11.00" fill="#000000">patient_id</text>
<polygon fill="none" stroke="#000000" points="91,-113 91,-135 190,-135 190,-113 91,-113"/>
<text text-anchor="start" x="94" y="-120.7" font-family="Helvetica,sans-Serif" font-size="11.00" fill="#000000">uuid[2147483647]</text>
<polygon fill="none" stroke="#000000" points="10,-91 10,-113 91,-113 91,-91 10,-91"/>
<text text-anchor="start" x="30" y="-98.1" font-family="Helvetica,sans-Serif" font-size="11.00" fill="#000000">amount</text>
<polygon fill="none" stroke="#000000" points="91,-91 91,-113 190,-113 190,-91 91,-91"/>
<text text-anchor="start" x="94" y="-98.7" font-family="Helvetica,sans-Serif" font-size="11.00" fill="#000000">numeric[131089]</text>
<polygon fill="none" stroke="#000000" points="10,-69 10,-91 91,-91 91,-69 10,-69"/>
<text text-anchor="start" x="30" y="-76.1" font-family="Helvetica,sans-Serif" font-size="11.00" fill="#000000">type</text>
<polygon fill="none" stroke="#000000" points="91,-69 91,-91 190,-91 190,-69 91,-69"/>
<text text-anchor="start" x="94" y="-76.7" font-family="Helvetica,sans-Serif" font-size="11.00" fill="#000000">text[2147483647]</text>
<polygon fill="none" stroke="#000000" points="10,-47 10,-69 91,-69 91,-47 10,-47"/>
<text text-anchor="start" x="30" y="-54.1" font-family="Helvetica,sans-Serif" font-size="11.00" fill="#000000">context</text>
<polygon fill="none" stroke="#000000" points="91,-47 91,-69 190,-69 190,-47 91,-47"/>
<text text-anchor="start" x="93.7258" y="-54.7" font-family="Helvetica,sans-Serif" font-size="11.00" fill="#000000">jsonb[2147483647]</text>
<polygon fill="none" stroke="#000000" points="10,-25 10,-47 91,-47 91,-25 10,-25"/>
<text text-anchor="start" x="30" y="-32.1" font-family="Helvetica,sans-Serif" font-size="11.00" fill="#000000">status</text>
<polygon fill="none" stroke="#000000" points="91,-25 91,-47 190,-47 190,-25 91,-25"/>
<text text-anchor="start" x="94" y="-32.7" font-family="Helvetica,sans-Serif" font-size="11.00" fill="#000000">text[2147483647]</text>
<polygon fill="#ffffff" stroke="transparent" points="10,-6 10,-25 42,-25 42,-6 10,-6"/>
<polygon fill="none" stroke="#000000" points="10,-6 10,-25 42,-25 42,-6 10,-6"/>
<text text-anchor="start" x="13" y="-12.1" font-family="Helvetica,sans-Serif" font-size="11.00" fill="#000000">&lt; 0</text>
<polygon fill="#ffffff" stroke="transparent" points="42,-6 42,-25 91,-25 91,-6 42,-6"/>
<polygon fill="none" stroke="#000000" points="42,-6 42,-25 91,-25 91,-6 42,-6"/>
<text text-anchor="start" x="55.6105" y="-12.1" font-family="Helvetica,sans-Serif" font-size="11.00" fill="#000000">0 rows</text>
<polygon fill="#ffffff" stroke="transparent" points="91,-6 91,-25 190,-25 190,-6 91,-6"/>
<polygon fill="none" stroke="#000000" points="91,-6 91,-25 190,-25 190,-6 91,-6"/>
<text text-anchor="start" x="171.4053" y="-12.1" font-family="Helvetica,sans-Serif" font-size="11.00" fill="#000000">0 &gt;</text>
<polygon fill="none" stroke="#000000" stroke-width="2" points="9,-5 9,-225 191,-225 191,-5 9,-5"/>
</a>
</g>
</g>
</g>
</svg>
