<?xml version="1.0" encoding="UTF-8" standalone="no"?>
<!DOCTYPE svg PUBLIC "-//W3C//DTD SVG 1.1//EN"
 "http://www.w3.org/Graphics/SVG/1.1/DTD/svg11.dtd">
<!-- Generated by graphviz version 2.40.1 (20161225.0304)
 -->
<!-- Title: payment_statuses Pages: 1 -->
<svg width="243pt" height="84pt"
 viewBox="0.00 0.00 243.00 84.00" xmlns="http://www.w3.org/2000/svg" xmlns:xlink="http://www.w3.org/1999/xlink">
<g id="graph0" class="graph" transform="scale(1 1) rotate(0) translate(4 80)">
<title>payment_statuses</title>
<polygon fill="#ffffff" stroke="transparent" points="-4,4 -4,-80 239,-80 239,4 -4,4"/>
<!-- payment_statuses -->
<g id="node1" class="node">
<title>payment_statuses</title>
<g id="a_node1"><a xlink:href="../../tables/payment_statuses.html" xlink:title="payment_statuses" target="_top">
<polygon fill="#ffffff" stroke="transparent" points="8,-4 8,-72 227,-72 227,-4 8,-4"/>
<polygon fill="#f5f5f5" stroke="transparent" points="10.5,-47 10.5,-70 225.5,-70 225.5,-47 10.5,-47"/>
<polygon fill="none" stroke="#000000" points="10.5,-47 10.5,-70 225.5,-70 225.5,-47 10.5,-47"/>
<text text-anchor="start" x="15.5" y="-56.1" font-family="Helvetica,sans-Serif" font-weight="bold" font-size="11.00" fill="#000000">payment_statuses</text>
<text text-anchor="start" x="190.5437" y="-55.1" font-family="Helvetica,sans-Serif" font-size="11.00" fill="#000000">[table]</text>
<polygon fill="none" stroke="#000000" points="10.5,-25 10.5,-47 135.5,-47 135.5,-25 10.5,-25"/>
<image xlink:href="../../images/primaryKeys.png" width="11px" height="12px" preserveAspectRatio="xMinYMin meet" x="15.5" y="-42"/>
<text text-anchor="start" x="30.5" y="-32.1" font-family="Helvetica,sans-Serif" font-size="11.00" fill="#000000">name</text>
<polygon fill="none" stroke="#000000" points="135.5,-25 135.5,-47 225.5,-47 225.5,-25 135.5,-25"/>
<text text-anchor="start" x="138.0042" y="-32.7" font-family="Helvetica,sans-Serif" font-size="11.00" fill="#000000">text[2147483647]</text>
<polygon fill="#ffffff" stroke="transparent" points="10.5,-6 10.5,-25 64.5,-25 64.5,-6 10.5,-6"/>
<polygon fill="none" stroke="#000000" points="10.5,-6 10.5,-25 64.5,-25 64.5,-6 10.5,-6"/>
<text text-anchor="start" x="13.5" y="-12.1" font-family="Helvetica,sans-Serif" font-size="11.00" fill="#000000">&lt; 0</text>
<polygon fill="#ffffff" stroke="transparent" points="64.5,-6 64.5,-25 135.5,-25 135.5,-6 64.5,-6"/>
<polygon fill="none" stroke="#000000" points="64.5,-6 64.5,-25 135.5,-25 135.5,-6 64.5,-6"/>
<text text-anchor="start" x="100.1105" y="-12.1" font-family="Helvetica,sans-Serif" font-size="11.00" fill="#000000">0 rows</text>
<polygon fill="#ffffff" stroke="transparent" points="135.5,-6 135.5,-25 225.5,-25 225.5,-6 135.5,-6"/>
<polygon fill="none" stroke="#000000" points="135.5,-6 135.5,-25 225.5,-25 225.5,-6 135.5,-6"/>
<text text-anchor="start" x="206.9053" y="-12.1" font-family="Helvetica,sans-Serif" font-size="11.00" fill="#000000">0 &gt;</text>
<polygon fill="none" stroke="#000000" stroke-width="2" points="9,-5 9,-71 226,-71 226,-5 9,-5"/>
</a>
</g>
</g>
</g>
</svg>
