<?xml version="1.0" encoding="UTF-8" standalone="no"?>
<!DOCTYPE svg PUBLIC "-//W3C//DTD SVG 1.1//EN"
 "http://www.w3.org/Graphics/SVG/1.1/DTD/svg11.dtd">
<!-- Generated by graphviz version 2.40.1 (20161225.0304)
 -->
<!-- Title: twoDegreesRelationshipsDiagram Pages: 1 -->
<svg width="1463pt" height="537pt"
 viewBox="0.00 0.00 1463.00 537.20" xmlns="http://www.w3.org/2000/svg" xmlns:xlink="http://www.w3.org/1999/xlink">
<g id="graph0" class="graph" transform="scale(1 1) rotate(0) translate(4 533.2)">
<title>twoDegreesRelationshipsDiagram</title>
<polygon fill="#ffffff" stroke="transparent" points="-4,4 -4,-533.2 1459,-533.2 1459,4 -4,4"/>
<text text-anchor="middle" x="72.4936" y="-7.3" font-family="Helvetica,sans-Serif" font-size="11.00" fill="#000000">Generated by SchemaSpy</text>
<!-- companies -->
<g id="node1" class="node">
<title>companies</title>
<g id="a_node1"><a xlink:href="../../tables/companies.html" xlink:title="companies" target="_top">
<polygon fill="#ffffff" stroke="transparent" points="576,-299.2 576,-426.2 753,-426.2 753,-299.2 576,-299.2"/>
<polygon fill="#f5f5f5" stroke="transparent" points="576.5,-402.7 576.5,-425.7 753.5,-425.7 753.5,-402.7 576.5,-402.7"/>
<polygon fill="none" stroke="#000000" points="576.5,-402.7 576.5,-425.7 753.5,-425.7 753.5,-402.7 576.5,-402.7"/>
<text text-anchor="start" x="581.5" y="-411.8" font-family="Helvetica,sans-Serif" font-weight="bold" font-size="11.00" fill="#000000">companies</text>
<text text-anchor="start" x="718.5437" y="-410.8" font-family="Helvetica,sans-Serif" font-size="11.00" fill="#000000">[table]</text>
<polygon fill="none" stroke="#000000" points="576.5,-380.7 576.5,-402.7 753.5,-402.7 753.5,-380.7 576.5,-380.7"/>
<image xlink:href="../../images/primaryKeys.png" width="11px" height="12px" preserveAspectRatio="xMinYMin meet" x="581.5" y="-397.7"/>
<text text-anchor="start" x="596.5" y="-387.8" font-family="Helvetica,sans-Serif" font-size="11.00" fill="#000000">id</text>
<polygon fill="none" stroke="#000000" points="576.5,-358.7 576.5,-380.7 753.5,-380.7 753.5,-358.7 576.5,-358.7"/>
<image xlink:href="../../images/foreignKeys.png" width="11px" height="12px" preserveAspectRatio="xMinYMin meet" x="581.5" y="-375.7"/>
<text text-anchor="start" x="596.5" y="-365.8" font-family="Helvetica,sans-Serif" font-size="11.00" fill="#000000">physical_address_id</text>
<polygon fill="none" stroke="#000000" points="576.5,-336.7 576.5,-358.7 753.5,-358.7 753.5,-336.7 576.5,-336.7"/>
<image xlink:href="../../images/foreignKeys.png" width="11px" height="12px" preserveAspectRatio="xMinYMin meet" x="581.5" y="-353.7"/>
<text text-anchor="start" x="596.5" y="-343.8" font-family="Helvetica,sans-Serif" font-size="11.00" fill="#000000">created_by_user_id</text>
<polygon fill="none" stroke="#000000" points="576.5,-317.7 576.5,-336.7 753.5,-336.7 753.5,-317.7 576.5,-317.7"/>
<text text-anchor="start" x="579.5" y="-323.8" font-family="Helvetica,sans-Serif" font-size="11.00" fill="#000000">...</text>
<polygon fill="#ffffff" stroke="transparent" points="576.5,-298.7 576.5,-317.7 645.5,-317.7 645.5,-298.7 576.5,-298.7"/>
<polygon fill="none" stroke="#000000" points="576.5,-298.7 576.5,-317.7 645.5,-317.7 645.5,-298.7 576.5,-298.7"/>
<text text-anchor="start" x="579.5" y="-304.8" font-family="Helvetica,sans-Serif" font-size="11.00" fill="#000000">&lt; 2</text>
<polygon fill="#ffffff" stroke="transparent" points="645.5,-298.7 645.5,-317.7 707.5,-317.7 707.5,-298.7 645.5,-298.7"/>
<polygon fill="none" stroke="#000000" points="645.5,-298.7 645.5,-317.7 707.5,-317.7 707.5,-298.7 645.5,-298.7"/>
<text text-anchor="start" x="672.1105" y="-304.8" font-family="Helvetica,sans-Serif" font-size="11.00" fill="#000000">0 rows</text>
<polygon fill="#ffffff" stroke="transparent" points="707.5,-298.7 707.5,-317.7 753.5,-317.7 753.5,-298.7 707.5,-298.7"/>
<polygon fill="none" stroke="#000000" points="707.5,-298.7 707.5,-317.7 753.5,-317.7 753.5,-298.7 707.5,-298.7"/>
<text text-anchor="start" x="734.9053" y="-304.8" font-family="Helvetica,sans-Serif" font-size="11.00" fill="#000000">4 &gt;</text>
</a>
</g>
</g>
<!-- users -->
<g id="node2" class="node">
<title>users</title>
<g id="a_node2"><a xlink:href="../../tables/users.html" xlink:title="users" target="_top">
<polygon fill="#ffffff" stroke="transparent" points="447,-195.2 447,-256.2 527,-256.2 527,-195.2 447,-195.2"/>
<polygon fill="#f5f5f5" stroke="transparent" points="447,-232.7 447,-255.7 527,-255.7 527,-232.7 447,-232.7"/>
<polygon fill="none" stroke="#000000" points="447,-232.7 447,-255.7 527,-255.7 527,-232.7 447,-232.7"/>
<text text-anchor="start" x="452" y="-241.8" font-family="Helvetica,sans-Serif" font-weight="bold" font-size="11.00" fill="#000000">users</text>
<text text-anchor="start" x="492.0437" y="-240.8" font-family="Helvetica,sans-Serif" font-size="11.00" fill="#000000">[table]</text>
<polygon fill="none" stroke="#000000" points="447,-213.7 447,-232.7 527,-232.7 527,-213.7 447,-213.7"/>
<text text-anchor="start" x="450" y="-219.8" font-family="Helvetica,sans-Serif" font-size="11.00" fill="#000000">...</text>
<polygon fill="#ffffff" stroke="transparent" points="447,-194.7 447,-213.7 468,-213.7 468,-194.7 447,-194.7"/>
<polygon fill="none" stroke="#000000" points="447,-194.7 447,-213.7 468,-213.7 468,-194.7 447,-194.7"/>
<text text-anchor="start" x="449.7027" y="-200.8" font-family="Helvetica,sans-Serif" font-size="11.00" fill="#000000">&lt; 1</text>
<polygon fill="#ffffff" stroke="transparent" points="468,-194.7 468,-213.7 506,-213.7 506,-194.7 468,-194.7"/>
<polygon fill="none" stroke="#000000" points="468,-194.7 468,-213.7 506,-213.7 506,-194.7 468,-194.7"/>
<text text-anchor="start" x="470.8053" y="-200.8" font-family="Helvetica,sans-Serif" font-size="11.00" fill="#000000">0 rows</text>
<polygon fill="#ffffff" stroke="transparent" points="506,-194.7 506,-213.7 527,-213.7 527,-194.7 506,-194.7"/>
<polygon fill="none" stroke="#000000" points="506,-194.7 506,-213.7 527,-213.7 527,-194.7 506,-194.7"/>
<text text-anchor="start" x="508.7027" y="-200.8" font-family="Helvetica,sans-Serif" font-size="11.00" fill="#000000">8 &gt;</text>
</a>
</g>
</g>
<!-- companies&#45;&gt;users -->
<g id="edge1" class="edge">
<title>companies:w&#45;&gt;users:e</title>
<path fill="none" stroke="#000000" d="M562.465,-344.3566C529.1826,-324.478 580.9177,-222.7 527,-222.7"/>
<polygon fill="#000000" stroke="#000000" points="568.7178,-345.8461 575.6657,-351.202 572.6089,-346.773 576.5,-347.7 576.5,-347.7 576.5,-347.7 572.6089,-346.773 577.3343,-344.198 568.7178,-345.8461 568.7178,-345.8461"/>
<ellipse fill="none" stroke="#000000" cx="565.6049" cy="-345.1045" rx="3.2" ry="3.2"/>
</g>
<!-- addresses -->
<g id="node3" class="node">
<title>addresses</title>
<g id="a_node3"><a xlink:href="../../tables/addresses.html" xlink:title="addresses" target="_top">
<polygon fill="#ffffff" stroke="transparent" points="8,-202.7 8,-490.7 191,-490.7 191,-202.7 8,-202.7"/>
<polygon fill="#f5f5f5" stroke="transparent" points="10.5,-465.7 10.5,-488.7 189.5,-488.7 189.5,-465.7 10.5,-465.7"/>
<polygon fill="none" stroke="#000000" points="10.5,-465.7 10.5,-488.7 189.5,-488.7 189.5,-465.7 10.5,-465.7"/>
<text text-anchor="start" x="15.5" y="-474.8" font-family="Helvetica,sans-Serif" font-weight="bold" font-size="11.00" fill="#000000">addresses</text>
<text text-anchor="start" x="154.5437" y="-473.8" font-family="Helvetica,sans-Serif" font-size="11.00" fill="#000000">[table]</text>
<polygon fill="none" stroke="#000000" points="10.5,-443.7 10.5,-465.7 95.5,-465.7 95.5,-443.7 10.5,-443.7"/>
<image xlink:href="../../images/primaryKeys.png" width="11px" height="12px" preserveAspectRatio="xMinYMin meet" x="15.5" y="-460.7"/>
<text text-anchor="start" x="30.5" y="-450.8" font-family="Helvetica,sans-Serif" font-size="11.00" fill="#000000">id</text>
<polygon fill="none" stroke="#000000" points="95.5,-443.7 95.5,-465.7 189.5,-465.7 189.5,-443.7 95.5,-443.7"/>
<text text-anchor="start" x="98.4758" y="-451.4" font-family="Helvetica,sans-Serif" font-size="11.00" fill="#000000">uuid[2147483647]</text>
<polygon fill="none" stroke="#000000" points="10.5,-421.7 10.5,-443.7 95.5,-443.7 95.5,-421.7 10.5,-421.7"/>
<text text-anchor="start" x="30.5" y="-428.8" font-family="Helvetica,sans-Serif" font-size="11.00" fill="#000000">street</text>
<polygon fill="none" stroke="#000000" points="95.5,-421.7 95.5,-443.7 189.5,-443.7 189.5,-421.7 95.5,-421.7"/>
<text text-anchor="start" x="98.5" y="-429.4" font-family="Helvetica,sans-Serif" font-size="11.00" fill="#000000">text[2147483647]</text>
<polygon fill="none" stroke="#000000" points="10.5,-399.7 10.5,-421.7 95.5,-421.7 95.5,-399.7 10.5,-399.7"/>
<text text-anchor="start" x="30.5" y="-406.8" font-family="Helvetica,sans-Serif" font-size="11.00" fill="#000000">city</text>
<polygon fill="none" stroke="#000000" points="95.5,-399.7 95.5,-421.7 189.5,-421.7 189.5,-399.7 95.5,-399.7"/>
<text text-anchor="start" x="98.5" y="-407.4" font-family="Helvetica,sans-Serif" font-size="11.00" fill="#000000">text[2147483647]</text>
<polygon fill="none" stroke="#000000" points="10.5,-377.7 10.5,-399.7 95.5,-399.7 95.5,-377.7 10.5,-377.7"/>
<text text-anchor="start" x="30.5" y="-384.8" font-family="Helvetica,sans-Serif" font-size="11.00" fill="#000000">state</text>
<polygon fill="none" stroke="#000000" points="95.5,-377.7 95.5,-399.7 189.5,-399.7 189.5,-377.7 95.5,-377.7"/>
<text text-anchor="start" x="98.5" y="-385.4" font-family="Helvetica,sans-Serif" font-size="11.00" fill="#000000">text[2147483647]</text>
<polygon fill="none" stroke="#000000" points="10.5,-355.7 10.5,-377.7 95.5,-377.7 95.5,-355.7 10.5,-355.7"/>
<text text-anchor="start" x="30.5" y="-362.8" font-family="Helvetica,sans-Serif" font-size="11.00" fill="#000000">zip</text>
<polygon fill="none" stroke="#000000" points="95.5,-355.7 95.5,-377.7 189.5,-377.7 189.5,-355.7 95.5,-355.7"/>
<text text-anchor="start" x="98.5" y="-363.4" font-family="Helvetica,sans-Serif" font-size="11.00" fill="#000000">text[2147483647]</text>
<polygon fill="none" stroke="#000000" points="10.5,-333.7 10.5,-355.7 95.5,-355.7 95.5,-333.7 10.5,-333.7"/>
<text text-anchor="start" x="30.5" y="-340.8" font-family="Helvetica,sans-Serif" font-size="11.00" fill="#000000">country</text>
<polygon fill="none" stroke="#000000" points="95.5,-333.7 95.5,-355.7 189.5,-355.7 189.5,-333.7 95.5,-333.7"/>
<text text-anchor="start" x="98.5" y="-341.4" font-family="Helvetica,sans-Serif" font-size="11.00" fill="#000000">text[2147483647]</text>
<polygon fill="none" stroke="#000000" points="10.5,-311.7 10.5,-333.7 95.5,-333.7 95.5,-311.7 10.5,-311.7"/>
<text text-anchor="start" x="30.5" y="-318.8" font-family="Helvetica,sans-Serif" font-size="11.00" fill="#000000">latitude</text>
<polygon fill="none" stroke="#000000" points="95.5,-311.7 95.5,-333.7 189.5,-333.7 189.5,-311.7 95.5,-311.7"/>
<text text-anchor="start" x="98.5" y="-319.4" font-family="Helvetica,sans-Serif" font-size="11.00" fill="#000000">numeric[131089]</text>
<polygon fill="none" stroke="#000000" points="10.5,-289.7 10.5,-311.7 95.5,-311.7 95.5,-289.7 10.5,-289.7"/>
<text text-anchor="start" x="30.5" y="-296.8" font-family="Helvetica,sans-Serif" font-size="11.00" fill="#000000">longitude</text>
<polygon fill="none" stroke="#000000" points="95.5,-289.7 95.5,-311.7 189.5,-311.7 189.5,-289.7 95.5,-289.7"/>
<text text-anchor="start" x="98.5" y="-297.4" font-family="Helvetica,sans-Serif" font-size="11.00" fill="#000000">numeric[131089]</text>
<polygon fill="none" stroke="#000000" points="10.5,-267.7 10.5,-289.7 95.5,-289.7 95.5,-267.7 10.5,-267.7"/>
<text text-anchor="start" x="30.5" y="-274.8" font-family="Helvetica,sans-Serif" font-size="11.00" fill="#000000">created_at</text>
<polygon fill="none" stroke="#000000" points="95.5,-267.7 95.5,-289.7 189.5,-289.7 189.5,-267.7 95.5,-267.7"/>
<text text-anchor="start" x="98.5" y="-275.4" font-family="Helvetica,sans-Serif" font-size="11.00" fill="#000000">timestamptz[35,6]</text>
<polygon fill="none" stroke="#000000" points="10.5,-245.7 10.5,-267.7 95.5,-267.7 95.5,-245.7 10.5,-245.7"/>
<text text-anchor="start" x="30.5" y="-252.8" font-family="Helvetica,sans-Serif" font-size="11.00" fill="#000000">updated_at</text>
<polygon fill="none" stroke="#000000" points="95.5,-245.7 95.5,-267.7 189.5,-267.7 189.5,-245.7 95.5,-245.7"/>
<text text-anchor="start" x="98.5" y="-253.4" font-family="Helvetica,sans-Serif" font-size="11.00" fill="#000000">timestamptz[35,6]</text>
<polygon fill="none" stroke="#000000" points="10.5,-223.7 10.5,-245.7 95.5,-245.7 95.5,-223.7 10.5,-223.7"/>
<text text-anchor="start" x="30.5" y="-230.8" font-family="Helvetica,sans-Serif" font-size="11.00" fill="#000000">deleted_at</text>
<polygon fill="none" stroke="#000000" points="95.5,-223.7 95.5,-245.7 189.5,-245.7 189.5,-223.7 95.5,-223.7"/>
<text text-anchor="start" x="98.5" y="-231.4" font-family="Helvetica,sans-Serif" font-size="11.00" fill="#000000">timestamptz[35,6]</text>
<polygon fill="#ffffff" stroke="transparent" points="10.5,-204.7 10.5,-223.7 44.5,-223.7 44.5,-204.7 10.5,-204.7"/>
<polygon fill="none" stroke="#000000" points="10.5,-204.7 10.5,-223.7 44.5,-223.7 44.5,-204.7 10.5,-204.7"/>
<text text-anchor="start" x="13.5" y="-210.8" font-family="Helvetica,sans-Serif" font-size="11.00" fill="#000000">&lt; 0</text>
<polygon fill="#ffffff" stroke="transparent" points="44.5,-204.7 44.5,-223.7 95.5,-223.7 95.5,-204.7 44.5,-204.7"/>
<polygon fill="none" stroke="#000000" points="44.5,-204.7 44.5,-223.7 95.5,-223.7 95.5,-204.7 44.5,-204.7"/>
<text text-anchor="start" x="60.1105" y="-210.8" font-family="Helvetica,sans-Serif" font-size="11.00" fill="#000000">0 rows</text>
<polygon fill="#ffffff" stroke="transparent" points="95.5,-204.7 95.5,-223.7 189.5,-223.7 189.5,-204.7 95.5,-204.7"/>
<polygon fill="none" stroke="#000000" points="95.5,-204.7 95.5,-223.7 189.5,-223.7 189.5,-204.7 95.5,-204.7"/>
<text text-anchor="start" x="170.9053" y="-210.8" font-family="Helvetica,sans-Serif" font-size="11.00" fill="#000000">3 &gt;</text>
<polygon fill="none" stroke="#000000" stroke-width="2" points="9,-203.7 9,-489.7 190,-489.7 190,-203.7 9,-203.7"/>
</a>
</g>
</g>
<!-- companies&#45;&gt;addresses -->
<g id="edge2" class="edge">
<title>companies:w&#45;&gt;addresses:e</title>
<path fill="none" stroke="#000000" d="M561.7218,-369.8243C417.4258,-372.2971 379.9019,-411.2026 232,-444.7 213.0746,-448.9863 208.9047,-454.7 189.5,-454.7"/>
<polygon fill="#000000" stroke="#000000" points="568.5003,-369.7673 576.5303,-373.2999 572.5001,-369.7337 576.5,-369.7 576.5,-369.7 576.5,-369.7 572.5001,-369.7337 576.4697,-366.1001 568.5003,-369.7673 568.5003,-369.7673"/>
<ellipse fill="none" stroke="#000000" cx="565.3004" cy="-369.7943" rx="3.2" ry="3.2"/>
</g>
<!-- profiles -->
<g id="node7" class="node">
<title>profiles</title>
<g id="a_node7"><a xlink:href="../../tables/profiles.html" xlink:title="profiles" target="_top">
<polygon fill="#ffffff" stroke="transparent" points="240,-56.2 240,-205.2 398,-205.2 398,-56.2 240,-56.2"/>
<polygon fill="#f5f5f5" stroke="transparent" points="240,-181.7 240,-204.7 398,-204.7 398,-181.7 240,-181.7"/>
<polygon fill="none" stroke="#000000" points="240,-181.7 240,-204.7 398,-204.7 398,-181.7 240,-181.7"/>
<text text-anchor="start" x="245" y="-190.8" font-family="Helvetica,sans-Serif" font-weight="bold" font-size="11.00" fill="#000000">profiles</text>
<text text-anchor="start" x="363.0437" y="-189.8" font-family="Helvetica,sans-Serif" font-size="11.00" fill="#000000">[table]</text>
<polygon fill="none" stroke="#000000" points="240,-159.7 240,-181.7 398,-181.7 398,-159.7 240,-159.7"/>
<image xlink:href="../../images/primaryKeys.png" width="11px" height="12px" preserveAspectRatio="xMinYMin meet" x="245" y="-176.7"/>
<text text-anchor="start" x="260" y="-166.8" font-family="Helvetica,sans-Serif" font-size="11.00" fill="#000000">id</text>
<polygon fill="none" stroke="#000000" points="240,-137.7 240,-159.7 398,-159.7 398,-137.7 240,-137.7"/>
<image xlink:href="../../images/foreignKeys.png" width="11px" height="12px" preserveAspectRatio="xMinYMin meet" x="245" y="-154.7"/>
<text text-anchor="start" x="260" y="-144.8" font-family="Helvetica,sans-Serif" font-size="11.00" fill="#000000">gender</text>
<polygon fill="none" stroke="#000000" points="240,-115.7 240,-137.7 398,-137.7 398,-115.7 240,-115.7"/>
<image xlink:href="../../images/foreignKeys.png" width="11px" height="12px" preserveAspectRatio="xMinYMin meet" x="245" y="-132.7"/>
<text text-anchor="start" x="260" y="-122.8" font-family="Helvetica,sans-Serif" font-size="11.00" fill="#000000">address_id</text>
<polygon fill="none" stroke="#000000" points="240,-93.7 240,-115.7 398,-115.7 398,-93.7 240,-93.7"/>
<image xlink:href="../../images/foreignKeys.png" width="11px" height="12px" preserveAspectRatio="xMinYMin meet" x="245" y="-110.7"/>
<text text-anchor="start" x="260" y="-100.8" font-family="Helvetica,sans-Serif" font-size="11.00" fill="#000000">marital_status</text>
<polygon fill="none" stroke="#000000" points="240,-74.7 240,-93.7 398,-93.7 398,-74.7 240,-74.7"/>
<text text-anchor="start" x="243" y="-80.8" font-family="Helvetica,sans-Serif" font-size="11.00" fill="#000000">...</text>
<polygon fill="#ffffff" stroke="transparent" points="240,-55.7 240,-74.7 300,-74.7 300,-55.7 240,-55.7"/>
<polygon fill="none" stroke="#000000" points="240,-55.7 240,-74.7 300,-74.7 300,-55.7 240,-55.7"/>
<text text-anchor="start" x="243" y="-61.8" font-family="Helvetica,sans-Serif" font-size="11.00" fill="#000000">&lt; 3</text>
<polygon fill="#ffffff" stroke="transparent" points="300,-55.7 300,-74.7 357,-74.7 357,-55.7 300,-55.7"/>
<polygon fill="none" stroke="#000000" points="300,-55.7 300,-74.7 357,-74.7 357,-55.7 300,-55.7"/>
<text text-anchor="start" x="321.6105" y="-61.8" font-family="Helvetica,sans-Serif" font-size="11.00" fill="#000000">0 rows</text>
<polygon fill="#ffffff" stroke="transparent" points="357,-55.7 357,-74.7 398,-74.7 398,-55.7 357,-55.7"/>
<polygon fill="none" stroke="#000000" points="357,-55.7 357,-74.7 398,-74.7 398,-55.7 357,-55.7"/>
<text text-anchor="start" x="379.4053" y="-61.8" font-family="Helvetica,sans-Serif" font-size="11.00" fill="#000000">2 &gt;</text>
</a>
</g>
</g>
<!-- users&#45;&gt;profiles -->
<g id="edge19" class="edge">
<title>users:w&#45;&gt;profiles:e</title>
<path fill="none" stroke="#000000" d="M436.579,-220.1919C418.283,-209.8047 425.5377,-170.7 398,-170.7"/>
<polygon fill="#000000" stroke="#000000" points="447.1582,-218.6238 445.2862,-226.4018 443.7306,-226.0274 445.6026,-218.2494 447.1582,-218.6238"/>
<polyline fill="none" stroke="#000000" points="447,-222.7 443.111,-221.764 "/>
<ellipse fill="none" stroke="#000000" cx="439.9999" cy="-221.0152" rx="3.2" ry="3.2"/>
</g>
<!-- company_doing_business_as -->
<g id="node4" class="node">
<title>company_doing_business_as</title>
<g id="a_node4"><a xlink:href="../../tables/company_doing_business_as.html" xlink:title="company_doing_business_as" target="_top">
<polygon fill="#ffffff" stroke="transparent" points="802,-369.2 802,-430.2 989,-430.2 989,-369.2 802,-369.2"/>
<polygon fill="#f5f5f5" stroke="transparent" points="802.5,-406.7 802.5,-429.7 989.5,-429.7 989.5,-406.7 802.5,-406.7"/>
<polygon fill="none" stroke="#000000" points="802.5,-406.7 802.5,-429.7 989.5,-429.7 989.5,-406.7 802.5,-406.7"/>
<text text-anchor="start" x="807.059" y="-415.8" font-family="Helvetica,sans-Serif" font-weight="bold" font-size="11.00" fill="#000000">company_doing_business_as</text>
<text text-anchor="start" x="955.0219" y="-414.8" font-family="Helvetica,sans-Serif" font-size="11.00" fill="#000000">[table]</text>
<polygon fill="none" stroke="#000000" points="802.5,-387.7 802.5,-406.7 989.5,-406.7 989.5,-387.7 802.5,-387.7"/>
<text text-anchor="start" x="805.5" y="-393.8" font-family="Helvetica,sans-Serif" font-size="11.00" fill="#000000">...</text>
<polygon fill="#ffffff" stroke="transparent" points="802.5,-368.7 802.5,-387.7 876.5,-387.7 876.5,-368.7 802.5,-368.7"/>
<polygon fill="none" stroke="#000000" points="802.5,-368.7 802.5,-387.7 876.5,-387.7 876.5,-368.7 802.5,-368.7"/>
<text text-anchor="start" x="805.5" y="-374.8" font-family="Helvetica,sans-Serif" font-size="11.00" fill="#000000">&lt; 1</text>
<polygon fill="#ffffff" stroke="transparent" points="876.5,-368.7 876.5,-387.7 941.5,-387.7 941.5,-368.7 876.5,-368.7"/>
<polygon fill="none" stroke="#000000" points="876.5,-368.7 876.5,-387.7 941.5,-387.7 941.5,-368.7 876.5,-368.7"/>
<text text-anchor="start" x="906.1105" y="-374.8" font-family="Helvetica,sans-Serif" font-size="11.00" fill="#000000">0 rows</text>
<polygon fill="#ffffff" stroke="transparent" points="941.5,-368.7 941.5,-387.7 989.5,-387.7 989.5,-368.7 941.5,-368.7"/>
<polygon fill="none" stroke="#000000" points="941.5,-368.7 941.5,-387.7 989.5,-387.7 989.5,-368.7 941.5,-368.7"/>
<text text-anchor="start" x="970.9053" y="-374.8" font-family="Helvetica,sans-Serif" font-size="11.00" fill="#000000">1 &gt;</text>
</a>
</g>
</g>
<!-- company_doing_business_as&#45;&gt;companies -->
<g id="edge3" class="edge">
<title>company_doing_business_as:w&#45;&gt;companies:e</title>
<path fill="none" stroke="#000000" d="M787.9599,-395.8291C776.6606,-394.3965 769.5761,-391.7 753.5,-391.7"/>
<polygon fill="#000000" stroke="#000000" points="794.5143,-396.2216 802.2847,-400.2936 798.5072,-396.4608 802.5,-396.7 802.5,-396.7 802.5,-396.7 798.5072,-396.4608 802.7153,-393.1064 794.5143,-396.2216 794.5143,-396.2216"/>
<ellipse fill="none" stroke="#000000" cx="791.32" cy="-396.0303" rx="3.2" ry="3.2"/>
</g>
<!-- company_users -->
<g id="node5" class="node">
<title>company_users</title>
<g id="a_node5"><a xlink:href="../../tables/company_users.html" xlink:title="company_users" target="_top">
<polygon fill="#ffffff" stroke="transparent" points="835.5,-259.2 835.5,-320.2 955.5,-320.2 955.5,-259.2 835.5,-259.2"/>
<polygon fill="#f5f5f5" stroke="transparent" points="835.5,-296.7 835.5,-319.7 955.5,-319.7 955.5,-296.7 835.5,-296.7"/>
<polygon fill="none" stroke="#000000" points="835.5,-296.7 835.5,-319.7 955.5,-319.7 955.5,-296.7 835.5,-296.7"/>
<text text-anchor="start" x="840.186" y="-305.8" font-family="Helvetica,sans-Serif" font-weight="bold" font-size="11.00" fill="#000000">company_users</text>
<text text-anchor="start" x="921.0219" y="-304.8" font-family="Helvetica,sans-Serif" font-size="11.00" fill="#000000">[table]</text>
<polygon fill="none" stroke="#000000" points="835.5,-277.7 835.5,-296.7 955.5,-296.7 955.5,-277.7 835.5,-277.7"/>
<text text-anchor="start" x="838.5" y="-283.8" font-family="Helvetica,sans-Serif" font-size="11.00" fill="#000000">...</text>
<polygon fill="#ffffff" stroke="transparent" points="835.5,-258.7 835.5,-277.7 880.5,-277.7 880.5,-258.7 835.5,-258.7"/>
<polygon fill="none" stroke="#000000" points="835.5,-258.7 835.5,-277.7 880.5,-277.7 880.5,-258.7 835.5,-258.7"/>
<text text-anchor="start" x="838.5" y="-264.8" font-family="Helvetica,sans-Serif" font-size="11.00" fill="#000000">&lt; 2</text>
<polygon fill="#ffffff" stroke="transparent" points="880.5,-258.7 880.5,-277.7 930.5,-277.7 930.5,-258.7 880.5,-258.7"/>
<polygon fill="none" stroke="#000000" points="880.5,-258.7 880.5,-277.7 930.5,-277.7 930.5,-258.7 880.5,-258.7"/>
<text text-anchor="start" x="895.1105" y="-264.8" font-family="Helvetica,sans-Serif" font-size="11.00" fill="#000000">0 rows</text>
<polygon fill="#ffffff" stroke="transparent" points="930.5,-258.7 930.5,-277.7 955.5,-277.7 955.5,-258.7 930.5,-258.7"/>
<polygon fill="none" stroke="#000000" points="930.5,-258.7 930.5,-277.7 955.5,-277.7 955.5,-258.7 930.5,-258.7"/>
<text text-anchor="start" x="946.3862" y="-264.8" font-family="Helvetica,sans-Serif" font-size="11.00" fill="#000000"> &#160;</text>
</a>
</g>
</g>
<!-- company_users&#45;&gt;companies -->
<g id="edge4" class="edge">
<title>company_users:w&#45;&gt;companies:e</title>
<path fill="none" stroke="#000000" d="M821.0679,-290.0975C808.0673,-297.8199 807.6009,-317.3669 794,-334.7 774.8157,-359.1487 784.577,-391.7 753.5,-391.7"/>
<polygon fill="#000000" stroke="#000000" points="827.7129,-288.5332 836.325,-290.2042 831.6064,-287.6166 835.5,-286.7 835.5,-286.7 835.5,-286.7 831.6064,-287.6166 834.675,-283.1958 827.7129,-288.5332 827.7129,-288.5332"/>
<ellipse fill="none" stroke="#000000" cx="824.598" cy="-289.2665" rx="3.2" ry="3.2"/>
</g>
<!-- company_users&#45;&gt;users -->
<g id="edge5" class="edge">
<title>company_users:w&#45;&gt;users:e</title>
<path fill="none" stroke="#000000" d="M820.7885,-286.6783C712.234,-286.3303 677.289,-281.4166 568,-244.7 548.3969,-238.1142 547.6798,-222.7 527,-222.7"/>
<polygon fill="#000000" stroke="#000000" points="827.5,-286.6881 835.4947,-290.3 831.5,-286.6941 835.5,-286.7 835.5,-286.7 835.5,-286.7 831.5,-286.6941 835.5053,-283.1 827.5,-286.6881 827.5,-286.6881"/>
<ellipse fill="none" stroke="#000000" cx="824.3" cy="-286.6834" rx="3.2" ry="3.2"/>
</g>
<!-- patients -->
<g id="node6" class="node">
<title>patients</title>
<g id="a_node6"><a xlink:href="../../tables/patients.html" xlink:title="patients" target="_top">
<polygon fill="#ffffff" stroke="transparent" points="1331,-195.2 1331,-256.2 1412,-256.2 1412,-195.2 1331,-195.2"/>
<polygon fill="#f5f5f5" stroke="transparent" points="1331.5,-232.7 1331.5,-255.7 1412.5,-255.7 1412.5,-232.7 1331.5,-232.7"/>
<polygon fill="none" stroke="#000000" points="1331.5,-232.7 1331.5,-255.7 1412.5,-255.7 1412.5,-232.7 1331.5,-232.7"/>
<text text-anchor="start" x="1336.2429" y="-241.8" font-family="Helvetica,sans-Serif" font-weight="bold" font-size="11.00" fill="#000000">patients</text>
<text text-anchor="start" x="1378.0219" y="-240.8" font-family="Helvetica,sans-Serif" font-size="11.00" fill="#000000">[table]</text>
<polygon fill="none" stroke="#000000" points="1331.5,-213.7 1331.5,-232.7 1412.5,-232.7 1412.5,-213.7 1331.5,-213.7"/>
<text text-anchor="start" x="1334.5" y="-219.8" font-family="Helvetica,sans-Serif" font-size="11.00" fill="#000000">...</text>
<polygon fill="#ffffff" stroke="transparent" points="1331.5,-194.7 1331.5,-213.7 1352.5,-213.7 1352.5,-194.7 1331.5,-194.7"/>
<polygon fill="none" stroke="#000000" points="1331.5,-194.7 1331.5,-213.7 1352.5,-213.7 1352.5,-194.7 1331.5,-194.7"/>
<text text-anchor="start" x="1334.2027" y="-200.8" font-family="Helvetica,sans-Serif" font-size="11.00" fill="#000000">&lt; 9</text>
<polygon fill="#ffffff" stroke="transparent" points="1352.5,-194.7 1352.5,-213.7 1390.5,-213.7 1390.5,-194.7 1352.5,-194.7"/>
<polygon fill="none" stroke="#000000" points="1352.5,-194.7 1352.5,-213.7 1390.5,-213.7 1390.5,-194.7 1352.5,-194.7"/>
<text text-anchor="start" x="1355.3052" y="-200.8" font-family="Helvetica,sans-Serif" font-size="11.00" fill="#000000">0 rows</text>
<polygon fill="#ffffff" stroke="transparent" points="1390.5,-194.7 1390.5,-213.7 1412.5,-213.7 1412.5,-194.7 1390.5,-194.7"/>
<polygon fill="none" stroke="#000000" points="1390.5,-194.7 1390.5,-213.7 1412.5,-213.7 1412.5,-194.7 1390.5,-194.7"/>
<text text-anchor="start" x="1393.9053" y="-200.8" font-family="Helvetica,sans-Serif" font-size="11.00" fill="#000000">2 &gt;</text>
</a>
</g>
</g>
<!-- patients&#45;&gt;companies -->
<g id="edge7" class="edge">
<title>patients:w&#45;&gt;companies:e</title>
<path fill="none" stroke="#000000" d="M1317.1639,-225.8068C1253.6714,-243.0946 1014.0665,-326.7996 997,-330.7 908.2129,-350.9918 877.514,-322.3637 794,-358.7 772.7092,-367.9635 776.7188,-391.7 753.5,-391.7"/>
<polygon fill="#000000" stroke="#000000" points="1323.6815,-224.3944 1332.2625,-226.2183 1327.5907,-223.5472 1331.5,-222.7 1331.5,-222.7 1331.5,-222.7 1327.5907,-223.5472 1330.7375,-219.1817 1323.6815,-224.3944 1323.6815,-224.3944"/>
<ellipse fill="none" stroke="#000000" cx="1320.5541" cy="-225.0722" rx="3.2" ry="3.2"/>
</g>
<!-- patients&#45;&gt;users -->
<g id="edge6" class="edge">
<title>patients:w&#45;&gt;users:e</title>
<path fill="none" stroke="#000000" d="M1316.9836,-222.7C971.4501,-222.7 879.6671,-222.7 527,-222.7"/>
<polygon fill="#000000" stroke="#000000" points="1323.5,-222.7001 1331.5,-226.3 1327.5,-222.7 1331.5,-222.7 1331.5,-222.7 1331.5,-222.7 1327.5,-222.7 1331.5,-219.1 1323.5,-222.7001 1323.5,-222.7001"/>
<ellipse fill="none" stroke="#000000" cx="1320.3" cy="-222.7001" rx="3.2" ry="3.2"/>
</g>
<!-- patients&#45;&gt;users -->
<g id="edge8" class="edge">
<title>patients:w&#45;&gt;users:e</title>
<path fill="none" stroke="#000000" d="M1316.9836,-222.4573C971.4501,-216.7011 879.6671,-216.782 527,-222.7"/>
<polygon fill="#000000" stroke="#000000" points="1323.5011,-222.5662 1331.4398,-226.2995 1327.5006,-222.6331 1331.5,-222.7 1331.5,-222.7 1331.5,-222.7 1327.5006,-222.6331 1331.5602,-219.1005 1323.5011,-222.5662 1323.5011,-222.5662"/>
<ellipse fill="none" stroke="#000000" cx="1320.3016" cy="-222.5127" rx="3.2" ry="3.2"/>
</g>
<!-- patients&#45;&gt;users -->
<g id="edge11" class="edge">
<title>patients:w&#45;&gt;users:e</title>
<path fill="none" stroke="#000000" d="M1316.9836,-222.9832C971.4501,-229.6987 879.6671,-229.6043 527,-222.7"/>
<polygon fill="#000000" stroke="#000000" points="1323.5015,-222.8561 1331.5702,-226.2993 1327.5008,-222.778 1331.5,-222.7 1331.5,-222.7 1331.5,-222.7 1327.5008,-222.778 1331.4298,-219.1007 1323.5015,-222.8561 1323.5015,-222.8561"/>
<ellipse fill="none" stroke="#000000" cx="1320.3021" cy="-222.9185" rx="3.2" ry="3.2"/>
</g>
<!-- patients&#45;&gt;profiles -->
<g id="edge9" class="edge">
<title>patients:w&#45;&gt;profiles:e</title>
<path fill="none" stroke="#000000" d="M1316.8635,-222.3679C1211.6597,-217.9393 988.5017,-170.7 895.5,-170.7 895.5,-170.7 895.5,-170.7 664.5,-170.7 546.0556,-170.7 516.4444,-170.7 398,-170.7"/>
<polygon fill="#000000" stroke="#000000" points="1323.5021,-222.5185 1331.4183,-226.2991 1327.501,-222.6092 1331.5,-222.7 1331.5,-222.7 1331.5,-222.7 1327.501,-222.6092 1331.5817,-219.1009 1323.5021,-222.5185 1323.5021,-222.5185"/>
<ellipse fill="none" stroke="#000000" cx="1320.3029" cy="-222.4459" rx="3.2" ry="3.2"/>
</g>
<!-- provider_locations -->
<g id="node8" class="node">
<title>provider_locations</title>
<g id="a_node8"><a xlink:href="../../tables/provider_locations.html" xlink:title="provider_locations" target="_top">
<polygon fill="#ffffff" stroke="transparent" points="1038,-376.2 1038,-525.2 1247,-525.2 1247,-376.2 1038,-376.2"/>
<polygon fill="#f5f5f5" stroke="transparent" points="1038.5,-501.7 1038.5,-524.7 1247.5,-524.7 1247.5,-501.7 1038.5,-501.7"/>
<polygon fill="none" stroke="#000000" points="1038.5,-501.7 1038.5,-524.7 1247.5,-524.7 1247.5,-501.7 1038.5,-501.7"/>
<text text-anchor="start" x="1043.5" y="-510.8" font-family="Helvetica,sans-Serif" font-weight="bold" font-size="11.00" fill="#000000">provider_locations</text>
<text text-anchor="start" x="1212.5437" y="-509.8" font-family="Helvetica,sans-Serif" font-size="11.00" fill="#000000">[table]</text>
<polygon fill="none" stroke="#000000" points="1038.5,-479.7 1038.5,-501.7 1247.5,-501.7 1247.5,-479.7 1038.5,-479.7"/>
<image xlink:href="../../images/primaryKeys.png" width="11px" height="12px" preserveAspectRatio="xMinYMin meet" x="1043.5" y="-496.7"/>
<text text-anchor="start" x="1058.5" y="-486.8" font-family="Helvetica,sans-Serif" font-size="11.00" fill="#000000">id</text>
<polygon fill="none" stroke="#000000" points="1038.5,-457.7 1038.5,-479.7 1247.5,-479.7 1247.5,-457.7 1038.5,-457.7"/>
<image xlink:href="../../images/foreignKeys.png" width="11px" height="12px" preserveAspectRatio="xMinYMin meet" x="1043.5" y="-474.7"/>
<text text-anchor="start" x="1058.5" y="-464.8" font-family="Helvetica,sans-Serif" font-size="11.00" fill="#000000">company_id</text>
<polygon fill="none" stroke="#000000" points="1038.5,-435.7 1038.5,-457.7 1247.5,-457.7 1247.5,-435.7 1038.5,-435.7"/>
<image xlink:href="../../images/foreignKeys.png" width="11px" height="12px" preserveAspectRatio="xMinYMin meet" x="1043.5" y="-452.7"/>
<text text-anchor="start" x="1058.5" y="-442.8" font-family="Helvetica,sans-Serif" font-size="11.00" fill="#000000">address_id</text>
<polygon fill="none" stroke="#000000" points="1038.5,-413.7 1038.5,-435.7 1247.5,-435.7 1247.5,-413.7 1038.5,-413.7"/>
<image xlink:href="../../images/foreignKeys.png" width="11px" height="12px" preserveAspectRatio="xMinYMin meet" x="1043.5" y="-430.7"/>
<text text-anchor="start" x="1058.5" y="-420.8" font-family="Helvetica,sans-Serif" font-size="11.00" fill="#000000">company_doing_business_as_id</text>
<polygon fill="none" stroke="#000000" points="1038.5,-394.7 1038.5,-413.7 1247.5,-413.7 1247.5,-394.7 1038.5,-394.7"/>
<text text-anchor="start" x="1041.5" y="-400.8" font-family="Helvetica,sans-Serif" font-size="11.00" fill="#000000">...</text>
<polygon fill="#ffffff" stroke="transparent" points="1038.5,-375.7 1038.5,-394.7 1123.5,-394.7 1123.5,-375.7 1038.5,-375.7"/>
<polygon fill="none" stroke="#000000" points="1038.5,-375.7 1038.5,-394.7 1123.5,-394.7 1123.5,-375.7 1038.5,-375.7"/>
<text text-anchor="start" x="1041.5" y="-381.8" font-family="Helvetica,sans-Serif" font-size="11.00" fill="#000000">&lt; 3</text>
<polygon fill="#ffffff" stroke="transparent" points="1123.5,-375.7 1123.5,-394.7 1193.5,-394.7 1193.5,-375.7 1123.5,-375.7"/>
<polygon fill="none" stroke="#000000" points="1123.5,-375.7 1123.5,-394.7 1193.5,-394.7 1193.5,-375.7 1123.5,-375.7"/>
<text text-anchor="start" x="1158.1105" y="-381.8" font-family="Helvetica,sans-Serif" font-size="11.00" fill="#000000">0 rows</text>
<polygon fill="#ffffff" stroke="transparent" points="1193.5,-375.7 1193.5,-394.7 1247.5,-394.7 1247.5,-375.7 1193.5,-375.7"/>
<polygon fill="none" stroke="#000000" points="1193.5,-375.7 1193.5,-394.7 1247.5,-394.7 1247.5,-375.7 1193.5,-375.7"/>
<text text-anchor="start" x="1228.9053" y="-381.8" font-family="Helvetica,sans-Serif" font-size="11.00" fill="#000000">2 &gt;</text>
</a>
</g>
</g>
<!-- patients&#45;&gt;provider_locations -->
<g id="edge10" class="edge">
<title>patients:w&#45;&gt;provider_locations:e</title>
<path fill="none" stroke="#000000" d="M1317.8372,-228.0534C1275.2167,-265.8253 1304.6707,-490.7 1247.5,-490.7"/>
<polygon fill="#000000" stroke="#000000" points="1324.0514,-225.6186 1332.8134,-226.0519 1327.7757,-224.1593 1331.5,-222.7 1331.5,-222.7 1331.5,-222.7 1327.7757,-224.1593 1330.1866,-219.3481 1324.0514,-225.6186 1324.0514,-225.6186"/>
<ellipse fill="none" stroke="#000000" cx="1321.0719" cy="-226.786" rx="3.2" ry="3.2"/>
</g>
<!-- profiles&#45;&gt;addresses -->
<g id="edge13" class="edge">
<title>profiles:w&#45;&gt;addresses:e</title>
<path fill="none" stroke="#000000" d="M226.2616,-131.8521C179.7095,-173.5807 257.7743,-454.7 189.5,-454.7"/>
<polygon fill="#000000" stroke="#000000" points="232.5094,-129.5091 241.2641,-130.0708 236.2547,-128.1046 240,-126.7 240,-126.7 240,-126.7 236.2547,-128.1046 238.7359,-123.3292 232.5094,-129.5091 232.5094,-129.5091"/>
<ellipse fill="none" stroke="#000000" cx="229.5132" cy="-130.6328" rx="3.2" ry="3.2"/>
</g>
<!-- genders -->
<g id="node10" class="node">
<title>genders</title>
<g id="a_node10"><a xlink:href="../../tables/genders.html" xlink:title="genders" target="_top">
<polygon fill="#ffffff" stroke="transparent" points="58.5,-120.2 58.5,-181.2 140.5,-181.2 140.5,-120.2 58.5,-120.2"/>
<polygon fill="#f5f5f5" stroke="transparent" points="58.5,-157.7 58.5,-180.7 140.5,-180.7 140.5,-157.7 58.5,-157.7"/>
<polygon fill="none" stroke="#000000" points="58.5,-157.7 58.5,-180.7 140.5,-180.7 140.5,-157.7 58.5,-157.7"/>
<text text-anchor="start" x="63.1318" y="-166.8" font-family="Helvetica,sans-Serif" font-weight="bold" font-size="11.00" fill="#000000">genders</text>
<text text-anchor="start" x="106.0219" y="-165.8" font-family="Helvetica,sans-Serif" font-size="11.00" fill="#000000">[table]</text>
<polygon fill="none" stroke="#000000" points="58.5,-138.7 58.5,-157.7 140.5,-157.7 140.5,-138.7 58.5,-138.7"/>
<text text-anchor="start" x="61.5" y="-144.8" font-family="Helvetica,sans-Serif" font-size="11.00" fill="#000000">...</text>
<polygon fill="#ffffff" stroke="transparent" points="58.5,-119.7 58.5,-138.7 75.5,-138.7 75.5,-119.7 58.5,-119.7"/>
<polygon fill="none" stroke="#000000" points="58.5,-119.7 58.5,-138.7 75.5,-138.7 75.5,-119.7 58.5,-119.7"/>
<text text-anchor="start" x="61.5" y="-125.8" font-family="Helvetica,sans-Serif" font-size="11.00" fill="#000000"> &#160;</text>
<polygon fill="#ffffff" stroke="transparent" points="75.5,-119.7 75.5,-138.7 116.5,-138.7 116.5,-119.7 75.5,-119.7"/>
<polygon fill="none" stroke="#000000" points="75.5,-119.7 75.5,-138.7 116.5,-138.7 116.5,-119.7 75.5,-119.7"/>
<text text-anchor="start" x="81.1105" y="-125.8" font-family="Helvetica,sans-Serif" font-size="11.00" fill="#000000">0 rows</text>
<polygon fill="#ffffff" stroke="transparent" points="116.5,-119.7 116.5,-138.7 140.5,-138.7 140.5,-119.7 116.5,-119.7"/>
<polygon fill="none" stroke="#000000" points="116.5,-119.7 116.5,-138.7 140.5,-138.7 140.5,-119.7 116.5,-119.7"/>
<text text-anchor="start" x="121.9053" y="-125.8" font-family="Helvetica,sans-Serif" font-size="11.00" fill="#000000">1 &gt;</text>
</a>
</g>
</g>
<!-- profiles&#45;&gt;genders -->
<g id="edge14" class="edge">
<title>profiles:w&#45;&gt;genders:e</title>
<path fill="none" stroke="#000000" d="M225.2756,-148.6596C192.6127,-148.4725 179.3692,-147.7 140.5,-147.7"/>
<polygon fill="#000000" stroke="#000000" points="232,-148.678 239.9901,-152.3 236,-148.689 240,-148.7 240,-148.7 240,-148.7 236,-148.689 240.0099,-145.1 232,-148.678 232,-148.678"/>
<ellipse fill="none" stroke="#000000" cx="228.8" cy="-148.6692" rx="3.2" ry="3.2"/>
</g>
<!-- marital_statuses -->
<g id="node11" class="node">
<title>marital_statuses</title>
<g id="a_node11"><a xlink:href="../../tables/marital_statuses.html" xlink:title="marital_statuses" target="_top">
<polygon fill="#ffffff" stroke="transparent" points="38,-38.2 38,-99.2 161,-99.2 161,-38.2 38,-38.2"/>
<polygon fill="#f5f5f5" stroke="transparent" points="38.5,-75.7 38.5,-98.7 161.5,-98.7 161.5,-75.7 38.5,-75.7"/>
<polygon fill="none" stroke="#000000" points="38.5,-75.7 38.5,-98.7 161.5,-98.7 161.5,-75.7 38.5,-75.7"/>
<text text-anchor="start" x="43.4672" y="-84.8" font-family="Helvetica,sans-Serif" font-weight="bold" font-size="11.00" fill="#000000">marital_statuses</text>
<text text-anchor="start" x="127.0219" y="-83.8" font-family="Helvetica,sans-Serif" font-size="11.00" fill="#000000">[table]</text>
<polygon fill="none" stroke="#000000" points="38.5,-56.7 38.5,-75.7 161.5,-75.7 161.5,-56.7 38.5,-56.7"/>
<text text-anchor="start" x="41.5" y="-62.8" font-family="Helvetica,sans-Serif" font-size="11.00" fill="#000000">...</text>
<polygon fill="#ffffff" stroke="transparent" points="38.5,-37.7 38.5,-56.7 76.5,-56.7 76.5,-37.7 38.5,-37.7"/>
<polygon fill="none" stroke="#000000" points="38.5,-37.7 38.5,-56.7 76.5,-56.7 76.5,-37.7 38.5,-37.7"/>
<text text-anchor="start" x="41.5" y="-43.8" font-family="Helvetica,sans-Serif" font-size="11.00" fill="#000000"> &#160;</text>
<polygon fill="#ffffff" stroke="transparent" points="76.5,-37.7 76.5,-56.7 127.5,-56.7 127.5,-37.7 76.5,-37.7"/>
<polygon fill="none" stroke="#000000" points="76.5,-37.7 76.5,-56.7 127.5,-56.7 127.5,-37.7 76.5,-37.7"/>
<text text-anchor="start" x="92.1105" y="-43.8" font-family="Helvetica,sans-Serif" font-size="11.00" fill="#000000">0 rows</text>
<polygon fill="#ffffff" stroke="transparent" points="127.5,-37.7 127.5,-56.7 161.5,-56.7 161.5,-37.7 127.5,-37.7"/>
<polygon fill="none" stroke="#000000" points="127.5,-37.7 127.5,-56.7 161.5,-56.7 161.5,-37.7 127.5,-37.7"/>
<text text-anchor="start" x="142.9053" y="-43.8" font-family="Helvetica,sans-Serif" font-size="11.00" fill="#000000">1 &gt;</text>
</a>
</g>
</g>
<!-- profiles&#45;&gt;marital_statuses -->
<g id="edge15" class="edge">
<title>profiles:w&#45;&gt;marital_statuses:e</title>
<path fill="none" stroke="#000000" d="M225.6279,-102.6032C200.1192,-94.5025 194.979,-65.7 161.5,-65.7"/>
<polygon fill="#000000" stroke="#000000" points="232.0838,-103.545 239.4803,-108.2623 236.0419,-104.1225 240,-104.7 240,-104.7 240,-104.7 236.0419,-104.1225 240.5197,-101.1377 232.0838,-103.545 232.0838,-103.545"/>
<ellipse fill="none" stroke="#000000" cx="228.9173" cy="-103.083" rx="3.2" ry="3.2"/>
</g>
<!-- provider_locations&#45;&gt;companies -->
<g id="edge18" class="edge">
<title>provider_locations:w&#45;&gt;companies:e</title>
<path fill="none" stroke="#000000" d="M1023.8719,-468.8429C925.4243,-470.7566 885.7286,-490.4613 794,-440.7 769.1653,-427.2275 781.7537,-391.7 753.5,-391.7"/>
<polygon fill="#000000" stroke="#000000" points="1030.5004,-468.7782 1038.5352,-472.2998 1034.5002,-468.7391 1038.5,-468.7 1038.5,-468.7 1038.5,-468.7 1034.5002,-468.7391 1038.4648,-465.1002 1030.5004,-468.7782 1030.5004,-468.7782"/>
<ellipse fill="none" stroke="#000000" cx="1027.3005" cy="-468.8095" rx="3.2" ry="3.2"/>
</g>
<!-- provider_locations&#45;&gt;addresses -->
<g id="edge16" class="edge">
<title>provider_locations:w&#45;&gt;addresses:e</title>
<path fill="none" stroke="#000000" d="M1023.7363,-446.7216C869.6139,-447.177 825.727,-454.7 664.5,-454.7 664.5,-454.7 664.5,-454.7 487,-454.7 354.7778,-454.7 321.7222,-454.7 189.5,-454.7"/>
<polygon fill="#000000" stroke="#000000" points="1030.5,-446.7117 1038.5053,-450.3 1034.5,-446.7059 1038.5,-446.7 1038.5,-446.7 1038.5,-446.7 1034.5,-446.7059 1038.4947,-443.1 1030.5,-446.7117 1030.5,-446.7117"/>
<ellipse fill="none" stroke="#000000" cx="1027.3" cy="-446.7164" rx="3.2" ry="3.2"/>
</g>
<!-- provider_locations&#45;&gt;company_doing_business_as -->
<g id="edge17" class="edge">
<title>provider_locations:w&#45;&gt;company_doing_business_as:e</title>
<path fill="none" stroke="#000000" d="M1024.5134,-420.8067C1012.5218,-413.1131 1008.7039,-396.7 989.5,-396.7"/>
<polygon fill="#000000" stroke="#000000" points="1030.793,-422.5547 1037.5346,-428.1681 1034.6465,-423.6273 1038.5,-424.7 1038.5,-424.7 1038.5,-424.7 1034.6465,-423.6273 1039.4654,-421.2319 1030.793,-422.5547 1030.793,-422.5547"/>
<ellipse fill="none" stroke="#000000" cx="1027.7102" cy="-421.6965" rx="3.2" ry="3.2"/>
</g>
<!-- professional_locations -->
<g id="node9" class="node">
<title>professional_locations</title>
<g id="a_node9"><a xlink:href="../../tables/professional_locations.html" xlink:title="professional_locations" target="_top">
<polygon fill="#ffffff" stroke="transparent" points="1296,-463.2 1296,-524.2 1447,-524.2 1447,-463.2 1296,-463.2"/>
<polygon fill="#f5f5f5" stroke="transparent" points="1296.5,-500.7 1296.5,-523.7 1447.5,-523.7 1447.5,-500.7 1296.5,-500.7"/>
<polygon fill="none" stroke="#000000" points="1296.5,-500.7 1296.5,-523.7 1447.5,-523.7 1447.5,-500.7 1296.5,-500.7"/>
<text text-anchor="start" x="1301.0984" y="-509.8" font-family="Helvetica,sans-Serif" font-weight="bold" font-size="11.00" fill="#000000">professional_locations</text>
<text text-anchor="start" x="1413.0219" y="-508.8" font-family="Helvetica,sans-Serif" font-size="11.00" fill="#000000">[table]</text>
<polygon fill="none" stroke="#000000" points="1296.5,-481.7 1296.5,-500.7 1447.5,-500.7 1447.5,-481.7 1296.5,-481.7"/>
<text text-anchor="start" x="1299.5" y="-487.8" font-family="Helvetica,sans-Serif" font-size="11.00" fill="#000000">...</text>
<polygon fill="#ffffff" stroke="transparent" points="1296.5,-462.7 1296.5,-481.7 1357.5,-481.7 1357.5,-462.7 1296.5,-462.7"/>
<polygon fill="none" stroke="#000000" points="1296.5,-462.7 1296.5,-481.7 1357.5,-481.7 1357.5,-462.7 1296.5,-462.7"/>
<text text-anchor="start" x="1299.5" y="-468.8" font-family="Helvetica,sans-Serif" font-size="11.00" fill="#000000">&lt; 2</text>
<polygon fill="#ffffff" stroke="transparent" points="1357.5,-462.7 1357.5,-481.7 1415.5,-481.7 1415.5,-462.7 1357.5,-462.7"/>
<polygon fill="none" stroke="#000000" points="1357.5,-462.7 1357.5,-481.7 1415.5,-481.7 1415.5,-462.7 1357.5,-462.7"/>
<text text-anchor="start" x="1380.1105" y="-468.8" font-family="Helvetica,sans-Serif" font-size="11.00" fill="#000000">0 rows</text>
<polygon fill="#ffffff" stroke="transparent" points="1415.5,-462.7 1415.5,-481.7 1447.5,-481.7 1447.5,-462.7 1415.5,-462.7"/>
<polygon fill="none" stroke="#000000" points="1415.5,-462.7 1415.5,-481.7 1447.5,-481.7 1447.5,-462.7 1415.5,-462.7"/>
<text text-anchor="start" x="1438.3862" y="-468.8" font-family="Helvetica,sans-Serif" font-size="11.00" fill="#000000"> &#160;</text>
</a>
</g>
</g>
<!-- professional_locations&#45;&gt;provider_locations -->
<g id="edge12" class="edge">
<title>professional_locations:w&#45;&gt;provider_locations:e</title>
<path fill="none" stroke="#000000" d="M1281.9909,-490.7C1270.6774,-490.7 1263.4931,-490.7 1247.5,-490.7"/>
<polygon fill="#000000" stroke="#000000" points="1288.5,-490.7001 1296.5,-494.3 1292.5,-490.7 1296.5,-490.7 1296.5,-490.7 1296.5,-490.7 1292.5,-490.7 1296.5,-487.1 1288.5,-490.7001 1288.5,-490.7001"/>
<ellipse fill="none" stroke="#000000" cx="1285.3" cy="-490.7001" rx="3.2" ry="3.2"/>
</g>
</g>
</svg>
