<?xml version="1.0" encoding="UTF-8" standalone="no"?>
<!DOCTYPE svg PUBLIC "-//W3C//DTD SVG 1.1//EN"
 "http://www.w3.org/Graphics/SVG/1.1/DTD/svg11.dtd">
<!-- Generated by graphviz version 2.40.1 (20161225.0304)
 -->
<!-- Title: oneDegreeRelationshipsDiagram Pages: 1 -->
<svg width="691pt" height="529pt"
 viewBox="0.00 0.00 691.00 528.70" xmlns="http://www.w3.org/2000/svg" xmlns:xlink="http://www.w3.org/1999/xlink">
<g id="graph0" class="graph" transform="scale(1 1) rotate(0) translate(4 524.7)">
<title>oneDegreeRelationshipsDiagram</title>
<polygon fill="#ffffff" stroke="transparent" points="-4,4 -4,-524.7 687,-524.7 687,4 -4,4"/>
<text text-anchor="middle" x="72.4936" y="-7.3" font-family="Helvetica,sans-Serif" font-size="11.00" fill="#000000">Generated by SchemaSpy</text>
<!-- companies -->
<g id="node1" class="node">
<title>companies</title>
<g id="a_node1"><a xlink:href="../../tables/companies.html" xlink:title="companies" target="_top">
<polygon fill="#ffffff" stroke="transparent" points="240,-219.7 240,-346.7 417,-346.7 417,-219.7 240,-219.7"/>
<polygon fill="#f5f5f5" stroke="transparent" points="240.5,-323.2 240.5,-346.2 417.5,-346.2 417.5,-323.2 240.5,-323.2"/>
<polygon fill="none" stroke="#000000" points="240.5,-323.2 240.5,-346.2 417.5,-346.2 417.5,-323.2 240.5,-323.2"/>
<text text-anchor="start" x="245.5" y="-332.3" font-family="Helvetica,sans-Serif" font-weight="bold" font-size="11.00" fill="#000000">companies</text>
<text text-anchor="start" x="382.5437" y="-331.3" font-family="Helvetica,sans-Serif" font-size="11.00" fill="#000000">[table]</text>
<polygon fill="none" stroke="#000000" points="240.5,-301.2 240.5,-323.2 417.5,-323.2 417.5,-301.2 240.5,-301.2"/>
<image xlink:href="../../images/primaryKeys.png" width="11px" height="12px" preserveAspectRatio="xMinYMin meet" x="245.5" y="-318.2"/>
<text text-anchor="start" x="260.5" y="-308.3" font-family="Helvetica,sans-Serif" font-size="11.00" fill="#000000">id</text>
<polygon fill="none" stroke="#000000" points="240.5,-279.2 240.5,-301.2 417.5,-301.2 417.5,-279.2 240.5,-279.2"/>
<image xlink:href="../../images/foreignKeys.png" width="11px" height="12px" preserveAspectRatio="xMinYMin meet" x="245.5" y="-296.2"/>
<text text-anchor="start" x="260.5" y="-286.3" font-family="Helvetica,sans-Serif" font-size="11.00" fill="#000000">physical_address_id</text>
<polygon fill="none" stroke="#000000" points="240.5,-257.2 240.5,-279.2 417.5,-279.2 417.5,-257.2 240.5,-257.2"/>
<image xlink:href="../../images/foreignKeys.png" width="11px" height="12px" preserveAspectRatio="xMinYMin meet" x="245.5" y="-274.2"/>
<text text-anchor="start" x="260.5" y="-264.3" font-family="Helvetica,sans-Serif" font-size="11.00" fill="#000000">created_by_user_id</text>
<polygon fill="none" stroke="#000000" points="240.5,-238.2 240.5,-257.2 417.5,-257.2 417.5,-238.2 240.5,-238.2"/>
<text text-anchor="start" x="243.5" y="-244.3" font-family="Helvetica,sans-Serif" font-size="11.00" fill="#000000">...</text>
<polygon fill="#ffffff" stroke="transparent" points="240.5,-219.2 240.5,-238.2 309.5,-238.2 309.5,-219.2 240.5,-219.2"/>
<polygon fill="none" stroke="#000000" points="240.5,-219.2 240.5,-238.2 309.5,-238.2 309.5,-219.2 240.5,-219.2"/>
<text text-anchor="start" x="243.5" y="-225.3" font-family="Helvetica,sans-Serif" font-size="11.00" fill="#000000">&lt; 2</text>
<polygon fill="#ffffff" stroke="transparent" points="309.5,-219.2 309.5,-238.2 371.5,-238.2 371.5,-219.2 309.5,-219.2"/>
<polygon fill="none" stroke="#000000" points="309.5,-219.2 309.5,-238.2 371.5,-238.2 371.5,-219.2 309.5,-219.2"/>
<text text-anchor="start" x="336.1105" y="-225.3" font-family="Helvetica,sans-Serif" font-size="11.00" fill="#000000">0 rows</text>
<polygon fill="#ffffff" stroke="transparent" points="371.5,-219.2 371.5,-238.2 417.5,-238.2 417.5,-219.2 371.5,-219.2"/>
<polygon fill="none" stroke="#000000" points="371.5,-219.2 371.5,-238.2 417.5,-238.2 417.5,-219.2 371.5,-219.2"/>
<text text-anchor="start" x="398.9053" y="-225.3" font-family="Helvetica,sans-Serif" font-size="11.00" fill="#000000">4 &gt;</text>
</a>
</g>
</g>
<!-- addresses -->
<g id="node2" class="node">
<title>addresses</title>
<g id="a_node2"><a xlink:href="../../tables/addresses.html" xlink:title="addresses" target="_top">
<polygon fill="#ffffff" stroke="transparent" points="8,-38.2 8,-326.2 191,-326.2 191,-38.2 8,-38.2"/>
<polygon fill="#f5f5f5" stroke="transparent" points="10.5,-301.2 10.5,-324.2 189.5,-324.2 189.5,-301.2 10.5,-301.2"/>
<polygon fill="none" stroke="#000000" points="10.5,-301.2 10.5,-324.2 189.5,-324.2 189.5,-301.2 10.5,-301.2"/>
<text text-anchor="start" x="15.5" y="-310.3" font-family="Helvetica,sans-Serif" font-weight="bold" font-size="11.00" fill="#000000">addresses</text>
<text text-anchor="start" x="154.5437" y="-309.3" font-family="Helvetica,sans-Serif" font-size="11.00" fill="#000000">[table]</text>
<polygon fill="none" stroke="#000000" points="10.5,-279.2 10.5,-301.2 95.5,-301.2 95.5,-279.2 10.5,-279.2"/>
<image xlink:href="../../images/primaryKeys.png" width="11px" height="12px" preserveAspectRatio="xMinYMin meet" x="15.5" y="-296.2"/>
<text text-anchor="start" x="30.5" y="-286.3" font-family="Helvetica,sans-Serif" font-size="11.00" fill="#000000">id</text>
<polygon fill="none" stroke="#000000" points="95.5,-279.2 95.5,-301.2 189.5,-301.2 189.5,-279.2 95.5,-279.2"/>
<text text-anchor="start" x="98.4758" y="-286.9" font-family="Helvetica,sans-Serif" font-size="11.00" fill="#000000">uuid[2147483647]</text>
<polygon fill="none" stroke="#000000" points="10.5,-257.2 10.5,-279.2 95.5,-279.2 95.5,-257.2 10.5,-257.2"/>
<text text-anchor="start" x="30.5" y="-264.3" font-family="Helvetica,sans-Serif" font-size="11.00" fill="#000000">street</text>
<polygon fill="none" stroke="#000000" points="95.5,-257.2 95.5,-279.2 189.5,-279.2 189.5,-257.2 95.5,-257.2"/>
<text text-anchor="start" x="98.5" y="-264.9" font-family="Helvetica,sans-Serif" font-size="11.00" fill="#000000">text[2147483647]</text>
<polygon fill="none" stroke="#000000" points="10.5,-235.2 10.5,-257.2 95.5,-257.2 95.5,-235.2 10.5,-235.2"/>
<text text-anchor="start" x="30.5" y="-242.3" font-family="Helvetica,sans-Serif" font-size="11.00" fill="#000000">city</text>
<polygon fill="none" stroke="#000000" points="95.5,-235.2 95.5,-257.2 189.5,-257.2 189.5,-235.2 95.5,-235.2"/>
<text text-anchor="start" x="98.5" y="-242.9" font-family="Helvetica,sans-Serif" font-size="11.00" fill="#000000">text[2147483647]</text>
<polygon fill="none" stroke="#000000" points="10.5,-213.2 10.5,-235.2 95.5,-235.2 95.5,-213.2 10.5,-213.2"/>
<text text-anchor="start" x="30.5" y="-220.3" font-family="Helvetica,sans-Serif" font-size="11.00" fill="#000000">state</text>
<polygon fill="none" stroke="#000000" points="95.5,-213.2 95.5,-235.2 189.5,-235.2 189.5,-213.2 95.5,-213.2"/>
<text text-anchor="start" x="98.5" y="-220.9" font-family="Helvetica,sans-Serif" font-size="11.00" fill="#000000">text[2147483647]</text>
<polygon fill="none" stroke="#000000" points="10.5,-191.2 10.5,-213.2 95.5,-213.2 95.5,-191.2 10.5,-191.2"/>
<text text-anchor="start" x="30.5" y="-198.3" font-family="Helvetica,sans-Serif" font-size="11.00" fill="#000000">zip</text>
<polygon fill="none" stroke="#000000" points="95.5,-191.2 95.5,-213.2 189.5,-213.2 189.5,-191.2 95.5,-191.2"/>
<text text-anchor="start" x="98.5" y="-198.9" font-family="Helvetica,sans-Serif" font-size="11.00" fill="#000000">text[2147483647]</text>
<polygon fill="none" stroke="#000000" points="10.5,-169.2 10.5,-191.2 95.5,-191.2 95.5,-169.2 10.5,-169.2"/>
<text text-anchor="start" x="30.5" y="-176.3" font-family="Helvetica,sans-Serif" font-size="11.00" fill="#000000">country</text>
<polygon fill="none" stroke="#000000" points="95.5,-169.2 95.5,-191.2 189.5,-191.2 189.5,-169.2 95.5,-169.2"/>
<text text-anchor="start" x="98.5" y="-176.9" font-family="Helvetica,sans-Serif" font-size="11.00" fill="#000000">text[2147483647]</text>
<polygon fill="none" stroke="#000000" points="10.5,-147.2 10.5,-169.2 95.5,-169.2 95.5,-147.2 10.5,-147.2"/>
<text text-anchor="start" x="30.5" y="-154.3" font-family="Helvetica,sans-Serif" font-size="11.00" fill="#000000">latitude</text>
<polygon fill="none" stroke="#000000" points="95.5,-147.2 95.5,-169.2 189.5,-169.2 189.5,-147.2 95.5,-147.2"/>
<text text-anchor="start" x="98.5" y="-154.9" font-family="Helvetica,sans-Serif" font-size="11.00" fill="#000000">numeric[131089]</text>
<polygon fill="none" stroke="#000000" points="10.5,-125.2 10.5,-147.2 95.5,-147.2 95.5,-125.2 10.5,-125.2"/>
<text text-anchor="start" x="30.5" y="-132.3" font-family="Helvetica,sans-Serif" font-size="11.00" fill="#000000">longitude</text>
<polygon fill="none" stroke="#000000" points="95.5,-125.2 95.5,-147.2 189.5,-147.2 189.5,-125.2 95.5,-125.2"/>
<text text-anchor="start" x="98.5" y="-132.9" font-family="Helvetica,sans-Serif" font-size="11.00" fill="#000000">numeric[131089]</text>
<polygon fill="none" stroke="#000000" points="10.5,-103.2 10.5,-125.2 95.5,-125.2 95.5,-103.2 10.5,-103.2"/>
<text text-anchor="start" x="30.5" y="-110.3" font-family="Helvetica,sans-Serif" font-size="11.00" fill="#000000">created_at</text>
<polygon fill="none" stroke="#000000" points="95.5,-103.2 95.5,-125.2 189.5,-125.2 189.5,-103.2 95.5,-103.2"/>
<text text-anchor="start" x="98.5" y="-110.9" font-family="Helvetica,sans-Serif" font-size="11.00" fill="#000000">timestamptz[35,6]</text>
<polygon fill="none" stroke="#000000" points="10.5,-81.2 10.5,-103.2 95.5,-103.2 95.5,-81.2 10.5,-81.2"/>
<text text-anchor="start" x="30.5" y="-88.3" font-family="Helvetica,sans-Serif" font-size="11.00" fill="#000000">updated_at</text>
<polygon fill="none" stroke="#000000" points="95.5,-81.2 95.5,-103.2 189.5,-103.2 189.5,-81.2 95.5,-81.2"/>
<text text-anchor="start" x="98.5" y="-88.9" font-family="Helvetica,sans-Serif" font-size="11.00" fill="#000000">timestamptz[35,6]</text>
<polygon fill="none" stroke="#000000" points="10.5,-59.2 10.5,-81.2 95.5,-81.2 95.5,-59.2 10.5,-59.2"/>
<text text-anchor="start" x="30.5" y="-66.3" font-family="Helvetica,sans-Serif" font-size="11.00" fill="#000000">deleted_at</text>
<polygon fill="none" stroke="#000000" points="95.5,-59.2 95.5,-81.2 189.5,-81.2 189.5,-59.2 95.5,-59.2"/>
<text text-anchor="start" x="98.5" y="-66.9" font-family="Helvetica,sans-Serif" font-size="11.00" fill="#000000">timestamptz[35,6]</text>
<polygon fill="#ffffff" stroke="transparent" points="10.5,-40.2 10.5,-59.2 44.5,-59.2 44.5,-40.2 10.5,-40.2"/>
<polygon fill="none" stroke="#000000" points="10.5,-40.2 10.5,-59.2 44.5,-59.2 44.5,-40.2 10.5,-40.2"/>
<text text-anchor="start" x="13.5" y="-46.3" font-family="Helvetica,sans-Serif" font-size="11.00" fill="#000000">&lt; 0</text>
<polygon fill="#ffffff" stroke="transparent" points="44.5,-40.2 44.5,-59.2 95.5,-59.2 95.5,-40.2 44.5,-40.2"/>
<polygon fill="none" stroke="#000000" points="44.5,-40.2 44.5,-59.2 95.5,-59.2 95.5,-40.2 44.5,-40.2"/>
<text text-anchor="start" x="60.1105" y="-46.3" font-family="Helvetica,sans-Serif" font-size="11.00" fill="#000000">0 rows</text>
<polygon fill="#ffffff" stroke="transparent" points="95.5,-40.2 95.5,-59.2 189.5,-59.2 189.5,-40.2 95.5,-40.2"/>
<polygon fill="none" stroke="#000000" points="95.5,-40.2 95.5,-59.2 189.5,-59.2 189.5,-40.2 95.5,-40.2"/>
<text text-anchor="start" x="170.9053" y="-46.3" font-family="Helvetica,sans-Serif" font-size="11.00" fill="#000000">3 &gt;</text>
<polygon fill="none" stroke="#000000" stroke-width="2" points="9,-39.2 9,-325.2 190,-325.2 190,-39.2 9,-39.2"/>
</a>
</g>
</g>
<!-- companies&#45;&gt;addresses -->
<g id="edge1" class="edge">
<title>companies:w&#45;&gt;addresses:e</title>
<path fill="none" stroke="#000000" d="M225.776,-290.2C213.7815,-290.2 206.3229,-290.2 189.5,-290.2"/>
<polygon fill="#000000" stroke="#000000" points="232.5,-290.2001 240.5,-293.8 236.5,-290.2 240.5,-290.2 240.5,-290.2 240.5,-290.2 236.5,-290.2 240.5,-286.6 232.5,-290.2001 232.5,-290.2001"/>
<ellipse fill="none" stroke="#000000" cx="229.3" cy="-290.2001" rx="3.2" ry="3.2"/>
</g>
<!-- profiles -->
<g id="node3" class="node">
<title>profiles</title>
<g id="a_node3"><a xlink:href="../../tables/profiles.html" xlink:title="profiles" target="_top">
<polygon fill="#ffffff" stroke="transparent" points="249.5,-367.7 249.5,-516.7 407.5,-516.7 407.5,-367.7 249.5,-367.7"/>
<polygon fill="#f5f5f5" stroke="transparent" points="249.5,-493.2 249.5,-516.2 407.5,-516.2 407.5,-493.2 249.5,-493.2"/>
<polygon fill="none" stroke="#000000" points="249.5,-493.2 249.5,-516.2 407.5,-516.2 407.5,-493.2 249.5,-493.2"/>
<text text-anchor="start" x="254.5" y="-502.3" font-family="Helvetica,sans-Serif" font-weight="bold" font-size="11.00" fill="#000000">profiles</text>
<text text-anchor="start" x="372.5437" y="-501.3" font-family="Helvetica,sans-Serif" font-size="11.00" fill="#000000">[table]</text>
<polygon fill="none" stroke="#000000" points="249.5,-471.2 249.5,-493.2 407.5,-493.2 407.5,-471.2 249.5,-471.2"/>
<image xlink:href="../../images/primaryKeys.png" width="11px" height="12px" preserveAspectRatio="xMinYMin meet" x="254.5" y="-488.2"/>
<text text-anchor="start" x="269.5" y="-478.3" font-family="Helvetica,sans-Serif" font-size="11.00" fill="#000000">id</text>
<polygon fill="none" stroke="#000000" points="249.5,-449.2 249.5,-471.2 407.5,-471.2 407.5,-449.2 249.5,-449.2"/>
<image xlink:href="../../images/foreignKeys.png" width="11px" height="12px" preserveAspectRatio="xMinYMin meet" x="254.5" y="-466.2"/>
<text text-anchor="start" x="269.5" y="-456.3" font-family="Helvetica,sans-Serif" font-size="11.00" fill="#000000">gender</text>
<polygon fill="none" stroke="#000000" points="249.5,-427.2 249.5,-449.2 407.5,-449.2 407.5,-427.2 249.5,-427.2"/>
<image xlink:href="../../images/foreignKeys.png" width="11px" height="12px" preserveAspectRatio="xMinYMin meet" x="254.5" y="-444.2"/>
<text text-anchor="start" x="269.5" y="-434.3" font-family="Helvetica,sans-Serif" font-size="11.00" fill="#000000">address_id</text>
<polygon fill="none" stroke="#000000" points="249.5,-405.2 249.5,-427.2 407.5,-427.2 407.5,-405.2 249.5,-405.2"/>
<image xlink:href="../../images/foreignKeys.png" width="11px" height="12px" preserveAspectRatio="xMinYMin meet" x="254.5" y="-422.2"/>
<text text-anchor="start" x="269.5" y="-412.3" font-family="Helvetica,sans-Serif" font-size="11.00" fill="#000000">marital_status</text>
<polygon fill="none" stroke="#000000" points="249.5,-386.2 249.5,-405.2 407.5,-405.2 407.5,-386.2 249.5,-386.2"/>
<text text-anchor="start" x="252.5" y="-392.3" font-family="Helvetica,sans-Serif" font-size="11.00" fill="#000000">...</text>
<polygon fill="#ffffff" stroke="transparent" points="249.5,-367.2 249.5,-386.2 309.5,-386.2 309.5,-367.2 249.5,-367.2"/>
<polygon fill="none" stroke="#000000" points="249.5,-367.2 249.5,-386.2 309.5,-386.2 309.5,-367.2 249.5,-367.2"/>
<text text-anchor="start" x="252.5" y="-373.3" font-family="Helvetica,sans-Serif" font-size="11.00" fill="#000000">&lt; 3</text>
<polygon fill="#ffffff" stroke="transparent" points="309.5,-367.2 309.5,-386.2 366.5,-386.2 366.5,-367.2 309.5,-367.2"/>
<polygon fill="none" stroke="#000000" points="309.5,-367.2 309.5,-386.2 366.5,-386.2 366.5,-367.2 309.5,-367.2"/>
<text text-anchor="start" x="331.1105" y="-373.3" font-family="Helvetica,sans-Serif" font-size="11.00" fill="#000000">0 rows</text>
<polygon fill="#ffffff" stroke="transparent" points="366.5,-367.2 366.5,-386.2 407.5,-386.2 407.5,-367.2 366.5,-367.2"/>
<polygon fill="none" stroke="#000000" points="366.5,-367.2 366.5,-386.2 407.5,-386.2 407.5,-367.2 366.5,-367.2"/>
<text text-anchor="start" x="388.9053" y="-373.3" font-family="Helvetica,sans-Serif" font-size="11.00" fill="#000000">2 &gt;</text>
</a>
</g>
</g>
<!-- profiles&#45;&gt;addresses -->
<g id="edge2" class="edge">
<title>profiles:w&#45;&gt;addresses:e</title>
<path fill="none" stroke="#000000" d="M235.2337,-435.5048C190.6673,-415.4459 254.7939,-290.2 189.5,-290.2"/>
<polygon fill="#000000" stroke="#000000" points="241.639,-436.7149 248.8317,-441.7374 245.5695,-437.4574 249.5,-438.2 249.5,-438.2 249.5,-438.2 245.5695,-437.4574 250.1683,-434.6626 241.639,-436.7149 241.639,-436.7149"/>
<ellipse fill="none" stroke="#000000" cx="238.4947" cy="-436.1208" rx="3.2" ry="3.2"/>
</g>
<!-- provider_locations -->
<g id="node4" class="node">
<title>provider_locations</title>
<g id="a_node4"><a xlink:href="../../tables/provider_locations.html" xlink:title="provider_locations" target="_top">
<polygon fill="#ffffff" stroke="transparent" points="466,-171.7 466,-320.7 675,-320.7 675,-171.7 466,-171.7"/>
<polygon fill="#f5f5f5" stroke="transparent" points="466.5,-297.2 466.5,-320.2 675.5,-320.2 675.5,-297.2 466.5,-297.2"/>
<polygon fill="none" stroke="#000000" points="466.5,-297.2 466.5,-320.2 675.5,-320.2 675.5,-297.2 466.5,-297.2"/>
<text text-anchor="start" x="471.5" y="-306.3" font-family="Helvetica,sans-Serif" font-weight="bold" font-size="11.00" fill="#000000">provider_locations</text>
<text text-anchor="start" x="640.5437" y="-305.3" font-family="Helvetica,sans-Serif" font-size="11.00" fill="#000000">[table]</text>
<polygon fill="none" stroke="#000000" points="466.5,-275.2 466.5,-297.2 675.5,-297.2 675.5,-275.2 466.5,-275.2"/>
<image xlink:href="../../images/primaryKeys.png" width="11px" height="12px" preserveAspectRatio="xMinYMin meet" x="471.5" y="-292.2"/>
<text text-anchor="start" x="486.5" y="-282.3" font-family="Helvetica,sans-Serif" font-size="11.00" fill="#000000">id</text>
<polygon fill="none" stroke="#000000" points="466.5,-253.2 466.5,-275.2 675.5,-275.2 675.5,-253.2 466.5,-253.2"/>
<image xlink:href="../../images/foreignKeys.png" width="11px" height="12px" preserveAspectRatio="xMinYMin meet" x="471.5" y="-270.2"/>
<text text-anchor="start" x="486.5" y="-260.3" font-family="Helvetica,sans-Serif" font-size="11.00" fill="#000000">company_id</text>
<polygon fill="none" stroke="#000000" points="466.5,-231.2 466.5,-253.2 675.5,-253.2 675.5,-231.2 466.5,-231.2"/>
<image xlink:href="../../images/foreignKeys.png" width="11px" height="12px" preserveAspectRatio="xMinYMin meet" x="471.5" y="-248.2"/>
<text text-anchor="start" x="486.5" y="-238.3" font-family="Helvetica,sans-Serif" font-size="11.00" fill="#000000">address_id</text>
<polygon fill="none" stroke="#000000" points="466.5,-209.2 466.5,-231.2 675.5,-231.2 675.5,-209.2 466.5,-209.2"/>
<image xlink:href="../../images/foreignKeys.png" width="11px" height="12px" preserveAspectRatio="xMinYMin meet" x="471.5" y="-226.2"/>
<text text-anchor="start" x="486.5" y="-216.3" font-family="Helvetica,sans-Serif" font-size="11.00" fill="#000000">company_doing_business_as_id</text>
<polygon fill="none" stroke="#000000" points="466.5,-190.2 466.5,-209.2 675.5,-209.2 675.5,-190.2 466.5,-190.2"/>
<text text-anchor="start" x="469.5" y="-196.3" font-family="Helvetica,sans-Serif" font-size="11.00" fill="#000000">...</text>
<polygon fill="#ffffff" stroke="transparent" points="466.5,-171.2 466.5,-190.2 551.5,-190.2 551.5,-171.2 466.5,-171.2"/>
<polygon fill="none" stroke="#000000" points="466.5,-171.2 466.5,-190.2 551.5,-190.2 551.5,-171.2 466.5,-171.2"/>
<text text-anchor="start" x="469.5" y="-177.3" font-family="Helvetica,sans-Serif" font-size="11.00" fill="#000000">&lt; 3</text>
<polygon fill="#ffffff" stroke="transparent" points="551.5,-171.2 551.5,-190.2 621.5,-190.2 621.5,-171.2 551.5,-171.2"/>
<polygon fill="none" stroke="#000000" points="551.5,-171.2 551.5,-190.2 621.5,-190.2 621.5,-171.2 551.5,-171.2"/>
<text text-anchor="start" x="586.1105" y="-177.3" font-family="Helvetica,sans-Serif" font-size="11.00" fill="#000000">0 rows</text>
<polygon fill="#ffffff" stroke="transparent" points="621.5,-171.2 621.5,-190.2 675.5,-190.2 675.5,-171.2 621.5,-171.2"/>
<polygon fill="none" stroke="#000000" points="621.5,-171.2 621.5,-190.2 675.5,-190.2 675.5,-171.2 621.5,-171.2"/>
<text text-anchor="start" x="656.9053" y="-177.3" font-family="Helvetica,sans-Serif" font-size="11.00" fill="#000000">2 &gt;</text>
</a>
</g>
</g>
<!-- provider_locations&#45;&gt;companies -->
<g id="edge4" class="edge">
<title>provider_locations:w&#45;&gt;companies:e</title>
<path fill="none" stroke="#000000" d="M452.8634,-268.9779C439.071,-281.1189 442.0315,-312.2 417.5,-312.2"/>
<polygon fill="#000000" stroke="#000000" points="458.95,-266.8454 467.6904,-267.5975 462.725,-265.5227 466.5,-264.2 466.5,-264.2 466.5,-264.2 462.725,-265.5227 465.3096,-260.8025 458.95,-266.8454 458.95,-266.8454"/>
<ellipse fill="none" stroke="#000000" cx="455.93" cy="-267.9035" rx="3.2" ry="3.2"/>
</g>
<!-- provider_locations&#45;&gt;addresses -->
<g id="edge3" class="edge">
<title>provider_locations:w&#45;&gt;addresses:e</title>
<path fill="none" stroke="#000000" d="M452.6023,-237.6592C443.3523,-230.0275 441.3384,-214.9042 425,-209.2 344.0159,-180.9262 305.4044,-164.8196 232,-209.2 197.2099,-230.2342 230.1545,-290.2 189.5,-290.2"/>
<polygon fill="#000000" stroke="#000000" points="458.8956,-239.7154 465.3819,-245.622 462.6978,-240.9577 466.5,-242.2 466.5,-242.2 466.5,-242.2 462.6978,-240.9577 467.6181,-238.778 458.8956,-239.7154 458.8956,-239.7154"/>
<ellipse fill="none" stroke="#000000" cx="455.8538" cy="-238.7216" rx="3.2" ry="3.2"/>
</g>
</g>
</svg>
