<?xml version="1.0" encoding="UTF-8" standalone="no"?>
<!DOCTYPE svg PUBLIC "-//W3C//DTD SVG 1.1//EN"
 "http://www.w3.org/Graphics/SVG/1.1/DTD/svg11.dtd">
<!-- Generated by graphviz version 2.40.1 (20161225.0304)
 -->
<!-- Title: oneDegreeRelationshipsDiagram Pages: 1 -->
<svg width="648pt" height="280pt"
 viewBox="0.00 0.00 648.00 280.20" xmlns="http://www.w3.org/2000/svg" xmlns:xlink="http://www.w3.org/1999/xlink">
<g id="graph0" class="graph" transform="scale(1 1) rotate(0) translate(4 276.2)">
<title>oneDegreeRelationshipsDiagram</title>
<polygon fill="#ffffff" stroke="transparent" points="-4,4 -4,-276.2 644,-276.2 644,4 -4,4"/>
<text text-anchor="middle" x="72.4936" y="-7.3" font-family="Helvetica,sans-Serif" font-size="11.00" fill="#000000">Generated by SchemaSpy</text>
<!-- companies -->
<g id="node1" class="node">
<title>companies</title>
<g id="a_node1"><a xlink:href="../../tables/companies.html" xlink:title="companies" target="_top">
<polygon fill="#ffffff" stroke="transparent" points="196,-141.2 196,-268.2 373,-268.2 373,-141.2 196,-141.2"/>
<polygon fill="#f5f5f5" stroke="transparent" points="196.5,-244.7 196.5,-267.7 373.5,-267.7 373.5,-244.7 196.5,-244.7"/>
<polygon fill="none" stroke="#000000" points="196.5,-244.7 196.5,-267.7 373.5,-267.7 373.5,-244.7 196.5,-244.7"/>
<text text-anchor="start" x="201.5" y="-253.8" font-family="Helvetica,sans-Serif" font-weight="bold" font-size="11.00" fill="#000000">companies</text>
<text text-anchor="start" x="338.5437" y="-252.8" font-family="Helvetica,sans-Serif" font-size="11.00" fill="#000000">[table]</text>
<polygon fill="none" stroke="#000000" points="196.5,-222.7 196.5,-244.7 373.5,-244.7 373.5,-222.7 196.5,-222.7"/>
<image xlink:href="../../images/primaryKeys.png" width="11px" height="12px" preserveAspectRatio="xMinYMin meet" x="201.5" y="-239.7"/>
<text text-anchor="start" x="216.5" y="-229.8" font-family="Helvetica,sans-Serif" font-size="11.00" fill="#000000">id</text>
<polygon fill="none" stroke="#000000" points="196.5,-200.7 196.5,-222.7 373.5,-222.7 373.5,-200.7 196.5,-200.7"/>
<image xlink:href="../../images/foreignKeys.png" width="11px" height="12px" preserveAspectRatio="xMinYMin meet" x="201.5" y="-217.7"/>
<text text-anchor="start" x="216.5" y="-207.8" font-family="Helvetica,sans-Serif" font-size="11.00" fill="#000000">physical_address_id</text>
<polygon fill="none" stroke="#000000" points="196.5,-178.7 196.5,-200.7 373.5,-200.7 373.5,-178.7 196.5,-178.7"/>
<image xlink:href="../../images/foreignKeys.png" width="11px" height="12px" preserveAspectRatio="xMinYMin meet" x="201.5" y="-195.7"/>
<text text-anchor="start" x="216.5" y="-185.8" font-family="Helvetica,sans-Serif" font-size="11.00" fill="#000000">created_by_user_id</text>
<polygon fill="none" stroke="#000000" points="196.5,-159.7 196.5,-178.7 373.5,-178.7 373.5,-159.7 196.5,-159.7"/>
<text text-anchor="start" x="199.5" y="-165.8" font-family="Helvetica,sans-Serif" font-size="11.00" fill="#000000">...</text>
<polygon fill="#ffffff" stroke="transparent" points="196.5,-140.7 196.5,-159.7 265.5,-159.7 265.5,-140.7 196.5,-140.7"/>
<polygon fill="none" stroke="#000000" points="196.5,-140.7 196.5,-159.7 265.5,-159.7 265.5,-140.7 196.5,-140.7"/>
<text text-anchor="start" x="199.5" y="-146.8" font-family="Helvetica,sans-Serif" font-size="11.00" fill="#000000">&lt; 2</text>
<polygon fill="#ffffff" stroke="transparent" points="265.5,-140.7 265.5,-159.7 327.5,-159.7 327.5,-140.7 265.5,-140.7"/>
<polygon fill="none" stroke="#000000" points="265.5,-140.7 265.5,-159.7 327.5,-159.7 327.5,-140.7 265.5,-140.7"/>
<text text-anchor="start" x="292.1105" y="-146.8" font-family="Helvetica,sans-Serif" font-size="11.00" fill="#000000">0 rows</text>
<polygon fill="#ffffff" stroke="transparent" points="327.5,-140.7 327.5,-159.7 373.5,-159.7 373.5,-140.7 327.5,-140.7"/>
<polygon fill="none" stroke="#000000" points="327.5,-140.7 327.5,-159.7 373.5,-159.7 373.5,-140.7 327.5,-140.7"/>
<text text-anchor="start" x="354.9053" y="-146.8" font-family="Helvetica,sans-Serif" font-size="11.00" fill="#000000">4 &gt;</text>
</a>
</g>
</g>
<!-- users -->
<g id="node2" class="node">
<title>users</title>
<g id="a_node2"><a xlink:href="../../tables/users.html" xlink:title="users" target="_top">
<polygon fill="#ffffff" stroke="transparent" points="8,-38.2 8,-187.2 147,-187.2 147,-38.2 8,-38.2"/>
<polygon fill="#f5f5f5" stroke="transparent" points="8.5,-163.7 8.5,-186.7 147.5,-186.7 147.5,-163.7 8.5,-163.7"/>
<polygon fill="none" stroke="#000000" points="8.5,-163.7 8.5,-186.7 147.5,-186.7 147.5,-163.7 8.5,-163.7"/>
<text text-anchor="start" x="13.5" y="-172.8" font-family="Helvetica,sans-Serif" font-weight="bold" font-size="11.00" fill="#000000">users</text>
<text text-anchor="start" x="112.5437" y="-171.8" font-family="Helvetica,sans-Serif" font-size="11.00" fill="#000000">[table]</text>
<polygon fill="none" stroke="#000000" points="8.5,-141.7 8.5,-163.7 147.5,-163.7 147.5,-141.7 8.5,-141.7"/>
<image xlink:href="../../images/primaryKeys.png" width="11px" height="12px" preserveAspectRatio="xMinYMin meet" x="13.5" y="-158.7"/>
<text text-anchor="start" x="28.5" y="-148.8" font-family="Helvetica,sans-Serif" font-size="11.00" fill="#000000">id</text>
<polygon fill="#ffffff" stroke="transparent" points="8.5,-119.7 8.5,-141.7 147.5,-141.7 147.5,-119.7 8.5,-119.7"/>
<polygon fill="none" stroke="#000000" points="8.5,-119.7 8.5,-141.7 147.5,-141.7 147.5,-119.7 8.5,-119.7"/>
<text text-anchor="start" x="28.5" y="-126.8" font-family="Helvetica,sans-Serif" font-size="11.00" fill="#000000">email</text>
<polygon fill="#ffffff" stroke="transparent" points="8.5,-97.7 8.5,-119.7 147.5,-119.7 147.5,-97.7 8.5,-97.7"/>
<polygon fill="none" stroke="#000000" points="8.5,-97.7 8.5,-119.7 147.5,-119.7 147.5,-97.7 8.5,-97.7"/>
<text text-anchor="start" x="28.5" y="-104.8" font-family="Helvetica,sans-Serif" font-size="11.00" fill="#000000">cognito_id</text>
<polygon fill="#ffffff" stroke="transparent" points="8.5,-75.7 8.5,-97.7 147.5,-97.7 147.5,-75.7 8.5,-75.7"/>
<polygon fill="none" stroke="#000000" points="8.5,-75.7 8.5,-97.7 147.5,-97.7 147.5,-75.7 8.5,-75.7"/>
<image xlink:href="../../images/foreignKeys.png" width="11px" height="12px" preserveAspectRatio="xMinYMin meet" x="13.5" y="-92.7"/>
<text text-anchor="start" x="28.5" y="-82.8" font-family="Helvetica,sans-Serif" font-size="11.00" fill="#000000">profile_id</text>
<polygon fill="none" stroke="#000000" points="8.5,-56.7 8.5,-75.7 147.5,-75.7 147.5,-56.7 8.5,-56.7"/>
<text text-anchor="start" x="11.5" y="-62.8" font-family="Helvetica,sans-Serif" font-size="11.00" fill="#000000">...</text>
<polygon fill="#ffffff" stroke="transparent" points="8.5,-37.7 8.5,-56.7 58.5,-56.7 58.5,-37.7 8.5,-37.7"/>
<polygon fill="none" stroke="#000000" points="8.5,-37.7 8.5,-56.7 58.5,-56.7 58.5,-37.7 8.5,-37.7"/>
<text text-anchor="start" x="11.5" y="-43.8" font-family="Helvetica,sans-Serif" font-size="11.00" fill="#000000">&lt; 1</text>
<polygon fill="#ffffff" stroke="transparent" points="58.5,-37.7 58.5,-56.7 111.5,-56.7 111.5,-37.7 58.5,-37.7"/>
<polygon fill="none" stroke="#000000" points="58.5,-37.7 58.5,-56.7 111.5,-56.7 111.5,-37.7 58.5,-37.7"/>
<text text-anchor="start" x="76.1105" y="-43.8" font-family="Helvetica,sans-Serif" font-size="11.00" fill="#000000">0 rows</text>
<polygon fill="#ffffff" stroke="transparent" points="111.5,-37.7 111.5,-56.7 147.5,-56.7 147.5,-37.7 111.5,-37.7"/>
<polygon fill="none" stroke="#000000" points="111.5,-37.7 111.5,-56.7 147.5,-56.7 147.5,-37.7 111.5,-37.7"/>
<text text-anchor="start" x="128.9053" y="-43.8" font-family="Helvetica,sans-Serif" font-size="11.00" fill="#000000">8 &gt;</text>
</a>
</g>
</g>
<!-- companies&#45;&gt;users -->
<g id="edge1" class="edge">
<title>companies:w&#45;&gt;users:e</title>
<path fill="none" stroke="#000000" d="M182.6217,-185.1631C170.0786,-175.283 168.8196,-152.7 147.5,-152.7"/>
<polygon fill="#000000" stroke="#000000" points="188.896,-187.2142 195.3814,-193.1218 192.698,-188.4571 196.5,-189.7 196.5,-189.7 196.5,-189.7 192.698,-188.4571 197.6186,-186.2782 188.896,-187.2142 188.896,-187.2142"/>
<ellipse fill="none" stroke="#000000" cx="185.8544" cy="-186.2198" rx="3.2" ry="3.2"/>
</g>
<!-- company_users -->
<g id="node3" class="node">
<title>company_users</title>
<g id="a_node3"><a xlink:href="../../tables/company_users.html" xlink:title="company_users" target="_top">
<polygon fill="#ffffff" stroke="transparent" points="422,-109.7 422,-221.7 632,-221.7 632,-109.7 422,-109.7"/>
<polygon fill="#f5f5f5" stroke="transparent" points="424,-196.7 424,-219.7 630,-219.7 630,-196.7 424,-196.7"/>
<polygon fill="none" stroke="#000000" points="424,-196.7 424,-219.7 630,-219.7 630,-196.7 424,-196.7"/>
<text text-anchor="start" x="429" y="-205.8" font-family="Helvetica,sans-Serif" font-weight="bold" font-size="11.00" fill="#000000">company_users</text>
<text text-anchor="start" x="595.0437" y="-204.8" font-family="Helvetica,sans-Serif" font-size="11.00" fill="#000000">[table]</text>
<polygon fill="none" stroke="#000000" points="424,-174.7 424,-196.7 536,-196.7 536,-174.7 424,-174.7"/>
<image xlink:href="../../images/primaryKeys.png" width="11px" height="12px" preserveAspectRatio="xMinYMin meet" x="429" y="-191.7"/>
<text text-anchor="start" x="444" y="-181.8" font-family="Helvetica,sans-Serif" font-size="11.00" fill="#000000">company_id</text>
<polygon fill="none" stroke="#000000" points="536,-174.7 536,-196.7 630,-196.7 630,-174.7 536,-174.7"/>
<text text-anchor="start" x="538.9758" y="-182.4" font-family="Helvetica,sans-Serif" font-size="11.00" fill="#000000">uuid[2147483647]</text>
<polygon fill="none" stroke="#000000" points="424,-152.7 424,-174.7 536,-174.7 536,-152.7 424,-152.7"/>
<image xlink:href="../../images/primaryKeys.png" width="11px" height="12px" preserveAspectRatio="xMinYMin meet" x="429" y="-169.7"/>
<text text-anchor="start" x="444" y="-159.8" font-family="Helvetica,sans-Serif" font-size="11.00" fill="#000000">user_id</text>
<polygon fill="none" stroke="#000000" points="536,-152.7 536,-174.7 630,-174.7 630,-152.7 536,-152.7"/>
<text text-anchor="start" x="538.9758" y="-160.4" font-family="Helvetica,sans-Serif" font-size="11.00" fill="#000000">uuid[2147483647]</text>
<polygon fill="none" stroke="#000000" points="424,-130.7 424,-152.7 536,-152.7 536,-130.7 424,-130.7"/>
<image xlink:href="../../images/primaryKeys.png" width="11px" height="12px" preserveAspectRatio="xMinYMin meet" x="429" y="-147.7"/>
<text text-anchor="start" x="444" y="-137.8" font-family="Helvetica,sans-Serif" font-size="11.00" fill="#000000">role</text>
<polygon fill="none" stroke="#000000" points="536,-130.7 536,-152.7 630,-152.7 630,-130.7 536,-130.7"/>
<text text-anchor="start" x="539" y="-138.4" font-family="Helvetica,sans-Serif" font-size="11.00" fill="#000000">text[2147483647]</text>
<polygon fill="#ffffff" stroke="transparent" points="424,-111.7 424,-130.7 471,-130.7 471,-111.7 424,-111.7"/>
<polygon fill="none" stroke="#000000" points="424,-111.7 424,-130.7 471,-130.7 471,-111.7 424,-111.7"/>
<text text-anchor="start" x="427" y="-117.8" font-family="Helvetica,sans-Serif" font-size="11.00" fill="#000000">&lt; 2</text>
<polygon fill="#ffffff" stroke="transparent" points="471,-111.7 471,-130.7 536,-130.7 536,-111.7 471,-111.7"/>
<polygon fill="none" stroke="#000000" points="471,-111.7 471,-130.7 536,-130.7 536,-111.7 471,-111.7"/>
<text text-anchor="start" x="500.6105" y="-117.8" font-family="Helvetica,sans-Serif" font-size="11.00" fill="#000000">0 rows</text>
<polygon fill="#ffffff" stroke="transparent" points="536,-111.7 536,-130.7 630,-130.7 630,-111.7 536,-111.7"/>
<polygon fill="none" stroke="#000000" points="536,-111.7 536,-130.7 630,-130.7 630,-111.7 536,-111.7"/>
<text text-anchor="start" x="611.4053" y="-117.8" font-family="Helvetica,sans-Serif" font-size="11.00" fill="#000000">0 &gt;</text>
<polygon fill="none" stroke="#000000" stroke-width="2" points="423,-110.7 423,-220.7 631,-220.7 631,-110.7 423,-110.7"/>
</a>
</g>
</g>
<!-- company_users&#45;&gt;companies -->
<g id="edge2" class="edge">
<title>company_users:w&#45;&gt;companies:e</title>
<path fill="none" stroke="#000000" d="M410.0763,-190.4779C395.8824,-202.6189 398.4176,-233.7 373.5,-233.7"/>
<polygon fill="#000000" stroke="#000000" points="416.4331,-188.2966 425.1685,-189.1051 420.2166,-186.9983 424,-185.7 424,-185.7 424,-185.7 420.2166,-186.9983 422.8315,-182.2949 416.4331,-188.2966 416.4331,-188.2966"/>
<ellipse fill="none" stroke="#000000" cx="413.4063" cy="-189.3352" rx="3.2" ry="3.2"/>
</g>
<!-- company_users&#45;&gt;users -->
<g id="edge3" class="edge">
<title>company_users:w&#45;&gt;users:e</title>
<path fill="none" stroke="#000000" d="M410.0119,-159.3968C400.146,-151.8415 397.9305,-136.4478 381,-130.7 299.7754,-103.1247 271.1364,-109.5774 188,-130.7 168.1465,-135.7442 167.9843,-152.7 147.5,-152.7"/>
<polygon fill="#000000" stroke="#000000" points="416.3536,-161.3477 422.9415,-167.1409 420.1768,-162.5239 424,-163.7 424,-163.7 424,-163.7 420.1768,-162.5239 425.0585,-160.2591 416.3536,-161.3477 416.3536,-161.3477"/>
<ellipse fill="none" stroke="#000000" cx="413.2951" cy="-160.4068" rx="3.2" ry="3.2"/>
</g>
</g>
</svg>
