<?xml version="1.0" encoding="UTF-8" standalone="no"?>
<!DOCTYPE svg PUBLIC "-//W3C//DTD SVG 1.1//EN"
 "http://www.w3.org/Graphics/SVG/1.1/DTD/svg11.dtd">
<!-- Generated by graphviz version 2.40.1 (20161225.0304)
 -->
<!-- Title: twoDegreesRelationshipsDiagram Pages: 1 -->
<svg width="1708pt" height="804pt"
 viewBox="0.00 0.00 1708.00 804.33" xmlns="http://www.w3.org/2000/svg" xmlns:xlink="http://www.w3.org/1999/xlink">
<g id="graph0" class="graph" transform="scale(1 1) rotate(0) translate(4 800.3339)">
<title>twoDegreesRelationshipsDiagram</title>
<polygon fill="#ffffff" stroke="transparent" points="-4,4 -4,-800.3339 1704,-800.3339 1704,4 -4,4"/>
<text text-anchor="middle" x="72.4936" y="-7.3" font-family="Helvetica,sans-Serif" font-size="11.00" fill="#000000">Generated by SchemaSpy</text>
<!-- companies -->
<g id="node1" class="node">
<title>companies</title>
<g id="a_node1"><a xlink:href="../../tables/companies.html" xlink:title="companies" target="_top">
<polygon fill="#ffffff" stroke="transparent" points="467,-318.8339 467,-672.8339 742,-672.8339 742,-318.8339 467,-318.8339"/>
<polygon fill="#f5f5f5" stroke="transparent" points="469.5,-647.8339 469.5,-670.8339 740.5,-670.8339 740.5,-647.8339 469.5,-647.8339"/>
<polygon fill="none" stroke="#000000" points="469.5,-647.8339 469.5,-670.8339 740.5,-670.8339 740.5,-647.8339 469.5,-647.8339"/>
<text text-anchor="start" x="474.5" y="-656.9339" font-family="Helvetica,sans-Serif" font-weight="bold" font-size="11.00" fill="#000000">companies</text>
<text text-anchor="start" x="705.5437" y="-655.9339" font-family="Helvetica,sans-Serif" font-size="11.00" fill="#000000">[table]</text>
<polygon fill="none" stroke="#000000" points="469.5,-625.8339 469.5,-647.8339 646.5,-647.8339 646.5,-625.8339 469.5,-625.8339"/>
<image xlink:href="../../images/primaryKeys.png" width="11px" height="12px" preserveAspectRatio="xMinYMin meet" x="474.5" y="-642.834"/>
<text text-anchor="start" x="489.5" y="-632.9339" font-family="Helvetica,sans-Serif" font-size="11.00" fill="#000000">id</text>
<polygon fill="none" stroke="#000000" points="646.5,-625.8339 646.5,-647.8339 740.5,-647.8339 740.5,-625.8339 646.5,-625.8339"/>
<text text-anchor="start" x="649.4758" y="-633.5339" font-family="Helvetica,sans-Serif" font-size="11.00" fill="#000000">uuid[2147483647]</text>
<polygon fill="none" stroke="#000000" points="469.5,-603.8339 469.5,-625.8339 646.5,-625.8339 646.5,-603.8339 469.5,-603.8339"/>
<text text-anchor="start" x="489.5" y="-610.9339" font-family="Helvetica,sans-Serif" font-size="11.00" fill="#000000">legal_name</text>
<polygon fill="none" stroke="#000000" points="646.5,-603.8339 646.5,-625.8339 740.5,-625.8339 740.5,-603.8339 646.5,-603.8339"/>
<text text-anchor="start" x="649.5" y="-611.5339" font-family="Helvetica,sans-Serif" font-size="11.00" fill="#000000">text[2147483647]</text>
<polygon fill="none" stroke="#000000" points="469.5,-581.8339 469.5,-603.8339 646.5,-603.8339 646.5,-581.8339 469.5,-581.8339"/>
<text text-anchor="start" x="489.5" y="-588.9339" font-family="Helvetica,sans-Serif" font-size="11.00" fill="#000000">federal_tax_id_number</text>
<polygon fill="none" stroke="#000000" points="646.5,-581.8339 646.5,-603.8339 740.5,-603.8339 740.5,-581.8339 646.5,-581.8339"/>
<text text-anchor="start" x="649.5" y="-589.5339" font-family="Helvetica,sans-Serif" font-size="11.00" fill="#000000">text[2147483647]</text>
<polygon fill="none" stroke="#000000" points="469.5,-559.8339 469.5,-581.8339 646.5,-581.8339 646.5,-559.8339 469.5,-559.8339"/>
<text text-anchor="start" x="489.5" y="-566.9339" font-family="Helvetica,sans-Serif" font-size="11.00" fill="#000000">primary_industry_sic_code</text>
<polygon fill="none" stroke="#000000" points="646.5,-559.8339 646.5,-581.8339 740.5,-581.8339 740.5,-559.8339 646.5,-559.8339"/>
<text text-anchor="start" x="649.5" y="-567.5339" font-family="Helvetica,sans-Serif" font-size="11.00" fill="#000000">text[2147483647]</text>
<polygon fill="none" stroke="#000000" points="469.5,-537.8339 469.5,-559.8339 646.5,-559.8339 646.5,-537.8339 469.5,-537.8339"/>
<image xlink:href="../../images/foreignKeys.png" width="11px" height="12px" preserveAspectRatio="xMinYMin meet" x="474.5" y="-554.834"/>
<text text-anchor="start" x="489.5" y="-544.9339" font-family="Helvetica,sans-Serif" font-size="11.00" fill="#000000">physical_address_id</text>
<polygon fill="none" stroke="#000000" points="646.5,-537.8339 646.5,-559.8339 740.5,-559.8339 740.5,-537.8339 646.5,-537.8339"/>
<text text-anchor="start" x="649.4758" y="-545.5339" font-family="Helvetica,sans-Serif" font-size="11.00" fill="#000000">uuid[2147483647]</text>
<polygon fill="none" stroke="#000000" points="469.5,-515.8339 469.5,-537.8339 646.5,-537.8339 646.5,-515.8339 469.5,-515.8339"/>
<text text-anchor="start" x="489.5" y="-522.9339" font-family="Helvetica,sans-Serif" font-size="11.00" fill="#000000">phone_number</text>
<polygon fill="none" stroke="#000000" points="646.5,-515.8339 646.5,-537.8339 740.5,-537.8339 740.5,-515.8339 646.5,-515.8339"/>
<text text-anchor="start" x="649.5" y="-523.5339" font-family="Helvetica,sans-Serif" font-size="11.00" fill="#000000">text[2147483647]</text>
<polygon fill="none" stroke="#000000" points="469.5,-493.8339 469.5,-515.8339 646.5,-515.8339 646.5,-493.8339 469.5,-493.8339"/>
<text text-anchor="start" x="489.5" y="-500.9339" font-family="Helvetica,sans-Serif" font-size="11.00" fill="#000000">business_type</text>
<polygon fill="none" stroke="#000000" points="646.5,-493.8339 646.5,-515.8339 740.5,-515.8339 740.5,-493.8339 646.5,-493.8339"/>
<text text-anchor="start" x="649.5" y="-501.5339" font-family="Helvetica,sans-Serif" font-size="11.00" fill="#000000">text[2147483647]</text>
<polygon fill="none" stroke="#000000" points="469.5,-471.8339 469.5,-493.8339 646.5,-493.8339 646.5,-471.8339 469.5,-471.8339"/>
<image xlink:href="../../images/foreignKeys.png" width="11px" height="12px" preserveAspectRatio="xMinYMin meet" x="474.5" y="-488.834"/>
<text text-anchor="start" x="489.5" y="-478.9339" font-family="Helvetica,sans-Serif" font-size="11.00" fill="#000000">created_by_user_id</text>
<polygon fill="none" stroke="#000000" points="646.5,-471.8339 646.5,-493.8339 740.5,-493.8339 740.5,-471.8339 646.5,-471.8339"/>
<text text-anchor="start" x="649.4758" y="-479.5339" font-family="Helvetica,sans-Serif" font-size="11.00" fill="#000000">uuid[2147483647]</text>
<polygon fill="none" stroke="#000000" points="469.5,-449.8339 469.5,-471.8339 646.5,-471.8339 646.5,-449.8339 469.5,-449.8339"/>
<text text-anchor="start" x="489.5" y="-456.9339" font-family="Helvetica,sans-Serif" font-size="11.00" fill="#000000">national_provider_id</text>
<polygon fill="none" stroke="#000000" points="646.5,-449.8339 646.5,-471.8339 740.5,-471.8339 740.5,-449.8339 646.5,-449.8339"/>
<text text-anchor="start" x="649.5" y="-457.5339" font-family="Helvetica,sans-Serif" font-size="11.00" fill="#000000">text[2147483647]</text>
<polygon fill="none" stroke="#000000" points="469.5,-427.8339 469.5,-449.8339 646.5,-449.8339 646.5,-427.8339 469.5,-427.8339"/>
<text text-anchor="start" x="489.5" y="-434.9339" font-family="Helvetica,sans-Serif" font-size="11.00" fill="#000000">created_at</text>
<polygon fill="none" stroke="#000000" points="646.5,-427.8339 646.5,-449.8339 740.5,-449.8339 740.5,-427.8339 646.5,-427.8339"/>
<text text-anchor="start" x="649.5" y="-435.5339" font-family="Helvetica,sans-Serif" font-size="11.00" fill="#000000">timestamptz[35,6]</text>
<polygon fill="none" stroke="#000000" points="469.5,-405.8339 469.5,-427.8339 646.5,-427.8339 646.5,-405.8339 469.5,-405.8339"/>
<text text-anchor="start" x="489.5" y="-412.9339" font-family="Helvetica,sans-Serif" font-size="11.00" fill="#000000">updated_at</text>
<polygon fill="none" stroke="#000000" points="646.5,-405.8339 646.5,-427.8339 740.5,-427.8339 740.5,-405.8339 646.5,-405.8339"/>
<text text-anchor="start" x="649.5" y="-413.5339" font-family="Helvetica,sans-Serif" font-size="11.00" fill="#000000">timestamptz[35,6]</text>
<polygon fill="none" stroke="#000000" points="469.5,-383.8339 469.5,-405.8339 646.5,-405.8339 646.5,-383.8339 469.5,-383.8339"/>
<text text-anchor="start" x="489.5" y="-390.9339" font-family="Helvetica,sans-Serif" font-size="11.00" fill="#000000">deleted_at</text>
<polygon fill="none" stroke="#000000" points="646.5,-383.8339 646.5,-405.8339 740.5,-405.8339 740.5,-383.8339 646.5,-383.8339"/>
<text text-anchor="start" x="649.5" y="-391.5339" font-family="Helvetica,sans-Serif" font-size="11.00" fill="#000000">timestamptz[35,6]</text>
<polygon fill="none" stroke="#000000" points="469.5,-361.8339 469.5,-383.8339 646.5,-383.8339 646.5,-361.8339 469.5,-361.8339"/>
<text text-anchor="start" x="489.5" y="-368.9339" font-family="Helvetica,sans-Serif" font-size="11.00" fill="#000000">financial_email</text>
<polygon fill="none" stroke="#000000" points="646.5,-361.8339 646.5,-383.8339 740.5,-383.8339 740.5,-361.8339 646.5,-361.8339"/>
<text text-anchor="start" x="649.5" y="-369.5339" font-family="Helvetica,sans-Serif" font-size="11.00" fill="#000000">text[2147483647]</text>
<polygon fill="none" stroke="#000000" points="469.5,-339.8339 469.5,-361.8339 646.5,-361.8339 646.5,-339.8339 469.5,-339.8339"/>
<text text-anchor="start" x="489.5" y="-346.9339" font-family="Helvetica,sans-Serif" font-size="11.00" fill="#000000">hr_email</text>
<polygon fill="none" stroke="#000000" points="646.5,-339.8339 646.5,-361.8339 740.5,-361.8339 740.5,-339.8339 646.5,-339.8339"/>
<text text-anchor="start" x="649.5" y="-347.5339" font-family="Helvetica,sans-Serif" font-size="11.00" fill="#000000">text[2147483647]</text>
<polygon fill="#ffffff" stroke="transparent" points="469.5,-320.8339 469.5,-339.8339 549.5,-339.8339 549.5,-320.8339 469.5,-320.8339"/>
<polygon fill="none" stroke="#000000" points="469.5,-320.8339 469.5,-339.8339 549.5,-339.8339 549.5,-320.8339 469.5,-320.8339"/>
<text text-anchor="start" x="472.5" y="-326.9339" font-family="Helvetica,sans-Serif" font-size="11.00" fill="#000000">&lt; 2</text>
<polygon fill="#ffffff" stroke="transparent" points="549.5,-320.8339 549.5,-339.8339 646.5,-339.8339 646.5,-320.8339 549.5,-320.8339"/>
<polygon fill="none" stroke="#000000" points="549.5,-320.8339 549.5,-339.8339 646.5,-339.8339 646.5,-320.8339 549.5,-320.8339"/>
<text text-anchor="start" x="611.1105" y="-326.9339" font-family="Helvetica,sans-Serif" font-size="11.00" fill="#000000">0 rows</text>
<polygon fill="#ffffff" stroke="transparent" points="646.5,-320.8339 646.5,-339.8339 740.5,-339.8339 740.5,-320.8339 646.5,-320.8339"/>
<polygon fill="none" stroke="#000000" points="646.5,-320.8339 646.5,-339.8339 740.5,-339.8339 740.5,-320.8339 646.5,-320.8339"/>
<text text-anchor="start" x="721.9053" y="-326.9339" font-family="Helvetica,sans-Serif" font-size="11.00" fill="#000000">4 &gt;</text>
<polygon fill="none" stroke="#000000" stroke-width="2" points="468,-319.8339 468,-671.8339 741,-671.8339 741,-319.8339 468,-319.8339"/>
</a>
</g>
</g>
<!-- users -->
<g id="node2" class="node">
<title>users</title>
<g id="a_node2"><a xlink:href="../../tables/users.html" xlink:title="users" target="_top">
<polygon fill="#ffffff" stroke="transparent" points="279,-126.3339 279,-275.3339 418,-275.3339 418,-126.3339 279,-126.3339"/>
<polygon fill="#f5f5f5" stroke="transparent" points="279.5,-251.8339 279.5,-274.8339 418.5,-274.8339 418.5,-251.8339 279.5,-251.8339"/>
<polygon fill="none" stroke="#000000" points="279.5,-251.8339 279.5,-274.8339 418.5,-274.8339 418.5,-251.8339 279.5,-251.8339"/>
<text text-anchor="start" x="284.5" y="-260.9339" font-family="Helvetica,sans-Serif" font-weight="bold" font-size="11.00" fill="#000000">users</text>
<text text-anchor="start" x="383.5437" y="-259.9339" font-family="Helvetica,sans-Serif" font-size="11.00" fill="#000000">[table]</text>
<polygon fill="none" stroke="#000000" points="279.5,-229.8339 279.5,-251.8339 418.5,-251.8339 418.5,-229.8339 279.5,-229.8339"/>
<image xlink:href="../../images/primaryKeys.png" width="11px" height="12px" preserveAspectRatio="xMinYMin meet" x="284.5" y="-246.834"/>
<text text-anchor="start" x="299.5" y="-236.9339" font-family="Helvetica,sans-Serif" font-size="11.00" fill="#000000">id</text>
<polygon fill="#ffffff" stroke="transparent" points="279.5,-207.8339 279.5,-229.8339 418.5,-229.8339 418.5,-207.8339 279.5,-207.8339"/>
<polygon fill="none" stroke="#000000" points="279.5,-207.8339 279.5,-229.8339 418.5,-229.8339 418.5,-207.8339 279.5,-207.8339"/>
<text text-anchor="start" x="299.5" y="-214.9339" font-family="Helvetica,sans-Serif" font-size="11.00" fill="#000000">email</text>
<polygon fill="#ffffff" stroke="transparent" points="279.5,-185.8339 279.5,-207.8339 418.5,-207.8339 418.5,-185.8339 279.5,-185.8339"/>
<polygon fill="none" stroke="#000000" points="279.5,-185.8339 279.5,-207.8339 418.5,-207.8339 418.5,-185.8339 279.5,-185.8339"/>
<text text-anchor="start" x="299.5" y="-192.9339" font-family="Helvetica,sans-Serif" font-size="11.00" fill="#000000">cognito_id</text>
<polygon fill="#ffffff" stroke="transparent" points="279.5,-163.8339 279.5,-185.8339 418.5,-185.8339 418.5,-163.8339 279.5,-163.8339"/>
<polygon fill="none" stroke="#000000" points="279.5,-163.8339 279.5,-185.8339 418.5,-185.8339 418.5,-163.8339 279.5,-163.8339"/>
<image xlink:href="../../images/foreignKeys.png" width="11px" height="12px" preserveAspectRatio="xMinYMin meet" x="284.5" y="-180.834"/>
<text text-anchor="start" x="299.5" y="-170.9339" font-family="Helvetica,sans-Serif" font-size="11.00" fill="#000000">profile_id</text>
<polygon fill="none" stroke="#000000" points="279.5,-144.8339 279.5,-163.8339 418.5,-163.8339 418.5,-144.8339 279.5,-144.8339"/>
<text text-anchor="start" x="282.5" y="-150.9339" font-family="Helvetica,sans-Serif" font-size="11.00" fill="#000000">...</text>
<polygon fill="#ffffff" stroke="transparent" points="279.5,-125.8339 279.5,-144.8339 329.5,-144.8339 329.5,-125.8339 279.5,-125.8339"/>
<polygon fill="none" stroke="#000000" points="279.5,-125.8339 279.5,-144.8339 329.5,-144.8339 329.5,-125.8339 279.5,-125.8339"/>
<text text-anchor="start" x="282.5" y="-131.9339" font-family="Helvetica,sans-Serif" font-size="11.00" fill="#000000">&lt; 1</text>
<polygon fill="#ffffff" stroke="transparent" points="329.5,-125.8339 329.5,-144.8339 382.5,-144.8339 382.5,-125.8339 329.5,-125.8339"/>
<polygon fill="none" stroke="#000000" points="329.5,-125.8339 329.5,-144.8339 382.5,-144.8339 382.5,-125.8339 329.5,-125.8339"/>
<text text-anchor="start" x="347.1105" y="-131.9339" font-family="Helvetica,sans-Serif" font-size="11.00" fill="#000000">0 rows</text>
<polygon fill="#ffffff" stroke="transparent" points="382.5,-125.8339 382.5,-144.8339 418.5,-144.8339 418.5,-125.8339 382.5,-125.8339"/>
<polygon fill="none" stroke="#000000" points="382.5,-125.8339 382.5,-144.8339 418.5,-144.8339 418.5,-125.8339 382.5,-125.8339"/>
<text text-anchor="start" x="399.9053" y="-131.9339" font-family="Helvetica,sans-Serif" font-size="11.00" fill="#000000">8 &gt;</text>
</a>
</g>
</g>
<!-- companies&#45;&gt;users -->
<g id="edge1" class="edge">
<title>companies:w&#45;&gt;users:e</title>
<path fill="none" stroke="#000000" d="M454.8382,-481.0252C376.0105,-458.8799 522.8363,-240.8339 418.5,-240.8339"/>
<polygon fill="#000000" stroke="#000000" points="461.5602,-481.8544 469.0592,-486.4068 465.5301,-482.3442 469.5,-482.8339 469.5,-482.8339 469.5,-482.8339 465.5301,-482.3442 469.9408,-479.261 461.5602,-481.8544 461.5602,-481.8544"/>
<ellipse fill="none" stroke="#000000" cx="458.3843" cy="-481.4626" rx="3.2" ry="3.2"/>
</g>
<!-- addresses -->
<g id="node3" class="node">
<title>addresses</title>
<g id="a_node3"><a xlink:href="../../tables/addresses.html" xlink:title="addresses" target="_top">
<polygon fill="#ffffff" stroke="transparent" points="8,-675.3339 8,-758.3339 101,-758.3339 101,-675.3339 8,-675.3339"/>
<polygon fill="#f5f5f5" stroke="transparent" points="8.5,-734.8339 8.5,-757.8339 101.5,-757.8339 101.5,-734.8339 8.5,-734.8339"/>
<polygon fill="none" stroke="#000000" points="8.5,-734.8339 8.5,-757.8339 101.5,-757.8339 101.5,-734.8339 8.5,-734.8339"/>
<text text-anchor="start" x="13.1318" y="-743.9339" font-family="Helvetica,sans-Serif" font-weight="bold" font-size="11.00" fill="#000000">addresses</text>
<text text-anchor="start" x="67.0219" y="-742.9339" font-family="Helvetica,sans-Serif" font-size="11.00" fill="#000000">[table]</text>
<polygon fill="none" stroke="#000000" points="8.5,-712.8339 8.5,-734.8339 101.5,-734.8339 101.5,-712.8339 8.5,-712.8339"/>
<image xlink:href="../../images/primaryKeys.png" width="11px" height="12px" preserveAspectRatio="xMinYMin meet" x="13.5" y="-729.834"/>
<text text-anchor="start" x="32.5" y="-719.9339" font-family="Helvetica,sans-Serif" font-size="11.00" fill="#000000">id</text>
<polygon fill="none" stroke="#000000" points="8.5,-693.8339 8.5,-712.8339 101.5,-712.8339 101.5,-693.8339 8.5,-693.8339"/>
<text text-anchor="start" x="11.5" y="-699.9339" font-family="Helvetica,sans-Serif" font-size="11.00" fill="#000000">...</text>
<polygon fill="#ffffff" stroke="transparent" points="8.5,-674.8339 8.5,-693.8339 31.5,-693.8339 31.5,-674.8339 8.5,-674.8339"/>
<polygon fill="none" stroke="#000000" points="8.5,-674.8339 8.5,-693.8339 31.5,-693.8339 31.5,-674.8339 8.5,-674.8339"/>
<text text-anchor="start" x="11.5" y="-680.9339" font-family="Helvetica,sans-Serif" font-size="11.00" fill="#000000"> &#160;</text>
<polygon fill="#ffffff" stroke="transparent" points="31.5,-674.8339 31.5,-693.8339 74.5,-693.8339 74.5,-674.8339 31.5,-674.8339"/>
<polygon fill="none" stroke="#000000" points="31.5,-674.8339 31.5,-693.8339 74.5,-693.8339 74.5,-674.8339 31.5,-674.8339"/>
<text text-anchor="start" x="39.1105" y="-680.9339" font-family="Helvetica,sans-Serif" font-size="11.00" fill="#000000">0 rows</text>
<polygon fill="#ffffff" stroke="transparent" points="74.5,-674.8339 74.5,-693.8339 101.5,-693.8339 101.5,-674.8339 74.5,-674.8339"/>
<polygon fill="none" stroke="#000000" points="74.5,-674.8339 74.5,-693.8339 101.5,-693.8339 101.5,-674.8339 74.5,-674.8339"/>
<text text-anchor="start" x="82.9053" y="-680.9339" font-family="Helvetica,sans-Serif" font-size="11.00" fill="#000000">3 &gt;</text>
</a>
</g>
</g>
<!-- companies&#45;&gt;addresses -->
<g id="edge2" class="edge">
<title>companies:w&#45;&gt;addresses:e</title>
<path fill="none" stroke="#000000" d="M455.0866,-549.3865C344.8765,-558.1203 350.8079,-668.023 238,-709.8339 180.8165,-731.0283 162.4849,-723.8339 101.5,-723.8339"/>
<polygon fill="#000000" stroke="#000000" points="461.5059,-549.1405 469.6379,-552.4313 465.5029,-548.9872 469.5,-548.8339 469.5,-548.8339 469.5,-548.8339 465.5029,-548.9872 469.3621,-545.2366 461.5059,-549.1405 461.5059,-549.1405"/>
<ellipse fill="none" stroke="#000000" cx="458.3082" cy="-549.2631" rx="3.2" ry="3.2"/>
</g>
<!-- profiles -->
<g id="node9" class="node">
<title>profiles</title>
<g id="a_node9"><a xlink:href="../../tables/profiles.html" xlink:title="profiles" target="_top">
<polygon fill="#ffffff" stroke="transparent" points="150,-638.3339 150,-699.3339 230,-699.3339 230,-638.3339 150,-638.3339"/>
<polygon fill="#f5f5f5" stroke="transparent" points="150,-675.8339 150,-698.8339 230,-698.8339 230,-675.8339 150,-675.8339"/>
<polygon fill="none" stroke="#000000" points="150,-675.8339 150,-698.8339 230,-698.8339 230,-675.8339 150,-675.8339"/>
<text text-anchor="start" x="155" y="-684.9339" font-family="Helvetica,sans-Serif" font-weight="bold" font-size="11.00" fill="#000000">profiles</text>
<text text-anchor="start" x="195.0437" y="-683.9339" font-family="Helvetica,sans-Serif" font-size="11.00" fill="#000000">[table]</text>
<polygon fill="none" stroke="#000000" points="150,-656.8339 150,-675.8339 230,-675.8339 230,-656.8339 150,-656.8339"/>
<text text-anchor="start" x="153" y="-662.9339" font-family="Helvetica,sans-Serif" font-size="11.00" fill="#000000">...</text>
<polygon fill="#ffffff" stroke="transparent" points="150,-637.8339 150,-656.8339 171,-656.8339 171,-637.8339 150,-637.8339"/>
<polygon fill="none" stroke="#000000" points="150,-637.8339 150,-656.8339 171,-656.8339 171,-637.8339 150,-637.8339"/>
<text text-anchor="start" x="152.7027" y="-643.9339" font-family="Helvetica,sans-Serif" font-size="11.00" fill="#000000">&lt; 3</text>
<polygon fill="#ffffff" stroke="transparent" points="171,-637.8339 171,-656.8339 209,-656.8339 209,-637.8339 171,-637.8339"/>
<polygon fill="none" stroke="#000000" points="171,-637.8339 171,-656.8339 209,-656.8339 209,-637.8339 171,-637.8339"/>
<text text-anchor="start" x="173.8053" y="-643.9339" font-family="Helvetica,sans-Serif" font-size="11.00" fill="#000000">0 rows</text>
<polygon fill="#ffffff" stroke="transparent" points="209,-637.8339 209,-656.8339 230,-656.8339 230,-637.8339 209,-637.8339"/>
<polygon fill="none" stroke="#000000" points="209,-637.8339 209,-656.8339 230,-656.8339 230,-637.8339 209,-637.8339"/>
<text text-anchor="start" x="211.7027" y="-643.9339" font-family="Helvetica,sans-Serif" font-size="11.00" fill="#000000">2 &gt;</text>
</a>
</g>
</g>
<!-- users&#45;&gt;profiles -->
<g id="edge24" class="edge">
<title>users:w&#45;&gt;profiles:e</title>
<path fill="none" stroke="#000000" d="M269.074,-175.2354C72.9251,-191.0013 445.6872,-665.8339 230,-665.8339"/>
<polygon fill="#000000" stroke="#000000" points="278.5466,-170.8677 278.8545,-178.8618 277.2557,-178.9233 276.9478,-170.9293 278.5466,-170.8677"/>
<polyline fill="none" stroke="#000000" points="279.5,-174.8339 275.503,-174.9879 "/>
<ellipse fill="none" stroke="#000000" cx="272.3053" cy="-175.1111" rx="3.2" ry="3.2"/>
</g>
<!-- company_doing_business_as -->
<g id="node4" class="node">
<title>company_doing_business_as</title>
<g id="a_node4"><a xlink:href="../../tables/company_doing_business_as.html" xlink:title="company_doing_business_as" target="_top">
<polygon fill="#ffffff" stroke="transparent" points="791,-621.3339 791,-726.3339 982,-726.3339 982,-621.3339 791,-621.3339"/>
<polygon fill="#f5f5f5" stroke="transparent" points="791.5,-702.8339 791.5,-725.8339 982.5,-725.8339 982.5,-702.8339 791.5,-702.8339"/>
<polygon fill="none" stroke="#000000" points="791.5,-702.8339 791.5,-725.8339 982.5,-725.8339 982.5,-702.8339 791.5,-702.8339"/>
<text text-anchor="start" x="796.5" y="-711.9339" font-family="Helvetica,sans-Serif" font-weight="bold" font-size="11.00" fill="#000000">company_doing_business_as</text>
<text text-anchor="start" x="947.5437" y="-710.9339" font-family="Helvetica,sans-Serif" font-size="11.00" fill="#000000">[table]</text>
<polygon fill="none" stroke="#000000" points="791.5,-680.8339 791.5,-702.8339 982.5,-702.8339 982.5,-680.8339 791.5,-680.8339"/>
<image xlink:href="../../images/primaryKeys.png" width="11px" height="12px" preserveAspectRatio="xMinYMin meet" x="796.5" y="-697.834"/>
<text text-anchor="start" x="811.5" y="-687.9339" font-family="Helvetica,sans-Serif" font-size="11.00" fill="#000000">id</text>
<polygon fill="none" stroke="#000000" points="791.5,-658.8339 791.5,-680.8339 982.5,-680.8339 982.5,-658.8339 791.5,-658.8339"/>
<image xlink:href="../../images/foreignKeys.png" width="11px" height="12px" preserveAspectRatio="xMinYMin meet" x="796.5" y="-675.834"/>
<text text-anchor="start" x="811.5" y="-665.9339" font-family="Helvetica,sans-Serif" font-size="11.00" fill="#000000">company_id</text>
<polygon fill="none" stroke="#000000" points="791.5,-639.8339 791.5,-658.8339 982.5,-658.8339 982.5,-639.8339 791.5,-639.8339"/>
<text text-anchor="start" x="794.5" y="-645.9339" font-family="Helvetica,sans-Serif" font-size="11.00" fill="#000000">...</text>
<polygon fill="#ffffff" stroke="transparent" points="791.5,-620.8339 791.5,-639.8339 867.5,-639.8339 867.5,-620.8339 791.5,-620.8339"/>
<polygon fill="none" stroke="#000000" points="791.5,-620.8339 791.5,-639.8339 867.5,-639.8339 867.5,-620.8339 791.5,-620.8339"/>
<text text-anchor="start" x="794.5" y="-626.9339" font-family="Helvetica,sans-Serif" font-size="11.00" fill="#000000">&lt; 1</text>
<polygon fill="#ffffff" stroke="transparent" points="867.5,-620.8339 867.5,-639.8339 933.5,-639.8339 933.5,-620.8339 867.5,-620.8339"/>
<polygon fill="none" stroke="#000000" points="867.5,-620.8339 867.5,-639.8339 933.5,-639.8339 933.5,-620.8339 867.5,-620.8339"/>
<text text-anchor="start" x="898.1105" y="-626.9339" font-family="Helvetica,sans-Serif" font-size="11.00" fill="#000000">0 rows</text>
<polygon fill="#ffffff" stroke="transparent" points="933.5,-620.8339 933.5,-639.8339 982.5,-639.8339 982.5,-620.8339 933.5,-620.8339"/>
<polygon fill="none" stroke="#000000" points="933.5,-620.8339 933.5,-639.8339 982.5,-639.8339 982.5,-620.8339 933.5,-620.8339"/>
<text text-anchor="start" x="963.9053" y="-626.9339" font-family="Helvetica,sans-Serif" font-size="11.00" fill="#000000">1 &gt;</text>
</a>
</g>
</g>
<!-- company_doing_business_as&#45;&gt;companies -->
<g id="edge3" class="edge">
<title>company_doing_business_as:w&#45;&gt;companies:e</title>
<path fill="none" stroke="#000000" d="M777.4604,-665.7875C764.3775,-656.9755 761.5921,-636.8339 740.5,-636.8339"/>
<polygon fill="#000000" stroke="#000000" points="783.8129,-667.6183 790.503,-673.2931 787.6565,-668.7261 791.5,-669.8339 791.5,-669.8339 791.5,-669.8339 787.6565,-668.7261 792.497,-666.3747 783.8129,-667.6183 783.8129,-667.6183"/>
<ellipse fill="none" stroke="#000000" cx="780.7381" cy="-666.7321" rx="3.2" ry="3.2"/>
</g>
<!-- company_users -->
<g id="node5" class="node">
<title>company_users</title>
<g id="a_node5"><a xlink:href="../../tables/company_users.html" xlink:title="company_users" target="_top">
<polygon fill="#ffffff" stroke="transparent" points="826.5,-328.8339 826.5,-436.8339 946.5,-436.8339 946.5,-328.8339 826.5,-328.8339"/>
<polygon fill="#f5f5f5" stroke="transparent" points="826.5,-413.8339 826.5,-436.8339 946.5,-436.8339 946.5,-413.8339 826.5,-413.8339"/>
<polygon fill="none" stroke="#000000" points="826.5,-413.8339 826.5,-436.8339 946.5,-436.8339 946.5,-413.8339 826.5,-413.8339"/>
<text text-anchor="start" x="831.186" y="-422.9339" font-family="Helvetica,sans-Serif" font-weight="bold" font-size="11.00" fill="#000000">company_users</text>
<text text-anchor="start" x="912.0219" y="-421.9339" font-family="Helvetica,sans-Serif" font-size="11.00" fill="#000000">[table]</text>
<polygon fill="none" stroke="#000000" points="826.5,-391.8339 826.5,-413.8339 946.5,-413.8339 946.5,-391.8339 826.5,-391.8339"/>
<image xlink:href="../../images/primaryKeys.png" width="11px" height="12px" preserveAspectRatio="xMinYMin meet" x="831.5" y="-408.834"/>
<text text-anchor="start" x="850.5" y="-398.9339" font-family="Helvetica,sans-Serif" font-size="11.00" fill="#000000">company_id</text>
<polygon fill="none" stroke="#000000" points="826.5,-369.8339 826.5,-391.8339 946.5,-391.8339 946.5,-369.8339 826.5,-369.8339"/>
<image xlink:href="../../images/primaryKeys.png" width="11px" height="12px" preserveAspectRatio="xMinYMin meet" x="831.5" y="-386.834"/>
<text text-anchor="start" x="850.5" y="-376.9339" font-family="Helvetica,sans-Serif" font-size="11.00" fill="#000000">user_id</text>
<polygon fill="none" stroke="#000000" points="826.5,-347.8339 826.5,-369.8339 946.5,-369.8339 946.5,-347.8339 826.5,-347.8339"/>
<image xlink:href="../../images/primaryKeys.png" width="11px" height="12px" preserveAspectRatio="xMinYMin meet" x="831.5" y="-364.834"/>
<text text-anchor="start" x="850.5" y="-354.9339" font-family="Helvetica,sans-Serif" font-size="11.00" fill="#000000">role</text>
<polygon fill="#ffffff" stroke="transparent" points="826.5,-328.8339 826.5,-347.8339 871.5,-347.8339 871.5,-328.8339 826.5,-328.8339"/>
<polygon fill="none" stroke="#000000" points="826.5,-328.8339 826.5,-347.8339 871.5,-347.8339 871.5,-328.8339 826.5,-328.8339"/>
<text text-anchor="start" x="829.5" y="-334.9339" font-family="Helvetica,sans-Serif" font-size="11.00" fill="#000000">&lt; 2</text>
<polygon fill="#ffffff" stroke="transparent" points="871.5,-328.8339 871.5,-347.8339 921.5,-347.8339 921.5,-328.8339 871.5,-328.8339"/>
<polygon fill="none" stroke="#000000" points="871.5,-328.8339 871.5,-347.8339 921.5,-347.8339 921.5,-328.8339 871.5,-328.8339"/>
<text text-anchor="start" x="886.1105" y="-334.9339" font-family="Helvetica,sans-Serif" font-size="11.00" fill="#000000">0 rows</text>
<polygon fill="#ffffff" stroke="transparent" points="921.5,-328.8339 921.5,-347.8339 946.5,-347.8339 946.5,-328.8339 921.5,-328.8339"/>
<polygon fill="none" stroke="#000000" points="921.5,-328.8339 921.5,-347.8339 946.5,-347.8339 946.5,-328.8339 921.5,-328.8339"/>
<text text-anchor="start" x="937.3862" y="-334.9339" font-family="Helvetica,sans-Serif" font-size="11.00" fill="#000000"> &#160;</text>
</a>
</g>
</g>
<!-- company_users&#45;&gt;companies -->
<g id="edge4" class="edge">
<title>company_users:w&#45;&gt;companies:e</title>
<path fill="none" stroke="#000000" d="M812.9011,-408.6182C775.0447,-444.6523 790.7069,-636.8339 740.5,-636.8339"/>
<polygon fill="#000000" stroke="#000000" points="819.1383,-405.9653 827.9091,-406.1467 822.8191,-404.3996 826.5,-402.8339 826.5,-402.8339 826.5,-402.8339 822.8191,-404.3996 825.0909,-399.5212 819.1383,-405.9653 819.1383,-405.9653"/>
<ellipse fill="none" stroke="#000000" cx="816.1936" cy="-407.2178" rx="3.2" ry="3.2"/>
</g>
<!-- company_users&#45;&gt;users -->
<g id="edge5" class="edge">
<title>company_users:w&#45;&gt;users:e</title>
<path fill="none" stroke="#000000" d="M811.8679,-378.6432C781.8741,-368.4164 787.5043,-325.1415 750,-307.8339 631.9456,-253.3541 577.6391,-331.0283 459,-277.8339 436.7532,-267.8591 442.8807,-240.8339 418.5,-240.8339"/>
<polygon fill="#000000" stroke="#000000" points="818.5882,-379.6493 825.9669,-384.3943 822.5441,-380.2416 826.5,-380.8339 826.5,-380.8339 826.5,-380.8339 822.5441,-380.2416 827.0331,-377.2736 818.5882,-379.6493 818.5882,-379.6493"/>
<ellipse fill="none" stroke="#000000" cx="815.4235" cy="-379.1755" rx="3.2" ry="3.2"/>
</g>
<!-- feedback -->
<g id="node6" class="node">
<title>feedback</title>
<g id="a_node6"><a xlink:href="../../tables/feedback.html" xlink:title="feedback" target="_top">
<polygon fill="#ffffff" stroke="transparent" points="561,-101.3339 561,-162.3339 648,-162.3339 648,-101.3339 561,-101.3339"/>
<polygon fill="#f5f5f5" stroke="transparent" points="561.5,-138.8339 561.5,-161.8339 648.5,-161.8339 648.5,-138.8339 561.5,-138.8339"/>
<polygon fill="none" stroke="#000000" points="561.5,-138.8339 561.5,-161.8339 648.5,-161.8339 648.5,-138.8339 561.5,-138.8339"/>
<text text-anchor="start" x="566.1843" y="-147.9339" font-family="Helvetica,sans-Serif" font-weight="bold" font-size="11.00" fill="#000000">feedback</text>
<text text-anchor="start" x="614.0219" y="-146.9339" font-family="Helvetica,sans-Serif" font-size="11.00" fill="#000000">[table]</text>
<polygon fill="none" stroke="#000000" points="561.5,-119.8339 561.5,-138.8339 648.5,-138.8339 648.5,-119.8339 561.5,-119.8339"/>
<text text-anchor="start" x="564.5" y="-125.9339" font-family="Helvetica,sans-Serif" font-size="11.00" fill="#000000">...</text>
<polygon fill="#ffffff" stroke="transparent" points="561.5,-100.8339 561.5,-119.8339 590.5,-119.8339 590.5,-100.8339 561.5,-100.8339"/>
<polygon fill="none" stroke="#000000" points="561.5,-100.8339 561.5,-119.8339 590.5,-119.8339 590.5,-100.8339 561.5,-100.8339"/>
<text text-anchor="start" x="564.5" y="-106.9339" font-family="Helvetica,sans-Serif" font-size="11.00" fill="#000000">&lt; 1</text>
<polygon fill="#ffffff" stroke="transparent" points="590.5,-100.8339 590.5,-119.8339 632.5,-119.8339 632.5,-100.8339 590.5,-100.8339"/>
<polygon fill="none" stroke="#000000" points="590.5,-100.8339 590.5,-119.8339 632.5,-119.8339 632.5,-100.8339 590.5,-100.8339"/>
<text text-anchor="start" x="597.1105" y="-106.9339" font-family="Helvetica,sans-Serif" font-size="11.00" fill="#000000">0 rows</text>
<polygon fill="#ffffff" stroke="transparent" points="632.5,-100.8339 632.5,-119.8339 648.5,-119.8339 648.5,-100.8339 632.5,-100.8339"/>
<polygon fill="none" stroke="#000000" points="632.5,-100.8339 632.5,-119.8339 648.5,-119.8339 648.5,-100.8339 632.5,-100.8339"/>
<text text-anchor="start" x="639.3862" y="-106.9339" font-family="Helvetica,sans-Serif" font-size="11.00" fill="#000000"> &#160;</text>
</a>
</g>
</g>
<!-- feedback&#45;&gt;users -->
<g id="edge6" class="edge">
<title>feedback:w&#45;&gt;users:e</title>
<path fill="none" stroke="#000000" d="M546.9653,-129.3121C507.9547,-132.0849 492.8356,-147.021 459,-176.8339 433.7439,-199.0874 452.1613,-240.8339 418.5,-240.8339"/>
<polygon fill="#000000" stroke="#000000" points="553.5043,-129.097 561.6184,-132.432 557.5022,-128.9655 561.5,-128.8339 561.5,-128.8339 561.5,-128.8339 557.5022,-128.9655 561.3816,-125.2359 553.5043,-129.097 553.5043,-129.097"/>
<ellipse fill="none" stroke="#000000" cx="550.3061" cy="-129.2023" rx="3.2" ry="3.2"/>
</g>
<!-- patients -->
<g id="node7" class="node">
<title>patients</title>
<g id="a_node7"><a xlink:href="../../tables/patients.html" xlink:title="patients" target="_top">
<polygon fill="#ffffff" stroke="transparent" points="1289,-173.3339 1289,-476.3339 1499,-476.3339 1499,-173.3339 1289,-173.3339"/>
<polygon fill="#f5f5f5" stroke="transparent" points="1289,-452.8339 1289,-475.8339 1499,-475.8339 1499,-452.8339 1289,-452.8339"/>
<polygon fill="none" stroke="#000000" points="1289,-452.8339 1289,-475.8339 1499,-475.8339 1499,-452.8339 1289,-452.8339"/>
<text text-anchor="start" x="1294" y="-461.9339" font-family="Helvetica,sans-Serif" font-weight="bold" font-size="11.00" fill="#000000">patients</text>
<text text-anchor="start" x="1464.0437" y="-460.9339" font-family="Helvetica,sans-Serif" font-size="11.00" fill="#000000">[table]</text>
<polygon fill="none" stroke="#000000" points="1289,-430.8339 1289,-452.8339 1499,-452.8339 1499,-430.8339 1289,-430.8339"/>
<image xlink:href="../../images/primaryKeys.png" width="11px" height="12px" preserveAspectRatio="xMinYMin meet" x="1294" y="-447.834"/>
<text text-anchor="start" x="1309" y="-437.9339" font-family="Helvetica,sans-Serif" font-size="11.00" fill="#000000">id</text>
<polygon fill="none" stroke="#000000" points="1289,-408.8339 1289,-430.8339 1499,-430.8339 1499,-408.8339 1289,-408.8339"/>
<image xlink:href="../../images/foreignKeys.png" width="11px" height="12px" preserveAspectRatio="xMinYMin meet" x="1294" y="-425.834"/>
<text text-anchor="start" x="1309" y="-415.9339" font-family="Helvetica,sans-Serif" font-size="11.00" fill="#000000">profile_id</text>
<polygon fill="none" stroke="#000000" points="1289,-386.8339 1289,-408.8339 1499,-408.8339 1499,-386.8339 1289,-386.8339"/>
<image xlink:href="../../images/foreignKeys.png" width="11px" height="12px" preserveAspectRatio="xMinYMin meet" x="1294" y="-403.834"/>
<text text-anchor="start" x="1309" y="-393.9339" font-family="Helvetica,sans-Serif" font-size="11.00" fill="#000000">user_id</text>
<polygon fill="none" stroke="#000000" points="1289,-364.8339 1289,-386.8339 1499,-386.8339 1499,-364.8339 1289,-364.8339"/>
<image xlink:href="../../images/foreignKeys.png" width="11px" height="12px" preserveAspectRatio="xMinYMin meet" x="1294" y="-381.834"/>
<text text-anchor="start" x="1309" y="-371.9339" font-family="Helvetica,sans-Serif" font-size="11.00" fill="#000000">company_id</text>
<polygon fill="none" stroke="#000000" points="1289,-342.8339 1289,-364.8339 1499,-364.8339 1499,-342.8339 1289,-342.8339"/>
<image xlink:href="../../images/foreignKeys.png" width="11px" height="12px" preserveAspectRatio="xMinYMin meet" x="1294" y="-359.834"/>
<text text-anchor="start" x="1309" y="-349.9339" font-family="Helvetica,sans-Serif" font-size="11.00" fill="#000000">provider_location_id</text>
<polygon fill="none" stroke="#000000" points="1289,-320.8339 1289,-342.8339 1499,-342.8339 1499,-320.8339 1289,-320.8339"/>
<image xlink:href="../../images/foreignKeys.png" width="11px" height="12px" preserveAspectRatio="xMinYMin meet" x="1294" y="-337.834"/>
<text text-anchor="start" x="1309" y="-327.9339" font-family="Helvetica,sans-Serif" font-size="11.00" fill="#000000">professional_id</text>
<polygon fill="#ffffff" stroke="transparent" points="1289,-298.8339 1289,-320.8339 1499,-320.8339 1499,-298.8339 1289,-298.8339"/>
<polygon fill="none" stroke="#000000" points="1289,-298.8339 1289,-320.8339 1499,-320.8339 1499,-298.8339 1289,-298.8339"/>
<text text-anchor="start" x="1309" y="-305.9339" font-family="Helvetica,sans-Serif" font-size="11.00" fill="#000000">insurance_policy_id</text>
<polygon fill="none" stroke="#000000" points="1289,-276.8339 1289,-298.8339 1499,-298.8339 1499,-276.8339 1289,-276.8339"/>
<image xlink:href="../../images/foreignKeys.png" width="11px" height="12px" preserveAspectRatio="xMinYMin meet" x="1294" y="-293.834"/>
<text text-anchor="start" x="1309" y="-283.9339" font-family="Helvetica,sans-Serif" font-size="11.00" fill="#000000">main_member_id</text>
<polygon fill="none" stroke="#000000" points="1289,-254.8339 1289,-276.8339 1499,-276.8339 1499,-254.8339 1289,-254.8339"/>
<image xlink:href="../../images/foreignKeys.png" width="11px" height="12px" preserveAspectRatio="xMinYMin meet" x="1294" y="-271.834"/>
<text text-anchor="start" x="1309" y="-261.9339" font-family="Helvetica,sans-Serif" font-size="11.00" fill="#000000">relationship_to_main_member</text>
<polygon fill="none" stroke="#000000" points="1289,-232.8339 1289,-254.8339 1499,-254.8339 1499,-232.8339 1289,-232.8339"/>
<image xlink:href="../../images/foreignKeys.png" width="11px" height="12px" preserveAspectRatio="xMinYMin meet" x="1294" y="-249.834"/>
<text text-anchor="start" x="1309" y="-239.9339" font-family="Helvetica,sans-Serif" font-size="11.00" fill="#000000">accepted_agreement_by_user_id</text>
<polygon fill="none" stroke="#000000" points="1289,-210.8339 1289,-232.8339 1499,-232.8339 1499,-210.8339 1289,-210.8339"/>
<image xlink:href="../../images/foreignKeys.png" width="11px" height="12px" preserveAspectRatio="xMinYMin meet" x="1294" y="-227.834"/>
<text text-anchor="start" x="1309" y="-217.9339" font-family="Helvetica,sans-Serif" font-size="11.00" fill="#000000">created_by_user_id</text>
<polygon fill="none" stroke="#000000" points="1289,-191.8339 1289,-210.8339 1499,-210.8339 1499,-191.8339 1289,-191.8339"/>
<text text-anchor="start" x="1292" y="-197.9339" font-family="Helvetica,sans-Serif" font-size="11.00" fill="#000000">...</text>
<polygon fill="#ffffff" stroke="transparent" points="1289,-172.8339 1289,-191.8339 1375,-191.8339 1375,-172.8339 1289,-172.8339"/>
<polygon fill="none" stroke="#000000" points="1289,-172.8339 1289,-191.8339 1375,-191.8339 1375,-172.8339 1289,-172.8339"/>
<text text-anchor="start" x="1292" y="-178.9339" font-family="Helvetica,sans-Serif" font-size="11.00" fill="#000000">&lt; 9</text>
<polygon fill="#ffffff" stroke="transparent" points="1375,-172.8339 1375,-191.8339 1445,-191.8339 1445,-172.8339 1375,-172.8339"/>
<polygon fill="none" stroke="#000000" points="1375,-172.8339 1375,-191.8339 1445,-191.8339 1445,-172.8339 1375,-172.8339"/>
<text text-anchor="start" x="1409.6105" y="-178.9339" font-family="Helvetica,sans-Serif" font-size="11.00" fill="#000000">0 rows</text>
<polygon fill="#ffffff" stroke="transparent" points="1445,-172.8339 1445,-191.8339 1499,-191.8339 1499,-172.8339 1445,-172.8339"/>
<polygon fill="none" stroke="#000000" points="1445,-172.8339 1445,-191.8339 1499,-191.8339 1499,-172.8339 1445,-172.8339"/>
<text text-anchor="start" x="1480.4053" y="-178.9339" font-family="Helvetica,sans-Serif" font-size="11.00" fill="#000000">2 &gt;</text>
</a>
</g>
</g>
<!-- patients&#45;&gt;companies -->
<g id="edge8" class="edge">
<title>patients:w&#45;&gt;companies:e</title>
<path fill="none" stroke="#000000" d="M1275.0982,-380.096C1264.3747,-388.7629 1265.0873,-408.5719 1248,-419.8339 1064.6505,-540.6769 963.5453,-461.8401 783,-586.8339 759.0205,-603.4352 769.6653,-636.8339 740.5,-636.8339"/>
<polygon fill="#000000" stroke="#000000" points="1281.3514,-378.1789 1290.0552,-379.2758 1285.1757,-377.0064 1289,-375.8339 1289,-375.8339 1289,-375.8339 1285.1757,-377.0064 1287.9448,-372.3921 1281.3514,-378.1789 1281.3514,-378.1789"/>
<ellipse fill="none" stroke="#000000" cx="1278.2919" cy="-379.1169" rx="3.2" ry="3.2"/>
</g>
<!-- patients&#45;&gt;users -->
<g id="edge7" class="edge">
<title>patients:w&#45;&gt;users:e</title>
<path fill="none" stroke="#000000" d="M1274.695,-240.8517C1266.3934,-236.951 1261.2159,-230.3213 1248,-227.8339 1149.7254,-209.3377 1122.9996,-227.568 1023,-227.8339 772.3307,-228.5006 707.755,-199.9062 459,-230.8339 440.6011,-233.1215 437.0406,-240.8339 418.5,-240.8339"/>
<polygon fill="#000000" stroke="#000000" points="1281.1684,-242.2012 1288.2653,-247.3582 1285.0842,-243.0176 1289,-243.8339 1289,-243.8339 1289,-243.8339 1285.0842,-243.0176 1289.7347,-240.3097 1281.1684,-242.2012 1281.1684,-242.2012"/>
<ellipse fill="none" stroke="#000000" cx="1278.0357" cy="-241.5481" rx="3.2" ry="3.2"/>
</g>
<!-- patients&#45;&gt;users -->
<g id="edge9" class="edge">
<title>patients:w&#45;&gt;users:e</title>
<path fill="none" stroke="#000000" d="M1274.4724,-220.8258C1266.2989,-219.6062 1260.3088,-217.6189 1248,-216.8339 1027.1114,-202.7469 971.3363,-214.5006 750,-213.8339 620.6673,-213.4444 582.7839,-176.3552 459,-213.8339 438.2949,-220.1029 440.1333,-240.8339 418.5,-240.8339"/>
<polygon fill="#000000" stroke="#000000" points="1281.0192,-221.28 1288.7507,-225.4253 1285.0096,-221.557 1289,-221.8339 1289,-221.8339 1289,-221.8339 1285.0096,-221.557 1289.2493,-218.2426 1281.0192,-221.28 1281.0192,-221.28"/>
<ellipse fill="none" stroke="#000000" cx="1277.8269" cy="-221.0585" rx="3.2" ry="3.2"/>
</g>
<!-- patients&#45;&gt;users -->
<g id="edge14" class="edge">
<title>patients:w&#45;&gt;users:e</title>
<path fill="none" stroke="#000000" d="M1275.2042,-393.41C1262.3026,-381.9707 1270.1898,-351.3647 1248,-337.8339 1161.9625,-285.3704 1111.0239,-358.8917 1023,-309.8339 1002.5675,-298.4465 1010.7275,-279.6751 990,-268.8339 952.0084,-248.9632 461.1005,-240.8339 418.5,-240.8339"/>
<polygon fill="#000000" stroke="#000000" points="1281.3821,-395.3911 1287.9007,-401.262 1285.191,-396.6125 1289,-397.8339 1289,-397.8339 1289,-397.8339 1285.191,-396.6125 1290.0993,-394.4059 1281.3821,-395.3911 1281.3821,-395.3911"/>
<ellipse fill="none" stroke="#000000" cx="1278.3349" cy="-394.4139" rx="3.2" ry="3.2"/>
</g>
<!-- professionals -->
<g id="node8" class="node">
<title>professionals</title>
<g id="a_node8"><a xlink:href="../../tables/professionals.html" xlink:title="professionals" target="_top">
<polygon fill="#ffffff" stroke="transparent" points="1082,-348.3339 1082,-409.3339 1189,-409.3339 1189,-348.3339 1082,-348.3339"/>
<polygon fill="#f5f5f5" stroke="transparent" points="1082.5,-385.8339 1082.5,-408.8339 1189.5,-408.8339 1189.5,-385.8339 1082.5,-385.8339"/>
<polygon fill="none" stroke="#000000" points="1082.5,-385.8339 1082.5,-408.8339 1189.5,-408.8339 1189.5,-385.8339 1082.5,-385.8339"/>
<text text-anchor="start" x="1087.105" y="-394.9339" font-family="Helvetica,sans-Serif" font-weight="bold" font-size="11.00" fill="#000000">professionals</text>
<text text-anchor="start" x="1155.0219" y="-393.9339" font-family="Helvetica,sans-Serif" font-size="11.00" fill="#000000">[table]</text>
<polygon fill="none" stroke="#000000" points="1082.5,-366.8339 1082.5,-385.8339 1189.5,-385.8339 1189.5,-366.8339 1082.5,-366.8339"/>
<text text-anchor="start" x="1085.5" y="-372.9339" font-family="Helvetica,sans-Serif" font-size="11.00" fill="#000000">...</text>
<polygon fill="#ffffff" stroke="transparent" points="1082.5,-347.8339 1082.5,-366.8339 1116.5,-366.8339 1116.5,-347.8339 1082.5,-347.8339"/>
<polygon fill="none" stroke="#000000" points="1082.5,-347.8339 1082.5,-366.8339 1116.5,-366.8339 1116.5,-347.8339 1082.5,-347.8339"/>
<text text-anchor="start" x="1085.5" y="-353.9339" font-family="Helvetica,sans-Serif" font-size="11.00" fill="#000000">&lt; 2</text>
<polygon fill="#ffffff" stroke="transparent" points="1116.5,-347.8339 1116.5,-366.8339 1161.5,-366.8339 1161.5,-347.8339 1116.5,-347.8339"/>
<polygon fill="none" stroke="#000000" points="1116.5,-347.8339 1116.5,-366.8339 1161.5,-366.8339 1161.5,-347.8339 1116.5,-347.8339"/>
<text text-anchor="start" x="1126.1105" y="-353.9339" font-family="Helvetica,sans-Serif" font-size="11.00" fill="#000000">0 rows</text>
<polygon fill="#ffffff" stroke="transparent" points="1161.5,-347.8339 1161.5,-366.8339 1189.5,-366.8339 1189.5,-347.8339 1161.5,-347.8339"/>
<polygon fill="none" stroke="#000000" points="1161.5,-347.8339 1161.5,-366.8339 1189.5,-366.8339 1189.5,-347.8339 1161.5,-347.8339"/>
<text text-anchor="start" x="1170.9053" y="-353.9339" font-family="Helvetica,sans-Serif" font-size="11.00" fill="#000000">2 &gt;</text>
</a>
</g>
</g>
<!-- patients&#45;&gt;professionals -->
<g id="edge10" class="edge">
<title>patients:w&#45;&gt;professionals:e</title>
<path fill="none" stroke="#000000" d="M1274.65,-333.2979C1239.4907,-340.9326 1232.5645,-375.8339 1189.5,-375.8339"/>
<polygon fill="#000000" stroke="#000000" points="1281.0413,-332.6459 1289.3654,-335.4153 1285.0207,-332.2399 1289,-331.8339 1289,-331.8339 1289,-331.8339 1285.0207,-332.2399 1288.6346,-328.2525 1281.0413,-332.6459 1281.0413,-332.6459"/>
<ellipse fill="none" stroke="#000000" cx="1277.8578" cy="-332.9707" rx="3.2" ry="3.2"/>
</g>
<!-- patients&#45;&gt;profiles -->
<g id="edge11" class="edge">
<title>patients:w&#45;&gt;profiles:e</title>
<path fill="none" stroke="#000000" d="M1275.1166,-424.1374C1263.5751,-433.7469 1266.4937,-457.1038 1248,-469.8339 1148.4382,-538.3673 1105.7971,-521.1871 990,-555.8339 898.8025,-583.1205 855.6246,-549.2937 783,-610.8339 755.8356,-633.8524 779.9163,-664.5267 750,-683.8339 555.7008,-809.2299 461.2495,-665.8339 230,-665.8339"/>
<polygon fill="#000000" stroke="#000000" points="1281.3587,-422.2026 1290.0659,-423.2725 1285.1793,-421.0183 1289,-419.8339 1289,-419.8339 1289,-419.8339 1285.1793,-421.0183 1287.9341,-416.3953 1281.3587,-422.2026 1281.3587,-422.2026"/>
<ellipse fill="none" stroke="#000000" cx="1278.3022" cy="-423.1501" rx="3.2" ry="3.2"/>
</g>
<!-- provider_locations -->
<g id="node10" class="node">
<title>provider_locations</title>
<g id="a_node10"><a xlink:href="../../tables/provider_locations.html" xlink:title="provider_locations" target="_top">
<polygon fill="#ffffff" stroke="transparent" points="1031,-643.3339 1031,-792.3339 1240,-792.3339 1240,-643.3339 1031,-643.3339"/>
<polygon fill="#f5f5f5" stroke="transparent" points="1031.5,-768.8339 1031.5,-791.8339 1240.5,-791.8339 1240.5,-768.8339 1031.5,-768.8339"/>
<polygon fill="none" stroke="#000000" points="1031.5,-768.8339 1031.5,-791.8339 1240.5,-791.8339 1240.5,-768.8339 1031.5,-768.8339"/>
<text text-anchor="start" x="1036.5" y="-777.9339" font-family="Helvetica,sans-Serif" font-weight="bold" font-size="11.00" fill="#000000">provider_locations</text>
<text text-anchor="start" x="1205.5437" y="-776.9339" font-family="Helvetica,sans-Serif" font-size="11.00" fill="#000000">[table]</text>
<polygon fill="none" stroke="#000000" points="1031.5,-746.8339 1031.5,-768.8339 1240.5,-768.8339 1240.5,-746.8339 1031.5,-746.8339"/>
<image xlink:href="../../images/primaryKeys.png" width="11px" height="12px" preserveAspectRatio="xMinYMin meet" x="1036.5" y="-763.834"/>
<text text-anchor="start" x="1051.5" y="-753.9339" font-family="Helvetica,sans-Serif" font-size="11.00" fill="#000000">id</text>
<polygon fill="none" stroke="#000000" points="1031.5,-724.8339 1031.5,-746.8339 1240.5,-746.8339 1240.5,-724.8339 1031.5,-724.8339"/>
<image xlink:href="../../images/foreignKeys.png" width="11px" height="12px" preserveAspectRatio="xMinYMin meet" x="1036.5" y="-741.834"/>
<text text-anchor="start" x="1051.5" y="-731.9339" font-family="Helvetica,sans-Serif" font-size="11.00" fill="#000000">company_id</text>
<polygon fill="none" stroke="#000000" points="1031.5,-702.8339 1031.5,-724.8339 1240.5,-724.8339 1240.5,-702.8339 1031.5,-702.8339"/>
<image xlink:href="../../images/foreignKeys.png" width="11px" height="12px" preserveAspectRatio="xMinYMin meet" x="1036.5" y="-719.834"/>
<text text-anchor="start" x="1051.5" y="-709.9339" font-family="Helvetica,sans-Serif" font-size="11.00" fill="#000000">address_id</text>
<polygon fill="none" stroke="#000000" points="1031.5,-680.8339 1031.5,-702.8339 1240.5,-702.8339 1240.5,-680.8339 1031.5,-680.8339"/>
<image xlink:href="../../images/foreignKeys.png" width="11px" height="12px" preserveAspectRatio="xMinYMin meet" x="1036.5" y="-697.834"/>
<text text-anchor="start" x="1051.5" y="-687.9339" font-family="Helvetica,sans-Serif" font-size="11.00" fill="#000000">company_doing_business_as_id</text>
<polygon fill="none" stroke="#000000" points="1031.5,-661.8339 1031.5,-680.8339 1240.5,-680.8339 1240.5,-661.8339 1031.5,-661.8339"/>
<text text-anchor="start" x="1034.5" y="-667.9339" font-family="Helvetica,sans-Serif" font-size="11.00" fill="#000000">...</text>
<polygon fill="#ffffff" stroke="transparent" points="1031.5,-642.8339 1031.5,-661.8339 1116.5,-661.8339 1116.5,-642.8339 1031.5,-642.8339"/>
<polygon fill="none" stroke="#000000" points="1031.5,-642.8339 1031.5,-661.8339 1116.5,-661.8339 1116.5,-642.8339 1031.5,-642.8339"/>
<text text-anchor="start" x="1034.5" y="-648.9339" font-family="Helvetica,sans-Serif" font-size="11.00" fill="#000000">&lt; 3</text>
<polygon fill="#ffffff" stroke="transparent" points="1116.5,-642.8339 1116.5,-661.8339 1186.5,-661.8339 1186.5,-642.8339 1116.5,-642.8339"/>
<polygon fill="none" stroke="#000000" points="1116.5,-642.8339 1116.5,-661.8339 1186.5,-661.8339 1186.5,-642.8339 1116.5,-642.8339"/>
<text text-anchor="start" x="1151.1105" y="-648.9339" font-family="Helvetica,sans-Serif" font-size="11.00" fill="#000000">0 rows</text>
<polygon fill="#ffffff" stroke="transparent" points="1186.5,-642.8339 1186.5,-661.8339 1240.5,-661.8339 1240.5,-642.8339 1186.5,-642.8339"/>
<polygon fill="none" stroke="#000000" points="1186.5,-642.8339 1186.5,-661.8339 1240.5,-661.8339 1240.5,-642.8339 1186.5,-642.8339"/>
<text text-anchor="start" x="1221.9053" y="-648.9339" font-family="Helvetica,sans-Serif" font-size="11.00" fill="#000000">2 &gt;</text>
</a>
</g>
</g>
<!-- patients&#45;&gt;provider_locations -->
<g id="edge12" class="edge">
<title>patients:w&#45;&gt;provider_locations:e</title>
<path fill="none" stroke="#000000" d="M1274.9267,-358.0977C1213.7871,-401.2748 1325.4476,-757.8339 1240.5,-757.8339"/>
<polygon fill="#000000" stroke="#000000" points="1281.3437,-356.1536 1290.0438,-357.2793 1285.1718,-354.9938 1289,-353.8339 1289,-353.8339 1289,-353.8339 1285.1718,-354.9938 1287.9562,-350.3886 1281.3437,-356.1536 1281.3437,-356.1536"/>
<ellipse fill="none" stroke="#000000" cx="1278.2811" cy="-357.0814" rx="3.2" ry="3.2"/>
</g>
<!-- relationships -->
<g id="node11" class="node">
<title>relationships</title>
<g id="a_node11"><a xlink:href="../../tables/relationships.html" xlink:title="relationships" target="_top">
<polygon fill="#ffffff" stroke="transparent" points="1083.5,-238.3339 1083.5,-299.3339 1187.5,-299.3339 1187.5,-238.3339 1083.5,-238.3339"/>
<polygon fill="#f5f5f5" stroke="transparent" points="1083.5,-275.8339 1083.5,-298.8339 1187.5,-298.8339 1187.5,-275.8339 1083.5,-275.8339"/>
<polygon fill="none" stroke="#000000" points="1083.5,-275.8339 1083.5,-298.8339 1187.5,-298.8339 1187.5,-275.8339 1083.5,-275.8339"/>
<text text-anchor="start" x="1088.1346" y="-284.9339" font-family="Helvetica,sans-Serif" font-weight="bold" font-size="11.00" fill="#000000">relationships</text>
<text text-anchor="start" x="1153.0219" y="-283.9339" font-family="Helvetica,sans-Serif" font-size="11.00" fill="#000000">[table]</text>
<polygon fill="none" stroke="#000000" points="1083.5,-256.8339 1083.5,-275.8339 1187.5,-275.8339 1187.5,-256.8339 1083.5,-256.8339"/>
<text text-anchor="start" x="1086.5" y="-262.9339" font-family="Helvetica,sans-Serif" font-size="11.00" fill="#000000">...</text>
<polygon fill="#ffffff" stroke="transparent" points="1083.5,-237.8339 1083.5,-256.8339 1111.5,-256.8339 1111.5,-237.8339 1083.5,-237.8339"/>
<polygon fill="none" stroke="#000000" points="1083.5,-237.8339 1083.5,-256.8339 1111.5,-256.8339 1111.5,-237.8339 1083.5,-237.8339"/>
<text text-anchor="start" x="1086.5" y="-243.9339" font-family="Helvetica,sans-Serif" font-size="11.00" fill="#000000"> &#160;</text>
<polygon fill="#ffffff" stroke="transparent" points="1111.5,-237.8339 1111.5,-256.8339 1157.5,-256.8339 1157.5,-237.8339 1111.5,-237.8339"/>
<polygon fill="none" stroke="#000000" points="1111.5,-237.8339 1111.5,-256.8339 1157.5,-256.8339 1157.5,-237.8339 1111.5,-237.8339"/>
<text text-anchor="start" x="1122.1105" y="-243.9339" font-family="Helvetica,sans-Serif" font-size="11.00" fill="#000000">0 rows</text>
<polygon fill="#ffffff" stroke="transparent" points="1157.5,-237.8339 1157.5,-256.8339 1187.5,-256.8339 1187.5,-237.8339 1157.5,-237.8339"/>
<polygon fill="none" stroke="#000000" points="1157.5,-237.8339 1157.5,-256.8339 1187.5,-256.8339 1187.5,-237.8339 1157.5,-237.8339"/>
<text text-anchor="start" x="1168.9053" y="-243.9339" font-family="Helvetica,sans-Serif" font-size="11.00" fill="#000000">1 &gt;</text>
</a>
</g>
</g>
<!-- patients&#45;&gt;relationships -->
<g id="edge13" class="edge">
<title>patients:w&#45;&gt;relationships:e</title>
<path fill="none" stroke="#000000" d="M1274.4256,-265.8339C1240.781,-265.8339 1227.3247,-265.8339 1187.5,-265.8339"/>
<polygon fill="#000000" stroke="#000000" points="1281,-265.834 1289,-269.4339 1285,-265.834 1289,-265.8339 1289,-265.8339 1289,-265.8339 1285,-265.834 1289,-262.2339 1281,-265.834 1281,-265.834"/>
<ellipse fill="none" stroke="#000000" cx="1277.8" cy="-265.834" rx="3.2" ry="3.2"/>
</g>
<!-- professionals&#45;&gt;users -->
<g id="edge17" class="edge">
<title>professionals:w&#45;&gt;users:e</title>
<path fill="none" stroke="#000000" d="M1072.0392,-375.1308C1034.0853,-369.7175 1031.6837,-334.4621 990,-318.8339 767.2161,-235.3071 693.5377,-290.8521 459,-250.8339 440.7236,-247.7155 437.0406,-240.8339 418.5,-240.8339"/>
<polygon fill="#000000" stroke="#000000" points="1081.9701,-371.7893 1081.4335,-379.7713 1079.8371,-379.6639 1080.3737,-371.682 1081.9701,-371.7893"/>
<polyline fill="none" stroke="#000000" points="1082.5,-375.8339 1078.509,-375.5656 "/>
<ellipse fill="none" stroke="#000000" cx="1075.3162" cy="-375.351" rx="3.2" ry="3.2"/>
</g>
<!-- profiles&#45;&gt;addresses -->
<g id="edge18" class="edge">
<title>profiles:w&#45;&gt;addresses:e</title>
<path fill="none" stroke="#000000" d="M136.3458,-670.779C121.4307,-684.805 129.0646,-723.8339 101.5,-723.8339"/>
<polygon fill="#000000" stroke="#000000" points="142.4781,-668.5581 151.2259,-669.2188 146.239,-667.196 150,-665.8339 150,-665.8339 150,-665.8339 146.239,-667.196 148.7741,-662.4491 142.4781,-668.5581 142.4781,-668.5581"/>
<ellipse fill="none" stroke="#000000" cx="139.4693" cy="-669.6478" rx="3.2" ry="3.2"/>
</g>
<!-- provider_locations&#45;&gt;companies -->
<g id="edge21" class="edge">
<title>provider_locations:w&#45;&gt;companies:e</title>
<path fill="none" stroke="#000000" d="M1016.9962,-736.1921C916.8339,-741.1507 870.9745,-795.0348 783,-736.8339 742.7242,-710.1889 788.7918,-636.8339 740.5,-636.8339"/>
<polygon fill="#000000" stroke="#000000" points="1023.5024,-736.0315 1031.5889,-739.4328 1027.5012,-735.9327 1031.5,-735.8339 1031.5,-735.8339 1031.5,-735.8339 1027.5012,-735.9327 1031.4111,-732.235 1023.5024,-736.0315 1023.5024,-736.0315"/>
<ellipse fill="none" stroke="#000000" cx="1020.3034" cy="-736.1105" rx="3.2" ry="3.2"/>
</g>
<!-- provider_locations&#45;&gt;addresses -->
<g id="edge19" class="edge">
<title>provider_locations:w&#45;&gt;addresses:e</title>
<path fill="none" stroke="#000000" d="M1017.4798,-717.4816C1008.6675,-722.8872 1004.4441,-732.8179 990,-736.8339 824.8195,-782.7603 775.9463,-750.8339 604.5,-750.8339 604.5,-750.8339 604.5,-750.8339 348.5,-750.8339 320.8921,-750.8339 129.1079,-723.8339 101.5,-723.8339"/>
<polygon fill="#000000" stroke="#000000" points="1023.7577,-715.8483 1032.4065,-717.3179 1027.6289,-714.8411 1031.5,-713.8339 1031.5,-713.8339 1031.5,-713.8339 1027.6289,-714.8411 1030.5935,-710.3499 1023.7577,-715.8483 1023.7577,-715.8483"/>
<ellipse fill="none" stroke="#000000" cx="1020.6608" cy="-716.6541" rx="3.2" ry="3.2"/>
</g>
<!-- provider_locations&#45;&gt;company_doing_business_as -->
<g id="edge20" class="edge">
<title>provider_locations:w&#45;&gt;company_doing_business_as:e</title>
<path fill="none" stroke="#000000" d="M1016.9909,-691.8339C1005.6774,-691.8339 998.4931,-691.8339 982.5,-691.8339"/>
<polygon fill="#000000" stroke="#000000" points="1023.5,-691.834 1031.5,-695.4339 1027.5,-691.834 1031.5,-691.8339 1031.5,-691.8339 1031.5,-691.8339 1027.5,-691.834 1031.5,-688.2339 1023.5,-691.834 1023.5,-691.834"/>
<ellipse fill="none" stroke="#000000" cx="1020.3" cy="-691.834" rx="3.2" ry="3.2"/>
</g>
<!-- professional_locations -->
<g id="node12" class="node">
<title>professional_locations</title>
<g id="a_node12"><a xlink:href="../../tables/professional_locations.html" xlink:title="professional_locations" target="_top">
<polygon fill="#ffffff" stroke="transparent" points="1318.5,-613.3339 1318.5,-674.3339 1469.5,-674.3339 1469.5,-613.3339 1318.5,-613.3339"/>
<polygon fill="#f5f5f5" stroke="transparent" points="1319,-650.8339 1319,-673.8339 1470,-673.8339 1470,-650.8339 1319,-650.8339"/>
<polygon fill="none" stroke="#000000" points="1319,-650.8339 1319,-673.8339 1470,-673.8339 1470,-650.8339 1319,-650.8339"/>
<text text-anchor="start" x="1323.5984" y="-659.9339" font-family="Helvetica,sans-Serif" font-weight="bold" font-size="11.00" fill="#000000">professional_locations</text>
<text text-anchor="start" x="1435.5219" y="-658.9339" font-family="Helvetica,sans-Serif" font-size="11.00" fill="#000000">[table]</text>
<polygon fill="none" stroke="#000000" points="1319,-631.8339 1319,-650.8339 1470,-650.8339 1470,-631.8339 1319,-631.8339"/>
<text text-anchor="start" x="1322" y="-637.9339" font-family="Helvetica,sans-Serif" font-size="11.00" fill="#000000">...</text>
<polygon fill="#ffffff" stroke="transparent" points="1319,-612.8339 1319,-631.8339 1380,-631.8339 1380,-612.8339 1319,-612.8339"/>
<polygon fill="none" stroke="#000000" points="1319,-612.8339 1319,-631.8339 1380,-631.8339 1380,-612.8339 1319,-612.8339"/>
<text text-anchor="start" x="1322" y="-618.9339" font-family="Helvetica,sans-Serif" font-size="11.00" fill="#000000">&lt; 2</text>
<polygon fill="#ffffff" stroke="transparent" points="1380,-612.8339 1380,-631.8339 1438,-631.8339 1438,-612.8339 1380,-612.8339"/>
<polygon fill="none" stroke="#000000" points="1380,-612.8339 1380,-631.8339 1438,-631.8339 1438,-612.8339 1380,-612.8339"/>
<text text-anchor="start" x="1402.6105" y="-618.9339" font-family="Helvetica,sans-Serif" font-size="11.00" fill="#000000">0 rows</text>
<polygon fill="#ffffff" stroke="transparent" points="1438,-612.8339 1438,-631.8339 1470,-631.8339 1470,-612.8339 1438,-612.8339"/>
<polygon fill="none" stroke="#000000" points="1438,-612.8339 1438,-631.8339 1470,-631.8339 1470,-612.8339 1438,-612.8339"/>
<text text-anchor="start" x="1460.8862" y="-618.9339" font-family="Helvetica,sans-Serif" font-size="11.00" fill="#000000"> &#160;</text>
</a>
</g>
</g>
<!-- professional_locations&#45;&gt;professionals -->
<g id="edge15" class="edge">
<title>professional_locations:w&#45;&gt;professionals:e</title>
<path fill="none" stroke="#000000" d="M1304.4887,-639.5935C1198.113,-620.0381 1315.34,-375.8339 1189.5,-375.8339"/>
<polygon fill="#000000" stroke="#000000" points="1311.0291,-640.1525 1318.6934,-644.4209 1315.0145,-640.4932 1319,-640.8339 1319,-640.8339 1319,-640.8339 1315.0145,-640.4932 1319.3066,-637.247 1311.0291,-640.1525 1311.0291,-640.1525"/>
<ellipse fill="none" stroke="#000000" cx="1307.8407" cy="-639.8799" rx="3.2" ry="3.2"/>
</g>
<!-- professional_locations&#45;&gt;provider_locations -->
<g id="edge16" class="edge">
<title>professional_locations:w&#45;&gt;provider_locations:e</title>
<path fill="none" stroke="#000000" d="M1304.6116,-643.4975C1263.896,-660.913 1297.4938,-757.8339 1240.5,-757.8339"/>
<polygon fill="#000000" stroke="#000000" points="1311.1336,-642.2902 1319.6553,-644.3738 1315.0668,-641.5621 1319,-640.8339 1319,-640.8339 1319,-640.8339 1315.0668,-641.5621 1318.3447,-637.2941 1311.1336,-642.2902 1311.1336,-642.2902"/>
<ellipse fill="none" stroke="#000000" cx="1307.9871" cy="-642.8727" rx="3.2" ry="3.2"/>
</g>
<!-- responsible_persons -->
<g id="node13" class="node">
<title>responsible_persons</title>
<g id="a_node13"><a xlink:href="../../tables/responsible_persons.html" xlink:title="responsible_persons" target="_top">
<polygon fill="#ffffff" stroke="transparent" points="1548,-231.3339 1548,-292.3339 1692,-292.3339 1692,-231.3339 1548,-231.3339"/>
<polygon fill="#f5f5f5" stroke="transparent" points="1548,-268.8339 1548,-291.8339 1692,-291.8339 1692,-268.8339 1548,-268.8339"/>
<polygon fill="none" stroke="#000000" points="1548,-268.8339 1548,-291.8339 1692,-291.8339 1692,-268.8339 1548,-268.8339"/>
<text text-anchor="start" x="1552.7653" y="-277.9339" font-family="Helvetica,sans-Serif" font-weight="bold" font-size="11.00" fill="#000000">responsible_persons</text>
<text text-anchor="start" x="1657.5219" y="-276.9339" font-family="Helvetica,sans-Serif" font-size="11.00" fill="#000000">[table]</text>
<polygon fill="none" stroke="#000000" points="1548,-249.8339 1548,-268.8339 1692,-268.8339 1692,-249.8339 1548,-249.8339"/>
<text text-anchor="start" x="1551" y="-255.9339" font-family="Helvetica,sans-Serif" font-size="11.00" fill="#000000">...</text>
<polygon fill="#ffffff" stroke="transparent" points="1548,-230.8339 1548,-249.8339 1605,-249.8339 1605,-230.8339 1548,-230.8339"/>
<polygon fill="none" stroke="#000000" points="1548,-230.8339 1548,-249.8339 1605,-249.8339 1605,-230.8339 1548,-230.8339"/>
<text text-anchor="start" x="1551" y="-236.9339" font-family="Helvetica,sans-Serif" font-size="11.00" fill="#000000">&lt; 2</text>
<polygon fill="#ffffff" stroke="transparent" points="1605,-230.8339 1605,-249.8339 1661,-249.8339 1661,-230.8339 1605,-230.8339"/>
<polygon fill="none" stroke="#000000" points="1605,-230.8339 1605,-249.8339 1661,-249.8339 1661,-230.8339 1605,-230.8339"/>
<text text-anchor="start" x="1625.6105" y="-236.9339" font-family="Helvetica,sans-Serif" font-size="11.00" fill="#000000">0 rows</text>
<polygon fill="#ffffff" stroke="transparent" points="1661,-230.8339 1661,-249.8339 1692,-249.8339 1692,-230.8339 1661,-230.8339"/>
<polygon fill="none" stroke="#000000" points="1661,-230.8339 1661,-249.8339 1692,-249.8339 1692,-230.8339 1661,-230.8339"/>
<text text-anchor="start" x="1682.8862" y="-236.9339" font-family="Helvetica,sans-Serif" font-size="11.00" fill="#000000"> &#160;</text>
</a>
</g>
</g>
<!-- responsible_persons&#45;&gt;users -->
<g id="edge23" class="edge">
<title>responsible_persons:w&#45;&gt;users:e</title>
<path fill="none" stroke="#000000" d="M1533.7532,-255.5709C1511.1351,-241.8901 1537.8412,-188.6704 1507,-162.8339 1377.0848,-54.0007 1304.9775,-76.8339 1135.5,-76.8339 1135.5,-76.8339 1135.5,-76.8339 886.5,-76.8339 696.3981,-76.8339 608.0165,27.2033 459,-90.8339 404.8702,-133.7106 487.5539,-240.8339 418.5,-240.8339"/>
<polygon fill="#000000" stroke="#000000" points="1540.2019,-257.0478 1547.1963,-262.3431 1544.101,-257.9409 1548,-258.8339 1548,-258.8339 1548,-258.8339 1544.101,-257.9409 1548.8037,-255.3248 1540.2019,-257.0478 1540.2019,-257.0478"/>
<ellipse fill="none" stroke="#000000" cx="1537.0827" cy="-256.3334" rx="3.2" ry="3.2"/>
</g>
<!-- responsible_persons&#45;&gt;patients -->
<g id="edge22" class="edge">
<title>responsible_persons:w&#45;&gt;patients:e</title>
<path fill="none" stroke="#000000" d="M1533.4569,-261.2825C1479.1739,-282.9983 1577.4427,-441.8339 1499,-441.8339"/>
<polygon fill="#000000" stroke="#000000" points="1540.111,-260.1622 1548.5977,-262.384 1544.0555,-259.4981 1548,-258.8339 1548,-258.8339 1548,-258.8339 1544.0555,-259.4981 1547.4023,-255.2839 1540.111,-260.1622 1540.111,-260.1622"/>
<ellipse fill="none" stroke="#000000" cx="1536.9554" cy="-260.6935" rx="3.2" ry="3.2"/>
</g>
</g>
</svg>
