<?xml version="1.0" encoding="UTF-8" standalone="no"?>
<!DOCTYPE svg PUBLIC "-//W3C//DTD SVG 1.1//EN"
 "http://www.w3.org/Graphics/SVG/1.1/DTD/svg11.dtd">
<!-- Generated by graphviz version 2.40.1 (20161225.0304)
 -->
<!-- Title: twoDegreesRelationshipsDiagram Pages: 1 -->
<svg width="1423pt" height="555pt"
 viewBox="0.00 0.00 1423.00 555.11" xmlns="http://www.w3.org/2000/svg" xmlns:xlink="http://www.w3.org/1999/xlink">
<g id="graph0" class="graph" transform="scale(1 1) rotate(0) translate(4 551.1076)">
<title>twoDegreesRelationshipsDiagram</title>
<polygon fill="#ffffff" stroke="transparent" points="-4,4 -4,-551.1076 1419,-551.1076 1419,4 -4,4"/>
<text text-anchor="middle" x="72.4936" y="-7.3" font-family="Helvetica,sans-Serif" font-size="11.00" fill="#000000">Generated by SchemaSpy</text>
<!-- companies -->
<g id="node1" class="node">
<title>companies</title>
<g id="a_node1"><a xlink:href="../../tables/companies.html" xlink:title="companies" target="_top">
<polygon fill="#ffffff" stroke="transparent" points="467,-301.5085 467,-428.5085 644,-428.5085 644,-301.5085 467,-301.5085"/>
<polygon fill="#f5f5f5" stroke="transparent" points="467.5,-405.0085 467.5,-428.0085 644.5,-428.0085 644.5,-405.0085 467.5,-405.0085"/>
<polygon fill="none" stroke="#000000" points="467.5,-405.0085 467.5,-428.0085 644.5,-428.0085 644.5,-405.0085 467.5,-405.0085"/>
<text text-anchor="start" x="472.5" y="-414.1085" font-family="Helvetica,sans-Serif" font-weight="bold" font-size="11.00" fill="#000000">companies</text>
<text text-anchor="start" x="609.5437" y="-413.1085" font-family="Helvetica,sans-Serif" font-size="11.00" fill="#000000">[table]</text>
<polygon fill="none" stroke="#000000" points="467.5,-383.0085 467.5,-405.0085 644.5,-405.0085 644.5,-383.0085 467.5,-383.0085"/>
<image xlink:href="../../images/primaryKeys.png" width="11px" height="12px" preserveAspectRatio="xMinYMin meet" x="472.5" y="-400.008"/>
<text text-anchor="start" x="487.5" y="-390.1085" font-family="Helvetica,sans-Serif" font-size="11.00" fill="#000000">id</text>
<polygon fill="none" stroke="#000000" points="467.5,-361.0085 467.5,-383.0085 644.5,-383.0085 644.5,-361.0085 467.5,-361.0085"/>
<image xlink:href="../../images/foreignKeys.png" width="11px" height="12px" preserveAspectRatio="xMinYMin meet" x="472.5" y="-378.008"/>
<text text-anchor="start" x="487.5" y="-368.1085" font-family="Helvetica,sans-Serif" font-size="11.00" fill="#000000">physical_address_id</text>
<polygon fill="none" stroke="#000000" points="467.5,-339.0085 467.5,-361.0085 644.5,-361.0085 644.5,-339.0085 467.5,-339.0085"/>
<image xlink:href="../../images/foreignKeys.png" width="11px" height="12px" preserveAspectRatio="xMinYMin meet" x="472.5" y="-356.008"/>
<text text-anchor="start" x="487.5" y="-346.1085" font-family="Helvetica,sans-Serif" font-size="11.00" fill="#000000">created_by_user_id</text>
<polygon fill="none" stroke="#000000" points="467.5,-320.0085 467.5,-339.0085 644.5,-339.0085 644.5,-320.0085 467.5,-320.0085"/>
<text text-anchor="start" x="470.5" y="-326.1085" font-family="Helvetica,sans-Serif" font-size="11.00" fill="#000000">...</text>
<polygon fill="#ffffff" stroke="transparent" points="467.5,-301.0085 467.5,-320.0085 536.5,-320.0085 536.5,-301.0085 467.5,-301.0085"/>
<polygon fill="none" stroke="#000000" points="467.5,-301.0085 467.5,-320.0085 536.5,-320.0085 536.5,-301.0085 467.5,-301.0085"/>
<text text-anchor="start" x="470.5" y="-307.1085" font-family="Helvetica,sans-Serif" font-size="11.00" fill="#000000">&lt; 2</text>
<polygon fill="#ffffff" stroke="transparent" points="536.5,-301.0085 536.5,-320.0085 598.5,-320.0085 598.5,-301.0085 536.5,-301.0085"/>
<polygon fill="none" stroke="#000000" points="536.5,-301.0085 536.5,-320.0085 598.5,-320.0085 598.5,-301.0085 536.5,-301.0085"/>
<text text-anchor="start" x="563.1105" y="-307.1085" font-family="Helvetica,sans-Serif" font-size="11.00" fill="#000000">0 rows</text>
<polygon fill="#ffffff" stroke="transparent" points="598.5,-301.0085 598.5,-320.0085 644.5,-320.0085 644.5,-301.0085 598.5,-301.0085"/>
<polygon fill="none" stroke="#000000" points="598.5,-301.0085 598.5,-320.0085 644.5,-320.0085 644.5,-301.0085 598.5,-301.0085"/>
<text text-anchor="start" x="625.9053" y="-307.1085" font-family="Helvetica,sans-Serif" font-size="11.00" fill="#000000">4 &gt;</text>
</a>
</g>
</g>
<!-- users -->
<g id="node2" class="node">
<title>users</title>
<g id="a_node2"><a xlink:href="../../tables/users.html" xlink:title="users" target="_top">
<polygon fill="#ffffff" stroke="transparent" points="279,-81.5085 279,-230.5085 418,-230.5085 418,-81.5085 279,-81.5085"/>
<polygon fill="#f5f5f5" stroke="transparent" points="279.5,-207.0085 279.5,-230.0085 418.5,-230.0085 418.5,-207.0085 279.5,-207.0085"/>
<polygon fill="none" stroke="#000000" points="279.5,-207.0085 279.5,-230.0085 418.5,-230.0085 418.5,-207.0085 279.5,-207.0085"/>
<text text-anchor="start" x="284.5" y="-216.1085" font-family="Helvetica,sans-Serif" font-weight="bold" font-size="11.00" fill="#000000">users</text>
<text text-anchor="start" x="383.5437" y="-215.1085" font-family="Helvetica,sans-Serif" font-size="11.00" fill="#000000">[table]</text>
<polygon fill="none" stroke="#000000" points="279.5,-185.0085 279.5,-207.0085 418.5,-207.0085 418.5,-185.0085 279.5,-185.0085"/>
<image xlink:href="../../images/primaryKeys.png" width="11px" height="12px" preserveAspectRatio="xMinYMin meet" x="284.5" y="-202.008"/>
<text text-anchor="start" x="299.5" y="-192.1085" font-family="Helvetica,sans-Serif" font-size="11.00" fill="#000000">id</text>
<polygon fill="#ffffff" stroke="transparent" points="279.5,-163.0085 279.5,-185.0085 418.5,-185.0085 418.5,-163.0085 279.5,-163.0085"/>
<polygon fill="none" stroke="#000000" points="279.5,-163.0085 279.5,-185.0085 418.5,-185.0085 418.5,-163.0085 279.5,-163.0085"/>
<text text-anchor="start" x="299.5" y="-170.1085" font-family="Helvetica,sans-Serif" font-size="11.00" fill="#000000">email</text>
<polygon fill="#ffffff" stroke="transparent" points="279.5,-141.0085 279.5,-163.0085 418.5,-163.0085 418.5,-141.0085 279.5,-141.0085"/>
<polygon fill="none" stroke="#000000" points="279.5,-141.0085 279.5,-163.0085 418.5,-163.0085 418.5,-141.0085 279.5,-141.0085"/>
<text text-anchor="start" x="299.5" y="-148.1085" font-family="Helvetica,sans-Serif" font-size="11.00" fill="#000000">cognito_id</text>
<polygon fill="#ffffff" stroke="transparent" points="279.5,-119.0085 279.5,-141.0085 418.5,-141.0085 418.5,-119.0085 279.5,-119.0085"/>
<polygon fill="none" stroke="#000000" points="279.5,-119.0085 279.5,-141.0085 418.5,-141.0085 418.5,-119.0085 279.5,-119.0085"/>
<image xlink:href="../../images/foreignKeys.png" width="11px" height="12px" preserveAspectRatio="xMinYMin meet" x="284.5" y="-136.008"/>
<text text-anchor="start" x="299.5" y="-126.1085" font-family="Helvetica,sans-Serif" font-size="11.00" fill="#000000">profile_id</text>
<polygon fill="none" stroke="#000000" points="279.5,-100.0085 279.5,-119.0085 418.5,-119.0085 418.5,-100.0085 279.5,-100.0085"/>
<text text-anchor="start" x="282.5" y="-106.1085" font-family="Helvetica,sans-Serif" font-size="11.00" fill="#000000">...</text>
<polygon fill="#ffffff" stroke="transparent" points="279.5,-81.0085 279.5,-100.0085 329.5,-100.0085 329.5,-81.0085 279.5,-81.0085"/>
<polygon fill="none" stroke="#000000" points="279.5,-81.0085 279.5,-100.0085 329.5,-100.0085 329.5,-81.0085 279.5,-81.0085"/>
<text text-anchor="start" x="282.5" y="-87.1085" font-family="Helvetica,sans-Serif" font-size="11.00" fill="#000000">&lt; 1</text>
<polygon fill="#ffffff" stroke="transparent" points="329.5,-81.0085 329.5,-100.0085 382.5,-100.0085 382.5,-81.0085 329.5,-81.0085"/>
<polygon fill="none" stroke="#000000" points="329.5,-81.0085 329.5,-100.0085 382.5,-100.0085 382.5,-81.0085 329.5,-81.0085"/>
<text text-anchor="start" x="347.1105" y="-87.1085" font-family="Helvetica,sans-Serif" font-size="11.00" fill="#000000">0 rows</text>
<polygon fill="#ffffff" stroke="transparent" points="382.5,-81.0085 382.5,-100.0085 418.5,-100.0085 418.5,-81.0085 382.5,-81.0085"/>
<polygon fill="none" stroke="#000000" points="382.5,-81.0085 382.5,-100.0085 418.5,-100.0085 418.5,-81.0085 382.5,-81.0085"/>
<text text-anchor="start" x="399.9053" y="-87.1085" font-family="Helvetica,sans-Serif" font-size="11.00" fill="#000000">8 &gt;</text>
</a>
</g>
</g>
<!-- companies&#45;&gt;users -->
<g id="edge1" class="edge">
<title>companies:w&#45;&gt;users:e</title>
<path fill="none" stroke="#000000" d="M453.2767,-347.204C409.7659,-326.3319 484.5739,-196.0085 418.5,-196.0085"/>
<polygon fill="#000000" stroke="#000000" points="459.6511,-348.4609 466.8036,-353.5405 463.5756,-349.2347 467.5,-350.0085 467.5,-350.0085 467.5,-350.0085 463.5756,-349.2347 468.1964,-346.4765 459.6511,-348.4609 459.6511,-348.4609"/>
<ellipse fill="none" stroke="#000000" cx="456.5116" cy="-347.8418" rx="3.2" ry="3.2"/>
</g>
<!-- addresses -->
<g id="node3" class="node">
<title>addresses</title>
<g id="a_node3"><a xlink:href="../../tables/addresses.html" xlink:title="addresses" target="_top">
<polygon fill="#ffffff" stroke="transparent" points="8,-344.5085 8,-405.5085 101,-405.5085 101,-344.5085 8,-344.5085"/>
<polygon fill="#f5f5f5" stroke="transparent" points="8.5,-382.0085 8.5,-405.0085 101.5,-405.0085 101.5,-382.0085 8.5,-382.0085"/>
<polygon fill="none" stroke="#000000" points="8.5,-382.0085 8.5,-405.0085 101.5,-405.0085 101.5,-382.0085 8.5,-382.0085"/>
<text text-anchor="start" x="13.1318" y="-391.1085" font-family="Helvetica,sans-Serif" font-weight="bold" font-size="11.00" fill="#000000">addresses</text>
<text text-anchor="start" x="67.0219" y="-390.1085" font-family="Helvetica,sans-Serif" font-size="11.00" fill="#000000">[table]</text>
<polygon fill="none" stroke="#000000" points="8.5,-363.0085 8.5,-382.0085 101.5,-382.0085 101.5,-363.0085 8.5,-363.0085"/>
<text text-anchor="start" x="11.5" y="-369.1085" font-family="Helvetica,sans-Serif" font-size="11.00" fill="#000000">...</text>
<polygon fill="#ffffff" stroke="transparent" points="8.5,-344.0085 8.5,-363.0085 31.5,-363.0085 31.5,-344.0085 8.5,-344.0085"/>
<polygon fill="none" stroke="#000000" points="8.5,-344.0085 8.5,-363.0085 31.5,-363.0085 31.5,-344.0085 8.5,-344.0085"/>
<text text-anchor="start" x="11.5" y="-350.1085" font-family="Helvetica,sans-Serif" font-size="11.00" fill="#000000"> &#160;</text>
<polygon fill="#ffffff" stroke="transparent" points="31.5,-344.0085 31.5,-363.0085 74.5,-363.0085 74.5,-344.0085 31.5,-344.0085"/>
<polygon fill="none" stroke="#000000" points="31.5,-344.0085 31.5,-363.0085 74.5,-363.0085 74.5,-344.0085 31.5,-344.0085"/>
<text text-anchor="start" x="39.1105" y="-350.1085" font-family="Helvetica,sans-Serif" font-size="11.00" fill="#000000">0 rows</text>
<polygon fill="#ffffff" stroke="transparent" points="74.5,-344.0085 74.5,-363.0085 101.5,-363.0085 101.5,-344.0085 74.5,-344.0085"/>
<polygon fill="none" stroke="#000000" points="74.5,-344.0085 74.5,-363.0085 101.5,-363.0085 101.5,-344.0085 74.5,-344.0085"/>
<text text-anchor="start" x="82.9053" y="-350.1085" font-family="Helvetica,sans-Serif" font-size="11.00" fill="#000000">3 &gt;</text>
</a>
</g>
</g>
<!-- companies&#45;&gt;addresses -->
<g id="edge2" class="edge">
<title>companies:w&#45;&gt;addresses:e</title>
<path fill="none" stroke="#000000" d="M453.0552,-372.0085C302.2593,-372.0085 259.2422,-372.0085 101.5,-372.0085"/>
<polygon fill="#000000" stroke="#000000" points="459.5,-372.0085 467.5,-375.6085 463.5,-372.0085 467.5,-372.0085 467.5,-372.0085 467.5,-372.0085 463.5,-372.0085 467.5,-368.4085 459.5,-372.0085 459.5,-372.0085"/>
<ellipse fill="none" stroke="#000000" cx="456.3" cy="-372.0085" rx="3.2" ry="3.2"/>
</g>
<!-- profiles -->
<g id="node9" class="node">
<title>profiles</title>
<g id="a_node9"><a xlink:href="../../tables/profiles.html" xlink:title="profiles" target="_top">
<polygon fill="#ffffff" stroke="transparent" points="150,-102.5085 150,-163.5085 230,-163.5085 230,-102.5085 150,-102.5085"/>
<polygon fill="#f5f5f5" stroke="transparent" points="150,-140.0085 150,-163.0085 230,-163.0085 230,-140.0085 150,-140.0085"/>
<polygon fill="none" stroke="#000000" points="150,-140.0085 150,-163.0085 230,-163.0085 230,-140.0085 150,-140.0085"/>
<text text-anchor="start" x="155" y="-149.1085" font-family="Helvetica,sans-Serif" font-weight="bold" font-size="11.00" fill="#000000">profiles</text>
<text text-anchor="start" x="195.0437" y="-148.1085" font-family="Helvetica,sans-Serif" font-size="11.00" fill="#000000">[table]</text>
<polygon fill="none" stroke="#000000" points="150,-121.0085 150,-140.0085 230,-140.0085 230,-121.0085 150,-121.0085"/>
<text text-anchor="start" x="153" y="-127.1085" font-family="Helvetica,sans-Serif" font-size="11.00" fill="#000000">...</text>
<polygon fill="#ffffff" stroke="transparent" points="150,-102.0085 150,-121.0085 171,-121.0085 171,-102.0085 150,-102.0085"/>
<polygon fill="none" stroke="#000000" points="150,-102.0085 150,-121.0085 171,-121.0085 171,-102.0085 150,-102.0085"/>
<text text-anchor="start" x="152.7027" y="-108.1085" font-family="Helvetica,sans-Serif" font-size="11.00" fill="#000000">&lt; 3</text>
<polygon fill="#ffffff" stroke="transparent" points="171,-102.0085 171,-121.0085 209,-121.0085 209,-102.0085 171,-102.0085"/>
<polygon fill="none" stroke="#000000" points="171,-102.0085 171,-121.0085 209,-121.0085 209,-102.0085 171,-102.0085"/>
<text text-anchor="start" x="173.8053" y="-108.1085" font-family="Helvetica,sans-Serif" font-size="11.00" fill="#000000">0 rows</text>
<polygon fill="#ffffff" stroke="transparent" points="209,-102.0085 209,-121.0085 230,-121.0085 230,-102.0085 209,-102.0085"/>
<polygon fill="none" stroke="#000000" points="209,-102.0085 209,-121.0085 230,-121.0085 230,-102.0085 209,-102.0085"/>
<text text-anchor="start" x="211.7027" y="-108.1085" font-family="Helvetica,sans-Serif" font-size="11.00" fill="#000000">2 &gt;</text>
</a>
</g>
</g>
<!-- users&#45;&gt;profiles -->
<g id="edge21" class="edge">
<title>users:w&#45;&gt;profiles:e</title>
<path fill="none" stroke="#000000" d="M269.0474,-130.0085C254.9907,-130.0085 248.0469,-130.0085 230,-130.0085"/>
<polygon fill="#000000" stroke="#000000" points="278.7,-126.0085 278.7,-134.0085 277.1,-134.0085 277.1,-126.0085 278.7,-126.0085"/>
<polyline fill="none" stroke="#000000" points="279.5,-130.0085 275.5,-130.0085 "/>
<ellipse fill="none" stroke="#000000" cx="272.3" cy="-130.0085" rx="3.2" ry="3.2"/>
</g>
<!-- company_doing_business_as -->
<g id="node4" class="node">
<title>company_doing_business_as</title>
<g id="a_node4"><a xlink:href="../../tables/company_doing_business_as.html" xlink:title="company_doing_business_as" target="_top">
<polygon fill="#ffffff" stroke="transparent" points="704.5,-418.5085 704.5,-479.5085 891.5,-479.5085 891.5,-418.5085 704.5,-418.5085"/>
<polygon fill="#f5f5f5" stroke="transparent" points="705,-456.0085 705,-479.0085 892,-479.0085 892,-456.0085 705,-456.0085"/>
<polygon fill="none" stroke="#000000" points="705,-456.0085 705,-479.0085 892,-479.0085 892,-456.0085 705,-456.0085"/>
<text text-anchor="start" x="709.559" y="-465.1085" font-family="Helvetica,sans-Serif" font-weight="bold" font-size="11.00" fill="#000000">company_doing_business_as</text>
<text text-anchor="start" x="857.5219" y="-464.1085" font-family="Helvetica,sans-Serif" font-size="11.00" fill="#000000">[table]</text>
<polygon fill="none" stroke="#000000" points="705,-437.0085 705,-456.0085 892,-456.0085 892,-437.0085 705,-437.0085"/>
<text text-anchor="start" x="708" y="-443.1085" font-family="Helvetica,sans-Serif" font-size="11.00" fill="#000000">...</text>
<polygon fill="#ffffff" stroke="transparent" points="705,-418.0085 705,-437.0085 779,-437.0085 779,-418.0085 705,-418.0085"/>
<polygon fill="none" stroke="#000000" points="705,-418.0085 705,-437.0085 779,-437.0085 779,-418.0085 705,-418.0085"/>
<text text-anchor="start" x="708" y="-424.1085" font-family="Helvetica,sans-Serif" font-size="11.00" fill="#000000">&lt; 1</text>
<polygon fill="#ffffff" stroke="transparent" points="779,-418.0085 779,-437.0085 844,-437.0085 844,-418.0085 779,-418.0085"/>
<polygon fill="none" stroke="#000000" points="779,-418.0085 779,-437.0085 844,-437.0085 844,-418.0085 779,-418.0085"/>
<text text-anchor="start" x="808.6105" y="-424.1085" font-family="Helvetica,sans-Serif" font-size="11.00" fill="#000000">0 rows</text>
<polygon fill="#ffffff" stroke="transparent" points="844,-418.0085 844,-437.0085 892,-437.0085 892,-418.0085 844,-418.0085"/>
<polygon fill="none" stroke="#000000" points="844,-418.0085 844,-437.0085 892,-437.0085 892,-418.0085 844,-418.0085"/>
<text text-anchor="start" x="873.4053" y="-424.1085" font-family="Helvetica,sans-Serif" font-size="11.00" fill="#000000">1 &gt;</text>
</a>
</g>
</g>
<!-- company_doing_business_as&#45;&gt;companies -->
<g id="edge3" class="edge">
<title>company_doing_business_as:w&#45;&gt;companies:e</title>
<path fill="none" stroke="#000000" d="M690.8477,-442.2688C671.7258,-430.3456 674.1391,-394.0085 644.5,-394.0085"/>
<polygon fill="#000000" stroke="#000000" points="697.2655,-443.9646 704.0803,-449.489 701.1327,-444.9865 705,-446.0085 705,-446.0085 705,-446.0085 701.1327,-444.9865 705.9197,-442.5279 697.2655,-443.9646 697.2655,-443.9646"/>
<ellipse fill="none" stroke="#000000" cx="694.1717" cy="-443.1471" rx="3.2" ry="3.2"/>
</g>
<!-- company_users -->
<g id="node5" class="node">
<title>company_users</title>
<g id="a_node5"><a xlink:href="../../tables/company_users.html" xlink:title="company_users" target="_top">
<polygon fill="#ffffff" stroke="transparent" points="693,-258.0085 693,-370.0085 903,-370.0085 903,-258.0085 693,-258.0085"/>
<polygon fill="#f5f5f5" stroke="transparent" points="695,-345.0085 695,-368.0085 901,-368.0085 901,-345.0085 695,-345.0085"/>
<polygon fill="none" stroke="#000000" points="695,-345.0085 695,-368.0085 901,-368.0085 901,-345.0085 695,-345.0085"/>
<text text-anchor="start" x="700" y="-354.1085" font-family="Helvetica,sans-Serif" font-weight="bold" font-size="11.00" fill="#000000">company_users</text>
<text text-anchor="start" x="866.0437" y="-353.1085" font-family="Helvetica,sans-Serif" font-size="11.00" fill="#000000">[table]</text>
<polygon fill="none" stroke="#000000" points="695,-323.0085 695,-345.0085 807,-345.0085 807,-323.0085 695,-323.0085"/>
<image xlink:href="../../images/primaryKeys.png" width="11px" height="12px" preserveAspectRatio="xMinYMin meet" x="700" y="-340.008"/>
<text text-anchor="start" x="715" y="-330.1085" font-family="Helvetica,sans-Serif" font-size="11.00" fill="#000000">company_id</text>
<polygon fill="none" stroke="#000000" points="807,-323.0085 807,-345.0085 901,-345.0085 901,-323.0085 807,-323.0085"/>
<text text-anchor="start" x="809.9758" y="-330.7085" font-family="Helvetica,sans-Serif" font-size="11.00" fill="#000000">uuid[2147483647]</text>
<polygon fill="none" stroke="#000000" points="695,-301.0085 695,-323.0085 807,-323.0085 807,-301.0085 695,-301.0085"/>
<image xlink:href="../../images/primaryKeys.png" width="11px" height="12px" preserveAspectRatio="xMinYMin meet" x="700" y="-318.008"/>
<text text-anchor="start" x="715" y="-308.1085" font-family="Helvetica,sans-Serif" font-size="11.00" fill="#000000">user_id</text>
<polygon fill="none" stroke="#000000" points="807,-301.0085 807,-323.0085 901,-323.0085 901,-301.0085 807,-301.0085"/>
<text text-anchor="start" x="809.9758" y="-308.7085" font-family="Helvetica,sans-Serif" font-size="11.00" fill="#000000">uuid[2147483647]</text>
<polygon fill="none" stroke="#000000" points="695,-279.0085 695,-301.0085 807,-301.0085 807,-279.0085 695,-279.0085"/>
<image xlink:href="../../images/primaryKeys.png" width="11px" height="12px" preserveAspectRatio="xMinYMin meet" x="700" y="-296.008"/>
<text text-anchor="start" x="715" y="-286.1085" font-family="Helvetica,sans-Serif" font-size="11.00" fill="#000000">role</text>
<polygon fill="none" stroke="#000000" points="807,-279.0085 807,-301.0085 901,-301.0085 901,-279.0085 807,-279.0085"/>
<text text-anchor="start" x="810" y="-286.7085" font-family="Helvetica,sans-Serif" font-size="11.00" fill="#000000">text[2147483647]</text>
<polygon fill="#ffffff" stroke="transparent" points="695,-260.0085 695,-279.0085 742,-279.0085 742,-260.0085 695,-260.0085"/>
<polygon fill="none" stroke="#000000" points="695,-260.0085 695,-279.0085 742,-279.0085 742,-260.0085 695,-260.0085"/>
<text text-anchor="start" x="698" y="-266.1085" font-family="Helvetica,sans-Serif" font-size="11.00" fill="#000000">&lt; 2</text>
<polygon fill="#ffffff" stroke="transparent" points="742,-260.0085 742,-279.0085 807,-279.0085 807,-260.0085 742,-260.0085"/>
<polygon fill="none" stroke="#000000" points="742,-260.0085 742,-279.0085 807,-279.0085 807,-260.0085 742,-260.0085"/>
<text text-anchor="start" x="771.6105" y="-266.1085" font-family="Helvetica,sans-Serif" font-size="11.00" fill="#000000">0 rows</text>
<polygon fill="#ffffff" stroke="transparent" points="807,-260.0085 807,-279.0085 901,-279.0085 901,-260.0085 807,-260.0085"/>
<polygon fill="none" stroke="#000000" points="807,-260.0085 807,-279.0085 901,-279.0085 901,-260.0085 807,-260.0085"/>
<text text-anchor="start" x="882.4053" y="-266.1085" font-family="Helvetica,sans-Serif" font-size="11.00" fill="#000000">0 &gt;</text>
<polygon fill="none" stroke="#000000" stroke-width="2" points="694,-259.0085 694,-369.0085 902,-369.0085 902,-259.0085 694,-259.0085"/>
</a>
</g>
</g>
<!-- company_users&#45;&gt;companies -->
<g id="edge4" class="edge">
<title>company_users:w&#45;&gt;companies:e</title>
<path fill="none" stroke="#000000" d="M681.2703,-338.7166C665.1513,-352.861 673.3642,-394.0085 644.5,-394.0085"/>
<polygon fill="#000000" stroke="#000000" points="687.4326,-336.6035 696.1678,-337.4138 691.2163,-335.306 695,-334.0085 695,-334.0085 695,-334.0085 691.2163,-335.306 693.8322,-330.6031 687.4326,-336.6035 687.4326,-336.6035"/>
<ellipse fill="none" stroke="#000000" cx="684.4056" cy="-337.6415" rx="3.2" ry="3.2"/>
</g>
<!-- company_users&#45;&gt;users -->
<g id="edge5" class="edge">
<title>company_users:w&#45;&gt;users:e</title>
<path fill="none" stroke="#000000" d="M680.8505,-309.1917C671.314,-304.778 666.3777,-296.2012 652,-291.0085 568.965,-261.019 534.0607,-290.485 459,-244.0085 435.2684,-229.3142 446.4126,-196.0085 418.5,-196.0085"/>
<polygon fill="#000000" stroke="#000000" points="687.154,-310.4465 694.2971,-315.5392 691.077,-311.2275 695,-312.0085 695,-312.0085 695,-312.0085 691.077,-311.2275 695.7029,-308.4777 687.154,-310.4465 687.154,-310.4465"/>
<ellipse fill="none" stroke="#000000" cx="684.0155" cy="-309.8217" rx="3.2" ry="3.2"/>
</g>
<!-- feedback -->
<g id="node6" class="node">
<title>feedback</title>
<g id="a_node6"><a xlink:href="../../tables/feedback.html" xlink:title="feedback" target="_top">
<polygon fill="#ffffff" stroke="transparent" points="512,-121.5085 512,-182.5085 599,-182.5085 599,-121.5085 512,-121.5085"/>
<polygon fill="#f5f5f5" stroke="transparent" points="512.5,-159.0085 512.5,-182.0085 599.5,-182.0085 599.5,-159.0085 512.5,-159.0085"/>
<polygon fill="none" stroke="#000000" points="512.5,-159.0085 512.5,-182.0085 599.5,-182.0085 599.5,-159.0085 512.5,-159.0085"/>
<text text-anchor="start" x="517.1843" y="-168.1085" font-family="Helvetica,sans-Serif" font-weight="bold" font-size="11.00" fill="#000000">feedback</text>
<text text-anchor="start" x="565.0219" y="-167.1085" font-family="Helvetica,sans-Serif" font-size="11.00" fill="#000000">[table]</text>
<polygon fill="none" stroke="#000000" points="512.5,-140.0085 512.5,-159.0085 599.5,-159.0085 599.5,-140.0085 512.5,-140.0085"/>
<text text-anchor="start" x="515.5" y="-146.1085" font-family="Helvetica,sans-Serif" font-size="11.00" fill="#000000">...</text>
<polygon fill="#ffffff" stroke="transparent" points="512.5,-121.0085 512.5,-140.0085 541.5,-140.0085 541.5,-121.0085 512.5,-121.0085"/>
<polygon fill="none" stroke="#000000" points="512.5,-121.0085 512.5,-140.0085 541.5,-140.0085 541.5,-121.0085 512.5,-121.0085"/>
<text text-anchor="start" x="515.5" y="-127.1085" font-family="Helvetica,sans-Serif" font-size="11.00" fill="#000000">&lt; 1</text>
<polygon fill="#ffffff" stroke="transparent" points="541.5,-121.0085 541.5,-140.0085 583.5,-140.0085 583.5,-121.0085 541.5,-121.0085"/>
<polygon fill="none" stroke="#000000" points="541.5,-121.0085 541.5,-140.0085 583.5,-140.0085 583.5,-121.0085 541.5,-121.0085"/>
<text text-anchor="start" x="548.1105" y="-127.1085" font-family="Helvetica,sans-Serif" font-size="11.00" fill="#000000">0 rows</text>
<polygon fill="#ffffff" stroke="transparent" points="583.5,-121.0085 583.5,-140.0085 599.5,-140.0085 599.5,-121.0085 583.5,-121.0085"/>
<polygon fill="none" stroke="#000000" points="583.5,-121.0085 583.5,-140.0085 599.5,-140.0085 599.5,-121.0085 583.5,-121.0085"/>
<text text-anchor="start" x="590.3862" y="-127.1085" font-family="Helvetica,sans-Serif" font-size="11.00" fill="#000000"> &#160;</text>
</a>
</g>
</g>
<!-- feedback&#45;&gt;users -->
<g id="edge6" class="edge">
<title>feedback:w&#45;&gt;users:e</title>
<path fill="none" stroke="#000000" d="M497.8308,-150.7935C465.0211,-159.3786 459.7353,-196.0085 418.5,-196.0085"/>
<polygon fill="#000000" stroke="#000000" points="504.5586,-149.9749 512.9349,-152.5821 508.5293,-149.4917 512.5,-149.0085 512.5,-149.0085 512.5,-149.0085 508.5293,-149.4917 512.0651,-145.4348 504.5586,-149.9749 504.5586,-149.9749"/>
<ellipse fill="none" stroke="#000000" cx="501.382" cy="-150.3615" rx="3.2" ry="3.2"/>
</g>
<!-- patients -->
<g id="node7" class="node">
<title>patients</title>
<g id="a_node7"><a xlink:href="../../tables/patients.html" xlink:title="patients" target="_top">
<polygon fill="#ffffff" stroke="transparent" points="1133,-89.5085 1133,-150.5085 1214,-150.5085 1214,-89.5085 1133,-89.5085"/>
<polygon fill="#f5f5f5" stroke="transparent" points="1133.5,-127.0085 1133.5,-150.0085 1214.5,-150.0085 1214.5,-127.0085 1133.5,-127.0085"/>
<polygon fill="none" stroke="#000000" points="1133.5,-127.0085 1133.5,-150.0085 1214.5,-150.0085 1214.5,-127.0085 1133.5,-127.0085"/>
<text text-anchor="start" x="1138.2429" y="-136.1085" font-family="Helvetica,sans-Serif" font-weight="bold" font-size="11.00" fill="#000000">patients</text>
<text text-anchor="start" x="1180.0219" y="-135.1085" font-family="Helvetica,sans-Serif" font-size="11.00" fill="#000000">[table]</text>
<polygon fill="none" stroke="#000000" points="1133.5,-108.0085 1133.5,-127.0085 1214.5,-127.0085 1214.5,-108.0085 1133.5,-108.0085"/>
<text text-anchor="start" x="1136.5" y="-114.1085" font-family="Helvetica,sans-Serif" font-size="11.00" fill="#000000">...</text>
<polygon fill="#ffffff" stroke="transparent" points="1133.5,-89.0085 1133.5,-108.0085 1154.5,-108.0085 1154.5,-89.0085 1133.5,-89.0085"/>
<polygon fill="none" stroke="#000000" points="1133.5,-89.0085 1133.5,-108.0085 1154.5,-108.0085 1154.5,-89.0085 1133.5,-89.0085"/>
<text text-anchor="start" x="1136.2027" y="-95.1085" font-family="Helvetica,sans-Serif" font-size="11.00" fill="#000000">&lt; 9</text>
<polygon fill="#ffffff" stroke="transparent" points="1154.5,-89.0085 1154.5,-108.0085 1192.5,-108.0085 1192.5,-89.0085 1154.5,-89.0085"/>
<polygon fill="none" stroke="#000000" points="1154.5,-89.0085 1154.5,-108.0085 1192.5,-108.0085 1192.5,-89.0085 1154.5,-89.0085"/>
<text text-anchor="start" x="1157.3052" y="-95.1085" font-family="Helvetica,sans-Serif" font-size="11.00" fill="#000000">0 rows</text>
<polygon fill="#ffffff" stroke="transparent" points="1192.5,-89.0085 1192.5,-108.0085 1214.5,-108.0085 1214.5,-89.0085 1192.5,-89.0085"/>
<polygon fill="none" stroke="#000000" points="1192.5,-89.0085 1192.5,-108.0085 1214.5,-108.0085 1214.5,-89.0085 1192.5,-89.0085"/>
<text text-anchor="start" x="1195.9053" y="-95.1085" font-family="Helvetica,sans-Serif" font-size="11.00" fill="#000000">2 &gt;</text>
</a>
</g>
</g>
<!-- patients&#45;&gt;companies -->
<g id="edge8" class="edge">
<title>patients:w&#45;&gt;companies:e</title>
<path fill="none" stroke="#000000" d="M1119.3412,-120.0777C1100.15,-130.7222 1111.2125,-166.8299 1092,-193.0085 1023.3753,-286.5151 1016.5936,-333.0207 911,-381.0085 803.0403,-430.0715 763.0853,-394.0085 644.5,-394.0085"/>
<polygon fill="#000000" stroke="#000000" points="1125.6816,-118.7033 1134.2627,-120.5268 1129.5908,-117.8559 1133.5,-117.0085 1133.5,-117.0085 1133.5,-117.0085 1129.5908,-117.8559 1132.7373,-113.4902 1125.6816,-118.7033 1125.6816,-118.7033"/>
<ellipse fill="none" stroke="#000000" cx="1122.5542" cy="-119.3812" rx="3.2" ry="3.2"/>
</g>
<!-- patients&#45;&gt;users -->
<g id="edge7" class="edge">
<title>patients:w&#45;&gt;users:e</title>
<path fill="none" stroke="#000000" d="M1119.0696,-115.8357C1110.6563,-114.3624 1104.6342,-111.9171 1092,-111.0085 951.6957,-100.9184 577.9503,-35.9222 459,-111.0085 423.6135,-133.3458 460.3469,-196.0085 418.5,-196.0085"/>
<polygon fill="#000000" stroke="#000000" points="1125.5263,-116.3604 1133.2084,-120.5966 1129.5131,-116.6844 1133.5,-117.0085 1133.5,-117.0085 1133.5,-117.0085 1129.5131,-116.6844 1133.7916,-113.4203 1125.5263,-116.3604 1125.5263,-116.3604"/>
<ellipse fill="none" stroke="#000000" cx="1122.3368" cy="-116.1012" rx="3.2" ry="3.2"/>
</g>
<!-- patients&#45;&gt;users -->
<g id="edge9" class="edge">
<title>patients:w&#45;&gt;users:e</title>
<path fill="none" stroke="#000000" d="M1119.7043,-112.6676C1110.9579,-110.1638 1104.8358,-109.3176 1092,-109.0085 951.3741,-105.6219 578.6582,-35.0556 459,-109.0085 424.762,-130.1687 458.7492,-190.0085 418.5,-196.0085"/>
<polygon fill="#000000" stroke="#000000" points="1125.8688,-114.6073 1132.4195,-120.4425 1129.6844,-115.8079 1133.5,-117.0085 1133.5,-117.0085 1133.5,-117.0085 1129.6844,-115.8079 1134.5805,-113.5744 1125.8688,-114.6073 1125.8688,-114.6073"/>
<ellipse fill="none" stroke="#000000" cx="1122.8164" cy="-113.6468" rx="3.2" ry="3.2"/>
</g>
<!-- patients&#45;&gt;users -->
<g id="edge13" class="edge">
<title>patients:w&#45;&gt;users:e</title>
<path fill="none" stroke="#000000" d="M1119.7043,-121.2976C1110.9579,-123.1638 1104.8358,-122.3176 1092,-122.0085 951.3741,-118.6219 578.6582,-48.0556 459,-122.0085 424.762,-143.1687 458.7492,-203.0085 418.5,-196.0085"/>
<polygon fill="#000000" stroke="#000000" points="1125.8607,-119.3836 1134.5688,-120.4462 1129.6803,-118.196 1133.5,-117.0085 1133.5,-117.0085 1133.5,-117.0085 1129.6803,-118.196 1132.4312,-113.5708 1125.8607,-119.3836 1125.8607,-119.3836"/>
<ellipse fill="none" stroke="#000000" cx="1122.805" cy="-120.3337" rx="3.2" ry="3.2"/>
</g>
<!-- professionals -->
<g id="node8" class="node">
<title>professionals</title>
<g id="a_node8"><a xlink:href="../../tables/professionals.html" xlink:title="professionals" target="_top">
<polygon fill="#ffffff" stroke="transparent" points="964.5,-121.5085 964.5,-182.5085 1071.5,-182.5085 1071.5,-121.5085 964.5,-121.5085"/>
<polygon fill="#f5f5f5" stroke="transparent" points="965,-159.0085 965,-182.0085 1072,-182.0085 1072,-159.0085 965,-159.0085"/>
<polygon fill="none" stroke="#000000" points="965,-159.0085 965,-182.0085 1072,-182.0085 1072,-159.0085 965,-159.0085"/>
<text text-anchor="start" x="969.605" y="-168.1085" font-family="Helvetica,sans-Serif" font-weight="bold" font-size="11.00" fill="#000000">professionals</text>
<text text-anchor="start" x="1037.5219" y="-167.1085" font-family="Helvetica,sans-Serif" font-size="11.00" fill="#000000">[table]</text>
<polygon fill="none" stroke="#000000" points="965,-140.0085 965,-159.0085 1072,-159.0085 1072,-140.0085 965,-140.0085"/>
<text text-anchor="start" x="968" y="-146.1085" font-family="Helvetica,sans-Serif" font-size="11.00" fill="#000000">...</text>
<polygon fill="#ffffff" stroke="transparent" points="965,-121.0085 965,-140.0085 999,-140.0085 999,-121.0085 965,-121.0085"/>
<polygon fill="none" stroke="#000000" points="965,-121.0085 965,-140.0085 999,-140.0085 999,-121.0085 965,-121.0085"/>
<text text-anchor="start" x="968" y="-127.1085" font-family="Helvetica,sans-Serif" font-size="11.00" fill="#000000">&lt; 2</text>
<polygon fill="#ffffff" stroke="transparent" points="999,-121.0085 999,-140.0085 1044,-140.0085 1044,-121.0085 999,-121.0085"/>
<polygon fill="none" stroke="#000000" points="999,-121.0085 999,-140.0085 1044,-140.0085 1044,-121.0085 999,-121.0085"/>
<text text-anchor="start" x="1008.6105" y="-127.1085" font-family="Helvetica,sans-Serif" font-size="11.00" fill="#000000">0 rows</text>
<polygon fill="#ffffff" stroke="transparent" points="1044,-121.0085 1044,-140.0085 1072,-140.0085 1072,-121.0085 1044,-121.0085"/>
<polygon fill="none" stroke="#000000" points="1044,-121.0085 1044,-140.0085 1072,-140.0085 1072,-121.0085 1044,-121.0085"/>
<text text-anchor="start" x="1053.4053" y="-127.1085" font-family="Helvetica,sans-Serif" font-size="11.00" fill="#000000">2 &gt;</text>
</a>
</g>
</g>
<!-- patients&#45;&gt;professionals -->
<g id="edge10" class="edge">
<title>patients:w&#45;&gt;professionals:e</title>
<path fill="none" stroke="#000000" d="M1119.2747,-119.8483C1101.6908,-127.6799 1097.1552,-149.0085 1072,-149.0085"/>
<polygon fill="#000000" stroke="#000000" points="1125.6548,-118.5746 1134.2048,-120.5388 1129.5774,-117.7916 1133.5,-117.0085 1133.5,-117.0085 1133.5,-117.0085 1129.5774,-117.7916 1132.7952,-113.4781 1125.6548,-118.5746 1125.6548,-118.5746"/>
<ellipse fill="none" stroke="#000000" cx="1122.5167" cy="-119.2011" rx="3.2" ry="3.2"/>
</g>
<!-- patients&#45;&gt;profiles -->
<g id="edge11" class="edge">
<title>patients:w&#45;&gt;profiles:e</title>
<path fill="none" stroke="#000000" d="M1119.1855,-114.3216C1110.5314,-110.6035 1105.2991,-103.9079 1092,-100.0085 964.5147,-62.6282 930.8525,-46.0085 798,-46.0085 798,-46.0085 798,-46.0085 555.5,-46.0085 428.5683,-46.0085 380.8008,-7.3261 271,-71.0085 243.3776,-87.029 261.932,-130.0085 230,-130.0085"/>
<polygon fill="#000000" stroke="#000000" points="1125.6373,-115.5326 1132.8359,-120.5467 1129.5687,-116.2705 1133.5,-117.0085 1133.5,-117.0085 1133.5,-117.0085 1129.5687,-116.2705 1134.1641,-113.4703 1125.6373,-115.5326 1125.6373,-115.5326"/>
<ellipse fill="none" stroke="#000000" cx="1122.4922" cy="-114.9422" rx="3.2" ry="3.2"/>
</g>
<!-- provider_locations -->
<g id="node10" class="node">
<title>provider_locations</title>
<g id="a_node10"><a xlink:href="../../tables/provider_locations.html" xlink:title="provider_locations" target="_top">
<polygon fill="#ffffff" stroke="transparent" points="952,-447.5085 952,-508.5085 1084,-508.5085 1084,-447.5085 952,-447.5085"/>
<polygon fill="#f5f5f5" stroke="transparent" points="952,-485.0085 952,-508.0085 1084,-508.0085 1084,-485.0085 952,-485.0085"/>
<polygon fill="none" stroke="#000000" points="952,-485.0085 952,-508.0085 1084,-508.0085 1084,-485.0085 952,-485.0085"/>
<text text-anchor="start" x="956.8813" y="-494.1085" font-family="Helvetica,sans-Serif" font-weight="bold" font-size="11.00" fill="#000000">provider_locations</text>
<text text-anchor="start" x="1049.5219" y="-493.1085" font-family="Helvetica,sans-Serif" font-size="11.00" fill="#000000">[table]</text>
<polygon fill="none" stroke="#000000" points="952,-466.0085 952,-485.0085 1084,-485.0085 1084,-466.0085 952,-466.0085"/>
<text text-anchor="start" x="955" y="-472.1085" font-family="Helvetica,sans-Serif" font-size="11.00" fill="#000000">...</text>
<polygon fill="#ffffff" stroke="transparent" points="952,-447.0085 952,-466.0085 999,-466.0085 999,-447.0085 952,-447.0085"/>
<polygon fill="none" stroke="#000000" points="952,-447.0085 952,-466.0085 999,-466.0085 999,-447.0085 952,-447.0085"/>
<text text-anchor="start" x="955" y="-453.1085" font-family="Helvetica,sans-Serif" font-size="11.00" fill="#000000">&lt; 3</text>
<polygon fill="#ffffff" stroke="transparent" points="999,-447.0085 999,-466.0085 1050,-466.0085 1050,-447.0085 999,-447.0085"/>
<polygon fill="none" stroke="#000000" points="999,-447.0085 999,-466.0085 1050,-466.0085 1050,-447.0085 999,-447.0085"/>
<text text-anchor="start" x="1014.6105" y="-453.1085" font-family="Helvetica,sans-Serif" font-size="11.00" fill="#000000">0 rows</text>
<polygon fill="#ffffff" stroke="transparent" points="1050,-447.0085 1050,-466.0085 1084,-466.0085 1084,-447.0085 1050,-447.0085"/>
<polygon fill="none" stroke="#000000" points="1050,-447.0085 1050,-466.0085 1084,-466.0085 1084,-447.0085 1050,-447.0085"/>
<text text-anchor="start" x="1065.4053" y="-453.1085" font-family="Helvetica,sans-Serif" font-size="11.00" fill="#000000">2 &gt;</text>
</a>
</g>
</g>
<!-- patients&#45;&gt;provider_locations -->
<g id="edge12" class="edge">
<title>patients:w&#45;&gt;provider_locations:e</title>
<path fill="none" stroke="#000000" d="M1119.5911,-121.7986C1067.4858,-164.2808 1158.8223,-475.0085 1084,-475.0085"/>
<polygon fill="#000000" stroke="#000000" points="1125.936,-119.6135 1134.6723,-120.4123 1129.718,-118.311 1133.5,-117.0085 1133.5,-117.0085 1133.5,-117.0085 1129.718,-118.311 1132.3277,-113.6047 1125.936,-119.6135 1125.936,-119.6135"/>
<ellipse fill="none" stroke="#000000" cx="1122.9104" cy="-120.6555" rx="3.2" ry="3.2"/>
</g>
<!-- professionals&#45;&gt;users -->
<g id="edge14" class="edge">
<title>professionals:w&#45;&gt;users:e</title>
<path fill="none" stroke="#000000" d="M954.5049,-149.072C822.8038,-150.6848 788.5142,-182.5785 652,-193.0085 548.5152,-200.9149 522.2863,-196.0085 418.5,-196.0085"/>
<polygon fill="#000000" stroke="#000000" points="964.1758,-145.0134 964.2242,-153.0132 962.6243,-153.0229 962.5758,-145.0231 964.1758,-145.0134"/>
<polyline fill="none" stroke="#000000" points="965,-149.0085 961.0001,-149.0327 "/>
<ellipse fill="none" stroke="#000000" cx="957.8001" cy="-149.0521" rx="3.2" ry="3.2"/>
</g>
<!-- profiles&#45;&gt;addresses -->
<g id="edge15" class="edge">
<title>profiles:w&#45;&gt;addresses:e</title>
<path fill="none" stroke="#000000" d="M135.3859,-131.8172C56.938,-153.9625 205.6239,-372.0085 101.5,-372.0085"/>
<polygon fill="#000000" stroke="#000000" points="142.0606,-130.9912 150.4422,-133.5812 146.0303,-130.4998 150,-130.0085 150,-130.0085 150,-130.0085 146.0303,-130.4998 149.5578,-126.4357 142.0606,-130.9912 142.0606,-130.9912"/>
<ellipse fill="none" stroke="#000000" cx="138.8848" cy="-131.3843" rx="3.2" ry="3.2"/>
</g>
<!-- provider_locations&#45;&gt;companies -->
<g id="edge18" class="edge">
<title>provider_locations:w&#45;&gt;companies:e</title>
<path fill="none" stroke="#000000" d="M937.741,-477.8056C929.4173,-481.464 924.1353,-487.6811 911,-490.0085 812.0961,-507.5327 768.698,-545.5398 685,-490.0085 646.4125,-464.4067 690.8081,-394.0085 644.5,-394.0085"/>
<polygon fill="#000000" stroke="#000000" points="944.1496,-476.5485 952.693,-478.5411 948.0748,-475.7785 952,-475.0085 952,-475.0085 952,-475.0085 948.0748,-475.7785 951.307,-471.4758 944.1496,-476.5485 944.1496,-476.5485"/>
<ellipse fill="none" stroke="#000000" cx="941.0095" cy="-477.1645" rx="3.2" ry="3.2"/>
</g>
<!-- provider_locations&#45;&gt;addresses -->
<g id="edge16" class="edge">
<title>provider_locations:w&#45;&gt;addresses:e</title>
<path fill="none" stroke="#000000" d="M938.2356,-479.7117C928.5874,-488.3628 928.3429,-506.5922 911,-514.0085 765.5594,-576.2028 713.6806,-531.0085 555.5,-531.0085 555.5,-531.0085 555.5,-531.0085 348.5,-531.0085 283.2219,-531.0085 166.7781,-372.0085 101.5,-372.0085"/>
<polygon fill="#000000" stroke="#000000" points="944.4297,-477.5952 953.164,-478.4151 948.2149,-476.3018 952,-475.0085 952,-475.0085 952,-475.0085 948.2149,-476.3018 950.836,-471.6018 944.4297,-477.5952 944.4297,-477.5952"/>
<ellipse fill="none" stroke="#000000" cx="941.4016" cy="-478.6299" rx="3.2" ry="3.2"/>
</g>
<!-- provider_locations&#45;&gt;company_doing_business_as -->
<g id="edge17" class="edge">
<title>provider_locations:w&#45;&gt;company_doing_business_as:e</title>
<path fill="none" stroke="#000000" d="M937.5178,-472.1218C920.9828,-464.7866 915.8334,-446.0085 892,-446.0085"/>
<polygon fill="#000000" stroke="#000000" points="944.1543,-473.4446 951.2963,-478.539 948.0772,-474.2265 952,-475.0085 952,-475.0085 952,-475.0085 948.0772,-474.2265 952.7037,-471.4779 944.1543,-473.4446 944.1543,-473.4446"/>
<ellipse fill="none" stroke="#000000" cx="941.0161" cy="-472.819" rx="3.2" ry="3.2"/>
</g>
<!-- responsible_persons -->
<g id="node11" class="node">
<title>responsible_persons</title>
<g id="a_node11"><a xlink:href="../../tables/responsible_persons.html" xlink:title="responsible_persons" target="_top">
<polygon fill="#ffffff" stroke="transparent" points="1263,-147.5085 1263,-208.5085 1407,-208.5085 1407,-147.5085 1263,-147.5085"/>
<polygon fill="#f5f5f5" stroke="transparent" points="1263,-185.0085 1263,-208.0085 1407,-208.0085 1407,-185.0085 1263,-185.0085"/>
<polygon fill="none" stroke="#000000" points="1263,-185.0085 1263,-208.0085 1407,-208.0085 1407,-185.0085 1263,-185.0085"/>
<text text-anchor="start" x="1267.7653" y="-194.1085" font-family="Helvetica,sans-Serif" font-weight="bold" font-size="11.00" fill="#000000">responsible_persons</text>
<text text-anchor="start" x="1372.5219" y="-193.1085" font-family="Helvetica,sans-Serif" font-size="11.00" fill="#000000">[table]</text>
<polygon fill="none" stroke="#000000" points="1263,-166.0085 1263,-185.0085 1407,-185.0085 1407,-166.0085 1263,-166.0085"/>
<text text-anchor="start" x="1266" y="-172.1085" font-family="Helvetica,sans-Serif" font-size="11.00" fill="#000000">...</text>
<polygon fill="#ffffff" stroke="transparent" points="1263,-147.0085 1263,-166.0085 1320,-166.0085 1320,-147.0085 1263,-147.0085"/>
<polygon fill="none" stroke="#000000" points="1263,-147.0085 1263,-166.0085 1320,-166.0085 1320,-147.0085 1263,-147.0085"/>
<text text-anchor="start" x="1266" y="-153.1085" font-family="Helvetica,sans-Serif" font-size="11.00" fill="#000000">&lt; 2</text>
<polygon fill="#ffffff" stroke="transparent" points="1320,-147.0085 1320,-166.0085 1376,-166.0085 1376,-147.0085 1320,-147.0085"/>
<polygon fill="none" stroke="#000000" points="1320,-147.0085 1320,-166.0085 1376,-166.0085 1376,-147.0085 1320,-147.0085"/>
<text text-anchor="start" x="1340.6105" y="-153.1085" font-family="Helvetica,sans-Serif" font-size="11.00" fill="#000000">0 rows</text>
<polygon fill="#ffffff" stroke="transparent" points="1376,-147.0085 1376,-166.0085 1407,-166.0085 1407,-147.0085 1376,-147.0085"/>
<polygon fill="none" stroke="#000000" points="1376,-147.0085 1376,-166.0085 1407,-166.0085 1407,-147.0085 1376,-147.0085"/>
<text text-anchor="start" x="1397.8862" y="-153.1085" font-family="Helvetica,sans-Serif" font-size="11.00" fill="#000000"> &#160;</text>
</a>
</g>
</g>
<!-- responsible_persons&#45;&gt;users -->
<g id="edge20" class="edge">
<title>responsible_persons:w&#45;&gt;users:e</title>
<path fill="none" stroke="#000000" d="M1248.4405,-175.355C1148.9282,-180.1902 1124.9704,-234.0085 1018,-234.0085 1018,-234.0085 1018,-234.0085 798,-234.0085 646.8203,-234.0085 608.1944,-230.4284 459,-206.0085 440.7029,-203.0136 437.0406,-196.0085 418.5,-196.0085"/>
<polygon fill="#000000" stroke="#000000" points="1255.0023,-175.1988 1263.0857,-178.6074 1259.0011,-175.1037 1263,-175.0085 1263,-175.0085 1263,-175.0085 1259.0011,-175.1037 1262.9143,-171.4095 1255.0023,-175.1988 1255.0023,-175.1988"/>
<ellipse fill="none" stroke="#000000" cx="1251.8032" cy="-175.275" rx="3.2" ry="3.2"/>
</g>
<!-- responsible_persons&#45;&gt;patients -->
<g id="edge19" class="edge">
<title>responsible_persons:w&#45;&gt;patients:e</title>
<path fill="none" stroke="#000000" d="M1249.3458,-170.0634C1234.4307,-156.0374 1242.0646,-117.0085 1214.5,-117.0085"/>
<polygon fill="#000000" stroke="#000000" points="1255.4781,-172.2843 1261.7741,-178.3933 1259.239,-173.6464 1263,-175.0085 1263,-175.0085 1263,-175.0085 1259.239,-173.6464 1264.2259,-171.6236 1255.4781,-172.2843 1255.4781,-172.2843"/>
<ellipse fill="none" stroke="#000000" cx="1252.4693" cy="-171.1946" rx="3.2" ry="3.2"/>
</g>
</g>
</svg>
