<?xml version="1.0" encoding="UTF-8" standalone="no"?>
<!DOCTYPE svg PUBLIC "-//W3C//DTD SVG 1.1//EN"
 "http://www.w3.org/Graphics/SVG/1.1/DTD/svg11.dtd">
<!-- Generated by graphviz version 2.40.1 (20161225.0304)
 -->
<!-- Title: oneDegreeRelationshipsDiagram Pages: 1 -->
<svg width="797pt" height="235pt"
 viewBox="0.00 0.00 797.00 234.70" xmlns="http://www.w3.org/2000/svg" xmlns:xlink="http://www.w3.org/1999/xlink">
<g id="graph0" class="graph" transform="scale(1 1) rotate(0) translate(4 230.7)">
<title>oneDegreeRelationshipsDiagram</title>
<polygon fill="#ffffff" stroke="transparent" points="-4,4 -4,-230.7 793,-230.7 793,4 -4,4"/>
<text text-anchor="middle" x="72.4936" y="-7.3" font-family="Helvetica,sans-Serif" font-size="11.00" fill="#000000">Generated by SchemaSpy</text>
<!-- company_doing_business_as -->
<g id="node1" class="node">
<title>company_doing_business_as</title>
<g id="a_node1"><a xlink:href="../../tables/company_doing_business_as.html" xlink:title="company_doing_business_as" target="_top">
<polygon fill="#ffffff" stroke="transparent" points="234,-38.2 234,-150.2 523,-150.2 523,-38.2 234,-38.2"/>
<polygon fill="#f5f5f5" stroke="transparent" points="236.5,-125.2 236.5,-148.2 521.5,-148.2 521.5,-125.2 236.5,-125.2"/>
<polygon fill="none" stroke="#000000" points="236.5,-125.2 236.5,-148.2 521.5,-148.2 521.5,-125.2 236.5,-125.2"/>
<text text-anchor="start" x="241.5" y="-134.3" font-family="Helvetica,sans-Serif" font-weight="bold" font-size="11.00" fill="#000000">company_doing_business_as</text>
<text text-anchor="start" x="486.5437" y="-133.3" font-family="Helvetica,sans-Serif" font-size="11.00" fill="#000000">[table]</text>
<polygon fill="none" stroke="#000000" points="236.5,-103.2 236.5,-125.2 427.5,-125.2 427.5,-103.2 236.5,-103.2"/>
<image xlink:href="../../images/primaryKeys.png" width="11px" height="12px" preserveAspectRatio="xMinYMin meet" x="241.5" y="-120.2"/>
<text text-anchor="start" x="256.5" y="-110.3" font-family="Helvetica,sans-Serif" font-size="11.00" fill="#000000">id</text>
<polygon fill="none" stroke="#000000" points="427.5,-103.2 427.5,-125.2 521.5,-125.2 521.5,-103.2 427.5,-103.2"/>
<text text-anchor="start" x="430.4758" y="-110.9" font-family="Helvetica,sans-Serif" font-size="11.00" fill="#000000">uuid[2147483647]</text>
<polygon fill="none" stroke="#000000" points="236.5,-81.2 236.5,-103.2 427.5,-103.2 427.5,-81.2 236.5,-81.2"/>
<image xlink:href="../../images/foreignKeys.png" width="11px" height="12px" preserveAspectRatio="xMinYMin meet" x="241.5" y="-98.2"/>
<text text-anchor="start" x="256.5" y="-88.3" font-family="Helvetica,sans-Serif" font-size="11.00" fill="#000000">company_id</text>
<polygon fill="none" stroke="#000000" points="427.5,-81.2 427.5,-103.2 521.5,-103.2 521.5,-81.2 427.5,-81.2"/>
<text text-anchor="start" x="430.4758" y="-88.9" font-family="Helvetica,sans-Serif" font-size="11.00" fill="#000000">uuid[2147483647]</text>
<polygon fill="none" stroke="#000000" points="236.5,-59.2 236.5,-81.2 427.5,-81.2 427.5,-59.2 236.5,-59.2"/>
<text text-anchor="start" x="256.5" y="-66.3" font-family="Helvetica,sans-Serif" font-size="11.00" fill="#000000">name</text>
<polygon fill="none" stroke="#000000" points="427.5,-59.2 427.5,-81.2 521.5,-81.2 521.5,-59.2 427.5,-59.2"/>
<text text-anchor="start" x="430.5" y="-66.9" font-family="Helvetica,sans-Serif" font-size="11.00" fill="#000000">text[2147483647]</text>
<polygon fill="#ffffff" stroke="transparent" points="236.5,-40.2 236.5,-59.2 323.5,-59.2 323.5,-40.2 236.5,-40.2"/>
<polygon fill="none" stroke="#000000" points="236.5,-40.2 236.5,-59.2 323.5,-59.2 323.5,-40.2 236.5,-40.2"/>
<text text-anchor="start" x="239.5" y="-46.3" font-family="Helvetica,sans-Serif" font-size="11.00" fill="#000000">&lt; 1</text>
<polygon fill="#ffffff" stroke="transparent" points="323.5,-40.2 323.5,-59.2 427.5,-59.2 427.5,-40.2 323.5,-40.2"/>
<polygon fill="none" stroke="#000000" points="323.5,-40.2 323.5,-59.2 427.5,-59.2 427.5,-40.2 323.5,-40.2"/>
<text text-anchor="start" x="392.1105" y="-46.3" font-family="Helvetica,sans-Serif" font-size="11.00" fill="#000000">0 rows</text>
<polygon fill="#ffffff" stroke="transparent" points="427.5,-40.2 427.5,-59.2 521.5,-59.2 521.5,-40.2 427.5,-40.2"/>
<polygon fill="none" stroke="#000000" points="427.5,-40.2 427.5,-59.2 521.5,-59.2 521.5,-40.2 427.5,-40.2"/>
<text text-anchor="start" x="502.9053" y="-46.3" font-family="Helvetica,sans-Serif" font-size="11.00" fill="#000000">1 &gt;</text>
<polygon fill="none" stroke="#000000" stroke-width="2" points="235,-39.2 235,-149.2 522,-149.2 522,-39.2 235,-39.2"/>
</a>
</g>
</g>
<!-- companies -->
<g id="node2" class="node">
<title>companies</title>
<g id="a_node2"><a xlink:href="../../tables/companies.html" xlink:title="companies" target="_top">
<polygon fill="#ffffff" stroke="transparent" points="8,-40.7 8,-167.7 185,-167.7 185,-40.7 8,-40.7"/>
<polygon fill="#f5f5f5" stroke="transparent" points="8.5,-144.2 8.5,-167.2 185.5,-167.2 185.5,-144.2 8.5,-144.2"/>
<polygon fill="none" stroke="#000000" points="8.5,-144.2 8.5,-167.2 185.5,-167.2 185.5,-144.2 8.5,-144.2"/>
<text text-anchor="start" x="13.5" y="-153.3" font-family="Helvetica,sans-Serif" font-weight="bold" font-size="11.00" fill="#000000">companies</text>
<text text-anchor="start" x="150.5437" y="-152.3" font-family="Helvetica,sans-Serif" font-size="11.00" fill="#000000">[table]</text>
<polygon fill="none" stroke="#000000" points="8.5,-122.2 8.5,-144.2 185.5,-144.2 185.5,-122.2 8.5,-122.2"/>
<image xlink:href="../../images/primaryKeys.png" width="11px" height="12px" preserveAspectRatio="xMinYMin meet" x="13.5" y="-139.2"/>
<text text-anchor="start" x="28.5" y="-129.3" font-family="Helvetica,sans-Serif" font-size="11.00" fill="#000000">id</text>
<polygon fill="none" stroke="#000000" points="8.5,-100.2 8.5,-122.2 185.5,-122.2 185.5,-100.2 8.5,-100.2"/>
<image xlink:href="../../images/foreignKeys.png" width="11px" height="12px" preserveAspectRatio="xMinYMin meet" x="13.5" y="-117.2"/>
<text text-anchor="start" x="28.5" y="-107.3" font-family="Helvetica,sans-Serif" font-size="11.00" fill="#000000">physical_address_id</text>
<polygon fill="none" stroke="#000000" points="8.5,-78.2 8.5,-100.2 185.5,-100.2 185.5,-78.2 8.5,-78.2"/>
<image xlink:href="../../images/foreignKeys.png" width="11px" height="12px" preserveAspectRatio="xMinYMin meet" x="13.5" y="-95.2"/>
<text text-anchor="start" x="28.5" y="-85.3" font-family="Helvetica,sans-Serif" font-size="11.00" fill="#000000">created_by_user_id</text>
<polygon fill="none" stroke="#000000" points="8.5,-59.2 8.5,-78.2 185.5,-78.2 185.5,-59.2 8.5,-59.2"/>
<text text-anchor="start" x="11.5" y="-65.3" font-family="Helvetica,sans-Serif" font-size="11.00" fill="#000000">...</text>
<polygon fill="#ffffff" stroke="transparent" points="8.5,-40.2 8.5,-59.2 77.5,-59.2 77.5,-40.2 8.5,-40.2"/>
<polygon fill="none" stroke="#000000" points="8.5,-40.2 8.5,-59.2 77.5,-59.2 77.5,-40.2 8.5,-40.2"/>
<text text-anchor="start" x="11.5" y="-46.3" font-family="Helvetica,sans-Serif" font-size="11.00" fill="#000000">&lt; 2</text>
<polygon fill="#ffffff" stroke="transparent" points="77.5,-40.2 77.5,-59.2 139.5,-59.2 139.5,-40.2 77.5,-40.2"/>
<polygon fill="none" stroke="#000000" points="77.5,-40.2 77.5,-59.2 139.5,-59.2 139.5,-40.2 77.5,-40.2"/>
<text text-anchor="start" x="104.1105" y="-46.3" font-family="Helvetica,sans-Serif" font-size="11.00" fill="#000000">0 rows</text>
<polygon fill="#ffffff" stroke="transparent" points="139.5,-40.2 139.5,-59.2 185.5,-59.2 185.5,-40.2 139.5,-40.2"/>
<polygon fill="none" stroke="#000000" points="139.5,-40.2 139.5,-59.2 185.5,-59.2 185.5,-40.2 139.5,-40.2"/>
<text text-anchor="start" x="166.9053" y="-46.3" font-family="Helvetica,sans-Serif" font-size="11.00" fill="#000000">4 &gt;</text>
</a>
</g>
</g>
<!-- company_doing_business_as&#45;&gt;companies -->
<g id="edge1" class="edge">
<title>company_doing_business_as:w&#45;&gt;companies:e</title>
<path fill="none" stroke="#000000" d="M222.6568,-96.5877C208.8325,-107.1646 208.6756,-133.2 185.5,-133.2"/>
<polygon fill="#000000" stroke="#000000" points="228.8739,-94.6172 237.5877,-95.6317 232.6869,-93.4086 236.5,-92.2 236.5,-92.2 236.5,-92.2 232.6869,-93.4086 235.4123,-88.7683 228.8739,-94.6172 228.8739,-94.6172"/>
<ellipse fill="none" stroke="#000000" cx="225.8235" cy="-95.5841" rx="3.2" ry="3.2"/>
</g>
<!-- provider_locations -->
<g id="node3" class="node">
<title>provider_locations</title>
<g id="a_node3"><a xlink:href="../../tables/provider_locations.html" xlink:title="provider_locations" target="_top">
<polygon fill="#ffffff" stroke="transparent" points="572,-73.7 572,-222.7 781,-222.7 781,-73.7 572,-73.7"/>
<polygon fill="#f5f5f5" stroke="transparent" points="572.5,-199.2 572.5,-222.2 781.5,-222.2 781.5,-199.2 572.5,-199.2"/>
<polygon fill="none" stroke="#000000" points="572.5,-199.2 572.5,-222.2 781.5,-222.2 781.5,-199.2 572.5,-199.2"/>
<text text-anchor="start" x="577.5" y="-208.3" font-family="Helvetica,sans-Serif" font-weight="bold" font-size="11.00" fill="#000000">provider_locations</text>
<text text-anchor="start" x="746.5437" y="-207.3" font-family="Helvetica,sans-Serif" font-size="11.00" fill="#000000">[table]</text>
<polygon fill="none" stroke="#000000" points="572.5,-177.2 572.5,-199.2 781.5,-199.2 781.5,-177.2 572.5,-177.2"/>
<image xlink:href="../../images/primaryKeys.png" width="11px" height="12px" preserveAspectRatio="xMinYMin meet" x="577.5" y="-194.2"/>
<text text-anchor="start" x="592.5" y="-184.3" font-family="Helvetica,sans-Serif" font-size="11.00" fill="#000000">id</text>
<polygon fill="none" stroke="#000000" points="572.5,-155.2 572.5,-177.2 781.5,-177.2 781.5,-155.2 572.5,-155.2"/>
<image xlink:href="../../images/foreignKeys.png" width="11px" height="12px" preserveAspectRatio="xMinYMin meet" x="577.5" y="-172.2"/>
<text text-anchor="start" x="592.5" y="-162.3" font-family="Helvetica,sans-Serif" font-size="11.00" fill="#000000">company_id</text>
<polygon fill="none" stroke="#000000" points="572.5,-133.2 572.5,-155.2 781.5,-155.2 781.5,-133.2 572.5,-133.2"/>
<image xlink:href="../../images/foreignKeys.png" width="11px" height="12px" preserveAspectRatio="xMinYMin meet" x="577.5" y="-150.2"/>
<text text-anchor="start" x="592.5" y="-140.3" font-family="Helvetica,sans-Serif" font-size="11.00" fill="#000000">address_id</text>
<polygon fill="none" stroke="#000000" points="572.5,-111.2 572.5,-133.2 781.5,-133.2 781.5,-111.2 572.5,-111.2"/>
<image xlink:href="../../images/foreignKeys.png" width="11px" height="12px" preserveAspectRatio="xMinYMin meet" x="577.5" y="-128.2"/>
<text text-anchor="start" x="592.5" y="-118.3" font-family="Helvetica,sans-Serif" font-size="11.00" fill="#000000">company_doing_business_as_id</text>
<polygon fill="none" stroke="#000000" points="572.5,-92.2 572.5,-111.2 781.5,-111.2 781.5,-92.2 572.5,-92.2"/>
<text text-anchor="start" x="575.5" y="-98.3" font-family="Helvetica,sans-Serif" font-size="11.00" fill="#000000">...</text>
<polygon fill="#ffffff" stroke="transparent" points="572.5,-73.2 572.5,-92.2 657.5,-92.2 657.5,-73.2 572.5,-73.2"/>
<polygon fill="none" stroke="#000000" points="572.5,-73.2 572.5,-92.2 657.5,-92.2 657.5,-73.2 572.5,-73.2"/>
<text text-anchor="start" x="575.5" y="-79.3" font-family="Helvetica,sans-Serif" font-size="11.00" fill="#000000">&lt; 3</text>
<polygon fill="#ffffff" stroke="transparent" points="657.5,-73.2 657.5,-92.2 727.5,-92.2 727.5,-73.2 657.5,-73.2"/>
<polygon fill="none" stroke="#000000" points="657.5,-73.2 657.5,-92.2 727.5,-92.2 727.5,-73.2 657.5,-73.2"/>
<text text-anchor="start" x="692.1105" y="-79.3" font-family="Helvetica,sans-Serif" font-size="11.00" fill="#000000">0 rows</text>
<polygon fill="#ffffff" stroke="transparent" points="727.5,-73.2 727.5,-92.2 781.5,-92.2 781.5,-73.2 727.5,-73.2"/>
<polygon fill="none" stroke="#000000" points="727.5,-73.2 727.5,-92.2 781.5,-92.2 781.5,-73.2 727.5,-73.2"/>
<text text-anchor="start" x="762.9053" y="-79.3" font-family="Helvetica,sans-Serif" font-size="11.00" fill="#000000">2 &gt;</text>
</a>
</g>
</g>
<!-- provider_locations&#45;&gt;company_doing_business_as -->
<g id="edge2" class="edge">
<title>provider_locations:w&#45;&gt;company_doing_business_as:e</title>
<path fill="none" stroke="#000000" d="M558.0783,-120.95C545.8855,-118.7 538.7079,-114.2 521.5,-114.2"/>
<polygon fill="#000000" stroke="#000000" points="564.5299,-121.5091 572.1891,-125.7866 568.5149,-121.8546 572.5,-122.2 572.5,-122.2 572.5,-122.2 568.5149,-121.8546 572.8109,-118.6134 564.5299,-121.5091 564.5299,-121.5091"/>
<ellipse fill="none" stroke="#000000" cx="561.3418" cy="-121.2328" rx="3.2" ry="3.2"/>
</g>
<!-- provider_locations&#45;&gt;companies -->
<g id="edge3" class="edge">
<title>provider_locations:w&#45;&gt;companies:e</title>
<path fill="none" stroke="#000000" d="M557.94,-166.3263C415.4276,-168.8105 367.963,-206.6223 226,-161.2 205.1579,-154.5314 207.383,-133.2 185.5,-133.2"/>
<polygon fill="#000000" stroke="#000000" points="564.5003,-166.2694 572.5312,-169.7999 568.5002,-166.2347 572.5,-166.2 572.5,-166.2 572.5,-166.2 568.5002,-166.2347 572.4688,-162.6001 564.5003,-166.2694 564.5003,-166.2694"/>
<ellipse fill="none" stroke="#000000" cx="561.3004" cy="-166.2972" rx="3.2" ry="3.2"/>
</g>
</g>
</svg>
