<?xml version="1.0" encoding="UTF-8" standalone="no"?>
<!DOCTYPE svg PUBLIC "-//W3C//DTD SVG 1.1//EN"
 "http://www.w3.org/Graphics/SVG/1.1/DTD/svg11.dtd">
<!-- Generated by graphviz version 2.40.1 (20161225.0304)
 -->
<!-- Title: oneDegreeRelationshipsDiagram Pages: 1 -->
<svg width="1244pt" height="657pt"
 viewBox="0.00 0.00 1244.00 657.20" xmlns="http://www.w3.org/2000/svg" xmlns:xlink="http://www.w3.org/1999/xlink">
<g id="graph0" class="graph" transform="scale(1 1) rotate(0) translate(4 653.2)">
<title>oneDegreeRelationshipsDiagram</title>
<polygon fill="#ffffff" stroke="transparent" points="-4,4 -4,-653.2 1240,-653.2 1240,4 -4,4"/>
<text text-anchor="middle" x="72.4936" y="-7.3" font-family="Helvetica,sans-Serif" font-size="11.00" fill="#000000">Generated by SchemaSpy</text>
<!-- companies -->
<g id="node1" class="node">
<title>companies</title>
<g id="a_node1"><a xlink:href="../../tables/companies.html" xlink:title="companies" target="_top">
<polygon fill="#ffffff" stroke="transparent" points="196,-176.7 196,-530.7 471,-530.7 471,-176.7 196,-176.7"/>
<polygon fill="#f5f5f5" stroke="transparent" points="198.5,-505.7 198.5,-528.7 469.5,-528.7 469.5,-505.7 198.5,-505.7"/>
<polygon fill="none" stroke="#000000" points="198.5,-505.7 198.5,-528.7 469.5,-528.7 469.5,-505.7 198.5,-505.7"/>
<text text-anchor="start" x="203.5" y="-514.8" font-family="Helvetica,sans-Serif" font-weight="bold" font-size="11.00" fill="#000000">companies</text>
<text text-anchor="start" x="434.5437" y="-513.8" font-family="Helvetica,sans-Serif" font-size="11.00" fill="#000000">[table]</text>
<polygon fill="none" stroke="#000000" points="198.5,-483.7 198.5,-505.7 375.5,-505.7 375.5,-483.7 198.5,-483.7"/>
<image xlink:href="../../images/primaryKeys.png" width="11px" height="12px" preserveAspectRatio="xMinYMin meet" x="203.5" y="-500.7"/>
<text text-anchor="start" x="218.5" y="-490.8" font-family="Helvetica,sans-Serif" font-size="11.00" fill="#000000">id</text>
<polygon fill="none" stroke="#000000" points="375.5,-483.7 375.5,-505.7 469.5,-505.7 469.5,-483.7 375.5,-483.7"/>
<text text-anchor="start" x="378.4758" y="-491.4" font-family="Helvetica,sans-Serif" font-size="11.00" fill="#000000">uuid[2147483647]</text>
<polygon fill="none" stroke="#000000" points="198.5,-461.7 198.5,-483.7 375.5,-483.7 375.5,-461.7 198.5,-461.7"/>
<text text-anchor="start" x="218.5" y="-468.8" font-family="Helvetica,sans-Serif" font-size="11.00" fill="#000000">legal_name</text>
<polygon fill="none" stroke="#000000" points="375.5,-461.7 375.5,-483.7 469.5,-483.7 469.5,-461.7 375.5,-461.7"/>
<text text-anchor="start" x="378.5" y="-469.4" font-family="Helvetica,sans-Serif" font-size="11.00" fill="#000000">text[2147483647]</text>
<polygon fill="none" stroke="#000000" points="198.5,-439.7 198.5,-461.7 375.5,-461.7 375.5,-439.7 198.5,-439.7"/>
<text text-anchor="start" x="218.5" y="-446.8" font-family="Helvetica,sans-Serif" font-size="11.00" fill="#000000">federal_tax_id_number</text>
<polygon fill="none" stroke="#000000" points="375.5,-439.7 375.5,-461.7 469.5,-461.7 469.5,-439.7 375.5,-439.7"/>
<text text-anchor="start" x="378.5" y="-447.4" font-family="Helvetica,sans-Serif" font-size="11.00" fill="#000000">text[2147483647]</text>
<polygon fill="none" stroke="#000000" points="198.5,-417.7 198.5,-439.7 375.5,-439.7 375.5,-417.7 198.5,-417.7"/>
<text text-anchor="start" x="218.5" y="-424.8" font-family="Helvetica,sans-Serif" font-size="11.00" fill="#000000">primary_industry_sic_code</text>
<polygon fill="none" stroke="#000000" points="375.5,-417.7 375.5,-439.7 469.5,-439.7 469.5,-417.7 375.5,-417.7"/>
<text text-anchor="start" x="378.5" y="-425.4" font-family="Helvetica,sans-Serif" font-size="11.00" fill="#000000">text[2147483647]</text>
<polygon fill="none" stroke="#000000" points="198.5,-395.7 198.5,-417.7 375.5,-417.7 375.5,-395.7 198.5,-395.7"/>
<image xlink:href="../../images/foreignKeys.png" width="11px" height="12px" preserveAspectRatio="xMinYMin meet" x="203.5" y="-412.7"/>
<text text-anchor="start" x="218.5" y="-402.8" font-family="Helvetica,sans-Serif" font-size="11.00" fill="#000000">physical_address_id</text>
<polygon fill="none" stroke="#000000" points="375.5,-395.7 375.5,-417.7 469.5,-417.7 469.5,-395.7 375.5,-395.7"/>
<text text-anchor="start" x="378.4758" y="-403.4" font-family="Helvetica,sans-Serif" font-size="11.00" fill="#000000">uuid[2147483647]</text>
<polygon fill="none" stroke="#000000" points="198.5,-373.7 198.5,-395.7 375.5,-395.7 375.5,-373.7 198.5,-373.7"/>
<text text-anchor="start" x="218.5" y="-380.8" font-family="Helvetica,sans-Serif" font-size="11.00" fill="#000000">phone_number</text>
<polygon fill="none" stroke="#000000" points="375.5,-373.7 375.5,-395.7 469.5,-395.7 469.5,-373.7 375.5,-373.7"/>
<text text-anchor="start" x="378.5" y="-381.4" font-family="Helvetica,sans-Serif" font-size="11.00" fill="#000000">text[2147483647]</text>
<polygon fill="none" stroke="#000000" points="198.5,-351.7 198.5,-373.7 375.5,-373.7 375.5,-351.7 198.5,-351.7"/>
<text text-anchor="start" x="218.5" y="-358.8" font-family="Helvetica,sans-Serif" font-size="11.00" fill="#000000">business_type</text>
<polygon fill="none" stroke="#000000" points="375.5,-351.7 375.5,-373.7 469.5,-373.7 469.5,-351.7 375.5,-351.7"/>
<text text-anchor="start" x="378.5" y="-359.4" font-family="Helvetica,sans-Serif" font-size="11.00" fill="#000000">text[2147483647]</text>
<polygon fill="none" stroke="#000000" points="198.5,-329.7 198.5,-351.7 375.5,-351.7 375.5,-329.7 198.5,-329.7"/>
<image xlink:href="../../images/foreignKeys.png" width="11px" height="12px" preserveAspectRatio="xMinYMin meet" x="203.5" y="-346.7"/>
<text text-anchor="start" x="218.5" y="-336.8" font-family="Helvetica,sans-Serif" font-size="11.00" fill="#000000">created_by_user_id</text>
<polygon fill="none" stroke="#000000" points="375.5,-329.7 375.5,-351.7 469.5,-351.7 469.5,-329.7 375.5,-329.7"/>
<text text-anchor="start" x="378.4758" y="-337.4" font-family="Helvetica,sans-Serif" font-size="11.00" fill="#000000">uuid[2147483647]</text>
<polygon fill="none" stroke="#000000" points="198.5,-307.7 198.5,-329.7 375.5,-329.7 375.5,-307.7 198.5,-307.7"/>
<text text-anchor="start" x="218.5" y="-314.8" font-family="Helvetica,sans-Serif" font-size="11.00" fill="#000000">national_provider_id</text>
<polygon fill="none" stroke="#000000" points="375.5,-307.7 375.5,-329.7 469.5,-329.7 469.5,-307.7 375.5,-307.7"/>
<text text-anchor="start" x="378.5" y="-315.4" font-family="Helvetica,sans-Serif" font-size="11.00" fill="#000000">text[2147483647]</text>
<polygon fill="none" stroke="#000000" points="198.5,-285.7 198.5,-307.7 375.5,-307.7 375.5,-285.7 198.5,-285.7"/>
<text text-anchor="start" x="218.5" y="-292.8" font-family="Helvetica,sans-Serif" font-size="11.00" fill="#000000">created_at</text>
<polygon fill="none" stroke="#000000" points="375.5,-285.7 375.5,-307.7 469.5,-307.7 469.5,-285.7 375.5,-285.7"/>
<text text-anchor="start" x="378.5" y="-293.4" font-family="Helvetica,sans-Serif" font-size="11.00" fill="#000000">timestamptz[35,6]</text>
<polygon fill="none" stroke="#000000" points="198.5,-263.7 198.5,-285.7 375.5,-285.7 375.5,-263.7 198.5,-263.7"/>
<text text-anchor="start" x="218.5" y="-270.8" font-family="Helvetica,sans-Serif" font-size="11.00" fill="#000000">updated_at</text>
<polygon fill="none" stroke="#000000" points="375.5,-263.7 375.5,-285.7 469.5,-285.7 469.5,-263.7 375.5,-263.7"/>
<text text-anchor="start" x="378.5" y="-271.4" font-family="Helvetica,sans-Serif" font-size="11.00" fill="#000000">timestamptz[35,6]</text>
<polygon fill="none" stroke="#000000" points="198.5,-241.7 198.5,-263.7 375.5,-263.7 375.5,-241.7 198.5,-241.7"/>
<text text-anchor="start" x="218.5" y="-248.8" font-family="Helvetica,sans-Serif" font-size="11.00" fill="#000000">deleted_at</text>
<polygon fill="none" stroke="#000000" points="375.5,-241.7 375.5,-263.7 469.5,-263.7 469.5,-241.7 375.5,-241.7"/>
<text text-anchor="start" x="378.5" y="-249.4" font-family="Helvetica,sans-Serif" font-size="11.00" fill="#000000">timestamptz[35,6]</text>
<polygon fill="none" stroke="#000000" points="198.5,-219.7 198.5,-241.7 375.5,-241.7 375.5,-219.7 198.5,-219.7"/>
<text text-anchor="start" x="218.5" y="-226.8" font-family="Helvetica,sans-Serif" font-size="11.00" fill="#000000">financial_email</text>
<polygon fill="none" stroke="#000000" points="375.5,-219.7 375.5,-241.7 469.5,-241.7 469.5,-219.7 375.5,-219.7"/>
<text text-anchor="start" x="378.5" y="-227.4" font-family="Helvetica,sans-Serif" font-size="11.00" fill="#000000">text[2147483647]</text>
<polygon fill="none" stroke="#000000" points="198.5,-197.7 198.5,-219.7 375.5,-219.7 375.5,-197.7 198.5,-197.7"/>
<text text-anchor="start" x="218.5" y="-204.8" font-family="Helvetica,sans-Serif" font-size="11.00" fill="#000000">hr_email</text>
<polygon fill="none" stroke="#000000" points="375.5,-197.7 375.5,-219.7 469.5,-219.7 469.5,-197.7 375.5,-197.7"/>
<text text-anchor="start" x="378.5" y="-205.4" font-family="Helvetica,sans-Serif" font-size="11.00" fill="#000000">text[2147483647]</text>
<polygon fill="#ffffff" stroke="transparent" points="198.5,-178.7 198.5,-197.7 278.5,-197.7 278.5,-178.7 198.5,-178.7"/>
<polygon fill="none" stroke="#000000" points="198.5,-178.7 198.5,-197.7 278.5,-197.7 278.5,-178.7 198.5,-178.7"/>
<text text-anchor="start" x="201.5" y="-184.8" font-family="Helvetica,sans-Serif" font-size="11.00" fill="#000000">&lt; 2</text>
<polygon fill="#ffffff" stroke="transparent" points="278.5,-178.7 278.5,-197.7 375.5,-197.7 375.5,-178.7 278.5,-178.7"/>
<polygon fill="none" stroke="#000000" points="278.5,-178.7 278.5,-197.7 375.5,-197.7 375.5,-178.7 278.5,-178.7"/>
<text text-anchor="start" x="340.1105" y="-184.8" font-family="Helvetica,sans-Serif" font-size="11.00" fill="#000000">0 rows</text>
<polygon fill="#ffffff" stroke="transparent" points="375.5,-178.7 375.5,-197.7 469.5,-197.7 469.5,-178.7 375.5,-178.7"/>
<polygon fill="none" stroke="#000000" points="375.5,-178.7 375.5,-197.7 469.5,-197.7 469.5,-178.7 375.5,-178.7"/>
<text text-anchor="start" x="450.9053" y="-184.8" font-family="Helvetica,sans-Serif" font-size="11.00" fill="#000000">4 &gt;</text>
<polygon fill="none" stroke="#000000" stroke-width="2" points="197,-177.7 197,-529.7 470,-529.7 470,-177.7 197,-177.7"/>
</a>
</g>
</g>
<!-- users -->
<g id="node2" class="node">
<title>users</title>
<g id="a_node2"><a xlink:href="../../tables/users.html" xlink:title="users" target="_top">
<polygon fill="#ffffff" stroke="transparent" points="8,-38.2 8,-187.2 147,-187.2 147,-38.2 8,-38.2"/>
<polygon fill="#f5f5f5" stroke="transparent" points="8.5,-163.7 8.5,-186.7 147.5,-186.7 147.5,-163.7 8.5,-163.7"/>
<polygon fill="none" stroke="#000000" points="8.5,-163.7 8.5,-186.7 147.5,-186.7 147.5,-163.7 8.5,-163.7"/>
<text text-anchor="start" x="13.5" y="-172.8" font-family="Helvetica,sans-Serif" font-weight="bold" font-size="11.00" fill="#000000">users</text>
<text text-anchor="start" x="112.5437" y="-171.8" font-family="Helvetica,sans-Serif" font-size="11.00" fill="#000000">[table]</text>
<polygon fill="none" stroke="#000000" points="8.5,-141.7 8.5,-163.7 147.5,-163.7 147.5,-141.7 8.5,-141.7"/>
<image xlink:href="../../images/primaryKeys.png" width="11px" height="12px" preserveAspectRatio="xMinYMin meet" x="13.5" y="-158.7"/>
<text text-anchor="start" x="28.5" y="-148.8" font-family="Helvetica,sans-Serif" font-size="11.00" fill="#000000">id</text>
<polygon fill="#ffffff" stroke="transparent" points="8.5,-119.7 8.5,-141.7 147.5,-141.7 147.5,-119.7 8.5,-119.7"/>
<polygon fill="none" stroke="#000000" points="8.5,-119.7 8.5,-141.7 147.5,-141.7 147.5,-119.7 8.5,-119.7"/>
<text text-anchor="start" x="28.5" y="-126.8" font-family="Helvetica,sans-Serif" font-size="11.00" fill="#000000">email</text>
<polygon fill="#ffffff" stroke="transparent" points="8.5,-97.7 8.5,-119.7 147.5,-119.7 147.5,-97.7 8.5,-97.7"/>
<polygon fill="none" stroke="#000000" points="8.5,-97.7 8.5,-119.7 147.5,-119.7 147.5,-97.7 8.5,-97.7"/>
<text text-anchor="start" x="28.5" y="-104.8" font-family="Helvetica,sans-Serif" font-size="11.00" fill="#000000">cognito_id</text>
<polygon fill="#ffffff" stroke="transparent" points="8.5,-75.7 8.5,-97.7 147.5,-97.7 147.5,-75.7 8.5,-75.7"/>
<polygon fill="none" stroke="#000000" points="8.5,-75.7 8.5,-97.7 147.5,-97.7 147.5,-75.7 8.5,-75.7"/>
<image xlink:href="../../images/foreignKeys.png" width="11px" height="12px" preserveAspectRatio="xMinYMin meet" x="13.5" y="-92.7"/>
<text text-anchor="start" x="28.5" y="-82.8" font-family="Helvetica,sans-Serif" font-size="11.00" fill="#000000">profile_id</text>
<polygon fill="none" stroke="#000000" points="8.5,-56.7 8.5,-75.7 147.5,-75.7 147.5,-56.7 8.5,-56.7"/>
<text text-anchor="start" x="11.5" y="-62.8" font-family="Helvetica,sans-Serif" font-size="11.00" fill="#000000">...</text>
<polygon fill="#ffffff" stroke="transparent" points="8.5,-37.7 8.5,-56.7 58.5,-56.7 58.5,-37.7 8.5,-37.7"/>
<polygon fill="none" stroke="#000000" points="8.5,-37.7 8.5,-56.7 58.5,-56.7 58.5,-37.7 8.5,-37.7"/>
<text text-anchor="start" x="11.5" y="-43.8" font-family="Helvetica,sans-Serif" font-size="11.00" fill="#000000">&lt; 1</text>
<polygon fill="#ffffff" stroke="transparent" points="58.5,-37.7 58.5,-56.7 111.5,-56.7 111.5,-37.7 58.5,-37.7"/>
<polygon fill="none" stroke="#000000" points="58.5,-37.7 58.5,-56.7 111.5,-56.7 111.5,-37.7 58.5,-37.7"/>
<text text-anchor="start" x="76.1105" y="-43.8" font-family="Helvetica,sans-Serif" font-size="11.00" fill="#000000">0 rows</text>
<polygon fill="#ffffff" stroke="transparent" points="111.5,-37.7 111.5,-56.7 147.5,-56.7 147.5,-37.7 111.5,-37.7"/>
<polygon fill="none" stroke="#000000" points="111.5,-37.7 111.5,-56.7 147.5,-56.7 147.5,-37.7 111.5,-37.7"/>
<text text-anchor="start" x="128.9053" y="-43.8" font-family="Helvetica,sans-Serif" font-size="11.00" fill="#000000">8 &gt;</text>
</a>
</g>
</g>
<!-- companies&#45;&gt;users -->
<g id="edge1" class="edge">
<title>companies:w&#45;&gt;users:e</title>
<path fill="none" stroke="#000000" d="M184.2493,-338.4577C126.8035,-317.2466 228.4954,-152.7 147.5,-152.7"/>
<polygon fill="#000000" stroke="#000000" points="190.5972,-339.4565 197.9404,-344.2562 194.5486,-340.0782 198.5,-340.7 198.5,-340.7 198.5,-340.7 194.5486,-340.0782 199.0596,-337.1438 190.5972,-339.4565 190.5972,-339.4565"/>
<ellipse fill="none" stroke="#000000" cx="187.4361" cy="-338.9591" rx="3.2" ry="3.2"/>
</g>
<!-- addresses -->
<g id="node3" class="node">
<title>addresses</title>
<g id="a_node3"><a xlink:href="../../tables/addresses.html" xlink:title="addresses" target="_top">
<polygon fill="#ffffff" stroke="transparent" points="31,-432.2 31,-515.2 124,-515.2 124,-432.2 31,-432.2"/>
<polygon fill="#f5f5f5" stroke="transparent" points="31.5,-491.7 31.5,-514.7 124.5,-514.7 124.5,-491.7 31.5,-491.7"/>
<polygon fill="none" stroke="#000000" points="31.5,-491.7 31.5,-514.7 124.5,-514.7 124.5,-491.7 31.5,-491.7"/>
<text text-anchor="start" x="36.1318" y="-500.8" font-family="Helvetica,sans-Serif" font-weight="bold" font-size="11.00" fill="#000000">addresses</text>
<text text-anchor="start" x="90.0219" y="-499.8" font-family="Helvetica,sans-Serif" font-size="11.00" fill="#000000">[table]</text>
<polygon fill="none" stroke="#000000" points="31.5,-469.7 31.5,-491.7 124.5,-491.7 124.5,-469.7 31.5,-469.7"/>
<image xlink:href="../../images/primaryKeys.png" width="11px" height="12px" preserveAspectRatio="xMinYMin meet" x="36.5" y="-486.7"/>
<text text-anchor="start" x="55.5" y="-476.8" font-family="Helvetica,sans-Serif" font-size="11.00" fill="#000000">id</text>
<polygon fill="none" stroke="#000000" points="31.5,-450.7 31.5,-469.7 124.5,-469.7 124.5,-450.7 31.5,-450.7"/>
<text text-anchor="start" x="34.5" y="-456.8" font-family="Helvetica,sans-Serif" font-size="11.00" fill="#000000">...</text>
<polygon fill="#ffffff" stroke="transparent" points="31.5,-431.7 31.5,-450.7 54.5,-450.7 54.5,-431.7 31.5,-431.7"/>
<polygon fill="none" stroke="#000000" points="31.5,-431.7 31.5,-450.7 54.5,-450.7 54.5,-431.7 31.5,-431.7"/>
<text text-anchor="start" x="34.5" y="-437.8" font-family="Helvetica,sans-Serif" font-size="11.00" fill="#000000"> &#160;</text>
<polygon fill="#ffffff" stroke="transparent" points="54.5,-431.7 54.5,-450.7 97.5,-450.7 97.5,-431.7 54.5,-431.7"/>
<polygon fill="none" stroke="#000000" points="54.5,-431.7 54.5,-450.7 97.5,-450.7 97.5,-431.7 54.5,-431.7"/>
<text text-anchor="start" x="62.1105" y="-437.8" font-family="Helvetica,sans-Serif" font-size="11.00" fill="#000000">0 rows</text>
<polygon fill="#ffffff" stroke="transparent" points="97.5,-431.7 97.5,-450.7 124.5,-450.7 124.5,-431.7 97.5,-431.7"/>
<polygon fill="none" stroke="#000000" points="97.5,-431.7 97.5,-450.7 124.5,-450.7 124.5,-431.7 97.5,-431.7"/>
<text text-anchor="start" x="105.9053" y="-437.8" font-family="Helvetica,sans-Serif" font-size="11.00" fill="#000000">3 &gt;</text>
</a>
</g>
</g>
<!-- companies&#45;&gt;addresses -->
<g id="edge2" class="edge">
<title>companies:w&#45;&gt;addresses:e</title>
<path fill="none" stroke="#000000" d="M184.2533,-409.6925C155.6344,-423.5368 165.3796,-480.7 124.5,-480.7"/>
<polygon fill="#000000" stroke="#000000" points="190.6709,-408.3446 199.2401,-410.2231 194.5854,-407.5223 198.5,-406.7 198.5,-406.7 198.5,-406.7 194.5854,-407.5223 197.7599,-403.1769 190.6709,-408.3446 190.6709,-408.3446"/>
<ellipse fill="none" stroke="#000000" cx="187.5392" cy="-409.0024" rx="3.2" ry="3.2"/>
</g>
<!-- company_doing_business_as -->
<g id="node4" class="node">
<title>company_doing_business_as</title>
<g id="a_node4"><a xlink:href="../../tables/company_doing_business_as.html" xlink:title="company_doing_business_as" target="_top">
<polygon fill="#ffffff" stroke="transparent" points="520,-392.2 520,-497.2 711,-497.2 711,-392.2 520,-392.2"/>
<polygon fill="#f5f5f5" stroke="transparent" points="520.5,-473.7 520.5,-496.7 711.5,-496.7 711.5,-473.7 520.5,-473.7"/>
<polygon fill="none" stroke="#000000" points="520.5,-473.7 520.5,-496.7 711.5,-496.7 711.5,-473.7 520.5,-473.7"/>
<text text-anchor="start" x="525.5" y="-482.8" font-family="Helvetica,sans-Serif" font-weight="bold" font-size="11.00" fill="#000000">company_doing_business_as</text>
<text text-anchor="start" x="676.5437" y="-481.8" font-family="Helvetica,sans-Serif" font-size="11.00" fill="#000000">[table]</text>
<polygon fill="none" stroke="#000000" points="520.5,-451.7 520.5,-473.7 711.5,-473.7 711.5,-451.7 520.5,-451.7"/>
<image xlink:href="../../images/primaryKeys.png" width="11px" height="12px" preserveAspectRatio="xMinYMin meet" x="525.5" y="-468.7"/>
<text text-anchor="start" x="540.5" y="-458.8" font-family="Helvetica,sans-Serif" font-size="11.00" fill="#000000">id</text>
<polygon fill="none" stroke="#000000" points="520.5,-429.7 520.5,-451.7 711.5,-451.7 711.5,-429.7 520.5,-429.7"/>
<image xlink:href="../../images/foreignKeys.png" width="11px" height="12px" preserveAspectRatio="xMinYMin meet" x="525.5" y="-446.7"/>
<text text-anchor="start" x="540.5" y="-436.8" font-family="Helvetica,sans-Serif" font-size="11.00" fill="#000000">company_id</text>
<polygon fill="none" stroke="#000000" points="520.5,-410.7 520.5,-429.7 711.5,-429.7 711.5,-410.7 520.5,-410.7"/>
<text text-anchor="start" x="523.5" y="-416.8" font-family="Helvetica,sans-Serif" font-size="11.00" fill="#000000">...</text>
<polygon fill="#ffffff" stroke="transparent" points="520.5,-391.7 520.5,-410.7 596.5,-410.7 596.5,-391.7 520.5,-391.7"/>
<polygon fill="none" stroke="#000000" points="520.5,-391.7 520.5,-410.7 596.5,-410.7 596.5,-391.7 520.5,-391.7"/>
<text text-anchor="start" x="523.5" y="-397.8" font-family="Helvetica,sans-Serif" font-size="11.00" fill="#000000">&lt; 1</text>
<polygon fill="#ffffff" stroke="transparent" points="596.5,-391.7 596.5,-410.7 662.5,-410.7 662.5,-391.7 596.5,-391.7"/>
<polygon fill="none" stroke="#000000" points="596.5,-391.7 596.5,-410.7 662.5,-410.7 662.5,-391.7 596.5,-391.7"/>
<text text-anchor="start" x="627.1105" y="-397.8" font-family="Helvetica,sans-Serif" font-size="11.00" fill="#000000">0 rows</text>
<polygon fill="#ffffff" stroke="transparent" points="662.5,-391.7 662.5,-410.7 711.5,-410.7 711.5,-391.7 662.5,-391.7"/>
<polygon fill="none" stroke="#000000" points="662.5,-391.7 662.5,-410.7 711.5,-410.7 711.5,-391.7 662.5,-391.7"/>
<text text-anchor="start" x="692.9053" y="-397.8" font-family="Helvetica,sans-Serif" font-size="11.00" fill="#000000">1 &gt;</text>
</a>
</g>
</g>
<!-- company_doing_business_as&#45;&gt;companies -->
<g id="edge3" class="edge">
<title>company_doing_business_as:w&#45;&gt;companies:e</title>
<path fill="none" stroke="#000000" d="M506.8001,-445.304C491.3364,-458.3627 496.58,-494.7 469.5,-494.7"/>
<polygon fill="#000000" stroke="#000000" points="512.9168,-443.2485 521.6468,-444.1125 516.7084,-441.9742 520.5,-440.7 520.5,-440.7 520.5,-440.7 516.7084,-441.9742 519.3532,-437.2875 512.9168,-443.2485 512.9168,-443.2485"/>
<ellipse fill="none" stroke="#000000" cx="509.8835" cy="-444.2678" rx="3.2" ry="3.2"/>
</g>
<!-- company_users -->
<g id="node5" class="node">
<title>company_users</title>
<g id="a_node5"><a xlink:href="../../tables/company_users.html" xlink:title="company_users" target="_top">
<polygon fill="#ffffff" stroke="transparent" points="555.5,-205.7 555.5,-313.7 675.5,-313.7 675.5,-205.7 555.5,-205.7"/>
<polygon fill="#f5f5f5" stroke="transparent" points="555.5,-290.7 555.5,-313.7 675.5,-313.7 675.5,-290.7 555.5,-290.7"/>
<polygon fill="none" stroke="#000000" points="555.5,-290.7 555.5,-313.7 675.5,-313.7 675.5,-290.7 555.5,-290.7"/>
<text text-anchor="start" x="560.186" y="-299.8" font-family="Helvetica,sans-Serif" font-weight="bold" font-size="11.00" fill="#000000">company_users</text>
<text text-anchor="start" x="641.0219" y="-298.8" font-family="Helvetica,sans-Serif" font-size="11.00" fill="#000000">[table]</text>
<polygon fill="none" stroke="#000000" points="555.5,-268.7 555.5,-290.7 675.5,-290.7 675.5,-268.7 555.5,-268.7"/>
<image xlink:href="../../images/primaryKeys.png" width="11px" height="12px" preserveAspectRatio="xMinYMin meet" x="560.5" y="-285.7"/>
<text text-anchor="start" x="579.5" y="-275.8" font-family="Helvetica,sans-Serif" font-size="11.00" fill="#000000">company_id</text>
<polygon fill="none" stroke="#000000" points="555.5,-246.7 555.5,-268.7 675.5,-268.7 675.5,-246.7 555.5,-246.7"/>
<image xlink:href="../../images/primaryKeys.png" width="11px" height="12px" preserveAspectRatio="xMinYMin meet" x="560.5" y="-263.7"/>
<text text-anchor="start" x="579.5" y="-253.8" font-family="Helvetica,sans-Serif" font-size="11.00" fill="#000000">user_id</text>
<polygon fill="none" stroke="#000000" points="555.5,-224.7 555.5,-246.7 675.5,-246.7 675.5,-224.7 555.5,-224.7"/>
<image xlink:href="../../images/primaryKeys.png" width="11px" height="12px" preserveAspectRatio="xMinYMin meet" x="560.5" y="-241.7"/>
<text text-anchor="start" x="579.5" y="-231.8" font-family="Helvetica,sans-Serif" font-size="11.00" fill="#000000">role</text>
<polygon fill="#ffffff" stroke="transparent" points="555.5,-205.7 555.5,-224.7 600.5,-224.7 600.5,-205.7 555.5,-205.7"/>
<polygon fill="none" stroke="#000000" points="555.5,-205.7 555.5,-224.7 600.5,-224.7 600.5,-205.7 555.5,-205.7"/>
<text text-anchor="start" x="558.5" y="-211.8" font-family="Helvetica,sans-Serif" font-size="11.00" fill="#000000">&lt; 2</text>
<polygon fill="#ffffff" stroke="transparent" points="600.5,-205.7 600.5,-224.7 650.5,-224.7 650.5,-205.7 600.5,-205.7"/>
<polygon fill="none" stroke="#000000" points="600.5,-205.7 600.5,-224.7 650.5,-224.7 650.5,-205.7 600.5,-205.7"/>
<text text-anchor="start" x="615.1105" y="-211.8" font-family="Helvetica,sans-Serif" font-size="11.00" fill="#000000">0 rows</text>
<polygon fill="#ffffff" stroke="transparent" points="650.5,-205.7 650.5,-224.7 675.5,-224.7 675.5,-205.7 650.5,-205.7"/>
<polygon fill="none" stroke="#000000" points="650.5,-205.7 650.5,-224.7 675.5,-224.7 675.5,-205.7 650.5,-205.7"/>
<text text-anchor="start" x="666.3862" y="-211.8" font-family="Helvetica,sans-Serif" font-size="11.00" fill="#000000"> &#160;</text>
</a>
</g>
</g>
<!-- company_users&#45;&gt;companies -->
<g id="edge4" class="edge">
<title>company_users:w&#45;&gt;companies:e</title>
<path fill="none" stroke="#000000" d="M541.0117,-281.9103C511.2883,-292.7411 528.1958,-341.3184 512,-381.7 492.0264,-431.5008 523.1569,-494.7 469.5,-494.7"/>
<polygon fill="#000000" stroke="#000000" points="547.5915,-280.9065 556.0429,-283.2588 551.5458,-280.3033 555.5,-279.7 555.5,-279.7 555.5,-279.7 551.5458,-280.3033 554.9571,-276.1412 547.5915,-280.9065 547.5915,-280.9065"/>
<ellipse fill="none" stroke="#000000" cx="544.4281" cy="-281.3892" rx="3.2" ry="3.2"/>
</g>
<!-- company_users&#45;&gt;users -->
<g id="edge5" class="edge">
<title>company_users:w&#45;&gt;users:e</title>
<path fill="none" stroke="#000000" d="M541.0865,-255.5479C506.6612,-243.7552 521.6634,-186.74 479,-165.7 412.88,-133.0922 221.2233,-152.7 147.5,-152.7"/>
<polygon fill="#000000" stroke="#000000" points="547.5877,-256.5185 554.9683,-261.2605 551.5439,-257.1093 555.5,-257.7 555.5,-257.7 555.5,-257.7 551.5439,-257.1093 556.0317,-254.1395 547.5877,-256.5185 547.5877,-256.5185"/>
<ellipse fill="none" stroke="#000000" cx="544.4228" cy="-256.046" rx="3.2" ry="3.2"/>
</g>
<!-- patients -->
<g id="node6" class="node">
<title>patients</title>
<g id="a_node6"><a xlink:href="../../tables/patients.html" xlink:title="patients" target="_top">
<polygon fill="#ffffff" stroke="transparent" points="1018,-342.2 1018,-645.2 1228,-645.2 1228,-342.2 1018,-342.2"/>
<polygon fill="#f5f5f5" stroke="transparent" points="1018,-621.7 1018,-644.7 1228,-644.7 1228,-621.7 1018,-621.7"/>
<polygon fill="none" stroke="#000000" points="1018,-621.7 1018,-644.7 1228,-644.7 1228,-621.7 1018,-621.7"/>
<text text-anchor="start" x="1023" y="-630.8" font-family="Helvetica,sans-Serif" font-weight="bold" font-size="11.00" fill="#000000">patients</text>
<text text-anchor="start" x="1193.0437" y="-629.8" font-family="Helvetica,sans-Serif" font-size="11.00" fill="#000000">[table]</text>
<polygon fill="none" stroke="#000000" points="1018,-599.7 1018,-621.7 1228,-621.7 1228,-599.7 1018,-599.7"/>
<image xlink:href="../../images/primaryKeys.png" width="11px" height="12px" preserveAspectRatio="xMinYMin meet" x="1023" y="-616.7"/>
<text text-anchor="start" x="1038" y="-606.8" font-family="Helvetica,sans-Serif" font-size="11.00" fill="#000000">id</text>
<polygon fill="none" stroke="#000000" points="1018,-577.7 1018,-599.7 1228,-599.7 1228,-577.7 1018,-577.7"/>
<image xlink:href="../../images/foreignKeys.png" width="11px" height="12px" preserveAspectRatio="xMinYMin meet" x="1023" y="-594.7"/>
<text text-anchor="start" x="1038" y="-584.8" font-family="Helvetica,sans-Serif" font-size="11.00" fill="#000000">profile_id</text>
<polygon fill="none" stroke="#000000" points="1018,-555.7 1018,-577.7 1228,-577.7 1228,-555.7 1018,-555.7"/>
<image xlink:href="../../images/foreignKeys.png" width="11px" height="12px" preserveAspectRatio="xMinYMin meet" x="1023" y="-572.7"/>
<text text-anchor="start" x="1038" y="-562.8" font-family="Helvetica,sans-Serif" font-size="11.00" fill="#000000">user_id</text>
<polygon fill="none" stroke="#000000" points="1018,-533.7 1018,-555.7 1228,-555.7 1228,-533.7 1018,-533.7"/>
<image xlink:href="../../images/foreignKeys.png" width="11px" height="12px" preserveAspectRatio="xMinYMin meet" x="1023" y="-550.7"/>
<text text-anchor="start" x="1038" y="-540.8" font-family="Helvetica,sans-Serif" font-size="11.00" fill="#000000">company_id</text>
<polygon fill="none" stroke="#000000" points="1018,-511.7 1018,-533.7 1228,-533.7 1228,-511.7 1018,-511.7"/>
<image xlink:href="../../images/foreignKeys.png" width="11px" height="12px" preserveAspectRatio="xMinYMin meet" x="1023" y="-528.7"/>
<text text-anchor="start" x="1038" y="-518.8" font-family="Helvetica,sans-Serif" font-size="11.00" fill="#000000">provider_location_id</text>
<polygon fill="none" stroke="#000000" points="1018,-489.7 1018,-511.7 1228,-511.7 1228,-489.7 1018,-489.7"/>
<image xlink:href="../../images/foreignKeys.png" width="11px" height="12px" preserveAspectRatio="xMinYMin meet" x="1023" y="-506.7"/>
<text text-anchor="start" x="1038" y="-496.8" font-family="Helvetica,sans-Serif" font-size="11.00" fill="#000000">professional_id</text>
<polygon fill="#ffffff" stroke="transparent" points="1018,-467.7 1018,-489.7 1228,-489.7 1228,-467.7 1018,-467.7"/>
<polygon fill="none" stroke="#000000" points="1018,-467.7 1018,-489.7 1228,-489.7 1228,-467.7 1018,-467.7"/>
<text text-anchor="start" x="1038" y="-474.8" font-family="Helvetica,sans-Serif" font-size="11.00" fill="#000000">insurance_policy_id</text>
<polygon fill="none" stroke="#000000" points="1018,-445.7 1018,-467.7 1228,-467.7 1228,-445.7 1018,-445.7"/>
<image xlink:href="../../images/foreignKeys.png" width="11px" height="12px" preserveAspectRatio="xMinYMin meet" x="1023" y="-462.7"/>
<text text-anchor="start" x="1038" y="-452.8" font-family="Helvetica,sans-Serif" font-size="11.00" fill="#000000">main_member_id</text>
<polygon fill="none" stroke="#000000" points="1018,-423.7 1018,-445.7 1228,-445.7 1228,-423.7 1018,-423.7"/>
<image xlink:href="../../images/foreignKeys.png" width="11px" height="12px" preserveAspectRatio="xMinYMin meet" x="1023" y="-440.7"/>
<text text-anchor="start" x="1038" y="-430.8" font-family="Helvetica,sans-Serif" font-size="11.00" fill="#000000">relationship_to_main_member</text>
<polygon fill="none" stroke="#000000" points="1018,-401.7 1018,-423.7 1228,-423.7 1228,-401.7 1018,-401.7"/>
<image xlink:href="../../images/foreignKeys.png" width="11px" height="12px" preserveAspectRatio="xMinYMin meet" x="1023" y="-418.7"/>
<text text-anchor="start" x="1038" y="-408.8" font-family="Helvetica,sans-Serif" font-size="11.00" fill="#000000">accepted_agreement_by_user_id</text>
<polygon fill="none" stroke="#000000" points="1018,-379.7 1018,-401.7 1228,-401.7 1228,-379.7 1018,-379.7"/>
<image xlink:href="../../images/foreignKeys.png" width="11px" height="12px" preserveAspectRatio="xMinYMin meet" x="1023" y="-396.7"/>
<text text-anchor="start" x="1038" y="-386.8" font-family="Helvetica,sans-Serif" font-size="11.00" fill="#000000">created_by_user_id</text>
<polygon fill="none" stroke="#000000" points="1018,-360.7 1018,-379.7 1228,-379.7 1228,-360.7 1018,-360.7"/>
<text text-anchor="start" x="1021" y="-366.8" font-family="Helvetica,sans-Serif" font-size="11.00" fill="#000000">...</text>
<polygon fill="#ffffff" stroke="transparent" points="1018,-341.7 1018,-360.7 1104,-360.7 1104,-341.7 1018,-341.7"/>
<polygon fill="none" stroke="#000000" points="1018,-341.7 1018,-360.7 1104,-360.7 1104,-341.7 1018,-341.7"/>
<text text-anchor="start" x="1021" y="-347.8" font-family="Helvetica,sans-Serif" font-size="11.00" fill="#000000">&lt; 9</text>
<polygon fill="#ffffff" stroke="transparent" points="1104,-341.7 1104,-360.7 1174,-360.7 1174,-341.7 1104,-341.7"/>
<polygon fill="none" stroke="#000000" points="1104,-341.7 1104,-360.7 1174,-360.7 1174,-341.7 1104,-341.7"/>
<text text-anchor="start" x="1138.6105" y="-347.8" font-family="Helvetica,sans-Serif" font-size="11.00" fill="#000000">0 rows</text>
<polygon fill="#ffffff" stroke="transparent" points="1174,-341.7 1174,-360.7 1228,-360.7 1228,-341.7 1174,-341.7"/>
<polygon fill="none" stroke="#000000" points="1174,-341.7 1174,-360.7 1228,-360.7 1228,-341.7 1174,-341.7"/>
<text text-anchor="start" x="1209.4053" y="-347.8" font-family="Helvetica,sans-Serif" font-size="11.00" fill="#000000">2 &gt;</text>
</a>
</g>
</g>
<!-- patients&#45;&gt;companies -->
<g id="edge7" class="edge">
<title>patients:w&#45;&gt;companies:e</title>
<path fill="none" stroke="#000000" d="M1003.8634,-548.5956C995.3795,-554.1237 991.2135,-563.9856 977,-567.7 880.2492,-592.9841 851.5521,-577.1544 752,-567.7 643.8782,-557.4318 612.9543,-561.7498 512,-521.7 491.1987,-513.4479 491.8783,-494.7 469.5,-494.7"/>
<polygon fill="#000000" stroke="#000000" points="1010.2875,-546.8254 1018.9564,-548.1706 1014.1437,-545.7627 1018,-544.7 1018,-544.7 1018,-544.7 1014.1437,-545.7627 1017.0436,-541.2294 1010.2875,-546.8254 1010.2875,-546.8254"/>
<ellipse fill="none" stroke="#000000" cx="1007.2025" cy="-547.6755" rx="3.2" ry="3.2"/>
</g>
<!-- patients&#45;&gt;users -->
<g id="edge6" class="edge">
<title>patients:w&#45;&gt;users:e</title>
<path fill="none" stroke="#000000" d="M1004.0637,-408.6686C941.1696,-380.1866 753.424,-209.9776 719,-194.7 619.4104,-150.5014 587.3828,-155.87 479,-144.7 350.3481,-131.4411 316.719,-132.1087 188,-144.7 169.7394,-146.4863 165.8478,-152.7 147.5,-152.7"/>
<polygon fill="#000000" stroke="#000000" points="1010.3151,-410.4769 1016.9996,-416.1582 1014.1575,-411.5885 1018,-412.7 1018,-412.7 1018,-412.7 1014.1575,-411.5885 1019.0004,-409.2418 1010.3151,-410.4769 1010.3151,-410.4769"/>
<ellipse fill="none" stroke="#000000" cx="1007.2411" cy="-409.5877" rx="3.2" ry="3.2"/>
</g>
<!-- patients&#45;&gt;users -->
<g id="edge8" class="edge">
<title>patients:w&#45;&gt;users:e</title>
<path fill="none" stroke="#000000" d="M1003.6952,-389.0292C950.9731,-374.5715 1028.2516,-269.891 977,-216.7 894.4801,-131.0573 836.385,-164.8038 719,-145.7 485.9948,-107.7797 417.8891,-79.0309 188,-132.7 168.4505,-137.264 167.5752,-152.7 147.5,-152.7"/>
<polygon fill="#000000" stroke="#000000" points="1010.054,-389.7719 1017.5823,-394.2757 1014.027,-390.2359 1018,-390.7 1018,-390.7 1018,-390.7 1014.027,-390.2359 1018.4177,-387.1243 1010.054,-389.7719 1010.054,-389.7719"/>
<ellipse fill="none" stroke="#000000" cx="1006.8756" cy="-389.4006" rx="3.2" ry="3.2"/>
</g>
<!-- patients&#45;&gt;users -->
<g id="edge10" class="edge">
<title>patients:w&#45;&gt;users:e</title>
<path fill="none" stroke="#000000" d="M1003.6464,-569.867C995.3681,-574.0097 990.3009,-581.0518 977,-583.7 878.925,-603.2266 851.9309,-587.4157 752,-583.7 500.8128,-574.3602 368.3331,-716.8062 188,-541.7 125.6472,-481.1544 234.4117,-152.7 147.5,-152.7"/>
<polygon fill="#000000" stroke="#000000" points="1010.1879,-568.4237 1018.7757,-570.2154 1014.0939,-567.5619 1018,-566.7 1018,-566.7 1018,-566.7 1014.0939,-567.5619 1017.2243,-563.1846 1010.1879,-568.4237 1010.1879,-568.4237"/>
<ellipse fill="none" stroke="#000000" cx="1007.0631" cy="-569.1132" rx="3.2" ry="3.2"/>
</g>
<!-- provider_locations -->
<g id="node7" class="node">
<title>provider_locations</title>
<g id="a_node7"><a xlink:href="../../tables/provider_locations.html" xlink:title="provider_locations" target="_top">
<polygon fill="#ffffff" stroke="transparent" points="760,-408.2 760,-557.2 969,-557.2 969,-408.2 760,-408.2"/>
<polygon fill="#f5f5f5" stroke="transparent" points="760.5,-533.7 760.5,-556.7 969.5,-556.7 969.5,-533.7 760.5,-533.7"/>
<polygon fill="none" stroke="#000000" points="760.5,-533.7 760.5,-556.7 969.5,-556.7 969.5,-533.7 760.5,-533.7"/>
<text text-anchor="start" x="765.5" y="-542.8" font-family="Helvetica,sans-Serif" font-weight="bold" font-size="11.00" fill="#000000">provider_locations</text>
<text text-anchor="start" x="934.5437" y="-541.8" font-family="Helvetica,sans-Serif" font-size="11.00" fill="#000000">[table]</text>
<polygon fill="none" stroke="#000000" points="760.5,-511.7 760.5,-533.7 969.5,-533.7 969.5,-511.7 760.5,-511.7"/>
<image xlink:href="../../images/primaryKeys.png" width="11px" height="12px" preserveAspectRatio="xMinYMin meet" x="765.5" y="-528.7"/>
<text text-anchor="start" x="780.5" y="-518.8" font-family="Helvetica,sans-Serif" font-size="11.00" fill="#000000">id</text>
<polygon fill="none" stroke="#000000" points="760.5,-489.7 760.5,-511.7 969.5,-511.7 969.5,-489.7 760.5,-489.7"/>
<image xlink:href="../../images/foreignKeys.png" width="11px" height="12px" preserveAspectRatio="xMinYMin meet" x="765.5" y="-506.7"/>
<text text-anchor="start" x="780.5" y="-496.8" font-family="Helvetica,sans-Serif" font-size="11.00" fill="#000000">company_id</text>
<polygon fill="none" stroke="#000000" points="760.5,-467.7 760.5,-489.7 969.5,-489.7 969.5,-467.7 760.5,-467.7"/>
<image xlink:href="../../images/foreignKeys.png" width="11px" height="12px" preserveAspectRatio="xMinYMin meet" x="765.5" y="-484.7"/>
<text text-anchor="start" x="780.5" y="-474.8" font-family="Helvetica,sans-Serif" font-size="11.00" fill="#000000">address_id</text>
<polygon fill="none" stroke="#000000" points="760.5,-445.7 760.5,-467.7 969.5,-467.7 969.5,-445.7 760.5,-445.7"/>
<image xlink:href="../../images/foreignKeys.png" width="11px" height="12px" preserveAspectRatio="xMinYMin meet" x="765.5" y="-462.7"/>
<text text-anchor="start" x="780.5" y="-452.8" font-family="Helvetica,sans-Serif" font-size="11.00" fill="#000000">company_doing_business_as_id</text>
<polygon fill="none" stroke="#000000" points="760.5,-426.7 760.5,-445.7 969.5,-445.7 969.5,-426.7 760.5,-426.7"/>
<text text-anchor="start" x="763.5" y="-432.8" font-family="Helvetica,sans-Serif" font-size="11.00" fill="#000000">...</text>
<polygon fill="#ffffff" stroke="transparent" points="760.5,-407.7 760.5,-426.7 845.5,-426.7 845.5,-407.7 760.5,-407.7"/>
<polygon fill="none" stroke="#000000" points="760.5,-407.7 760.5,-426.7 845.5,-426.7 845.5,-407.7 760.5,-407.7"/>
<text text-anchor="start" x="763.5" y="-413.8" font-family="Helvetica,sans-Serif" font-size="11.00" fill="#000000">&lt; 3</text>
<polygon fill="#ffffff" stroke="transparent" points="845.5,-407.7 845.5,-426.7 915.5,-426.7 915.5,-407.7 845.5,-407.7"/>
<polygon fill="none" stroke="#000000" points="845.5,-407.7 845.5,-426.7 915.5,-426.7 915.5,-407.7 845.5,-407.7"/>
<text text-anchor="start" x="880.1105" y="-413.8" font-family="Helvetica,sans-Serif" font-size="11.00" fill="#000000">0 rows</text>
<polygon fill="#ffffff" stroke="transparent" points="915.5,-407.7 915.5,-426.7 969.5,-426.7 969.5,-407.7 915.5,-407.7"/>
<polygon fill="none" stroke="#000000" points="915.5,-407.7 915.5,-426.7 969.5,-426.7 969.5,-407.7 915.5,-407.7"/>
<text text-anchor="start" x="950.9053" y="-413.8" font-family="Helvetica,sans-Serif" font-size="11.00" fill="#000000">2 &gt;</text>
</a>
</g>
</g>
<!-- patients&#45;&gt;provider_locations -->
<g id="edge9" class="edge">
<title>patients:w&#45;&gt;provider_locations:e</title>
<path fill="none" stroke="#000000" d="M1003.2829,-522.7C992.2886,-522.7 985.1615,-522.7 969.5,-522.7"/>
<polygon fill="#000000" stroke="#000000" points="1010,-522.7001 1018,-526.3 1014,-522.7 1018,-522.7 1018,-522.7 1018,-522.7 1014,-522.7 1018,-519.1 1010,-522.7001 1010,-522.7001"/>
<ellipse fill="none" stroke="#000000" cx="1006.8" cy="-522.7001" rx="3.2" ry="3.2"/>
</g>
<!-- provider_locations&#45;&gt;companies -->
<g id="edge13" class="edge">
<title>provider_locations:w&#45;&gt;companies:e</title>
<path fill="none" stroke="#000000" d="M746.0499,-502.0679C737.6469,-503.7865 731.6692,-506.639 719,-507.7 627.3209,-515.3777 602.9885,-521.3048 512,-507.7 492.4644,-504.779 489.2528,-494.7 469.5,-494.7"/>
<polygon fill="#000000" stroke="#000000" points="752.5356,-501.454 760.8393,-504.284 756.5178,-501.077 760.5,-500.7 760.5,-500.7 760.5,-500.7 756.5178,-501.077 760.1607,-497.116 752.5356,-501.454 752.5356,-501.454"/>
<ellipse fill="none" stroke="#000000" cx="749.3498" cy="-501.7556" rx="3.2" ry="3.2"/>
</g>
<!-- provider_locations&#45;&gt;addresses -->
<g id="edge11" class="edge">
<title>provider_locations:w&#45;&gt;addresses:e</title>
<path fill="none" stroke="#000000" d="M746.5561,-482.6748C737.3475,-489.1137 734.2107,-501.707 719,-507.7 618.7676,-547.1916 586.4651,-534.1257 479,-541.7 349.9867,-550.793 307.9792,-589.9917 188,-541.7 151.696,-527.0876 163.6345,-480.7 124.5,-480.7"/>
<polygon fill="#000000" stroke="#000000" points="752.8065,-480.8931 761.4869,-482.1621 756.6532,-479.7966 760.5,-478.7 760.5,-478.7 760.5,-478.7 756.6532,-479.7966 759.5131,-475.2379 752.8065,-480.8931 752.8065,-480.8931"/>
<ellipse fill="none" stroke="#000000" cx="749.7291" cy="-481.7704" rx="3.2" ry="3.2"/>
</g>
<!-- provider_locations&#45;&gt;company_doing_business_as -->
<g id="edge12" class="edge">
<title>provider_locations:w&#45;&gt;company_doing_business_as:e</title>
<path fill="none" stroke="#000000" d="M745.9463,-457.7451C734.6532,-459.4642 727.6125,-462.7 711.5,-462.7"/>
<polygon fill="#000000" stroke="#000000" points="752.5205,-457.2731 760.7579,-460.2908 756.5103,-456.9865 760.5,-456.7 760.5,-456.7 760.5,-456.7 756.5103,-456.9865 760.2421,-453.1092 752.5205,-457.2731 752.5205,-457.2731"/>
<ellipse fill="none" stroke="#000000" cx="749.3288" cy="-457.5023" rx="3.2" ry="3.2"/>
</g>
</g>
</svg>
