<?xml version="1.0" encoding="UTF-8" standalone="no"?>
<!DOCTYPE svg PUBLIC "-//W3C//DTD SVG 1.1//EN"
 "http://www.w3.org/Graphics/SVG/1.1/DTD/svg11.dtd">
<!-- Generated by graphviz version 2.40.1 (20161225.0304)
 -->
<!-- Title: twoDegreesRelationshipsDiagram Pages: 1 -->
<svg width="1139pt" height="419pt"
 viewBox="0.00 0.00 1139.00 419.20" xmlns="http://www.w3.org/2000/svg" xmlns:xlink="http://www.w3.org/1999/xlink">
<g id="graph0" class="graph" transform="scale(1 1) rotate(0) translate(4 415.2)">
<title>twoDegreesRelationshipsDiagram</title>
<polygon fill="#ffffff" stroke="transparent" points="-4,4 -4,-415.2 1135,-415.2 1135,4 -4,4"/>
<text text-anchor="middle" x="72.4936" y="-7.3" font-family="Helvetica,sans-Serif" font-size="11.00" fill="#000000">Generated by SchemaSpy</text>
<!-- companies -->
<g id="node1" class="node">
<title>companies</title>
<g id="a_node1"><a xlink:href="../../tables/companies.html" xlink:title="companies" target="_top">
<polygon fill="#ffffff" stroke="transparent" points="150,-157.2 150,-284.2 327,-284.2 327,-157.2 150,-157.2"/>
<polygon fill="#f5f5f5" stroke="transparent" points="150.5,-260.7 150.5,-283.7 327.5,-283.7 327.5,-260.7 150.5,-260.7"/>
<polygon fill="none" stroke="#000000" points="150.5,-260.7 150.5,-283.7 327.5,-283.7 327.5,-260.7 150.5,-260.7"/>
<text text-anchor="start" x="155.5" y="-269.8" font-family="Helvetica,sans-Serif" font-weight="bold" font-size="11.00" fill="#000000">companies</text>
<text text-anchor="start" x="292.5437" y="-268.8" font-family="Helvetica,sans-Serif" font-size="11.00" fill="#000000">[table]</text>
<polygon fill="none" stroke="#000000" points="150.5,-238.7 150.5,-260.7 327.5,-260.7 327.5,-238.7 150.5,-238.7"/>
<image xlink:href="../../images/primaryKeys.png" width="11px" height="12px" preserveAspectRatio="xMinYMin meet" x="155.5" y="-255.7"/>
<text text-anchor="start" x="170.5" y="-245.8" font-family="Helvetica,sans-Serif" font-size="11.00" fill="#000000">id</text>
<polygon fill="none" stroke="#000000" points="150.5,-216.7 150.5,-238.7 327.5,-238.7 327.5,-216.7 150.5,-216.7"/>
<image xlink:href="../../images/foreignKeys.png" width="11px" height="12px" preserveAspectRatio="xMinYMin meet" x="155.5" y="-233.7"/>
<text text-anchor="start" x="170.5" y="-223.8" font-family="Helvetica,sans-Serif" font-size="11.00" fill="#000000">physical_address_id</text>
<polygon fill="none" stroke="#000000" points="150.5,-194.7 150.5,-216.7 327.5,-216.7 327.5,-194.7 150.5,-194.7"/>
<image xlink:href="../../images/foreignKeys.png" width="11px" height="12px" preserveAspectRatio="xMinYMin meet" x="155.5" y="-211.7"/>
<text text-anchor="start" x="170.5" y="-201.8" font-family="Helvetica,sans-Serif" font-size="11.00" fill="#000000">created_by_user_id</text>
<polygon fill="none" stroke="#000000" points="150.5,-175.7 150.5,-194.7 327.5,-194.7 327.5,-175.7 150.5,-175.7"/>
<text text-anchor="start" x="153.5" y="-181.8" font-family="Helvetica,sans-Serif" font-size="11.00" fill="#000000">...</text>
<polygon fill="#ffffff" stroke="transparent" points="150.5,-156.7 150.5,-175.7 219.5,-175.7 219.5,-156.7 150.5,-156.7"/>
<polygon fill="none" stroke="#000000" points="150.5,-156.7 150.5,-175.7 219.5,-175.7 219.5,-156.7 150.5,-156.7"/>
<text text-anchor="start" x="153.5" y="-162.8" font-family="Helvetica,sans-Serif" font-size="11.00" fill="#000000">&lt; 2</text>
<polygon fill="#ffffff" stroke="transparent" points="219.5,-156.7 219.5,-175.7 281.5,-175.7 281.5,-156.7 219.5,-156.7"/>
<polygon fill="none" stroke="#000000" points="219.5,-156.7 219.5,-175.7 281.5,-175.7 281.5,-156.7 219.5,-156.7"/>
<text text-anchor="start" x="246.1105" y="-162.8" font-family="Helvetica,sans-Serif" font-size="11.00" fill="#000000">0 rows</text>
<polygon fill="#ffffff" stroke="transparent" points="281.5,-156.7 281.5,-175.7 327.5,-175.7 327.5,-156.7 281.5,-156.7"/>
<polygon fill="none" stroke="#000000" points="281.5,-156.7 281.5,-175.7 327.5,-175.7 327.5,-156.7 281.5,-156.7"/>
<text text-anchor="start" x="308.9053" y="-162.8" font-family="Helvetica,sans-Serif" font-size="11.00" fill="#000000">4 &gt;</text>
</a>
</g>
</g>
<!-- users -->
<g id="node2" class="node">
<title>users</title>
<g id="a_node2"><a xlink:href="../../tables/users.html" xlink:title="users" target="_top">
<polygon fill="#ffffff" stroke="transparent" points="14.5,-38.2 14.5,-99.2 94.5,-99.2 94.5,-38.2 14.5,-38.2"/>
<polygon fill="#f5f5f5" stroke="transparent" points="14.5,-75.7 14.5,-98.7 94.5,-98.7 94.5,-75.7 14.5,-75.7"/>
<polygon fill="none" stroke="#000000" points="14.5,-75.7 14.5,-98.7 94.5,-98.7 94.5,-75.7 14.5,-75.7"/>
<text text-anchor="start" x="19.5" y="-84.8" font-family="Helvetica,sans-Serif" font-weight="bold" font-size="11.00" fill="#000000">users</text>
<text text-anchor="start" x="59.5437" y="-83.8" font-family="Helvetica,sans-Serif" font-size="11.00" fill="#000000">[table]</text>
<polygon fill="none" stroke="#000000" points="14.5,-56.7 14.5,-75.7 94.5,-75.7 94.5,-56.7 14.5,-56.7"/>
<text text-anchor="start" x="17.5" y="-62.8" font-family="Helvetica,sans-Serif" font-size="11.00" fill="#000000">...</text>
<polygon fill="#ffffff" stroke="transparent" points="14.5,-37.7 14.5,-56.7 35.5,-56.7 35.5,-37.7 14.5,-37.7"/>
<polygon fill="none" stroke="#000000" points="14.5,-37.7 14.5,-56.7 35.5,-56.7 35.5,-37.7 14.5,-37.7"/>
<text text-anchor="start" x="17.2026" y="-43.8" font-family="Helvetica,sans-Serif" font-size="11.00" fill="#000000">&lt; 1</text>
<polygon fill="#ffffff" stroke="transparent" points="35.5,-37.7 35.5,-56.7 73.5,-56.7 73.5,-37.7 35.5,-37.7"/>
<polygon fill="none" stroke="#000000" points="35.5,-37.7 35.5,-56.7 73.5,-56.7 73.5,-37.7 35.5,-37.7"/>
<text text-anchor="start" x="38.3053" y="-43.8" font-family="Helvetica,sans-Serif" font-size="11.00" fill="#000000">0 rows</text>
<polygon fill="#ffffff" stroke="transparent" points="73.5,-37.7 73.5,-56.7 94.5,-56.7 94.5,-37.7 73.5,-37.7"/>
<polygon fill="none" stroke="#000000" points="73.5,-37.7 73.5,-56.7 94.5,-56.7 94.5,-37.7 73.5,-37.7"/>
<text text-anchor="start" x="76.2027" y="-43.8" font-family="Helvetica,sans-Serif" font-size="11.00" fill="#000000">8 &gt;</text>
</a>
</g>
</g>
<!-- companies&#45;&gt;users -->
<g id="edge1" class="edge">
<title>companies:w&#45;&gt;users:e</title>
<path fill="none" stroke="#000000" d="M136.2521,-202.7759C95.825,-182.6714 155.7562,-65.7 94.5,-65.7"/>
<polygon fill="#000000" stroke="#000000" points="142.6633,-204.0916 149.7762,-209.2265 146.5817,-204.8958 150.5,-205.7 150.5,-205.7 150.5,-205.7 146.5817,-204.8958 151.2238,-202.1735 142.6633,-204.0916 142.6633,-204.0916"/>
<ellipse fill="none" stroke="#000000" cx="139.5287" cy="-203.4483" rx="3.2" ry="3.2"/>
</g>
<!-- addresses -->
<g id="node3" class="node">
<title>addresses</title>
<g id="a_node3"><a xlink:href="../../tables/addresses.html" xlink:title="addresses" target="_top">
<polygon fill="#ffffff" stroke="transparent" points="8,-260.2 8,-321.2 101,-321.2 101,-260.2 8,-260.2"/>
<polygon fill="#f5f5f5" stroke="transparent" points="8.5,-297.7 8.5,-320.7 101.5,-320.7 101.5,-297.7 8.5,-297.7"/>
<polygon fill="none" stroke="#000000" points="8.5,-297.7 8.5,-320.7 101.5,-320.7 101.5,-297.7 8.5,-297.7"/>
<text text-anchor="start" x="13.1318" y="-306.8" font-family="Helvetica,sans-Serif" font-weight="bold" font-size="11.00" fill="#000000">addresses</text>
<text text-anchor="start" x="67.0219" y="-305.8" font-family="Helvetica,sans-Serif" font-size="11.00" fill="#000000">[table]</text>
<polygon fill="none" stroke="#000000" points="8.5,-278.7 8.5,-297.7 101.5,-297.7 101.5,-278.7 8.5,-278.7"/>
<text text-anchor="start" x="11.5" y="-284.8" font-family="Helvetica,sans-Serif" font-size="11.00" fill="#000000">...</text>
<polygon fill="#ffffff" stroke="transparent" points="8.5,-259.7 8.5,-278.7 31.5,-278.7 31.5,-259.7 8.5,-259.7"/>
<polygon fill="none" stroke="#000000" points="8.5,-259.7 8.5,-278.7 31.5,-278.7 31.5,-259.7 8.5,-259.7"/>
<text text-anchor="start" x="11.5" y="-265.8" font-family="Helvetica,sans-Serif" font-size="11.00" fill="#000000"> &#160;</text>
<polygon fill="#ffffff" stroke="transparent" points="31.5,-259.7 31.5,-278.7 74.5,-278.7 74.5,-259.7 31.5,-259.7"/>
<polygon fill="none" stroke="#000000" points="31.5,-259.7 31.5,-278.7 74.5,-278.7 74.5,-259.7 31.5,-259.7"/>
<text text-anchor="start" x="39.1105" y="-265.8" font-family="Helvetica,sans-Serif" font-size="11.00" fill="#000000">0 rows</text>
<polygon fill="#ffffff" stroke="transparent" points="74.5,-259.7 74.5,-278.7 101.5,-278.7 101.5,-259.7 74.5,-259.7"/>
<polygon fill="none" stroke="#000000" points="74.5,-259.7 74.5,-278.7 101.5,-278.7 101.5,-259.7 74.5,-259.7"/>
<text text-anchor="start" x="82.9053" y="-265.8" font-family="Helvetica,sans-Serif" font-size="11.00" fill="#000000">3 &gt;</text>
</a>
</g>
</g>
<!-- companies&#45;&gt;addresses -->
<g id="edge2" class="edge">
<title>companies:w&#45;&gt;addresses:e</title>
<path fill="none" stroke="#000000" d="M136.569,-232.8156C121.4545,-247.3252 129.7429,-287.7 101.5,-287.7"/>
<polygon fill="#000000" stroke="#000000" points="142.9903,-230.4576 151.7409,-231.0794 146.7451,-229.0788 150.5,-227.7 150.5,-227.7 150.5,-227.7 146.7451,-229.0788 149.2591,-224.3206 142.9903,-230.4576 142.9903,-230.4576"/>
<ellipse fill="none" stroke="#000000" cx="139.9864" cy="-231.5607" rx="3.2" ry="3.2"/>
</g>
<!-- company_doing_business_as -->
<g id="node4" class="node">
<title>company_doing_business_as</title>
<g id="a_node4"><a xlink:href="../../tables/company_doing_business_as.html" xlink:title="company_doing_business_as" target="_top">
<polygon fill="#ffffff" stroke="transparent" points="376,-211.7 376,-323.7 665,-323.7 665,-211.7 376,-211.7"/>
<polygon fill="#f5f5f5" stroke="transparent" points="378.5,-298.7 378.5,-321.7 663.5,-321.7 663.5,-298.7 378.5,-298.7"/>
<polygon fill="none" stroke="#000000" points="378.5,-298.7 378.5,-321.7 663.5,-321.7 663.5,-298.7 378.5,-298.7"/>
<text text-anchor="start" x="383.5" y="-307.8" font-family="Helvetica,sans-Serif" font-weight="bold" font-size="11.00" fill="#000000">company_doing_business_as</text>
<text text-anchor="start" x="628.5437" y="-306.8" font-family="Helvetica,sans-Serif" font-size="11.00" fill="#000000">[table]</text>
<polygon fill="none" stroke="#000000" points="378.5,-276.7 378.5,-298.7 569.5,-298.7 569.5,-276.7 378.5,-276.7"/>
<image xlink:href="../../images/primaryKeys.png" width="11px" height="12px" preserveAspectRatio="xMinYMin meet" x="383.5" y="-293.7"/>
<text text-anchor="start" x="398.5" y="-283.8" font-family="Helvetica,sans-Serif" font-size="11.00" fill="#000000">id</text>
<polygon fill="none" stroke="#000000" points="569.5,-276.7 569.5,-298.7 663.5,-298.7 663.5,-276.7 569.5,-276.7"/>
<text text-anchor="start" x="572.4758" y="-284.4" font-family="Helvetica,sans-Serif" font-size="11.00" fill="#000000">uuid[2147483647]</text>
<polygon fill="none" stroke="#000000" points="378.5,-254.7 378.5,-276.7 569.5,-276.7 569.5,-254.7 378.5,-254.7"/>
<image xlink:href="../../images/foreignKeys.png" width="11px" height="12px" preserveAspectRatio="xMinYMin meet" x="383.5" y="-271.7"/>
<text text-anchor="start" x="398.5" y="-261.8" font-family="Helvetica,sans-Serif" font-size="11.00" fill="#000000">company_id</text>
<polygon fill="none" stroke="#000000" points="569.5,-254.7 569.5,-276.7 663.5,-276.7 663.5,-254.7 569.5,-254.7"/>
<text text-anchor="start" x="572.4758" y="-262.4" font-family="Helvetica,sans-Serif" font-size="11.00" fill="#000000">uuid[2147483647]</text>
<polygon fill="none" stroke="#000000" points="378.5,-232.7 378.5,-254.7 569.5,-254.7 569.5,-232.7 378.5,-232.7"/>
<text text-anchor="start" x="398.5" y="-239.8" font-family="Helvetica,sans-Serif" font-size="11.00" fill="#000000">name</text>
<polygon fill="none" stroke="#000000" points="569.5,-232.7 569.5,-254.7 663.5,-254.7 663.5,-232.7 569.5,-232.7"/>
<text text-anchor="start" x="572.5" y="-240.4" font-family="Helvetica,sans-Serif" font-size="11.00" fill="#000000">text[2147483647]</text>
<polygon fill="#ffffff" stroke="transparent" points="378.5,-213.7 378.5,-232.7 465.5,-232.7 465.5,-213.7 378.5,-213.7"/>
<polygon fill="none" stroke="#000000" points="378.5,-213.7 378.5,-232.7 465.5,-232.7 465.5,-213.7 378.5,-213.7"/>
<text text-anchor="start" x="381.5" y="-219.8" font-family="Helvetica,sans-Serif" font-size="11.00" fill="#000000">&lt; 1</text>
<polygon fill="#ffffff" stroke="transparent" points="465.5,-213.7 465.5,-232.7 569.5,-232.7 569.5,-213.7 465.5,-213.7"/>
<polygon fill="none" stroke="#000000" points="465.5,-213.7 465.5,-232.7 569.5,-232.7 569.5,-213.7 465.5,-213.7"/>
<text text-anchor="start" x="534.1105" y="-219.8" font-family="Helvetica,sans-Serif" font-size="11.00" fill="#000000">0 rows</text>
<polygon fill="#ffffff" stroke="transparent" points="569.5,-213.7 569.5,-232.7 663.5,-232.7 663.5,-213.7 569.5,-213.7"/>
<polygon fill="none" stroke="#000000" points="569.5,-213.7 569.5,-232.7 663.5,-232.7 663.5,-213.7 569.5,-213.7"/>
<text text-anchor="start" x="644.9053" y="-219.8" font-family="Helvetica,sans-Serif" font-size="11.00" fill="#000000">1 &gt;</text>
<polygon fill="none" stroke="#000000" stroke-width="2" points="377,-212.7 377,-322.7 664,-322.7 664,-212.7 377,-212.7"/>
</a>
</g>
</g>
<!-- company_doing_business_as&#45;&gt;companies -->
<g id="edge3" class="edge">
<title>company_doing_business_as:w&#45;&gt;companies:e</title>
<path fill="none" stroke="#000000" d="M364.2304,-263.3391C351.8657,-258.8885 345.5026,-249.7 327.5,-249.7"/>
<polygon fill="#000000" stroke="#000000" points="370.6073,-264.3941 377.9124,-269.2517 374.5536,-265.0471 378.5,-265.7 378.5,-265.7 378.5,-265.7 374.5536,-265.0471 379.0876,-262.1483 370.6073,-264.3941 370.6073,-264.3941"/>
<ellipse fill="none" stroke="#000000" cx="367.4502" cy="-263.8718" rx="3.2" ry="3.2"/>
</g>
<!-- company_users -->
<g id="node5" class="node">
<title>company_users</title>
<g id="a_node5"><a xlink:href="../../tables/company_users.html" xlink:title="company_users" target="_top">
<polygon fill="#ffffff" stroke="transparent" points="460.5,-102.2 460.5,-163.2 580.5,-163.2 580.5,-102.2 460.5,-102.2"/>
<polygon fill="#f5f5f5" stroke="transparent" points="460.5,-139.7 460.5,-162.7 580.5,-162.7 580.5,-139.7 460.5,-139.7"/>
<polygon fill="none" stroke="#000000" points="460.5,-139.7 460.5,-162.7 580.5,-162.7 580.5,-139.7 460.5,-139.7"/>
<text text-anchor="start" x="465.186" y="-148.8" font-family="Helvetica,sans-Serif" font-weight="bold" font-size="11.00" fill="#000000">company_users</text>
<text text-anchor="start" x="546.0219" y="-147.8" font-family="Helvetica,sans-Serif" font-size="11.00" fill="#000000">[table]</text>
<polygon fill="none" stroke="#000000" points="460.5,-120.7 460.5,-139.7 580.5,-139.7 580.5,-120.7 460.5,-120.7"/>
<text text-anchor="start" x="463.5" y="-126.8" font-family="Helvetica,sans-Serif" font-size="11.00" fill="#000000">...</text>
<polygon fill="#ffffff" stroke="transparent" points="460.5,-101.7 460.5,-120.7 505.5,-120.7 505.5,-101.7 460.5,-101.7"/>
<polygon fill="none" stroke="#000000" points="460.5,-101.7 460.5,-120.7 505.5,-120.7 505.5,-101.7 460.5,-101.7"/>
<text text-anchor="start" x="463.5" y="-107.8" font-family="Helvetica,sans-Serif" font-size="11.00" fill="#000000">&lt; 2</text>
<polygon fill="#ffffff" stroke="transparent" points="505.5,-101.7 505.5,-120.7 555.5,-120.7 555.5,-101.7 505.5,-101.7"/>
<polygon fill="none" stroke="#000000" points="505.5,-101.7 505.5,-120.7 555.5,-120.7 555.5,-101.7 505.5,-101.7"/>
<text text-anchor="start" x="520.1105" y="-107.8" font-family="Helvetica,sans-Serif" font-size="11.00" fill="#000000">0 rows</text>
<polygon fill="#ffffff" stroke="transparent" points="555.5,-101.7 555.5,-120.7 580.5,-120.7 580.5,-101.7 555.5,-101.7"/>
<polygon fill="none" stroke="#000000" points="555.5,-101.7 555.5,-120.7 580.5,-120.7 580.5,-101.7 555.5,-101.7"/>
<text text-anchor="start" x="571.3862" y="-107.8" font-family="Helvetica,sans-Serif" font-size="11.00" fill="#000000"> &#160;</text>
</a>
</g>
</g>
<!-- company_users&#45;&gt;companies -->
<g id="edge4" class="edge">
<title>company_users:w&#45;&gt;companies:e</title>
<path fill="none" stroke="#000000" d="M445.9683,-130.3093C411.0021,-133.4913 397.5263,-149.153 368,-177.7 341.6045,-203.2201 364.2151,-249.7 327.5,-249.7"/>
<polygon fill="#000000" stroke="#000000" points="452.507,-130.0352 460.6508,-133.2968 456.5035,-129.8676 460.5,-129.7 460.5,-129.7 460.5,-129.7 456.5035,-129.8676 460.3492,-126.1032 452.507,-130.0352 452.507,-130.0352"/>
<ellipse fill="none" stroke="#000000" cx="449.3098" cy="-130.1693" rx="3.2" ry="3.2"/>
</g>
<!-- company_users&#45;&gt;users -->
<g id="edge5" class="edge">
<title>company_users:w&#45;&gt;users:e</title>
<path fill="none" stroke="#000000" d="M445.8186,-129.6903C314.8835,-129.4982 274.3035,-126.0923 142,-87.7 119.6562,-81.2162 117.7655,-65.7 94.5,-65.7"/>
<polygon fill="#000000" stroke="#000000" points="452.5,-129.6946 460.4976,-133.3 456.5,-129.6973 460.5,-129.7 460.5,-129.7 460.5,-129.7 456.5,-129.6973 460.5024,-126.1 452.5,-129.6946 452.5,-129.6946"/>
<ellipse fill="none" stroke="#000000" cx="449.3" cy="-129.6925" rx="3.2" ry="3.2"/>
</g>
<!-- patients -->
<g id="node6" class="node">
<title>patients</title>
<g id="a_node6"><a xlink:href="../../tables/patients.html" xlink:title="patients" target="_top">
<polygon fill="#ffffff" stroke="transparent" points="1007,-38.2 1007,-99.2 1088,-99.2 1088,-38.2 1007,-38.2"/>
<polygon fill="#f5f5f5" stroke="transparent" points="1007.5,-75.7 1007.5,-98.7 1088.5,-98.7 1088.5,-75.7 1007.5,-75.7"/>
<polygon fill="none" stroke="#000000" points="1007.5,-75.7 1007.5,-98.7 1088.5,-98.7 1088.5,-75.7 1007.5,-75.7"/>
<text text-anchor="start" x="1012.2429" y="-84.8" font-family="Helvetica,sans-Serif" font-weight="bold" font-size="11.00" fill="#000000">patients</text>
<text text-anchor="start" x="1054.0219" y="-83.8" font-family="Helvetica,sans-Serif" font-size="11.00" fill="#000000">[table]</text>
<polygon fill="none" stroke="#000000" points="1007.5,-56.7 1007.5,-75.7 1088.5,-75.7 1088.5,-56.7 1007.5,-56.7"/>
<text text-anchor="start" x="1010.5" y="-62.8" font-family="Helvetica,sans-Serif" font-size="11.00" fill="#000000">...</text>
<polygon fill="#ffffff" stroke="transparent" points="1007.5,-37.7 1007.5,-56.7 1028.5,-56.7 1028.5,-37.7 1007.5,-37.7"/>
<polygon fill="none" stroke="#000000" points="1007.5,-37.7 1007.5,-56.7 1028.5,-56.7 1028.5,-37.7 1007.5,-37.7"/>
<text text-anchor="start" x="1010.2027" y="-43.8" font-family="Helvetica,sans-Serif" font-size="11.00" fill="#000000">&lt; 9</text>
<polygon fill="#ffffff" stroke="transparent" points="1028.5,-37.7 1028.5,-56.7 1066.5,-56.7 1066.5,-37.7 1028.5,-37.7"/>
<polygon fill="none" stroke="#000000" points="1028.5,-37.7 1028.5,-56.7 1066.5,-56.7 1066.5,-37.7 1028.5,-37.7"/>
<text text-anchor="start" x="1031.3052" y="-43.8" font-family="Helvetica,sans-Serif" font-size="11.00" fill="#000000">0 rows</text>
<polygon fill="#ffffff" stroke="transparent" points="1066.5,-37.7 1066.5,-56.7 1088.5,-56.7 1088.5,-37.7 1066.5,-37.7"/>
<polygon fill="none" stroke="#000000" points="1066.5,-37.7 1066.5,-56.7 1088.5,-56.7 1088.5,-37.7 1066.5,-37.7"/>
<text text-anchor="start" x="1069.9053" y="-43.8" font-family="Helvetica,sans-Serif" font-size="11.00" fill="#000000">2 &gt;</text>
</a>
</g>
</g>
<!-- patients&#45;&gt;companies -->
<g id="edge7" class="edge">
<title>patients:w&#45;&gt;companies:e</title>
<path fill="none" stroke="#000000" d="M993.1668,-68.8203C929.69,-86.181 690.1565,-170.2169 673,-173.7 606.3175,-187.238 428.2215,-169.0266 368,-200.7 342.994,-213.8519 355.7537,-249.7 327.5,-249.7"/>
<polygon fill="#000000" stroke="#000000" points="999.6831,-67.4017 1008.2658,-69.2176 1003.5915,-66.5509 1007.5,-65.7 1007.5,-65.7 1007.5,-65.7 1003.5915,-66.5509 1006.7342,-62.1824 999.6831,-67.4017 999.6831,-67.4017"/>
<ellipse fill="none" stroke="#000000" cx="996.5563" cy="-68.0824" rx="3.2" ry="3.2"/>
</g>
<!-- patients&#45;&gt;users -->
<g id="edge6" class="edge">
<title>patients:w&#45;&gt;users:e</title>
<path fill="none" stroke="#000000" d="M993.0668,-65.7C599.2515,-65.7 495.4235,-65.7 94.5,-65.7"/>
<polygon fill="#000000" stroke="#000000" points="999.5,-65.7001 1007.5,-69.3 1003.5,-65.7 1007.5,-65.7 1007.5,-65.7 1007.5,-65.7 1003.5,-65.7 1007.5,-62.1 999.5,-65.7001 999.5,-65.7001"/>
<ellipse fill="none" stroke="#000000" cx="996.3" cy="-65.7001" rx="3.2" ry="3.2"/>
</g>
<!-- patients&#45;&gt;users -->
<g id="edge8" class="edge">
<title>patients:w&#45;&gt;users:e</title>
<path fill="none" stroke="#000000" d="M993.0668,-65.4872C599.2515,-59.7009 495.4235,-59.7718 94.5,-65.7"/>
<polygon fill="#000000" stroke="#000000" points="999.5009,-65.582 1007.4469,-69.2996 1003.5004,-65.641 1007.5,-65.7 1007.5,-65.7 1007.5,-65.7 1003.5004,-65.641 1007.5531,-62.1004 999.5009,-65.582 999.5009,-65.582"/>
<ellipse fill="none" stroke="#000000" cx="996.3012" cy="-65.5348" rx="3.2" ry="3.2"/>
</g>
<!-- patients&#45;&gt;users -->
<g id="edge10" class="edge">
<title>patients:w&#45;&gt;users:e</title>
<path fill="none" stroke="#000000" d="M993.0668,-65.9482C599.2515,-72.699 495.4235,-72.6163 94.5,-65.7"/>
<polygon fill="#000000" stroke="#000000" points="999.5012,-65.8376 1007.5619,-69.2995 1003.5006,-65.7688 1007.5,-65.7 1007.5,-65.7 1007.5,-65.7 1003.5006,-65.7688 1007.4381,-62.1005 999.5012,-65.8376 999.5012,-65.8376"/>
<ellipse fill="none" stroke="#000000" cx="996.3017" cy="-65.8927" rx="3.2" ry="3.2"/>
</g>
<!-- provider_locations -->
<g id="node7" class="node">
<title>provider_locations</title>
<g id="a_node7"><a xlink:href="../../tables/provider_locations.html" xlink:title="provider_locations" target="_top">
<polygon fill="#ffffff" stroke="transparent" points="714,-258.2 714,-407.2 923,-407.2 923,-258.2 714,-258.2"/>
<polygon fill="#f5f5f5" stroke="transparent" points="714.5,-383.7 714.5,-406.7 923.5,-406.7 923.5,-383.7 714.5,-383.7"/>
<polygon fill="none" stroke="#000000" points="714.5,-383.7 714.5,-406.7 923.5,-406.7 923.5,-383.7 714.5,-383.7"/>
<text text-anchor="start" x="719.5" y="-392.8" font-family="Helvetica,sans-Serif" font-weight="bold" font-size="11.00" fill="#000000">provider_locations</text>
<text text-anchor="start" x="888.5437" y="-391.8" font-family="Helvetica,sans-Serif" font-size="11.00" fill="#000000">[table]</text>
<polygon fill="none" stroke="#000000" points="714.5,-361.7 714.5,-383.7 923.5,-383.7 923.5,-361.7 714.5,-361.7"/>
<image xlink:href="../../images/primaryKeys.png" width="11px" height="12px" preserveAspectRatio="xMinYMin meet" x="719.5" y="-378.7"/>
<text text-anchor="start" x="734.5" y="-368.8" font-family="Helvetica,sans-Serif" font-size="11.00" fill="#000000">id</text>
<polygon fill="none" stroke="#000000" points="714.5,-339.7 714.5,-361.7 923.5,-361.7 923.5,-339.7 714.5,-339.7"/>
<image xlink:href="../../images/foreignKeys.png" width="11px" height="12px" preserveAspectRatio="xMinYMin meet" x="719.5" y="-356.7"/>
<text text-anchor="start" x="734.5" y="-346.8" font-family="Helvetica,sans-Serif" font-size="11.00" fill="#000000">company_id</text>
<polygon fill="none" stroke="#000000" points="714.5,-317.7 714.5,-339.7 923.5,-339.7 923.5,-317.7 714.5,-317.7"/>
<image xlink:href="../../images/foreignKeys.png" width="11px" height="12px" preserveAspectRatio="xMinYMin meet" x="719.5" y="-334.7"/>
<text text-anchor="start" x="734.5" y="-324.8" font-family="Helvetica,sans-Serif" font-size="11.00" fill="#000000">address_id</text>
<polygon fill="none" stroke="#000000" points="714.5,-295.7 714.5,-317.7 923.5,-317.7 923.5,-295.7 714.5,-295.7"/>
<image xlink:href="../../images/foreignKeys.png" width="11px" height="12px" preserveAspectRatio="xMinYMin meet" x="719.5" y="-312.7"/>
<text text-anchor="start" x="734.5" y="-302.8" font-family="Helvetica,sans-Serif" font-size="11.00" fill="#000000">company_doing_business_as_id</text>
<polygon fill="none" stroke="#000000" points="714.5,-276.7 714.5,-295.7 923.5,-295.7 923.5,-276.7 714.5,-276.7"/>
<text text-anchor="start" x="717.5" y="-282.8" font-family="Helvetica,sans-Serif" font-size="11.00" fill="#000000">...</text>
<polygon fill="#ffffff" stroke="transparent" points="714.5,-257.7 714.5,-276.7 799.5,-276.7 799.5,-257.7 714.5,-257.7"/>
<polygon fill="none" stroke="#000000" points="714.5,-257.7 714.5,-276.7 799.5,-276.7 799.5,-257.7 714.5,-257.7"/>
<text text-anchor="start" x="717.5" y="-263.8" font-family="Helvetica,sans-Serif" font-size="11.00" fill="#000000">&lt; 3</text>
<polygon fill="#ffffff" stroke="transparent" points="799.5,-257.7 799.5,-276.7 869.5,-276.7 869.5,-257.7 799.5,-257.7"/>
<polygon fill="none" stroke="#000000" points="799.5,-257.7 799.5,-276.7 869.5,-276.7 869.5,-257.7 799.5,-257.7"/>
<text text-anchor="start" x="834.1105" y="-263.8" font-family="Helvetica,sans-Serif" font-size="11.00" fill="#000000">0 rows</text>
<polygon fill="#ffffff" stroke="transparent" points="869.5,-257.7 869.5,-276.7 923.5,-276.7 923.5,-257.7 869.5,-257.7"/>
<polygon fill="none" stroke="#000000" points="869.5,-257.7 869.5,-276.7 923.5,-276.7 923.5,-257.7 869.5,-257.7"/>
<text text-anchor="start" x="904.9053" y="-263.8" font-family="Helvetica,sans-Serif" font-size="11.00" fill="#000000">2 &gt;</text>
</a>
</g>
</g>
<!-- patients&#45;&gt;provider_locations -->
<g id="edge9" class="edge">
<title>patients:w&#45;&gt;provider_locations:e</title>
<path fill="none" stroke="#000000" d="M993.7651,-70.5222C944.5932,-109.5792 988.9804,-372.7 923.5,-372.7"/>
<polygon fill="#000000" stroke="#000000" points="999.9517,-68.3502 1008.6926,-69.0967 1003.7259,-67.0251 1007.5,-65.7 1007.5,-65.7 1007.5,-65.7 1003.7259,-67.0251 1006.3074,-62.3033 999.9517,-68.3502 999.9517,-68.3502"/>
<ellipse fill="none" stroke="#000000" cx="996.9324" cy="-69.4103" rx="3.2" ry="3.2"/>
</g>
<!-- provider_locations&#45;&gt;companies -->
<g id="edge14" class="edge">
<title>provider_locations:w&#45;&gt;companies:e</title>
<path fill="none" stroke="#000000" d="M699.8699,-350.905C556.1359,-354.9349 492.3805,-416.132 368,-333.7 333.4523,-310.8038 368.9461,-249.7 327.5,-249.7"/>
<polygon fill="#000000" stroke="#000000" points="706.5008,-350.8121 714.5505,-354.2996 710.5004,-350.7561 714.5,-350.7 714.5,-350.7 714.5,-350.7 710.5004,-350.7561 714.4495,-347.1004 706.5008,-350.8121 706.5008,-350.8121"/>
<ellipse fill="none" stroke="#000000" cx="703.3011" cy="-350.857" rx="3.2" ry="3.2"/>
</g>
<!-- provider_locations&#45;&gt;addresses -->
<g id="edge12" class="edge">
<title>provider_locations:w&#45;&gt;addresses:e</title>
<path fill="none" stroke="#000000" d="M700.0864,-329.6775C691.6642,-330.9054 685.6044,-332.9434 673,-333.7 537.688,-341.822 503.0611,-345.268 368,-333.7 266.4428,-325.0016 242.4421,-312.0467 142,-294.7 123.9996,-291.5913 119.7669,-287.7 101.5,-287.7"/>
<polygon fill="#000000" stroke="#000000" points="706.5183,-329.2413 714.7436,-332.2917 710.5092,-328.9707 714.5,-328.7 714.5,-328.7 714.5,-328.7 710.5092,-328.9707 714.2564,-325.1083 706.5183,-329.2413 706.5183,-329.2413"/>
<ellipse fill="none" stroke="#000000" cx="703.3257" cy="-329.4579" rx="3.2" ry="3.2"/>
</g>
<!-- provider_locations&#45;&gt;company_doing_business_as -->
<g id="edge13" class="edge">
<title>provider_locations:w&#45;&gt;company_doing_business_as:e</title>
<path fill="none" stroke="#000000" d="M700.1076,-303.8965C687.7761,-298.6113 681.8304,-287.7 663.5,-287.7"/>
<polygon fill="#000000" stroke="#000000" points="706.6476,-305.1704 713.8117,-310.2336 710.5738,-305.9352 714.5,-306.7 714.5,-306.7 714.5,-306.7 710.5738,-305.9352 715.1883,-303.1664 706.6476,-305.1704 706.6476,-305.1704"/>
<ellipse fill="none" stroke="#000000" cx="703.5066" cy="-304.5585" rx="3.2" ry="3.2"/>
</g>
<!-- professional_locations -->
<g id="node8" class="node">
<title>professional_locations</title>
<g id="a_node8"><a xlink:href="../../tables/professional_locations.html" xlink:title="professional_locations" target="_top">
<polygon fill="#ffffff" stroke="transparent" points="972,-345.2 972,-406.2 1123,-406.2 1123,-345.2 972,-345.2"/>
<polygon fill="#f5f5f5" stroke="transparent" points="972.5,-382.7 972.5,-405.7 1123.5,-405.7 1123.5,-382.7 972.5,-382.7"/>
<polygon fill="none" stroke="#000000" points="972.5,-382.7 972.5,-405.7 1123.5,-405.7 1123.5,-382.7 972.5,-382.7"/>
<text text-anchor="start" x="977.0984" y="-391.8" font-family="Helvetica,sans-Serif" font-weight="bold" font-size="11.00" fill="#000000">professional_locations</text>
<text text-anchor="start" x="1089.0219" y="-390.8" font-family="Helvetica,sans-Serif" font-size="11.00" fill="#000000">[table]</text>
<polygon fill="none" stroke="#000000" points="972.5,-363.7 972.5,-382.7 1123.5,-382.7 1123.5,-363.7 972.5,-363.7"/>
<text text-anchor="start" x="975.5" y="-369.8" font-family="Helvetica,sans-Serif" font-size="11.00" fill="#000000">...</text>
<polygon fill="#ffffff" stroke="transparent" points="972.5,-344.7 972.5,-363.7 1033.5,-363.7 1033.5,-344.7 972.5,-344.7"/>
<polygon fill="none" stroke="#000000" points="972.5,-344.7 972.5,-363.7 1033.5,-363.7 1033.5,-344.7 972.5,-344.7"/>
<text text-anchor="start" x="975.5" y="-350.8" font-family="Helvetica,sans-Serif" font-size="11.00" fill="#000000">&lt; 2</text>
<polygon fill="#ffffff" stroke="transparent" points="1033.5,-344.7 1033.5,-363.7 1091.5,-363.7 1091.5,-344.7 1033.5,-344.7"/>
<polygon fill="none" stroke="#000000" points="1033.5,-344.7 1033.5,-363.7 1091.5,-363.7 1091.5,-344.7 1033.5,-344.7"/>
<text text-anchor="start" x="1056.1105" y="-350.8" font-family="Helvetica,sans-Serif" font-size="11.00" fill="#000000">0 rows</text>
<polygon fill="#ffffff" stroke="transparent" points="1091.5,-344.7 1091.5,-363.7 1123.5,-363.7 1123.5,-344.7 1091.5,-344.7"/>
<polygon fill="none" stroke="#000000" points="1091.5,-344.7 1091.5,-363.7 1123.5,-363.7 1123.5,-344.7 1091.5,-344.7"/>
<text text-anchor="start" x="1114.3862" y="-350.8" font-family="Helvetica,sans-Serif" font-size="11.00" fill="#000000"> &#160;</text>
</a>
</g>
</g>
<!-- professional_locations&#45;&gt;provider_locations -->
<g id="edge11" class="edge">
<title>professional_locations:w&#45;&gt;provider_locations:e</title>
<path fill="none" stroke="#000000" d="M957.9909,-372.7C946.6774,-372.7 939.4931,-372.7 923.5,-372.7"/>
<polygon fill="#000000" stroke="#000000" points="964.5,-372.7001 972.5,-376.3 968.5,-372.7 972.5,-372.7 972.5,-372.7 972.5,-372.7 968.5,-372.7 972.5,-369.1 964.5,-372.7001 964.5,-372.7001"/>
<ellipse fill="none" stroke="#000000" cx="961.3" cy="-372.7001" rx="3.2" ry="3.2"/>
</g>
</g>
</svg>
