<?xml version="1.0" encoding="UTF-8" standalone="no"?>
<!DOCTYPE svg PUBLIC "-//W3C//DTD SVG 1.1//EN"
 "http://www.w3.org/Graphics/SVG/1.1/DTD/svg11.dtd">
<!-- Generated by graphviz version 2.40.1 (20161225.0304)
 -->
<!-- Title: twoDegreesRelationshipsDiagram Pages: 1 -->
<svg width="887pt" height="510pt"
 viewBox="0.00 0.00 887.00 510.08" xmlns="http://www.w3.org/2000/svg" xmlns:xlink="http://www.w3.org/1999/xlink">
<g id="graph0" class="graph" transform="scale(1 1) rotate(0) translate(4 506.0769)">
<title>twoDegreesRelationshipsDiagram</title>
<polygon fill="#ffffff" stroke="transparent" points="-4,4 -4,-506.0769 883,-506.0769 883,4 -4,4"/>
<text text-anchor="middle" x="72.4936" y="-7.3" font-family="Helvetica,sans-Serif" font-size="11.00" fill="#000000">Generated by SchemaSpy</text>
<!-- companies -->
<g id="node1" class="node">
<title>companies</title>
<g id="a_node1"><a xlink:href="../../tables/companies.html" xlink:title="companies" target="_top">
<polygon fill="#ffffff" stroke="transparent" points="369,-67.074 369,-128.074 465,-128.074 465,-67.074 369,-67.074"/>
<polygon fill="#f5f5f5" stroke="transparent" points="369,-104.574 369,-127.574 465,-127.574 465,-104.574 369,-104.574"/>
<polygon fill="none" stroke="#000000" points="369,-104.574 369,-127.574 465,-127.574 465,-104.574 369,-104.574"/>
<text text-anchor="start" x="373.9114" y="-113.674" font-family="Helvetica,sans-Serif" font-weight="bold" font-size="11.00" fill="#000000">companies</text>
<text text-anchor="start" x="430.5219" y="-112.674" font-family="Helvetica,sans-Serif" font-size="11.00" fill="#000000">[table]</text>
<polygon fill="none" stroke="#000000" points="369,-85.574 369,-104.574 465,-104.574 465,-85.574 369,-85.574"/>
<text text-anchor="start" x="372" y="-91.674" font-family="Helvetica,sans-Serif" font-size="11.00" fill="#000000">...</text>
<polygon fill="#ffffff" stroke="transparent" points="369,-66.574 369,-85.574 398,-85.574 398,-66.574 369,-66.574"/>
<polygon fill="none" stroke="#000000" points="369,-66.574 369,-85.574 398,-85.574 398,-66.574 369,-66.574"/>
<text text-anchor="start" x="372" y="-72.674" font-family="Helvetica,sans-Serif" font-size="11.00" fill="#000000">&lt; 2</text>
<polygon fill="#ffffff" stroke="transparent" points="398,-66.574 398,-85.574 440,-85.574 440,-66.574 398,-66.574"/>
<polygon fill="none" stroke="#000000" points="398,-66.574 398,-85.574 440,-85.574 440,-66.574 398,-66.574"/>
<text text-anchor="start" x="404.6105" y="-72.674" font-family="Helvetica,sans-Serif" font-size="11.00" fill="#000000">0 rows</text>
<polygon fill="#ffffff" stroke="transparent" points="440,-66.574 440,-85.574 465,-85.574 465,-66.574 440,-66.574"/>
<polygon fill="none" stroke="#000000" points="440,-66.574 440,-85.574 465,-85.574 465,-66.574 440,-66.574"/>
<text text-anchor="start" x="446.4053" y="-72.674" font-family="Helvetica,sans-Serif" font-size="11.00" fill="#000000">4 &gt;</text>
</a>
</g>
</g>
<!-- users -->
<g id="node2" class="node">
<title>users</title>
<g id="a_node2"><a xlink:href="../../tables/users.html" xlink:title="users" target="_top">
<polygon fill="#ffffff" stroke="transparent" points="137,-132.074 137,-281.074 276,-281.074 276,-132.074 137,-132.074"/>
<polygon fill="#f5f5f5" stroke="transparent" points="137.5,-257.574 137.5,-280.574 276.5,-280.574 276.5,-257.574 137.5,-257.574"/>
<polygon fill="none" stroke="#000000" points="137.5,-257.574 137.5,-280.574 276.5,-280.574 276.5,-257.574 137.5,-257.574"/>
<text text-anchor="start" x="142.5" y="-266.674" font-family="Helvetica,sans-Serif" font-weight="bold" font-size="11.00" fill="#000000">users</text>
<text text-anchor="start" x="241.5437" y="-265.674" font-family="Helvetica,sans-Serif" font-size="11.00" fill="#000000">[table]</text>
<polygon fill="none" stroke="#000000" points="137.5,-235.574 137.5,-257.574 276.5,-257.574 276.5,-235.574 137.5,-235.574"/>
<image xlink:href="../../images/primaryKeys.png" width="11px" height="12px" preserveAspectRatio="xMinYMin meet" x="142.5" y="-252.574"/>
<text text-anchor="start" x="157.5" y="-242.674" font-family="Helvetica,sans-Serif" font-size="11.00" fill="#000000">id</text>
<polygon fill="#ffffff" stroke="transparent" points="137.5,-213.574 137.5,-235.574 276.5,-235.574 276.5,-213.574 137.5,-213.574"/>
<polygon fill="none" stroke="#000000" points="137.5,-213.574 137.5,-235.574 276.5,-235.574 276.5,-213.574 137.5,-213.574"/>
<text text-anchor="start" x="157.5" y="-220.674" font-family="Helvetica,sans-Serif" font-size="11.00" fill="#000000">email</text>
<polygon fill="#ffffff" stroke="transparent" points="137.5,-191.574 137.5,-213.574 276.5,-213.574 276.5,-191.574 137.5,-191.574"/>
<polygon fill="none" stroke="#000000" points="137.5,-191.574 137.5,-213.574 276.5,-213.574 276.5,-191.574 137.5,-191.574"/>
<text text-anchor="start" x="157.5" y="-198.674" font-family="Helvetica,sans-Serif" font-size="11.00" fill="#000000">cognito_id</text>
<polygon fill="#ffffff" stroke="transparent" points="137.5,-169.574 137.5,-191.574 276.5,-191.574 276.5,-169.574 137.5,-169.574"/>
<polygon fill="none" stroke="#000000" points="137.5,-169.574 137.5,-191.574 276.5,-191.574 276.5,-169.574 137.5,-169.574"/>
<image xlink:href="../../images/foreignKeys.png" width="11px" height="12px" preserveAspectRatio="xMinYMin meet" x="142.5" y="-186.574"/>
<text text-anchor="start" x="157.5" y="-176.674" font-family="Helvetica,sans-Serif" font-size="11.00" fill="#000000">profile_id</text>
<polygon fill="none" stroke="#000000" points="137.5,-150.574 137.5,-169.574 276.5,-169.574 276.5,-150.574 137.5,-150.574"/>
<text text-anchor="start" x="140.5" y="-156.674" font-family="Helvetica,sans-Serif" font-size="11.00" fill="#000000">...</text>
<polygon fill="#ffffff" stroke="transparent" points="137.5,-131.574 137.5,-150.574 187.5,-150.574 187.5,-131.574 137.5,-131.574"/>
<polygon fill="none" stroke="#000000" points="137.5,-131.574 137.5,-150.574 187.5,-150.574 187.5,-131.574 137.5,-131.574"/>
<text text-anchor="start" x="140.5" y="-137.674" font-family="Helvetica,sans-Serif" font-size="11.00" fill="#000000">&lt; 1</text>
<polygon fill="#ffffff" stroke="transparent" points="187.5,-131.574 187.5,-150.574 240.5,-150.574 240.5,-131.574 187.5,-131.574"/>
<polygon fill="none" stroke="#000000" points="187.5,-131.574 187.5,-150.574 240.5,-150.574 240.5,-131.574 187.5,-131.574"/>
<text text-anchor="start" x="205.1105" y="-137.674" font-family="Helvetica,sans-Serif" font-size="11.00" fill="#000000">0 rows</text>
<polygon fill="#ffffff" stroke="transparent" points="240.5,-131.574 240.5,-150.574 276.5,-150.574 276.5,-131.574 240.5,-131.574"/>
<polygon fill="none" stroke="#000000" points="240.5,-131.574 240.5,-150.574 276.5,-150.574 276.5,-131.574 240.5,-131.574"/>
<text text-anchor="start" x="257.9053" y="-137.674" font-family="Helvetica,sans-Serif" font-size="11.00" fill="#000000">8 &gt;</text>
</a>
</g>
</g>
<!-- companies&#45;&gt;users -->
<g id="edge1" class="edge">
<title>companies:w&#45;&gt;users:e</title>
<path fill="none" stroke="#000000" d="M354.7107,-96.4354C336.7067,-101.8275 331.2331,-118.3672 317,-138.574 287.4791,-180.4848 327.764,-246.574 276.5,-246.574"/>
<polygon fill="#000000" stroke="#000000" points="361.067,-95.6074 369.465,-98.1438 365.0335,-95.0907 369,-94.574 369,-94.574 369,-94.574 365.0335,-95.0907 368.535,-91.0041 361.067,-95.6074 361.067,-95.6074"/>
<ellipse fill="none" stroke="#000000" cx="357.8938" cy="-96.0208" rx="3.2" ry="3.2"/>
</g>
<!-- profiles -->
<g id="node7" class="node">
<title>profiles</title>
<g id="a_node7"><a xlink:href="../../tables/profiles.html" xlink:title="profiles" target="_top">
<polygon fill="#ffffff" stroke="transparent" points="8,-305.074 8,-366.074 88,-366.074 88,-305.074 8,-305.074"/>
<polygon fill="#f5f5f5" stroke="transparent" points="8,-342.574 8,-365.574 88,-365.574 88,-342.574 8,-342.574"/>
<polygon fill="none" stroke="#000000" points="8,-342.574 8,-365.574 88,-365.574 88,-342.574 8,-342.574"/>
<text text-anchor="start" x="13" y="-351.674" font-family="Helvetica,sans-Serif" font-weight="bold" font-size="11.00" fill="#000000">profiles</text>
<text text-anchor="start" x="53.0437" y="-350.674" font-family="Helvetica,sans-Serif" font-size="11.00" fill="#000000">[table]</text>
<polygon fill="none" stroke="#000000" points="8,-323.574 8,-342.574 88,-342.574 88,-323.574 8,-323.574"/>
<text text-anchor="start" x="11" y="-329.674" font-family="Helvetica,sans-Serif" font-size="11.00" fill="#000000">...</text>
<polygon fill="#ffffff" stroke="transparent" points="8,-304.574 8,-323.574 29,-323.574 29,-304.574 8,-304.574"/>
<polygon fill="none" stroke="#000000" points="8,-304.574 8,-323.574 29,-323.574 29,-304.574 8,-304.574"/>
<text text-anchor="start" x="10.7027" y="-310.674" font-family="Helvetica,sans-Serif" font-size="11.00" fill="#000000">&lt; 3</text>
<polygon fill="#ffffff" stroke="transparent" points="29,-304.574 29,-323.574 67,-323.574 67,-304.574 29,-304.574"/>
<polygon fill="none" stroke="#000000" points="29,-304.574 29,-323.574 67,-323.574 67,-304.574 29,-304.574"/>
<text text-anchor="start" x="31.8053" y="-310.674" font-family="Helvetica,sans-Serif" font-size="11.00" fill="#000000">0 rows</text>
<polygon fill="#ffffff" stroke="transparent" points="67,-304.574 67,-323.574 88,-323.574 88,-304.574 67,-304.574"/>
<polygon fill="none" stroke="#000000" points="67,-304.574 67,-323.574 88,-323.574 88,-304.574 67,-304.574"/>
<text text-anchor="start" x="69.7027" y="-310.674" font-family="Helvetica,sans-Serif" font-size="11.00" fill="#000000">2 &gt;</text>
</a>
</g>
</g>
<!-- users&#45;&gt;profiles -->
<g id="edge14" class="edge">
<title>users:w&#45;&gt;profiles:e</title>
<path fill="none" stroke="#000000" d="M126.943,-181.9817C76.4168,-197.3051 155.0234,-332.574 88,-332.574"/>
<polygon fill="#000000" stroke="#000000" points="136.1783,-176.7148 137.2357,-184.6446 135.6498,-184.8561 134.5923,-176.9263 136.1783,-176.7148"/>
<polyline fill="none" stroke="#000000" points="137.5,-180.574 133.5351,-181.1027 "/>
<ellipse fill="none" stroke="#000000" cx="130.3632" cy="-181.5257" rx="3.2" ry="3.2"/>
</g>
<!-- company_users -->
<g id="node3" class="node">
<title>company_users</title>
<g id="a_node3"><a xlink:href="../../tables/company_users.html" xlink:title="company_users" target="_top">
<polygon fill="#ffffff" stroke="transparent" points="558,-54.074 558,-115.074 678,-115.074 678,-54.074 558,-54.074"/>
<polygon fill="#f5f5f5" stroke="transparent" points="558,-91.574 558,-114.574 678,-114.574 678,-91.574 558,-91.574"/>
<polygon fill="none" stroke="#000000" points="558,-91.574 558,-114.574 678,-114.574 678,-91.574 558,-91.574"/>
<text text-anchor="start" x="562.686" y="-100.674" font-family="Helvetica,sans-Serif" font-weight="bold" font-size="11.00" fill="#000000">company_users</text>
<text text-anchor="start" x="643.5219" y="-99.674" font-family="Helvetica,sans-Serif" font-size="11.00" fill="#000000">[table]</text>
<polygon fill="none" stroke="#000000" points="558,-72.574 558,-91.574 678,-91.574 678,-72.574 558,-72.574"/>
<text text-anchor="start" x="561" y="-78.674" font-family="Helvetica,sans-Serif" font-size="11.00" fill="#000000">...</text>
<polygon fill="#ffffff" stroke="transparent" points="558,-53.574 558,-72.574 603,-72.574 603,-53.574 558,-53.574"/>
<polygon fill="none" stroke="#000000" points="558,-53.574 558,-72.574 603,-72.574 603,-53.574 558,-53.574"/>
<text text-anchor="start" x="561" y="-59.674" font-family="Helvetica,sans-Serif" font-size="11.00" fill="#000000">&lt; 2</text>
<polygon fill="#ffffff" stroke="transparent" points="603,-53.574 603,-72.574 653,-72.574 653,-53.574 603,-53.574"/>
<polygon fill="none" stroke="#000000" points="603,-53.574 603,-72.574 653,-72.574 653,-53.574 603,-53.574"/>
<text text-anchor="start" x="617.6105" y="-59.674" font-family="Helvetica,sans-Serif" font-size="11.00" fill="#000000">0 rows</text>
<polygon fill="#ffffff" stroke="transparent" points="653,-53.574 653,-72.574 678,-72.574 678,-53.574 653,-53.574"/>
<polygon fill="none" stroke="#000000" points="653,-53.574 653,-72.574 678,-72.574 678,-53.574 653,-53.574"/>
<text text-anchor="start" x="668.8862" y="-59.674" font-family="Helvetica,sans-Serif" font-size="11.00" fill="#000000"> &#160;</text>
</a>
</g>
</g>
<!-- company_users&#45;&gt;companies -->
<g id="edge2" class="edge">
<title>company_users:w&#45;&gt;companies:e</title>
<path fill="none" stroke="#000000" d="M543.3277,-82.1663C513.2728,-84.7095 501.3553,-94.574 465,-94.574"/>
<polygon fill="#000000" stroke="#000000" points="550.0065,-81.8967 558.1452,-85.171 554.0033,-81.7354 558,-81.574 558,-81.574 558,-81.574 554.0033,-81.7354 557.8548,-77.9769 550.0065,-81.8967 550.0065,-81.8967"/>
<ellipse fill="none" stroke="#000000" cx="546.8091" cy="-82.0259" rx="3.2" ry="3.2"/>
</g>
<!-- company_users&#45;&gt;users -->
<g id="edge3" class="edge">
<title>company_users:w&#45;&gt;users:e</title>
<path fill="none" stroke="#000000" d="M544.0103,-77.5432C535.3808,-71.5815 531.6081,-60.6764 517,-56.574 474.2109,-44.5574 351.5479,-28.6141 317,-56.574 249.8844,-110.8912 362.8416,-246.574 276.5,-246.574"/>
<polygon fill="#000000" stroke="#000000" points="550.3127,-79.359 557.0033,-85.0332 554.1564,-80.4665 558,-81.574 558,-81.574 558,-81.574 554.1564,-80.4665 558.9967,-78.1147 550.3127,-79.359 550.3127,-79.359"/>
<ellipse fill="none" stroke="#000000" cx="547.2378" cy="-78.4731" rx="3.2" ry="3.2"/>
</g>
<!-- feedback -->
<g id="node4" class="node">
<title>feedback</title>
<g id="a_node4"><a xlink:href="../../tables/feedback.html" xlink:title="feedback" target="_top">
<polygon fill="#ffffff" stroke="transparent" points="325,-282.574 325,-460.574 509,-460.574 509,-282.574 325,-282.574"/>
<polygon fill="#f5f5f5" stroke="transparent" points="327,-435.574 327,-458.574 507,-458.574 507,-435.574 327,-435.574"/>
<polygon fill="none" stroke="#000000" points="327,-435.574 327,-458.574 507,-458.574 507,-435.574 327,-435.574"/>
<text text-anchor="start" x="332" y="-444.674" font-family="Helvetica,sans-Serif" font-weight="bold" font-size="11.00" fill="#000000">feedback</text>
<text text-anchor="start" x="472.0437" y="-443.674" font-family="Helvetica,sans-Serif" font-size="11.00" fill="#000000">[table]</text>
<polygon fill="none" stroke="#000000" points="327,-413.574 327,-435.574 408,-435.574 408,-413.574 327,-413.574"/>
<image xlink:href="../../images/primaryKeys.png" width="11px" height="12px" preserveAspectRatio="xMinYMin meet" x="332" y="-430.574"/>
<text text-anchor="start" x="347" y="-420.674" font-family="Helvetica,sans-Serif" font-size="11.00" fill="#000000">id</text>
<polygon fill="none" stroke="#000000" points="408,-413.574 408,-435.574 507,-435.574 507,-413.574 408,-413.574"/>
<text text-anchor="start" x="411" y="-421.274" font-family="Helvetica,sans-Serif" font-size="11.00" fill="#000000">uuid[2147483647]</text>
<polygon fill="none" stroke="#000000" points="327,-391.574 327,-413.574 408,-413.574 408,-391.574 327,-391.574"/>
<text text-anchor="start" x="347" y="-398.674" font-family="Helvetica,sans-Serif" font-size="11.00" fill="#000000">message</text>
<polygon fill="none" stroke="#000000" points="408,-391.574 408,-413.574 507,-413.574 507,-391.574 408,-391.574"/>
<text text-anchor="start" x="411" y="-399.274" font-family="Helvetica,sans-Serif" font-size="11.00" fill="#000000">text[2147483647]</text>
<polygon fill="none" stroke="#000000" points="327,-369.574 327,-391.574 408,-391.574 408,-369.574 327,-369.574"/>
<image xlink:href="../../images/foreignKeys.png" width="11px" height="12px" preserveAspectRatio="xMinYMin meet" x="332" y="-386.574"/>
<text text-anchor="start" x="347" y="-376.674" font-family="Helvetica,sans-Serif" font-size="11.00" fill="#000000">user_id</text>
<polygon fill="none" stroke="#000000" points="408,-369.574 408,-391.574 507,-391.574 507,-369.574 408,-369.574"/>
<text text-anchor="start" x="411" y="-377.274" font-family="Helvetica,sans-Serif" font-size="11.00" fill="#000000">uuid[2147483647]</text>
<polygon fill="none" stroke="#000000" points="327,-347.574 327,-369.574 408,-369.574 408,-347.574 327,-347.574"/>
<text text-anchor="start" x="347" y="-354.674" font-family="Helvetica,sans-Serif" font-size="11.00" fill="#000000">created_at</text>
<polygon fill="none" stroke="#000000" points="408,-347.574 408,-369.574 507,-369.574 507,-347.574 408,-347.574"/>
<text text-anchor="start" x="411" y="-355.274" font-family="Helvetica,sans-Serif" font-size="11.00" fill="#000000">timestamptz[35,6]</text>
<polygon fill="none" stroke="#000000" points="327,-325.574 327,-347.574 408,-347.574 408,-325.574 327,-325.574"/>
<text text-anchor="start" x="347" y="-332.674" font-family="Helvetica,sans-Serif" font-size="11.00" fill="#000000">app</text>
<polygon fill="none" stroke="#000000" points="408,-325.574 408,-347.574 507,-347.574 507,-325.574 408,-325.574"/>
<text text-anchor="start" x="411" y="-333.274" font-family="Helvetica,sans-Serif" font-size="11.00" fill="#000000">text[2147483647]</text>
<polygon fill="none" stroke="#000000" points="327,-303.574 327,-325.574 408,-325.574 408,-303.574 327,-303.574"/>
<text text-anchor="start" x="347" y="-310.674" font-family="Helvetica,sans-Serif" font-size="11.00" fill="#000000">context</text>
<polygon fill="none" stroke="#000000" points="408,-303.574 408,-325.574 507,-325.574 507,-303.574 408,-303.574"/>
<text text-anchor="start" x="410.7258" y="-311.274" font-family="Helvetica,sans-Serif" font-size="11.00" fill="#000000">jsonb[2147483647]</text>
<polygon fill="#ffffff" stroke="transparent" points="327,-284.574 327,-303.574 359,-303.574 359,-284.574 327,-284.574"/>
<polygon fill="none" stroke="#000000" points="327,-284.574 327,-303.574 359,-303.574 359,-284.574 327,-284.574"/>
<text text-anchor="start" x="330" y="-290.674" font-family="Helvetica,sans-Serif" font-size="11.00" fill="#000000">&lt; 1</text>
<polygon fill="#ffffff" stroke="transparent" points="359,-284.574 359,-303.574 408,-303.574 408,-284.574 359,-284.574"/>
<polygon fill="none" stroke="#000000" points="359,-284.574 359,-303.574 408,-303.574 408,-284.574 359,-284.574"/>
<text text-anchor="start" x="372.6105" y="-290.674" font-family="Helvetica,sans-Serif" font-size="11.00" fill="#000000">0 rows</text>
<polygon fill="#ffffff" stroke="transparent" points="408,-284.574 408,-303.574 507,-303.574 507,-284.574 408,-284.574"/>
<polygon fill="none" stroke="#000000" points="408,-284.574 408,-303.574 507,-303.574 507,-284.574 408,-284.574"/>
<text text-anchor="start" x="488.4053" y="-290.674" font-family="Helvetica,sans-Serif" font-size="11.00" fill="#000000">0 &gt;</text>
<polygon fill="none" stroke="#000000" stroke-width="2" points="326,-283.574 326,-459.574 508,-459.574 508,-283.574 326,-283.574"/>
</a>
</g>
</g>
<!-- feedback&#45;&gt;users -->
<g id="edge4" class="edge">
<title>feedback:w&#45;&gt;users:e</title>
<path fill="none" stroke="#000000" d="M312.5714,-377.2616C276.5192,-356.6267 334.1778,-246.574 276.5,-246.574"/>
<polygon fill="#000000" stroke="#000000" points="319.2028,-378.7839 326.1945,-384.0827 323.1014,-379.679 327,-380.574 327,-380.574 327,-380.574 323.1014,-379.679 327.8055,-377.0652 319.2028,-378.7839 319.2028,-378.7839"/>
<ellipse fill="none" stroke="#000000" cx="316.084" cy="-378.0679" rx="3.2" ry="3.2"/>
</g>
<!-- patients -->
<g id="node5" class="node">
<title>patients</title>
<g id="a_node5"><a xlink:href="../../tables/patients.html" xlink:title="patients" target="_top">
<polygon fill="#ffffff" stroke="transparent" points="577.5,-219.074 577.5,-280.074 658.5,-280.074 658.5,-219.074 577.5,-219.074"/>
<polygon fill="#f5f5f5" stroke="transparent" points="578,-256.574 578,-279.574 659,-279.574 659,-256.574 578,-256.574"/>
<polygon fill="none" stroke="#000000" points="578,-256.574 578,-279.574 659,-279.574 659,-256.574 578,-256.574"/>
<text text-anchor="start" x="582.7429" y="-265.674" font-family="Helvetica,sans-Serif" font-weight="bold" font-size="11.00" fill="#000000">patients</text>
<text text-anchor="start" x="624.5219" y="-264.674" font-family="Helvetica,sans-Serif" font-size="11.00" fill="#000000">[table]</text>
<polygon fill="none" stroke="#000000" points="578,-237.574 578,-256.574 659,-256.574 659,-237.574 578,-237.574"/>
<text text-anchor="start" x="581" y="-243.674" font-family="Helvetica,sans-Serif" font-size="11.00" fill="#000000">...</text>
<polygon fill="#ffffff" stroke="transparent" points="578,-218.574 578,-237.574 599,-237.574 599,-218.574 578,-218.574"/>
<polygon fill="none" stroke="#000000" points="578,-218.574 578,-237.574 599,-237.574 599,-218.574 578,-218.574"/>
<text text-anchor="start" x="580.7026" y="-224.674" font-family="Helvetica,sans-Serif" font-size="11.00" fill="#000000">&lt; 9</text>
<polygon fill="#ffffff" stroke="transparent" points="599,-218.574 599,-237.574 637,-237.574 637,-218.574 599,-218.574"/>
<polygon fill="none" stroke="#000000" points="599,-218.574 599,-237.574 637,-237.574 637,-218.574 599,-218.574"/>
<text text-anchor="start" x="601.8053" y="-224.674" font-family="Helvetica,sans-Serif" font-size="11.00" fill="#000000">0 rows</text>
<polygon fill="#ffffff" stroke="transparent" points="637,-218.574 637,-237.574 659,-237.574 659,-218.574 637,-218.574"/>
<polygon fill="none" stroke="#000000" points="637,-218.574 637,-237.574 659,-237.574 659,-218.574 637,-218.574"/>
<text text-anchor="start" x="640.4053" y="-224.674" font-family="Helvetica,sans-Serif" font-size="11.00" fill="#000000">2 &gt;</text>
</a>
</g>
</g>
<!-- patients&#45;&gt;companies -->
<g id="edge6" class="edge">
<title>patients:w&#45;&gt;companies:e</title>
<path fill="none" stroke="#000000" d="M563.6593,-244.639C528.1547,-233.501 548.5779,-176.7302 517,-138.574 497.6978,-115.2508 495.2745,-94.574 465,-94.574"/>
<polygon fill="#000000" stroke="#000000" points="570.0718,-245.5042 577.5186,-250.1416 574.0359,-246.0391 578,-246.574 578,-246.574 578,-246.574 574.0359,-246.0391 578.4814,-243.0063 570.0718,-245.5042 570.0718,-245.5042"/>
<ellipse fill="none" stroke="#000000" cx="566.9006" cy="-245.0762" rx="3.2" ry="3.2"/>
</g>
<!-- patients&#45;&gt;users -->
<g id="edge5" class="edge">
<title>patients:w&#45;&gt;users:e</title>
<path fill="none" stroke="#000000" d="M563.487,-246.574C441.3753,-246.574 405.5273,-246.574 276.5,-246.574"/>
<polygon fill="#000000" stroke="#000000" points="570,-246.574 578,-250.174 574,-246.574 578,-246.574 578,-246.574 578,-246.574 574,-246.574 578,-242.974 570,-246.574 570,-246.574"/>
<ellipse fill="none" stroke="#000000" cx="566.8" cy="-246.574" rx="3.2" ry="3.2"/>
</g>
<!-- patients&#45;&gt;users -->
<g id="edge7" class="edge">
<title>patients:w&#45;&gt;users:e</title>
<path fill="none" stroke="#000000" d="M563.487,-245.9308C441.3753,-240.5822 405.5273,-240.7966 276.5,-246.574"/>
<polygon fill="#000000" stroke="#000000" points="570.0078,-246.2197 577.8406,-250.1704 574.0039,-246.3969 578,-246.574 578,-246.574 578,-246.574 574.0039,-246.3969 578.1594,-242.9775 570.0078,-246.2197 570.0078,-246.2197"/>
<ellipse fill="none" stroke="#000000" cx="566.811" cy="-246.078" rx="3.2" ry="3.2"/>
</g>
<!-- patients&#45;&gt;users -->
<g id="edge10" class="edge">
<title>patients:w&#45;&gt;users:e</title>
<path fill="none" stroke="#000000" d="M563.487,-247.3244C441.3753,-253.5643 405.5273,-253.3142 276.5,-246.574"/>
<polygon fill="#000000" stroke="#000000" points="570.0107,-246.9871 578.1859,-250.1692 574.0053,-246.7805 578,-246.574 578,-246.574 578,-246.574 574.0053,-246.7805 577.8141,-242.9788 570.0107,-246.9871 570.0107,-246.9871"/>
<ellipse fill="none" stroke="#000000" cx="566.8149" cy="-247.1524" rx="3.2" ry="3.2"/>
</g>
<!-- professionals -->
<g id="node6" class="node">
<title>professionals</title>
<g id="a_node6"><a xlink:href="../../tables/professionals.html" xlink:title="professionals" target="_top">
<polygon fill="#ffffff" stroke="transparent" points="363.5,-149.074 363.5,-210.074 470.5,-210.074 470.5,-149.074 363.5,-149.074"/>
<polygon fill="#f5f5f5" stroke="transparent" points="364,-186.574 364,-209.574 471,-209.574 471,-186.574 364,-186.574"/>
<polygon fill="none" stroke="#000000" points="364,-186.574 364,-209.574 471,-209.574 471,-186.574 364,-186.574"/>
<text text-anchor="start" x="368.605" y="-195.674" font-family="Helvetica,sans-Serif" font-weight="bold" font-size="11.00" fill="#000000">professionals</text>
<text text-anchor="start" x="436.5219" y="-194.674" font-family="Helvetica,sans-Serif" font-size="11.00" fill="#000000">[table]</text>
<polygon fill="none" stroke="#000000" points="364,-167.574 364,-186.574 471,-186.574 471,-167.574 364,-167.574"/>
<text text-anchor="start" x="367" y="-173.674" font-family="Helvetica,sans-Serif" font-size="11.00" fill="#000000">...</text>
<polygon fill="#ffffff" stroke="transparent" points="364,-148.574 364,-167.574 398,-167.574 398,-148.574 364,-148.574"/>
<polygon fill="none" stroke="#000000" points="364,-148.574 364,-167.574 398,-167.574 398,-148.574 364,-148.574"/>
<text text-anchor="start" x="367" y="-154.674" font-family="Helvetica,sans-Serif" font-size="11.00" fill="#000000">&lt; 2</text>
<polygon fill="#ffffff" stroke="transparent" points="398,-148.574 398,-167.574 443,-167.574 443,-148.574 398,-148.574"/>
<polygon fill="none" stroke="#000000" points="398,-148.574 398,-167.574 443,-167.574 443,-148.574 398,-148.574"/>
<text text-anchor="start" x="407.6105" y="-154.674" font-family="Helvetica,sans-Serif" font-size="11.00" fill="#000000">0 rows</text>
<polygon fill="#ffffff" stroke="transparent" points="443,-148.574 443,-167.574 471,-167.574 471,-148.574 443,-148.574"/>
<polygon fill="none" stroke="#000000" points="443,-148.574 443,-167.574 471,-167.574 471,-148.574 443,-148.574"/>
<text text-anchor="start" x="452.4053" y="-154.674" font-family="Helvetica,sans-Serif" font-size="11.00" fill="#000000">2 &gt;</text>
</a>
</g>
</g>
<!-- patients&#45;&gt;professionals -->
<g id="edge8" class="edge">
<title>patients:w&#45;&gt;professionals:e</title>
<path fill="none" stroke="#000000" d="M563.5864,-244.8436C521.862,-234.0642 522.5005,-176.574 471,-176.574"/>
<polygon fill="#000000" stroke="#000000" points="570.057,-245.6204 577.5709,-250.1483 574.0285,-246.0972 578,-246.574 578,-246.574 578,-246.574 574.0285,-246.0972 578.4291,-242.9996 570.057,-245.6204 570.057,-245.6204"/>
<ellipse fill="none" stroke="#000000" cx="566.8798" cy="-245.2389" rx="3.2" ry="3.2"/>
</g>
<!-- patients&#45;&gt;profiles -->
<g id="edge9" class="edge">
<title>patients:w&#45;&gt;profiles:e</title>
<path fill="none" stroke="#000000" d="M563.4511,-247.8876C486.9872,-263.3893 594.9525,-411.9412 517,-471.574 446.4,-525.5821 402.6025,-495.5207 317,-471.574 202.3422,-439.4992 207.0597,-332.574 88,-332.574"/>
<polygon fill="#000000" stroke="#000000" points="570.0324,-247.2934 578.3238,-250.1594 574.0162,-246.9337 578,-246.574 578,-246.574 578,-246.574 574.0162,-246.9337 577.6762,-242.9886 570.0324,-247.2934 570.0324,-247.2934"/>
<ellipse fill="none" stroke="#000000" cx="566.8454" cy="-247.5812" rx="3.2" ry="3.2"/>
</g>
<!-- professionals&#45;&gt;users -->
<g id="edge11" class="edge">
<title>professionals:w&#45;&gt;users:e</title>
<path fill="none" stroke="#000000" d="M353.4021,-177.789C315.7114,-187.0842 322.4113,-246.574 276.5,-246.574"/>
<polygon fill="#000000" stroke="#000000" points="362.7496,-172.6911 363.6608,-180.6391 362.0712,-180.8213 361.16,-172.8734 362.7496,-172.6911"/>
<polyline fill="none" stroke="#000000" points="364,-176.574 360.026,-177.0296 "/>
<ellipse fill="none" stroke="#000000" cx="356.8469" cy="-177.3941" rx="3.2" ry="3.2"/>
</g>
<!-- responsible_persons -->
<g id="node8" class="node">
<title>responsible_persons</title>
<g id="a_node8"><a xlink:href="../../tables/responsible_persons.html" xlink:title="responsible_persons" target="_top">
<polygon fill="#ffffff" stroke="transparent" points="727,-103.074 727,-164.074 871,-164.074 871,-103.074 727,-103.074"/>
<polygon fill="#f5f5f5" stroke="transparent" points="727,-140.574 727,-163.574 871,-163.574 871,-140.574 727,-140.574"/>
<polygon fill="none" stroke="#000000" points="727,-140.574 727,-163.574 871,-163.574 871,-140.574 727,-140.574"/>
<text text-anchor="start" x="731.7653" y="-149.674" font-family="Helvetica,sans-Serif" font-weight="bold" font-size="11.00" fill="#000000">responsible_persons</text>
<text text-anchor="start" x="836.5219" y="-148.674" font-family="Helvetica,sans-Serif" font-size="11.00" fill="#000000">[table]</text>
<polygon fill="none" stroke="#000000" points="727,-121.574 727,-140.574 871,-140.574 871,-121.574 727,-121.574"/>
<text text-anchor="start" x="730" y="-127.674" font-family="Helvetica,sans-Serif" font-size="11.00" fill="#000000">...</text>
<polygon fill="#ffffff" stroke="transparent" points="727,-102.574 727,-121.574 784,-121.574 784,-102.574 727,-102.574"/>
<polygon fill="none" stroke="#000000" points="727,-102.574 727,-121.574 784,-121.574 784,-102.574 727,-102.574"/>
<text text-anchor="start" x="730" y="-108.674" font-family="Helvetica,sans-Serif" font-size="11.00" fill="#000000">&lt; 2</text>
<polygon fill="#ffffff" stroke="transparent" points="784,-102.574 784,-121.574 840,-121.574 840,-102.574 784,-102.574"/>
<polygon fill="none" stroke="#000000" points="784,-102.574 784,-121.574 840,-121.574 840,-102.574 784,-102.574"/>
<text text-anchor="start" x="804.6105" y="-108.674" font-family="Helvetica,sans-Serif" font-size="11.00" fill="#000000">0 rows</text>
<polygon fill="#ffffff" stroke="transparent" points="840,-102.574 840,-121.574 871,-121.574 871,-102.574 840,-102.574"/>
<polygon fill="none" stroke="#000000" points="840,-102.574 840,-121.574 871,-121.574 871,-102.574 840,-102.574"/>
<text text-anchor="start" x="861.8862" y="-108.674" font-family="Helvetica,sans-Serif" font-size="11.00" fill="#000000"> &#160;</text>
</a>
</g>
</g>
<!-- responsible_persons&#45;&gt;users -->
<g id="edge13" class="edge">
<title>responsible_persons:w&#45;&gt;users:e</title>
<path fill="none" stroke="#000000" d="M713.0313,-126.903C693.5644,-113.0355 716.5874,-63.6134 686,-43.574 665.6622,-30.2496 322.7835,-33.808 317,-38.574 244.3184,-98.4686 370.6805,-246.574 276.5,-246.574"/>
<polygon fill="#000000" stroke="#000000" points="719.2627,-128.5406 726.085,-134.0558 723.1314,-129.5573 727,-130.574 727,-130.574 727,-130.574 723.1314,-129.5573 727.915,-127.0922 719.2627,-128.5406 719.2627,-128.5406"/>
<ellipse fill="none" stroke="#000000" cx="716.1678" cy="-127.7272" rx="3.2" ry="3.2"/>
</g>
<!-- responsible_persons&#45;&gt;patients -->
<g id="edge12" class="edge">
<title>responsible_persons:w&#45;&gt;patients:e</title>
<path fill="none" stroke="#000000" d="M712.4685,-133.6767C676.2407,-152.124 712.9248,-246.574 659,-246.574"/>
<polygon fill="#000000" stroke="#000000" points="719.1763,-132.2445 727.7517,-134.0946 723.0882,-131.4092 727,-130.574 727,-130.574 727,-130.574 723.0882,-131.4092 726.2483,-127.0533 719.1763,-132.2445 719.1763,-132.2445"/>
<ellipse fill="none" stroke="#000000" cx="716.0469" cy="-132.9127" rx="3.2" ry="3.2"/>
</g>
</g>
</svg>
