<?xml version="1.0" encoding="UTF-8" standalone="no"?>
<!DOCTYPE svg PUBLIC "-//W3C//DTD SVG 1.1//EN"
 "http://www.w3.org/Graphics/SVG/1.1/DTD/svg11.dtd">
<!-- Generated by graphviz version 2.40.1 (20161225.0304)
 -->
<!-- Title: oneDegreeRelationshipsDiagram Pages: 1 -->
<svg width="396pt" height="245pt"
 viewBox="0.00 0.00 396.00 244.70" xmlns="http://www.w3.org/2000/svg" xmlns:xlink="http://www.w3.org/1999/xlink">
<g id="graph0" class="graph" transform="scale(1 1) rotate(0) translate(4 240.7)">
<title>oneDegreeRelationshipsDiagram</title>
<polygon fill="#ffffff" stroke="transparent" points="-4,4 -4,-240.7 392,-240.7 392,4 -4,4"/>
<text text-anchor="middle" x="72.4936" y="-7.3" font-family="Helvetica,sans-Serif" font-size="11.00" fill="#000000">Generated by SchemaSpy</text>
<!-- feedback -->
<g id="node1" class="node">
<title>feedback</title>
<g id="a_node1"><a xlink:href="../../tables/feedback.html" xlink:title="feedback" target="_top">
<polygon fill="#ffffff" stroke="transparent" points="196,-54.7 196,-232.7 380,-232.7 380,-54.7 196,-54.7"/>
<polygon fill="#f5f5f5" stroke="transparent" points="198,-207.7 198,-230.7 378,-230.7 378,-207.7 198,-207.7"/>
<polygon fill="none" stroke="#000000" points="198,-207.7 198,-230.7 378,-230.7 378,-207.7 198,-207.7"/>
<text text-anchor="start" x="203" y="-216.8" font-family="Helvetica,sans-Serif" font-weight="bold" font-size="11.00" fill="#000000">feedback</text>
<text text-anchor="start" x="343.0437" y="-215.8" font-family="Helvetica,sans-Serif" font-size="11.00" fill="#000000">[table]</text>
<polygon fill="none" stroke="#000000" points="198,-185.7 198,-207.7 279,-207.7 279,-185.7 198,-185.7"/>
<image xlink:href="../../images/primaryKeys.png" width="11px" height="12px" preserveAspectRatio="xMinYMin meet" x="203" y="-202.7"/>
<text text-anchor="start" x="218" y="-192.8" font-family="Helvetica,sans-Serif" font-size="11.00" fill="#000000">id</text>
<polygon fill="none" stroke="#000000" points="279,-185.7 279,-207.7 378,-207.7 378,-185.7 279,-185.7"/>
<text text-anchor="start" x="282" y="-193.4" font-family="Helvetica,sans-Serif" font-size="11.00" fill="#000000">uuid[2147483647]</text>
<polygon fill="none" stroke="#000000" points="198,-163.7 198,-185.7 279,-185.7 279,-163.7 198,-163.7"/>
<text text-anchor="start" x="218" y="-170.8" font-family="Helvetica,sans-Serif" font-size="11.00" fill="#000000">message</text>
<polygon fill="none" stroke="#000000" points="279,-163.7 279,-185.7 378,-185.7 378,-163.7 279,-163.7"/>
<text text-anchor="start" x="282" y="-171.4" font-family="Helvetica,sans-Serif" font-size="11.00" fill="#000000">text[2147483647]</text>
<polygon fill="none" stroke="#000000" points="198,-141.7 198,-163.7 279,-163.7 279,-141.7 198,-141.7"/>
<image xlink:href="../../images/foreignKeys.png" width="11px" height="12px" preserveAspectRatio="xMinYMin meet" x="203" y="-158.7"/>
<text text-anchor="start" x="218" y="-148.8" font-family="Helvetica,sans-Serif" font-size="11.00" fill="#000000">user_id</text>
<polygon fill="none" stroke="#000000" points="279,-141.7 279,-163.7 378,-163.7 378,-141.7 279,-141.7"/>
<text text-anchor="start" x="282" y="-149.4" font-family="Helvetica,sans-Serif" font-size="11.00" fill="#000000">uuid[2147483647]</text>
<polygon fill="none" stroke="#000000" points="198,-119.7 198,-141.7 279,-141.7 279,-119.7 198,-119.7"/>
<text text-anchor="start" x="218" y="-126.8" font-family="Helvetica,sans-Serif" font-size="11.00" fill="#000000">created_at</text>
<polygon fill="none" stroke="#000000" points="279,-119.7 279,-141.7 378,-141.7 378,-119.7 279,-119.7"/>
<text text-anchor="start" x="282" y="-127.4" font-family="Helvetica,sans-Serif" font-size="11.00" fill="#000000">timestamptz[35,6]</text>
<polygon fill="none" stroke="#000000" points="198,-97.7 198,-119.7 279,-119.7 279,-97.7 198,-97.7"/>
<text text-anchor="start" x="218" y="-104.8" font-family="Helvetica,sans-Serif" font-size="11.00" fill="#000000">app</text>
<polygon fill="none" stroke="#000000" points="279,-97.7 279,-119.7 378,-119.7 378,-97.7 279,-97.7"/>
<text text-anchor="start" x="282" y="-105.4" font-family="Helvetica,sans-Serif" font-size="11.00" fill="#000000">text[2147483647]</text>
<polygon fill="none" stroke="#000000" points="198,-75.7 198,-97.7 279,-97.7 279,-75.7 198,-75.7"/>
<text text-anchor="start" x="218" y="-82.8" font-family="Helvetica,sans-Serif" font-size="11.00" fill="#000000">context</text>
<polygon fill="none" stroke="#000000" points="279,-75.7 279,-97.7 378,-97.7 378,-75.7 279,-75.7"/>
<text text-anchor="start" x="281.7258" y="-83.4" font-family="Helvetica,sans-Serif" font-size="11.00" fill="#000000">jsonb[2147483647]</text>
<polygon fill="#ffffff" stroke="transparent" points="198,-56.7 198,-75.7 230,-75.7 230,-56.7 198,-56.7"/>
<polygon fill="none" stroke="#000000" points="198,-56.7 198,-75.7 230,-75.7 230,-56.7 198,-56.7"/>
<text text-anchor="start" x="201" y="-62.8" font-family="Helvetica,sans-Serif" font-size="11.00" fill="#000000">&lt; 1</text>
<polygon fill="#ffffff" stroke="transparent" points="230,-56.7 230,-75.7 279,-75.7 279,-56.7 230,-56.7"/>
<polygon fill="none" stroke="#000000" points="230,-56.7 230,-75.7 279,-75.7 279,-56.7 230,-56.7"/>
<text text-anchor="start" x="243.6105" y="-62.8" font-family="Helvetica,sans-Serif" font-size="11.00" fill="#000000">0 rows</text>
<polygon fill="#ffffff" stroke="transparent" points="279,-56.7 279,-75.7 378,-75.7 378,-56.7 279,-56.7"/>
<polygon fill="none" stroke="#000000" points="279,-56.7 279,-75.7 378,-75.7 378,-56.7 279,-56.7"/>
<text text-anchor="start" x="359.4053" y="-62.8" font-family="Helvetica,sans-Serif" font-size="11.00" fill="#000000">0 &gt;</text>
<polygon fill="none" stroke="#000000" stroke-width="2" points="197,-55.7 197,-231.7 379,-231.7 379,-55.7 197,-55.7"/>
</a>
</g>
</g>
<!-- users -->
<g id="node2" class="node">
<title>users</title>
<g id="a_node2"><a xlink:href="../../tables/users.html" xlink:title="users" target="_top">
<polygon fill="#ffffff" stroke="transparent" points="8,-38.2 8,-187.2 147,-187.2 147,-38.2 8,-38.2"/>
<polygon fill="#f5f5f5" stroke="transparent" points="8.5,-163.7 8.5,-186.7 147.5,-186.7 147.5,-163.7 8.5,-163.7"/>
<polygon fill="none" stroke="#000000" points="8.5,-163.7 8.5,-186.7 147.5,-186.7 147.5,-163.7 8.5,-163.7"/>
<text text-anchor="start" x="13.5" y="-172.8" font-family="Helvetica,sans-Serif" font-weight="bold" font-size="11.00" fill="#000000">users</text>
<text text-anchor="start" x="112.5437" y="-171.8" font-family="Helvetica,sans-Serif" font-size="11.00" fill="#000000">[table]</text>
<polygon fill="none" stroke="#000000" points="8.5,-141.7 8.5,-163.7 147.5,-163.7 147.5,-141.7 8.5,-141.7"/>
<image xlink:href="../../images/primaryKeys.png" width="11px" height="12px" preserveAspectRatio="xMinYMin meet" x="13.5" y="-158.7"/>
<text text-anchor="start" x="28.5" y="-148.8" font-family="Helvetica,sans-Serif" font-size="11.00" fill="#000000">id</text>
<polygon fill="#ffffff" stroke="transparent" points="8.5,-119.7 8.5,-141.7 147.5,-141.7 147.5,-119.7 8.5,-119.7"/>
<polygon fill="none" stroke="#000000" points="8.5,-119.7 8.5,-141.7 147.5,-141.7 147.5,-119.7 8.5,-119.7"/>
<text text-anchor="start" x="28.5" y="-126.8" font-family="Helvetica,sans-Serif" font-size="11.00" fill="#000000">email</text>
<polygon fill="#ffffff" stroke="transparent" points="8.5,-97.7 8.5,-119.7 147.5,-119.7 147.5,-97.7 8.5,-97.7"/>
<polygon fill="none" stroke="#000000" points="8.5,-97.7 8.5,-119.7 147.5,-119.7 147.5,-97.7 8.5,-97.7"/>
<text text-anchor="start" x="28.5" y="-104.8" font-family="Helvetica,sans-Serif" font-size="11.00" fill="#000000">cognito_id</text>
<polygon fill="#ffffff" stroke="transparent" points="8.5,-75.7 8.5,-97.7 147.5,-97.7 147.5,-75.7 8.5,-75.7"/>
<polygon fill="none" stroke="#000000" points="8.5,-75.7 8.5,-97.7 147.5,-97.7 147.5,-75.7 8.5,-75.7"/>
<image xlink:href="../../images/foreignKeys.png" width="11px" height="12px" preserveAspectRatio="xMinYMin meet" x="13.5" y="-92.7"/>
<text text-anchor="start" x="28.5" y="-82.8" font-family="Helvetica,sans-Serif" font-size="11.00" fill="#000000">profile_id</text>
<polygon fill="none" stroke="#000000" points="8.5,-56.7 8.5,-75.7 147.5,-75.7 147.5,-56.7 8.5,-56.7"/>
<text text-anchor="start" x="11.5" y="-62.8" font-family="Helvetica,sans-Serif" font-size="11.00" fill="#000000">...</text>
<polygon fill="#ffffff" stroke="transparent" points="8.5,-37.7 8.5,-56.7 58.5,-56.7 58.5,-37.7 8.5,-37.7"/>
<polygon fill="none" stroke="#000000" points="8.5,-37.7 8.5,-56.7 58.5,-56.7 58.5,-37.7 8.5,-37.7"/>
<text text-anchor="start" x="11.5" y="-43.8" font-family="Helvetica,sans-Serif" font-size="11.00" fill="#000000">&lt; 1</text>
<polygon fill="#ffffff" stroke="transparent" points="58.5,-37.7 58.5,-56.7 111.5,-56.7 111.5,-37.7 58.5,-37.7"/>
<polygon fill="none" stroke="#000000" points="58.5,-37.7 58.5,-56.7 111.5,-56.7 111.5,-37.7 58.5,-37.7"/>
<text text-anchor="start" x="76.1105" y="-43.8" font-family="Helvetica,sans-Serif" font-size="11.00" fill="#000000">0 rows</text>
<polygon fill="#ffffff" stroke="transparent" points="111.5,-37.7 111.5,-56.7 147.5,-56.7 147.5,-37.7 111.5,-37.7"/>
<polygon fill="none" stroke="#000000" points="111.5,-37.7 111.5,-56.7 147.5,-56.7 147.5,-37.7 111.5,-37.7"/>
<text text-anchor="start" x="128.9053" y="-43.8" font-family="Helvetica,sans-Serif" font-size="11.00" fill="#000000">8 &gt;</text>
</a>
</g>
</g>
<!-- feedback&#45;&gt;users -->
<g id="edge1" class="edge">
<title>feedback:w&#45;&gt;users:e</title>
<path fill="none" stroke="#000000" d="M183.4203,-152.7C171.5435,-152.7 164.158,-152.7 147.5,-152.7"/>
<polygon fill="#000000" stroke="#000000" points="190,-152.7001 198,-156.3 194,-152.7 198,-152.7 198,-152.7 198,-152.7 194,-152.7 198,-149.1 190,-152.7001 190,-152.7001"/>
<ellipse fill="none" stroke="#000000" cx="186.8" cy="-152.7001" rx="3.2" ry="3.2"/>
</g>
</g>
</svg>
