<?xml version="1.0" encoding="UTF-8" standalone="no"?>
<!DOCTYPE svg PUBLIC "-//W3C//DTD SVG 1.1//EN"
 "http://www.w3.org/Graphics/SVG/1.1/DTD/svg11.dtd">
<!-- Generated by graphviz version 2.40.1 (20161225.0304)
 -->
<!-- Title: twoDegreesRelationshipsDiagram Pages: 1 -->
<svg width="651pt" height="283pt"
 viewBox="0.00 0.00 651.00 282.70" xmlns="http://www.w3.org/2000/svg" xmlns:xlink="http://www.w3.org/1999/xlink">
<g id="graph0" class="graph" transform="scale(1 1) rotate(0) translate(4 278.7)">
<title>twoDegreesRelationshipsDiagram</title>
<polygon fill="#ffffff" stroke="transparent" points="-4,4 -4,-278.7 647,-278.7 647,4 -4,4"/>
<text text-anchor="middle" x="72.4936" y="-7.3" font-family="Helvetica,sans-Serif" font-size="11.00" fill="#000000">Generated by SchemaSpy</text>
<!-- patients -->
<g id="node1" class="node">
<title>patients</title>
<g id="a_node1"><a xlink:href="../../tables/patients.html" xlink:title="patients" target="_top">
<polygon fill="#ffffff" stroke="transparent" points="554,-190.2 554,-251.2 635,-251.2 635,-190.2 554,-190.2"/>
<polygon fill="#f5f5f5" stroke="transparent" points="554.5,-227.7 554.5,-250.7 635.5,-250.7 635.5,-227.7 554.5,-227.7"/>
<polygon fill="none" stroke="#000000" points="554.5,-227.7 554.5,-250.7 635.5,-250.7 635.5,-227.7 554.5,-227.7"/>
<text text-anchor="start" x="559.2429" y="-236.8" font-family="Helvetica,sans-Serif" font-weight="bold" font-size="11.00" fill="#000000">patients</text>
<text text-anchor="start" x="601.0219" y="-235.8" font-family="Helvetica,sans-Serif" font-size="11.00" fill="#000000">[table]</text>
<polygon fill="none" stroke="#000000" points="554.5,-208.7 554.5,-227.7 635.5,-227.7 635.5,-208.7 554.5,-208.7"/>
<text text-anchor="start" x="557.5" y="-214.8" font-family="Helvetica,sans-Serif" font-size="11.00" fill="#000000">...</text>
<polygon fill="#ffffff" stroke="transparent" points="554.5,-189.7 554.5,-208.7 575.5,-208.7 575.5,-189.7 554.5,-189.7"/>
<polygon fill="none" stroke="#000000" points="554.5,-189.7 554.5,-208.7 575.5,-208.7 575.5,-189.7 554.5,-189.7"/>
<text text-anchor="start" x="557.2026" y="-195.8" font-family="Helvetica,sans-Serif" font-size="11.00" fill="#000000">&lt; 9</text>
<polygon fill="#ffffff" stroke="transparent" points="575.5,-189.7 575.5,-208.7 613.5,-208.7 613.5,-189.7 575.5,-189.7"/>
<polygon fill="none" stroke="#000000" points="575.5,-189.7 575.5,-208.7 613.5,-208.7 613.5,-189.7 575.5,-189.7"/>
<text text-anchor="start" x="578.3053" y="-195.8" font-family="Helvetica,sans-Serif" font-size="11.00" fill="#000000">0 rows</text>
<polygon fill="#ffffff" stroke="transparent" points="613.5,-189.7 613.5,-208.7 635.5,-208.7 635.5,-189.7 613.5,-189.7"/>
<polygon fill="none" stroke="#000000" points="613.5,-189.7 613.5,-208.7 635.5,-208.7 635.5,-189.7 613.5,-189.7"/>
<text text-anchor="start" x="616.9053" y="-195.8" font-family="Helvetica,sans-Serif" font-size="11.00" fill="#000000">2 &gt;</text>
</a>
</g>
</g>
<!-- users -->
<g id="node2" class="node">
<title>users</title>
<g id="a_node2"><a xlink:href="../../tables/users.html" xlink:title="users" target="_top">
<polygon fill="#ffffff" stroke="transparent" points="425,-190.2 425,-251.2 505,-251.2 505,-190.2 425,-190.2"/>
<polygon fill="#f5f5f5" stroke="transparent" points="425,-227.7 425,-250.7 505,-250.7 505,-227.7 425,-227.7"/>
<polygon fill="none" stroke="#000000" points="425,-227.7 425,-250.7 505,-250.7 505,-227.7 425,-227.7"/>
<text text-anchor="start" x="430" y="-236.8" font-family="Helvetica,sans-Serif" font-weight="bold" font-size="11.00" fill="#000000">users</text>
<text text-anchor="start" x="470.0437" y="-235.8" font-family="Helvetica,sans-Serif" font-size="11.00" fill="#000000">[table]</text>
<polygon fill="none" stroke="#000000" points="425,-208.7 425,-227.7 505,-227.7 505,-208.7 425,-208.7"/>
<text text-anchor="start" x="428" y="-214.8" font-family="Helvetica,sans-Serif" font-size="11.00" fill="#000000">...</text>
<polygon fill="#ffffff" stroke="transparent" points="425,-189.7 425,-208.7 446,-208.7 446,-189.7 425,-189.7"/>
<polygon fill="none" stroke="#000000" points="425,-189.7 425,-208.7 446,-208.7 446,-189.7 425,-189.7"/>
<text text-anchor="start" x="427.7027" y="-195.8" font-family="Helvetica,sans-Serif" font-size="11.00" fill="#000000">&lt; 1</text>
<polygon fill="#ffffff" stroke="transparent" points="446,-189.7 446,-208.7 484,-208.7 484,-189.7 446,-189.7"/>
<polygon fill="none" stroke="#000000" points="446,-189.7 446,-208.7 484,-208.7 484,-189.7 446,-189.7"/>
<text text-anchor="start" x="448.8053" y="-195.8" font-family="Helvetica,sans-Serif" font-size="11.00" fill="#000000">0 rows</text>
<polygon fill="#ffffff" stroke="transparent" points="484,-189.7 484,-208.7 505,-208.7 505,-189.7 484,-189.7"/>
<polygon fill="none" stroke="#000000" points="484,-189.7 484,-208.7 505,-208.7 505,-189.7 484,-189.7"/>
<text text-anchor="start" x="486.7027" y="-195.8" font-family="Helvetica,sans-Serif" font-size="11.00" fill="#000000">8 &gt;</text>
</a>
</g>
</g>
<!-- patients&#45;&gt;users -->
<g id="edge1" class="edge">
<title>patients:w&#45;&gt;users:e</title>
<path fill="none" stroke="#000000" d="M541.704,-210.866C529.1609,-205.3673 522.0156,-207.6453 505,-217.7"/>
<polygon fill="#000000" stroke="#000000" points="547.4433,-213.9312 552.804,-220.8755 550.9717,-215.8156 554.5,-217.7 554.5,-217.7 554.5,-217.7 550.9717,-215.8156 556.196,-214.5245 547.4433,-213.9312 547.4433,-213.9312"/>
<ellipse fill="none" stroke="#000000" cx="544.6207" cy="-212.4237" rx="3.2" ry="3.2"/>
</g>
<!-- patients&#45;&gt;users -->
<g id="edge2" class="edge">
<title>patients:w&#45;&gt;users:e</title>
<path fill="none" stroke="#000000" d="M539.8428,-217.7C528.4139,-217.7 521.1563,-217.7 505,-217.7"/>
<polygon fill="#000000" stroke="#000000" points="546.5,-217.7001 554.5,-221.3 550.5,-217.7 554.5,-217.7 554.5,-217.7 554.5,-217.7 550.5,-217.7 554.5,-214.1 546.5,-217.7001 546.5,-217.7001"/>
<ellipse fill="none" stroke="#000000" cx="543.3" cy="-217.7001" rx="3.2" ry="3.2"/>
</g>
<!-- patients&#45;&gt;users -->
<g id="edge4" class="edge">
<title>patients:w&#45;&gt;users:e</title>
<path fill="none" stroke="#000000" d="M541.704,-224.534C529.1609,-230.0327 522.0156,-227.7547 505,-217.7"/>
<polygon fill="#000000" stroke="#000000" points="547.4433,-221.4688 556.196,-220.8755 550.9717,-219.5844 554.5,-217.7 554.5,-217.7 554.5,-217.7 550.9717,-219.5844 552.804,-214.5245 547.4433,-221.4688 547.4433,-221.4688"/>
<ellipse fill="none" stroke="#000000" cx="544.6207" cy="-222.9763" rx="3.2" ry="3.2"/>
</g>
<!-- profiles -->
<g id="node3" class="node">
<title>profiles</title>
<g id="a_node3"><a xlink:href="../../tables/profiles.html" xlink:title="profiles" target="_top">
<polygon fill="#ffffff" stroke="transparent" points="218,-77.2 218,-226.2 376,-226.2 376,-77.2 218,-77.2"/>
<polygon fill="#f5f5f5" stroke="transparent" points="218,-202.7 218,-225.7 376,-225.7 376,-202.7 218,-202.7"/>
<polygon fill="none" stroke="#000000" points="218,-202.7 218,-225.7 376,-225.7 376,-202.7 218,-202.7"/>
<text text-anchor="start" x="223" y="-211.8" font-family="Helvetica,sans-Serif" font-weight="bold" font-size="11.00" fill="#000000">profiles</text>
<text text-anchor="start" x="341.0437" y="-210.8" font-family="Helvetica,sans-Serif" font-size="11.00" fill="#000000">[table]</text>
<polygon fill="none" stroke="#000000" points="218,-180.7 218,-202.7 376,-202.7 376,-180.7 218,-180.7"/>
<image xlink:href="../../images/primaryKeys.png" width="11px" height="12px" preserveAspectRatio="xMinYMin meet" x="223" y="-197.7"/>
<text text-anchor="start" x="238" y="-187.8" font-family="Helvetica,sans-Serif" font-size="11.00" fill="#000000">id</text>
<polygon fill="none" stroke="#000000" points="218,-158.7 218,-180.7 376,-180.7 376,-158.7 218,-158.7"/>
<image xlink:href="../../images/foreignKeys.png" width="11px" height="12px" preserveAspectRatio="xMinYMin meet" x="223" y="-175.7"/>
<text text-anchor="start" x="238" y="-165.8" font-family="Helvetica,sans-Serif" font-size="11.00" fill="#000000">gender</text>
<polygon fill="none" stroke="#000000" points="218,-136.7 218,-158.7 376,-158.7 376,-136.7 218,-136.7"/>
<image xlink:href="../../images/foreignKeys.png" width="11px" height="12px" preserveAspectRatio="xMinYMin meet" x="223" y="-153.7"/>
<text text-anchor="start" x="238" y="-143.8" font-family="Helvetica,sans-Serif" font-size="11.00" fill="#000000">address_id</text>
<polygon fill="none" stroke="#000000" points="218,-114.7 218,-136.7 376,-136.7 376,-114.7 218,-114.7"/>
<image xlink:href="../../images/foreignKeys.png" width="11px" height="12px" preserveAspectRatio="xMinYMin meet" x="223" y="-131.7"/>
<text text-anchor="start" x="238" y="-121.8" font-family="Helvetica,sans-Serif" font-size="11.00" fill="#000000">marital_status</text>
<polygon fill="none" stroke="#000000" points="218,-95.7 218,-114.7 376,-114.7 376,-95.7 218,-95.7"/>
<text text-anchor="start" x="221" y="-101.8" font-family="Helvetica,sans-Serif" font-size="11.00" fill="#000000">...</text>
<polygon fill="#ffffff" stroke="transparent" points="218,-76.7 218,-95.7 278,-95.7 278,-76.7 218,-76.7"/>
<polygon fill="none" stroke="#000000" points="218,-76.7 218,-95.7 278,-95.7 278,-76.7 218,-76.7"/>
<text text-anchor="start" x="221" y="-82.8" font-family="Helvetica,sans-Serif" font-size="11.00" fill="#000000">&lt; 3</text>
<polygon fill="#ffffff" stroke="transparent" points="278,-76.7 278,-95.7 335,-95.7 335,-76.7 278,-76.7"/>
<polygon fill="none" stroke="#000000" points="278,-76.7 278,-95.7 335,-95.7 335,-76.7 278,-76.7"/>
<text text-anchor="start" x="299.6105" y="-82.8" font-family="Helvetica,sans-Serif" font-size="11.00" fill="#000000">0 rows</text>
<polygon fill="#ffffff" stroke="transparent" points="335,-76.7 335,-95.7 376,-95.7 376,-76.7 335,-76.7"/>
<polygon fill="none" stroke="#000000" points="335,-76.7 335,-95.7 376,-95.7 376,-76.7 335,-76.7"/>
<text text-anchor="start" x="357.4053" y="-82.8" font-family="Helvetica,sans-Serif" font-size="11.00" fill="#000000">2 &gt;</text>
</a>
</g>
</g>
<!-- patients&#45;&gt;profiles -->
<g id="edge3" class="edge">
<title>patients:w&#45;&gt;profiles:e</title>
<path fill="none" stroke="#000000" d="M540.7431,-213.0365C531.0176,-204.4724 530.4824,-186.4949 513,-179.7 473.2315,-164.2432 459.235,-173.6462 417,-179.7 398.2054,-182.3939 394.9867,-191.7 376,-191.7"/>
<polygon fill="#000000" stroke="#000000" points="546.9235,-215.1316 553.3442,-221.1094 550.7117,-216.4158 554.5,-217.7 554.5,-217.7 554.5,-217.7 550.7117,-216.4158 555.6558,-214.2906 546.9235,-215.1316 546.9235,-215.1316"/>
<ellipse fill="none" stroke="#000000" cx="543.8929" cy="-214.1042" rx="3.2" ry="3.2"/>
</g>
<!-- users&#45;&gt;profiles -->
<g id="edge8" class="edge">
<title>users:w&#45;&gt;profiles:e</title>
<path fill="none" stroke="#000000" d="M414.6609,-215.8301C399.7753,-209.8686 396.6089,-191.7 376,-191.7"/>
<polygon fill="#000000" stroke="#000000" points="424.9247,-213.6215 423.5009,-221.4938 421.9264,-221.209 423.3502,-213.3367 424.9247,-213.6215"/>
<polyline fill="none" stroke="#000000" points="425,-217.7 421.0639,-216.9881 "/>
<ellipse fill="none" stroke="#000000" cx="417.9149" cy="-216.4186" rx="3.2" ry="3.2"/>
</g>
<!-- addresses -->
<g id="node4" class="node">
<title>addresses</title>
<g id="a_node4"><a xlink:href="../../tables/addresses.html" xlink:title="addresses" target="_top">
<polygon fill="#ffffff" stroke="transparent" points="42,-120.2 42,-181.2 135,-181.2 135,-120.2 42,-120.2"/>
<polygon fill="#f5f5f5" stroke="transparent" points="42.5,-157.7 42.5,-180.7 135.5,-180.7 135.5,-157.7 42.5,-157.7"/>
<polygon fill="none" stroke="#000000" points="42.5,-157.7 42.5,-180.7 135.5,-180.7 135.5,-157.7 42.5,-157.7"/>
<text text-anchor="start" x="47.1318" y="-166.8" font-family="Helvetica,sans-Serif" font-weight="bold" font-size="11.00" fill="#000000">addresses</text>
<text text-anchor="start" x="101.0219" y="-165.8" font-family="Helvetica,sans-Serif" font-size="11.00" fill="#000000">[table]</text>
<polygon fill="none" stroke="#000000" points="42.5,-138.7 42.5,-157.7 135.5,-157.7 135.5,-138.7 42.5,-138.7"/>
<text text-anchor="start" x="45.5" y="-144.8" font-family="Helvetica,sans-Serif" font-size="11.00" fill="#000000">...</text>
<polygon fill="#ffffff" stroke="transparent" points="42.5,-119.7 42.5,-138.7 65.5,-138.7 65.5,-119.7 42.5,-119.7"/>
<polygon fill="none" stroke="#000000" points="42.5,-119.7 42.5,-138.7 65.5,-138.7 65.5,-119.7 42.5,-119.7"/>
<text text-anchor="start" x="45.5" y="-125.8" font-family="Helvetica,sans-Serif" font-size="11.00" fill="#000000"> &#160;</text>
<polygon fill="#ffffff" stroke="transparent" points="65.5,-119.7 65.5,-138.7 108.5,-138.7 108.5,-119.7 65.5,-119.7"/>
<polygon fill="none" stroke="#000000" points="65.5,-119.7 65.5,-138.7 108.5,-138.7 108.5,-119.7 65.5,-119.7"/>
<text text-anchor="start" x="73.1105" y="-125.8" font-family="Helvetica,sans-Serif" font-size="11.00" fill="#000000">0 rows</text>
<polygon fill="#ffffff" stroke="transparent" points="108.5,-119.7 108.5,-138.7 135.5,-138.7 135.5,-119.7 108.5,-119.7"/>
<polygon fill="none" stroke="#000000" points="108.5,-119.7 108.5,-138.7 135.5,-138.7 135.5,-119.7 108.5,-119.7"/>
<text text-anchor="start" x="116.9053" y="-125.8" font-family="Helvetica,sans-Serif" font-size="11.00" fill="#000000">3 &gt;</text>
</a>
</g>
</g>
<!-- profiles&#45;&gt;addresses -->
<g id="edge5" class="edge">
<title>profiles:w&#45;&gt;addresses:e</title>
<path fill="none" stroke="#000000" d="M203.3098,-147.7C178.0061,-147.7 166.724,-147.7 135.5,-147.7"/>
<polygon fill="#000000" stroke="#000000" points="210,-147.7001 218,-151.3 214,-147.7 218,-147.7 218,-147.7 218,-147.7 214,-147.7 218,-144.1 210,-147.7001 210,-147.7001"/>
<ellipse fill="none" stroke="#000000" cx="206.8" cy="-147.7001" rx="3.2" ry="3.2"/>
</g>
<!-- genders -->
<g id="node5" class="node">
<title>genders</title>
<g id="a_node5"><a xlink:href="../../tables/genders.html" xlink:title="genders" target="_top">
<polygon fill="#ffffff" stroke="transparent" points="8,-202.7 8,-270.7 169,-270.7 169,-202.7 8,-202.7"/>
<polygon fill="#f5f5f5" stroke="transparent" points="10.5,-245.7 10.5,-268.7 167.5,-268.7 167.5,-245.7 10.5,-245.7"/>
<polygon fill="none" stroke="#000000" points="10.5,-245.7 10.5,-268.7 167.5,-268.7 167.5,-245.7 10.5,-245.7"/>
<text text-anchor="start" x="15.5" y="-254.8" font-family="Helvetica,sans-Serif" font-weight="bold" font-size="11.00" fill="#000000">genders</text>
<text text-anchor="start" x="132.5437" y="-253.8" font-family="Helvetica,sans-Serif" font-size="11.00" fill="#000000">[table]</text>
<polygon fill="none" stroke="#000000" points="10.5,-223.7 10.5,-245.7 77.5,-245.7 77.5,-223.7 10.5,-223.7"/>
<image xlink:href="../../images/primaryKeys.png" width="11px" height="12px" preserveAspectRatio="xMinYMin meet" x="15.5" y="-240.7"/>
<text text-anchor="start" x="30.5" y="-230.8" font-family="Helvetica,sans-Serif" font-size="11.00" fill="#000000">name</text>
<polygon fill="none" stroke="#000000" points="77.5,-223.7 77.5,-245.7 167.5,-245.7 167.5,-223.7 77.5,-223.7"/>
<text text-anchor="start" x="80.0042" y="-231.4" font-family="Helvetica,sans-Serif" font-size="11.00" fill="#000000">text[2147483647]</text>
<polygon fill="#ffffff" stroke="transparent" points="10.5,-204.7 10.5,-223.7 35.5,-223.7 35.5,-204.7 10.5,-204.7"/>
<polygon fill="none" stroke="#000000" points="10.5,-204.7 10.5,-223.7 35.5,-223.7 35.5,-204.7 10.5,-204.7"/>
<text text-anchor="start" x="13.5" y="-210.8" font-family="Helvetica,sans-Serif" font-size="11.00" fill="#000000">&lt; 0</text>
<polygon fill="#ffffff" stroke="transparent" points="35.5,-204.7 35.5,-223.7 77.5,-223.7 77.5,-204.7 35.5,-204.7"/>
<polygon fill="none" stroke="#000000" points="35.5,-204.7 35.5,-223.7 77.5,-223.7 77.5,-204.7 35.5,-204.7"/>
<text text-anchor="start" x="42.1105" y="-210.8" font-family="Helvetica,sans-Serif" font-size="11.00" fill="#000000">0 rows</text>
<polygon fill="#ffffff" stroke="transparent" points="77.5,-204.7 77.5,-223.7 167.5,-223.7 167.5,-204.7 77.5,-204.7"/>
<polygon fill="none" stroke="#000000" points="77.5,-204.7 77.5,-223.7 167.5,-223.7 167.5,-204.7 77.5,-204.7"/>
<text text-anchor="start" x="148.9053" y="-210.8" font-family="Helvetica,sans-Serif" font-size="11.00" fill="#000000">1 &gt;</text>
<polygon fill="none" stroke="#000000" stroke-width="2" points="9,-203.7 9,-269.7 168,-269.7 168,-203.7 9,-203.7"/>
</a>
</g>
</g>
<!-- profiles&#45;&gt;genders -->
<g id="edge6" class="edge">
<title>profiles:w&#45;&gt;genders:e</title>
<path fill="none" stroke="#000000" d="M204.2553,-174.3746C187.2595,-189.2786 198.0812,-234.7 167.5,-234.7"/>
<polygon fill="#000000" stroke="#000000" points="210.4261,-172.276 219.1592,-173.1083 214.213,-170.988 218,-169.7 218,-169.7 218,-169.7 214.213,-170.988 216.8408,-166.2917 210.4261,-172.276 210.4261,-172.276"/>
<ellipse fill="none" stroke="#000000" cx="207.3965" cy="-173.3064" rx="3.2" ry="3.2"/>
</g>
<!-- marital_statuses -->
<g id="node6" class="node">
<title>marital_statuses</title>
<g id="a_node6"><a xlink:href="../../tables/marital_statuses.html" xlink:title="marital_statuses" target="_top">
<polygon fill="#ffffff" stroke="transparent" points="27,-38.2 27,-99.2 150,-99.2 150,-38.2 27,-38.2"/>
<polygon fill="#f5f5f5" stroke="transparent" points="27.5,-75.7 27.5,-98.7 150.5,-98.7 150.5,-75.7 27.5,-75.7"/>
<polygon fill="none" stroke="#000000" points="27.5,-75.7 27.5,-98.7 150.5,-98.7 150.5,-75.7 27.5,-75.7"/>
<text text-anchor="start" x="32.4672" y="-84.8" font-family="Helvetica,sans-Serif" font-weight="bold" font-size="11.00" fill="#000000">marital_statuses</text>
<text text-anchor="start" x="116.0219" y="-83.8" font-family="Helvetica,sans-Serif" font-size="11.00" fill="#000000">[table]</text>
<polygon fill="none" stroke="#000000" points="27.5,-56.7 27.5,-75.7 150.5,-75.7 150.5,-56.7 27.5,-56.7"/>
<text text-anchor="start" x="30.5" y="-62.8" font-family="Helvetica,sans-Serif" font-size="11.00" fill="#000000">...</text>
<polygon fill="#ffffff" stroke="transparent" points="27.5,-37.7 27.5,-56.7 65.5,-56.7 65.5,-37.7 27.5,-37.7"/>
<polygon fill="none" stroke="#000000" points="27.5,-37.7 27.5,-56.7 65.5,-56.7 65.5,-37.7 27.5,-37.7"/>
<text text-anchor="start" x="30.5" y="-43.8" font-family="Helvetica,sans-Serif" font-size="11.00" fill="#000000"> &#160;</text>
<polygon fill="#ffffff" stroke="transparent" points="65.5,-37.7 65.5,-56.7 116.5,-56.7 116.5,-37.7 65.5,-37.7"/>
<polygon fill="none" stroke="#000000" points="65.5,-37.7 65.5,-56.7 116.5,-56.7 116.5,-37.7 65.5,-37.7"/>
<text text-anchor="start" x="81.1105" y="-43.8" font-family="Helvetica,sans-Serif" font-size="11.00" fill="#000000">0 rows</text>
<polygon fill="#ffffff" stroke="transparent" points="116.5,-37.7 116.5,-56.7 150.5,-56.7 150.5,-37.7 116.5,-37.7"/>
<polygon fill="none" stroke="#000000" points="116.5,-37.7 116.5,-56.7 150.5,-56.7 150.5,-37.7 116.5,-37.7"/>
<text text-anchor="start" x="131.9053" y="-43.8" font-family="Helvetica,sans-Serif" font-size="11.00" fill="#000000">1 &gt;</text>
</a>
</g>
</g>
<!-- profiles&#45;&gt;marital_statuses -->
<g id="edge7" class="edge">
<title>profiles:w&#45;&gt;marital_statuses:e</title>
<path fill="none" stroke="#000000" d="M203.9115,-122.4741C180.4085,-110.0115 184.9942,-65.7 150.5,-65.7"/>
<polygon fill="#000000" stroke="#000000" points="210.2018,-123.9144 217.1965,-129.2092 214.1009,-124.8072 218,-125.7 218,-125.7 218,-125.7 214.1009,-124.8072 218.8035,-122.1908 210.2018,-123.9144 210.2018,-123.9144"/>
<ellipse fill="none" stroke="#000000" cx="207.0825" cy="-123.2002" rx="3.2" ry="3.2"/>
</g>
</g>
</svg>
