<?xml version="1.0" encoding="UTF-8" standalone="no"?>
<!DOCTYPE svg PUBLIC "-//W3C//DTD SVG 1.1//EN"
 "http://www.w3.org/Graphics/SVG/1.1/DTD/svg11.dtd">
<!-- Generated by graphviz version 2.40.1 (20161225.0304)
 -->
<!-- Title: oneDegreeRelationshipsDiagram Pages: 1 -->
<svg width="392pt" height="199pt"
 viewBox="0.00 0.00 392.00 199.20" xmlns="http://www.w3.org/2000/svg" xmlns:xlink="http://www.w3.org/1999/xlink">
<g id="graph0" class="graph" transform="scale(1 1) rotate(0) translate(4 195.2)">
<title>oneDegreeRelationshipsDiagram</title>
<polygon fill="#ffffff" stroke="transparent" points="-4,4 -4,-195.2 388,-195.2 388,4 -4,4"/>
<text text-anchor="middle" x="72.4936" y="-7.3" font-family="Helvetica,sans-Serif" font-size="11.00" fill="#000000">Generated by SchemaSpy</text>
<!-- profiles -->
<g id="node1" class="node">
<title>profiles</title>
<g id="a_node1"><a xlink:href="../../tables/profiles.html" xlink:title="profiles" target="_top">
<polygon fill="#ffffff" stroke="transparent" points="218,-38.2 218,-187.2 376,-187.2 376,-38.2 218,-38.2"/>
<polygon fill="#f5f5f5" stroke="transparent" points="218,-163.7 218,-186.7 376,-186.7 376,-163.7 218,-163.7"/>
<polygon fill="none" stroke="#000000" points="218,-163.7 218,-186.7 376,-186.7 376,-163.7 218,-163.7"/>
<text text-anchor="start" x="223" y="-172.8" font-family="Helvetica,sans-Serif" font-weight="bold" font-size="11.00" fill="#000000">profiles</text>
<text text-anchor="start" x="341.0437" y="-171.8" font-family="Helvetica,sans-Serif" font-size="11.00" fill="#000000">[table]</text>
<polygon fill="none" stroke="#000000" points="218,-141.7 218,-163.7 376,-163.7 376,-141.7 218,-141.7"/>
<image xlink:href="../../images/primaryKeys.png" width="11px" height="12px" preserveAspectRatio="xMinYMin meet" x="223" y="-158.7"/>
<text text-anchor="start" x="238" y="-148.8" font-family="Helvetica,sans-Serif" font-size="11.00" fill="#000000">id</text>
<polygon fill="none" stroke="#000000" points="218,-119.7 218,-141.7 376,-141.7 376,-119.7 218,-119.7"/>
<image xlink:href="../../images/foreignKeys.png" width="11px" height="12px" preserveAspectRatio="xMinYMin meet" x="223" y="-136.7"/>
<text text-anchor="start" x="238" y="-126.8" font-family="Helvetica,sans-Serif" font-size="11.00" fill="#000000">gender</text>
<polygon fill="none" stroke="#000000" points="218,-97.7 218,-119.7 376,-119.7 376,-97.7 218,-97.7"/>
<image xlink:href="../../images/foreignKeys.png" width="11px" height="12px" preserveAspectRatio="xMinYMin meet" x="223" y="-114.7"/>
<text text-anchor="start" x="238" y="-104.8" font-family="Helvetica,sans-Serif" font-size="11.00" fill="#000000">address_id</text>
<polygon fill="none" stroke="#000000" points="218,-75.7 218,-97.7 376,-97.7 376,-75.7 218,-75.7"/>
<image xlink:href="../../images/foreignKeys.png" width="11px" height="12px" preserveAspectRatio="xMinYMin meet" x="223" y="-92.7"/>
<text text-anchor="start" x="238" y="-82.8" font-family="Helvetica,sans-Serif" font-size="11.00" fill="#000000">marital_status</text>
<polygon fill="none" stroke="#000000" points="218,-56.7 218,-75.7 376,-75.7 376,-56.7 218,-56.7"/>
<text text-anchor="start" x="221" y="-62.8" font-family="Helvetica,sans-Serif" font-size="11.00" fill="#000000">...</text>
<polygon fill="#ffffff" stroke="transparent" points="218,-37.7 218,-56.7 278,-56.7 278,-37.7 218,-37.7"/>
<polygon fill="none" stroke="#000000" points="218,-37.7 218,-56.7 278,-56.7 278,-37.7 218,-37.7"/>
<text text-anchor="start" x="221" y="-43.8" font-family="Helvetica,sans-Serif" font-size="11.00" fill="#000000">&lt; 3</text>
<polygon fill="#ffffff" stroke="transparent" points="278,-37.7 278,-56.7 335,-56.7 335,-37.7 278,-37.7"/>
<polygon fill="none" stroke="#000000" points="278,-37.7 278,-56.7 335,-56.7 335,-37.7 278,-37.7"/>
<text text-anchor="start" x="299.6105" y="-43.8" font-family="Helvetica,sans-Serif" font-size="11.00" fill="#000000">0 rows</text>
<polygon fill="#ffffff" stroke="transparent" points="335,-37.7 335,-56.7 376,-56.7 376,-37.7 335,-37.7"/>
<polygon fill="none" stroke="#000000" points="335,-37.7 335,-56.7 376,-56.7 376,-37.7 335,-37.7"/>
<text text-anchor="start" x="357.4053" y="-43.8" font-family="Helvetica,sans-Serif" font-size="11.00" fill="#000000">2 &gt;</text>
</a>
</g>
</g>
<!-- genders -->
<g id="node2" class="node">
<title>genders</title>
<g id="a_node2"><a xlink:href="../../tables/genders.html" xlink:title="genders" target="_top">
<polygon fill="#ffffff" stroke="transparent" points="8,-98.7 8,-166.7 169,-166.7 169,-98.7 8,-98.7"/>
<polygon fill="#f5f5f5" stroke="transparent" points="10.5,-141.7 10.5,-164.7 167.5,-164.7 167.5,-141.7 10.5,-141.7"/>
<polygon fill="none" stroke="#000000" points="10.5,-141.7 10.5,-164.7 167.5,-164.7 167.5,-141.7 10.5,-141.7"/>
<text text-anchor="start" x="15.5" y="-150.8" font-family="Helvetica,sans-Serif" font-weight="bold" font-size="11.00" fill="#000000">genders</text>
<text text-anchor="start" x="132.5437" y="-149.8" font-family="Helvetica,sans-Serif" font-size="11.00" fill="#000000">[table]</text>
<polygon fill="none" stroke="#000000" points="10.5,-119.7 10.5,-141.7 77.5,-141.7 77.5,-119.7 10.5,-119.7"/>
<image xlink:href="../../images/primaryKeys.png" width="11px" height="12px" preserveAspectRatio="xMinYMin meet" x="15.5" y="-136.7"/>
<text text-anchor="start" x="30.5" y="-126.8" font-family="Helvetica,sans-Serif" font-size="11.00" fill="#000000">name</text>
<polygon fill="none" stroke="#000000" points="77.5,-119.7 77.5,-141.7 167.5,-141.7 167.5,-119.7 77.5,-119.7"/>
<text text-anchor="start" x="80.0042" y="-127.4" font-family="Helvetica,sans-Serif" font-size="11.00" fill="#000000">text[2147483647]</text>
<polygon fill="#ffffff" stroke="transparent" points="10.5,-100.7 10.5,-119.7 35.5,-119.7 35.5,-100.7 10.5,-100.7"/>
<polygon fill="none" stroke="#000000" points="10.5,-100.7 10.5,-119.7 35.5,-119.7 35.5,-100.7 10.5,-100.7"/>
<text text-anchor="start" x="13.5" y="-106.8" font-family="Helvetica,sans-Serif" font-size="11.00" fill="#000000">&lt; 0</text>
<polygon fill="#ffffff" stroke="transparent" points="35.5,-100.7 35.5,-119.7 77.5,-119.7 77.5,-100.7 35.5,-100.7"/>
<polygon fill="none" stroke="#000000" points="35.5,-100.7 35.5,-119.7 77.5,-119.7 77.5,-100.7 35.5,-100.7"/>
<text text-anchor="start" x="42.1105" y="-106.8" font-family="Helvetica,sans-Serif" font-size="11.00" fill="#000000">0 rows</text>
<polygon fill="#ffffff" stroke="transparent" points="77.5,-100.7 77.5,-119.7 167.5,-119.7 167.5,-100.7 77.5,-100.7"/>
<polygon fill="none" stroke="#000000" points="77.5,-100.7 77.5,-119.7 167.5,-119.7 167.5,-100.7 77.5,-100.7"/>
<text text-anchor="start" x="148.9053" y="-106.8" font-family="Helvetica,sans-Serif" font-size="11.00" fill="#000000">1 &gt;</text>
<polygon fill="none" stroke="#000000" stroke-width="2" points="9,-99.7 9,-165.7 168,-165.7 168,-99.7 9,-99.7"/>
</a>
</g>
</g>
<!-- profiles&#45;&gt;genders -->
<g id="edge1" class="edge">
<title>profiles:w&#45;&gt;genders:e</title>
<path fill="none" stroke="#000000" d="M203.4203,-130.7C191.5435,-130.7 184.158,-130.7 167.5,-130.7"/>
<polygon fill="#000000" stroke="#000000" points="210,-130.7001 218,-134.3 214,-130.7 218,-130.7 218,-130.7 218,-130.7 214,-130.7 218,-127.1 210,-130.7001 210,-130.7001"/>
<ellipse fill="none" stroke="#000000" cx="206.8" cy="-130.7001" rx="3.2" ry="3.2"/>
</g>
</g>
</svg>
