<?xml version="1.0" encoding="UTF-8" standalone="no"?>
<!DOCTYPE svg PUBLIC "-//W3C//DTD SVG 1.1//EN"
 "http://www.w3.org/Graphics/SVG/1.1/DTD/svg11.dtd">
<!-- Generated by graphviz version 2.40.1 (20161225.0304)
 -->
<!-- Title: twoDegreesRelationshipsDiagram Pages: 1 -->
<svg width="759pt" height="319pt"
 viewBox="0.00 0.00 759.00 318.70" xmlns="http://www.w3.org/2000/svg" xmlns:xlink="http://www.w3.org/1999/xlink">
<g id="graph0" class="graph" transform="scale(1 1) rotate(0) translate(4 314.7)">
<title>twoDegreesRelationshipsDiagram</title>
<polygon fill="#ffffff" stroke="transparent" points="-4,4 -4,-314.7 755,-314.7 755,4 -4,4"/>
<text text-anchor="middle" x="72.4936" y="-7.3" font-family="Helvetica,sans-Serif" font-size="11.00" fill="#000000">Generated by SchemaSpy</text>
<!-- patients -->
<g id="node1" class="node">
<title>patients</title>
<g id="a_node1"><a xlink:href="../../tables/patients.html" xlink:title="patients" target="_top">
<polygon fill="#ffffff" stroke="transparent" points="627,-245.7 627,-306.7 708,-306.7 708,-245.7 627,-245.7"/>
<polygon fill="#f5f5f5" stroke="transparent" points="627.5,-283.2 627.5,-306.2 708.5,-306.2 708.5,-283.2 627.5,-283.2"/>
<polygon fill="none" stroke="#000000" points="627.5,-283.2 627.5,-306.2 708.5,-306.2 708.5,-283.2 627.5,-283.2"/>
<text text-anchor="start" x="632.2429" y="-292.3" font-family="Helvetica,sans-Serif" font-weight="bold" font-size="11.00" fill="#000000">patients</text>
<text text-anchor="start" x="674.0219" y="-291.3" font-family="Helvetica,sans-Serif" font-size="11.00" fill="#000000">[table]</text>
<polygon fill="none" stroke="#000000" points="627.5,-264.2 627.5,-283.2 708.5,-283.2 708.5,-264.2 627.5,-264.2"/>
<text text-anchor="start" x="630.5" y="-270.3" font-family="Helvetica,sans-Serif" font-size="11.00" fill="#000000">...</text>
<polygon fill="#ffffff" stroke="transparent" points="627.5,-245.2 627.5,-264.2 648.5,-264.2 648.5,-245.2 627.5,-245.2"/>
<polygon fill="none" stroke="#000000" points="627.5,-245.2 627.5,-264.2 648.5,-264.2 648.5,-245.2 627.5,-245.2"/>
<text text-anchor="start" x="630.2026" y="-251.3" font-family="Helvetica,sans-Serif" font-size="11.00" fill="#000000">&lt; 9</text>
<polygon fill="#ffffff" stroke="transparent" points="648.5,-245.2 648.5,-264.2 686.5,-264.2 686.5,-245.2 648.5,-245.2"/>
<polygon fill="none" stroke="#000000" points="648.5,-245.2 648.5,-264.2 686.5,-264.2 686.5,-245.2 648.5,-245.2"/>
<text text-anchor="start" x="651.3053" y="-251.3" font-family="Helvetica,sans-Serif" font-size="11.00" fill="#000000">0 rows</text>
<polygon fill="#ffffff" stroke="transparent" points="686.5,-245.2 686.5,-264.2 708.5,-264.2 708.5,-245.2 686.5,-245.2"/>
<polygon fill="none" stroke="#000000" points="686.5,-245.2 686.5,-264.2 708.5,-264.2 708.5,-245.2 686.5,-245.2"/>
<text text-anchor="start" x="689.9053" y="-251.3" font-family="Helvetica,sans-Serif" font-size="11.00" fill="#000000">2 &gt;</text>
</a>
</g>
</g>
<!-- users -->
<g id="node2" class="node">
<title>users</title>
<g id="a_node2"><a xlink:href="../../tables/users.html" xlink:title="users" target="_top">
<polygon fill="#ffffff" stroke="transparent" points="123,-245.7 123,-306.7 203,-306.7 203,-245.7 123,-245.7"/>
<polygon fill="#f5f5f5" stroke="transparent" points="123,-283.2 123,-306.2 203,-306.2 203,-283.2 123,-283.2"/>
<polygon fill="none" stroke="#000000" points="123,-283.2 123,-306.2 203,-306.2 203,-283.2 123,-283.2"/>
<text text-anchor="start" x="128" y="-292.3" font-family="Helvetica,sans-Serif" font-weight="bold" font-size="11.00" fill="#000000">users</text>
<text text-anchor="start" x="168.0437" y="-291.3" font-family="Helvetica,sans-Serif" font-size="11.00" fill="#000000">[table]</text>
<polygon fill="none" stroke="#000000" points="123,-264.2 123,-283.2 203,-283.2 203,-264.2 123,-264.2"/>
<text text-anchor="start" x="126" y="-270.3" font-family="Helvetica,sans-Serif" font-size="11.00" fill="#000000">...</text>
<polygon fill="#ffffff" stroke="transparent" points="123,-245.2 123,-264.2 144,-264.2 144,-245.2 123,-245.2"/>
<polygon fill="none" stroke="#000000" points="123,-245.2 123,-264.2 144,-264.2 144,-245.2 123,-245.2"/>
<text text-anchor="start" x="125.7027" y="-251.3" font-family="Helvetica,sans-Serif" font-size="11.00" fill="#000000">&lt; 1</text>
<polygon fill="#ffffff" stroke="transparent" points="144,-245.2 144,-264.2 182,-264.2 182,-245.2 144,-245.2"/>
<polygon fill="none" stroke="#000000" points="144,-245.2 144,-264.2 182,-264.2 182,-245.2 144,-245.2"/>
<text text-anchor="start" x="146.8053" y="-251.3" font-family="Helvetica,sans-Serif" font-size="11.00" fill="#000000">0 rows</text>
<polygon fill="#ffffff" stroke="transparent" points="182,-245.2 182,-264.2 203,-264.2 203,-245.2 182,-245.2"/>
<polygon fill="none" stroke="#000000" points="182,-245.2 182,-264.2 203,-264.2 203,-245.2 182,-245.2"/>
<text text-anchor="start" x="184.7027" y="-251.3" font-family="Helvetica,sans-Serif" font-size="11.00" fill="#000000">8 &gt;</text>
</a>
</g>
</g>
<!-- patients&#45;&gt;users -->
<g id="edge1" class="edge">
<title>patients:w&#45;&gt;users:e</title>
<path fill="none" stroke="#000000" d="M612.8661,-273.2C436.2477,-273.2 386.6921,-273.2 203,-273.2"/>
<polygon fill="#000000" stroke="#000000" points="619.5,-273.2001 627.5,-276.8 623.5,-273.2 627.5,-273.2 627.5,-273.2 627.5,-273.2 623.5,-273.2 627.5,-269.6 619.5,-273.2001 619.5,-273.2001"/>
<ellipse fill="none" stroke="#000000" cx="616.3" cy="-273.2001" rx="3.2" ry="3.2"/>
</g>
<!-- patients&#45;&gt;users -->
<g id="edge2" class="edge">
<title>patients:w&#45;&gt;users:e</title>
<path fill="none" stroke="#000000" d="M612.8661,-272.7379C436.2477,-267.2042 386.6921,-267.3582 203,-273.2"/>
<polygon fill="#000000" stroke="#000000" points="619.504,-272.9475 627.3864,-276.7982 623.502,-273.0737 627.5,-273.2 627.5,-273.2 627.5,-273.2 623.502,-273.0737 627.6136,-269.6018 619.504,-272.9475 619.504,-272.9475"/>
<ellipse fill="none" stroke="#000000" cx="616.3056" cy="-272.8464" rx="3.2" ry="3.2"/>
</g>
<!-- patients&#45;&gt;users -->
<g id="edge4" class="edge">
<title>patients:w&#45;&gt;users:e</title>
<path fill="none" stroke="#000000" d="M612.8661,-273.7391C436.2477,-280.1951 386.6921,-280.0154 203,-273.2"/>
<polygon fill="#000000" stroke="#000000" points="619.5054,-273.4946 627.6326,-276.7976 623.5027,-273.3473 627.5,-273.2 627.5,-273.2 627.5,-273.2 623.5027,-273.3473 627.3674,-269.6024 619.5054,-273.4946 619.5054,-273.4946"/>
<ellipse fill="none" stroke="#000000" cx="616.3076" cy="-273.6124" rx="3.2" ry="3.2"/>
</g>
<!-- professionals -->
<g id="node3" class="node">
<title>professionals</title>
<g id="a_node3"><a xlink:href="../../tables/professionals.html" xlink:title="professionals" target="_top">
<polygon fill="#ffffff" stroke="transparent" points="367,-109.7 367,-236.7 543,-236.7 543,-109.7 367,-109.7"/>
<polygon fill="#f5f5f5" stroke="transparent" points="367,-213.2 367,-236.2 543,-236.2 543,-213.2 367,-213.2"/>
<polygon fill="none" stroke="#000000" points="367,-213.2 367,-236.2 543,-236.2 543,-213.2 367,-213.2"/>
<text text-anchor="start" x="372" y="-222.3" font-family="Helvetica,sans-Serif" font-weight="bold" font-size="11.00" fill="#000000">professionals</text>
<text text-anchor="start" x="508.0437" y="-221.3" font-family="Helvetica,sans-Serif" font-size="11.00" fill="#000000">[table]</text>
<polygon fill="none" stroke="#000000" points="367,-191.2 367,-213.2 543,-213.2 543,-191.2 367,-191.2"/>
<image xlink:href="../../images/primaryKeys.png" width="11px" height="12px" preserveAspectRatio="xMinYMin meet" x="372" y="-208.2"/>
<text text-anchor="start" x="387" y="-198.3" font-family="Helvetica,sans-Serif" font-size="11.00" fill="#000000">id</text>
<polygon fill="#ffffff" stroke="transparent" points="367,-169.2 367,-191.2 543,-191.2 543,-169.2 367,-169.2"/>
<polygon fill="none" stroke="#000000" points="367,-169.2 367,-191.2 543,-191.2 543,-169.2 367,-169.2"/>
<image xlink:href="../../images/foreignKeys.png" width="11px" height="12px" preserveAspectRatio="xMinYMin meet" x="372" y="-186.2"/>
<text text-anchor="start" x="387" y="-176.3" font-family="Helvetica,sans-Serif" font-size="11.00" fill="#000000">user_id</text>
<polygon fill="none" stroke="#000000" points="367,-147.2 367,-169.2 543,-169.2 543,-147.2 367,-147.2"/>
<image xlink:href="../../images/foreignKeys.png" width="11px" height="12px" preserveAspectRatio="xMinYMin meet" x="372" y="-164.2"/>
<text text-anchor="start" x="387" y="-154.3" font-family="Helvetica,sans-Serif" font-size="11.00" fill="#000000">license_id</text>
<polygon fill="none" stroke="#000000" points="367,-128.2 367,-147.2 543,-147.2 543,-128.2 367,-128.2"/>
<text text-anchor="start" x="370" y="-134.3" font-family="Helvetica,sans-Serif" font-size="11.00" fill="#000000">...</text>
<polygon fill="#ffffff" stroke="transparent" points="367,-109.2 367,-128.2 436,-128.2 436,-109.2 367,-109.2"/>
<polygon fill="none" stroke="#000000" points="367,-109.2 367,-128.2 436,-128.2 436,-109.2 367,-109.2"/>
<text text-anchor="start" x="370" y="-115.3" font-family="Helvetica,sans-Serif" font-size="11.00" fill="#000000">&lt; 2</text>
<polygon fill="#ffffff" stroke="transparent" points="436,-109.2 436,-128.2 498,-128.2 498,-109.2 436,-109.2"/>
<polygon fill="none" stroke="#000000" points="436,-109.2 436,-128.2 498,-128.2 498,-109.2 436,-109.2"/>
<text text-anchor="start" x="462.6105" y="-115.3" font-family="Helvetica,sans-Serif" font-size="11.00" fill="#000000">0 rows</text>
<polygon fill="#ffffff" stroke="transparent" points="498,-109.2 498,-128.2 543,-128.2 543,-109.2 498,-109.2"/>
<polygon fill="none" stroke="#000000" points="498,-109.2 498,-128.2 543,-128.2 543,-109.2 498,-109.2"/>
<text text-anchor="start" x="524.4053" y="-115.3" font-family="Helvetica,sans-Serif" font-size="11.00" fill="#000000">2 &gt;</text>
</a>
</g>
</g>
<!-- patients&#45;&gt;professionals -->
<g id="edge3" class="edge">
<title>patients:w&#45;&gt;professionals:e</title>
<path fill="none" stroke="#000000" d="M613.0598,-270.6731C580.7257,-258.0252 586.496,-202.2 543,-202.2"/>
<polygon fill="#000000" stroke="#000000" points="619.6197,-271.821 626.8794,-276.7461 623.5599,-272.5105 627.5,-273.2 627.5,-273.2 627.5,-273.2 623.5599,-272.5105 628.1206,-269.6539 619.6197,-271.821 619.6197,-271.821"/>
<ellipse fill="none" stroke="#000000" cx="616.4676" cy="-271.2694" rx="3.2" ry="3.2"/>
</g>
<!-- professionals&#45;&gt;users -->
<g id="edge7" class="edge">
<title>professionals:w&#45;&gt;users:e</title>
<path fill="none" stroke="#000000" d="M356.4678,-182.3085C341.4631,-189.5789 345.2282,-213.8844 326,-227.2 278.0175,-260.428 261.3645,-273.2 203,-273.2"/>
<polygon fill="#000000" stroke="#000000" points="365.4303,-176.4349 367.0008,-184.2792 365.4319,-184.5933 363.8615,-176.749 365.4303,-176.4349"/>
<polyline fill="none" stroke="#000000" points="367,-180.2 363.0778,-180.9852 "/>
<ellipse fill="none" stroke="#000000" cx="359.9401" cy="-181.6134" rx="3.2" ry="3.2"/>
</g>
<!-- licenses -->
<g id="node5" class="node">
<title>licenses</title>
<g id="a_node5"><a xlink:href="../../tables/licenses.html" xlink:title="licenses" target="_top">
<polygon fill="#ffffff" stroke="transparent" points="8,-38.2 8,-216.2 318,-216.2 318,-38.2 8,-38.2"/>
<polygon fill="#f5f5f5" stroke="transparent" points="10,-191.2 10,-214.2 316,-214.2 316,-191.2 10,-191.2"/>
<polygon fill="none" stroke="#000000" points="10,-191.2 10,-214.2 316,-214.2 316,-191.2 10,-191.2"/>
<text text-anchor="start" x="15" y="-200.3" font-family="Helvetica,sans-Serif" font-weight="bold" font-size="11.00" fill="#000000">licenses</text>
<text text-anchor="start" x="281.0437" y="-199.3" font-family="Helvetica,sans-Serif" font-size="11.00" fill="#000000">[table]</text>
<polygon fill="none" stroke="#000000" points="10,-169.2 10,-191.2 222,-191.2 222,-169.2 10,-169.2"/>
<text text-anchor="start" x="30" y="-176.3" font-family="Helvetica,sans-Serif" font-size="11.00" fill="#000000">name</text>
<polygon fill="none" stroke="#000000" points="222,-169.2 222,-191.2 316,-191.2 316,-169.2 222,-169.2"/>
<text text-anchor="start" x="225" y="-176.9" font-family="Helvetica,sans-Serif" font-size="11.00" fill="#000000">text[2147483647]</text>
<polygon fill="none" stroke="#000000" points="10,-147.2 10,-169.2 222,-169.2 222,-147.2 10,-147.2"/>
<image xlink:href="../../images/primaryKeys.png" width="11px" height="12px" preserveAspectRatio="xMinYMin meet" x="15" y="-164.2"/>
<text text-anchor="start" x="30" y="-154.3" font-family="Helvetica,sans-Serif" font-size="11.00" fill="#000000">id</text>
<polygon fill="none" stroke="#000000" points="222,-147.2 222,-169.2 316,-169.2 316,-147.2 222,-147.2"/>
<text text-anchor="start" x="224.9758" y="-154.9" font-family="Helvetica,sans-Serif" font-size="11.00" fill="#000000">uuid[2147483647]</text>
<polygon fill="none" stroke="#000000" points="10,-125.2 10,-147.2 222,-147.2 222,-125.2 10,-125.2"/>
<text text-anchor="start" x="30" y="-132.3" font-family="Helvetica,sans-Serif" font-size="11.00" fill="#000000">is_primary_care</text>
<polygon fill="none" stroke="#000000" points="222,-125.2 222,-147.2 316,-147.2 316,-125.2 222,-125.2"/>
<text text-anchor="start" x="225" y="-132.9" font-family="Helvetica,sans-Serif" font-size="11.00" fill="#000000">bool[1]</text>
<polygon fill="none" stroke="#000000" points="10,-103.2 10,-125.2 222,-125.2 222,-103.2 10,-103.2"/>
<text text-anchor="start" x="30" y="-110.3" font-family="Helvetica,sans-Serif" font-size="11.00" fill="#000000">default_age_min</text>
<polygon fill="none" stroke="#000000" points="222,-103.2 222,-125.2 316,-125.2 316,-103.2 222,-103.2"/>
<text text-anchor="start" x="225" y="-110.9" font-family="Helvetica,sans-Serif" font-size="11.00" fill="#000000">int4[10]</text>
<polygon fill="none" stroke="#000000" points="10,-81.2 10,-103.2 222,-103.2 222,-81.2 10,-81.2"/>
<text text-anchor="start" x="30" y="-88.3" font-family="Helvetica,sans-Serif" font-size="11.00" fill="#000000">default_age_max</text>
<polygon fill="none" stroke="#000000" points="222,-81.2 222,-103.2 316,-103.2 316,-81.2 222,-81.2"/>
<text text-anchor="start" x="225" y="-88.9" font-family="Helvetica,sans-Serif" font-size="11.00" fill="#000000">int4[10]</text>
<polygon fill="none" stroke="#000000" points="10,-59.2 10,-81.2 222,-81.2 222,-59.2 10,-59.2"/>
<text text-anchor="start" x="30" y="-66.3" font-family="Helvetica,sans-Serif" font-size="11.00" fill="#000000">can_age_be_set_by_professional</text>
<polygon fill="none" stroke="#000000" points="222,-59.2 222,-81.2 316,-81.2 316,-59.2 222,-59.2"/>
<text text-anchor="start" x="225" y="-66.9" font-family="Helvetica,sans-Serif" font-size="11.00" fill="#000000">bool[1]</text>
<polygon fill="#ffffff" stroke="transparent" points="10,-40.2 10,-59.2 107,-59.2 107,-40.2 10,-40.2"/>
<polygon fill="none" stroke="#000000" points="10,-40.2 10,-59.2 107,-59.2 107,-40.2 10,-40.2"/>
<text text-anchor="start" x="13" y="-46.3" font-family="Helvetica,sans-Serif" font-size="11.00" fill="#000000">&lt; 0</text>
<polygon fill="#ffffff" stroke="transparent" points="107,-40.2 107,-59.2 222,-59.2 222,-40.2 107,-40.2"/>
<polygon fill="none" stroke="#000000" points="107,-40.2 107,-59.2 222,-59.2 222,-40.2 107,-40.2"/>
<text text-anchor="start" x="186.6105" y="-46.3" font-family="Helvetica,sans-Serif" font-size="11.00" fill="#000000">0 rows</text>
<polygon fill="#ffffff" stroke="transparent" points="222,-40.2 222,-59.2 316,-59.2 316,-40.2 222,-40.2"/>
<polygon fill="none" stroke="#000000" points="222,-40.2 222,-59.2 316,-59.2 316,-40.2 222,-40.2"/>
<text text-anchor="start" x="297.4053" y="-46.3" font-family="Helvetica,sans-Serif" font-size="11.00" fill="#000000">1 &gt;</text>
<polygon fill="none" stroke="#000000" stroke-width="2" points="9,-39.2 9,-215.2 317,-215.2 317,-39.2 9,-39.2"/>
</a>
</g>
</g>
<!-- professionals&#45;&gt;licenses -->
<g id="edge6" class="edge">
<title>professionals:w&#45;&gt;licenses:e</title>
<path fill="none" stroke="#000000" d="M352.276,-158.2C340.2815,-158.2 332.8229,-158.2 316,-158.2"/>
<polygon fill="#000000" stroke="#000000" points="359,-158.2001 367,-161.8 363,-158.2 367,-158.2 367,-158.2 367,-158.2 363,-158.2 367,-154.6 359,-158.2001 359,-158.2001"/>
<ellipse fill="none" stroke="#000000" cx="355.8" cy="-158.2001" rx="3.2" ry="3.2"/>
</g>
<!-- professional_locations -->
<g id="node4" class="node">
<title>professional_locations</title>
<g id="a_node4"><a xlink:href="../../tables/professional_locations.html" xlink:title="professional_locations" target="_top">
<polygon fill="#ffffff" stroke="transparent" points="592,-163.7 592,-224.7 743,-224.7 743,-163.7 592,-163.7"/>
<polygon fill="#f5f5f5" stroke="transparent" points="592.5,-201.2 592.5,-224.2 743.5,-224.2 743.5,-201.2 592.5,-201.2"/>
<polygon fill="none" stroke="#000000" points="592.5,-201.2 592.5,-224.2 743.5,-224.2 743.5,-201.2 592.5,-201.2"/>
<text text-anchor="start" x="597.0984" y="-210.3" font-family="Helvetica,sans-Serif" font-weight="bold" font-size="11.00" fill="#000000">professional_locations</text>
<text text-anchor="start" x="709.0219" y="-209.3" font-family="Helvetica,sans-Serif" font-size="11.00" fill="#000000">[table]</text>
<polygon fill="none" stroke="#000000" points="592.5,-182.2 592.5,-201.2 743.5,-201.2 743.5,-182.2 592.5,-182.2"/>
<text text-anchor="start" x="595.5" y="-188.3" font-family="Helvetica,sans-Serif" font-size="11.00" fill="#000000">...</text>
<polygon fill="#ffffff" stroke="transparent" points="592.5,-163.2 592.5,-182.2 653.5,-182.2 653.5,-163.2 592.5,-163.2"/>
<polygon fill="none" stroke="#000000" points="592.5,-163.2 592.5,-182.2 653.5,-182.2 653.5,-163.2 592.5,-163.2"/>
<text text-anchor="start" x="595.5" y="-169.3" font-family="Helvetica,sans-Serif" font-size="11.00" fill="#000000">&lt; 2</text>
<polygon fill="#ffffff" stroke="transparent" points="653.5,-163.2 653.5,-182.2 711.5,-182.2 711.5,-163.2 653.5,-163.2"/>
<polygon fill="none" stroke="#000000" points="653.5,-163.2 653.5,-182.2 711.5,-182.2 711.5,-163.2 653.5,-163.2"/>
<text text-anchor="start" x="676.1105" y="-169.3" font-family="Helvetica,sans-Serif" font-size="11.00" fill="#000000">0 rows</text>
<polygon fill="#ffffff" stroke="transparent" points="711.5,-163.2 711.5,-182.2 743.5,-182.2 743.5,-163.2 711.5,-163.2"/>
<polygon fill="none" stroke="#000000" points="711.5,-163.2 711.5,-182.2 743.5,-182.2 743.5,-163.2 711.5,-163.2"/>
<text text-anchor="start" x="734.3862" y="-169.3" font-family="Helvetica,sans-Serif" font-size="11.00" fill="#000000"> &#160;</text>
</a>
</g>
</g>
<!-- professional_locations&#45;&gt;professionals -->
<g id="edge5" class="edge">
<title>professional_locations:w&#45;&gt;professionals:e</title>
<path fill="none" stroke="#000000" d="M578.0598,-193.0164C566.4771,-196.1407 559.7264,-202.2 543,-202.2"/>
<polygon fill="#000000" stroke="#000000" points="584.5626,-192.1985 592.9493,-194.7719 588.5313,-191.6992 592.5,-191.2 592.5,-191.2 592.5,-191.2 588.5313,-191.6992 592.0507,-187.6281 584.5626,-192.1985 584.5626,-192.1985"/>
<ellipse fill="none" stroke="#000000" cx="581.3876" cy="-192.5979" rx="3.2" ry="3.2"/>
</g>
</g>
</svg>
