<?xml version="1.0" encoding="UTF-8" standalone="no"?>
<!DOCTYPE svg PUBLIC "-//W3C//DTD SVG 1.1//EN"
 "http://www.w3.org/Graphics/SVG/1.1/DTD/svg11.dtd">
<!-- Generated by graphviz version 2.40.1 (20161225.0304)
 -->
<!-- Title: oneDegreeRelationshipsDiagram Pages: 1 -->
<svg width="559pt" height="249pt"
 viewBox="0.00 0.00 559.00 248.70" xmlns="http://www.w3.org/2000/svg" xmlns:xlink="http://www.w3.org/1999/xlink">
<g id="graph0" class="graph" transform="scale(1 1) rotate(0) translate(4 244.7)">
<title>oneDegreeRelationshipsDiagram</title>
<polygon fill="#ffffff" stroke="transparent" points="-4,4 -4,-244.7 555,-244.7 555,4 -4,4"/>
<text text-anchor="middle" x="72.4936" y="-7.3" font-family="Helvetica,sans-Serif" font-size="11.00" fill="#000000">Generated by SchemaSpy</text>
<!-- professionals -->
<g id="node1" class="node">
<title>professionals</title>
<g id="a_node1"><a xlink:href="../../tables/professionals.html" xlink:title="professionals" target="_top">
<polygon fill="#ffffff" stroke="transparent" points="367,-109.7 367,-236.7 543,-236.7 543,-109.7 367,-109.7"/>
<polygon fill="#f5f5f5" stroke="transparent" points="367,-213.2 367,-236.2 543,-236.2 543,-213.2 367,-213.2"/>
<polygon fill="none" stroke="#000000" points="367,-213.2 367,-236.2 543,-236.2 543,-213.2 367,-213.2"/>
<text text-anchor="start" x="372" y="-222.3" font-family="Helvetica,sans-Serif" font-weight="bold" font-size="11.00" fill="#000000">professionals</text>
<text text-anchor="start" x="508.0437" y="-221.3" font-family="Helvetica,sans-Serif" font-size="11.00" fill="#000000">[table]</text>
<polygon fill="none" stroke="#000000" points="367,-191.2 367,-213.2 543,-213.2 543,-191.2 367,-191.2"/>
<image xlink:href="../../images/primaryKeys.png" width="11px" height="12px" preserveAspectRatio="xMinYMin meet" x="372" y="-208.2"/>
<text text-anchor="start" x="387" y="-198.3" font-family="Helvetica,sans-Serif" font-size="11.00" fill="#000000">id</text>
<polygon fill="#ffffff" stroke="transparent" points="367,-169.2 367,-191.2 543,-191.2 543,-169.2 367,-169.2"/>
<polygon fill="none" stroke="#000000" points="367,-169.2 367,-191.2 543,-191.2 543,-169.2 367,-169.2"/>
<image xlink:href="../../images/foreignKeys.png" width="11px" height="12px" preserveAspectRatio="xMinYMin meet" x="372" y="-186.2"/>
<text text-anchor="start" x="387" y="-176.3" font-family="Helvetica,sans-Serif" font-size="11.00" fill="#000000">user_id</text>
<polygon fill="none" stroke="#000000" points="367,-147.2 367,-169.2 543,-169.2 543,-147.2 367,-147.2"/>
<image xlink:href="../../images/foreignKeys.png" width="11px" height="12px" preserveAspectRatio="xMinYMin meet" x="372" y="-164.2"/>
<text text-anchor="start" x="387" y="-154.3" font-family="Helvetica,sans-Serif" font-size="11.00" fill="#000000">license_id</text>
<polygon fill="none" stroke="#000000" points="367,-128.2 367,-147.2 543,-147.2 543,-128.2 367,-128.2"/>
<text text-anchor="start" x="370" y="-134.3" font-family="Helvetica,sans-Serif" font-size="11.00" fill="#000000">...</text>
<polygon fill="#ffffff" stroke="transparent" points="367,-109.2 367,-128.2 436,-128.2 436,-109.2 367,-109.2"/>
<polygon fill="none" stroke="#000000" points="367,-109.2 367,-128.2 436,-128.2 436,-109.2 367,-109.2"/>
<text text-anchor="start" x="370" y="-115.3" font-family="Helvetica,sans-Serif" font-size="11.00" fill="#000000">&lt; 2</text>
<polygon fill="#ffffff" stroke="transparent" points="436,-109.2 436,-128.2 498,-128.2 498,-109.2 436,-109.2"/>
<polygon fill="none" stroke="#000000" points="436,-109.2 436,-128.2 498,-128.2 498,-109.2 436,-109.2"/>
<text text-anchor="start" x="462.6105" y="-115.3" font-family="Helvetica,sans-Serif" font-size="11.00" fill="#000000">0 rows</text>
<polygon fill="#ffffff" stroke="transparent" points="498,-109.2 498,-128.2 543,-128.2 543,-109.2 498,-109.2"/>
<polygon fill="none" stroke="#000000" points="498,-109.2 498,-128.2 543,-128.2 543,-109.2 498,-109.2"/>
<text text-anchor="start" x="524.4053" y="-115.3" font-family="Helvetica,sans-Serif" font-size="11.00" fill="#000000">2 &gt;</text>
</a>
</g>
</g>
<!-- licenses -->
<g id="node2" class="node">
<title>licenses</title>
<g id="a_node2"><a xlink:href="../../tables/licenses.html" xlink:title="licenses" target="_top">
<polygon fill="#ffffff" stroke="transparent" points="8,-38.2 8,-216.2 318,-216.2 318,-38.2 8,-38.2"/>
<polygon fill="#f5f5f5" stroke="transparent" points="10,-191.2 10,-214.2 316,-214.2 316,-191.2 10,-191.2"/>
<polygon fill="none" stroke="#000000" points="10,-191.2 10,-214.2 316,-214.2 316,-191.2 10,-191.2"/>
<text text-anchor="start" x="15" y="-200.3" font-family="Helvetica,sans-Serif" font-weight="bold" font-size="11.00" fill="#000000">licenses</text>
<text text-anchor="start" x="281.0437" y="-199.3" font-family="Helvetica,sans-Serif" font-size="11.00" fill="#000000">[table]</text>
<polygon fill="none" stroke="#000000" points="10,-169.2 10,-191.2 222,-191.2 222,-169.2 10,-169.2"/>
<text text-anchor="start" x="30" y="-176.3" font-family="Helvetica,sans-Serif" font-size="11.00" fill="#000000">name</text>
<polygon fill="none" stroke="#000000" points="222,-169.2 222,-191.2 316,-191.2 316,-169.2 222,-169.2"/>
<text text-anchor="start" x="225" y="-176.9" font-family="Helvetica,sans-Serif" font-size="11.00" fill="#000000">text[2147483647]</text>
<polygon fill="none" stroke="#000000" points="10,-147.2 10,-169.2 222,-169.2 222,-147.2 10,-147.2"/>
<image xlink:href="../../images/primaryKeys.png" width="11px" height="12px" preserveAspectRatio="xMinYMin meet" x="15" y="-164.2"/>
<text text-anchor="start" x="30" y="-154.3" font-family="Helvetica,sans-Serif" font-size="11.00" fill="#000000">id</text>
<polygon fill="none" stroke="#000000" points="222,-147.2 222,-169.2 316,-169.2 316,-147.2 222,-147.2"/>
<text text-anchor="start" x="224.9758" y="-154.9" font-family="Helvetica,sans-Serif" font-size="11.00" fill="#000000">uuid[2147483647]</text>
<polygon fill="none" stroke="#000000" points="10,-125.2 10,-147.2 222,-147.2 222,-125.2 10,-125.2"/>
<text text-anchor="start" x="30" y="-132.3" font-family="Helvetica,sans-Serif" font-size="11.00" fill="#000000">is_primary_care</text>
<polygon fill="none" stroke="#000000" points="222,-125.2 222,-147.2 316,-147.2 316,-125.2 222,-125.2"/>
<text text-anchor="start" x="225" y="-132.9" font-family="Helvetica,sans-Serif" font-size="11.00" fill="#000000">bool[1]</text>
<polygon fill="none" stroke="#000000" points="10,-103.2 10,-125.2 222,-125.2 222,-103.2 10,-103.2"/>
<text text-anchor="start" x="30" y="-110.3" font-family="Helvetica,sans-Serif" font-size="11.00" fill="#000000">default_age_min</text>
<polygon fill="none" stroke="#000000" points="222,-103.2 222,-125.2 316,-125.2 316,-103.2 222,-103.2"/>
<text text-anchor="start" x="225" y="-110.9" font-family="Helvetica,sans-Serif" font-size="11.00" fill="#000000">int4[10]</text>
<polygon fill="none" stroke="#000000" points="10,-81.2 10,-103.2 222,-103.2 222,-81.2 10,-81.2"/>
<text text-anchor="start" x="30" y="-88.3" font-family="Helvetica,sans-Serif" font-size="11.00" fill="#000000">default_age_max</text>
<polygon fill="none" stroke="#000000" points="222,-81.2 222,-103.2 316,-103.2 316,-81.2 222,-81.2"/>
<text text-anchor="start" x="225" y="-88.9" font-family="Helvetica,sans-Serif" font-size="11.00" fill="#000000">int4[10]</text>
<polygon fill="none" stroke="#000000" points="10,-59.2 10,-81.2 222,-81.2 222,-59.2 10,-59.2"/>
<text text-anchor="start" x="30" y="-66.3" font-family="Helvetica,sans-Serif" font-size="11.00" fill="#000000">can_age_be_set_by_professional</text>
<polygon fill="none" stroke="#000000" points="222,-59.2 222,-81.2 316,-81.2 316,-59.2 222,-59.2"/>
<text text-anchor="start" x="225" y="-66.9" font-family="Helvetica,sans-Serif" font-size="11.00" fill="#000000">bool[1]</text>
<polygon fill="#ffffff" stroke="transparent" points="10,-40.2 10,-59.2 107,-59.2 107,-40.2 10,-40.2"/>
<polygon fill="none" stroke="#000000" points="10,-40.2 10,-59.2 107,-59.2 107,-40.2 10,-40.2"/>
<text text-anchor="start" x="13" y="-46.3" font-family="Helvetica,sans-Serif" font-size="11.00" fill="#000000">&lt; 0</text>
<polygon fill="#ffffff" stroke="transparent" points="107,-40.2 107,-59.2 222,-59.2 222,-40.2 107,-40.2"/>
<polygon fill="none" stroke="#000000" points="107,-40.2 107,-59.2 222,-59.2 222,-40.2 107,-40.2"/>
<text text-anchor="start" x="186.6105" y="-46.3" font-family="Helvetica,sans-Serif" font-size="11.00" fill="#000000">0 rows</text>
<polygon fill="#ffffff" stroke="transparent" points="222,-40.2 222,-59.2 316,-59.2 316,-40.2 222,-40.2"/>
<polygon fill="none" stroke="#000000" points="222,-40.2 222,-59.2 316,-59.2 316,-40.2 222,-40.2"/>
<text text-anchor="start" x="297.4053" y="-46.3" font-family="Helvetica,sans-Serif" font-size="11.00" fill="#000000">1 &gt;</text>
<polygon fill="none" stroke="#000000" stroke-width="2" points="9,-39.2 9,-215.2 317,-215.2 317,-39.2 9,-39.2"/>
</a>
</g>
</g>
<!-- professionals&#45;&gt;licenses -->
<g id="edge1" class="edge">
<title>professionals:w&#45;&gt;licenses:e</title>
<path fill="none" stroke="#000000" d="M352.276,-158.2C340.2815,-158.2 332.8229,-158.2 316,-158.2"/>
<polygon fill="#000000" stroke="#000000" points="359,-158.2001 367,-161.8 363,-158.2 367,-158.2 367,-158.2 367,-158.2 363,-158.2 367,-154.6 359,-158.2001 359,-158.2001"/>
<ellipse fill="none" stroke="#000000" cx="355.8" cy="-158.2001" rx="3.2" ry="3.2"/>
</g>
</g>
</svg>
