<?xml version="1.0" encoding="UTF-8" standalone="no"?>
<!DOCTYPE svg PUBLIC "-//W3C//DTD SVG 1.1//EN"
 "http://www.w3.org/Graphics/SVG/1.1/DTD/svg11.dtd">
<!-- Generated by graphviz version 2.40.1 (20161225.0304)
 -->
<!-- Title: oneDegreeRelationshipsDiagram Pages: 1 -->
<svg width="440pt" height="199pt"
 viewBox="0.00 0.00 440.00 199.20" xmlns="http://www.w3.org/2000/svg" xmlns:xlink="http://www.w3.org/1999/xlink">
<g id="graph0" class="graph" transform="scale(1 1) rotate(0) translate(4 195.2)">
<title>oneDegreeRelationshipsDiagram</title>
<polygon fill="#ffffff" stroke="transparent" points="-4,4 -4,-195.2 436,-195.2 436,4 -4,4"/>
<text text-anchor="middle" x="72.4936" y="-7.3" font-family="Helvetica,sans-Serif" font-size="11.00" fill="#000000">Generated by SchemaSpy</text>
<!-- profiles -->
<g id="node1" class="node">
<title>profiles</title>
<g id="a_node1"><a xlink:href="../../tables/profiles.html" xlink:title="profiles" target="_top">
<polygon fill="#ffffff" stroke="transparent" points="266,-38.2 266,-187.2 424,-187.2 424,-38.2 266,-38.2"/>
<polygon fill="#f5f5f5" stroke="transparent" points="266,-163.7 266,-186.7 424,-186.7 424,-163.7 266,-163.7"/>
<polygon fill="none" stroke="#000000" points="266,-163.7 266,-186.7 424,-186.7 424,-163.7 266,-163.7"/>
<text text-anchor="start" x="271" y="-172.8" font-family="Helvetica,sans-Serif" font-weight="bold" font-size="11.00" fill="#000000">profiles</text>
<text text-anchor="start" x="389.0437" y="-171.8" font-family="Helvetica,sans-Serif" font-size="11.00" fill="#000000">[table]</text>
<polygon fill="none" stroke="#000000" points="266,-141.7 266,-163.7 424,-163.7 424,-141.7 266,-141.7"/>
<image xlink:href="../../images/primaryKeys.png" width="11px" height="12px" preserveAspectRatio="xMinYMin meet" x="271" y="-158.7"/>
<text text-anchor="start" x="286" y="-148.8" font-family="Helvetica,sans-Serif" font-size="11.00" fill="#000000">id</text>
<polygon fill="none" stroke="#000000" points="266,-119.7 266,-141.7 424,-141.7 424,-119.7 266,-119.7"/>
<image xlink:href="../../images/foreignKeys.png" width="11px" height="12px" preserveAspectRatio="xMinYMin meet" x="271" y="-136.7"/>
<text text-anchor="start" x="286" y="-126.8" font-family="Helvetica,sans-Serif" font-size="11.00" fill="#000000">gender</text>
<polygon fill="none" stroke="#000000" points="266,-97.7 266,-119.7 424,-119.7 424,-97.7 266,-97.7"/>
<image xlink:href="../../images/foreignKeys.png" width="11px" height="12px" preserveAspectRatio="xMinYMin meet" x="271" y="-114.7"/>
<text text-anchor="start" x="286" y="-104.8" font-family="Helvetica,sans-Serif" font-size="11.00" fill="#000000">address_id</text>
<polygon fill="none" stroke="#000000" points="266,-75.7 266,-97.7 424,-97.7 424,-75.7 266,-75.7"/>
<image xlink:href="../../images/foreignKeys.png" width="11px" height="12px" preserveAspectRatio="xMinYMin meet" x="271" y="-92.7"/>
<text text-anchor="start" x="286" y="-82.8" font-family="Helvetica,sans-Serif" font-size="11.00" fill="#000000">marital_status</text>
<polygon fill="none" stroke="#000000" points="266,-56.7 266,-75.7 424,-75.7 424,-56.7 266,-56.7"/>
<text text-anchor="start" x="269" y="-62.8" font-family="Helvetica,sans-Serif" font-size="11.00" fill="#000000">...</text>
<polygon fill="#ffffff" stroke="transparent" points="266,-37.7 266,-56.7 326,-56.7 326,-37.7 266,-37.7"/>
<polygon fill="none" stroke="#000000" points="266,-37.7 266,-56.7 326,-56.7 326,-37.7 266,-37.7"/>
<text text-anchor="start" x="269" y="-43.8" font-family="Helvetica,sans-Serif" font-size="11.00" fill="#000000">&lt; 3</text>
<polygon fill="#ffffff" stroke="transparent" points="326,-37.7 326,-56.7 383,-56.7 383,-37.7 326,-37.7"/>
<polygon fill="none" stroke="#000000" points="326,-37.7 326,-56.7 383,-56.7 383,-37.7 326,-37.7"/>
<text text-anchor="start" x="347.6105" y="-43.8" font-family="Helvetica,sans-Serif" font-size="11.00" fill="#000000">0 rows</text>
<polygon fill="#ffffff" stroke="transparent" points="383,-37.7 383,-56.7 424,-56.7 424,-37.7 383,-37.7"/>
<polygon fill="none" stroke="#000000" points="383,-37.7 383,-56.7 424,-56.7 424,-37.7 383,-37.7"/>
<text text-anchor="start" x="405.4053" y="-43.8" font-family="Helvetica,sans-Serif" font-size="11.00" fill="#000000">2 &gt;</text>
</a>
</g>
</g>
<!-- marital_statuses -->
<g id="node2" class="node">
<title>marital_statuses</title>
<g id="a_node2"><a xlink:href="../../tables/marital_statuses.html" xlink:title="marital_statuses" target="_top">
<polygon fill="#ffffff" stroke="transparent" points="8,-54.7 8,-122.7 217,-122.7 217,-54.7 8,-54.7"/>
<polygon fill="#f5f5f5" stroke="transparent" points="10.5,-97.7 10.5,-120.7 215.5,-120.7 215.5,-97.7 10.5,-97.7"/>
<polygon fill="none" stroke="#000000" points="10.5,-97.7 10.5,-120.7 215.5,-120.7 215.5,-97.7 10.5,-97.7"/>
<text text-anchor="start" x="15.5" y="-106.8" font-family="Helvetica,sans-Serif" font-weight="bold" font-size="11.00" fill="#000000">marital_statuses</text>
<text text-anchor="start" x="180.5437" y="-105.8" font-family="Helvetica,sans-Serif" font-size="11.00" fill="#000000">[table]</text>
<polygon fill="none" stroke="#000000" points="10.5,-75.7 10.5,-97.7 125.5,-97.7 125.5,-75.7 10.5,-75.7"/>
<image xlink:href="../../images/primaryKeys.png" width="11px" height="12px" preserveAspectRatio="xMinYMin meet" x="15.5" y="-92.7"/>
<text text-anchor="start" x="30.5" y="-82.8" font-family="Helvetica,sans-Serif" font-size="11.00" fill="#000000">name</text>
<polygon fill="none" stroke="#000000" points="125.5,-75.7 125.5,-97.7 215.5,-97.7 215.5,-75.7 125.5,-75.7"/>
<text text-anchor="start" x="128.0042" y="-83.4" font-family="Helvetica,sans-Serif" font-size="11.00" fill="#000000">text[2147483647]</text>
<polygon fill="#ffffff" stroke="transparent" points="10.5,-56.7 10.5,-75.7 59.5,-75.7 59.5,-56.7 10.5,-56.7"/>
<polygon fill="none" stroke="#000000" points="10.5,-56.7 10.5,-75.7 59.5,-75.7 59.5,-56.7 10.5,-56.7"/>
<text text-anchor="start" x="13.5" y="-62.8" font-family="Helvetica,sans-Serif" font-size="11.00" fill="#000000">&lt; 0</text>
<polygon fill="#ffffff" stroke="transparent" points="59.5,-56.7 59.5,-75.7 125.5,-75.7 125.5,-56.7 59.5,-56.7"/>
<polygon fill="none" stroke="#000000" points="59.5,-56.7 59.5,-75.7 125.5,-75.7 125.5,-56.7 59.5,-56.7"/>
<text text-anchor="start" x="90.1105" y="-62.8" font-family="Helvetica,sans-Serif" font-size="11.00" fill="#000000">0 rows</text>
<polygon fill="#ffffff" stroke="transparent" points="125.5,-56.7 125.5,-75.7 215.5,-75.7 215.5,-56.7 125.5,-56.7"/>
<polygon fill="none" stroke="#000000" points="125.5,-56.7 125.5,-75.7 215.5,-75.7 215.5,-56.7 125.5,-56.7"/>
<text text-anchor="start" x="196.9053" y="-62.8" font-family="Helvetica,sans-Serif" font-size="11.00" fill="#000000">1 &gt;</text>
<polygon fill="none" stroke="#000000" stroke-width="2" points="9,-55.7 9,-121.7 216,-121.7 216,-55.7 9,-55.7"/>
</a>
</g>
</g>
<!-- profiles&#45;&gt;marital_statuses -->
<g id="edge1" class="edge">
<title>profiles:w&#45;&gt;marital_statuses:e</title>
<path fill="none" stroke="#000000" d="M251.4203,-86.7C239.5435,-86.7 232.158,-86.7 215.5,-86.7"/>
<polygon fill="#000000" stroke="#000000" points="258,-86.7001 266,-90.3 262,-86.7 266,-86.7 266,-86.7 266,-86.7 262,-86.7 266,-83.1 258,-86.7001 258,-86.7001"/>
<ellipse fill="none" stroke="#000000" cx="254.8" cy="-86.7001" rx="3.2" ry="3.2"/>
</g>
</g>
</svg>
