<?xml version="1.0" encoding="UTF-8" standalone="no"?>
<!DOCTYPE svg PUBLIC "-//W3C//DTD SVG 1.1//EN"
 "http://www.w3.org/Graphics/SVG/1.1/DTD/svg11.dtd">
<!-- Generated by graphviz version 2.40.1 (20161225.0304)
 -->
<!-- Title: twoDegreesRelationshipsDiagram Pages: 1 -->
<svg width="699pt" height="283pt"
 viewBox="0.00 0.00 699.00 282.70" xmlns="http://www.w3.org/2000/svg" xmlns:xlink="http://www.w3.org/1999/xlink">
<g id="graph0" class="graph" transform="scale(1 1) rotate(0) translate(4 278.7)">
<title>twoDegreesRelationshipsDiagram</title>
<polygon fill="#ffffff" stroke="transparent" points="-4,4 -4,-278.7 695,-278.7 695,4 -4,4"/>
<text text-anchor="middle" x="72.4936" y="-7.3" font-family="Helvetica,sans-Serif" font-size="11.00" fill="#000000">Generated by SchemaSpy</text>
<!-- patients -->
<g id="node1" class="node">
<title>patients</title>
<g id="a_node1"><a xlink:href="../../tables/patients.html" xlink:title="patients" target="_top">
<polygon fill="#ffffff" stroke="transparent" points="602,-197.7 602,-258.7 683,-258.7 683,-197.7 602,-197.7"/>
<polygon fill="#f5f5f5" stroke="transparent" points="602.5,-235.2 602.5,-258.2 683.5,-258.2 683.5,-235.2 602.5,-235.2"/>
<polygon fill="none" stroke="#000000" points="602.5,-235.2 602.5,-258.2 683.5,-258.2 683.5,-235.2 602.5,-235.2"/>
<text text-anchor="start" x="607.2429" y="-244.3" font-family="Helvetica,sans-Serif" font-weight="bold" font-size="11.00" fill="#000000">patients</text>
<text text-anchor="start" x="649.0219" y="-243.3" font-family="Helvetica,sans-Serif" font-size="11.00" fill="#000000">[table]</text>
<polygon fill="none" stroke="#000000" points="602.5,-216.2 602.5,-235.2 683.5,-235.2 683.5,-216.2 602.5,-216.2"/>
<text text-anchor="start" x="605.5" y="-222.3" font-family="Helvetica,sans-Serif" font-size="11.00" fill="#000000">...</text>
<polygon fill="#ffffff" stroke="transparent" points="602.5,-197.2 602.5,-216.2 623.5,-216.2 623.5,-197.2 602.5,-197.2"/>
<polygon fill="none" stroke="#000000" points="602.5,-197.2 602.5,-216.2 623.5,-216.2 623.5,-197.2 602.5,-197.2"/>
<text text-anchor="start" x="605.2026" y="-203.3" font-family="Helvetica,sans-Serif" font-size="11.00" fill="#000000">&lt; 9</text>
<polygon fill="#ffffff" stroke="transparent" points="623.5,-197.2 623.5,-216.2 661.5,-216.2 661.5,-197.2 623.5,-197.2"/>
<polygon fill="none" stroke="#000000" points="623.5,-197.2 623.5,-216.2 661.5,-216.2 661.5,-197.2 623.5,-197.2"/>
<text text-anchor="start" x="626.3053" y="-203.3" font-family="Helvetica,sans-Serif" font-size="11.00" fill="#000000">0 rows</text>
<polygon fill="#ffffff" stroke="transparent" points="661.5,-197.2 661.5,-216.2 683.5,-216.2 683.5,-197.2 661.5,-197.2"/>
<polygon fill="none" stroke="#000000" points="661.5,-197.2 661.5,-216.2 683.5,-216.2 683.5,-197.2 661.5,-197.2"/>
<text text-anchor="start" x="664.9053" y="-203.3" font-family="Helvetica,sans-Serif" font-size="11.00" fill="#000000">2 &gt;</text>
</a>
</g>
</g>
<!-- users -->
<g id="node2" class="node">
<title>users</title>
<g id="a_node2"><a xlink:href="../../tables/users.html" xlink:title="users" target="_top">
<polygon fill="#ffffff" stroke="transparent" points="473,-197.7 473,-258.7 553,-258.7 553,-197.7 473,-197.7"/>
<polygon fill="#f5f5f5" stroke="transparent" points="473,-235.2 473,-258.2 553,-258.2 553,-235.2 473,-235.2"/>
<polygon fill="none" stroke="#000000" points="473,-235.2 473,-258.2 553,-258.2 553,-235.2 473,-235.2"/>
<text text-anchor="start" x="478" y="-244.3" font-family="Helvetica,sans-Serif" font-weight="bold" font-size="11.00" fill="#000000">users</text>
<text text-anchor="start" x="518.0437" y="-243.3" font-family="Helvetica,sans-Serif" font-size="11.00" fill="#000000">[table]</text>
<polygon fill="none" stroke="#000000" points="473,-216.2 473,-235.2 553,-235.2 553,-216.2 473,-216.2"/>
<text text-anchor="start" x="476" y="-222.3" font-family="Helvetica,sans-Serif" font-size="11.00" fill="#000000">...</text>
<polygon fill="#ffffff" stroke="transparent" points="473,-197.2 473,-216.2 494,-216.2 494,-197.2 473,-197.2"/>
<polygon fill="none" stroke="#000000" points="473,-197.2 473,-216.2 494,-216.2 494,-197.2 473,-197.2"/>
<text text-anchor="start" x="475.7027" y="-203.3" font-family="Helvetica,sans-Serif" font-size="11.00" fill="#000000">&lt; 1</text>
<polygon fill="#ffffff" stroke="transparent" points="494,-197.2 494,-216.2 532,-216.2 532,-197.2 494,-197.2"/>
<polygon fill="none" stroke="#000000" points="494,-197.2 494,-216.2 532,-216.2 532,-197.2 494,-197.2"/>
<text text-anchor="start" x="496.8053" y="-203.3" font-family="Helvetica,sans-Serif" font-size="11.00" fill="#000000">0 rows</text>
<polygon fill="#ffffff" stroke="transparent" points="532,-197.2 532,-216.2 553,-216.2 553,-197.2 532,-197.2"/>
<polygon fill="none" stroke="#000000" points="532,-197.2 532,-216.2 553,-216.2 553,-197.2 532,-197.2"/>
<text text-anchor="start" x="534.7026" y="-203.3" font-family="Helvetica,sans-Serif" font-size="11.00" fill="#000000">8 &gt;</text>
</a>
</g>
</g>
<!-- patients&#45;&gt;users -->
<g id="edge1" class="edge">
<title>patients:w&#45;&gt;users:e</title>
<path fill="none" stroke="#000000" d="M589.704,-218.366C577.1609,-212.8673 570.0156,-215.1453 553,-225.2"/>
<polygon fill="#000000" stroke="#000000" points="595.4433,-221.4312 600.804,-228.3755 598.9717,-223.3156 602.5,-225.2 602.5,-225.2 602.5,-225.2 598.9717,-223.3156 604.196,-222.0245 595.4433,-221.4312 595.4433,-221.4312"/>
<ellipse fill="none" stroke="#000000" cx="592.6207" cy="-219.9237" rx="3.2" ry="3.2"/>
</g>
<!-- patients&#45;&gt;users -->
<g id="edge2" class="edge">
<title>patients:w&#45;&gt;users:e</title>
<path fill="none" stroke="#000000" d="M587.8428,-225.2C576.4139,-225.2 569.1563,-225.2 553,-225.2"/>
<polygon fill="#000000" stroke="#000000" points="594.5,-225.2001 602.5,-228.8 598.5,-225.2 602.5,-225.2 602.5,-225.2 602.5,-225.2 598.5,-225.2 602.5,-221.6 594.5,-225.2001 594.5,-225.2001"/>
<ellipse fill="none" stroke="#000000" cx="591.3" cy="-225.2001" rx="3.2" ry="3.2"/>
</g>
<!-- patients&#45;&gt;users -->
<g id="edge4" class="edge">
<title>patients:w&#45;&gt;users:e</title>
<path fill="none" stroke="#000000" d="M589.704,-232.034C577.1609,-237.5327 570.0156,-235.2547 553,-225.2"/>
<polygon fill="#000000" stroke="#000000" points="595.4433,-228.9688 604.196,-228.3755 598.9717,-227.0844 602.5,-225.2 602.5,-225.2 602.5,-225.2 598.9717,-227.0844 600.804,-222.0245 595.4433,-228.9688 595.4433,-228.9688"/>
<ellipse fill="none" stroke="#000000" cx="592.6207" cy="-230.4763" rx="3.2" ry="3.2"/>
</g>
<!-- profiles -->
<g id="node3" class="node">
<title>profiles</title>
<g id="a_node3"><a xlink:href="../../tables/profiles.html" xlink:title="profiles" target="_top">
<polygon fill="#ffffff" stroke="transparent" points="266,-84.7 266,-233.7 424,-233.7 424,-84.7 266,-84.7"/>
<polygon fill="#f5f5f5" stroke="transparent" points="266,-210.2 266,-233.2 424,-233.2 424,-210.2 266,-210.2"/>
<polygon fill="none" stroke="#000000" points="266,-210.2 266,-233.2 424,-233.2 424,-210.2 266,-210.2"/>
<text text-anchor="start" x="271" y="-219.3" font-family="Helvetica,sans-Serif" font-weight="bold" font-size="11.00" fill="#000000">profiles</text>
<text text-anchor="start" x="389.0437" y="-218.3" font-family="Helvetica,sans-Serif" font-size="11.00" fill="#000000">[table]</text>
<polygon fill="none" stroke="#000000" points="266,-188.2 266,-210.2 424,-210.2 424,-188.2 266,-188.2"/>
<image xlink:href="../../images/primaryKeys.png" width="11px" height="12px" preserveAspectRatio="xMinYMin meet" x="271" y="-205.2"/>
<text text-anchor="start" x="286" y="-195.3" font-family="Helvetica,sans-Serif" font-size="11.00" fill="#000000">id</text>
<polygon fill="none" stroke="#000000" points="266,-166.2 266,-188.2 424,-188.2 424,-166.2 266,-166.2"/>
<image xlink:href="../../images/foreignKeys.png" width="11px" height="12px" preserveAspectRatio="xMinYMin meet" x="271" y="-183.2"/>
<text text-anchor="start" x="286" y="-173.3" font-family="Helvetica,sans-Serif" font-size="11.00" fill="#000000">gender</text>
<polygon fill="none" stroke="#000000" points="266,-144.2 266,-166.2 424,-166.2 424,-144.2 266,-144.2"/>
<image xlink:href="../../images/foreignKeys.png" width="11px" height="12px" preserveAspectRatio="xMinYMin meet" x="271" y="-161.2"/>
<text text-anchor="start" x="286" y="-151.3" font-family="Helvetica,sans-Serif" font-size="11.00" fill="#000000">address_id</text>
<polygon fill="none" stroke="#000000" points="266,-122.2 266,-144.2 424,-144.2 424,-122.2 266,-122.2"/>
<image xlink:href="../../images/foreignKeys.png" width="11px" height="12px" preserveAspectRatio="xMinYMin meet" x="271" y="-139.2"/>
<text text-anchor="start" x="286" y="-129.3" font-family="Helvetica,sans-Serif" font-size="11.00" fill="#000000">marital_status</text>
<polygon fill="none" stroke="#000000" points="266,-103.2 266,-122.2 424,-122.2 424,-103.2 266,-103.2"/>
<text text-anchor="start" x="269" y="-109.3" font-family="Helvetica,sans-Serif" font-size="11.00" fill="#000000">...</text>
<polygon fill="#ffffff" stroke="transparent" points="266,-84.2 266,-103.2 326,-103.2 326,-84.2 266,-84.2"/>
<polygon fill="none" stroke="#000000" points="266,-84.2 266,-103.2 326,-103.2 326,-84.2 266,-84.2"/>
<text text-anchor="start" x="269" y="-90.3" font-family="Helvetica,sans-Serif" font-size="11.00" fill="#000000">&lt; 3</text>
<polygon fill="#ffffff" stroke="transparent" points="326,-84.2 326,-103.2 383,-103.2 383,-84.2 326,-84.2"/>
<polygon fill="none" stroke="#000000" points="326,-84.2 326,-103.2 383,-103.2 383,-84.2 326,-84.2"/>
<text text-anchor="start" x="347.6105" y="-90.3" font-family="Helvetica,sans-Serif" font-size="11.00" fill="#000000">0 rows</text>
<polygon fill="#ffffff" stroke="transparent" points="383,-84.2 383,-103.2 424,-103.2 424,-84.2 383,-84.2"/>
<polygon fill="none" stroke="#000000" points="383,-84.2 383,-103.2 424,-103.2 424,-84.2 383,-84.2"/>
<text text-anchor="start" x="405.4053" y="-90.3" font-family="Helvetica,sans-Serif" font-size="11.00" fill="#000000">2 &gt;</text>
</a>
</g>
</g>
<!-- patients&#45;&gt;profiles -->
<g id="edge3" class="edge">
<title>patients:w&#45;&gt;profiles:e</title>
<path fill="none" stroke="#000000" d="M588.7431,-220.5365C579.0176,-211.9724 578.4824,-193.9949 561,-187.2 521.2315,-171.7432 507.235,-181.1462 465,-187.2 446.2054,-189.8939 442.9867,-199.2 424,-199.2"/>
<polygon fill="#000000" stroke="#000000" points="594.9235,-222.6316 601.3442,-228.6094 598.7117,-223.9158 602.5,-225.2 602.5,-225.2 602.5,-225.2 598.7117,-223.9158 603.6558,-221.7906 594.9235,-222.6316 594.9235,-222.6316"/>
<ellipse fill="none" stroke="#000000" cx="591.8929" cy="-221.6042" rx="3.2" ry="3.2"/>
</g>
<!-- users&#45;&gt;profiles -->
<g id="edge8" class="edge">
<title>users:w&#45;&gt;profiles:e</title>
<path fill="none" stroke="#000000" d="M462.6609,-223.3301C447.7753,-217.3686 444.6089,-199.2 424,-199.2"/>
<polygon fill="#000000" stroke="#000000" points="472.9247,-221.1215 471.5009,-228.9938 469.9264,-228.709 471.3502,-220.8367 472.9247,-221.1215"/>
<polyline fill="none" stroke="#000000" points="473,-225.2 469.0639,-224.4881 "/>
<ellipse fill="none" stroke="#000000" cx="465.9149" cy="-223.9186" rx="3.2" ry="3.2"/>
</g>
<!-- addresses -->
<g id="node4" class="node">
<title>addresses</title>
<g id="a_node4"><a xlink:href="../../tables/addresses.html" xlink:title="addresses" target="_top">
<polygon fill="#ffffff" stroke="transparent" points="66,-127.7 66,-188.7 159,-188.7 159,-127.7 66,-127.7"/>
<polygon fill="#f5f5f5" stroke="transparent" points="66.5,-165.2 66.5,-188.2 159.5,-188.2 159.5,-165.2 66.5,-165.2"/>
<polygon fill="none" stroke="#000000" points="66.5,-165.2 66.5,-188.2 159.5,-188.2 159.5,-165.2 66.5,-165.2"/>
<text text-anchor="start" x="71.1318" y="-174.3" font-family="Helvetica,sans-Serif" font-weight="bold" font-size="11.00" fill="#000000">addresses</text>
<text text-anchor="start" x="125.0219" y="-173.3" font-family="Helvetica,sans-Serif" font-size="11.00" fill="#000000">[table]</text>
<polygon fill="none" stroke="#000000" points="66.5,-146.2 66.5,-165.2 159.5,-165.2 159.5,-146.2 66.5,-146.2"/>
<text text-anchor="start" x="69.5" y="-152.3" font-family="Helvetica,sans-Serif" font-size="11.00" fill="#000000">...</text>
<polygon fill="#ffffff" stroke="transparent" points="66.5,-127.2 66.5,-146.2 89.5,-146.2 89.5,-127.2 66.5,-127.2"/>
<polygon fill="none" stroke="#000000" points="66.5,-127.2 66.5,-146.2 89.5,-146.2 89.5,-127.2 66.5,-127.2"/>
<text text-anchor="start" x="69.5" y="-133.3" font-family="Helvetica,sans-Serif" font-size="11.00" fill="#000000"> &#160;</text>
<polygon fill="#ffffff" stroke="transparent" points="89.5,-127.2 89.5,-146.2 132.5,-146.2 132.5,-127.2 89.5,-127.2"/>
<polygon fill="none" stroke="#000000" points="89.5,-127.2 89.5,-146.2 132.5,-146.2 132.5,-127.2 89.5,-127.2"/>
<text text-anchor="start" x="97.1105" y="-133.3" font-family="Helvetica,sans-Serif" font-size="11.00" fill="#000000">0 rows</text>
<polygon fill="#ffffff" stroke="transparent" points="132.5,-127.2 132.5,-146.2 159.5,-146.2 159.5,-127.2 132.5,-127.2"/>
<polygon fill="none" stroke="#000000" points="132.5,-127.2 132.5,-146.2 159.5,-146.2 159.5,-127.2 132.5,-127.2"/>
<text text-anchor="start" x="140.9053" y="-133.3" font-family="Helvetica,sans-Serif" font-size="11.00" fill="#000000">3 &gt;</text>
</a>
</g>
</g>
<!-- profiles&#45;&gt;addresses -->
<g id="edge5" class="edge">
<title>profiles:w&#45;&gt;addresses:e</title>
<path fill="none" stroke="#000000" d="M251.1775,-155.2C215.5301,-155.2 201.4714,-155.2 159.5,-155.2"/>
<polygon fill="#000000" stroke="#000000" points="258,-155.2001 266,-158.8 262,-155.2 266,-155.2 266,-155.2 266,-155.2 262,-155.2 266,-151.6 258,-155.2001 258,-155.2001"/>
<ellipse fill="none" stroke="#000000" cx="254.8" cy="-155.2001" rx="3.2" ry="3.2"/>
</g>
<!-- genders -->
<g id="node5" class="node">
<title>genders</title>
<g id="a_node5"><a xlink:href="../../tables/genders.html" xlink:title="genders" target="_top">
<polygon fill="#ffffff" stroke="transparent" points="71.5,-209.7 71.5,-270.7 153.5,-270.7 153.5,-209.7 71.5,-209.7"/>
<polygon fill="#f5f5f5" stroke="transparent" points="71.5,-247.2 71.5,-270.2 153.5,-270.2 153.5,-247.2 71.5,-247.2"/>
<polygon fill="none" stroke="#000000" points="71.5,-247.2 71.5,-270.2 153.5,-270.2 153.5,-247.2 71.5,-247.2"/>
<text text-anchor="start" x="76.1318" y="-256.3" font-family="Helvetica,sans-Serif" font-weight="bold" font-size="11.00" fill="#000000">genders</text>
<text text-anchor="start" x="119.0219" y="-255.3" font-family="Helvetica,sans-Serif" font-size="11.00" fill="#000000">[table]</text>
<polygon fill="none" stroke="#000000" points="71.5,-228.2 71.5,-247.2 153.5,-247.2 153.5,-228.2 71.5,-228.2"/>
<text text-anchor="start" x="74.5" y="-234.3" font-family="Helvetica,sans-Serif" font-size="11.00" fill="#000000">...</text>
<polygon fill="#ffffff" stroke="transparent" points="71.5,-209.2 71.5,-228.2 88.5,-228.2 88.5,-209.2 71.5,-209.2"/>
<polygon fill="none" stroke="#000000" points="71.5,-209.2 71.5,-228.2 88.5,-228.2 88.5,-209.2 71.5,-209.2"/>
<text text-anchor="start" x="74.5" y="-215.3" font-family="Helvetica,sans-Serif" font-size="11.00" fill="#000000"> &#160;</text>
<polygon fill="#ffffff" stroke="transparent" points="88.5,-209.2 88.5,-228.2 129.5,-228.2 129.5,-209.2 88.5,-209.2"/>
<polygon fill="none" stroke="#000000" points="88.5,-209.2 88.5,-228.2 129.5,-228.2 129.5,-209.2 88.5,-209.2"/>
<text text-anchor="start" x="94.1105" y="-215.3" font-family="Helvetica,sans-Serif" font-size="11.00" fill="#000000">0 rows</text>
<polygon fill="#ffffff" stroke="transparent" points="129.5,-209.2 129.5,-228.2 153.5,-228.2 153.5,-209.2 129.5,-209.2"/>
<polygon fill="none" stroke="#000000" points="129.5,-209.2 129.5,-228.2 153.5,-228.2 153.5,-209.2 129.5,-209.2"/>
<text text-anchor="start" x="134.9053" y="-215.3" font-family="Helvetica,sans-Serif" font-size="11.00" fill="#000000">1 &gt;</text>
</a>
</g>
</g>
<!-- profiles&#45;&gt;genders -->
<g id="edge6" class="edge">
<title>profiles:w&#45;&gt;genders:e</title>
<path fill="none" stroke="#000000" d="M251.5907,-180.0546C242.6615,-184.2567 237.8262,-192.3505 225,-199.2 193.2559,-216.1521 189.487,-237.2 153.5,-237.2"/>
<polygon fill="#000000" stroke="#000000" points="258.1525,-178.7547 266.6996,-180.7314 262.0763,-177.9773 266,-177.2 266,-177.2 266,-177.2 262.0763,-177.9773 265.3004,-173.6686 258.1525,-178.7547 258.1525,-178.7547"/>
<ellipse fill="none" stroke="#000000" cx="255.0135" cy="-179.3766" rx="3.2" ry="3.2"/>
</g>
<!-- marital_statuses -->
<g id="node6" class="node">
<title>marital_statuses</title>
<g id="a_node6"><a xlink:href="../../tables/marital_statuses.html" xlink:title="marital_statuses" target="_top">
<polygon fill="#ffffff" stroke="transparent" points="8,-38.2 8,-106.2 217,-106.2 217,-38.2 8,-38.2"/>
<polygon fill="#f5f5f5" stroke="transparent" points="10.5,-81.2 10.5,-104.2 215.5,-104.2 215.5,-81.2 10.5,-81.2"/>
<polygon fill="none" stroke="#000000" points="10.5,-81.2 10.5,-104.2 215.5,-104.2 215.5,-81.2 10.5,-81.2"/>
<text text-anchor="start" x="15.5" y="-90.3" font-family="Helvetica,sans-Serif" font-weight="bold" font-size="11.00" fill="#000000">marital_statuses</text>
<text text-anchor="start" x="180.5437" y="-89.3" font-family="Helvetica,sans-Serif" font-size="11.00" fill="#000000">[table]</text>
<polygon fill="none" stroke="#000000" points="10.5,-59.2 10.5,-81.2 125.5,-81.2 125.5,-59.2 10.5,-59.2"/>
<image xlink:href="../../images/primaryKeys.png" width="11px" height="12px" preserveAspectRatio="xMinYMin meet" x="15.5" y="-76.2"/>
<text text-anchor="start" x="30.5" y="-66.3" font-family="Helvetica,sans-Serif" font-size="11.00" fill="#000000">name</text>
<polygon fill="none" stroke="#000000" points="125.5,-59.2 125.5,-81.2 215.5,-81.2 215.5,-59.2 125.5,-59.2"/>
<text text-anchor="start" x="128.0042" y="-66.9" font-family="Helvetica,sans-Serif" font-size="11.00" fill="#000000">text[2147483647]</text>
<polygon fill="#ffffff" stroke="transparent" points="10.5,-40.2 10.5,-59.2 59.5,-59.2 59.5,-40.2 10.5,-40.2"/>
<polygon fill="none" stroke="#000000" points="10.5,-40.2 10.5,-59.2 59.5,-59.2 59.5,-40.2 10.5,-40.2"/>
<text text-anchor="start" x="13.5" y="-46.3" font-family="Helvetica,sans-Serif" font-size="11.00" fill="#000000">&lt; 0</text>
<polygon fill="#ffffff" stroke="transparent" points="59.5,-40.2 59.5,-59.2 125.5,-59.2 125.5,-40.2 59.5,-40.2"/>
<polygon fill="none" stroke="#000000" points="59.5,-40.2 59.5,-59.2 125.5,-59.2 125.5,-40.2 59.5,-40.2"/>
<text text-anchor="start" x="90.1105" y="-46.3" font-family="Helvetica,sans-Serif" font-size="11.00" fill="#000000">0 rows</text>
<polygon fill="#ffffff" stroke="transparent" points="125.5,-40.2 125.5,-59.2 215.5,-59.2 215.5,-40.2 125.5,-40.2"/>
<polygon fill="none" stroke="#000000" points="125.5,-40.2 125.5,-59.2 215.5,-59.2 215.5,-40.2 125.5,-40.2"/>
<text text-anchor="start" x="196.9053" y="-46.3" font-family="Helvetica,sans-Serif" font-size="11.00" fill="#000000">1 &gt;</text>
<polygon fill="none" stroke="#000000" stroke-width="2" points="9,-39.2 9,-105.2 216,-105.2 216,-39.2 9,-39.2"/>
</a>
</g>
</g>
<!-- profiles&#45;&gt;marital_statuses -->
<g id="edge7" class="edge">
<title>profiles:w&#45;&gt;marital_statuses:e</title>
<path fill="none" stroke="#000000" d="M251.9816,-128.2565C235.738,-113.4048 245.2175,-70.2 215.5,-70.2"/>
<polygon fill="#000000" stroke="#000000" points="258.4554,-130.5394 264.8027,-136.5951 262.2277,-131.8697 266,-133.2 266,-133.2 266,-133.2 262.2277,-131.8697 267.1973,-129.8049 258.4554,-130.5394 258.4554,-130.5394"/>
<ellipse fill="none" stroke="#000000" cx="255.4375" cy="-129.4752" rx="3.2" ry="3.2"/>
</g>
</g>
</svg>
