<?xml version="1.0" encoding="UTF-8" standalone="no"?>
<!DOCTYPE svg PUBLIC "-//W3C//DTD SVG 1.1//EN"
 "http://www.w3.org/Graphics/SVG/1.1/DTD/svg11.dtd">
<!-- Generated by graphviz version 2.40.1 (20161225.0304)
 -->
<!-- Title: oneDegreeRelationshipsDiagram Pages: 1 -->
<svg width="1463pt" height="690pt"
 viewBox="0.00 0.00 1463.00 690.35" xmlns="http://www.w3.org/2000/svg" xmlns:xlink="http://www.w3.org/1999/xlink">
<g id="graph0" class="graph" transform="scale(1 1) rotate(0) translate(4 686.3549)">
<title>oneDegreeRelationshipsDiagram</title>
<polygon fill="#ffffff" stroke="transparent" points="-4,4 -4,-686.3549 1459,-686.3549 1459,4 -4,4"/>
<text text-anchor="middle" x="72.4936" y="-7.3" font-family="Helvetica,sans-Serif" font-size="11.00" fill="#000000">Generated by SchemaSpy</text>
<!-- companies -->
<g id="node1" class="node">
<title>companies</title>
<g id="a_node1"><a xlink:href="../../tables/companies.html" xlink:title="companies" target="_top">
<polygon fill="#ffffff" stroke="transparent" points="403,-401.7 403,-528.7 580,-528.7 580,-401.7 403,-401.7"/>
<polygon fill="#f5f5f5" stroke="transparent" points="403.5,-505.2 403.5,-528.2 580.5,-528.2 580.5,-505.2 403.5,-505.2"/>
<polygon fill="none" stroke="#000000" points="403.5,-505.2 403.5,-528.2 580.5,-528.2 580.5,-505.2 403.5,-505.2"/>
<text text-anchor="start" x="408.5" y="-514.3" font-family="Helvetica,sans-Serif" font-weight="bold" font-size="11.00" fill="#000000">companies</text>
<text text-anchor="start" x="545.5437" y="-513.3" font-family="Helvetica,sans-Serif" font-size="11.00" fill="#000000">[table]</text>
<polygon fill="none" stroke="#000000" points="403.5,-483.2 403.5,-505.2 580.5,-505.2 580.5,-483.2 403.5,-483.2"/>
<image xlink:href="../../images/primaryKeys.png" width="11px" height="12px" preserveAspectRatio="xMinYMin meet" x="408.5" y="-500.2"/>
<text text-anchor="start" x="423.5" y="-490.3" font-family="Helvetica,sans-Serif" font-size="11.00" fill="#000000">id</text>
<polygon fill="none" stroke="#000000" points="403.5,-461.2 403.5,-483.2 580.5,-483.2 580.5,-461.2 403.5,-461.2"/>
<image xlink:href="../../images/foreignKeys.png" width="11px" height="12px" preserveAspectRatio="xMinYMin meet" x="408.5" y="-478.2"/>
<text text-anchor="start" x="423.5" y="-468.3" font-family="Helvetica,sans-Serif" font-size="11.00" fill="#000000">physical_address_id</text>
<polygon fill="none" stroke="#000000" points="403.5,-439.2 403.5,-461.2 580.5,-461.2 580.5,-439.2 403.5,-439.2"/>
<image xlink:href="../../images/foreignKeys.png" width="11px" height="12px" preserveAspectRatio="xMinYMin meet" x="408.5" y="-456.2"/>
<text text-anchor="start" x="423.5" y="-446.3" font-family="Helvetica,sans-Serif" font-size="11.00" fill="#000000">created_by_user_id</text>
<polygon fill="none" stroke="#000000" points="403.5,-420.2 403.5,-439.2 580.5,-439.2 580.5,-420.2 403.5,-420.2"/>
<text text-anchor="start" x="406.5" y="-426.3" font-family="Helvetica,sans-Serif" font-size="11.00" fill="#000000">...</text>
<polygon fill="#ffffff" stroke="transparent" points="403.5,-401.2 403.5,-420.2 472.5,-420.2 472.5,-401.2 403.5,-401.2"/>
<polygon fill="none" stroke="#000000" points="403.5,-401.2 403.5,-420.2 472.5,-420.2 472.5,-401.2 403.5,-401.2"/>
<text text-anchor="start" x="406.5" y="-407.3" font-family="Helvetica,sans-Serif" font-size="11.00" fill="#000000">&lt; 2</text>
<polygon fill="#ffffff" stroke="transparent" points="472.5,-401.2 472.5,-420.2 534.5,-420.2 534.5,-401.2 472.5,-401.2"/>
<polygon fill="none" stroke="#000000" points="472.5,-401.2 472.5,-420.2 534.5,-420.2 534.5,-401.2 472.5,-401.2"/>
<text text-anchor="start" x="499.1105" y="-407.3" font-family="Helvetica,sans-Serif" font-size="11.00" fill="#000000">0 rows</text>
<polygon fill="#ffffff" stroke="transparent" points="534.5,-401.2 534.5,-420.2 580.5,-420.2 580.5,-401.2 534.5,-401.2"/>
<polygon fill="none" stroke="#000000" points="534.5,-401.2 534.5,-420.2 580.5,-420.2 580.5,-401.2 534.5,-401.2"/>
<text text-anchor="start" x="561.9053" y="-407.3" font-family="Helvetica,sans-Serif" font-size="11.00" fill="#000000">4 &gt;</text>
</a>
</g>
</g>
<!-- users -->
<g id="node2" class="node">
<title>users</title>
<g id="a_node2"><a xlink:href="../../tables/users.html" xlink:title="users" target="_top">
<polygon fill="#ffffff" stroke="transparent" points="215,-335.7 215,-484.7 354,-484.7 354,-335.7 215,-335.7"/>
<polygon fill="#f5f5f5" stroke="transparent" points="215.5,-461.2 215.5,-484.2 354.5,-484.2 354.5,-461.2 215.5,-461.2"/>
<polygon fill="none" stroke="#000000" points="215.5,-461.2 215.5,-484.2 354.5,-484.2 354.5,-461.2 215.5,-461.2"/>
<text text-anchor="start" x="220.5" y="-470.3" font-family="Helvetica,sans-Serif" font-weight="bold" font-size="11.00" fill="#000000">users</text>
<text text-anchor="start" x="319.5437" y="-469.3" font-family="Helvetica,sans-Serif" font-size="11.00" fill="#000000">[table]</text>
<polygon fill="none" stroke="#000000" points="215.5,-439.2 215.5,-461.2 354.5,-461.2 354.5,-439.2 215.5,-439.2"/>
<image xlink:href="../../images/primaryKeys.png" width="11px" height="12px" preserveAspectRatio="xMinYMin meet" x="220.5" y="-456.2"/>
<text text-anchor="start" x="235.5" y="-446.3" font-family="Helvetica,sans-Serif" font-size="11.00" fill="#000000">id</text>
<polygon fill="#ffffff" stroke="transparent" points="215.5,-417.2 215.5,-439.2 354.5,-439.2 354.5,-417.2 215.5,-417.2"/>
<polygon fill="none" stroke="#000000" points="215.5,-417.2 215.5,-439.2 354.5,-439.2 354.5,-417.2 215.5,-417.2"/>
<text text-anchor="start" x="235.5" y="-424.3" font-family="Helvetica,sans-Serif" font-size="11.00" fill="#000000">email</text>
<polygon fill="#ffffff" stroke="transparent" points="215.5,-395.2 215.5,-417.2 354.5,-417.2 354.5,-395.2 215.5,-395.2"/>
<polygon fill="none" stroke="#000000" points="215.5,-395.2 215.5,-417.2 354.5,-417.2 354.5,-395.2 215.5,-395.2"/>
<text text-anchor="start" x="235.5" y="-402.3" font-family="Helvetica,sans-Serif" font-size="11.00" fill="#000000">cognito_id</text>
<polygon fill="#ffffff" stroke="transparent" points="215.5,-373.2 215.5,-395.2 354.5,-395.2 354.5,-373.2 215.5,-373.2"/>
<polygon fill="none" stroke="#000000" points="215.5,-373.2 215.5,-395.2 354.5,-395.2 354.5,-373.2 215.5,-373.2"/>
<image xlink:href="../../images/foreignKeys.png" width="11px" height="12px" preserveAspectRatio="xMinYMin meet" x="220.5" y="-390.2"/>
<text text-anchor="start" x="235.5" y="-380.3" font-family="Helvetica,sans-Serif" font-size="11.00" fill="#000000">profile_id</text>
<polygon fill="none" stroke="#000000" points="215.5,-354.2 215.5,-373.2 354.5,-373.2 354.5,-354.2 215.5,-354.2"/>
<text text-anchor="start" x="218.5" y="-360.3" font-family="Helvetica,sans-Serif" font-size="11.00" fill="#000000">...</text>
<polygon fill="#ffffff" stroke="transparent" points="215.5,-335.2 215.5,-354.2 265.5,-354.2 265.5,-335.2 215.5,-335.2"/>
<polygon fill="none" stroke="#000000" points="215.5,-335.2 215.5,-354.2 265.5,-354.2 265.5,-335.2 215.5,-335.2"/>
<text text-anchor="start" x="218.5" y="-341.3" font-family="Helvetica,sans-Serif" font-size="11.00" fill="#000000">&lt; 1</text>
<polygon fill="#ffffff" stroke="transparent" points="265.5,-335.2 265.5,-354.2 318.5,-354.2 318.5,-335.2 265.5,-335.2"/>
<polygon fill="none" stroke="#000000" points="265.5,-335.2 265.5,-354.2 318.5,-354.2 318.5,-335.2 265.5,-335.2"/>
<text text-anchor="start" x="283.1105" y="-341.3" font-family="Helvetica,sans-Serif" font-size="11.00" fill="#000000">0 rows</text>
<polygon fill="#ffffff" stroke="transparent" points="318.5,-335.2 318.5,-354.2 354.5,-354.2 354.5,-335.2 318.5,-335.2"/>
<polygon fill="none" stroke="#000000" points="318.5,-335.2 318.5,-354.2 354.5,-354.2 354.5,-335.2 318.5,-335.2"/>
<text text-anchor="start" x="335.9053" y="-341.3" font-family="Helvetica,sans-Serif" font-size="11.00" fill="#000000">8 &gt;</text>
</a>
</g>
</g>
<!-- companies&#45;&gt;users -->
<g id="edge1" class="edge">
<title>companies:w&#45;&gt;users:e</title>
<path fill="none" stroke="#000000" d="M388.9909,-450.2C377.6774,-450.2 370.4931,-450.2 354.5,-450.2"/>
<polygon fill="#000000" stroke="#000000" points="395.5,-450.2001 403.5,-453.8 399.5,-450.2 403.5,-450.2 403.5,-450.2 403.5,-450.2 399.5,-450.2 403.5,-446.6 395.5,-450.2001 395.5,-450.2001"/>
<ellipse fill="none" stroke="#000000" cx="392.3" cy="-450.2001" rx="3.2" ry="3.2"/>
</g>
<!-- profiles -->
<g id="node5" class="node">
<title>profiles</title>
<g id="a_node5"><a xlink:href="../../tables/profiles.html" xlink:title="profiles" target="_top">
<polygon fill="#ffffff" stroke="transparent" points="8,-368.7 8,-517.7 166,-517.7 166,-368.7 8,-368.7"/>
<polygon fill="#f5f5f5" stroke="transparent" points="8,-494.2 8,-517.2 166,-517.2 166,-494.2 8,-494.2"/>
<polygon fill="none" stroke="#000000" points="8,-494.2 8,-517.2 166,-517.2 166,-494.2 8,-494.2"/>
<text text-anchor="start" x="13" y="-503.3" font-family="Helvetica,sans-Serif" font-weight="bold" font-size="11.00" fill="#000000">profiles</text>
<text text-anchor="start" x="131.0437" y="-502.3" font-family="Helvetica,sans-Serif" font-size="11.00" fill="#000000">[table]</text>
<polygon fill="none" stroke="#000000" points="8,-472.2 8,-494.2 166,-494.2 166,-472.2 8,-472.2"/>
<image xlink:href="../../images/primaryKeys.png" width="11px" height="12px" preserveAspectRatio="xMinYMin meet" x="13" y="-489.2"/>
<text text-anchor="start" x="28" y="-479.3" font-family="Helvetica,sans-Serif" font-size="11.00" fill="#000000">id</text>
<polygon fill="none" stroke="#000000" points="8,-450.2 8,-472.2 166,-472.2 166,-450.2 8,-450.2"/>
<image xlink:href="../../images/foreignKeys.png" width="11px" height="12px" preserveAspectRatio="xMinYMin meet" x="13" y="-467.2"/>
<text text-anchor="start" x="28" y="-457.3" font-family="Helvetica,sans-Serif" font-size="11.00" fill="#000000">gender</text>
<polygon fill="none" stroke="#000000" points="8,-428.2 8,-450.2 166,-450.2 166,-428.2 8,-428.2"/>
<image xlink:href="../../images/foreignKeys.png" width="11px" height="12px" preserveAspectRatio="xMinYMin meet" x="13" y="-445.2"/>
<text text-anchor="start" x="28" y="-435.3" font-family="Helvetica,sans-Serif" font-size="11.00" fill="#000000">address_id</text>
<polygon fill="none" stroke="#000000" points="8,-406.2 8,-428.2 166,-428.2 166,-406.2 8,-406.2"/>
<image xlink:href="../../images/foreignKeys.png" width="11px" height="12px" preserveAspectRatio="xMinYMin meet" x="13" y="-423.2"/>
<text text-anchor="start" x="28" y="-413.3" font-family="Helvetica,sans-Serif" font-size="11.00" fill="#000000">marital_status</text>
<polygon fill="none" stroke="#000000" points="8,-387.2 8,-406.2 166,-406.2 166,-387.2 8,-387.2"/>
<text text-anchor="start" x="11" y="-393.3" font-family="Helvetica,sans-Serif" font-size="11.00" fill="#000000">...</text>
<polygon fill="#ffffff" stroke="transparent" points="8,-368.2 8,-387.2 68,-387.2 68,-368.2 8,-368.2"/>
<polygon fill="none" stroke="#000000" points="8,-368.2 8,-387.2 68,-387.2 68,-368.2 8,-368.2"/>
<text text-anchor="start" x="11" y="-374.3" font-family="Helvetica,sans-Serif" font-size="11.00" fill="#000000">&lt; 3</text>
<polygon fill="#ffffff" stroke="transparent" points="68,-368.2 68,-387.2 125,-387.2 125,-368.2 68,-368.2"/>
<polygon fill="none" stroke="#000000" points="68,-368.2 68,-387.2 125,-387.2 125,-368.2 68,-368.2"/>
<text text-anchor="start" x="89.6105" y="-374.3" font-family="Helvetica,sans-Serif" font-size="11.00" fill="#000000">0 rows</text>
<polygon fill="#ffffff" stroke="transparent" points="125,-368.2 125,-387.2 166,-387.2 166,-368.2 125,-368.2"/>
<polygon fill="none" stroke="#000000" points="125,-368.2 125,-387.2 166,-387.2 166,-368.2 125,-368.2"/>
<text text-anchor="start" x="147.4053" y="-374.3" font-family="Helvetica,sans-Serif" font-size="11.00" fill="#000000">2 &gt;</text>
</a>
</g>
</g>
<!-- users&#45;&gt;profiles -->
<g id="edge15" class="edge">
<title>users:w&#45;&gt;profiles:e</title>
<path fill="none" stroke="#000000" d="M205.2655,-386.0893C173.667,-399.776 211.1581,-483.2 166,-483.2"/>
<polygon fill="#000000" stroke="#000000" points="213.9871,-380.4117 215.4394,-388.2788 213.866,-388.5692 212.4137,-380.7021 213.9871,-380.4117"/>
<polyline fill="none" stroke="#000000" points="215.5,-384.2 211.5665,-384.9261 "/>
<ellipse fill="none" stroke="#000000" cx="208.4196" cy="-385.5071" rx="3.2" ry="3.2"/>
</g>
<!-- patients -->
<g id="node3" class="node">
<title>patients</title>
<g id="a_node3"><a xlink:href="../../tables/patients.html" xlink:title="patients" target="_top">
<polygon fill="#ffffff" stroke="transparent" points="887,-38.2 887,-568.2 1195,-568.2 1195,-38.2 887,-38.2"/>
<polygon fill="#f5f5f5" stroke="transparent" points="889,-543.2 889,-566.2 1193,-566.2 1193,-543.2 889,-543.2"/>
<polygon fill="none" stroke="#000000" points="889,-543.2 889,-566.2 1193,-566.2 1193,-543.2 889,-543.2"/>
<text text-anchor="start" x="894" y="-552.3" font-family="Helvetica,sans-Serif" font-weight="bold" font-size="11.00" fill="#000000">patients</text>
<text text-anchor="start" x="1158.0437" y="-551.3" font-family="Helvetica,sans-Serif" font-size="11.00" fill="#000000">[table]</text>
<polygon fill="none" stroke="#000000" points="889,-521.2 889,-543.2 1099,-543.2 1099,-521.2 889,-521.2"/>
<image xlink:href="../../images/primaryKeys.png" width="11px" height="12px" preserveAspectRatio="xMinYMin meet" x="894" y="-538.2"/>
<text text-anchor="start" x="909" y="-528.3" font-family="Helvetica,sans-Serif" font-size="11.00" fill="#000000">id</text>
<polygon fill="none" stroke="#000000" points="1099,-521.2 1099,-543.2 1193,-543.2 1193,-521.2 1099,-521.2"/>
<text text-anchor="start" x="1101.9758" y="-528.9" font-family="Helvetica,sans-Serif" font-size="11.00" fill="#000000">uuid[2147483647]</text>
<polygon fill="none" stroke="#000000" points="889,-499.2 889,-521.2 1099,-521.2 1099,-499.2 889,-499.2"/>
<image xlink:href="../../images/foreignKeys.png" width="11px" height="12px" preserveAspectRatio="xMinYMin meet" x="894" y="-516.2"/>
<text text-anchor="start" x="909" y="-506.3" font-family="Helvetica,sans-Serif" font-size="11.00" fill="#000000">profile_id</text>
<polygon fill="none" stroke="#000000" points="1099,-499.2 1099,-521.2 1193,-521.2 1193,-499.2 1099,-499.2"/>
<text text-anchor="start" x="1101.9758" y="-506.9" font-family="Helvetica,sans-Serif" font-size="11.00" fill="#000000">uuid[2147483647]</text>
<polygon fill="none" stroke="#000000" points="889,-477.2 889,-499.2 1099,-499.2 1099,-477.2 889,-477.2"/>
<image xlink:href="../../images/foreignKeys.png" width="11px" height="12px" preserveAspectRatio="xMinYMin meet" x="894" y="-494.2"/>
<text text-anchor="start" x="909" y="-484.3" font-family="Helvetica,sans-Serif" font-size="11.00" fill="#000000">user_id</text>
<polygon fill="none" stroke="#000000" points="1099,-477.2 1099,-499.2 1193,-499.2 1193,-477.2 1099,-477.2"/>
<text text-anchor="start" x="1101.9758" y="-484.9" font-family="Helvetica,sans-Serif" font-size="11.00" fill="#000000">uuid[2147483647]</text>
<polygon fill="none" stroke="#000000" points="889,-455.2 889,-477.2 1099,-477.2 1099,-455.2 889,-455.2"/>
<image xlink:href="../../images/foreignKeys.png" width="11px" height="12px" preserveAspectRatio="xMinYMin meet" x="894" y="-472.2"/>
<text text-anchor="start" x="909" y="-462.3" font-family="Helvetica,sans-Serif" font-size="11.00" fill="#000000">company_id</text>
<polygon fill="none" stroke="#000000" points="1099,-455.2 1099,-477.2 1193,-477.2 1193,-455.2 1099,-455.2"/>
<text text-anchor="start" x="1101.9758" y="-462.9" font-family="Helvetica,sans-Serif" font-size="11.00" fill="#000000">uuid[2147483647]</text>
<polygon fill="none" stroke="#000000" points="889,-433.2 889,-455.2 1099,-455.2 1099,-433.2 889,-433.2"/>
<image xlink:href="../../images/foreignKeys.png" width="11px" height="12px" preserveAspectRatio="xMinYMin meet" x="894" y="-450.2"/>
<text text-anchor="start" x="909" y="-440.3" font-family="Helvetica,sans-Serif" font-size="11.00" fill="#000000">provider_location_id</text>
<polygon fill="none" stroke="#000000" points="1099,-433.2 1099,-455.2 1193,-455.2 1193,-433.2 1099,-433.2"/>
<text text-anchor="start" x="1101.9758" y="-440.9" font-family="Helvetica,sans-Serif" font-size="11.00" fill="#000000">uuid[2147483647]</text>
<polygon fill="none" stroke="#000000" points="889,-411.2 889,-433.2 1099,-433.2 1099,-411.2 889,-411.2"/>
<image xlink:href="../../images/foreignKeys.png" width="11px" height="12px" preserveAspectRatio="xMinYMin meet" x="894" y="-428.2"/>
<text text-anchor="start" x="909" y="-418.3" font-family="Helvetica,sans-Serif" font-size="11.00" fill="#000000">professional_id</text>
<polygon fill="none" stroke="#000000" points="1099,-411.2 1099,-433.2 1193,-433.2 1193,-411.2 1099,-411.2"/>
<text text-anchor="start" x="1101.9758" y="-418.9" font-family="Helvetica,sans-Serif" font-size="11.00" fill="#000000">uuid[2147483647]</text>
<polygon fill="#ffffff" stroke="transparent" points="889,-389.2 889,-411.2 1099,-411.2 1099,-389.2 889,-389.2"/>
<polygon fill="none" stroke="#000000" points="889,-389.2 889,-411.2 1099,-411.2 1099,-389.2 889,-389.2"/>
<text text-anchor="start" x="909" y="-396.3" font-family="Helvetica,sans-Serif" font-size="11.00" fill="#000000">insurance_policy_id</text>
<polygon fill="none" stroke="#000000" points="1099,-389.2 1099,-411.2 1193,-411.2 1193,-389.2 1099,-389.2"/>
<text text-anchor="start" x="1102" y="-396.9" font-family="Helvetica,sans-Serif" font-size="11.00" fill="#000000">text[2147483647]</text>
<polygon fill="none" stroke="#000000" points="889,-367.2 889,-389.2 1099,-389.2 1099,-367.2 889,-367.2"/>
<text text-anchor="start" x="909" y="-374.3" font-family="Helvetica,sans-Serif" font-size="11.00" fill="#000000">insurance_effective_date</text>
<polygon fill="none" stroke="#000000" points="1099,-367.2 1099,-389.2 1193,-389.2 1193,-367.2 1099,-367.2"/>
<text text-anchor="start" x="1102" y="-374.9" font-family="Helvetica,sans-Serif" font-size="11.00" fill="#000000">date[13]</text>
<polygon fill="none" stroke="#000000" points="889,-345.2 889,-367.2 1099,-367.2 1099,-345.2 889,-345.2"/>
<text text-anchor="start" x="909" y="-352.3" font-family="Helvetica,sans-Serif" font-size="11.00" fill="#000000">insurance_expiry_date</text>
<polygon fill="none" stroke="#000000" points="1099,-345.2 1099,-367.2 1193,-367.2 1193,-345.2 1099,-345.2"/>
<text text-anchor="start" x="1102" y="-352.9" font-family="Helvetica,sans-Serif" font-size="11.00" fill="#000000">date[13]</text>
<polygon fill="none" stroke="#000000" points="889,-323.2 889,-345.2 1099,-345.2 1099,-323.2 889,-323.2"/>
<image xlink:href="../../images/foreignKeys.png" width="11px" height="12px" preserveAspectRatio="xMinYMin meet" x="894" y="-340.2"/>
<text text-anchor="start" x="909" y="-330.3" font-family="Helvetica,sans-Serif" font-size="11.00" fill="#000000">main_member_id</text>
<polygon fill="none" stroke="#000000" points="1099,-323.2 1099,-345.2 1193,-345.2 1193,-323.2 1099,-323.2"/>
<text text-anchor="start" x="1101.9758" y="-330.9" font-family="Helvetica,sans-Serif" font-size="11.00" fill="#000000">uuid[2147483647]</text>
<polygon fill="none" stroke="#000000" points="889,-301.2 889,-323.2 1099,-323.2 1099,-301.2 889,-301.2"/>
<image xlink:href="../../images/foreignKeys.png" width="11px" height="12px" preserveAspectRatio="xMinYMin meet" x="894" y="-318.2"/>
<text text-anchor="start" x="909" y="-308.3" font-family="Helvetica,sans-Serif" font-size="11.00" fill="#000000">relationship_to_main_member</text>
<polygon fill="none" stroke="#000000" points="1099,-301.2 1099,-323.2 1193,-323.2 1193,-301.2 1099,-301.2"/>
<text text-anchor="start" x="1102" y="-308.9" font-family="Helvetica,sans-Serif" font-size="11.00" fill="#000000">text[2147483647]</text>
<polygon fill="none" stroke="#000000" points="889,-279.2 889,-301.2 1099,-301.2 1099,-279.2 889,-279.2"/>
<text text-anchor="start" x="909" y="-286.3" font-family="Helvetica,sans-Serif" font-size="11.00" fill="#000000">is_configuration_up_to_member</text>
<polygon fill="none" stroke="#000000" points="1099,-279.2 1099,-301.2 1193,-301.2 1193,-279.2 1099,-279.2"/>
<text text-anchor="start" x="1102" y="-286.9" font-family="Helvetica,sans-Serif" font-size="11.00" fill="#000000">bool[1]</text>
<polygon fill="none" stroke="#000000" points="889,-257.2 889,-279.2 1099,-279.2 1099,-257.2 889,-257.2"/>
<text text-anchor="start" x="909" y="-264.3" font-family="Helvetica,sans-Serif" font-size="11.00" fill="#000000">has_accepted_agreement</text>
<polygon fill="none" stroke="#000000" points="1099,-257.2 1099,-279.2 1193,-279.2 1193,-257.2 1099,-257.2"/>
<text text-anchor="start" x="1102" y="-264.9" font-family="Helvetica,sans-Serif" font-size="11.00" fill="#000000">bool[1]</text>
<polygon fill="none" stroke="#000000" points="889,-235.2 889,-257.2 1099,-257.2 1099,-235.2 889,-235.2"/>
<image xlink:href="../../images/foreignKeys.png" width="11px" height="12px" preserveAspectRatio="xMinYMin meet" x="894" y="-252.2"/>
<text text-anchor="start" x="909" y="-242.3" font-family="Helvetica,sans-Serif" font-size="11.00" fill="#000000">accepted_agreement_by_user_id</text>
<polygon fill="none" stroke="#000000" points="1099,-235.2 1099,-257.2 1193,-257.2 1193,-235.2 1099,-235.2"/>
<text text-anchor="start" x="1101.9758" y="-242.9" font-family="Helvetica,sans-Serif" font-size="11.00" fill="#000000">uuid[2147483647]</text>
<polygon fill="none" stroke="#000000" points="889,-213.2 889,-235.2 1099,-235.2 1099,-213.2 889,-213.2"/>
<text text-anchor="start" x="909" y="-220.3" font-family="Helvetica,sans-Serif" font-size="11.00" fill="#000000">accepted_agreement_on</text>
<polygon fill="none" stroke="#000000" points="1099,-213.2 1099,-235.2 1193,-235.2 1193,-213.2 1099,-213.2"/>
<text text-anchor="start" x="1102" y="-220.9" font-family="Helvetica,sans-Serif" font-size="11.00" fill="#000000">timestamptz[35,6]</text>
<polygon fill="none" stroke="#000000" points="889,-191.2 889,-213.2 1099,-213.2 1099,-191.2 889,-191.2"/>
<image xlink:href="../../images/foreignKeys.png" width="11px" height="12px" preserveAspectRatio="xMinYMin meet" x="894" y="-208.2"/>
<text text-anchor="start" x="909" y="-198.3" font-family="Helvetica,sans-Serif" font-size="11.00" fill="#000000">created_by_user_id</text>
<polygon fill="none" stroke="#000000" points="1099,-191.2 1099,-213.2 1193,-213.2 1193,-191.2 1099,-191.2"/>
<text text-anchor="start" x="1101.9758" y="-198.9" font-family="Helvetica,sans-Serif" font-size="11.00" fill="#000000">uuid[2147483647]</text>
<polygon fill="none" stroke="#000000" points="889,-169.2 889,-191.2 1099,-191.2 1099,-169.2 889,-169.2"/>
<text text-anchor="start" x="909" y="-176.3" font-family="Helvetica,sans-Serif" font-size="11.00" fill="#000000">created_at</text>
<polygon fill="none" stroke="#000000" points="1099,-169.2 1099,-191.2 1193,-191.2 1193,-169.2 1099,-169.2"/>
<text text-anchor="start" x="1102" y="-176.9" font-family="Helvetica,sans-Serif" font-size="11.00" fill="#000000">timestamptz[35,6]</text>
<polygon fill="none" stroke="#000000" points="889,-147.2 889,-169.2 1099,-169.2 1099,-147.2 889,-147.2"/>
<text text-anchor="start" x="909" y="-154.3" font-family="Helvetica,sans-Serif" font-size="11.00" fill="#000000">updated_at</text>
<polygon fill="none" stroke="#000000" points="1099,-147.2 1099,-169.2 1193,-169.2 1193,-147.2 1099,-147.2"/>
<text text-anchor="start" x="1102" y="-154.9" font-family="Helvetica,sans-Serif" font-size="11.00" fill="#000000">timestamptz[35,6]</text>
<polygon fill="none" stroke="#000000" points="889,-125.2 889,-147.2 1099,-147.2 1099,-125.2 889,-125.2"/>
<text text-anchor="start" x="909" y="-132.3" font-family="Helvetica,sans-Serif" font-size="11.00" fill="#000000">deleted_at</text>
<polygon fill="none" stroke="#000000" points="1099,-125.2 1099,-147.2 1193,-147.2 1193,-125.2 1099,-125.2"/>
<text text-anchor="start" x="1102" y="-132.9" font-family="Helvetica,sans-Serif" font-size="11.00" fill="#000000">timestamptz[35,6]</text>
<polygon fill="none" stroke="#000000" points="889,-103.2 889,-125.2 1099,-125.2 1099,-103.2 889,-103.2"/>
<text text-anchor="start" x="909" y="-110.3" font-family="Helvetica,sans-Serif" font-size="11.00" fill="#000000">insurance_company_name</text>
<polygon fill="none" stroke="#000000" points="1099,-103.2 1099,-125.2 1193,-125.2 1193,-103.2 1099,-103.2"/>
<text text-anchor="start" x="1102" y="-110.9" font-family="Helvetica,sans-Serif" font-size="11.00" fill="#000000">text[2147483647]</text>
<polygon fill="none" stroke="#000000" points="889,-81.2 889,-103.2 1099,-103.2 1099,-81.2 889,-81.2"/>
<text text-anchor="start" x="909" y="-88.3" font-family="Helvetica,sans-Serif" font-size="11.00" fill="#000000">insurance_card_front</text>
<polygon fill="none" stroke="#000000" points="1099,-81.2 1099,-103.2 1193,-103.2 1193,-81.2 1099,-81.2"/>
<text text-anchor="start" x="1102" y="-88.9" font-family="Helvetica,sans-Serif" font-size="11.00" fill="#000000">text[2147483647]</text>
<polygon fill="none" stroke="#000000" points="889,-59.2 889,-81.2 1099,-81.2 1099,-59.2 889,-59.2"/>
<text text-anchor="start" x="909" y="-66.3" font-family="Helvetica,sans-Serif" font-size="11.00" fill="#000000">insurance_card_back</text>
<polygon fill="none" stroke="#000000" points="1099,-59.2 1099,-81.2 1193,-81.2 1193,-59.2 1099,-59.2"/>
<text text-anchor="start" x="1102" y="-66.9" font-family="Helvetica,sans-Serif" font-size="11.00" fill="#000000">text[2147483647]</text>
<polygon fill="#ffffff" stroke="transparent" points="889,-40.2 889,-59.2 985,-59.2 985,-40.2 889,-40.2"/>
<polygon fill="none" stroke="#000000" points="889,-40.2 889,-59.2 985,-59.2 985,-40.2 889,-40.2"/>
<text text-anchor="start" x="892" y="-46.3" font-family="Helvetica,sans-Serif" font-size="11.00" fill="#000000">&lt; 9</text>
<polygon fill="#ffffff" stroke="transparent" points="985,-40.2 985,-59.2 1099,-59.2 1099,-40.2 985,-40.2"/>
<polygon fill="none" stroke="#000000" points="985,-40.2 985,-59.2 1099,-59.2 1099,-40.2 985,-40.2"/>
<text text-anchor="start" x="1063.6105" y="-46.3" font-family="Helvetica,sans-Serif" font-size="11.00" fill="#000000">0 rows</text>
<polygon fill="#ffffff" stroke="transparent" points="1099,-40.2 1099,-59.2 1193,-59.2 1193,-40.2 1099,-40.2"/>
<polygon fill="none" stroke="#000000" points="1099,-40.2 1099,-59.2 1193,-59.2 1193,-40.2 1099,-40.2"/>
<text text-anchor="start" x="1174.4053" y="-46.3" font-family="Helvetica,sans-Serif" font-size="11.00" fill="#000000">2 &gt;</text>
<polygon fill="none" stroke="#000000" stroke-width="2" points="888,-39.2 888,-567.2 1194,-567.2 1194,-39.2 888,-39.2"/>
</a>
</g>
</g>
<!-- patients&#45;&gt;companies -->
<g id="edge3" class="edge">
<title>patients:w&#45;&gt;companies:e</title>
<path fill="none" stroke="#000000" d="M875.082,-470.8677C863.5819,-481.2071 866.6199,-505.8613 846,-515.2 754.9069,-556.4559 718.1533,-538.8902 621,-515.2 601.3013,-510.3966 600.7759,-494.2 580.5,-494.2"/>
<polygon fill="#000000" stroke="#000000" points="881.4152,-468.7438 890.1447,-469.6132 885.2076,-467.4719 889,-466.2 889,-466.2 889,-466.2 885.2076,-467.4719 887.8553,-462.7868 881.4152,-468.7438 881.4152,-468.7438"/>
<ellipse fill="none" stroke="#000000" cx="878.3813" cy="-469.7613" rx="3.2" ry="3.2"/>
</g>
<!-- patients&#45;&gt;users -->
<g id="edge2" class="edge">
<title>patients:w&#45;&gt;users:e</title>
<path fill="none" stroke="#000000" d="M874.7215,-243.8166C865.6092,-240.4365 859.9571,-234.4149 846,-232.2 747.0103,-216.4912 471.4966,-172.4389 395,-237.2 321.4537,-299.4633 450.8627,-450.2 354.5,-450.2"/>
<polygon fill="#000000" stroke="#000000" points="881.1092,-244.8828 888.4073,-249.7509 885.0546,-245.5414 889,-246.2 889,-246.2 889,-246.2 885.0546,-245.5414 889.5927,-242.6491 881.1092,-244.8828 881.1092,-244.8828"/>
<ellipse fill="none" stroke="#000000" cx="877.9528" cy="-244.3559" rx="3.2" ry="3.2"/>
</g>
<!-- patients&#45;&gt;users -->
<g id="edge4" class="edge">
<title>patients:w&#45;&gt;users:e</title>
<path fill="none" stroke="#000000" d="M874.3737,-201.991C664.5959,-195.9954 558.4397,-64.0916 395,-203.2 352.6431,-239.2512 410.1218,-450.2 354.5,-450.2"/>
<polygon fill="#000000" stroke="#000000" points="881.0008,-202.0856 888.9485,-205.7996 885.0004,-202.1428 889,-202.2 889,-202.2 889,-202.2 885.0004,-202.1428 889.0515,-198.6004 881.0008,-202.0856 881.0008,-202.0856"/>
<ellipse fill="none" stroke="#000000" cx="877.8011" cy="-202.0399" rx="3.2" ry="3.2"/>
</g>
<!-- patients&#45;&gt;users -->
<g id="edge10" class="edge">
<title>patients:w&#45;&gt;users:e</title>
<path fill="none" stroke="#000000" d="M874.9724,-492.9541C863.4527,-503.4862 866.7927,-528.6086 846,-538.2 800.4967,-559.1901 437.138,-566.3206 395,-539.2 358.4562,-515.6799 397.9585,-450.2 354.5,-450.2"/>
<polygon fill="#000000" stroke="#000000" points="881.4233,-490.7679 890.1555,-491.6095 885.2117,-489.4839 889,-488.2 889,-488.2 889,-488.2 885.2117,-489.4839 887.8445,-484.7905 881.4233,-490.7679 881.4233,-490.7679"/>
<ellipse fill="none" stroke="#000000" cx="878.3926" cy="-491.795" rx="3.2" ry="3.2"/>
</g>
<!-- patients&#45;&gt;patients -->
<g id="edge5" class="edge">
<title>patients:w&#45;&gt;patients:e</title>
<path fill="none" stroke="#000000" d="M880.2464,-345.7799C813.3655,-440.5206 822.1289,-585.2 1041,-585.2 1269,-585.2 1269,-576.5333 1193,-532.2"/>
<polygon fill="#000000" stroke="#000000" points="884.1758,-340.5818 891.8718,-336.3709 886.5879,-337.3909 889,-334.2 889,-334.2 889,-334.2 886.5879,-337.3909 886.1282,-332.0291 884.1758,-340.5818 884.1758,-340.5818"/>
<ellipse fill="none" stroke="#000000" cx="882.2461" cy="-343.1345" rx="3.2" ry="3.2"/>
</g>
<!-- professionals -->
<g id="node4" class="node">
<title>professionals</title>
<g id="a_node4"><a xlink:href="../../tables/professionals.html" xlink:title="professionals" target="_top">
<polygon fill="#ffffff" stroke="transparent" points="403.5,-247.7 403.5,-374.7 579.5,-374.7 579.5,-247.7 403.5,-247.7"/>
<polygon fill="#f5f5f5" stroke="transparent" points="403.5,-351.2 403.5,-374.2 579.5,-374.2 579.5,-351.2 403.5,-351.2"/>
<polygon fill="none" stroke="#000000" points="403.5,-351.2 403.5,-374.2 579.5,-374.2 579.5,-351.2 403.5,-351.2"/>
<text text-anchor="start" x="408.5" y="-360.3" font-family="Helvetica,sans-Serif" font-weight="bold" font-size="11.00" fill="#000000">professionals</text>
<text text-anchor="start" x="544.5437" y="-359.3" font-family="Helvetica,sans-Serif" font-size="11.00" fill="#000000">[table]</text>
<polygon fill="none" stroke="#000000" points="403.5,-329.2 403.5,-351.2 579.5,-351.2 579.5,-329.2 403.5,-329.2"/>
<image xlink:href="../../images/primaryKeys.png" width="11px" height="12px" preserveAspectRatio="xMinYMin meet" x="408.5" y="-346.2"/>
<text text-anchor="start" x="423.5" y="-336.3" font-family="Helvetica,sans-Serif" font-size="11.00" fill="#000000">id</text>
<polygon fill="#ffffff" stroke="transparent" points="403.5,-307.2 403.5,-329.2 579.5,-329.2 579.5,-307.2 403.5,-307.2"/>
<polygon fill="none" stroke="#000000" points="403.5,-307.2 403.5,-329.2 579.5,-329.2 579.5,-307.2 403.5,-307.2"/>
<image xlink:href="../../images/foreignKeys.png" width="11px" height="12px" preserveAspectRatio="xMinYMin meet" x="408.5" y="-324.2"/>
<text text-anchor="start" x="423.5" y="-314.3" font-family="Helvetica,sans-Serif" font-size="11.00" fill="#000000">user_id</text>
<polygon fill="none" stroke="#000000" points="403.5,-285.2 403.5,-307.2 579.5,-307.2 579.5,-285.2 403.5,-285.2"/>
<image xlink:href="../../images/foreignKeys.png" width="11px" height="12px" preserveAspectRatio="xMinYMin meet" x="408.5" y="-302.2"/>
<text text-anchor="start" x="423.5" y="-292.3" font-family="Helvetica,sans-Serif" font-size="11.00" fill="#000000">license_id</text>
<polygon fill="none" stroke="#000000" points="403.5,-266.2 403.5,-285.2 579.5,-285.2 579.5,-266.2 403.5,-266.2"/>
<text text-anchor="start" x="406.5" y="-272.3" font-family="Helvetica,sans-Serif" font-size="11.00" fill="#000000">...</text>
<polygon fill="#ffffff" stroke="transparent" points="403.5,-247.2 403.5,-266.2 472.5,-266.2 472.5,-247.2 403.5,-247.2"/>
<polygon fill="none" stroke="#000000" points="403.5,-247.2 403.5,-266.2 472.5,-266.2 472.5,-247.2 403.5,-247.2"/>
<text text-anchor="start" x="406.5" y="-253.3" font-family="Helvetica,sans-Serif" font-size="11.00" fill="#000000">&lt; 2</text>
<polygon fill="#ffffff" stroke="transparent" points="472.5,-247.2 472.5,-266.2 534.5,-266.2 534.5,-247.2 472.5,-247.2"/>
<polygon fill="none" stroke="#000000" points="472.5,-247.2 472.5,-266.2 534.5,-266.2 534.5,-247.2 472.5,-247.2"/>
<text text-anchor="start" x="499.1105" y="-253.3" font-family="Helvetica,sans-Serif" font-size="11.00" fill="#000000">0 rows</text>
<polygon fill="#ffffff" stroke="transparent" points="534.5,-247.2 534.5,-266.2 579.5,-266.2 579.5,-247.2 534.5,-247.2"/>
<polygon fill="none" stroke="#000000" points="534.5,-247.2 534.5,-266.2 579.5,-266.2 579.5,-247.2 534.5,-247.2"/>
<text text-anchor="start" x="560.9053" y="-253.3" font-family="Helvetica,sans-Serif" font-size="11.00" fill="#000000">2 &gt;</text>
</a>
</g>
</g>
<!-- patients&#45;&gt;professionals -->
<g id="edge6" class="edge">
<title>patients:w&#45;&gt;professionals:e</title>
<path fill="none" stroke="#000000" d="M874.6955,-418.023C857.8784,-404.5358 874.1017,-362.0498 846,-345.2 795.1995,-314.7399 638.7326,-340.2 579.5,-340.2"/>
<polygon fill="#000000" stroke="#000000" points="881.3207,-419.9575 887.9909,-425.6557 885.1604,-421.0788 889,-422.2 889,-422.2 889,-422.2 885.1604,-421.0788 890.0091,-418.7443 881.3207,-419.9575 881.3207,-419.9575"/>
<ellipse fill="none" stroke="#000000" cx="878.249" cy="-419.0606" rx="3.2" ry="3.2"/>
</g>
<!-- patients&#45;&gt;profiles -->
<g id="edge7" class="edge">
<title>patients:w&#45;&gt;profiles:e</title>
<path fill="none" stroke="#000000" d="M875.188,-514.7755C863.7019,-524.91 866.4302,-549.0729 846,-558.2 662.9882,-639.9597 592.9398,-589.7882 395,-558.2 388.3901,-557.1452 172.6936,-483.2 166,-483.2"/>
<polygon fill="#000000" stroke="#000000" points="881.4058,-512.7158 890.1321,-513.6174 885.2029,-511.4579 889,-510.2 889,-510.2 889,-510.2 885.2029,-511.4579 887.8679,-506.7826 881.4058,-512.7158 881.4058,-512.7158"/>
<ellipse fill="none" stroke="#000000" cx="878.3682" cy="-513.7221" rx="3.2" ry="3.2"/>
</g>
<!-- provider_locations -->
<g id="node6" class="node">
<title>provider_locations</title>
<g id="a_node6"><a xlink:href="../../tables/provider_locations.html" xlink:title="provider_locations" target="_top">
<polygon fill="#ffffff" stroke="transparent" points="629,-355.7 629,-504.7 838,-504.7 838,-355.7 629,-355.7"/>
<polygon fill="#f5f5f5" stroke="transparent" points="629.5,-481.2 629.5,-504.2 838.5,-504.2 838.5,-481.2 629.5,-481.2"/>
<polygon fill="none" stroke="#000000" points="629.5,-481.2 629.5,-504.2 838.5,-504.2 838.5,-481.2 629.5,-481.2"/>
<text text-anchor="start" x="634.5" y="-490.3" font-family="Helvetica,sans-Serif" font-weight="bold" font-size="11.00" fill="#000000">provider_locations</text>
<text text-anchor="start" x="803.5437" y="-489.3" font-family="Helvetica,sans-Serif" font-size="11.00" fill="#000000">[table]</text>
<polygon fill="none" stroke="#000000" points="629.5,-459.2 629.5,-481.2 838.5,-481.2 838.5,-459.2 629.5,-459.2"/>
<image xlink:href="../../images/primaryKeys.png" width="11px" height="12px" preserveAspectRatio="xMinYMin meet" x="634.5" y="-476.2"/>
<text text-anchor="start" x="649.5" y="-466.3" font-family="Helvetica,sans-Serif" font-size="11.00" fill="#000000">id</text>
<polygon fill="none" stroke="#000000" points="629.5,-437.2 629.5,-459.2 838.5,-459.2 838.5,-437.2 629.5,-437.2"/>
<image xlink:href="../../images/foreignKeys.png" width="11px" height="12px" preserveAspectRatio="xMinYMin meet" x="634.5" y="-454.2"/>
<text text-anchor="start" x="649.5" y="-444.3" font-family="Helvetica,sans-Serif" font-size="11.00" fill="#000000">company_id</text>
<polygon fill="none" stroke="#000000" points="629.5,-415.2 629.5,-437.2 838.5,-437.2 838.5,-415.2 629.5,-415.2"/>
<image xlink:href="../../images/foreignKeys.png" width="11px" height="12px" preserveAspectRatio="xMinYMin meet" x="634.5" y="-432.2"/>
<text text-anchor="start" x="649.5" y="-422.3" font-family="Helvetica,sans-Serif" font-size="11.00" fill="#000000">address_id</text>
<polygon fill="none" stroke="#000000" points="629.5,-393.2 629.5,-415.2 838.5,-415.2 838.5,-393.2 629.5,-393.2"/>
<image xlink:href="../../images/foreignKeys.png" width="11px" height="12px" preserveAspectRatio="xMinYMin meet" x="634.5" y="-410.2"/>
<text text-anchor="start" x="649.5" y="-400.3" font-family="Helvetica,sans-Serif" font-size="11.00" fill="#000000">company_doing_business_as_id</text>
<polygon fill="none" stroke="#000000" points="629.5,-374.2 629.5,-393.2 838.5,-393.2 838.5,-374.2 629.5,-374.2"/>
<text text-anchor="start" x="632.5" y="-380.3" font-family="Helvetica,sans-Serif" font-size="11.00" fill="#000000">...</text>
<polygon fill="#ffffff" stroke="transparent" points="629.5,-355.2 629.5,-374.2 714.5,-374.2 714.5,-355.2 629.5,-355.2"/>
<polygon fill="none" stroke="#000000" points="629.5,-355.2 629.5,-374.2 714.5,-374.2 714.5,-355.2 629.5,-355.2"/>
<text text-anchor="start" x="632.5" y="-361.3" font-family="Helvetica,sans-Serif" font-size="11.00" fill="#000000">&lt; 3</text>
<polygon fill="#ffffff" stroke="transparent" points="714.5,-355.2 714.5,-374.2 784.5,-374.2 784.5,-355.2 714.5,-355.2"/>
<polygon fill="none" stroke="#000000" points="714.5,-355.2 714.5,-374.2 784.5,-374.2 784.5,-355.2 714.5,-355.2"/>
<text text-anchor="start" x="749.1105" y="-361.3" font-family="Helvetica,sans-Serif" font-size="11.00" fill="#000000">0 rows</text>
<polygon fill="#ffffff" stroke="transparent" points="784.5,-355.2 784.5,-374.2 838.5,-374.2 838.5,-355.2 784.5,-355.2"/>
<polygon fill="none" stroke="#000000" points="784.5,-355.2 784.5,-374.2 838.5,-374.2 838.5,-355.2 784.5,-355.2"/>
<text text-anchor="start" x="819.9053" y="-361.3" font-family="Helvetica,sans-Serif" font-size="11.00" fill="#000000">2 &gt;</text>
</a>
</g>
</g>
<!-- patients&#45;&gt;provider_locations -->
<g id="edge8" class="edge">
<title>patients:w&#45;&gt;provider_locations:e</title>
<path fill="none" stroke="#000000" d="M874.7586,-447.8152C862.3642,-454.9593 857.8278,-470.2 838.5,-470.2"/>
<polygon fill="#000000" stroke="#000000" points="881.2459,-446.1684 889.8858,-447.6893 885.123,-445.1842 889,-444.2 889,-444.2 889,-444.2 885.123,-445.1842 888.1142,-440.7107 881.2459,-446.1684 881.2459,-446.1684"/>
<ellipse fill="none" stroke="#000000" cx="878.1443" cy="-446.9558" rx="3.2" ry="3.2"/>
</g>
<!-- relationships -->
<g id="node7" class="node">
<title>relationships</title>
<g id="a_node7"><a xlink:href="../../tables/relationships.html" xlink:title="relationships" target="_top">
<polygon fill="#ffffff" stroke="transparent" points="681.5,-243.2 681.5,-307.2 785.5,-307.2 785.5,-243.2 681.5,-243.2"/>
<polygon fill="#f5f5f5" stroke="transparent" points="681.5,-284.2 681.5,-307.2 785.5,-307.2 785.5,-284.2 681.5,-284.2"/>
<polygon fill="none" stroke="#000000" points="681.5,-284.2 681.5,-307.2 785.5,-307.2 785.5,-284.2 681.5,-284.2"/>
<text text-anchor="start" x="686.1346" y="-293.3" font-family="Helvetica,sans-Serif" font-weight="bold" font-size="11.00" fill="#000000">relationships</text>
<text text-anchor="start" x="751.0219" y="-292.3" font-family="Helvetica,sans-Serif" font-size="11.00" fill="#000000">[table]</text>
<polygon fill="none" stroke="#000000" points="681.5,-262.2 681.5,-284.2 785.5,-284.2 785.5,-262.2 681.5,-262.2"/>
<image xlink:href="../../images/primaryKeys.png" width="11px" height="12px" preserveAspectRatio="xMinYMin meet" x="686.5" y="-279.2"/>
<text text-anchor="start" x="706.5" y="-269.3" font-family="Helvetica,sans-Serif" font-size="11.00" fill="#000000">name</text>
<polygon fill="#ffffff" stroke="transparent" points="681.5,-243.2 681.5,-262.2 709.5,-262.2 709.5,-243.2 681.5,-243.2"/>
<polygon fill="none" stroke="#000000" points="681.5,-243.2 681.5,-262.2 709.5,-262.2 709.5,-243.2 681.5,-243.2"/>
<text text-anchor="start" x="684.5" y="-249.3" font-family="Helvetica,sans-Serif" font-size="11.00" fill="#000000"> &#160;</text>
<polygon fill="#ffffff" stroke="transparent" points="709.5,-243.2 709.5,-262.2 755.5,-262.2 755.5,-243.2 709.5,-243.2"/>
<polygon fill="none" stroke="#000000" points="709.5,-243.2 709.5,-262.2 755.5,-262.2 755.5,-243.2 709.5,-243.2"/>
<text text-anchor="start" x="720.1105" y="-249.3" font-family="Helvetica,sans-Serif" font-size="11.00" fill="#000000">0 rows</text>
<polygon fill="#ffffff" stroke="transparent" points="755.5,-243.2 755.5,-262.2 785.5,-262.2 785.5,-243.2 755.5,-243.2"/>
<polygon fill="none" stroke="#000000" points="755.5,-243.2 755.5,-262.2 785.5,-262.2 785.5,-243.2 755.5,-243.2"/>
<text text-anchor="start" x="766.9053" y="-249.3" font-family="Helvetica,sans-Serif" font-size="11.00" fill="#000000">1 &gt;</text>
</a>
</g>
</g>
<!-- patients&#45;&gt;relationships -->
<g id="edge9" class="edge">
<title>patients:w&#45;&gt;relationships:e</title>
<path fill="none" stroke="#000000" d="M874.3333,-310.9024C838.1823,-304.1353 829.2808,-273.2 785.5,-273.2"/>
<polygon fill="#000000" stroke="#000000" points="881.0311,-311.4949 888.6827,-315.786 885.0156,-311.8475 889,-312.2 889,-312.2 889,-312.2 885.0156,-311.8475 889.3173,-308.614 881.0311,-311.4949 881.0311,-311.4949"/>
<ellipse fill="none" stroke="#000000" cx="877.8436" cy="-311.2129" rx="3.2" ry="3.2"/>
</g>
<!-- professionals&#45;&gt;users -->
<g id="edge11" class="edge">
<title>professionals:w&#45;&gt;users:e</title>
<path fill="none" stroke="#000000" d="M393.0546,-319.7744C350.1624,-334.6673 413.045,-450.2 354.5,-450.2"/>
<polygon fill="#000000" stroke="#000000" points="402.1127,-314.3639 403.3051,-322.2746 401.723,-322.513 400.5306,-314.6024 402.1127,-314.3639"/>
<polyline fill="none" stroke="#000000" points="403.5,-318.2 399.5447,-318.7962 "/>
<ellipse fill="none" stroke="#000000" cx="396.3804" cy="-319.2732" rx="3.2" ry="3.2"/>
</g>
<!-- provider_locations&#45;&gt;companies -->
<g id="edge12" class="edge">
<title>provider_locations:w&#45;&gt;companies:e</title>
<path fill="none" stroke="#000000" d="M615.6438,-453.1228C602.3174,-464.9896 604.3031,-494.2 580.5,-494.2"/>
<polygon fill="#000000" stroke="#000000" points="621.9616,-450.8783 630.7052,-451.5923 625.7308,-449.5391 629.5,-448.2 629.5,-448.2 629.5,-448.2 625.7308,-449.5391 628.2948,-444.8077 621.9616,-450.8783 621.9616,-450.8783"/>
<ellipse fill="none" stroke="#000000" cx="618.9463" cy="-451.9496" rx="3.2" ry="3.2"/>
</g>
<!-- responsible_persons -->
<g id="node8" class="node">
<title>responsible_persons</title>
<g id="a_node8"><a xlink:href="../../tables/responsible_persons.html" xlink:title="responsible_persons" target="_top">
<polygon fill="#ffffff" stroke="transparent" points="1244,-489.7 1244,-616.7 1447,-616.7 1447,-489.7 1244,-489.7"/>
<polygon fill="#f5f5f5" stroke="transparent" points="1244.5,-593.2 1244.5,-616.2 1447.5,-616.2 1447.5,-593.2 1244.5,-593.2"/>
<polygon fill="none" stroke="#000000" points="1244.5,-593.2 1244.5,-616.2 1447.5,-616.2 1447.5,-593.2 1244.5,-593.2"/>
<text text-anchor="start" x="1249.5" y="-602.3" font-family="Helvetica,sans-Serif" font-weight="bold" font-size="11.00" fill="#000000">responsible_persons</text>
<text text-anchor="start" x="1412.5437" y="-601.3" font-family="Helvetica,sans-Serif" font-size="11.00" fill="#000000">[table]</text>
<polygon fill="none" stroke="#000000" points="1244.5,-571.2 1244.5,-593.2 1447.5,-593.2 1447.5,-571.2 1244.5,-571.2"/>
<image xlink:href="../../images/foreignKeys.png" width="11px" height="12px" preserveAspectRatio="xMinYMin meet" x="1249.5" y="-588.2"/>
<text text-anchor="start" x="1264.5" y="-578.3" font-family="Helvetica,sans-Serif" font-size="11.00" fill="#000000">user_id</text>
<polygon fill="none" stroke="#000000" points="1244.5,-549.2 1244.5,-571.2 1447.5,-571.2 1447.5,-549.2 1244.5,-549.2"/>
<image xlink:href="../../images/foreignKeys.png" width="11px" height="12px" preserveAspectRatio="xMinYMin meet" x="1249.5" y="-566.2"/>
<text text-anchor="start" x="1264.5" y="-556.3" font-family="Helvetica,sans-Serif" font-size="11.00" fill="#000000">patient_id</text>
<polygon fill="none" stroke="#000000" points="1244.5,-527.2 1244.5,-549.2 1447.5,-549.2 1447.5,-527.2 1244.5,-527.2"/>
<image xlink:href="../../images/primaryKeys.png" width="11px" height="12px" preserveAspectRatio="xMinYMin meet" x="1249.5" y="-544.2"/>
<text text-anchor="start" x="1264.5" y="-534.3" font-family="Helvetica,sans-Serif" font-size="11.00" fill="#000000">id</text>
<polygon fill="none" stroke="#000000" points="1244.5,-508.2 1244.5,-527.2 1447.5,-527.2 1447.5,-508.2 1244.5,-508.2"/>
<text text-anchor="start" x="1247.5" y="-514.3" font-family="Helvetica,sans-Serif" font-size="11.00" fill="#000000">...</text>
<polygon fill="#ffffff" stroke="transparent" points="1244.5,-489.2 1244.5,-508.2 1331.5,-508.2 1331.5,-489.2 1244.5,-489.2"/>
<polygon fill="none" stroke="#000000" points="1244.5,-489.2 1244.5,-508.2 1331.5,-508.2 1331.5,-489.2 1244.5,-489.2"/>
<text text-anchor="start" x="1247.5" y="-495.3" font-family="Helvetica,sans-Serif" font-size="11.00" fill="#000000">&lt; 2</text>
<polygon fill="#ffffff" stroke="transparent" points="1331.5,-489.2 1331.5,-508.2 1402.5,-508.2 1402.5,-489.2 1331.5,-489.2"/>
<polygon fill="none" stroke="#000000" points="1331.5,-489.2 1331.5,-508.2 1402.5,-508.2 1402.5,-489.2 1331.5,-489.2"/>
<text text-anchor="start" x="1367.1105" y="-495.3" font-family="Helvetica,sans-Serif" font-size="11.00" fill="#000000">0 rows</text>
<polygon fill="#ffffff" stroke="transparent" points="1402.5,-489.2 1402.5,-508.2 1447.5,-508.2 1447.5,-489.2 1402.5,-489.2"/>
<polygon fill="none" stroke="#000000" points="1402.5,-489.2 1402.5,-508.2 1447.5,-508.2 1447.5,-489.2 1402.5,-489.2"/>
<text text-anchor="start" x="1438.3862" y="-495.3" font-family="Helvetica,sans-Serif" font-size="11.00" fill="#000000"> &#160;</text>
</a>
</g>
</g>
<!-- responsible_persons&#45;&gt;users -->
<g id="edge14" class="edge">
<title>responsible_persons:w&#45;&gt;users:e</title>
<path fill="none" stroke="#000000" d="M1230.1181,-584.8121C1221.6684,-588.2281 1216.206,-594.0325 1203,-596.2 848.2387,-654.4273 682.242,-774.3899 395,-558.2 354.0407,-527.3724 405.764,-450.2 354.5,-450.2"/>
<polygon fill="#000000" stroke="#000000" points="1236.6288,-583.6296 1245.1433,-585.7421 1240.5644,-582.9148 1244.5,-582.2 1244.5,-582.2 1244.5,-582.2 1240.5644,-582.9148 1243.8567,-578.6579 1236.6288,-583.6296 1236.6288,-583.6296"/>
<ellipse fill="none" stroke="#000000" cx="1233.4803" cy="-584.2015" rx="3.2" ry="3.2"/>
</g>
<!-- responsible_persons&#45;&gt;patients -->
<g id="edge13" class="edge">
<title>responsible_persons:w&#45;&gt;patients:e</title>
<path fill="none" stroke="#000000" d="M1230.2773,-556.5395C1217.3531,-548.9498 1213.1505,-532.2 1193,-532.2"/>
<polygon fill="#000000" stroke="#000000" points="1236.7525,-558.206 1243.6027,-563.6864 1240.6262,-559.203 1244.5,-560.2 1244.5,-560.2 1244.5,-560.2 1240.6262,-559.203 1245.3973,-556.7136 1236.7525,-558.206 1236.7525,-558.206"/>
<ellipse fill="none" stroke="#000000" cx="1233.6535" cy="-557.4084" rx="3.2" ry="3.2"/>
</g>
</g>
</svg>
