<?xml version="1.0" encoding="UTF-8" standalone="no"?>
<!DOCTYPE svg PUBLIC "-//W3C//DTD SVG 1.1//EN"
 "http://www.w3.org/Graphics/SVG/1.1/DTD/svg11.dtd">
<!-- Generated by graphviz version 2.40.1 (20161225.0304)
 -->
<!-- Title: oneDegreeRelationshipsDiagram Pages: 1 -->
<svg width="531pt" height="347pt"
 viewBox="0.00 0.00 531.00 347.20" xmlns="http://www.w3.org/2000/svg" xmlns:xlink="http://www.w3.org/1999/xlink">
<g id="graph0" class="graph" transform="scale(1 1) rotate(0) translate(4 343.2)">
<title>oneDegreeRelationshipsDiagram</title>
<polygon fill="#ffffff" stroke="transparent" points="-4,4 -4,-343.2 527,-343.2 527,4 -4,4"/>
<text text-anchor="middle" x="72.4936" y="-7.3" font-family="Helvetica,sans-Serif" font-size="11.00" fill="#000000">Generated by SchemaSpy</text>
<!-- professional_locations -->
<g id="node1" class="node">
<title>professional_locations</title>
<g id="a_node1"><a xlink:href="../../tables/professional_locations.html" xlink:title="professional_locations" target="_top">
<polygon fill="#ffffff" stroke="transparent" points="266,-183.7 266,-273.7 515,-273.7 515,-183.7 266,-183.7"/>
<polygon fill="#f5f5f5" stroke="transparent" points="268.5,-248.7 268.5,-271.7 513.5,-271.7 513.5,-248.7 268.5,-248.7"/>
<polygon fill="none" stroke="#000000" points="268.5,-248.7 268.5,-271.7 513.5,-271.7 513.5,-248.7 268.5,-248.7"/>
<text text-anchor="start" x="273.5" y="-257.8" font-family="Helvetica,sans-Serif" font-weight="bold" font-size="11.00" fill="#000000">professional_locations</text>
<text text-anchor="start" x="478.5437" y="-256.8" font-family="Helvetica,sans-Serif" font-size="11.00" fill="#000000">[table]</text>
<polygon fill="none" stroke="#000000" points="268.5,-226.7 268.5,-248.7 419.5,-248.7 419.5,-226.7 268.5,-226.7"/>
<image xlink:href="../../images/primaryKeys.png" width="11px" height="12px" preserveAspectRatio="xMinYMin meet" x="273.5" y="-243.7"/>
<text text-anchor="start" x="288.5" y="-233.8" font-family="Helvetica,sans-Serif" font-size="11.00" fill="#000000">professional_id</text>
<polygon fill="none" stroke="#000000" points="419.5,-226.7 419.5,-248.7 513.5,-248.7 513.5,-226.7 419.5,-226.7"/>
<text text-anchor="start" x="422.4758" y="-234.4" font-family="Helvetica,sans-Serif" font-size="11.00" fill="#000000">uuid[2147483647]</text>
<polygon fill="none" stroke="#000000" points="268.5,-204.7 268.5,-226.7 419.5,-226.7 419.5,-204.7 268.5,-204.7"/>
<image xlink:href="../../images/primaryKeys.png" width="11px" height="12px" preserveAspectRatio="xMinYMin meet" x="273.5" y="-221.7"/>
<text text-anchor="start" x="288.5" y="-211.8" font-family="Helvetica,sans-Serif" font-size="11.00" fill="#000000">provider_location_id</text>
<polygon fill="none" stroke="#000000" points="419.5,-204.7 419.5,-226.7 513.5,-226.7 513.5,-204.7 419.5,-204.7"/>
<text text-anchor="start" x="422.4758" y="-212.4" font-family="Helvetica,sans-Serif" font-size="11.00" fill="#000000">uuid[2147483647]</text>
<polygon fill="#ffffff" stroke="transparent" points="268.5,-185.7 268.5,-204.7 335.5,-204.7 335.5,-185.7 268.5,-185.7"/>
<polygon fill="none" stroke="#000000" points="268.5,-185.7 268.5,-204.7 335.5,-204.7 335.5,-185.7 268.5,-185.7"/>
<text text-anchor="start" x="271.5" y="-191.8" font-family="Helvetica,sans-Serif" font-size="11.00" fill="#000000">&lt; 2</text>
<polygon fill="#ffffff" stroke="transparent" points="335.5,-185.7 335.5,-204.7 419.5,-204.7 419.5,-185.7 335.5,-185.7"/>
<polygon fill="none" stroke="#000000" points="335.5,-185.7 335.5,-204.7 419.5,-204.7 419.5,-185.7 335.5,-185.7"/>
<text text-anchor="start" x="384.1105" y="-191.8" font-family="Helvetica,sans-Serif" font-size="11.00" fill="#000000">0 rows</text>
<polygon fill="#ffffff" stroke="transparent" points="419.5,-185.7 419.5,-204.7 513.5,-204.7 513.5,-185.7 419.5,-185.7"/>
<polygon fill="none" stroke="#000000" points="419.5,-185.7 419.5,-204.7 513.5,-204.7 513.5,-185.7 419.5,-185.7"/>
<text text-anchor="start" x="494.9053" y="-191.8" font-family="Helvetica,sans-Serif" font-size="11.00" fill="#000000">0 &gt;</text>
<polygon fill="none" stroke="#000000" stroke-width="2" points="267,-184.7 267,-272.7 514,-272.7 514,-184.7 267,-184.7"/>
</a>
</g>
</g>
<!-- professionals -->
<g id="node2" class="node">
<title>professionals</title>
<g id="a_node2"><a xlink:href="../../tables/professionals.html" xlink:title="professionals" target="_top">
<polygon fill="#ffffff" stroke="transparent" points="24.5,-208.2 24.5,-335.2 200.5,-335.2 200.5,-208.2 24.5,-208.2"/>
<polygon fill="#f5f5f5" stroke="transparent" points="24.5,-311.7 24.5,-334.7 200.5,-334.7 200.5,-311.7 24.5,-311.7"/>
<polygon fill="none" stroke="#000000" points="24.5,-311.7 24.5,-334.7 200.5,-334.7 200.5,-311.7 24.5,-311.7"/>
<text text-anchor="start" x="29.5" y="-320.8" font-family="Helvetica,sans-Serif" font-weight="bold" font-size="11.00" fill="#000000">professionals</text>
<text text-anchor="start" x="165.5437" y="-319.8" font-family="Helvetica,sans-Serif" font-size="11.00" fill="#000000">[table]</text>
<polygon fill="none" stroke="#000000" points="24.5,-289.7 24.5,-311.7 200.5,-311.7 200.5,-289.7 24.5,-289.7"/>
<image xlink:href="../../images/primaryKeys.png" width="11px" height="12px" preserveAspectRatio="xMinYMin meet" x="29.5" y="-306.7"/>
<text text-anchor="start" x="44.5" y="-296.8" font-family="Helvetica,sans-Serif" font-size="11.00" fill="#000000">id</text>
<polygon fill="#ffffff" stroke="transparent" points="24.5,-267.7 24.5,-289.7 200.5,-289.7 200.5,-267.7 24.5,-267.7"/>
<polygon fill="none" stroke="#000000" points="24.5,-267.7 24.5,-289.7 200.5,-289.7 200.5,-267.7 24.5,-267.7"/>
<image xlink:href="../../images/foreignKeys.png" width="11px" height="12px" preserveAspectRatio="xMinYMin meet" x="29.5" y="-284.7"/>
<text text-anchor="start" x="44.5" y="-274.8" font-family="Helvetica,sans-Serif" font-size="11.00" fill="#000000">user_id</text>
<polygon fill="none" stroke="#000000" points="24.5,-245.7 24.5,-267.7 200.5,-267.7 200.5,-245.7 24.5,-245.7"/>
<image xlink:href="../../images/foreignKeys.png" width="11px" height="12px" preserveAspectRatio="xMinYMin meet" x="29.5" y="-262.7"/>
<text text-anchor="start" x="44.5" y="-252.8" font-family="Helvetica,sans-Serif" font-size="11.00" fill="#000000">license_id</text>
<polygon fill="none" stroke="#000000" points="24.5,-226.7 24.5,-245.7 200.5,-245.7 200.5,-226.7 24.5,-226.7"/>
<text text-anchor="start" x="27.5" y="-232.8" font-family="Helvetica,sans-Serif" font-size="11.00" fill="#000000">...</text>
<polygon fill="#ffffff" stroke="transparent" points="24.5,-207.7 24.5,-226.7 93.5,-226.7 93.5,-207.7 24.5,-207.7"/>
<polygon fill="none" stroke="#000000" points="24.5,-207.7 24.5,-226.7 93.5,-226.7 93.5,-207.7 24.5,-207.7"/>
<text text-anchor="start" x="27.5" y="-213.8" font-family="Helvetica,sans-Serif" font-size="11.00" fill="#000000">&lt; 2</text>
<polygon fill="#ffffff" stroke="transparent" points="93.5,-207.7 93.5,-226.7 155.5,-226.7 155.5,-207.7 93.5,-207.7"/>
<polygon fill="none" stroke="#000000" points="93.5,-207.7 93.5,-226.7 155.5,-226.7 155.5,-207.7 93.5,-207.7"/>
<text text-anchor="start" x="120.1105" y="-213.8" font-family="Helvetica,sans-Serif" font-size="11.00" fill="#000000">0 rows</text>
<polygon fill="#ffffff" stroke="transparent" points="155.5,-207.7 155.5,-226.7 200.5,-226.7 200.5,-207.7 155.5,-207.7"/>
<polygon fill="none" stroke="#000000" points="155.5,-207.7 155.5,-226.7 200.5,-226.7 200.5,-207.7 155.5,-207.7"/>
<text text-anchor="start" x="181.9053" y="-213.8" font-family="Helvetica,sans-Serif" font-size="11.00" fill="#000000">2 &gt;</text>
</a>
</g>
</g>
<!-- professional_locations&#45;&gt;professionals -->
<g id="edge1" class="edge">
<title>professional_locations:w&#45;&gt;professionals:e</title>
<path fill="none" stroke="#000000" d="M254.4354,-240.9108C230.1986,-253.749 236.0666,-300.7 200.5,-300.7"/>
<polygon fill="#000000" stroke="#000000" points="260.7007,-239.4805 269.3012,-241.2097 264.6003,-238.5903 268.5,-237.7 268.5,-237.7 268.5,-237.7 264.6003,-238.5903 267.6988,-234.1903 260.7007,-239.4805 260.7007,-239.4805"/>
<ellipse fill="none" stroke="#000000" cx="257.5809" cy="-240.1928" rx="3.2" ry="3.2"/>
</g>
<!-- provider_locations -->
<g id="node3" class="node">
<title>provider_locations</title>
<g id="a_node3"><a xlink:href="../../tables/provider_locations.html" xlink:title="provider_locations" target="_top">
<polygon fill="#ffffff" stroke="transparent" points="8,-38.2 8,-187.2 217,-187.2 217,-38.2 8,-38.2"/>
<polygon fill="#f5f5f5" stroke="transparent" points="8.5,-163.7 8.5,-186.7 217.5,-186.7 217.5,-163.7 8.5,-163.7"/>
<polygon fill="none" stroke="#000000" points="8.5,-163.7 8.5,-186.7 217.5,-186.7 217.5,-163.7 8.5,-163.7"/>
<text text-anchor="start" x="13.5" y="-172.8" font-family="Helvetica,sans-Serif" font-weight="bold" font-size="11.00" fill="#000000">provider_locations</text>
<text text-anchor="start" x="182.5437" y="-171.8" font-family="Helvetica,sans-Serif" font-size="11.00" fill="#000000">[table]</text>
<polygon fill="none" stroke="#000000" points="8.5,-141.7 8.5,-163.7 217.5,-163.7 217.5,-141.7 8.5,-141.7"/>
<image xlink:href="../../images/primaryKeys.png" width="11px" height="12px" preserveAspectRatio="xMinYMin meet" x="13.5" y="-158.7"/>
<text text-anchor="start" x="28.5" y="-148.8" font-family="Helvetica,sans-Serif" font-size="11.00" fill="#000000">id</text>
<polygon fill="none" stroke="#000000" points="8.5,-119.7 8.5,-141.7 217.5,-141.7 217.5,-119.7 8.5,-119.7"/>
<image xlink:href="../../images/foreignKeys.png" width="11px" height="12px" preserveAspectRatio="xMinYMin meet" x="13.5" y="-136.7"/>
<text text-anchor="start" x="28.5" y="-126.8" font-family="Helvetica,sans-Serif" font-size="11.00" fill="#000000">company_id</text>
<polygon fill="none" stroke="#000000" points="8.5,-97.7 8.5,-119.7 217.5,-119.7 217.5,-97.7 8.5,-97.7"/>
<image xlink:href="../../images/foreignKeys.png" width="11px" height="12px" preserveAspectRatio="xMinYMin meet" x="13.5" y="-114.7"/>
<text text-anchor="start" x="28.5" y="-104.8" font-family="Helvetica,sans-Serif" font-size="11.00" fill="#000000">address_id</text>
<polygon fill="none" stroke="#000000" points="8.5,-75.7 8.5,-97.7 217.5,-97.7 217.5,-75.7 8.5,-75.7"/>
<image xlink:href="../../images/foreignKeys.png" width="11px" height="12px" preserveAspectRatio="xMinYMin meet" x="13.5" y="-92.7"/>
<text text-anchor="start" x="28.5" y="-82.8" font-family="Helvetica,sans-Serif" font-size="11.00" fill="#000000">company_doing_business_as_id</text>
<polygon fill="none" stroke="#000000" points="8.5,-56.7 8.5,-75.7 217.5,-75.7 217.5,-56.7 8.5,-56.7"/>
<text text-anchor="start" x="11.5" y="-62.8" font-family="Helvetica,sans-Serif" font-size="11.00" fill="#000000">...</text>
<polygon fill="#ffffff" stroke="transparent" points="8.5,-37.7 8.5,-56.7 93.5,-56.7 93.5,-37.7 8.5,-37.7"/>
<polygon fill="none" stroke="#000000" points="8.5,-37.7 8.5,-56.7 93.5,-56.7 93.5,-37.7 8.5,-37.7"/>
<text text-anchor="start" x="11.5" y="-43.8" font-family="Helvetica,sans-Serif" font-size="11.00" fill="#000000">&lt; 3</text>
<polygon fill="#ffffff" stroke="transparent" points="93.5,-37.7 93.5,-56.7 163.5,-56.7 163.5,-37.7 93.5,-37.7"/>
<polygon fill="none" stroke="#000000" points="93.5,-37.7 93.5,-56.7 163.5,-56.7 163.5,-37.7 93.5,-37.7"/>
<text text-anchor="start" x="128.1105" y="-43.8" font-family="Helvetica,sans-Serif" font-size="11.00" fill="#000000">0 rows</text>
<polygon fill="#ffffff" stroke="transparent" points="163.5,-37.7 163.5,-56.7 217.5,-56.7 217.5,-37.7 163.5,-37.7"/>
<polygon fill="none" stroke="#000000" points="163.5,-37.7 163.5,-56.7 217.5,-56.7 217.5,-37.7 163.5,-37.7"/>
<text text-anchor="start" x="198.9053" y="-43.8" font-family="Helvetica,sans-Serif" font-size="11.00" fill="#000000">2 &gt;</text>
</a>
</g>
</g>
<!-- professional_locations&#45;&gt;provider_locations -->
<g id="edge2" class="edge">
<title>professional_locations:w&#45;&gt;provider_locations:e</title>
<path fill="none" stroke="#000000" d="M254.4033,-210.7565C238.025,-195.9048 247.3329,-152.7 217.5,-152.7"/>
<polygon fill="#000000" stroke="#000000" points="260.9507,-213.0526 267.3087,-219.0972 264.7254,-214.3763 268.5,-215.7 268.5,-215.7 268.5,-215.7 264.7254,-214.3763 269.6913,-212.3028 260.9507,-213.0526 260.9507,-213.0526"/>
<ellipse fill="none" stroke="#000000" cx="257.931" cy="-211.9936" rx="3.2" ry="3.2"/>
</g>
</g>
</svg>
