<?xml version="1.0" encoding="UTF-8" standalone="no"?>
<!DOCTYPE svg PUBLIC "-//W3C//DTD SVG 1.1//EN"
 "http://www.w3.org/Graphics/SVG/1.1/DTD/svg11.dtd">
<!-- Generated by graphviz version 2.40.1 (20161225.0304)
 -->
<!-- Title: oneDegreeRelationshipsDiagram Pages: 1 -->
<svg width="818pt" height="626pt"
 viewBox="0.00 0.00 818.00 625.70" xmlns="http://www.w3.org/2000/svg" xmlns:xlink="http://www.w3.org/1999/xlink">
<g id="graph0" class="graph" transform="scale(1 1) rotate(0) translate(4 621.7)">
<title>oneDegreeRelationshipsDiagram</title>
<polygon fill="#ffffff" stroke="transparent" points="-4,4 -4,-621.7 814,-621.7 814,4 -4,4"/>
<text text-anchor="middle" x="72.4936" y="-7.3" font-family="Helvetica,sans-Serif" font-size="11.00" fill="#000000">Generated by SchemaSpy</text>
<!-- patients -->
<g id="node1" class="node">
<title>patients</title>
<g id="a_node1"><a xlink:href="../../tables/patients.html" xlink:title="patients" target="_top">
<polygon fill="#ffffff" stroke="transparent" points="592,-310.7 592,-613.7 802,-613.7 802,-310.7 592,-310.7"/>
<polygon fill="#f5f5f5" stroke="transparent" points="592,-590.2 592,-613.2 802,-613.2 802,-590.2 592,-590.2"/>
<polygon fill="none" stroke="#000000" points="592,-590.2 592,-613.2 802,-613.2 802,-590.2 592,-590.2"/>
<text text-anchor="start" x="597" y="-599.3" font-family="Helvetica,sans-Serif" font-weight="bold" font-size="11.00" fill="#000000">patients</text>
<text text-anchor="start" x="767.0437" y="-598.3" font-family="Helvetica,sans-Serif" font-size="11.00" fill="#000000">[table]</text>
<polygon fill="none" stroke="#000000" points="592,-568.2 592,-590.2 802,-590.2 802,-568.2 592,-568.2"/>
<image xlink:href="../../images/primaryKeys.png" width="11px" height="12px" preserveAspectRatio="xMinYMin meet" x="597" y="-585.2"/>
<text text-anchor="start" x="612" y="-575.3" font-family="Helvetica,sans-Serif" font-size="11.00" fill="#000000">id</text>
<polygon fill="none" stroke="#000000" points="592,-546.2 592,-568.2 802,-568.2 802,-546.2 592,-546.2"/>
<image xlink:href="../../images/foreignKeys.png" width="11px" height="12px" preserveAspectRatio="xMinYMin meet" x="597" y="-563.2"/>
<text text-anchor="start" x="612" y="-553.3" font-family="Helvetica,sans-Serif" font-size="11.00" fill="#000000">profile_id</text>
<polygon fill="none" stroke="#000000" points="592,-524.2 592,-546.2 802,-546.2 802,-524.2 592,-524.2"/>
<image xlink:href="../../images/foreignKeys.png" width="11px" height="12px" preserveAspectRatio="xMinYMin meet" x="597" y="-541.2"/>
<text text-anchor="start" x="612" y="-531.3" font-family="Helvetica,sans-Serif" font-size="11.00" fill="#000000">user_id</text>
<polygon fill="none" stroke="#000000" points="592,-502.2 592,-524.2 802,-524.2 802,-502.2 592,-502.2"/>
<image xlink:href="../../images/foreignKeys.png" width="11px" height="12px" preserveAspectRatio="xMinYMin meet" x="597" y="-519.2"/>
<text text-anchor="start" x="612" y="-509.3" font-family="Helvetica,sans-Serif" font-size="11.00" fill="#000000">company_id</text>
<polygon fill="none" stroke="#000000" points="592,-480.2 592,-502.2 802,-502.2 802,-480.2 592,-480.2"/>
<image xlink:href="../../images/foreignKeys.png" width="11px" height="12px" preserveAspectRatio="xMinYMin meet" x="597" y="-497.2"/>
<text text-anchor="start" x="612" y="-487.3" font-family="Helvetica,sans-Serif" font-size="11.00" fill="#000000">provider_location_id</text>
<polygon fill="none" stroke="#000000" points="592,-458.2 592,-480.2 802,-480.2 802,-458.2 592,-458.2"/>
<image xlink:href="../../images/foreignKeys.png" width="11px" height="12px" preserveAspectRatio="xMinYMin meet" x="597" y="-475.2"/>
<text text-anchor="start" x="612" y="-465.3" font-family="Helvetica,sans-Serif" font-size="11.00" fill="#000000">professional_id</text>
<polygon fill="#ffffff" stroke="transparent" points="592,-436.2 592,-458.2 802,-458.2 802,-436.2 592,-436.2"/>
<polygon fill="none" stroke="#000000" points="592,-436.2 592,-458.2 802,-458.2 802,-436.2 592,-436.2"/>
<text text-anchor="start" x="612" y="-443.3" font-family="Helvetica,sans-Serif" font-size="11.00" fill="#000000">insurance_policy_id</text>
<polygon fill="none" stroke="#000000" points="592,-414.2 592,-436.2 802,-436.2 802,-414.2 592,-414.2"/>
<image xlink:href="../../images/foreignKeys.png" width="11px" height="12px" preserveAspectRatio="xMinYMin meet" x="597" y="-431.2"/>
<text text-anchor="start" x="612" y="-421.3" font-family="Helvetica,sans-Serif" font-size="11.00" fill="#000000">main_member_id</text>
<polygon fill="none" stroke="#000000" points="592,-392.2 592,-414.2 802,-414.2 802,-392.2 592,-392.2"/>
<image xlink:href="../../images/foreignKeys.png" width="11px" height="12px" preserveAspectRatio="xMinYMin meet" x="597" y="-409.2"/>
<text text-anchor="start" x="612" y="-399.3" font-family="Helvetica,sans-Serif" font-size="11.00" fill="#000000">relationship_to_main_member</text>
<polygon fill="none" stroke="#000000" points="592,-370.2 592,-392.2 802,-392.2 802,-370.2 592,-370.2"/>
<image xlink:href="../../images/foreignKeys.png" width="11px" height="12px" preserveAspectRatio="xMinYMin meet" x="597" y="-387.2"/>
<text text-anchor="start" x="612" y="-377.3" font-family="Helvetica,sans-Serif" font-size="11.00" fill="#000000">accepted_agreement_by_user_id</text>
<polygon fill="none" stroke="#000000" points="592,-348.2 592,-370.2 802,-370.2 802,-348.2 592,-348.2"/>
<image xlink:href="../../images/foreignKeys.png" width="11px" height="12px" preserveAspectRatio="xMinYMin meet" x="597" y="-365.2"/>
<text text-anchor="start" x="612" y="-355.3" font-family="Helvetica,sans-Serif" font-size="11.00" fill="#000000">created_by_user_id</text>
<polygon fill="none" stroke="#000000" points="592,-329.2 592,-348.2 802,-348.2 802,-329.2 592,-329.2"/>
<text text-anchor="start" x="595" y="-335.3" font-family="Helvetica,sans-Serif" font-size="11.00" fill="#000000">...</text>
<polygon fill="#ffffff" stroke="transparent" points="592,-310.2 592,-329.2 678,-329.2 678,-310.2 592,-310.2"/>
<polygon fill="none" stroke="#000000" points="592,-310.2 592,-329.2 678,-329.2 678,-310.2 592,-310.2"/>
<text text-anchor="start" x="595" y="-316.3" font-family="Helvetica,sans-Serif" font-size="11.00" fill="#000000">&lt; 9</text>
<polygon fill="#ffffff" stroke="transparent" points="678,-310.2 678,-329.2 748,-329.2 748,-310.2 678,-310.2"/>
<polygon fill="none" stroke="#000000" points="678,-310.2 678,-329.2 748,-329.2 748,-310.2 678,-310.2"/>
<text text-anchor="start" x="712.6105" y="-316.3" font-family="Helvetica,sans-Serif" font-size="11.00" fill="#000000">0 rows</text>
<polygon fill="#ffffff" stroke="transparent" points="748,-310.2 748,-329.2 802,-329.2 802,-310.2 748,-310.2"/>
<polygon fill="none" stroke="#000000" points="748,-310.2 748,-329.2 802,-329.2 802,-310.2 748,-310.2"/>
<text text-anchor="start" x="783.4053" y="-316.3" font-family="Helvetica,sans-Serif" font-size="11.00" fill="#000000">2 &gt;</text>
</a>
</g>
</g>
<!-- users -->
<g id="node2" class="node">
<title>users</title>
<g id="a_node2"><a xlink:href="../../tables/users.html" xlink:title="users" target="_top">
<polygon fill="#ffffff" stroke="transparent" points="44.5,-271.7 44.5,-420.7 183.5,-420.7 183.5,-271.7 44.5,-271.7"/>
<polygon fill="#f5f5f5" stroke="transparent" points="45,-397.2 45,-420.2 184,-420.2 184,-397.2 45,-397.2"/>
<polygon fill="none" stroke="#000000" points="45,-397.2 45,-420.2 184,-420.2 184,-397.2 45,-397.2"/>
<text text-anchor="start" x="50" y="-406.3" font-family="Helvetica,sans-Serif" font-weight="bold" font-size="11.00" fill="#000000">users</text>
<text text-anchor="start" x="149.0437" y="-405.3" font-family="Helvetica,sans-Serif" font-size="11.00" fill="#000000">[table]</text>
<polygon fill="none" stroke="#000000" points="45,-375.2 45,-397.2 184,-397.2 184,-375.2 45,-375.2"/>
<image xlink:href="../../images/primaryKeys.png" width="11px" height="12px" preserveAspectRatio="xMinYMin meet" x="50" y="-392.2"/>
<text text-anchor="start" x="65" y="-382.3" font-family="Helvetica,sans-Serif" font-size="11.00" fill="#000000">id</text>
<polygon fill="#ffffff" stroke="transparent" points="45,-353.2 45,-375.2 184,-375.2 184,-353.2 45,-353.2"/>
<polygon fill="none" stroke="#000000" points="45,-353.2 45,-375.2 184,-375.2 184,-353.2 45,-353.2"/>
<text text-anchor="start" x="65" y="-360.3" font-family="Helvetica,sans-Serif" font-size="11.00" fill="#000000">email</text>
<polygon fill="#ffffff" stroke="transparent" points="45,-331.2 45,-353.2 184,-353.2 184,-331.2 45,-331.2"/>
<polygon fill="none" stroke="#000000" points="45,-331.2 45,-353.2 184,-353.2 184,-331.2 45,-331.2"/>
<text text-anchor="start" x="65" y="-338.3" font-family="Helvetica,sans-Serif" font-size="11.00" fill="#000000">cognito_id</text>
<polygon fill="#ffffff" stroke="transparent" points="45,-309.2 45,-331.2 184,-331.2 184,-309.2 45,-309.2"/>
<polygon fill="none" stroke="#000000" points="45,-309.2 45,-331.2 184,-331.2 184,-309.2 45,-309.2"/>
<image xlink:href="../../images/foreignKeys.png" width="11px" height="12px" preserveAspectRatio="xMinYMin meet" x="50" y="-326.2"/>
<text text-anchor="start" x="65" y="-316.3" font-family="Helvetica,sans-Serif" font-size="11.00" fill="#000000">profile_id</text>
<polygon fill="none" stroke="#000000" points="45,-290.2 45,-309.2 184,-309.2 184,-290.2 45,-290.2"/>
<text text-anchor="start" x="48" y="-296.3" font-family="Helvetica,sans-Serif" font-size="11.00" fill="#000000">...</text>
<polygon fill="#ffffff" stroke="transparent" points="45,-271.2 45,-290.2 95,-290.2 95,-271.2 45,-271.2"/>
<polygon fill="none" stroke="#000000" points="45,-271.2 45,-290.2 95,-290.2 95,-271.2 45,-271.2"/>
<text text-anchor="start" x="48" y="-277.3" font-family="Helvetica,sans-Serif" font-size="11.00" fill="#000000">&lt; 1</text>
<polygon fill="#ffffff" stroke="transparent" points="95,-271.2 95,-290.2 148,-290.2 148,-271.2 95,-271.2"/>
<polygon fill="none" stroke="#000000" points="95,-271.2 95,-290.2 148,-290.2 148,-271.2 95,-271.2"/>
<text text-anchor="start" x="112.6105" y="-277.3" font-family="Helvetica,sans-Serif" font-size="11.00" fill="#000000">0 rows</text>
<polygon fill="#ffffff" stroke="transparent" points="148,-271.2 148,-290.2 184,-290.2 184,-271.2 148,-271.2"/>
<polygon fill="none" stroke="#000000" points="148,-271.2 148,-290.2 184,-290.2 184,-271.2 148,-271.2"/>
<text text-anchor="start" x="165.4053" y="-277.3" font-family="Helvetica,sans-Serif" font-size="11.00" fill="#000000">8 &gt;</text>
</a>
</g>
</g>
<!-- patients&#45;&gt;users -->
<g id="edge1" class="edge">
<title>patients:w&#45;&gt;users:e</title>
<path fill="none" stroke="#000000" d="M577.4235,-381.211C408.0737,-381.4697 360.3882,-386.2 184,-386.2"/>
<polygon fill="#000000" stroke="#000000" points="584,-381.2061 592.0027,-384.8 588,-381.203 592,-381.2 592,-381.2 592,-381.2 588,-381.203 591.9973,-377.6 584,-381.2061 584,-381.2061"/>
<ellipse fill="none" stroke="#000000" cx="580.8" cy="-381.2085" rx="3.2" ry="3.2"/>
</g>
<!-- patients&#45;&gt;users -->
<g id="edge2" class="edge">
<title>patients:w&#45;&gt;users:e</title>
<path fill="none" stroke="#000000" d="M577.2693,-359.225C442.0045,-359.695 402.8567,-366.7655 261,-378.2 226.7048,-380.9644 218.4064,-386.2 184,-386.2"/>
<polygon fill="#000000" stroke="#000000" points="584,-359.2136 592.0061,-362.8 588,-359.2068 592,-359.2 592,-359.2 592,-359.2 588,-359.2068 591.9939,-355.6 584,-359.2136 584,-359.2136"/>
<ellipse fill="none" stroke="#000000" cx="580.8" cy="-359.2191" rx="3.2" ry="3.2"/>
</g>
<!-- patients&#45;&gt;users -->
<g id="edge4" class="edge">
<title>patients:w&#45;&gt;users:e</title>
<path fill="none" stroke="#000000" d="M577.3504,-534.9058C397.7045,-527.5879 372.0512,-386.2 184,-386.2"/>
<polygon fill="#000000" stroke="#000000" points="584.0016,-535.0393 591.9277,-538.7993 588.0008,-535.1197 592,-535.2 592,-535.2 592,-535.2 588.0008,-535.1197 592.0723,-531.6007 584.0016,-535.0393 584.0016,-535.0393"/>
<ellipse fill="none" stroke="#000000" cx="580.8023" cy="-534.975" rx="3.2" ry="3.2"/>
</g>
<!-- professionals -->
<g id="node3" class="node">
<title>professionals</title>
<g id="a_node3"><a xlink:href="../../tables/professionals.html" xlink:title="professionals" target="_top">
<polygon fill="#ffffff" stroke="transparent" points="269,-38.2 269,-326.2 543,-326.2 543,-38.2 269,-38.2"/>
<polygon fill="#f5f5f5" stroke="transparent" points="271,-301.2 271,-324.2 541,-324.2 541,-301.2 271,-301.2"/>
<polygon fill="none" stroke="#000000" points="271,-301.2 271,-324.2 541,-324.2 541,-301.2 271,-301.2"/>
<text text-anchor="start" x="276" y="-310.3" font-family="Helvetica,sans-Serif" font-weight="bold" font-size="11.00" fill="#000000">professionals</text>
<text text-anchor="start" x="506.0437" y="-309.3" font-family="Helvetica,sans-Serif" font-size="11.00" fill="#000000">[table]</text>
<polygon fill="none" stroke="#000000" points="271,-279.2 271,-301.2 447,-301.2 447,-279.2 271,-279.2"/>
<image xlink:href="../../images/primaryKeys.png" width="11px" height="12px" preserveAspectRatio="xMinYMin meet" x="276" y="-296.2"/>
<text text-anchor="start" x="291" y="-286.3" font-family="Helvetica,sans-Serif" font-size="11.00" fill="#000000">id</text>
<polygon fill="none" stroke="#000000" points="447,-279.2 447,-301.2 541,-301.2 541,-279.2 447,-279.2"/>
<text text-anchor="start" x="449.9758" y="-286.9" font-family="Helvetica,sans-Serif" font-size="11.00" fill="#000000">uuid[2147483647]</text>
<polygon fill="#ffffff" stroke="transparent" points="271,-257.2 271,-279.2 447,-279.2 447,-257.2 271,-257.2"/>
<polygon fill="none" stroke="#000000" points="271,-257.2 271,-279.2 447,-279.2 447,-257.2 271,-257.2"/>
<image xlink:href="../../images/foreignKeys.png" width="11px" height="12px" preserveAspectRatio="xMinYMin meet" x="276" y="-274.2"/>
<text text-anchor="start" x="291" y="-264.3" font-family="Helvetica,sans-Serif" font-size="11.00" fill="#000000">user_id</text>
<polygon fill="none" stroke="#000000" points="447,-257.2 447,-279.2 541,-279.2 541,-257.2 447,-257.2"/>
<text text-anchor="start" x="449.9758" y="-264.9" font-family="Helvetica,sans-Serif" font-size="11.00" fill="#000000">uuid[2147483647]</text>
<polygon fill="none" stroke="#000000" points="271,-235.2 271,-257.2 447,-257.2 447,-235.2 271,-235.2"/>
<text text-anchor="start" x="291" y="-242.3" font-family="Helvetica,sans-Serif" font-size="11.00" fill="#000000">national_provider_id</text>
<polygon fill="none" stroke="#000000" points="447,-235.2 447,-257.2 541,-257.2 541,-235.2 447,-235.2"/>
<text text-anchor="start" x="450" y="-242.9" font-family="Helvetica,sans-Serif" font-size="11.00" fill="#000000">text[2147483647]</text>
<polygon fill="none" stroke="#000000" points="271,-213.2 271,-235.2 447,-235.2 447,-213.2 271,-213.2"/>
<image xlink:href="../../images/foreignKeys.png" width="11px" height="12px" preserveAspectRatio="xMinYMin meet" x="276" y="-230.2"/>
<text text-anchor="start" x="291" y="-220.3" font-family="Helvetica,sans-Serif" font-size="11.00" fill="#000000">license_id</text>
<polygon fill="none" stroke="#000000" points="447,-213.2 447,-235.2 541,-235.2 541,-213.2 447,-213.2"/>
<text text-anchor="start" x="449.9758" y="-220.9" font-family="Helvetica,sans-Serif" font-size="11.00" fill="#000000">uuid[2147483647]</text>
<polygon fill="none" stroke="#000000" points="271,-191.2 271,-213.2 447,-213.2 447,-191.2 271,-191.2"/>
<text text-anchor="start" x="291" y="-198.3" font-family="Helvetica,sans-Serif" font-size="11.00" fill="#000000">license_number</text>
<polygon fill="none" stroke="#000000" points="447,-191.2 447,-213.2 541,-213.2 541,-191.2 447,-191.2"/>
<text text-anchor="start" x="450" y="-198.9" font-family="Helvetica,sans-Serif" font-size="11.00" fill="#000000">text[2147483647]</text>
<polygon fill="none" stroke="#000000" points="271,-169.2 271,-191.2 447,-191.2 447,-169.2 271,-169.2"/>
<text text-anchor="start" x="291" y="-176.3" font-family="Helvetica,sans-Serif" font-size="11.00" fill="#000000">license_custom_age_min</text>
<polygon fill="none" stroke="#000000" points="447,-169.2 447,-191.2 541,-191.2 541,-169.2 447,-169.2"/>
<text text-anchor="start" x="450" y="-176.9" font-family="Helvetica,sans-Serif" font-size="11.00" fill="#000000">int4[10]</text>
<polygon fill="none" stroke="#000000" points="271,-147.2 271,-169.2 447,-169.2 447,-147.2 271,-147.2"/>
<text text-anchor="start" x="291" y="-154.3" font-family="Helvetica,sans-Serif" font-size="11.00" fill="#000000">license_custom_age_max</text>
<polygon fill="none" stroke="#000000" points="447,-147.2 447,-169.2 541,-169.2 541,-147.2 447,-147.2"/>
<text text-anchor="start" x="450" y="-154.9" font-family="Helvetica,sans-Serif" font-size="11.00" fill="#000000">int4[10]</text>
<polygon fill="none" stroke="#000000" points="271,-125.2 271,-147.2 447,-147.2 447,-125.2 271,-125.2"/>
<text text-anchor="start" x="291" y="-132.3" font-family="Helvetica,sans-Serif" font-size="11.00" fill="#000000">created_at</text>
<polygon fill="none" stroke="#000000" points="447,-125.2 447,-147.2 541,-147.2 541,-125.2 447,-125.2"/>
<text text-anchor="start" x="450" y="-132.9" font-family="Helvetica,sans-Serif" font-size="11.00" fill="#000000">timestamptz[35,6]</text>
<polygon fill="none" stroke="#000000" points="271,-103.2 271,-125.2 447,-125.2 447,-103.2 271,-103.2"/>
<text text-anchor="start" x="291" y="-110.3" font-family="Helvetica,sans-Serif" font-size="11.00" fill="#000000">updated_at</text>
<polygon fill="none" stroke="#000000" points="447,-103.2 447,-125.2 541,-125.2 541,-103.2 447,-103.2"/>
<text text-anchor="start" x="450" y="-110.9" font-family="Helvetica,sans-Serif" font-size="11.00" fill="#000000">timestamptz[35,6]</text>
<polygon fill="none" stroke="#000000" points="271,-81.2 271,-103.2 447,-103.2 447,-81.2 271,-81.2"/>
<text text-anchor="start" x="291" y="-88.3" font-family="Helvetica,sans-Serif" font-size="11.00" fill="#000000">deleted_at</text>
<polygon fill="none" stroke="#000000" points="447,-81.2 447,-103.2 541,-103.2 541,-81.2 447,-81.2"/>
<text text-anchor="start" x="450" y="-88.9" font-family="Helvetica,sans-Serif" font-size="11.00" fill="#000000">timestamptz[35,6]</text>
<polygon fill="none" stroke="#000000" points="271,-59.2 271,-81.2 447,-81.2 447,-59.2 271,-59.2"/>
<text text-anchor="start" x="291" y="-66.3" font-family="Helvetica,sans-Serif" font-size="11.00" fill="#000000">is_accepting_new_patients</text>
<polygon fill="none" stroke="#000000" points="447,-59.2 447,-81.2 541,-81.2 541,-59.2 447,-59.2"/>
<text text-anchor="start" x="450" y="-66.9" font-family="Helvetica,sans-Serif" font-size="11.00" fill="#000000">bool[1]</text>
<polygon fill="#ffffff" stroke="transparent" points="271,-40.2 271,-59.2 350,-59.2 350,-40.2 271,-40.2"/>
<polygon fill="none" stroke="#000000" points="271,-40.2 271,-59.2 350,-59.2 350,-40.2 271,-40.2"/>
<text text-anchor="start" x="274" y="-46.3" font-family="Helvetica,sans-Serif" font-size="11.00" fill="#000000">&lt; 2</text>
<polygon fill="#ffffff" stroke="transparent" points="350,-40.2 350,-59.2 447,-59.2 447,-40.2 350,-40.2"/>
<polygon fill="none" stroke="#000000" points="350,-40.2 350,-59.2 447,-59.2 447,-40.2 350,-40.2"/>
<text text-anchor="start" x="411.6105" y="-46.3" font-family="Helvetica,sans-Serif" font-size="11.00" fill="#000000">0 rows</text>
<polygon fill="#ffffff" stroke="transparent" points="447,-40.2 447,-59.2 541,-59.2 541,-40.2 447,-40.2"/>
<polygon fill="none" stroke="#000000" points="447,-40.2 447,-59.2 541,-59.2 541,-40.2 447,-40.2"/>
<text text-anchor="start" x="522.4053" y="-46.3" font-family="Helvetica,sans-Serif" font-size="11.00" fill="#000000">2 &gt;</text>
<polygon fill="none" stroke="#000000" stroke-width="2" points="270,-39.2 270,-325.2 542,-325.2 542,-39.2 270,-39.2"/>
</a>
</g>
</g>
<!-- patients&#45;&gt;professionals -->
<g id="edge3" class="edge">
<title>patients:w&#45;&gt;professionals:e</title>
<path fill="none" stroke="#000000" d="M577.6737,-466.805C524.0036,-445.5638 618.0668,-290.2 541,-290.2"/>
<polygon fill="#000000" stroke="#000000" points="584.1095,-467.8808 591.4064,-472.7507 588.0548,-468.5404 592,-469.2 592,-469.2 592,-469.2 588.0548,-468.5404 592.5936,-465.6493 584.1095,-467.8808 584.1095,-467.8808"/>
<ellipse fill="none" stroke="#000000" cx="580.9533" cy="-467.3532" rx="3.2" ry="3.2"/>
</g>
<!-- professionals&#45;&gt;users -->
<g id="edge7" class="edge">
<title>professionals:w&#45;&gt;users:e</title>
<path fill="none" stroke="#000000" d="M260.6201,-269.3679C210.5459,-281.623 245.3399,-386.2 184,-386.2"/>
<polygon fill="#000000" stroke="#000000" points="269.7577,-264.3145 270.6523,-272.2644 269.0623,-272.4433 268.1678,-264.4934 269.7577,-264.3145"/>
<polyline fill="none" stroke="#000000" points="271,-268.2 267.0251,-268.6473 "/>
<ellipse fill="none" stroke="#000000" cx="263.8451" cy="-269.0051" rx="3.2" ry="3.2"/>
</g>
<!-- licenses -->
<g id="node5" class="node">
<title>licenses</title>
<g id="a_node5"><a xlink:href="../../tables/licenses.html" xlink:title="licenses" target="_top">
<polygon fill="#ffffff" stroke="transparent" points="8,-167.7 8,-250.7 220,-250.7 220,-167.7 8,-167.7"/>
<polygon fill="#f5f5f5" stroke="transparent" points="8,-227.2 8,-250.2 220,-250.2 220,-227.2 8,-227.2"/>
<polygon fill="none" stroke="#000000" points="8,-227.2 8,-250.2 220,-250.2 220,-227.2 8,-227.2"/>
<text text-anchor="start" x="13" y="-236.3" font-family="Helvetica,sans-Serif" font-weight="bold" font-size="11.00" fill="#000000">licenses</text>
<text text-anchor="start" x="185.0437" y="-235.3" font-family="Helvetica,sans-Serif" font-size="11.00" fill="#000000">[table]</text>
<polygon fill="none" stroke="#000000" points="8,-205.2 8,-227.2 220,-227.2 220,-205.2 8,-205.2"/>
<image xlink:href="../../images/primaryKeys.png" width="11px" height="12px" preserveAspectRatio="xMinYMin meet" x="13" y="-222.2"/>
<text text-anchor="start" x="28" y="-212.3" font-family="Helvetica,sans-Serif" font-size="11.00" fill="#000000">id</text>
<polygon fill="none" stroke="#000000" points="8,-186.2 8,-205.2 220,-205.2 220,-186.2 8,-186.2"/>
<text text-anchor="start" x="11" y="-192.3" font-family="Helvetica,sans-Serif" font-size="11.00" fill="#000000">...</text>
<polygon fill="#ffffff" stroke="transparent" points="8,-167.2 8,-186.2 90,-186.2 90,-167.2 8,-167.2"/>
<polygon fill="none" stroke="#000000" points="8,-167.2 8,-186.2 90,-186.2 90,-167.2 8,-167.2"/>
<text text-anchor="start" x="11" y="-173.3" font-family="Helvetica,sans-Serif" font-size="11.00" fill="#000000"> &#160;</text>
<polygon fill="#ffffff" stroke="transparent" points="90,-167.2 90,-186.2 163,-186.2 163,-167.2 90,-167.2"/>
<polygon fill="none" stroke="#000000" points="90,-167.2 90,-186.2 163,-186.2 163,-167.2 90,-167.2"/>
<text text-anchor="start" x="127.6105" y="-173.3" font-family="Helvetica,sans-Serif" font-size="11.00" fill="#000000">0 rows</text>
<polygon fill="#ffffff" stroke="transparent" points="163,-167.2 163,-186.2 220,-186.2 220,-167.2 163,-167.2"/>
<polygon fill="none" stroke="#000000" points="163,-167.2 163,-186.2 220,-186.2 220,-167.2 163,-167.2"/>
<text text-anchor="start" x="201.4053" y="-173.3" font-family="Helvetica,sans-Serif" font-size="11.00" fill="#000000">1 &gt;</text>
</a>
</g>
</g>
<!-- professionals&#45;&gt;licenses -->
<g id="edge6" class="edge">
<title>professionals:w&#45;&gt;licenses:e</title>
<path fill="none" stroke="#000000" d="M256.5783,-222.95C244.3855,-220.7 237.2079,-216.2 220,-216.2"/>
<polygon fill="#000000" stroke="#000000" points="263.0299,-223.5091 270.6891,-227.7866 267.0149,-223.8546 271,-224.2 271,-224.2 271,-224.2 267.0149,-223.8546 271.3109,-220.6134 263.0299,-223.5091 263.0299,-223.5091"/>
<ellipse fill="none" stroke="#000000" cx="259.8418" cy="-223.2328" rx="3.2" ry="3.2"/>
</g>
<!-- professional_locations -->
<g id="node4" class="node">
<title>professional_locations</title>
<g id="a_node4"><a xlink:href="../../tables/professional_locations.html" xlink:title="professional_locations" target="_top">
<polygon fill="#ffffff" stroke="transparent" points="621.5,-203.2 621.5,-289.2 772.5,-289.2 772.5,-203.2 621.5,-203.2"/>
<polygon fill="#f5f5f5" stroke="transparent" points="622,-266.2 622,-289.2 773,-289.2 773,-266.2 622,-266.2"/>
<polygon fill="none" stroke="#000000" points="622,-266.2 622,-289.2 773,-289.2 773,-266.2 622,-266.2"/>
<text text-anchor="start" x="626.5984" y="-275.3" font-family="Helvetica,sans-Serif" font-weight="bold" font-size="11.00" fill="#000000">professional_locations</text>
<text text-anchor="start" x="738.5219" y="-274.3" font-family="Helvetica,sans-Serif" font-size="11.00" fill="#000000">[table]</text>
<polygon fill="none" stroke="#000000" points="622,-244.2 622,-266.2 773,-266.2 773,-244.2 622,-244.2"/>
<image xlink:href="../../images/primaryKeys.png" width="11px" height="12px" preserveAspectRatio="xMinYMin meet" x="627" y="-261.2"/>
<text text-anchor="start" x="642" y="-251.3" font-family="Helvetica,sans-Serif" font-size="11.00" fill="#000000">professional_id</text>
<polygon fill="none" stroke="#000000" points="622,-222.2 622,-244.2 773,-244.2 773,-222.2 622,-222.2"/>
<image xlink:href="../../images/primaryKeys.png" width="11px" height="12px" preserveAspectRatio="xMinYMin meet" x="627" y="-239.2"/>
<text text-anchor="start" x="642" y="-229.3" font-family="Helvetica,sans-Serif" font-size="11.00" fill="#000000">provider_location_id</text>
<polygon fill="#ffffff" stroke="transparent" points="622,-203.2 622,-222.2 683,-222.2 683,-203.2 622,-203.2"/>
<polygon fill="none" stroke="#000000" points="622,-203.2 622,-222.2 683,-222.2 683,-203.2 622,-203.2"/>
<text text-anchor="start" x="625" y="-209.3" font-family="Helvetica,sans-Serif" font-size="11.00" fill="#000000">&lt; 2</text>
<polygon fill="#ffffff" stroke="transparent" points="683,-203.2 683,-222.2 741,-222.2 741,-203.2 683,-203.2"/>
<polygon fill="none" stroke="#000000" points="683,-203.2 683,-222.2 741,-222.2 741,-203.2 683,-203.2"/>
<text text-anchor="start" x="705.6105" y="-209.3" font-family="Helvetica,sans-Serif" font-size="11.00" fill="#000000">0 rows</text>
<polygon fill="#ffffff" stroke="transparent" points="741,-203.2 741,-222.2 773,-222.2 773,-203.2 741,-203.2"/>
<polygon fill="none" stroke="#000000" points="741,-203.2 741,-222.2 773,-222.2 773,-203.2 741,-203.2"/>
<text text-anchor="start" x="763.8862" y="-209.3" font-family="Helvetica,sans-Serif" font-size="11.00" fill="#000000"> &#160;</text>
</a>
</g>
</g>
<!-- professional_locations&#45;&gt;professionals -->
<g id="edge5" class="edge">
<title>professional_locations:w&#45;&gt;professionals:e</title>
<path fill="none" stroke="#000000" d="M607.4258,-257.0818C581.3365,-264.3516 574.7021,-290.2 541,-290.2"/>
<polygon fill="#000000" stroke="#000000" points="614.0659,-256.2245 622.461,-258.7704 618.0329,-255.7122 622,-255.2 622,-255.2 622,-255.2 618.0329,-255.7122 621.539,-251.6296 614.0659,-256.2245 614.0659,-256.2245"/>
<ellipse fill="none" stroke="#000000" cx="610.8922" cy="-256.6343" rx="3.2" ry="3.2"/>
</g>
</g>
</svg>
