<?xml version="1.0" encoding="UTF-8" standalone="no"?>
<!DOCTYPE svg PUBLIC "-//W3C//DTD SVG 1.1//EN"
 "http://www.w3.org/Graphics/SVG/1.1/DTD/svg11.dtd">
<!-- Generated by graphviz version 2.40.1 (20161225.0304)
 -->
<!-- Title: oneDegreeRelationshipsDiagram Pages: 1 -->
<svg width="899pt" height="598pt"
 viewBox="0.00 0.00 899.00 597.70" xmlns="http://www.w3.org/2000/svg" xmlns:xlink="http://www.w3.org/1999/xlink">
<g id="graph0" class="graph" transform="scale(1 1) rotate(0) translate(4 593.7)">
<title>oneDegreeRelationshipsDiagram</title>
<polygon fill="#ffffff" stroke="transparent" points="-4,4 -4,-593.7 895,-593.7 895,4 -4,4"/>
<text text-anchor="middle" x="72.4936" y="-7.3" font-family="Helvetica,sans-Serif" font-size="11.00" fill="#000000">Generated by SchemaSpy</text>
<!-- patients -->
<g id="node1" class="node">
<title>patients</title>
<g id="a_node1"><a xlink:href="../../tables/patients.html" xlink:title="patients" target="_top">
<polygon fill="#ffffff" stroke="transparent" points="673,-282.7 673,-585.7 883,-585.7 883,-282.7 673,-282.7"/>
<polygon fill="#f5f5f5" stroke="transparent" points="673,-562.2 673,-585.2 883,-585.2 883,-562.2 673,-562.2"/>
<polygon fill="none" stroke="#000000" points="673,-562.2 673,-585.2 883,-585.2 883,-562.2 673,-562.2"/>
<text text-anchor="start" x="678" y="-571.3" font-family="Helvetica,sans-Serif" font-weight="bold" font-size="11.00" fill="#000000">patients</text>
<text text-anchor="start" x="848.0437" y="-570.3" font-family="Helvetica,sans-Serif" font-size="11.00" fill="#000000">[table]</text>
<polygon fill="none" stroke="#000000" points="673,-540.2 673,-562.2 883,-562.2 883,-540.2 673,-540.2"/>
<image xlink:href="../../images/primaryKeys.png" width="11px" height="12px" preserveAspectRatio="xMinYMin meet" x="678" y="-557.2"/>
<text text-anchor="start" x="693" y="-547.3" font-family="Helvetica,sans-Serif" font-size="11.00" fill="#000000">id</text>
<polygon fill="none" stroke="#000000" points="673,-518.2 673,-540.2 883,-540.2 883,-518.2 673,-518.2"/>
<image xlink:href="../../images/foreignKeys.png" width="11px" height="12px" preserveAspectRatio="xMinYMin meet" x="678" y="-535.2"/>
<text text-anchor="start" x="693" y="-525.3" font-family="Helvetica,sans-Serif" font-size="11.00" fill="#000000">profile_id</text>
<polygon fill="none" stroke="#000000" points="673,-496.2 673,-518.2 883,-518.2 883,-496.2 673,-496.2"/>
<image xlink:href="../../images/foreignKeys.png" width="11px" height="12px" preserveAspectRatio="xMinYMin meet" x="678" y="-513.2"/>
<text text-anchor="start" x="693" y="-503.3" font-family="Helvetica,sans-Serif" font-size="11.00" fill="#000000">user_id</text>
<polygon fill="none" stroke="#000000" points="673,-474.2 673,-496.2 883,-496.2 883,-474.2 673,-474.2"/>
<image xlink:href="../../images/foreignKeys.png" width="11px" height="12px" preserveAspectRatio="xMinYMin meet" x="678" y="-491.2"/>
<text text-anchor="start" x="693" y="-481.3" font-family="Helvetica,sans-Serif" font-size="11.00" fill="#000000">company_id</text>
<polygon fill="none" stroke="#000000" points="673,-452.2 673,-474.2 883,-474.2 883,-452.2 673,-452.2"/>
<image xlink:href="../../images/foreignKeys.png" width="11px" height="12px" preserveAspectRatio="xMinYMin meet" x="678" y="-469.2"/>
<text text-anchor="start" x="693" y="-459.3" font-family="Helvetica,sans-Serif" font-size="11.00" fill="#000000">provider_location_id</text>
<polygon fill="none" stroke="#000000" points="673,-430.2 673,-452.2 883,-452.2 883,-430.2 673,-430.2"/>
<image xlink:href="../../images/foreignKeys.png" width="11px" height="12px" preserveAspectRatio="xMinYMin meet" x="678" y="-447.2"/>
<text text-anchor="start" x="693" y="-437.3" font-family="Helvetica,sans-Serif" font-size="11.00" fill="#000000">professional_id</text>
<polygon fill="#ffffff" stroke="transparent" points="673,-408.2 673,-430.2 883,-430.2 883,-408.2 673,-408.2"/>
<polygon fill="none" stroke="#000000" points="673,-408.2 673,-430.2 883,-430.2 883,-408.2 673,-408.2"/>
<text text-anchor="start" x="693" y="-415.3" font-family="Helvetica,sans-Serif" font-size="11.00" fill="#000000">insurance_policy_id</text>
<polygon fill="none" stroke="#000000" points="673,-386.2 673,-408.2 883,-408.2 883,-386.2 673,-386.2"/>
<image xlink:href="../../images/foreignKeys.png" width="11px" height="12px" preserveAspectRatio="xMinYMin meet" x="678" y="-403.2"/>
<text text-anchor="start" x="693" y="-393.3" font-family="Helvetica,sans-Serif" font-size="11.00" fill="#000000">main_member_id</text>
<polygon fill="none" stroke="#000000" points="673,-364.2 673,-386.2 883,-386.2 883,-364.2 673,-364.2"/>
<image xlink:href="../../images/foreignKeys.png" width="11px" height="12px" preserveAspectRatio="xMinYMin meet" x="678" y="-381.2"/>
<text text-anchor="start" x="693" y="-371.3" font-family="Helvetica,sans-Serif" font-size="11.00" fill="#000000">relationship_to_main_member</text>
<polygon fill="none" stroke="#000000" points="673,-342.2 673,-364.2 883,-364.2 883,-342.2 673,-342.2"/>
<image xlink:href="../../images/foreignKeys.png" width="11px" height="12px" preserveAspectRatio="xMinYMin meet" x="678" y="-359.2"/>
<text text-anchor="start" x="693" y="-349.3" font-family="Helvetica,sans-Serif" font-size="11.00" fill="#000000">accepted_agreement_by_user_id</text>
<polygon fill="none" stroke="#000000" points="673,-320.2 673,-342.2 883,-342.2 883,-320.2 673,-320.2"/>
<image xlink:href="../../images/foreignKeys.png" width="11px" height="12px" preserveAspectRatio="xMinYMin meet" x="678" y="-337.2"/>
<text text-anchor="start" x="693" y="-327.3" font-family="Helvetica,sans-Serif" font-size="11.00" fill="#000000">created_by_user_id</text>
<polygon fill="none" stroke="#000000" points="673,-301.2 673,-320.2 883,-320.2 883,-301.2 673,-301.2"/>
<text text-anchor="start" x="676" y="-307.3" font-family="Helvetica,sans-Serif" font-size="11.00" fill="#000000">...</text>
<polygon fill="#ffffff" stroke="transparent" points="673,-282.2 673,-301.2 759,-301.2 759,-282.2 673,-282.2"/>
<polygon fill="none" stroke="#000000" points="673,-282.2 673,-301.2 759,-301.2 759,-282.2 673,-282.2"/>
<text text-anchor="start" x="676" y="-288.3" font-family="Helvetica,sans-Serif" font-size="11.00" fill="#000000">&lt; 9</text>
<polygon fill="#ffffff" stroke="transparent" points="759,-282.2 759,-301.2 829,-301.2 829,-282.2 759,-282.2"/>
<polygon fill="none" stroke="#000000" points="759,-282.2 759,-301.2 829,-301.2 829,-282.2 759,-282.2"/>
<text text-anchor="start" x="793.6105" y="-288.3" font-family="Helvetica,sans-Serif" font-size="11.00" fill="#000000">0 rows</text>
<polygon fill="#ffffff" stroke="transparent" points="829,-282.2 829,-301.2 883,-301.2 883,-282.2 829,-282.2"/>
<polygon fill="none" stroke="#000000" points="829,-282.2 829,-301.2 883,-301.2 883,-282.2 829,-282.2"/>
<text text-anchor="start" x="864.4053" y="-288.3" font-family="Helvetica,sans-Serif" font-size="11.00" fill="#000000">2 &gt;</text>
</a>
</g>
</g>
<!-- users -->
<g id="node2" class="node">
<title>users</title>
<g id="a_node2"><a xlink:href="../../tables/users.html" xlink:title="users" target="_top">
<polygon fill="#ffffff" stroke="transparent" points="485,-267.7 485,-416.7 624,-416.7 624,-267.7 485,-267.7"/>
<polygon fill="#f5f5f5" stroke="transparent" points="485.5,-393.2 485.5,-416.2 624.5,-416.2 624.5,-393.2 485.5,-393.2"/>
<polygon fill="none" stroke="#000000" points="485.5,-393.2 485.5,-416.2 624.5,-416.2 624.5,-393.2 485.5,-393.2"/>
<text text-anchor="start" x="490.5" y="-402.3" font-family="Helvetica,sans-Serif" font-weight="bold" font-size="11.00" fill="#000000">users</text>
<text text-anchor="start" x="589.5437" y="-401.3" font-family="Helvetica,sans-Serif" font-size="11.00" fill="#000000">[table]</text>
<polygon fill="none" stroke="#000000" points="485.5,-371.2 485.5,-393.2 624.5,-393.2 624.5,-371.2 485.5,-371.2"/>
<image xlink:href="../../images/primaryKeys.png" width="11px" height="12px" preserveAspectRatio="xMinYMin meet" x="490.5" y="-388.2"/>
<text text-anchor="start" x="505.5" y="-378.3" font-family="Helvetica,sans-Serif" font-size="11.00" fill="#000000">id</text>
<polygon fill="#ffffff" stroke="transparent" points="485.5,-349.2 485.5,-371.2 624.5,-371.2 624.5,-349.2 485.5,-349.2"/>
<polygon fill="none" stroke="#000000" points="485.5,-349.2 485.5,-371.2 624.5,-371.2 624.5,-349.2 485.5,-349.2"/>
<text text-anchor="start" x="505.5" y="-356.3" font-family="Helvetica,sans-Serif" font-size="11.00" fill="#000000">email</text>
<polygon fill="#ffffff" stroke="transparent" points="485.5,-327.2 485.5,-349.2 624.5,-349.2 624.5,-327.2 485.5,-327.2"/>
<polygon fill="none" stroke="#000000" points="485.5,-327.2 485.5,-349.2 624.5,-349.2 624.5,-327.2 485.5,-327.2"/>
<text text-anchor="start" x="505.5" y="-334.3" font-family="Helvetica,sans-Serif" font-size="11.00" fill="#000000">cognito_id</text>
<polygon fill="#ffffff" stroke="transparent" points="485.5,-305.2 485.5,-327.2 624.5,-327.2 624.5,-305.2 485.5,-305.2"/>
<polygon fill="none" stroke="#000000" points="485.5,-305.2 485.5,-327.2 624.5,-327.2 624.5,-305.2 485.5,-305.2"/>
<image xlink:href="../../images/foreignKeys.png" width="11px" height="12px" preserveAspectRatio="xMinYMin meet" x="490.5" y="-322.2"/>
<text text-anchor="start" x="505.5" y="-312.3" font-family="Helvetica,sans-Serif" font-size="11.00" fill="#000000">profile_id</text>
<polygon fill="none" stroke="#000000" points="485.5,-286.2 485.5,-305.2 624.5,-305.2 624.5,-286.2 485.5,-286.2"/>
<text text-anchor="start" x="488.5" y="-292.3" font-family="Helvetica,sans-Serif" font-size="11.00" fill="#000000">...</text>
<polygon fill="#ffffff" stroke="transparent" points="485.5,-267.2 485.5,-286.2 535.5,-286.2 535.5,-267.2 485.5,-267.2"/>
<polygon fill="none" stroke="#000000" points="485.5,-267.2 485.5,-286.2 535.5,-286.2 535.5,-267.2 485.5,-267.2"/>
<text text-anchor="start" x="488.5" y="-273.3" font-family="Helvetica,sans-Serif" font-size="11.00" fill="#000000">&lt; 1</text>
<polygon fill="#ffffff" stroke="transparent" points="535.5,-267.2 535.5,-286.2 588.5,-286.2 588.5,-267.2 535.5,-267.2"/>
<polygon fill="none" stroke="#000000" points="535.5,-267.2 535.5,-286.2 588.5,-286.2 588.5,-267.2 535.5,-267.2"/>
<text text-anchor="start" x="553.1105" y="-273.3" font-family="Helvetica,sans-Serif" font-size="11.00" fill="#000000">0 rows</text>
<polygon fill="#ffffff" stroke="transparent" points="588.5,-267.2 588.5,-286.2 624.5,-286.2 624.5,-267.2 588.5,-267.2"/>
<polygon fill="none" stroke="#000000" points="588.5,-267.2 588.5,-286.2 624.5,-286.2 624.5,-267.2 588.5,-267.2"/>
<text text-anchor="start" x="605.9053" y="-273.3" font-family="Helvetica,sans-Serif" font-size="11.00" fill="#000000">8 &gt;</text>
</a>
</g>
</g>
<!-- patients&#45;&gt;users -->
<g id="edge1" class="edge">
<title>patients:w&#45;&gt;users:e</title>
<path fill="none" stroke="#000000" d="M659.0737,-357.2323C647.2213,-365.2007 643.7287,-382.2 624.5,-382.2"/>
<polygon fill="#000000" stroke="#000000" points="665.3156,-355.425 674.0013,-356.658 669.1578,-354.3125 673,-353.2 673,-353.2 673,-353.2 669.1578,-354.3125 671.9987,-349.742 665.3156,-355.425 665.3156,-355.425"/>
<ellipse fill="none" stroke="#000000" cx="662.2419" cy="-356.315" rx="3.2" ry="3.2"/>
</g>
<!-- patients&#45;&gt;users -->
<g id="edge2" class="edge">
<title>patients:w&#45;&gt;users:e</title>
<path fill="none" stroke="#000000" d="M659.1851,-336.2765C645.4827,-349.1764 649.6704,-382.2 624.5,-382.2"/>
<polygon fill="#000000" stroke="#000000" points="665.4909,-333.9594 674.2417,-334.5791 669.2455,-332.5797 673,-331.2 673,-331.2 673,-331.2 669.2455,-332.5797 671.7583,-327.8209 665.4909,-333.9594 665.4909,-333.9594"/>
<ellipse fill="none" stroke="#000000" cx="662.4873" cy="-335.0631" rx="3.2" ry="3.2"/>
</g>
<!-- patients&#45;&gt;users -->
<g id="edge4" class="edge">
<title>patients:w&#45;&gt;users:e</title>
<path fill="none" stroke="#000000" d="M658.6017,-503.5938C626.4227,-483.0987 678.0386,-382.2 624.5,-382.2"/>
<polygon fill="#000000" stroke="#000000" points="665.2397,-505.2563 672.1253,-510.6921 669.1199,-506.2282 673,-507.2 673,-507.2 673,-507.2 669.1199,-506.2282 673.8747,-503.7079 665.2397,-505.2563 665.2397,-505.2563"/>
<ellipse fill="none" stroke="#000000" cx="662.1356" cy="-504.4788" rx="3.2" ry="3.2"/>
</g>
<!-- profiles -->
<g id="node3" class="node">
<title>profiles</title>
<g id="a_node3"><a xlink:href="../../tables/profiles.html" xlink:title="profiles" target="_top">
<polygon fill="#ffffff" stroke="transparent" points="180,-38.2 180,-414.2 436,-414.2 436,-38.2 180,-38.2"/>
<polygon fill="#f5f5f5" stroke="transparent" points="182,-389.2 182,-412.2 434,-412.2 434,-389.2 182,-389.2"/>
<polygon fill="none" stroke="#000000" points="182,-389.2 182,-412.2 434,-412.2 434,-389.2 182,-389.2"/>
<text text-anchor="start" x="187" y="-398.3" font-family="Helvetica,sans-Serif" font-weight="bold" font-size="11.00" fill="#000000">profiles</text>
<text text-anchor="start" x="399.0437" y="-397.3" font-family="Helvetica,sans-Serif" font-size="11.00" fill="#000000">[table]</text>
<polygon fill="none" stroke="#000000" points="182,-367.2 182,-389.2 340,-389.2 340,-367.2 182,-367.2"/>
<image xlink:href="../../images/primaryKeys.png" width="11px" height="12px" preserveAspectRatio="xMinYMin meet" x="187" y="-384.2"/>
<text text-anchor="start" x="202" y="-374.3" font-family="Helvetica,sans-Serif" font-size="11.00" fill="#000000">id</text>
<polygon fill="none" stroke="#000000" points="340,-367.2 340,-389.2 434,-389.2 434,-367.2 340,-367.2"/>
<text text-anchor="start" x="342.9758" y="-374.9" font-family="Helvetica,sans-Serif" font-size="11.00" fill="#000000">uuid[2147483647]</text>
<polygon fill="none" stroke="#000000" points="182,-345.2 182,-367.2 340,-367.2 340,-345.2 182,-345.2"/>
<text text-anchor="start" x="202" y="-352.3" font-family="Helvetica,sans-Serif" font-size="11.00" fill="#000000">first_name</text>
<polygon fill="none" stroke="#000000" points="340,-345.2 340,-367.2 434,-367.2 434,-345.2 340,-345.2"/>
<text text-anchor="start" x="343" y="-352.9" font-family="Helvetica,sans-Serif" font-size="11.00" fill="#000000">text[2147483647]</text>
<polygon fill="none" stroke="#000000" points="182,-323.2 182,-345.2 340,-345.2 340,-323.2 182,-323.2"/>
<text text-anchor="start" x="202" y="-330.3" font-family="Helvetica,sans-Serif" font-size="11.00" fill="#000000">last_name</text>
<polygon fill="none" stroke="#000000" points="340,-323.2 340,-345.2 434,-345.2 434,-323.2 340,-323.2"/>
<text text-anchor="start" x="343" y="-330.9" font-family="Helvetica,sans-Serif" font-size="11.00" fill="#000000">text[2147483647]</text>
<polygon fill="none" stroke="#000000" points="182,-301.2 182,-323.2 340,-323.2 340,-301.2 182,-301.2"/>
<text text-anchor="start" x="202" y="-308.3" font-family="Helvetica,sans-Serif" font-size="11.00" fill="#000000">date_of_birth</text>
<polygon fill="none" stroke="#000000" points="340,-301.2 340,-323.2 434,-323.2 434,-301.2 340,-301.2"/>
<text text-anchor="start" x="343" y="-308.9" font-family="Helvetica,sans-Serif" font-size="11.00" fill="#000000">date[13]</text>
<polygon fill="none" stroke="#000000" points="182,-279.2 182,-301.2 340,-301.2 340,-279.2 182,-279.2"/>
<image xlink:href="../../images/foreignKeys.png" width="11px" height="12px" preserveAspectRatio="xMinYMin meet" x="187" y="-296.2"/>
<text text-anchor="start" x="202" y="-286.3" font-family="Helvetica,sans-Serif" font-size="11.00" fill="#000000">gender</text>
<polygon fill="none" stroke="#000000" points="340,-279.2 340,-301.2 434,-301.2 434,-279.2 340,-279.2"/>
<text text-anchor="start" x="343" y="-286.9" font-family="Helvetica,sans-Serif" font-size="11.00" fill="#000000">text[2147483647]</text>
<polygon fill="none" stroke="#000000" points="182,-257.2 182,-279.2 340,-279.2 340,-257.2 182,-257.2"/>
<text text-anchor="start" x="202" y="-264.3" font-family="Helvetica,sans-Serif" font-size="11.00" fill="#000000">signature</text>
<polygon fill="none" stroke="#000000" points="340,-257.2 340,-279.2 434,-279.2 434,-257.2 340,-257.2"/>
<text text-anchor="start" x="343" y="-264.9" font-family="Helvetica,sans-Serif" font-size="11.00" fill="#000000">text[2147483647]</text>
<polygon fill="none" stroke="#000000" points="182,-235.2 182,-257.2 340,-257.2 340,-235.2 182,-235.2"/>
<image xlink:href="../../images/foreignKeys.png" width="11px" height="12px" preserveAspectRatio="xMinYMin meet" x="187" y="-252.2"/>
<text text-anchor="start" x="202" y="-242.3" font-family="Helvetica,sans-Serif" font-size="11.00" fill="#000000">address_id</text>
<polygon fill="none" stroke="#000000" points="340,-235.2 340,-257.2 434,-257.2 434,-235.2 340,-235.2"/>
<text text-anchor="start" x="342.9758" y="-242.9" font-family="Helvetica,sans-Serif" font-size="11.00" fill="#000000">uuid[2147483647]</text>
<polygon fill="none" stroke="#000000" points="182,-213.2 182,-235.2 340,-235.2 340,-213.2 182,-213.2"/>
<image xlink:href="../../images/foreignKeys.png" width="11px" height="12px" preserveAspectRatio="xMinYMin meet" x="187" y="-230.2"/>
<text text-anchor="start" x="202" y="-220.3" font-family="Helvetica,sans-Serif" font-size="11.00" fill="#000000">marital_status</text>
<polygon fill="none" stroke="#000000" points="340,-213.2 340,-235.2 434,-235.2 434,-213.2 340,-213.2"/>
<text text-anchor="start" x="343" y="-220.9" font-family="Helvetica,sans-Serif" font-size="11.00" fill="#000000">text[2147483647]</text>
<polygon fill="none" stroke="#000000" points="182,-191.2 182,-213.2 340,-213.2 340,-191.2 182,-191.2"/>
<text text-anchor="start" x="202" y="-198.3" font-family="Helvetica,sans-Serif" font-size="11.00" fill="#000000">title</text>
<polygon fill="none" stroke="#000000" points="340,-191.2 340,-213.2 434,-213.2 434,-191.2 340,-191.2"/>
<text text-anchor="start" x="343" y="-198.9" font-family="Helvetica,sans-Serif" font-size="11.00" fill="#000000">text[2147483647]</text>
<polygon fill="none" stroke="#000000" points="182,-169.2 182,-191.2 340,-191.2 340,-169.2 182,-169.2"/>
<text text-anchor="start" x="202" y="-176.3" font-family="Helvetica,sans-Serif" font-size="11.00" fill="#000000">social_security_number</text>
<polygon fill="none" stroke="#000000" points="340,-169.2 340,-191.2 434,-191.2 434,-169.2 340,-169.2"/>
<text text-anchor="start" x="343" y="-176.9" font-family="Helvetica,sans-Serif" font-size="11.00" fill="#000000">text[2147483647]</text>
<polygon fill="none" stroke="#000000" points="182,-147.2 182,-169.2 340,-169.2 340,-147.2 182,-147.2"/>
<text text-anchor="start" x="202" y="-154.3" font-family="Helvetica,sans-Serif" font-size="11.00" fill="#000000">created_at</text>
<polygon fill="none" stroke="#000000" points="340,-147.2 340,-169.2 434,-169.2 434,-147.2 340,-147.2"/>
<text text-anchor="start" x="343" y="-154.9" font-family="Helvetica,sans-Serif" font-size="11.00" fill="#000000">timestamptz[35,6]</text>
<polygon fill="none" stroke="#000000" points="182,-125.2 182,-147.2 340,-147.2 340,-125.2 182,-125.2"/>
<text text-anchor="start" x="202" y="-132.3" font-family="Helvetica,sans-Serif" font-size="11.00" fill="#000000">updated_at</text>
<polygon fill="none" stroke="#000000" points="340,-125.2 340,-147.2 434,-147.2 434,-125.2 340,-125.2"/>
<text text-anchor="start" x="343" y="-132.9" font-family="Helvetica,sans-Serif" font-size="11.00" fill="#000000">timestamptz[35,6]</text>
<polygon fill="none" stroke="#000000" points="182,-103.2 182,-125.2 340,-125.2 340,-103.2 182,-103.2"/>
<text text-anchor="start" x="202" y="-110.3" font-family="Helvetica,sans-Serif" font-size="11.00" fill="#000000">deleted_at</text>
<polygon fill="none" stroke="#000000" points="340,-103.2 340,-125.2 434,-125.2 434,-103.2 340,-103.2"/>
<text text-anchor="start" x="343" y="-110.9" font-family="Helvetica,sans-Serif" font-size="11.00" fill="#000000">timestamptz[35,6]</text>
<polygon fill="none" stroke="#000000" points="182,-81.2 182,-103.2 340,-103.2 340,-81.2 182,-81.2"/>
<text text-anchor="start" x="202" y="-88.3" font-family="Helvetica,sans-Serif" font-size="11.00" fill="#000000">school</text>
<polygon fill="none" stroke="#000000" points="340,-81.2 340,-103.2 434,-103.2 434,-81.2 340,-81.2"/>
<text text-anchor="start" x="343" y="-88.9" font-family="Helvetica,sans-Serif" font-size="11.00" fill="#000000">text[2147483647]</text>
<polygon fill="none" stroke="#000000" points="182,-59.2 182,-81.2 340,-81.2 340,-59.2 182,-59.2"/>
<text text-anchor="start" x="202" y="-66.3" font-family="Helvetica,sans-Serif" font-size="11.00" fill="#000000">phone_number</text>
<polygon fill="none" stroke="#000000" points="340,-59.2 340,-81.2 434,-81.2 434,-59.2 340,-59.2"/>
<text text-anchor="start" x="343" y="-66.9" font-family="Helvetica,sans-Serif" font-size="11.00" fill="#000000">text[2147483647]</text>
<polygon fill="#ffffff" stroke="transparent" points="182,-40.2 182,-59.2 252,-59.2 252,-40.2 182,-40.2"/>
<polygon fill="none" stroke="#000000" points="182,-40.2 182,-59.2 252,-59.2 252,-40.2 182,-40.2"/>
<text text-anchor="start" x="185" y="-46.3" font-family="Helvetica,sans-Serif" font-size="11.00" fill="#000000">&lt; 3</text>
<polygon fill="#ffffff" stroke="transparent" points="252,-40.2 252,-59.2 340,-59.2 340,-40.2 252,-40.2"/>
<polygon fill="none" stroke="#000000" points="252,-40.2 252,-59.2 340,-59.2 340,-40.2 252,-40.2"/>
<text text-anchor="start" x="304.6105" y="-46.3" font-family="Helvetica,sans-Serif" font-size="11.00" fill="#000000">0 rows</text>
<polygon fill="#ffffff" stroke="transparent" points="340,-40.2 340,-59.2 434,-59.2 434,-40.2 340,-40.2"/>
<polygon fill="none" stroke="#000000" points="340,-40.2 340,-59.2 434,-59.2 434,-40.2 340,-40.2"/>
<text text-anchor="start" x="415.4053" y="-46.3" font-family="Helvetica,sans-Serif" font-size="11.00" fill="#000000">2 &gt;</text>
<polygon fill="none" stroke="#000000" stroke-width="2" points="181,-39.2 181,-413.2 435,-413.2 435,-39.2 181,-39.2"/>
</a>
</g>
</g>
<!-- patients&#45;&gt;profiles -->
<g id="edge3" class="edge">
<title>patients:w&#45;&gt;profiles:e</title>
<path fill="none" stroke="#000000" d="M658.3575,-528.8704C572.5213,-524.864 550.266,-484.6729 477,-427.2 454.2029,-409.317 462.9742,-378.2 434,-378.2"/>
<polygon fill="#000000" stroke="#000000" points="665.002,-529.0199 672.919,-532.7991 669.001,-529.11 673,-529.2 673,-529.2 673,-529.2 669.001,-529.11 673.081,-525.6009 665.002,-529.0199 665.002,-529.0199"/>
<ellipse fill="none" stroke="#000000" cx="661.8028" cy="-528.9479" rx="3.2" ry="3.2"/>
</g>
<!-- users&#45;&gt;profiles -->
<g id="edge8" class="edge">
<title>users:w&#45;&gt;profiles:e</title>
<path fill="none" stroke="#000000" d="M475.318,-318.4066C453.5237,-329.4513 465.764,-378.2 434,-378.2"/>
<polygon fill="#000000" stroke="#000000" points="483.8709,-312.4602 485.5654,-320.2787 484.0017,-320.6176 482.3072,-312.7991 483.8709,-312.4602"/>
<polyline fill="none" stroke="#000000" points="485.5,-316.2 481.5907,-317.0472 "/>
<ellipse fill="none" stroke="#000000" cx="478.4633" cy="-317.725" rx="3.2" ry="3.2"/>
</g>
<!-- addresses -->
<g id="node4" class="node">
<title>addresses</title>
<g id="a_node4"><a xlink:href="../../tables/addresses.html" xlink:title="addresses" target="_top">
<polygon fill="#ffffff" stroke="transparent" points="23,-197.7 23,-280.7 116,-280.7 116,-197.7 23,-197.7"/>
<polygon fill="#f5f5f5" stroke="transparent" points="23.5,-257.2 23.5,-280.2 116.5,-280.2 116.5,-257.2 23.5,-257.2"/>
<polygon fill="none" stroke="#000000" points="23.5,-257.2 23.5,-280.2 116.5,-280.2 116.5,-257.2 23.5,-257.2"/>
<text text-anchor="start" x="28.1318" y="-266.3" font-family="Helvetica,sans-Serif" font-weight="bold" font-size="11.00" fill="#000000">addresses</text>
<text text-anchor="start" x="82.0219" y="-265.3" font-family="Helvetica,sans-Serif" font-size="11.00" fill="#000000">[table]</text>
<polygon fill="none" stroke="#000000" points="23.5,-235.2 23.5,-257.2 116.5,-257.2 116.5,-235.2 23.5,-235.2"/>
<image xlink:href="../../images/primaryKeys.png" width="11px" height="12px" preserveAspectRatio="xMinYMin meet" x="28.5" y="-252.2"/>
<text text-anchor="start" x="47.5" y="-242.3" font-family="Helvetica,sans-Serif" font-size="11.00" fill="#000000">id</text>
<polygon fill="none" stroke="#000000" points="23.5,-216.2 23.5,-235.2 116.5,-235.2 116.5,-216.2 23.5,-216.2"/>
<text text-anchor="start" x="26.5" y="-222.3" font-family="Helvetica,sans-Serif" font-size="11.00" fill="#000000">...</text>
<polygon fill="#ffffff" stroke="transparent" points="23.5,-197.2 23.5,-216.2 46.5,-216.2 46.5,-197.2 23.5,-197.2"/>
<polygon fill="none" stroke="#000000" points="23.5,-197.2 23.5,-216.2 46.5,-216.2 46.5,-197.2 23.5,-197.2"/>
<text text-anchor="start" x="26.5" y="-203.3" font-family="Helvetica,sans-Serif" font-size="11.00" fill="#000000"> &#160;</text>
<polygon fill="#ffffff" stroke="transparent" points="46.5,-197.2 46.5,-216.2 89.5,-216.2 89.5,-197.2 46.5,-197.2"/>
<polygon fill="none" stroke="#000000" points="46.5,-197.2 46.5,-216.2 89.5,-216.2 89.5,-197.2 46.5,-197.2"/>
<text text-anchor="start" x="54.1105" y="-203.3" font-family="Helvetica,sans-Serif" font-size="11.00" fill="#000000">0 rows</text>
<polygon fill="#ffffff" stroke="transparent" points="89.5,-197.2 89.5,-216.2 116.5,-216.2 116.5,-197.2 89.5,-197.2"/>
<polygon fill="none" stroke="#000000" points="89.5,-197.2 89.5,-216.2 116.5,-216.2 116.5,-197.2 89.5,-197.2"/>
<text text-anchor="start" x="97.9053" y="-203.3" font-family="Helvetica,sans-Serif" font-size="11.00" fill="#000000">3 &gt;</text>
</a>
</g>
</g>
<!-- profiles&#45;&gt;addresses -->
<g id="edge5" class="edge">
<title>profiles:w&#45;&gt;addresses:e</title>
<path fill="none" stroke="#000000" d="M167.3773,-246.2C149.303,-246.2 140.0391,-246.2 116.5,-246.2"/>
<polygon fill="#000000" stroke="#000000" points="174,-246.2001 182,-249.8 178,-246.2 182,-246.2 182,-246.2 182,-246.2 178,-246.2 182,-242.6 174,-246.2001 174,-246.2001"/>
<ellipse fill="none" stroke="#000000" cx="170.8" cy="-246.2001" rx="3.2" ry="3.2"/>
</g>
<!-- genders -->
<g id="node5" class="node">
<title>genders</title>
<g id="a_node5"><a xlink:href="../../tables/genders.html" xlink:title="genders" target="_top">
<polygon fill="#ffffff" stroke="transparent" points="28.5,-302.2 28.5,-366.2 110.5,-366.2 110.5,-302.2 28.5,-302.2"/>
<polygon fill="#f5f5f5" stroke="transparent" points="28.5,-343.2 28.5,-366.2 110.5,-366.2 110.5,-343.2 28.5,-343.2"/>
<polygon fill="none" stroke="#000000" points="28.5,-343.2 28.5,-366.2 110.5,-366.2 110.5,-343.2 28.5,-343.2"/>
<text text-anchor="start" x="33.1318" y="-352.3" font-family="Helvetica,sans-Serif" font-weight="bold" font-size="11.00" fill="#000000">genders</text>
<text text-anchor="start" x="76.0219" y="-351.3" font-family="Helvetica,sans-Serif" font-size="11.00" fill="#000000">[table]</text>
<polygon fill="none" stroke="#000000" points="28.5,-321.2 28.5,-343.2 110.5,-343.2 110.5,-321.2 28.5,-321.2"/>
<image xlink:href="../../images/primaryKeys.png" width="11px" height="12px" preserveAspectRatio="xMinYMin meet" x="33.5" y="-338.2"/>
<text text-anchor="start" x="56.5" y="-328.3" font-family="Helvetica,sans-Serif" font-size="11.00" fill="#000000">name</text>
<polygon fill="#ffffff" stroke="transparent" points="28.5,-302.2 28.5,-321.2 45.5,-321.2 45.5,-302.2 28.5,-302.2"/>
<polygon fill="none" stroke="#000000" points="28.5,-302.2 28.5,-321.2 45.5,-321.2 45.5,-302.2 28.5,-302.2"/>
<text text-anchor="start" x="31.5" y="-308.3" font-family="Helvetica,sans-Serif" font-size="11.00" fill="#000000"> &#160;</text>
<polygon fill="#ffffff" stroke="transparent" points="45.5,-302.2 45.5,-321.2 86.5,-321.2 86.5,-302.2 45.5,-302.2"/>
<polygon fill="none" stroke="#000000" points="45.5,-302.2 45.5,-321.2 86.5,-321.2 86.5,-302.2 45.5,-302.2"/>
<text text-anchor="start" x="51.1105" y="-308.3" font-family="Helvetica,sans-Serif" font-size="11.00" fill="#000000">0 rows</text>
<polygon fill="#ffffff" stroke="transparent" points="86.5,-302.2 86.5,-321.2 110.5,-321.2 110.5,-302.2 86.5,-302.2"/>
<polygon fill="none" stroke="#000000" points="86.5,-302.2 86.5,-321.2 110.5,-321.2 110.5,-302.2 86.5,-302.2"/>
<text text-anchor="start" x="91.9053" y="-308.3" font-family="Helvetica,sans-Serif" font-size="11.00" fill="#000000">1 &gt;</text>
</a>
</g>
</g>
<!-- profiles&#45;&gt;genders -->
<g id="edge6" class="edge">
<title>profiles:w&#45;&gt;genders:e</title>
<path fill="none" stroke="#000000" d="M167.5999,-292.8273C144.9118,-302.0221 141.7401,-332.2 110.5,-332.2"/>
<polygon fill="#000000" stroke="#000000" points="174.1299,-291.6359 182.6462,-293.7415 178.065,-290.918 182,-290.2 182,-290.2 182,-290.2 178.065,-290.918 181.3538,-286.6585 174.1299,-291.6359 174.1299,-291.6359"/>
<ellipse fill="none" stroke="#000000" cx="170.9819" cy="-292.2103" rx="3.2" ry="3.2"/>
</g>
<!-- marital_statuses -->
<g id="node6" class="node">
<title>marital_statuses</title>
<g id="a_node6"><a xlink:href="../../tables/marital_statuses.html" xlink:title="marital_statuses" target="_top">
<polygon fill="#ffffff" stroke="transparent" points="8,-112.2 8,-176.2 131,-176.2 131,-112.2 8,-112.2"/>
<polygon fill="#f5f5f5" stroke="transparent" points="8.5,-153.2 8.5,-176.2 131.5,-176.2 131.5,-153.2 8.5,-153.2"/>
<polygon fill="none" stroke="#000000" points="8.5,-153.2 8.5,-176.2 131.5,-176.2 131.5,-153.2 8.5,-153.2"/>
<text text-anchor="start" x="13.4672" y="-162.3" font-family="Helvetica,sans-Serif" font-weight="bold" font-size="11.00" fill="#000000">marital_statuses</text>
<text text-anchor="start" x="97.0219" y="-161.3" font-family="Helvetica,sans-Serif" font-size="11.00" fill="#000000">[table]</text>
<polygon fill="none" stroke="#000000" points="8.5,-131.2 8.5,-153.2 131.5,-153.2 131.5,-131.2 8.5,-131.2"/>
<image xlink:href="../../images/primaryKeys.png" width="11px" height="12px" preserveAspectRatio="xMinYMin meet" x="13.5" y="-148.2"/>
<text text-anchor="start" x="32.5" y="-138.3" font-family="Helvetica,sans-Serif" font-size="11.00" fill="#000000">name</text>
<polygon fill="#ffffff" stroke="transparent" points="8.5,-112.2 8.5,-131.2 46.5,-131.2 46.5,-112.2 8.5,-112.2"/>
<polygon fill="none" stroke="#000000" points="8.5,-112.2 8.5,-131.2 46.5,-131.2 46.5,-112.2 8.5,-112.2"/>
<text text-anchor="start" x="11.5" y="-118.3" font-family="Helvetica,sans-Serif" font-size="11.00" fill="#000000"> &#160;</text>
<polygon fill="#ffffff" stroke="transparent" points="46.5,-112.2 46.5,-131.2 97.5,-131.2 97.5,-112.2 46.5,-112.2"/>
<polygon fill="none" stroke="#000000" points="46.5,-112.2 46.5,-131.2 97.5,-131.2 97.5,-112.2 46.5,-112.2"/>
<text text-anchor="start" x="62.1105" y="-118.3" font-family="Helvetica,sans-Serif" font-size="11.00" fill="#000000">0 rows</text>
<polygon fill="#ffffff" stroke="transparent" points="97.5,-112.2 97.5,-131.2 131.5,-131.2 131.5,-112.2 97.5,-112.2"/>
<polygon fill="none" stroke="#000000" points="97.5,-112.2 97.5,-131.2 131.5,-131.2 131.5,-112.2 97.5,-112.2"/>
<text text-anchor="start" x="112.9053" y="-118.3" font-family="Helvetica,sans-Serif" font-size="11.00" fill="#000000">1 &gt;</text>
</a>
</g>
</g>
<!-- profiles&#45;&gt;marital_statuses -->
<g id="edge7" class="edge">
<title>profiles:w&#45;&gt;marital_statuses:e</title>
<path fill="none" stroke="#000000" d="M168.1317,-219.7913C147.5307,-202.7591 168.2824,-142.2 131.5,-142.2"/>
<polygon fill="#000000" stroke="#000000" points="174.376,-221.7763 180.9093,-227.6308 178.188,-222.9882 182,-224.2 182,-224.2 182,-224.2 178.188,-222.9882 183.0907,-220.7692 174.376,-221.7763 174.376,-221.7763"/>
<ellipse fill="none" stroke="#000000" cx="171.3263" cy="-220.8068" rx="3.2" ry="3.2"/>
</g>
</g>
</svg>
