<?xml version="1.0" encoding="UTF-8" standalone="no"?>
<!DOCTYPE svg PUBLIC "-//W3C//DTD SVG 1.1//EN"
 "http://www.w3.org/Graphics/SVG/1.1/DTD/svg11.dtd">
<!-- Generated by graphviz version 2.40.1 (20161225.0304)
 -->
<!-- Title: twoDegreesRelationshipsDiagram Pages: 1 -->
<svg width="1054pt" height="444pt"
 viewBox="0.00 0.00 1054.00 444.20" xmlns="http://www.w3.org/2000/svg" xmlns:xlink="http://www.w3.org/1999/xlink">
<g id="graph0" class="graph" transform="scale(1 1) rotate(0) translate(4 440.2)">
<title>twoDegreesRelationshipsDiagram</title>
<polygon fill="#ffffff" stroke="transparent" points="-4,4 -4,-440.2 1050,-440.2 1050,4 -4,4"/>
<text text-anchor="middle" x="72.4936" y="-7.3" font-family="Helvetica,sans-Serif" font-size="11.00" fill="#000000">Generated by SchemaSpy</text>
<!-- companies -->
<g id="node1" class="node">
<title>companies</title>
<g id="a_node1"><a xlink:href="../../tables/companies.html" xlink:title="companies" target="_top">
<polygon fill="#ffffff" stroke="transparent" points="150,-184.2 150,-245.2 246,-245.2 246,-184.2 150,-184.2"/>
<polygon fill="#f5f5f5" stroke="transparent" points="150,-221.7 150,-244.7 246,-244.7 246,-221.7 150,-221.7"/>
<polygon fill="none" stroke="#000000" points="150,-221.7 150,-244.7 246,-244.7 246,-221.7 150,-221.7"/>
<text text-anchor="start" x="154.9114" y="-230.8" font-family="Helvetica,sans-Serif" font-weight="bold" font-size="11.00" fill="#000000">companies</text>
<text text-anchor="start" x="211.5219" y="-229.8" font-family="Helvetica,sans-Serif" font-size="11.00" fill="#000000">[table]</text>
<polygon fill="none" stroke="#000000" points="150,-202.7 150,-221.7 246,-221.7 246,-202.7 150,-202.7"/>
<text text-anchor="start" x="153" y="-208.8" font-family="Helvetica,sans-Serif" font-size="11.00" fill="#000000">...</text>
<polygon fill="#ffffff" stroke="transparent" points="150,-183.7 150,-202.7 179,-202.7 179,-183.7 150,-183.7"/>
<polygon fill="none" stroke="#000000" points="150,-183.7 150,-202.7 179,-202.7 179,-183.7 150,-183.7"/>
<text text-anchor="start" x="153" y="-189.8" font-family="Helvetica,sans-Serif" font-size="11.00" fill="#000000">&lt; 2</text>
<polygon fill="#ffffff" stroke="transparent" points="179,-183.7 179,-202.7 221,-202.7 221,-183.7 179,-183.7"/>
<polygon fill="none" stroke="#000000" points="179,-183.7 179,-202.7 221,-202.7 221,-183.7 179,-183.7"/>
<text text-anchor="start" x="185.6105" y="-189.8" font-family="Helvetica,sans-Serif" font-size="11.00" fill="#000000">0 rows</text>
<polygon fill="#ffffff" stroke="transparent" points="221,-183.7 221,-202.7 246,-202.7 246,-183.7 221,-183.7"/>
<polygon fill="none" stroke="#000000" points="221,-183.7 221,-202.7 246,-202.7 246,-183.7 221,-183.7"/>
<text text-anchor="start" x="227.4053" y="-189.8" font-family="Helvetica,sans-Serif" font-size="11.00" fill="#000000">4 &gt;</text>
</a>
</g>
</g>
<!-- users -->
<g id="node2" class="node">
<title>users</title>
<g id="a_node2"><a xlink:href="../../tables/users.html" xlink:title="users" target="_top">
<polygon fill="#ffffff" stroke="transparent" points="14.5,-371.2 14.5,-432.2 94.5,-432.2 94.5,-371.2 14.5,-371.2"/>
<polygon fill="#f5f5f5" stroke="transparent" points="14.5,-408.7 14.5,-431.7 94.5,-431.7 94.5,-408.7 14.5,-408.7"/>
<polygon fill="none" stroke="#000000" points="14.5,-408.7 14.5,-431.7 94.5,-431.7 94.5,-408.7 14.5,-408.7"/>
<text text-anchor="start" x="19.5" y="-417.8" font-family="Helvetica,sans-Serif" font-weight="bold" font-size="11.00" fill="#000000">users</text>
<text text-anchor="start" x="59.5437" y="-416.8" font-family="Helvetica,sans-Serif" font-size="11.00" fill="#000000">[table]</text>
<polygon fill="none" stroke="#000000" points="14.5,-389.7 14.5,-408.7 94.5,-408.7 94.5,-389.7 14.5,-389.7"/>
<text text-anchor="start" x="17.5" y="-395.8" font-family="Helvetica,sans-Serif" font-size="11.00" fill="#000000">...</text>
<polygon fill="#ffffff" stroke="transparent" points="14.5,-370.7 14.5,-389.7 35.5,-389.7 35.5,-370.7 14.5,-370.7"/>
<polygon fill="none" stroke="#000000" points="14.5,-370.7 14.5,-389.7 35.5,-389.7 35.5,-370.7 14.5,-370.7"/>
<text text-anchor="start" x="17.2026" y="-376.8" font-family="Helvetica,sans-Serif" font-size="11.00" fill="#000000">&lt; 1</text>
<polygon fill="#ffffff" stroke="transparent" points="35.5,-370.7 35.5,-389.7 73.5,-389.7 73.5,-370.7 35.5,-370.7"/>
<polygon fill="none" stroke="#000000" points="35.5,-370.7 35.5,-389.7 73.5,-389.7 73.5,-370.7 35.5,-370.7"/>
<text text-anchor="start" x="38.3053" y="-376.8" font-family="Helvetica,sans-Serif" font-size="11.00" fill="#000000">0 rows</text>
<polygon fill="#ffffff" stroke="transparent" points="73.5,-370.7 73.5,-389.7 94.5,-389.7 94.5,-370.7 73.5,-370.7"/>
<polygon fill="none" stroke="#000000" points="73.5,-370.7 73.5,-389.7 94.5,-389.7 94.5,-370.7 73.5,-370.7"/>
<text text-anchor="start" x="76.2027" y="-376.8" font-family="Helvetica,sans-Serif" font-size="11.00" fill="#000000">8 &gt;</text>
</a>
</g>
</g>
<!-- companies&#45;&gt;users -->
<g id="edge1" class="edge">
<title>companies:w&#45;&gt;users:e</title>
<path fill="none" stroke="#000000" d="M135.6769,-213.9304C77.6524,-235.0286 175.6066,-398.7 94.5,-398.7"/>
<polygon fill="#000000" stroke="#000000" points="142.0953,-212.931 150.5539,-215.2571 146.0476,-212.3155 150,-211.7 150,-211.7 150,-211.7 146.0476,-212.3155 149.4461,-208.1429 142.0953,-212.931 142.0953,-212.931"/>
<ellipse fill="none" stroke="#000000" cx="138.9334" cy="-213.4233" rx="3.2" ry="3.2"/>
</g>
<!-- addresses -->
<g id="node3" class="node">
<title>addresses</title>
<g id="a_node3"><a xlink:href="../../tables/addresses.html" xlink:title="addresses" target="_top">
<polygon fill="#ffffff" stroke="transparent" points="8,-129.2 8,-190.2 101,-190.2 101,-129.2 8,-129.2"/>
<polygon fill="#f5f5f5" stroke="transparent" points="8.5,-166.7 8.5,-189.7 101.5,-189.7 101.5,-166.7 8.5,-166.7"/>
<polygon fill="none" stroke="#000000" points="8.5,-166.7 8.5,-189.7 101.5,-189.7 101.5,-166.7 8.5,-166.7"/>
<text text-anchor="start" x="13.1318" y="-175.8" font-family="Helvetica,sans-Serif" font-weight="bold" font-size="11.00" fill="#000000">addresses</text>
<text text-anchor="start" x="67.0219" y="-174.8" font-family="Helvetica,sans-Serif" font-size="11.00" fill="#000000">[table]</text>
<polygon fill="none" stroke="#000000" points="8.5,-147.7 8.5,-166.7 101.5,-166.7 101.5,-147.7 8.5,-147.7"/>
<text text-anchor="start" x="11.5" y="-153.8" font-family="Helvetica,sans-Serif" font-size="11.00" fill="#000000">...</text>
<polygon fill="#ffffff" stroke="transparent" points="8.5,-128.7 8.5,-147.7 31.5,-147.7 31.5,-128.7 8.5,-128.7"/>
<polygon fill="none" stroke="#000000" points="8.5,-128.7 8.5,-147.7 31.5,-147.7 31.5,-128.7 8.5,-128.7"/>
<text text-anchor="start" x="11.5" y="-134.8" font-family="Helvetica,sans-Serif" font-size="11.00" fill="#000000"> &#160;</text>
<polygon fill="#ffffff" stroke="transparent" points="31.5,-128.7 31.5,-147.7 74.5,-147.7 74.5,-128.7 31.5,-128.7"/>
<polygon fill="none" stroke="#000000" points="31.5,-128.7 31.5,-147.7 74.5,-147.7 74.5,-128.7 31.5,-128.7"/>
<text text-anchor="start" x="39.1105" y="-134.8" font-family="Helvetica,sans-Serif" font-size="11.00" fill="#000000">0 rows</text>
<polygon fill="#ffffff" stroke="transparent" points="74.5,-128.7 74.5,-147.7 101.5,-147.7 101.5,-128.7 74.5,-128.7"/>
<polygon fill="none" stroke="#000000" points="74.5,-128.7 74.5,-147.7 101.5,-147.7 101.5,-128.7 74.5,-128.7"/>
<text text-anchor="start" x="82.9053" y="-134.8" font-family="Helvetica,sans-Serif" font-size="11.00" fill="#000000">3 &gt;</text>
</a>
</g>
</g>
<!-- companies&#45;&gt;addresses -->
<g id="edge2" class="edge">
<title>companies:w&#45;&gt;addresses:e</title>
<path fill="none" stroke="#000000" d="M136.2147,-206.6243C121.9325,-193.0086 127.9802,-156.7 101.5,-156.7"/>
<polygon fill="#000000" stroke="#000000" points="142.4927,-208.9358 148.7561,-215.0783 146.2464,-210.3179 150,-211.7 150,-211.7 150,-211.7 146.2464,-210.3179 151.2439,-208.3217 142.4927,-208.9358 142.4927,-208.9358"/>
<ellipse fill="none" stroke="#000000" cx="139.4898" cy="-207.8301" rx="3.2" ry="3.2"/>
</g>
<!-- company_doing_business_as -->
<g id="node4" class="node">
<title>company_doing_business_as</title>
<g id="a_node4"><a xlink:href="../../tables/company_doing_business_as.html" xlink:title="company_doing_business_as" target="_top">
<polygon fill="#ffffff" stroke="transparent" points="295,-126.2 295,-187.2 482,-187.2 482,-126.2 295,-126.2"/>
<polygon fill="#f5f5f5" stroke="transparent" points="295.5,-163.7 295.5,-186.7 482.5,-186.7 482.5,-163.7 295.5,-163.7"/>
<polygon fill="none" stroke="#000000" points="295.5,-163.7 295.5,-186.7 482.5,-186.7 482.5,-163.7 295.5,-163.7"/>
<text text-anchor="start" x="300.059" y="-172.8" font-family="Helvetica,sans-Serif" font-weight="bold" font-size="11.00" fill="#000000">company_doing_business_as</text>
<text text-anchor="start" x="448.0219" y="-171.8" font-family="Helvetica,sans-Serif" font-size="11.00" fill="#000000">[table]</text>
<polygon fill="none" stroke="#000000" points="295.5,-144.7 295.5,-163.7 482.5,-163.7 482.5,-144.7 295.5,-144.7"/>
<text text-anchor="start" x="298.5" y="-150.8" font-family="Helvetica,sans-Serif" font-size="11.00" fill="#000000">...</text>
<polygon fill="#ffffff" stroke="transparent" points="295.5,-125.7 295.5,-144.7 369.5,-144.7 369.5,-125.7 295.5,-125.7"/>
<polygon fill="none" stroke="#000000" points="295.5,-125.7 295.5,-144.7 369.5,-144.7 369.5,-125.7 295.5,-125.7"/>
<text text-anchor="start" x="298.5" y="-131.8" font-family="Helvetica,sans-Serif" font-size="11.00" fill="#000000">&lt; 1</text>
<polygon fill="#ffffff" stroke="transparent" points="369.5,-125.7 369.5,-144.7 434.5,-144.7 434.5,-125.7 369.5,-125.7"/>
<polygon fill="none" stroke="#000000" points="369.5,-125.7 369.5,-144.7 434.5,-144.7 434.5,-125.7 369.5,-125.7"/>
<text text-anchor="start" x="399.1105" y="-131.8" font-family="Helvetica,sans-Serif" font-size="11.00" fill="#000000">0 rows</text>
<polygon fill="#ffffff" stroke="transparent" points="434.5,-125.7 434.5,-144.7 482.5,-144.7 482.5,-125.7 434.5,-125.7"/>
<polygon fill="none" stroke="#000000" points="434.5,-125.7 434.5,-144.7 482.5,-144.7 482.5,-125.7 434.5,-125.7"/>
<text text-anchor="start" x="463.9053" y="-131.8" font-family="Helvetica,sans-Serif" font-size="11.00" fill="#000000">1 &gt;</text>
</a>
</g>
</g>
<!-- company_doing_business_as&#45;&gt;companies -->
<g id="edge3" class="edge">
<title>company_doing_business_as:w&#45;&gt;companies:e</title>
<path fill="none" stroke="#000000" d="M281.6793,-158.645C266.4951,-172.6711 273.7999,-211.7 246,-211.7"/>
<polygon fill="#000000" stroke="#000000" points="287.9676,-156.3951 296.7128,-157.0896 291.7338,-155.0476 295.5,-153.7 295.5,-153.7 295.5,-153.7 291.7338,-155.0476 294.2872,-150.3104 287.9676,-156.3951 287.9676,-156.3951"/>
<ellipse fill="none" stroke="#000000" cx="284.9547" cy="-157.4732" rx="3.2" ry="3.2"/>
</g>
<!-- patients -->
<g id="node5" class="node">
<title>patients</title>
<g id="a_node5"><a xlink:href="../../tables/patients.html" xlink:title="patients" target="_top">
<polygon fill="#ffffff" stroke="transparent" points="873,-351.2 873,-412.2 954,-412.2 954,-351.2 873,-351.2"/>
<polygon fill="#f5f5f5" stroke="transparent" points="873.5,-388.7 873.5,-411.7 954.5,-411.7 954.5,-388.7 873.5,-388.7"/>
<polygon fill="none" stroke="#000000" points="873.5,-388.7 873.5,-411.7 954.5,-411.7 954.5,-388.7 873.5,-388.7"/>
<text text-anchor="start" x="878.2429" y="-397.8" font-family="Helvetica,sans-Serif" font-weight="bold" font-size="11.00" fill="#000000">patients</text>
<text text-anchor="start" x="920.0219" y="-396.8" font-family="Helvetica,sans-Serif" font-size="11.00" fill="#000000">[table]</text>
<polygon fill="none" stroke="#000000" points="873.5,-369.7 873.5,-388.7 954.5,-388.7 954.5,-369.7 873.5,-369.7"/>
<text text-anchor="start" x="876.5" y="-375.8" font-family="Helvetica,sans-Serif" font-size="11.00" fill="#000000">...</text>
<polygon fill="#ffffff" stroke="transparent" points="873.5,-350.7 873.5,-369.7 894.5,-369.7 894.5,-350.7 873.5,-350.7"/>
<polygon fill="none" stroke="#000000" points="873.5,-350.7 873.5,-369.7 894.5,-369.7 894.5,-350.7 873.5,-350.7"/>
<text text-anchor="start" x="876.2027" y="-356.8" font-family="Helvetica,sans-Serif" font-size="11.00" fill="#000000">&lt; 9</text>
<polygon fill="#ffffff" stroke="transparent" points="894.5,-350.7 894.5,-369.7 932.5,-369.7 932.5,-350.7 894.5,-350.7"/>
<polygon fill="none" stroke="#000000" points="894.5,-350.7 894.5,-369.7 932.5,-369.7 932.5,-350.7 894.5,-350.7"/>
<text text-anchor="start" x="897.3053" y="-356.8" font-family="Helvetica,sans-Serif" font-size="11.00" fill="#000000">0 rows</text>
<polygon fill="#ffffff" stroke="transparent" points="932.5,-350.7 932.5,-369.7 954.5,-369.7 954.5,-350.7 932.5,-350.7"/>
<polygon fill="none" stroke="#000000" points="932.5,-350.7 932.5,-369.7 954.5,-369.7 954.5,-350.7 932.5,-350.7"/>
<text text-anchor="start" x="935.9053" y="-356.8" font-family="Helvetica,sans-Serif" font-size="11.00" fill="#000000">2 &gt;</text>
</a>
</g>
</g>
<!-- patients&#45;&gt;companies -->
<g id="edge5" class="edge">
<title>patients:w&#45;&gt;companies:e</title>
<path fill="none" stroke="#000000" d="M858.9291,-378.4193C756.9227,-375.2654 335.8408,-345.8727 287,-307.7 250.4454,-279.1298 292.395,-211.7 246,-211.7"/>
<polygon fill="#000000" stroke="#000000" points="865.5015,-378.5459 873.4306,-382.2993 869.5007,-378.6229 873.5,-378.7 873.5,-378.7 873.5,-378.7 869.5007,-378.6229 873.5694,-375.1007 865.5015,-378.5459 865.5015,-378.5459"/>
<ellipse fill="none" stroke="#000000" cx="862.3021" cy="-378.4842" rx="3.2" ry="3.2"/>
</g>
<!-- patients&#45;&gt;users -->
<g id="edge4" class="edge">
<title>patients:w&#45;&gt;users:e</title>
<path fill="none" stroke="#000000" d="M858.9424,-378.7119C524.6667,-379.2624 435.9321,-398.7 94.5,-398.7"/>
<polygon fill="#000000" stroke="#000000" points="865.5,-378.7066 873.503,-382.3 869.5,-378.7033 873.5,-378.7 873.5,-378.7 873.5,-378.7 869.5,-378.7033 873.497,-375.1 865.5,-378.7066 865.5,-378.7066"/>
<ellipse fill="none" stroke="#000000" cx="862.3" cy="-378.7092" rx="3.2" ry="3.2"/>
</g>
<!-- patients&#45;&gt;users -->
<g id="edge6" class="edge">
<title>patients:w&#45;&gt;users:e</title>
<path fill="none" stroke="#000000" d="M858.9424,-378.4606C524.6667,-373.2636 435.9321,-392.785 94.5,-398.7"/>
<polygon fill="#000000" stroke="#000000" points="865.5011,-378.5684 873.4408,-382.2995 869.5005,-378.6342 873.5,-378.7 873.5,-378.7 873.5,-378.7 869.5005,-378.6342 873.5592,-375.1005 865.5011,-378.5684 865.5011,-378.5684"/>
<ellipse fill="none" stroke="#000000" cx="862.3015" cy="-378.5158" rx="3.2" ry="3.2"/>
</g>
<!-- patients&#45;&gt;users -->
<g id="edge9" class="edge">
<title>patients:w&#45;&gt;users:e</title>
<path fill="none" stroke="#000000" d="M858.9424,-379.0051C524.6667,-386.261 435.9321,-405.6009 94.5,-398.7"/>
<polygon fill="#000000" stroke="#000000" points="865.5018,-378.8677 873.5754,-382.2992 869.5009,-378.7838 873.5,-378.7 873.5,-378.7 873.5,-378.7 869.5009,-378.7838 873.4246,-375.1008 865.5018,-378.8677 865.5018,-378.8677"/>
<ellipse fill="none" stroke="#000000" cx="862.3025" cy="-378.9347" rx="3.2" ry="3.2"/>
</g>
<!-- professionals -->
<g id="node6" class="node">
<title>professionals</title>
<g id="a_node6"><a xlink:href="../../tables/professionals.html" xlink:title="professionals" target="_top">
<polygon fill="#ffffff" stroke="transparent" points="547.5,-208.2 547.5,-335.2 723.5,-335.2 723.5,-208.2 547.5,-208.2"/>
<polygon fill="#f5f5f5" stroke="transparent" points="547.5,-311.7 547.5,-334.7 723.5,-334.7 723.5,-311.7 547.5,-311.7"/>
<polygon fill="none" stroke="#000000" points="547.5,-311.7 547.5,-334.7 723.5,-334.7 723.5,-311.7 547.5,-311.7"/>
<text text-anchor="start" x="552.5" y="-320.8" font-family="Helvetica,sans-Serif" font-weight="bold" font-size="11.00" fill="#000000">professionals</text>
<text text-anchor="start" x="688.5437" y="-319.8" font-family="Helvetica,sans-Serif" font-size="11.00" fill="#000000">[table]</text>
<polygon fill="none" stroke="#000000" points="547.5,-289.7 547.5,-311.7 723.5,-311.7 723.5,-289.7 547.5,-289.7"/>
<image xlink:href="../../images/primaryKeys.png" width="11px" height="12px" preserveAspectRatio="xMinYMin meet" x="552.5" y="-306.7"/>
<text text-anchor="start" x="567.5" y="-296.8" font-family="Helvetica,sans-Serif" font-size="11.00" fill="#000000">id</text>
<polygon fill="#ffffff" stroke="transparent" points="547.5,-267.7 547.5,-289.7 723.5,-289.7 723.5,-267.7 547.5,-267.7"/>
<polygon fill="none" stroke="#000000" points="547.5,-267.7 547.5,-289.7 723.5,-289.7 723.5,-267.7 547.5,-267.7"/>
<image xlink:href="../../images/foreignKeys.png" width="11px" height="12px" preserveAspectRatio="xMinYMin meet" x="552.5" y="-284.7"/>
<text text-anchor="start" x="567.5" y="-274.8" font-family="Helvetica,sans-Serif" font-size="11.00" fill="#000000">user_id</text>
<polygon fill="none" stroke="#000000" points="547.5,-245.7 547.5,-267.7 723.5,-267.7 723.5,-245.7 547.5,-245.7"/>
<image xlink:href="../../images/foreignKeys.png" width="11px" height="12px" preserveAspectRatio="xMinYMin meet" x="552.5" y="-262.7"/>
<text text-anchor="start" x="567.5" y="-252.8" font-family="Helvetica,sans-Serif" font-size="11.00" fill="#000000">license_id</text>
<polygon fill="none" stroke="#000000" points="547.5,-226.7 547.5,-245.7 723.5,-245.7 723.5,-226.7 547.5,-226.7"/>
<text text-anchor="start" x="550.5" y="-232.8" font-family="Helvetica,sans-Serif" font-size="11.00" fill="#000000">...</text>
<polygon fill="#ffffff" stroke="transparent" points="547.5,-207.7 547.5,-226.7 616.5,-226.7 616.5,-207.7 547.5,-207.7"/>
<polygon fill="none" stroke="#000000" points="547.5,-207.7 547.5,-226.7 616.5,-226.7 616.5,-207.7 547.5,-207.7"/>
<text text-anchor="start" x="550.5" y="-213.8" font-family="Helvetica,sans-Serif" font-size="11.00" fill="#000000">&lt; 2</text>
<polygon fill="#ffffff" stroke="transparent" points="616.5,-207.7 616.5,-226.7 678.5,-226.7 678.5,-207.7 616.5,-207.7"/>
<polygon fill="none" stroke="#000000" points="616.5,-207.7 616.5,-226.7 678.5,-226.7 678.5,-207.7 616.5,-207.7"/>
<text text-anchor="start" x="643.1105" y="-213.8" font-family="Helvetica,sans-Serif" font-size="11.00" fill="#000000">0 rows</text>
<polygon fill="#ffffff" stroke="transparent" points="678.5,-207.7 678.5,-226.7 723.5,-226.7 723.5,-207.7 678.5,-207.7"/>
<polygon fill="none" stroke="#000000" points="678.5,-207.7 678.5,-226.7 723.5,-226.7 723.5,-207.7 678.5,-207.7"/>
<text text-anchor="start" x="704.9053" y="-213.8" font-family="Helvetica,sans-Serif" font-size="11.00" fill="#000000">2 &gt;</text>
</a>
</g>
</g>
<!-- patients&#45;&gt;professionals -->
<g id="edge7" class="edge">
<title>patients:w&#45;&gt;professionals:e</title>
<path fill="none" stroke="#000000" d="M859.0993,-377.6564C798.0448,-368.4004 793.5047,-300.7 723.5,-300.7"/>
<polygon fill="#000000" stroke="#000000" points="865.5209,-378.1217 873.2398,-382.2906 869.5105,-378.4108 873.5,-378.7 873.5,-378.7 873.5,-378.7 869.5105,-378.4108 873.7602,-375.1094 865.5209,-378.1217 865.5209,-378.1217"/>
<ellipse fill="none" stroke="#000000" cx="862.3293" cy="-377.8904" rx="3.2" ry="3.2"/>
</g>
<!-- provider_locations -->
<g id="node7" class="node">
<title>provider_locations</title>
<g id="a_node7"><a xlink:href="../../tables/provider_locations.html" xlink:title="provider_locations" target="_top">
<polygon fill="#ffffff" stroke="transparent" points="531,-38.2 531,-187.2 740,-187.2 740,-38.2 531,-38.2"/>
<polygon fill="#f5f5f5" stroke="transparent" points="531.5,-163.7 531.5,-186.7 740.5,-186.7 740.5,-163.7 531.5,-163.7"/>
<polygon fill="none" stroke="#000000" points="531.5,-163.7 531.5,-186.7 740.5,-186.7 740.5,-163.7 531.5,-163.7"/>
<text text-anchor="start" x="536.5" y="-172.8" font-family="Helvetica,sans-Serif" font-weight="bold" font-size="11.00" fill="#000000">provider_locations</text>
<text text-anchor="start" x="705.5437" y="-171.8" font-family="Helvetica,sans-Serif" font-size="11.00" fill="#000000">[table]</text>
<polygon fill="none" stroke="#000000" points="531.5,-141.7 531.5,-163.7 740.5,-163.7 740.5,-141.7 531.5,-141.7"/>
<image xlink:href="../../images/primaryKeys.png" width="11px" height="12px" preserveAspectRatio="xMinYMin meet" x="536.5" y="-158.7"/>
<text text-anchor="start" x="551.5" y="-148.8" font-family="Helvetica,sans-Serif" font-size="11.00" fill="#000000">id</text>
<polygon fill="none" stroke="#000000" points="531.5,-119.7 531.5,-141.7 740.5,-141.7 740.5,-119.7 531.5,-119.7"/>
<image xlink:href="../../images/foreignKeys.png" width="11px" height="12px" preserveAspectRatio="xMinYMin meet" x="536.5" y="-136.7"/>
<text text-anchor="start" x="551.5" y="-126.8" font-family="Helvetica,sans-Serif" font-size="11.00" fill="#000000">company_id</text>
<polygon fill="none" stroke="#000000" points="531.5,-97.7 531.5,-119.7 740.5,-119.7 740.5,-97.7 531.5,-97.7"/>
<image xlink:href="../../images/foreignKeys.png" width="11px" height="12px" preserveAspectRatio="xMinYMin meet" x="536.5" y="-114.7"/>
<text text-anchor="start" x="551.5" y="-104.8" font-family="Helvetica,sans-Serif" font-size="11.00" fill="#000000">address_id</text>
<polygon fill="none" stroke="#000000" points="531.5,-75.7 531.5,-97.7 740.5,-97.7 740.5,-75.7 531.5,-75.7"/>
<image xlink:href="../../images/foreignKeys.png" width="11px" height="12px" preserveAspectRatio="xMinYMin meet" x="536.5" y="-92.7"/>
<text text-anchor="start" x="551.5" y="-82.8" font-family="Helvetica,sans-Serif" font-size="11.00" fill="#000000">company_doing_business_as_id</text>
<polygon fill="none" stroke="#000000" points="531.5,-56.7 531.5,-75.7 740.5,-75.7 740.5,-56.7 531.5,-56.7"/>
<text text-anchor="start" x="534.5" y="-62.8" font-family="Helvetica,sans-Serif" font-size="11.00" fill="#000000">...</text>
<polygon fill="#ffffff" stroke="transparent" points="531.5,-37.7 531.5,-56.7 616.5,-56.7 616.5,-37.7 531.5,-37.7"/>
<polygon fill="none" stroke="#000000" points="531.5,-37.7 531.5,-56.7 616.5,-56.7 616.5,-37.7 531.5,-37.7"/>
<text text-anchor="start" x="534.5" y="-43.8" font-family="Helvetica,sans-Serif" font-size="11.00" fill="#000000">&lt; 3</text>
<polygon fill="#ffffff" stroke="transparent" points="616.5,-37.7 616.5,-56.7 686.5,-56.7 686.5,-37.7 616.5,-37.7"/>
<polygon fill="none" stroke="#000000" points="616.5,-37.7 616.5,-56.7 686.5,-56.7 686.5,-37.7 616.5,-37.7"/>
<text text-anchor="start" x="651.1105" y="-43.8" font-family="Helvetica,sans-Serif" font-size="11.00" fill="#000000">0 rows</text>
<polygon fill="#ffffff" stroke="transparent" points="686.5,-37.7 686.5,-56.7 740.5,-56.7 740.5,-37.7 686.5,-37.7"/>
<polygon fill="none" stroke="#000000" points="686.5,-37.7 686.5,-56.7 740.5,-56.7 740.5,-37.7 686.5,-37.7"/>
<text text-anchor="start" x="721.9053" y="-43.8" font-family="Helvetica,sans-Serif" font-size="11.00" fill="#000000">2 &gt;</text>
</a>
</g>
</g>
<!-- patients&#45;&gt;provider_locations -->
<g id="edge8" class="edge">
<title>patients:w&#45;&gt;provider_locations:e</title>
<path fill="none" stroke="#000000" d="M859.094,-377.7236C815.4217,-371.3618 807.8438,-334.691 781,-290.7 747.7047,-236.1363 804.4201,-152.7 740.5,-152.7"/>
<polygon fill="#000000" stroke="#000000" points="865.5183,-378.159 873.2565,-382.2918 869.5092,-378.4295 873.5,-378.7 873.5,-378.7 873.5,-378.7 869.5092,-378.4295 873.7435,-375.1082 865.5183,-378.159 865.5183,-378.159"/>
<ellipse fill="none" stroke="#000000" cx="862.3256" cy="-377.9426" rx="3.2" ry="3.2"/>
</g>
<!-- professionals&#45;&gt;users -->
<g id="edge13" class="edge">
<title>professionals:w&#45;&gt;users:e</title>
<path fill="none" stroke="#000000" d="M537.1308,-279.7271C517.9102,-283.8892 513.364,-299.6599 490,-307.7 340.9035,-359.0074 291.932,-327.8879 142,-376.7 119.8774,-383.9023 117.7655,-398.7 94.5,-398.7"/>
<polygon fill="#000000" stroke="#000000" points="546.3096,-274.7983 547.0982,-282.7594 545.506,-282.9171 544.7174,-274.9561 546.3096,-274.7983"/>
<polyline fill="none" stroke="#000000" points="547.5,-278.7 543.5195,-279.0943 "/>
<ellipse fill="none" stroke="#000000" cx="540.3351" cy="-279.4098" rx="3.2" ry="3.2"/>
</g>
<!-- licenses -->
<g id="node9" class="node">
<title>licenses</title>
<g id="a_node9"><a xlink:href="../../tables/licenses.html" xlink:title="licenses" target="_top">
<polygon fill="#ffffff" stroke="transparent" points="347.5,-236.2 347.5,-297.2 429.5,-297.2 429.5,-236.2 347.5,-236.2"/>
<polygon fill="#f5f5f5" stroke="transparent" points="347.5,-273.7 347.5,-296.7 429.5,-296.7 429.5,-273.7 347.5,-273.7"/>
<polygon fill="none" stroke="#000000" points="347.5,-273.7 347.5,-296.7 429.5,-296.7 429.5,-273.7 347.5,-273.7"/>
<text text-anchor="start" x="352.1368" y="-282.8" font-family="Helvetica,sans-Serif" font-weight="bold" font-size="11.00" fill="#000000">licenses</text>
<text text-anchor="start" x="395.0219" y="-281.8" font-family="Helvetica,sans-Serif" font-size="11.00" fill="#000000">[table]</text>
<polygon fill="none" stroke="#000000" points="347.5,-254.7 347.5,-273.7 429.5,-273.7 429.5,-254.7 347.5,-254.7"/>
<text text-anchor="start" x="350.5" y="-260.8" font-family="Helvetica,sans-Serif" font-size="11.00" fill="#000000">...</text>
<polygon fill="#ffffff" stroke="transparent" points="347.5,-235.7 347.5,-254.7 364.5,-254.7 364.5,-235.7 347.5,-235.7"/>
<polygon fill="none" stroke="#000000" points="347.5,-235.7 347.5,-254.7 364.5,-254.7 364.5,-235.7 347.5,-235.7"/>
<text text-anchor="start" x="350.5" y="-241.8" font-family="Helvetica,sans-Serif" font-size="11.00" fill="#000000"> &#160;</text>
<polygon fill="#ffffff" stroke="transparent" points="364.5,-235.7 364.5,-254.7 405.5,-254.7 405.5,-235.7 364.5,-235.7"/>
<polygon fill="none" stroke="#000000" points="364.5,-235.7 364.5,-254.7 405.5,-254.7 405.5,-235.7 364.5,-235.7"/>
<text text-anchor="start" x="370.1105" y="-241.8" font-family="Helvetica,sans-Serif" font-size="11.00" fill="#000000">0 rows</text>
<polygon fill="#ffffff" stroke="transparent" points="405.5,-235.7 405.5,-254.7 429.5,-254.7 429.5,-235.7 405.5,-235.7"/>
<polygon fill="none" stroke="#000000" points="405.5,-235.7 405.5,-254.7 429.5,-254.7 429.5,-235.7 405.5,-235.7"/>
<text text-anchor="start" x="410.9053" y="-241.8" font-family="Helvetica,sans-Serif" font-size="11.00" fill="#000000">1 &gt;</text>
</a>
</g>
</g>
<!-- professionals&#45;&gt;licenses -->
<g id="edge12" class="edge">
<title>professionals:w&#45;&gt;licenses:e</title>
<path fill="none" stroke="#000000" d="M532.9013,-256.8945C491.9951,-258.0251 476.8035,-263.7 429.5,-263.7"/>
<polygon fill="#000000" stroke="#000000" points="539.5007,-256.8066 547.548,-260.2997 543.5004,-256.7533 547.5,-256.7 547.5,-256.7 547.5,-256.7 543.5004,-256.7533 547.452,-253.1003 539.5007,-256.8066 539.5007,-256.8066"/>
<ellipse fill="none" stroke="#000000" cx="536.301" cy="-256.8493" rx="3.2" ry="3.2"/>
</g>
<!-- provider_locations&#45;&gt;companies -->
<g id="edge16" class="edge">
<title>provider_locations:w&#45;&gt;companies:e</title>
<path fill="none" stroke="#000000" d="M517.6476,-134.9892C503.2294,-147.3345 514.6924,-183.0068 490,-197.7 443.3268,-225.473 300.3114,-211.7 246,-211.7"/>
<polygon fill="#000000" stroke="#000000" points="523.8579,-133.0663 532.5648,-134.1389 527.679,-131.8831 531.5,-130.7 531.5,-130.7 531.5,-130.7 527.679,-131.8831 530.4352,-127.2611 523.8579,-133.0663 523.8579,-133.0663"/>
<ellipse fill="none" stroke="#000000" cx="520.8011" cy="-134.0128" rx="3.2" ry="3.2"/>
</g>
<!-- provider_locations&#45;&gt;addresses -->
<g id="edge14" class="edge">
<title>provider_locations:w&#45;&gt;addresses:e</title>
<path fill="none" stroke="#000000" d="M517.0262,-108.6624C420.0592,-108.159 389.937,-102.9667 287,-115.7 203.2045,-126.0655 185.9342,-156.7 101.5,-156.7"/>
<polygon fill="#000000" stroke="#000000" points="523.5,-108.6792 531.4906,-112.3 527.5,-108.6896 531.5,-108.7 531.5,-108.7 531.5,-108.7 527.5,-108.6896 531.5094,-105.1 523.5,-108.6792 523.5,-108.6792"/>
<ellipse fill="none" stroke="#000000" cx="520.3" cy="-108.6708" rx="3.2" ry="3.2"/>
</g>
<!-- provider_locations&#45;&gt;company_doing_business_as -->
<g id="edge15" class="edge">
<title>provider_locations:w&#45;&gt;company_doing_business_as:e</title>
<path fill="none" stroke="#000000" d="M517.7779,-91.5185C501.0803,-106.881 513.339,-153.7 482.5,-153.7"/>
<polygon fill="#000000" stroke="#000000" points="523.9518,-89.3506 532.6928,-90.0967 527.7259,-88.0253 531.5,-86.7 531.5,-86.7 531.5,-86.7 527.7259,-88.0253 530.3072,-83.3033 523.9518,-89.3506 523.9518,-89.3506"/>
<ellipse fill="none" stroke="#000000" cx="520.9326" cy="-90.4108" rx="3.2" ry="3.2"/>
</g>
<!-- professional_locations -->
<g id="node8" class="node">
<title>professional_locations</title>
<g id="a_node8"><a xlink:href="../../tables/professional_locations.html" xlink:title="professional_locations" target="_top">
<polygon fill="#ffffff" stroke="transparent" points="789,-189.7 789,-279.7 1038,-279.7 1038,-189.7 789,-189.7"/>
<polygon fill="#f5f5f5" stroke="transparent" points="791.5,-254.7 791.5,-277.7 1036.5,-277.7 1036.5,-254.7 791.5,-254.7"/>
<polygon fill="none" stroke="#000000" points="791.5,-254.7 791.5,-277.7 1036.5,-277.7 1036.5,-254.7 791.5,-254.7"/>
<text text-anchor="start" x="796.5" y="-263.8" font-family="Helvetica,sans-Serif" font-weight="bold" font-size="11.00" fill="#000000">professional_locations</text>
<text text-anchor="start" x="1001.5437" y="-262.8" font-family="Helvetica,sans-Serif" font-size="11.00" fill="#000000">[table]</text>
<polygon fill="none" stroke="#000000" points="791.5,-232.7 791.5,-254.7 942.5,-254.7 942.5,-232.7 791.5,-232.7"/>
<image xlink:href="../../images/primaryKeys.png" width="11px" height="12px" preserveAspectRatio="xMinYMin meet" x="796.5" y="-249.7"/>
<text text-anchor="start" x="811.5" y="-239.8" font-family="Helvetica,sans-Serif" font-size="11.00" fill="#000000">professional_id</text>
<polygon fill="none" stroke="#000000" points="942.5,-232.7 942.5,-254.7 1036.5,-254.7 1036.5,-232.7 942.5,-232.7"/>
<text text-anchor="start" x="945.4758" y="-240.4" font-family="Helvetica,sans-Serif" font-size="11.00" fill="#000000">uuid[2147483647]</text>
<polygon fill="none" stroke="#000000" points="791.5,-210.7 791.5,-232.7 942.5,-232.7 942.5,-210.7 791.5,-210.7"/>
<image xlink:href="../../images/primaryKeys.png" width="11px" height="12px" preserveAspectRatio="xMinYMin meet" x="796.5" y="-227.7"/>
<text text-anchor="start" x="811.5" y="-217.8" font-family="Helvetica,sans-Serif" font-size="11.00" fill="#000000">provider_location_id</text>
<polygon fill="none" stroke="#000000" points="942.5,-210.7 942.5,-232.7 1036.5,-232.7 1036.5,-210.7 942.5,-210.7"/>
<text text-anchor="start" x="945.4758" y="-218.4" font-family="Helvetica,sans-Serif" font-size="11.00" fill="#000000">uuid[2147483647]</text>
<polygon fill="#ffffff" stroke="transparent" points="791.5,-191.7 791.5,-210.7 858.5,-210.7 858.5,-191.7 791.5,-191.7"/>
<polygon fill="none" stroke="#000000" points="791.5,-191.7 791.5,-210.7 858.5,-210.7 858.5,-191.7 791.5,-191.7"/>
<text text-anchor="start" x="794.5" y="-197.8" font-family="Helvetica,sans-Serif" font-size="11.00" fill="#000000">&lt; 2</text>
<polygon fill="#ffffff" stroke="transparent" points="858.5,-191.7 858.5,-210.7 942.5,-210.7 942.5,-191.7 858.5,-191.7"/>
<polygon fill="none" stroke="#000000" points="858.5,-191.7 858.5,-210.7 942.5,-210.7 942.5,-191.7 858.5,-191.7"/>
<text text-anchor="start" x="907.1105" y="-197.8" font-family="Helvetica,sans-Serif" font-size="11.00" fill="#000000">0 rows</text>
<polygon fill="#ffffff" stroke="transparent" points="942.5,-191.7 942.5,-210.7 1036.5,-210.7 1036.5,-191.7 942.5,-191.7"/>
<polygon fill="none" stroke="#000000" points="942.5,-191.7 942.5,-210.7 1036.5,-210.7 1036.5,-191.7 942.5,-191.7"/>
<text text-anchor="start" x="1017.9053" y="-197.8" font-family="Helvetica,sans-Serif" font-size="11.00" fill="#000000">0 &gt;</text>
<polygon fill="none" stroke="#000000" stroke-width="2" points="790,-190.7 790,-278.7 1037,-278.7 1037,-190.7 790,-190.7"/>
</a>
</g>
</g>
<!-- professional_locations&#45;&gt;professionals -->
<g id="edge10" class="edge">
<title>professional_locations:w&#45;&gt;professionals:e</title>
<path fill="none" stroke="#000000" d="M777.2498,-246.9279C754.156,-258.9859 757.2359,-300.7 723.5,-300.7"/>
<polygon fill="#000000" stroke="#000000" points="783.6977,-245.4674 792.2953,-247.2111 787.5988,-244.5837 791.5,-243.7 791.5,-243.7 791.5,-243.7 787.5988,-244.5837 790.7047,-240.1889 783.6977,-245.4674 783.6977,-245.4674"/>
<ellipse fill="none" stroke="#000000" cx="780.5767" cy="-246.1744" rx="3.2" ry="3.2"/>
</g>
<!-- professional_locations&#45;&gt;provider_locations -->
<g id="edge11" class="edge">
<title>professional_locations:w&#45;&gt;provider_locations:e</title>
<path fill="none" stroke="#000000" d="M777.7846,-217.1727C759.7142,-201.8221 772.6758,-152.7 740.5,-152.7"/>
<polygon fill="#000000" stroke="#000000" points="783.9032,-219.1923 790.3716,-225.1186 787.7016,-220.4462 791.5,-221.7 791.5,-221.7 791.5,-221.7 787.7016,-220.4462 792.6284,-218.2814 783.9032,-219.1923 783.9032,-219.1923"/>
<ellipse fill="none" stroke="#000000" cx="780.8644" cy="-218.1893" rx="3.2" ry="3.2"/>
</g>
</g>
</svg>
