<?xml version="1.0" encoding="UTF-8" standalone="no"?>
<!DOCTYPE svg PUBLIC "-//W3C//DTD SVG 1.1//EN"
 "http://www.w3.org/Graphics/SVG/1.1/DTD/svg11.dtd">
<!-- Generated by graphviz version 2.40.1 (20161225.0304)
 -->
<!-- Title: twoDegreesRelationshipsDiagram Pages: 1 -->
<svg width="1649pt" height="656pt"
 viewBox="0.00 0.00 1649.00 655.74" xmlns="http://www.w3.org/2000/svg" xmlns:xlink="http://www.w3.org/1999/xlink">
<g id="graph0" class="graph" transform="scale(1 1) rotate(0) translate(4 651.7429)">
<title>twoDegreesRelationshipsDiagram</title>
<polygon fill="#ffffff" stroke="transparent" points="-4,4 -4,-651.7429 1645,-651.7429 1645,4 -4,4"/>
<text text-anchor="middle" x="72.4936" y="-7.3" font-family="Helvetica,sans-Serif" font-size="11.00" fill="#000000">Generated by SchemaSpy</text>
<!-- companies -->
<g id="node1" class="node">
<title>companies</title>
<g id="a_node1"><a xlink:href="../../tables/companies.html" xlink:title="companies" target="_top">
<polygon fill="#ffffff" stroke="transparent" points="408,-265.2429 408,-392.2429 585,-392.2429 585,-265.2429 408,-265.2429"/>
<polygon fill="#f5f5f5" stroke="transparent" points="408.5,-368.7429 408.5,-391.7429 585.5,-391.7429 585.5,-368.7429 408.5,-368.7429"/>
<polygon fill="none" stroke="#000000" points="408.5,-368.7429 408.5,-391.7429 585.5,-391.7429 585.5,-368.7429 408.5,-368.7429"/>
<text text-anchor="start" x="413.5" y="-377.8429" font-family="Helvetica,sans-Serif" font-weight="bold" font-size="11.00" fill="#000000">companies</text>
<text text-anchor="start" x="550.5437" y="-376.8429" font-family="Helvetica,sans-Serif" font-size="11.00" fill="#000000">[table]</text>
<polygon fill="none" stroke="#000000" points="408.5,-346.7429 408.5,-368.7429 585.5,-368.7429 585.5,-346.7429 408.5,-346.7429"/>
<image xlink:href="../../images/primaryKeys.png" width="11px" height="12px" preserveAspectRatio="xMinYMin meet" x="413.5" y="-363.743"/>
<text text-anchor="start" x="428.5" y="-353.8429" font-family="Helvetica,sans-Serif" font-size="11.00" fill="#000000">id</text>
<polygon fill="none" stroke="#000000" points="408.5,-324.7429 408.5,-346.7429 585.5,-346.7429 585.5,-324.7429 408.5,-324.7429"/>
<image xlink:href="../../images/foreignKeys.png" width="11px" height="12px" preserveAspectRatio="xMinYMin meet" x="413.5" y="-341.743"/>
<text text-anchor="start" x="428.5" y="-331.8429" font-family="Helvetica,sans-Serif" font-size="11.00" fill="#000000">physical_address_id</text>
<polygon fill="none" stroke="#000000" points="408.5,-302.7429 408.5,-324.7429 585.5,-324.7429 585.5,-302.7429 408.5,-302.7429"/>
<image xlink:href="../../images/foreignKeys.png" width="11px" height="12px" preserveAspectRatio="xMinYMin meet" x="413.5" y="-319.743"/>
<text text-anchor="start" x="428.5" y="-309.8429" font-family="Helvetica,sans-Serif" font-size="11.00" fill="#000000">created_by_user_id</text>
<polygon fill="none" stroke="#000000" points="408.5,-283.7429 408.5,-302.7429 585.5,-302.7429 585.5,-283.7429 408.5,-283.7429"/>
<text text-anchor="start" x="411.5" y="-289.8429" font-family="Helvetica,sans-Serif" font-size="11.00" fill="#000000">...</text>
<polygon fill="#ffffff" stroke="transparent" points="408.5,-264.7429 408.5,-283.7429 477.5,-283.7429 477.5,-264.7429 408.5,-264.7429"/>
<polygon fill="none" stroke="#000000" points="408.5,-264.7429 408.5,-283.7429 477.5,-283.7429 477.5,-264.7429 408.5,-264.7429"/>
<text text-anchor="start" x="411.5" y="-270.8429" font-family="Helvetica,sans-Serif" font-size="11.00" fill="#000000">&lt; 2</text>
<polygon fill="#ffffff" stroke="transparent" points="477.5,-264.7429 477.5,-283.7429 539.5,-283.7429 539.5,-264.7429 477.5,-264.7429"/>
<polygon fill="none" stroke="#000000" points="477.5,-264.7429 477.5,-283.7429 539.5,-283.7429 539.5,-264.7429 477.5,-264.7429"/>
<text text-anchor="start" x="504.1105" y="-270.8429" font-family="Helvetica,sans-Serif" font-size="11.00" fill="#000000">0 rows</text>
<polygon fill="#ffffff" stroke="transparent" points="539.5,-264.7429 539.5,-283.7429 585.5,-283.7429 585.5,-264.7429 539.5,-264.7429"/>
<polygon fill="none" stroke="#000000" points="539.5,-264.7429 539.5,-283.7429 585.5,-283.7429 585.5,-264.7429 539.5,-264.7429"/>
<text text-anchor="start" x="566.9053" y="-270.8429" font-family="Helvetica,sans-Serif" font-size="11.00" fill="#000000">4 &gt;</text>
</a>
</g>
</g>
<!-- users -->
<g id="node2" class="node">
<title>users</title>
<g id="a_node2"><a xlink:href="../../tables/users.html" xlink:title="users" target="_top">
<polygon fill="#ffffff" stroke="transparent" points="279,-173.2429 279,-234.2429 359,-234.2429 359,-173.2429 279,-173.2429"/>
<polygon fill="#f5f5f5" stroke="transparent" points="279,-210.7429 279,-233.7429 359,-233.7429 359,-210.7429 279,-210.7429"/>
<polygon fill="none" stroke="#000000" points="279,-210.7429 279,-233.7429 359,-233.7429 359,-210.7429 279,-210.7429"/>
<text text-anchor="start" x="284" y="-219.8429" font-family="Helvetica,sans-Serif" font-weight="bold" font-size="11.00" fill="#000000">users</text>
<text text-anchor="start" x="324.0437" y="-218.8429" font-family="Helvetica,sans-Serif" font-size="11.00" fill="#000000">[table]</text>
<polygon fill="none" stroke="#000000" points="279,-191.7429 279,-210.7429 359,-210.7429 359,-191.7429 279,-191.7429"/>
<text text-anchor="start" x="282" y="-197.8429" font-family="Helvetica,sans-Serif" font-size="11.00" fill="#000000">...</text>
<polygon fill="#ffffff" stroke="transparent" points="279,-172.7429 279,-191.7429 300,-191.7429 300,-172.7429 279,-172.7429"/>
<polygon fill="none" stroke="#000000" points="279,-172.7429 279,-191.7429 300,-191.7429 300,-172.7429 279,-172.7429"/>
<text text-anchor="start" x="281.7027" y="-178.8429" font-family="Helvetica,sans-Serif" font-size="11.00" fill="#000000">&lt; 1</text>
<polygon fill="#ffffff" stroke="transparent" points="300,-172.7429 300,-191.7429 338,-191.7429 338,-172.7429 300,-172.7429"/>
<polygon fill="none" stroke="#000000" points="300,-172.7429 300,-191.7429 338,-191.7429 338,-172.7429 300,-172.7429"/>
<text text-anchor="start" x="302.8053" y="-178.8429" font-family="Helvetica,sans-Serif" font-size="11.00" fill="#000000">0 rows</text>
<polygon fill="#ffffff" stroke="transparent" points="338,-172.7429 338,-191.7429 359,-191.7429 359,-172.7429 338,-172.7429"/>
<polygon fill="none" stroke="#000000" points="338,-172.7429 338,-191.7429 359,-191.7429 359,-172.7429 338,-172.7429"/>
<text text-anchor="start" x="340.7027" y="-178.8429" font-family="Helvetica,sans-Serif" font-size="11.00" fill="#000000">8 &gt;</text>
</a>
</g>
</g>
<!-- companies&#45;&gt;users -->
<g id="edge1" class="edge">
<title>companies:w&#45;&gt;users:e</title>
<path fill="none" stroke="#000000" d="M394.3349,-309.9832C365.4547,-290.376 407.8325,-200.7429 359,-200.7429"/>
<polygon fill="#000000" stroke="#000000" points="400.7677,-311.6905 407.5764,-317.2224 404.6339,-312.7167 408.5,-313.7429 408.5,-313.7429 408.5,-313.7429 404.6339,-312.7167 409.4236,-310.2634 400.7677,-311.6905 400.7677,-311.6905"/>
<ellipse fill="none" stroke="#000000" cx="397.6748" cy="-310.8696" rx="3.2" ry="3.2"/>
</g>
<!-- addresses -->
<g id="node3" class="node">
<title>addresses</title>
<g id="a_node3"><a xlink:href="../../tables/addresses.html" xlink:title="addresses" target="_top">
<polygon fill="#ffffff" stroke="transparent" points="8,-411.2429 8,-494.2429 101,-494.2429 101,-411.2429 8,-411.2429"/>
<polygon fill="#f5f5f5" stroke="transparent" points="8.5,-470.7429 8.5,-493.7429 101.5,-493.7429 101.5,-470.7429 8.5,-470.7429"/>
<polygon fill="none" stroke="#000000" points="8.5,-470.7429 8.5,-493.7429 101.5,-493.7429 101.5,-470.7429 8.5,-470.7429"/>
<text text-anchor="start" x="13.1318" y="-479.8429" font-family="Helvetica,sans-Serif" font-weight="bold" font-size="11.00" fill="#000000">addresses</text>
<text text-anchor="start" x="67.0219" y="-478.8429" font-family="Helvetica,sans-Serif" font-size="11.00" fill="#000000">[table]</text>
<polygon fill="none" stroke="#000000" points="8.5,-448.7429 8.5,-470.7429 101.5,-470.7429 101.5,-448.7429 8.5,-448.7429"/>
<image xlink:href="../../images/primaryKeys.png" width="11px" height="12px" preserveAspectRatio="xMinYMin meet" x="13.5" y="-465.743"/>
<text text-anchor="start" x="32.5" y="-455.8429" font-family="Helvetica,sans-Serif" font-size="11.00" fill="#000000">id</text>
<polygon fill="none" stroke="#000000" points="8.5,-429.7429 8.5,-448.7429 101.5,-448.7429 101.5,-429.7429 8.5,-429.7429"/>
<text text-anchor="start" x="11.5" y="-435.8429" font-family="Helvetica,sans-Serif" font-size="11.00" fill="#000000">...</text>
<polygon fill="#ffffff" stroke="transparent" points="8.5,-410.7429 8.5,-429.7429 31.5,-429.7429 31.5,-410.7429 8.5,-410.7429"/>
<polygon fill="none" stroke="#000000" points="8.5,-410.7429 8.5,-429.7429 31.5,-429.7429 31.5,-410.7429 8.5,-410.7429"/>
<text text-anchor="start" x="11.5" y="-416.8429" font-family="Helvetica,sans-Serif" font-size="11.00" fill="#000000"> &#160;</text>
<polygon fill="#ffffff" stroke="transparent" points="31.5,-410.7429 31.5,-429.7429 74.5,-429.7429 74.5,-410.7429 31.5,-410.7429"/>
<polygon fill="none" stroke="#000000" points="31.5,-410.7429 31.5,-429.7429 74.5,-429.7429 74.5,-410.7429 31.5,-410.7429"/>
<text text-anchor="start" x="39.1105" y="-416.8429" font-family="Helvetica,sans-Serif" font-size="11.00" fill="#000000">0 rows</text>
<polygon fill="#ffffff" stroke="transparent" points="74.5,-410.7429 74.5,-429.7429 101.5,-429.7429 101.5,-410.7429 74.5,-410.7429"/>
<polygon fill="none" stroke="#000000" points="74.5,-410.7429 74.5,-429.7429 101.5,-429.7429 101.5,-410.7429 74.5,-410.7429"/>
<text text-anchor="start" x="82.9053" y="-416.8429" font-family="Helvetica,sans-Serif" font-size="11.00" fill="#000000">3 &gt;</text>
</a>
</g>
</g>
<!-- companies&#45;&gt;addresses -->
<g id="edge2" class="edge">
<title>companies:w&#45;&gt;addresses:e</title>
<path fill="none" stroke="#000000" d="M394.0567,-336.4904C318.5722,-344.659 318.2702,-417.5662 238,-445.7429 180.4573,-465.9418 162.4849,-459.7429 101.5,-459.7429"/>
<polygon fill="#000000" stroke="#000000" points="400.5107,-336.1564 408.6861,-339.3381 404.5053,-335.9497 408.5,-335.7429 408.5,-335.7429 408.5,-335.7429 404.5053,-335.9497 408.3139,-332.1477 400.5107,-336.1564 400.5107,-336.1564"/>
<ellipse fill="none" stroke="#000000" cx="397.315" cy="-336.3219" rx="3.2" ry="3.2"/>
</g>
<!-- profiles -->
<g id="node8" class="node">
<title>profiles</title>
<g id="a_node8"><a xlink:href="../../tables/profiles.html" xlink:title="profiles" target="_top">
<polygon fill="#ffffff" stroke="transparent" points="150,-374.2429 150,-435.2429 230,-435.2429 230,-374.2429 150,-374.2429"/>
<polygon fill="#f5f5f5" stroke="transparent" points="150,-411.7429 150,-434.7429 230,-434.7429 230,-411.7429 150,-411.7429"/>
<polygon fill="none" stroke="#000000" points="150,-411.7429 150,-434.7429 230,-434.7429 230,-411.7429 150,-411.7429"/>
<text text-anchor="start" x="155" y="-420.8429" font-family="Helvetica,sans-Serif" font-weight="bold" font-size="11.00" fill="#000000">profiles</text>
<text text-anchor="start" x="195.0437" y="-419.8429" font-family="Helvetica,sans-Serif" font-size="11.00" fill="#000000">[table]</text>
<polygon fill="none" stroke="#000000" points="150,-392.7429 150,-411.7429 230,-411.7429 230,-392.7429 150,-392.7429"/>
<text text-anchor="start" x="153" y="-398.8429" font-family="Helvetica,sans-Serif" font-size="11.00" fill="#000000">...</text>
<polygon fill="#ffffff" stroke="transparent" points="150,-373.7429 150,-392.7429 171,-392.7429 171,-373.7429 150,-373.7429"/>
<polygon fill="none" stroke="#000000" points="150,-373.7429 150,-392.7429 171,-392.7429 171,-373.7429 150,-373.7429"/>
<text text-anchor="start" x="152.7027" y="-379.8429" font-family="Helvetica,sans-Serif" font-size="11.00" fill="#000000">&lt; 3</text>
<polygon fill="#ffffff" stroke="transparent" points="171,-373.7429 171,-392.7429 209,-392.7429 209,-373.7429 171,-373.7429"/>
<polygon fill="none" stroke="#000000" points="171,-373.7429 171,-392.7429 209,-392.7429 209,-373.7429 171,-373.7429"/>
<text text-anchor="start" x="173.8053" y="-379.8429" font-family="Helvetica,sans-Serif" font-size="11.00" fill="#000000">0 rows</text>
<polygon fill="#ffffff" stroke="transparent" points="209,-373.7429 209,-392.7429 230,-392.7429 230,-373.7429 209,-373.7429"/>
<polygon fill="none" stroke="#000000" points="209,-373.7429 209,-392.7429 230,-392.7429 230,-373.7429 209,-373.7429"/>
<text text-anchor="start" x="211.7027" y="-379.8429" font-family="Helvetica,sans-Serif" font-size="11.00" fill="#000000">2 &gt;</text>
</a>
</g>
</g>
<!-- users&#45;&gt;profiles -->
<g id="edge23" class="edge">
<title>users:w&#45;&gt;profiles:e</title>
<path fill="none" stroke="#000000" d="M268.3676,-201.8243C198.2245,-217.6452 317.9986,-401.7429 230,-401.7429"/>
<polygon fill="#000000" stroke="#000000" points="277.7993,-196.8444 278.6089,-204.8033 277.0171,-204.9652 276.2075,-197.0063 277.7993,-196.8444"/>
<polyline fill="none" stroke="#000000" points="279,-200.7429 275.0205,-201.1477 "/>
<ellipse fill="none" stroke="#000000" cx="271.837" cy="-201.4715" rx="3.2" ry="3.2"/>
</g>
<!-- company_doing_business_as -->
<g id="node4" class="node">
<title>company_doing_business_as</title>
<g id="a_node4"><a xlink:href="../../tables/company_doing_business_as.html" xlink:title="company_doing_business_as" target="_top">
<polygon fill="#ffffff" stroke="transparent" points="634,-416.2429 634,-521.2429 825,-521.2429 825,-416.2429 634,-416.2429"/>
<polygon fill="#f5f5f5" stroke="transparent" points="634.5,-497.7429 634.5,-520.7429 825.5,-520.7429 825.5,-497.7429 634.5,-497.7429"/>
<polygon fill="none" stroke="#000000" points="634.5,-497.7429 634.5,-520.7429 825.5,-520.7429 825.5,-497.7429 634.5,-497.7429"/>
<text text-anchor="start" x="639.5" y="-506.8429" font-family="Helvetica,sans-Serif" font-weight="bold" font-size="11.00" fill="#000000">company_doing_business_as</text>
<text text-anchor="start" x="790.5437" y="-505.8429" font-family="Helvetica,sans-Serif" font-size="11.00" fill="#000000">[table]</text>
<polygon fill="none" stroke="#000000" points="634.5,-475.7429 634.5,-497.7429 825.5,-497.7429 825.5,-475.7429 634.5,-475.7429"/>
<image xlink:href="../../images/primaryKeys.png" width="11px" height="12px" preserveAspectRatio="xMinYMin meet" x="639.5" y="-492.743"/>
<text text-anchor="start" x="654.5" y="-482.8429" font-family="Helvetica,sans-Serif" font-size="11.00" fill="#000000">id</text>
<polygon fill="none" stroke="#000000" points="634.5,-453.7429 634.5,-475.7429 825.5,-475.7429 825.5,-453.7429 634.5,-453.7429"/>
<image xlink:href="../../images/foreignKeys.png" width="11px" height="12px" preserveAspectRatio="xMinYMin meet" x="639.5" y="-470.743"/>
<text text-anchor="start" x="654.5" y="-460.8429" font-family="Helvetica,sans-Serif" font-size="11.00" fill="#000000">company_id</text>
<polygon fill="none" stroke="#000000" points="634.5,-434.7429 634.5,-453.7429 825.5,-453.7429 825.5,-434.7429 634.5,-434.7429"/>
<text text-anchor="start" x="637.5" y="-440.8429" font-family="Helvetica,sans-Serif" font-size="11.00" fill="#000000">...</text>
<polygon fill="#ffffff" stroke="transparent" points="634.5,-415.7429 634.5,-434.7429 710.5,-434.7429 710.5,-415.7429 634.5,-415.7429"/>
<polygon fill="none" stroke="#000000" points="634.5,-415.7429 634.5,-434.7429 710.5,-434.7429 710.5,-415.7429 634.5,-415.7429"/>
<text text-anchor="start" x="637.5" y="-421.8429" font-family="Helvetica,sans-Serif" font-size="11.00" fill="#000000">&lt; 1</text>
<polygon fill="#ffffff" stroke="transparent" points="710.5,-415.7429 710.5,-434.7429 776.5,-434.7429 776.5,-415.7429 710.5,-415.7429"/>
<polygon fill="none" stroke="#000000" points="710.5,-415.7429 710.5,-434.7429 776.5,-434.7429 776.5,-415.7429 710.5,-415.7429"/>
<text text-anchor="start" x="741.1105" y="-421.8429" font-family="Helvetica,sans-Serif" font-size="11.00" fill="#000000">0 rows</text>
<polygon fill="#ffffff" stroke="transparent" points="776.5,-415.7429 776.5,-434.7429 825.5,-434.7429 825.5,-415.7429 776.5,-415.7429"/>
<polygon fill="none" stroke="#000000" points="776.5,-415.7429 776.5,-434.7429 825.5,-434.7429 825.5,-415.7429 776.5,-415.7429"/>
<text text-anchor="start" x="806.9053" y="-421.8429" font-family="Helvetica,sans-Serif" font-size="11.00" fill="#000000">1 &gt;</text>
</a>
</g>
</g>
<!-- company_doing_business_as&#45;&gt;companies -->
<g id="edge3" class="edge">
<title>company_doing_business_as:w&#45;&gt;companies:e</title>
<path fill="none" stroke="#000000" d="M620.5652,-460.9347C593.4094,-441.8738 631.8797,-357.7429 585.5,-357.7429"/>
<polygon fill="#000000" stroke="#000000" points="626.783,-462.6339 633.5509,-468.2156 630.6415,-463.6884 634.5,-464.7429 634.5,-464.7429 634.5,-464.7429 630.6415,-463.6884 635.4491,-461.2702 626.783,-462.6339 626.783,-462.6339"/>
<ellipse fill="none" stroke="#000000" cx="623.6962" cy="-461.7903" rx="3.2" ry="3.2"/>
</g>
<!-- company_users -->
<g id="node5" class="node">
<title>company_users</title>
<g id="a_node5"><a xlink:href="../../tables/company_users.html" xlink:title="company_users" target="_top">
<polygon fill="#ffffff" stroke="transparent" points="669.5,-255.2429 669.5,-316.2429 789.5,-316.2429 789.5,-255.2429 669.5,-255.2429"/>
<polygon fill="#f5f5f5" stroke="transparent" points="669.5,-292.7429 669.5,-315.7429 789.5,-315.7429 789.5,-292.7429 669.5,-292.7429"/>
<polygon fill="none" stroke="#000000" points="669.5,-292.7429 669.5,-315.7429 789.5,-315.7429 789.5,-292.7429 669.5,-292.7429"/>
<text text-anchor="start" x="674.186" y="-301.8429" font-family="Helvetica,sans-Serif" font-weight="bold" font-size="11.00" fill="#000000">company_users</text>
<text text-anchor="start" x="755.0219" y="-300.8429" font-family="Helvetica,sans-Serif" font-size="11.00" fill="#000000">[table]</text>
<polygon fill="none" stroke="#000000" points="669.5,-273.7429 669.5,-292.7429 789.5,-292.7429 789.5,-273.7429 669.5,-273.7429"/>
<text text-anchor="start" x="672.5" y="-279.8429" font-family="Helvetica,sans-Serif" font-size="11.00" fill="#000000">...</text>
<polygon fill="#ffffff" stroke="transparent" points="669.5,-254.7429 669.5,-273.7429 714.5,-273.7429 714.5,-254.7429 669.5,-254.7429"/>
<polygon fill="none" stroke="#000000" points="669.5,-254.7429 669.5,-273.7429 714.5,-273.7429 714.5,-254.7429 669.5,-254.7429"/>
<text text-anchor="start" x="672.5" y="-260.8429" font-family="Helvetica,sans-Serif" font-size="11.00" fill="#000000">&lt; 2</text>
<polygon fill="#ffffff" stroke="transparent" points="714.5,-254.7429 714.5,-273.7429 764.5,-273.7429 764.5,-254.7429 714.5,-254.7429"/>
<polygon fill="none" stroke="#000000" points="714.5,-254.7429 714.5,-273.7429 764.5,-273.7429 764.5,-254.7429 714.5,-254.7429"/>
<text text-anchor="start" x="729.1105" y="-260.8429" font-family="Helvetica,sans-Serif" font-size="11.00" fill="#000000">0 rows</text>
<polygon fill="#ffffff" stroke="transparent" points="764.5,-254.7429 764.5,-273.7429 789.5,-273.7429 789.5,-254.7429 764.5,-254.7429"/>
<polygon fill="none" stroke="#000000" points="764.5,-254.7429 764.5,-273.7429 789.5,-273.7429 789.5,-254.7429 764.5,-254.7429"/>
<text text-anchor="start" x="780.3862" y="-260.8429" font-family="Helvetica,sans-Serif" font-size="11.00" fill="#000000"> &#160;</text>
</a>
</g>
</g>
<!-- company_users&#45;&gt;companies -->
<g id="edge4" class="edge">
<title>company_users:w&#45;&gt;companies:e</title>
<path fill="none" stroke="#000000" d="M655.2785,-285.2383C622.1812,-298.2519 630.0748,-357.7429 585.5,-357.7429"/>
<polygon fill="#000000" stroke="#000000" points="661.6204,-284.1255 670.1222,-286.2887 665.5602,-283.4342 669.5,-282.7429 669.5,-282.7429 669.5,-282.7429 665.5602,-283.4342 668.8778,-279.1971 661.6204,-284.1255 661.6204,-284.1255"/>
<ellipse fill="none" stroke="#000000" cx="658.4685" cy="-284.6786" rx="3.2" ry="3.2"/>
</g>
<!-- company_users&#45;&gt;users -->
<g id="edge5" class="edge">
<title>company_users:w&#45;&gt;users:e</title>
<path fill="none" stroke="#000000" d="M654.8928,-281.5305C631.0006,-277.2208 622.6972,-262.4863 593,-254.7429 508.9335,-232.823 482.0407,-252.3256 400,-223.7429 380.2695,-216.8689 379.8936,-200.7429 359,-200.7429"/>
<polygon fill="#000000" stroke="#000000" points="661.5274,-282.0811 669.2022,-286.3306 665.5137,-282.412 669.5,-282.7429 669.5,-282.7429 669.5,-282.7429 665.5137,-282.412 669.7978,-279.1552 661.5274,-282.0811 661.5274,-282.0811"/>
<ellipse fill="none" stroke="#000000" cx="658.3384" cy="-281.8164" rx="3.2" ry="3.2"/>
</g>
<!-- patients -->
<g id="node6" class="node">
<title>patients</title>
<g id="a_node6"><a xlink:href="../../tables/patients.html" xlink:title="patients" target="_top">
<polygon fill="#ffffff" stroke="transparent" points="1230,-99.2429 1230,-402.2429 1440,-402.2429 1440,-99.2429 1230,-99.2429"/>
<polygon fill="#f5f5f5" stroke="transparent" points="1230,-378.7429 1230,-401.7429 1440,-401.7429 1440,-378.7429 1230,-378.7429"/>
<polygon fill="none" stroke="#000000" points="1230,-378.7429 1230,-401.7429 1440,-401.7429 1440,-378.7429 1230,-378.7429"/>
<text text-anchor="start" x="1235" y="-387.8429" font-family="Helvetica,sans-Serif" font-weight="bold" font-size="11.00" fill="#000000">patients</text>
<text text-anchor="start" x="1405.0437" y="-386.8429" font-family="Helvetica,sans-Serif" font-size="11.00" fill="#000000">[table]</text>
<polygon fill="none" stroke="#000000" points="1230,-356.7429 1230,-378.7429 1440,-378.7429 1440,-356.7429 1230,-356.7429"/>
<image xlink:href="../../images/primaryKeys.png" width="11px" height="12px" preserveAspectRatio="xMinYMin meet" x="1235" y="-373.743"/>
<text text-anchor="start" x="1250" y="-363.8429" font-family="Helvetica,sans-Serif" font-size="11.00" fill="#000000">id</text>
<polygon fill="none" stroke="#000000" points="1230,-334.7429 1230,-356.7429 1440,-356.7429 1440,-334.7429 1230,-334.7429"/>
<image xlink:href="../../images/foreignKeys.png" width="11px" height="12px" preserveAspectRatio="xMinYMin meet" x="1235" y="-351.743"/>
<text text-anchor="start" x="1250" y="-341.8429" font-family="Helvetica,sans-Serif" font-size="11.00" fill="#000000">profile_id</text>
<polygon fill="none" stroke="#000000" points="1230,-312.7429 1230,-334.7429 1440,-334.7429 1440,-312.7429 1230,-312.7429"/>
<image xlink:href="../../images/foreignKeys.png" width="11px" height="12px" preserveAspectRatio="xMinYMin meet" x="1235" y="-329.743"/>
<text text-anchor="start" x="1250" y="-319.8429" font-family="Helvetica,sans-Serif" font-size="11.00" fill="#000000">user_id</text>
<polygon fill="none" stroke="#000000" points="1230,-290.7429 1230,-312.7429 1440,-312.7429 1440,-290.7429 1230,-290.7429"/>
<image xlink:href="../../images/foreignKeys.png" width="11px" height="12px" preserveAspectRatio="xMinYMin meet" x="1235" y="-307.743"/>
<text text-anchor="start" x="1250" y="-297.8429" font-family="Helvetica,sans-Serif" font-size="11.00" fill="#000000">company_id</text>
<polygon fill="none" stroke="#000000" points="1230,-268.7429 1230,-290.7429 1440,-290.7429 1440,-268.7429 1230,-268.7429"/>
<image xlink:href="../../images/foreignKeys.png" width="11px" height="12px" preserveAspectRatio="xMinYMin meet" x="1235" y="-285.743"/>
<text text-anchor="start" x="1250" y="-275.8429" font-family="Helvetica,sans-Serif" font-size="11.00" fill="#000000">provider_location_id</text>
<polygon fill="none" stroke="#000000" points="1230,-246.7429 1230,-268.7429 1440,-268.7429 1440,-246.7429 1230,-246.7429"/>
<image xlink:href="../../images/foreignKeys.png" width="11px" height="12px" preserveAspectRatio="xMinYMin meet" x="1235" y="-263.743"/>
<text text-anchor="start" x="1250" y="-253.8429" font-family="Helvetica,sans-Serif" font-size="11.00" fill="#000000">professional_id</text>
<polygon fill="#ffffff" stroke="transparent" points="1230,-224.7429 1230,-246.7429 1440,-246.7429 1440,-224.7429 1230,-224.7429"/>
<polygon fill="none" stroke="#000000" points="1230,-224.7429 1230,-246.7429 1440,-246.7429 1440,-224.7429 1230,-224.7429"/>
<text text-anchor="start" x="1250" y="-231.8429" font-family="Helvetica,sans-Serif" font-size="11.00" fill="#000000">insurance_policy_id</text>
<polygon fill="none" stroke="#000000" points="1230,-202.7429 1230,-224.7429 1440,-224.7429 1440,-202.7429 1230,-202.7429"/>
<image xlink:href="../../images/foreignKeys.png" width="11px" height="12px" preserveAspectRatio="xMinYMin meet" x="1235" y="-219.743"/>
<text text-anchor="start" x="1250" y="-209.8429" font-family="Helvetica,sans-Serif" font-size="11.00" fill="#000000">main_member_id</text>
<polygon fill="none" stroke="#000000" points="1230,-180.7429 1230,-202.7429 1440,-202.7429 1440,-180.7429 1230,-180.7429"/>
<image xlink:href="../../images/foreignKeys.png" width="11px" height="12px" preserveAspectRatio="xMinYMin meet" x="1235" y="-197.743"/>
<text text-anchor="start" x="1250" y="-187.8429" font-family="Helvetica,sans-Serif" font-size="11.00" fill="#000000">relationship_to_main_member</text>
<polygon fill="none" stroke="#000000" points="1230,-158.7429 1230,-180.7429 1440,-180.7429 1440,-158.7429 1230,-158.7429"/>
<image xlink:href="../../images/foreignKeys.png" width="11px" height="12px" preserveAspectRatio="xMinYMin meet" x="1235" y="-175.743"/>
<text text-anchor="start" x="1250" y="-165.8429" font-family="Helvetica,sans-Serif" font-size="11.00" fill="#000000">accepted_agreement_by_user_id</text>
<polygon fill="none" stroke="#000000" points="1230,-136.7429 1230,-158.7429 1440,-158.7429 1440,-136.7429 1230,-136.7429"/>
<image xlink:href="../../images/foreignKeys.png" width="11px" height="12px" preserveAspectRatio="xMinYMin meet" x="1235" y="-153.743"/>
<text text-anchor="start" x="1250" y="-143.8429" font-family="Helvetica,sans-Serif" font-size="11.00" fill="#000000">created_by_user_id</text>
<polygon fill="none" stroke="#000000" points="1230,-117.7429 1230,-136.7429 1440,-136.7429 1440,-117.7429 1230,-117.7429"/>
<text text-anchor="start" x="1233" y="-123.8429" font-family="Helvetica,sans-Serif" font-size="11.00" fill="#000000">...</text>
<polygon fill="#ffffff" stroke="transparent" points="1230,-98.7429 1230,-117.7429 1316,-117.7429 1316,-98.7429 1230,-98.7429"/>
<polygon fill="none" stroke="#000000" points="1230,-98.7429 1230,-117.7429 1316,-117.7429 1316,-98.7429 1230,-98.7429"/>
<text text-anchor="start" x="1233" y="-104.8429" font-family="Helvetica,sans-Serif" font-size="11.00" fill="#000000">&lt; 9</text>
<polygon fill="#ffffff" stroke="transparent" points="1316,-98.7429 1316,-117.7429 1386,-117.7429 1386,-98.7429 1316,-98.7429"/>
<polygon fill="none" stroke="#000000" points="1316,-98.7429 1316,-117.7429 1386,-117.7429 1386,-98.7429 1316,-98.7429"/>
<text text-anchor="start" x="1350.6105" y="-104.8429" font-family="Helvetica,sans-Serif" font-size="11.00" fill="#000000">0 rows</text>
<polygon fill="#ffffff" stroke="transparent" points="1386,-98.7429 1386,-117.7429 1440,-117.7429 1440,-98.7429 1386,-98.7429"/>
<polygon fill="none" stroke="#000000" points="1386,-98.7429 1386,-117.7429 1440,-117.7429 1440,-98.7429 1386,-98.7429"/>
<text text-anchor="start" x="1421.4053" y="-104.8429" font-family="Helvetica,sans-Serif" font-size="11.00" fill="#000000">2 &gt;</text>
</a>
</g>
</g>
<!-- patients&#45;&gt;companies -->
<g id="edge7" class="edge">
<title>patients:w&#45;&gt;companies:e</title>
<path fill="none" stroke="#000000" d="M1216.2113,-306.2173C1207.044,-313.7489 1205.0896,-328.7253 1189,-334.7429 1063.2957,-381.7573 719.7085,-357.7429 585.5,-357.7429"/>
<polygon fill="#000000" stroke="#000000" points="1222.3906,-304.2122 1231.1112,-305.1671 1226.1953,-302.9775 1230,-301.7429 1230,-301.7429 1230,-301.7429 1226.1953,-302.9775 1228.8888,-298.3187 1222.3906,-304.2122 1222.3906,-304.2122"/>
<ellipse fill="none" stroke="#000000" cx="1219.3468" cy="-305.1999" rx="3.2" ry="3.2"/>
</g>
<!-- patients&#45;&gt;users -->
<g id="edge6" class="edge">
<title>patients:w&#45;&gt;users:e</title>
<path fill="none" stroke="#000000" d="M1216.1492,-165.6054C1207.359,-159.2235 1204.022,-147.2449 1189,-142.7429 1051.4872,-101.5311 1009.4604,-137.5163 866,-142.7429 658.476,-150.3035 598.3123,-115.1345 400,-176.7429 379.836,-183.0071 380.1146,-200.7429 359,-200.7429"/>
<polygon fill="#000000" stroke="#000000" points="1222.3347,-167.4531 1228.9696,-173.1923 1226.1673,-168.598 1230,-169.7429 1230,-169.7429 1230,-169.7429 1226.1673,-168.598 1231.0304,-166.2935 1222.3347,-167.4531 1222.3347,-167.4531"/>
<ellipse fill="none" stroke="#000000" cx="1219.2686" cy="-166.5371" rx="3.2" ry="3.2"/>
</g>
<!-- patients&#45;&gt;users -->
<g id="edge8" class="edge">
<title>patients:w&#45;&gt;users:e</title>
<path fill="none" stroke="#000000" d="M1216.1492,-143.6054C1207.359,-137.2235 1204.022,-125.2449 1189,-120.7429 1095.9544,-92.8576 421.8266,-125.3856 400,-137.7429 370.9285,-154.2019 392.4073,-200.7429 359,-200.7429"/>
<polygon fill="#000000" stroke="#000000" points="1222.3347,-145.4531 1228.9696,-151.1923 1226.1673,-146.598 1230,-147.7429 1230,-147.7429 1230,-147.7429 1226.1673,-146.598 1231.0304,-144.2935 1222.3347,-145.4531 1222.3347,-145.4531"/>
<ellipse fill="none" stroke="#000000" cx="1219.2686" cy="-144.5371" rx="3.2" ry="3.2"/>
</g>
<!-- patients&#45;&gt;users -->
<g id="edge13" class="edge">
<title>patients:w&#45;&gt;users:e</title>
<path fill="none" stroke="#000000" d="M1216.1537,-319.6075C1200.8789,-307.0036 1214.4574,-268.9453 1189,-252.7429 1128.2192,-214.0589 934.9783,-245.5456 866,-224.7429 850.0049,-219.9191 849.1176,-211.14 833,-206.7429 730.037,-178.653 699.7111,-200.5209 593,-198.7429 507.2341,-197.3139 485.7523,-196.6526 400,-198.7429 381.7615,-199.1875 377.2439,-200.7429 359,-200.7429"/>
<polygon fill="#000000" stroke="#000000" points="1222.3346,-321.4535 1228.9698,-327.1923 1226.1673,-322.5982 1230,-323.7429 1230,-323.7429 1230,-323.7429 1226.1673,-322.5982 1231.0302,-320.2934 1222.3346,-321.4535 1222.3346,-321.4535"/>
<ellipse fill="none" stroke="#000000" cx="1219.2684" cy="-320.5377" rx="3.2" ry="3.2"/>
</g>
<!-- professionals -->
<g id="node7" class="node">
<title>professionals</title>
<g id="a_node7"><a xlink:href="../../tables/professionals.html" xlink:title="professionals" target="_top">
<polygon fill="#ffffff" stroke="transparent" points="974,-263.2429 974,-324.2429 1081,-324.2429 1081,-263.2429 974,-263.2429"/>
<polygon fill="#f5f5f5" stroke="transparent" points="974.5,-300.7429 974.5,-323.7429 1081.5,-323.7429 1081.5,-300.7429 974.5,-300.7429"/>
<polygon fill="none" stroke="#000000" points="974.5,-300.7429 974.5,-323.7429 1081.5,-323.7429 1081.5,-300.7429 974.5,-300.7429"/>
<text text-anchor="start" x="979.105" y="-309.8429" font-family="Helvetica,sans-Serif" font-weight="bold" font-size="11.00" fill="#000000">professionals</text>
<text text-anchor="start" x="1047.0219" y="-308.8429" font-family="Helvetica,sans-Serif" font-size="11.00" fill="#000000">[table]</text>
<polygon fill="none" stroke="#000000" points="974.5,-281.7429 974.5,-300.7429 1081.5,-300.7429 1081.5,-281.7429 974.5,-281.7429"/>
<text text-anchor="start" x="977.5" y="-287.8429" font-family="Helvetica,sans-Serif" font-size="11.00" fill="#000000">...</text>
<polygon fill="#ffffff" stroke="transparent" points="974.5,-262.7429 974.5,-281.7429 1008.5,-281.7429 1008.5,-262.7429 974.5,-262.7429"/>
<polygon fill="none" stroke="#000000" points="974.5,-262.7429 974.5,-281.7429 1008.5,-281.7429 1008.5,-262.7429 974.5,-262.7429"/>
<text text-anchor="start" x="977.5" y="-268.8429" font-family="Helvetica,sans-Serif" font-size="11.00" fill="#000000">&lt; 2</text>
<polygon fill="#ffffff" stroke="transparent" points="1008.5,-262.7429 1008.5,-281.7429 1053.5,-281.7429 1053.5,-262.7429 1008.5,-262.7429"/>
<polygon fill="none" stroke="#000000" points="1008.5,-262.7429 1008.5,-281.7429 1053.5,-281.7429 1053.5,-262.7429 1008.5,-262.7429"/>
<text text-anchor="start" x="1018.1105" y="-268.8429" font-family="Helvetica,sans-Serif" font-size="11.00" fill="#000000">0 rows</text>
<polygon fill="#ffffff" stroke="transparent" points="1053.5,-262.7429 1053.5,-281.7429 1081.5,-281.7429 1081.5,-262.7429 1053.5,-262.7429"/>
<polygon fill="none" stroke="#000000" points="1053.5,-262.7429 1053.5,-281.7429 1081.5,-281.7429 1081.5,-262.7429 1053.5,-262.7429"/>
<text text-anchor="start" x="1062.9053" y="-268.8429" font-family="Helvetica,sans-Serif" font-size="11.00" fill="#000000">2 &gt;</text>
</a>
</g>
</g>
<!-- patients&#45;&gt;professionals -->
<g id="edge9" class="edge">
<title>patients:w&#45;&gt;professionals:e</title>
<path fill="none" stroke="#000000" d="M1215.4477,-258.2881C1160.0516,-262.5788 1143.96,-290.7429 1081.5,-290.7429"/>
<polygon fill="#000000" stroke="#000000" points="1222.0056,-258.0425 1230.1348,-261.3404 1226.0028,-257.8927 1230,-257.7429 1230,-257.7429 1230,-257.7429 1226.0028,-257.8927 1229.8652,-254.1454 1222.0056,-258.0425 1222.0056,-258.0425"/>
<ellipse fill="none" stroke="#000000" cx="1218.8079" cy="-258.1623" rx="3.2" ry="3.2"/>
</g>
<!-- patients&#45;&gt;profiles -->
<g id="edge10" class="edge">
<title>patients:w&#45;&gt;profiles:e</title>
<path fill="none" stroke="#000000" d="M1215.5158,-348.1331C1207.2831,-351.1622 1201.7584,-356.2843 1189,-358.7429 1123.7972,-371.3076 659.3574,-400.2968 593,-402.7429 507.2804,-405.9027 485.7774,-402.9952 400,-402.7429 324.4435,-402.5207 305.5569,-401.7429 230,-401.7429"/>
<polygon fill="#000000" stroke="#000000" points="1222.1068,-347.0455 1230.5862,-349.2949 1226.0534,-346.3942 1230,-345.7429 1230,-345.7429 1230,-345.7429 1226.0534,-346.3942 1229.4138,-342.1909 1222.1068,-347.0455 1222.1068,-347.0455"/>
<ellipse fill="none" stroke="#000000" cx="1218.9495" cy="-347.5665" rx="3.2" ry="3.2"/>
</g>
<!-- provider_locations -->
<g id="node9" class="node">
<title>provider_locations</title>
<g id="a_node9"><a xlink:href="../../tables/provider_locations.html" xlink:title="provider_locations" target="_top">
<polygon fill="#ffffff" stroke="transparent" points="874,-399.7429 874,-643.7429 1181,-643.7429 1181,-399.7429 874,-399.7429"/>
<polygon fill="#f5f5f5" stroke="transparent" points="876.5,-618.7429 876.5,-641.7429 1179.5,-641.7429 1179.5,-618.7429 876.5,-618.7429"/>
<polygon fill="none" stroke="#000000" points="876.5,-618.7429 876.5,-641.7429 1179.5,-641.7429 1179.5,-618.7429 876.5,-618.7429"/>
<text text-anchor="start" x="881.5" y="-627.8429" font-family="Helvetica,sans-Serif" font-weight="bold" font-size="11.00" fill="#000000">provider_locations</text>
<text text-anchor="start" x="1144.5437" y="-626.8429" font-family="Helvetica,sans-Serif" font-size="11.00" fill="#000000">[table]</text>
<polygon fill="none" stroke="#000000" points="876.5,-596.7429 876.5,-618.7429 1085.5,-618.7429 1085.5,-596.7429 876.5,-596.7429"/>
<image xlink:href="../../images/primaryKeys.png" width="11px" height="12px" preserveAspectRatio="xMinYMin meet" x="881.5" y="-613.743"/>
<text text-anchor="start" x="896.5" y="-603.8429" font-family="Helvetica,sans-Serif" font-size="11.00" fill="#000000">id</text>
<polygon fill="none" stroke="#000000" points="1085.5,-596.7429 1085.5,-618.7429 1179.5,-618.7429 1179.5,-596.7429 1085.5,-596.7429"/>
<text text-anchor="start" x="1088.4758" y="-604.4429" font-family="Helvetica,sans-Serif" font-size="11.00" fill="#000000">uuid[2147483647]</text>
<polygon fill="none" stroke="#000000" points="876.5,-574.7429 876.5,-596.7429 1085.5,-596.7429 1085.5,-574.7429 876.5,-574.7429"/>
<image xlink:href="../../images/foreignKeys.png" width="11px" height="12px" preserveAspectRatio="xMinYMin meet" x="881.5" y="-591.743"/>
<text text-anchor="start" x="896.5" y="-581.8429" font-family="Helvetica,sans-Serif" font-size="11.00" fill="#000000">company_id</text>
<polygon fill="none" stroke="#000000" points="1085.5,-574.7429 1085.5,-596.7429 1179.5,-596.7429 1179.5,-574.7429 1085.5,-574.7429"/>
<text text-anchor="start" x="1088.4758" y="-582.4429" font-family="Helvetica,sans-Serif" font-size="11.00" fill="#000000">uuid[2147483647]</text>
<polygon fill="none" stroke="#000000" points="876.5,-552.7429 876.5,-574.7429 1085.5,-574.7429 1085.5,-552.7429 876.5,-552.7429"/>
<image xlink:href="../../images/foreignKeys.png" width="11px" height="12px" preserveAspectRatio="xMinYMin meet" x="881.5" y="-569.743"/>
<text text-anchor="start" x="896.5" y="-559.8429" font-family="Helvetica,sans-Serif" font-size="11.00" fill="#000000">address_id</text>
<polygon fill="none" stroke="#000000" points="1085.5,-552.7429 1085.5,-574.7429 1179.5,-574.7429 1179.5,-552.7429 1085.5,-552.7429"/>
<text text-anchor="start" x="1088.4758" y="-560.4429" font-family="Helvetica,sans-Serif" font-size="11.00" fill="#000000">uuid[2147483647]</text>
<polygon fill="none" stroke="#000000" points="876.5,-530.7429 876.5,-552.7429 1085.5,-552.7429 1085.5,-530.7429 876.5,-530.7429"/>
<image xlink:href="../../images/foreignKeys.png" width="11px" height="12px" preserveAspectRatio="xMinYMin meet" x="881.5" y="-547.743"/>
<text text-anchor="start" x="896.5" y="-537.8429" font-family="Helvetica,sans-Serif" font-size="11.00" fill="#000000">company_doing_business_as_id</text>
<polygon fill="none" stroke="#000000" points="1085.5,-530.7429 1085.5,-552.7429 1179.5,-552.7429 1179.5,-530.7429 1085.5,-530.7429"/>
<text text-anchor="start" x="1088.4758" y="-538.4429" font-family="Helvetica,sans-Serif" font-size="11.00" fill="#000000">uuid[2147483647]</text>
<polygon fill="none" stroke="#000000" points="876.5,-508.7429 876.5,-530.7429 1085.5,-530.7429 1085.5,-508.7429 876.5,-508.7429"/>
<text text-anchor="start" x="896.5" y="-515.8429" font-family="Helvetica,sans-Serif" font-size="11.00" fill="#000000">website</text>
<polygon fill="none" stroke="#000000" points="1085.5,-508.7429 1085.5,-530.7429 1179.5,-530.7429 1179.5,-508.7429 1085.5,-508.7429"/>
<text text-anchor="start" x="1088.5" y="-516.4429" font-family="Helvetica,sans-Serif" font-size="11.00" fill="#000000">text[2147483647]</text>
<polygon fill="none" stroke="#000000" points="876.5,-486.7429 876.5,-508.7429 1085.5,-508.7429 1085.5,-486.7429 876.5,-486.7429"/>
<text text-anchor="start" x="896.5" y="-493.8429" font-family="Helvetica,sans-Serif" font-size="11.00" fill="#000000">phone_number</text>
<polygon fill="none" stroke="#000000" points="1085.5,-486.7429 1085.5,-508.7429 1179.5,-508.7429 1179.5,-486.7429 1085.5,-486.7429"/>
<text text-anchor="start" x="1088.5" y="-494.4429" font-family="Helvetica,sans-Serif" font-size="11.00" fill="#000000">text[2147483647]</text>
<polygon fill="none" stroke="#000000" points="876.5,-464.7429 876.5,-486.7429 1085.5,-486.7429 1085.5,-464.7429 876.5,-464.7429"/>
<text text-anchor="start" x="896.5" y="-471.8429" font-family="Helvetica,sans-Serif" font-size="11.00" fill="#000000">created_at</text>
<polygon fill="none" stroke="#000000" points="1085.5,-464.7429 1085.5,-486.7429 1179.5,-486.7429 1179.5,-464.7429 1085.5,-464.7429"/>
<text text-anchor="start" x="1088.5" y="-472.4429" font-family="Helvetica,sans-Serif" font-size="11.00" fill="#000000">timestamptz[35,6]</text>
<polygon fill="none" stroke="#000000" points="876.5,-442.7429 876.5,-464.7429 1085.5,-464.7429 1085.5,-442.7429 876.5,-442.7429"/>
<text text-anchor="start" x="896.5" y="-449.8429" font-family="Helvetica,sans-Serif" font-size="11.00" fill="#000000">updated_at</text>
<polygon fill="none" stroke="#000000" points="1085.5,-442.7429 1085.5,-464.7429 1179.5,-464.7429 1179.5,-442.7429 1085.5,-442.7429"/>
<text text-anchor="start" x="1088.5" y="-450.4429" font-family="Helvetica,sans-Serif" font-size="11.00" fill="#000000">timestamptz[35,6]</text>
<polygon fill="none" stroke="#000000" points="876.5,-420.7429 876.5,-442.7429 1085.5,-442.7429 1085.5,-420.7429 876.5,-420.7429"/>
<text text-anchor="start" x="896.5" y="-427.8429" font-family="Helvetica,sans-Serif" font-size="11.00" fill="#000000">deleted_at</text>
<polygon fill="none" stroke="#000000" points="1085.5,-420.7429 1085.5,-442.7429 1179.5,-442.7429 1179.5,-420.7429 1085.5,-420.7429"/>
<text text-anchor="start" x="1088.5" y="-428.4429" font-family="Helvetica,sans-Serif" font-size="11.00" fill="#000000">timestamptz[35,6]</text>
<polygon fill="#ffffff" stroke="transparent" points="876.5,-401.7429 876.5,-420.7429 972.5,-420.7429 972.5,-401.7429 876.5,-401.7429"/>
<polygon fill="none" stroke="#000000" points="876.5,-401.7429 876.5,-420.7429 972.5,-420.7429 972.5,-401.7429 876.5,-401.7429"/>
<text text-anchor="start" x="879.5" y="-407.8429" font-family="Helvetica,sans-Serif" font-size="11.00" fill="#000000">&lt; 3</text>
<polygon fill="#ffffff" stroke="transparent" points="972.5,-401.7429 972.5,-420.7429 1085.5,-420.7429 1085.5,-401.7429 972.5,-401.7429"/>
<polygon fill="none" stroke="#000000" points="972.5,-401.7429 972.5,-420.7429 1085.5,-420.7429 1085.5,-401.7429 972.5,-401.7429"/>
<text text-anchor="start" x="1050.1105" y="-407.8429" font-family="Helvetica,sans-Serif" font-size="11.00" fill="#000000">0 rows</text>
<polygon fill="#ffffff" stroke="transparent" points="1085.5,-401.7429 1085.5,-420.7429 1179.5,-420.7429 1179.5,-401.7429 1085.5,-401.7429"/>
<polygon fill="none" stroke="#000000" points="1085.5,-401.7429 1085.5,-420.7429 1179.5,-420.7429 1179.5,-401.7429 1085.5,-401.7429"/>
<text text-anchor="start" x="1160.9053" y="-407.8429" font-family="Helvetica,sans-Serif" font-size="11.00" fill="#000000">2 &gt;</text>
<polygon fill="none" stroke="#000000" stroke-width="2" points="875,-400.7429 875,-642.7429 1180,-642.7429 1180,-400.7429 875,-400.7429"/>
</a>
</g>
</g>
<!-- patients&#45;&gt;provider_locations -->
<g id="edge11" class="edge">
<title>patients:w&#45;&gt;provider_locations:e</title>
<path fill="none" stroke="#000000" d="M1216.2616,-284.895C1169.7095,-326.6236 1247.7743,-607.7429 1179.5,-607.7429"/>
<polygon fill="#000000" stroke="#000000" points="1222.5094,-282.552 1231.2641,-283.1137 1226.2547,-281.1475 1230,-279.7429 1230,-279.7429 1230,-279.7429 1226.2547,-281.1475 1228.7359,-276.3721 1222.5094,-282.552 1222.5094,-282.552"/>
<ellipse fill="none" stroke="#000000" cx="1219.5132" cy="-283.6757" rx="3.2" ry="3.2"/>
</g>
<!-- relationships -->
<g id="node10" class="node">
<title>relationships</title>
<g id="a_node10"><a xlink:href="../../tables/relationships.html" xlink:title="relationships" target="_top">
<polygon fill="#ffffff" stroke="transparent" points="975.5,-153.2429 975.5,-214.2429 1079.5,-214.2429 1079.5,-153.2429 975.5,-153.2429"/>
<polygon fill="#f5f5f5" stroke="transparent" points="975.5,-190.7429 975.5,-213.7429 1079.5,-213.7429 1079.5,-190.7429 975.5,-190.7429"/>
<polygon fill="none" stroke="#000000" points="975.5,-190.7429 975.5,-213.7429 1079.5,-213.7429 1079.5,-190.7429 975.5,-190.7429"/>
<text text-anchor="start" x="980.1346" y="-199.8429" font-family="Helvetica,sans-Serif" font-weight="bold" font-size="11.00" fill="#000000">relationships</text>
<text text-anchor="start" x="1045.0219" y="-198.8429" font-family="Helvetica,sans-Serif" font-size="11.00" fill="#000000">[table]</text>
<polygon fill="none" stroke="#000000" points="975.5,-171.7429 975.5,-190.7429 1079.5,-190.7429 1079.5,-171.7429 975.5,-171.7429"/>
<text text-anchor="start" x="978.5" y="-177.8429" font-family="Helvetica,sans-Serif" font-size="11.00" fill="#000000">...</text>
<polygon fill="#ffffff" stroke="transparent" points="975.5,-152.7429 975.5,-171.7429 1003.5,-171.7429 1003.5,-152.7429 975.5,-152.7429"/>
<polygon fill="none" stroke="#000000" points="975.5,-152.7429 975.5,-171.7429 1003.5,-171.7429 1003.5,-152.7429 975.5,-152.7429"/>
<text text-anchor="start" x="978.5" y="-158.8429" font-family="Helvetica,sans-Serif" font-size="11.00" fill="#000000"> &#160;</text>
<polygon fill="#ffffff" stroke="transparent" points="1003.5,-152.7429 1003.5,-171.7429 1049.5,-171.7429 1049.5,-152.7429 1003.5,-152.7429"/>
<polygon fill="none" stroke="#000000" points="1003.5,-152.7429 1003.5,-171.7429 1049.5,-171.7429 1049.5,-152.7429 1003.5,-152.7429"/>
<text text-anchor="start" x="1014.1105" y="-158.8429" font-family="Helvetica,sans-Serif" font-size="11.00" fill="#000000">0 rows</text>
<polygon fill="#ffffff" stroke="transparent" points="1049.5,-152.7429 1049.5,-171.7429 1079.5,-171.7429 1079.5,-152.7429 1049.5,-152.7429"/>
<polygon fill="none" stroke="#000000" points="1049.5,-152.7429 1049.5,-171.7429 1079.5,-171.7429 1079.5,-152.7429 1049.5,-152.7429"/>
<text text-anchor="start" x="1060.9053" y="-158.8429" font-family="Helvetica,sans-Serif" font-size="11.00" fill="#000000">1 &gt;</text>
</a>
</g>
</g>
<!-- patients&#45;&gt;relationships -->
<g id="edge12" class="edge">
<title>patients:w&#45;&gt;relationships:e</title>
<path fill="none" stroke="#000000" d="M1215.5118,-191.5611C1160.1453,-190.1309 1141.4587,-180.7429 1079.5,-180.7429"/>
<polygon fill="#000000" stroke="#000000" points="1222.0006,-191.6425 1229.9548,-195.3426 1226.0003,-191.6927 1230,-191.7429 1230,-191.7429 1230,-191.7429 1226.0003,-191.6927 1230.0452,-188.1432 1222.0006,-191.6425 1222.0006,-191.6425"/>
<ellipse fill="none" stroke="#000000" cx="1218.8009" cy="-191.6023" rx="3.2" ry="3.2"/>
</g>
<!-- professionals&#45;&gt;users -->
<g id="edge16" class="edge">
<title>professionals:w&#45;&gt;users:e</title>
<path fill="none" stroke="#000000" d="M963.7777,-290.4382C906.9962,-287.1073 894.0965,-257.3465 833,-244.7429 625.7907,-201.9976 570.5724,-200.7429 359,-200.7429"/>
<polygon fill="#000000" stroke="#000000" points="973.814,-286.7218 973.5867,-294.7185 971.9873,-294.6731 972.2146,-286.6763 973.814,-286.7218"/>
<polyline fill="none" stroke="#000000" points="974.5,-290.7429 970.5016,-290.6292 "/>
<ellipse fill="none" stroke="#000000" cx="967.3029" cy="-290.5383" rx="3.2" ry="3.2"/>
</g>
<!-- profiles&#45;&gt;addresses -->
<g id="edge17" class="edge">
<title>profiles:w&#45;&gt;addresses:e</title>
<path fill="none" stroke="#000000" d="M136.3458,-406.6879C121.4307,-420.714 129.0646,-459.7429 101.5,-459.7429"/>
<polygon fill="#000000" stroke="#000000" points="142.4781,-404.4671 151.2259,-405.1278 146.239,-403.105 150,-401.7429 150,-401.7429 150,-401.7429 146.239,-403.105 148.7741,-398.358 142.4781,-404.4671 142.4781,-404.4671"/>
<ellipse fill="none" stroke="#000000" cx="139.4693" cy="-405.5568" rx="3.2" ry="3.2"/>
</g>
<!-- provider_locations&#45;&gt;companies -->
<g id="edge20" class="edge">
<title>provider_locations:w&#45;&gt;companies:e</title>
<path fill="none" stroke="#000000" d="M861.8167,-585.8816C757.6886,-587.8125 703.6214,-608.1041 626,-531.7429 569.3978,-476.0596 664.9005,-357.7429 585.5,-357.7429"/>
<polygon fill="#000000" stroke="#000000" points="868.5004,-585.8185 876.534,-589.3427 872.5002,-585.7807 876.5,-585.7429 876.5,-585.7429 876.5,-585.7429 872.5002,-585.7807 876.466,-582.1431 868.5004,-585.8185 868.5004,-585.8185"/>
<ellipse fill="none" stroke="#000000" cx="865.3005" cy="-585.8488" rx="3.2" ry="3.2"/>
</g>
<!-- provider_locations&#45;&gt;addresses -->
<g id="edge18" class="edge">
<title>provider_locations:w&#45;&gt;addresses:e</title>
<path fill="none" stroke="#000000" d="M861.9704,-563.7151C704.9658,-563.1078 660.5096,-552.7429 496.5,-552.7429 496.5,-552.7429 496.5,-552.7429 319,-552.7429 213.8673,-552.7429 206.6327,-459.7429 101.5,-459.7429"/>
<polygon fill="#000000" stroke="#000000" points="868.5,-563.7275 876.4931,-567.3429 872.5,-563.7352 876.5,-563.7429 876.5,-563.7429 876.5,-563.7429 872.5,-563.7352 876.5069,-560.1429 868.5,-563.7275 868.5,-563.7275"/>
<ellipse fill="none" stroke="#000000" cx="865.3" cy="-563.7214" rx="3.2" ry="3.2"/>
</g>
<!-- provider_locations&#45;&gt;company_doing_business_as -->
<g id="edge19" class="edge">
<title>provider_locations:w&#45;&gt;company_doing_business_as:e</title>
<path fill="none" stroke="#000000" d="M862.7081,-537.0536C847.2137,-523.7531 852.8462,-486.7429 825.5,-486.7429"/>
<polygon fill="#000000" stroke="#000000" points="868.9258,-539.1676 875.3411,-545.1513 872.7129,-540.4553 876.5,-541.7429 876.5,-541.7429 876.5,-541.7429 872.7129,-540.4553 877.6589,-538.3345 868.9258,-539.1676 868.9258,-539.1676"/>
<ellipse fill="none" stroke="#000000" cx="865.8961" cy="-538.1375" rx="3.2" ry="3.2"/>
</g>
<!-- professional_locations -->
<g id="node11" class="node">
<title>professional_locations</title>
<g id="a_node11"><a xlink:href="../../tables/professional_locations.html" xlink:title="professional_locations" target="_top">
<polygon fill="#ffffff" stroke="transparent" points="1259.5,-500.7429 1259.5,-586.7429 1410.5,-586.7429 1410.5,-500.7429 1259.5,-500.7429"/>
<polygon fill="#f5f5f5" stroke="transparent" points="1260,-563.7429 1260,-586.7429 1411,-586.7429 1411,-563.7429 1260,-563.7429"/>
<polygon fill="none" stroke="#000000" points="1260,-563.7429 1260,-586.7429 1411,-586.7429 1411,-563.7429 1260,-563.7429"/>
<text text-anchor="start" x="1264.5984" y="-572.8429" font-family="Helvetica,sans-Serif" font-weight="bold" font-size="11.00" fill="#000000">professional_locations</text>
<text text-anchor="start" x="1376.5219" y="-571.8429" font-family="Helvetica,sans-Serif" font-size="11.00" fill="#000000">[table]</text>
<polygon fill="none" stroke="#000000" points="1260,-541.7429 1260,-563.7429 1411,-563.7429 1411,-541.7429 1260,-541.7429"/>
<image xlink:href="../../images/primaryKeys.png" width="11px" height="12px" preserveAspectRatio="xMinYMin meet" x="1265" y="-558.743"/>
<text text-anchor="start" x="1280" y="-548.8429" font-family="Helvetica,sans-Serif" font-size="11.00" fill="#000000">professional_id</text>
<polygon fill="none" stroke="#000000" points="1260,-519.7429 1260,-541.7429 1411,-541.7429 1411,-519.7429 1260,-519.7429"/>
<image xlink:href="../../images/primaryKeys.png" width="11px" height="12px" preserveAspectRatio="xMinYMin meet" x="1265" y="-536.743"/>
<text text-anchor="start" x="1280" y="-526.8429" font-family="Helvetica,sans-Serif" font-size="11.00" fill="#000000">provider_location_id</text>
<polygon fill="#ffffff" stroke="transparent" points="1260,-500.7429 1260,-519.7429 1321,-519.7429 1321,-500.7429 1260,-500.7429"/>
<polygon fill="none" stroke="#000000" points="1260,-500.7429 1260,-519.7429 1321,-519.7429 1321,-500.7429 1260,-500.7429"/>
<text text-anchor="start" x="1263" y="-506.8429" font-family="Helvetica,sans-Serif" font-size="11.00" fill="#000000">&lt; 2</text>
<polygon fill="#ffffff" stroke="transparent" points="1321,-500.7429 1321,-519.7429 1379,-519.7429 1379,-500.7429 1321,-500.7429"/>
<polygon fill="none" stroke="#000000" points="1321,-500.7429 1321,-519.7429 1379,-519.7429 1379,-500.7429 1321,-500.7429"/>
<text text-anchor="start" x="1343.6105" y="-506.8429" font-family="Helvetica,sans-Serif" font-size="11.00" fill="#000000">0 rows</text>
<polygon fill="#ffffff" stroke="transparent" points="1379,-500.7429 1379,-519.7429 1411,-519.7429 1411,-500.7429 1379,-500.7429"/>
<polygon fill="none" stroke="#000000" points="1379,-500.7429 1379,-519.7429 1411,-519.7429 1411,-500.7429 1379,-500.7429"/>
<text text-anchor="start" x="1401.8862" y="-506.8429" font-family="Helvetica,sans-Serif" font-size="11.00" fill="#000000"> &#160;</text>
</a>
</g>
</g>
<!-- professional_locations&#45;&gt;professionals -->
<g id="edge14" class="edge">
<title>professional_locations:w&#45;&gt;professionals:e</title>
<path fill="none" stroke="#000000" d="M1245.5833,-551.4027C1187.8773,-539.4188 1231.6943,-449.7151 1189,-389.7429 1151.3312,-336.83 1146.4516,-290.7429 1081.5,-290.7429"/>
<polygon fill="#000000" stroke="#000000" points="1252.0343,-552.0023 1259.6667,-556.3274 1256.0172,-552.3726 1260,-552.7429 1260,-552.7429 1260,-552.7429 1256.0172,-552.3726 1260.3333,-549.1583 1252.0343,-552.0023 1252.0343,-552.0023"/>
<ellipse fill="none" stroke="#000000" cx="1248.8481" cy="-551.7061" rx="3.2" ry="3.2"/>
</g>
<!-- professional_locations&#45;&gt;provider_locations -->
<g id="edge15" class="edge">
<title>professional_locations:w&#45;&gt;provider_locations:e</title>
<path fill="none" stroke="#000000" d="M1245.5956,-533.4834C1213.8131,-547.2001 1223.4012,-607.7429 1179.5,-607.7429"/>
<polygon fill="#000000" stroke="#000000" points="1252.141,-532.2381 1260.6729,-534.2795 1256.0705,-531.4905 1260,-530.7429 1260,-530.7429 1260,-530.7429 1256.0705,-531.4905 1259.3271,-527.2063 1252.141,-532.2381 1252.141,-532.2381"/>
<ellipse fill="none" stroke="#000000" cx="1248.9974" cy="-532.8362" rx="3.2" ry="3.2"/>
</g>
<!-- responsible_persons -->
<g id="node12" class="node">
<title>responsible_persons</title>
<g id="a_node12"><a xlink:href="../../tables/responsible_persons.html" xlink:title="responsible_persons" target="_top">
<polygon fill="#ffffff" stroke="transparent" points="1489,-193.2429 1489,-254.2429 1633,-254.2429 1633,-193.2429 1489,-193.2429"/>
<polygon fill="#f5f5f5" stroke="transparent" points="1489,-230.7429 1489,-253.7429 1633,-253.7429 1633,-230.7429 1489,-230.7429"/>
<polygon fill="none" stroke="#000000" points="1489,-230.7429 1489,-253.7429 1633,-253.7429 1633,-230.7429 1489,-230.7429"/>
<text text-anchor="start" x="1493.7653" y="-239.8429" font-family="Helvetica,sans-Serif" font-weight="bold" font-size="11.00" fill="#000000">responsible_persons</text>
<text text-anchor="start" x="1598.5219" y="-238.8429" font-family="Helvetica,sans-Serif" font-size="11.00" fill="#000000">[table]</text>
<polygon fill="none" stroke="#000000" points="1489,-211.7429 1489,-230.7429 1633,-230.7429 1633,-211.7429 1489,-211.7429"/>
<text text-anchor="start" x="1492" y="-217.8429" font-family="Helvetica,sans-Serif" font-size="11.00" fill="#000000">...</text>
<polygon fill="#ffffff" stroke="transparent" points="1489,-192.7429 1489,-211.7429 1546,-211.7429 1546,-192.7429 1489,-192.7429"/>
<polygon fill="none" stroke="#000000" points="1489,-192.7429 1489,-211.7429 1546,-211.7429 1546,-192.7429 1489,-192.7429"/>
<text text-anchor="start" x="1492" y="-198.8429" font-family="Helvetica,sans-Serif" font-size="11.00" fill="#000000">&lt; 2</text>
<polygon fill="#ffffff" stroke="transparent" points="1546,-192.7429 1546,-211.7429 1602,-211.7429 1602,-192.7429 1546,-192.7429"/>
<polygon fill="none" stroke="#000000" points="1546,-192.7429 1546,-211.7429 1602,-211.7429 1602,-192.7429 1546,-192.7429"/>
<text text-anchor="start" x="1566.6105" y="-198.8429" font-family="Helvetica,sans-Serif" font-size="11.00" fill="#000000">0 rows</text>
<polygon fill="#ffffff" stroke="transparent" points="1602,-192.7429 1602,-211.7429 1633,-211.7429 1633,-192.7429 1602,-192.7429"/>
<polygon fill="none" stroke="#000000" points="1602,-192.7429 1602,-211.7429 1633,-211.7429 1633,-192.7429 1602,-192.7429"/>
<text text-anchor="start" x="1623.8862" y="-198.8429" font-family="Helvetica,sans-Serif" font-size="11.00" fill="#000000"> &#160;</text>
</a>
</g>
</g>
<!-- responsible_persons&#45;&gt;users -->
<g id="edge22" class="edge">
<title>responsible_persons:w&#45;&gt;users:e</title>
<path fill="none" stroke="#000000" d="M1474.5105,-218.1738C1439.9735,-202.7852 1492.0798,-122.3542 1448,-88.7429 1299.3037,24.6395 1214.4924,-74.7429 1027.5,-74.7429 1027.5,-74.7429 1027.5,-74.7429 729.5,-74.7429 581.6962,-74.7429 520.3822,-33.9868 400,-119.7429 367.1368,-143.1535 399.3491,-200.7429 359,-200.7429"/>
<polygon fill="#000000" stroke="#000000" points="1481.1229,-219.3462 1488.3715,-224.2876 1485.0614,-220.0445 1489,-220.7429 1489,-220.7429 1489,-220.7429 1485.0614,-220.0445 1489.6285,-217.1982 1481.1229,-219.3462 1481.1229,-219.3462"/>
<ellipse fill="none" stroke="#000000" cx="1477.972" cy="-218.7875" rx="3.2" ry="3.2"/>
</g>
<!-- responsible_persons&#45;&gt;patients -->
<g id="edge21" class="edge">
<title>responsible_persons:w&#45;&gt;patients:e</title>
<path fill="none" stroke="#000000" d="M1474.7968,-223.6793C1433.9257,-244.3975 1503.0836,-367.7429 1440,-367.7429"/>
<polygon fill="#000000" stroke="#000000" points="1481.1657,-222.3626 1489.7289,-224.2683 1485.0828,-221.5528 1489,-220.7429 1489,-220.7429 1489,-220.7429 1485.0828,-221.5528 1488.2711,-217.2174 1481.1657,-222.3626 1481.1657,-222.3626"/>
<ellipse fill="none" stroke="#000000" cx="1478.0319" cy="-223.0105" rx="3.2" ry="3.2"/>
</g>
</g>
</svg>
