<?xml version="1.0" encoding="UTF-8" standalone="no"?>
<!DOCTYPE svg PUBLIC "-//W3C//DTD SVG 1.1//EN"
 "http://www.w3.org/Graphics/SVG/1.1/DTD/svg11.dtd">
<!-- Generated by graphviz version 2.40.1 (20161225.0304)
 -->
<!-- Title: oneDegreeRelationshipsDiagram Pages: 1 -->
<svg width="1198pt" height="461pt"
 viewBox="0.00 0.00 1198.00 460.70" xmlns="http://www.w3.org/2000/svg" xmlns:xlink="http://www.w3.org/1999/xlink">
<g id="graph0" class="graph" transform="scale(1 1) rotate(0) translate(4 456.7)">
<title>oneDegreeRelationshipsDiagram</title>
<polygon fill="#ffffff" stroke="transparent" points="-4,4 -4,-456.7 1194,-456.7 1194,4 -4,4"/>
<text text-anchor="middle" x="72.4936" y="-7.3" font-family="Helvetica,sans-Serif" font-size="11.00" fill="#000000">Generated by SchemaSpy</text>
<!-- companies -->
<g id="node1" class="node">
<title>companies</title>
<g id="a_node1"><a xlink:href="../../tables/companies.html" xlink:title="companies" target="_top">
<polygon fill="#ffffff" stroke="transparent" points="150,-255.7 150,-382.7 327,-382.7 327,-255.7 150,-255.7"/>
<polygon fill="#f5f5f5" stroke="transparent" points="150.5,-359.2 150.5,-382.2 327.5,-382.2 327.5,-359.2 150.5,-359.2"/>
<polygon fill="none" stroke="#000000" points="150.5,-359.2 150.5,-382.2 327.5,-382.2 327.5,-359.2 150.5,-359.2"/>
<text text-anchor="start" x="155.5" y="-368.3" font-family="Helvetica,sans-Serif" font-weight="bold" font-size="11.00" fill="#000000">companies</text>
<text text-anchor="start" x="292.5437" y="-367.3" font-family="Helvetica,sans-Serif" font-size="11.00" fill="#000000">[table]</text>
<polygon fill="none" stroke="#000000" points="150.5,-337.2 150.5,-359.2 327.5,-359.2 327.5,-337.2 150.5,-337.2"/>
<image xlink:href="../../images/primaryKeys.png" width="11px" height="12px" preserveAspectRatio="xMinYMin meet" x="155.5" y="-354.2"/>
<text text-anchor="start" x="170.5" y="-344.3" font-family="Helvetica,sans-Serif" font-size="11.00" fill="#000000">id</text>
<polygon fill="none" stroke="#000000" points="150.5,-315.2 150.5,-337.2 327.5,-337.2 327.5,-315.2 150.5,-315.2"/>
<image xlink:href="../../images/foreignKeys.png" width="11px" height="12px" preserveAspectRatio="xMinYMin meet" x="155.5" y="-332.2"/>
<text text-anchor="start" x="170.5" y="-322.3" font-family="Helvetica,sans-Serif" font-size="11.00" fill="#000000">physical_address_id</text>
<polygon fill="none" stroke="#000000" points="150.5,-293.2 150.5,-315.2 327.5,-315.2 327.5,-293.2 150.5,-293.2"/>
<image xlink:href="../../images/foreignKeys.png" width="11px" height="12px" preserveAspectRatio="xMinYMin meet" x="155.5" y="-310.2"/>
<text text-anchor="start" x="170.5" y="-300.3" font-family="Helvetica,sans-Serif" font-size="11.00" fill="#000000">created_by_user_id</text>
<polygon fill="none" stroke="#000000" points="150.5,-274.2 150.5,-293.2 327.5,-293.2 327.5,-274.2 150.5,-274.2"/>
<text text-anchor="start" x="153.5" y="-280.3" font-family="Helvetica,sans-Serif" font-size="11.00" fill="#000000">...</text>
<polygon fill="#ffffff" stroke="transparent" points="150.5,-255.2 150.5,-274.2 219.5,-274.2 219.5,-255.2 150.5,-255.2"/>
<polygon fill="none" stroke="#000000" points="150.5,-255.2 150.5,-274.2 219.5,-274.2 219.5,-255.2 150.5,-255.2"/>
<text text-anchor="start" x="153.5" y="-261.3" font-family="Helvetica,sans-Serif" font-size="11.00" fill="#000000">&lt; 2</text>
<polygon fill="#ffffff" stroke="transparent" points="219.5,-255.2 219.5,-274.2 281.5,-274.2 281.5,-255.2 219.5,-255.2"/>
<polygon fill="none" stroke="#000000" points="219.5,-255.2 219.5,-274.2 281.5,-274.2 281.5,-255.2 219.5,-255.2"/>
<text text-anchor="start" x="246.1105" y="-261.3" font-family="Helvetica,sans-Serif" font-size="11.00" fill="#000000">0 rows</text>
<polygon fill="#ffffff" stroke="transparent" points="281.5,-255.2 281.5,-274.2 327.5,-274.2 327.5,-255.2 281.5,-255.2"/>
<polygon fill="none" stroke="#000000" points="281.5,-255.2 281.5,-274.2 327.5,-274.2 327.5,-255.2 281.5,-255.2"/>
<text text-anchor="start" x="308.9053" y="-261.3" font-family="Helvetica,sans-Serif" font-size="11.00" fill="#000000">4 &gt;</text>
</a>
</g>
</g>
<!-- addresses -->
<g id="node2" class="node">
<title>addresses</title>
<g id="a_node2"><a xlink:href="../../tables/addresses.html" xlink:title="addresses" target="_top">
<polygon fill="#ffffff" stroke="transparent" points="8,-229.7 8,-312.7 101,-312.7 101,-229.7 8,-229.7"/>
<polygon fill="#f5f5f5" stroke="transparent" points="8.5,-289.2 8.5,-312.2 101.5,-312.2 101.5,-289.2 8.5,-289.2"/>
<polygon fill="none" stroke="#000000" points="8.5,-289.2 8.5,-312.2 101.5,-312.2 101.5,-289.2 8.5,-289.2"/>
<text text-anchor="start" x="13.1318" y="-298.3" font-family="Helvetica,sans-Serif" font-weight="bold" font-size="11.00" fill="#000000">addresses</text>
<text text-anchor="start" x="67.0219" y="-297.3" font-family="Helvetica,sans-Serif" font-size="11.00" fill="#000000">[table]</text>
<polygon fill="none" stroke="#000000" points="8.5,-267.2 8.5,-289.2 101.5,-289.2 101.5,-267.2 8.5,-267.2"/>
<image xlink:href="../../images/primaryKeys.png" width="11px" height="12px" preserveAspectRatio="xMinYMin meet" x="13.5" y="-284.2"/>
<text text-anchor="start" x="32.5" y="-274.3" font-family="Helvetica,sans-Serif" font-size="11.00" fill="#000000">id</text>
<polygon fill="none" stroke="#000000" points="8.5,-248.2 8.5,-267.2 101.5,-267.2 101.5,-248.2 8.5,-248.2"/>
<text text-anchor="start" x="11.5" y="-254.3" font-family="Helvetica,sans-Serif" font-size="11.00" fill="#000000">...</text>
<polygon fill="#ffffff" stroke="transparent" points="8.5,-229.2 8.5,-248.2 31.5,-248.2 31.5,-229.2 8.5,-229.2"/>
<polygon fill="none" stroke="#000000" points="8.5,-229.2 8.5,-248.2 31.5,-248.2 31.5,-229.2 8.5,-229.2"/>
<text text-anchor="start" x="11.5" y="-235.3" font-family="Helvetica,sans-Serif" font-size="11.00" fill="#000000"> &#160;</text>
<polygon fill="#ffffff" stroke="transparent" points="31.5,-229.2 31.5,-248.2 74.5,-248.2 74.5,-229.2 31.5,-229.2"/>
<polygon fill="none" stroke="#000000" points="31.5,-229.2 31.5,-248.2 74.5,-248.2 74.5,-229.2 31.5,-229.2"/>
<text text-anchor="start" x="39.1105" y="-235.3" font-family="Helvetica,sans-Serif" font-size="11.00" fill="#000000">0 rows</text>
<polygon fill="#ffffff" stroke="transparent" points="74.5,-229.2 74.5,-248.2 101.5,-248.2 101.5,-229.2 74.5,-229.2"/>
<polygon fill="none" stroke="#000000" points="74.5,-229.2 74.5,-248.2 101.5,-248.2 101.5,-229.2 74.5,-229.2"/>
<text text-anchor="start" x="82.9053" y="-235.3" font-family="Helvetica,sans-Serif" font-size="11.00" fill="#000000">3 &gt;</text>
</a>
</g>
</g>
<!-- companies&#45;&gt;addresses -->
<g id="edge1" class="edge">
<title>companies:w&#45;&gt;addresses:e</title>
<path fill="none" stroke="#000000" d="M136.8634,-321.4221C123.071,-309.2811 126.0315,-278.2 101.5,-278.2"/>
<polygon fill="#000000" stroke="#000000" points="142.95,-323.5546 149.3096,-329.5975 146.725,-324.8773 150.5,-326.2 150.5,-326.2 150.5,-326.2 146.725,-324.8773 151.6904,-322.8025 142.95,-323.5546 142.95,-323.5546"/>
<ellipse fill="none" stroke="#000000" cx="139.93" cy="-322.4965" rx="3.2" ry="3.2"/>
</g>
<!-- company_doing_business_as -->
<g id="node3" class="node">
<title>company_doing_business_as</title>
<g id="a_node3"><a xlink:href="../../tables/company_doing_business_as.html" xlink:title="company_doing_business_as" target="_top">
<polygon fill="#ffffff" stroke="transparent" points="376,-101.7 376,-206.7 567,-206.7 567,-101.7 376,-101.7"/>
<polygon fill="#f5f5f5" stroke="transparent" points="376.5,-183.2 376.5,-206.2 567.5,-206.2 567.5,-183.2 376.5,-183.2"/>
<polygon fill="none" stroke="#000000" points="376.5,-183.2 376.5,-206.2 567.5,-206.2 567.5,-183.2 376.5,-183.2"/>
<text text-anchor="start" x="381.5" y="-192.3" font-family="Helvetica,sans-Serif" font-weight="bold" font-size="11.00" fill="#000000">company_doing_business_as</text>
<text text-anchor="start" x="532.5437" y="-191.3" font-family="Helvetica,sans-Serif" font-size="11.00" fill="#000000">[table]</text>
<polygon fill="none" stroke="#000000" points="376.5,-161.2 376.5,-183.2 567.5,-183.2 567.5,-161.2 376.5,-161.2"/>
<image xlink:href="../../images/primaryKeys.png" width="11px" height="12px" preserveAspectRatio="xMinYMin meet" x="381.5" y="-178.2"/>
<text text-anchor="start" x="396.5" y="-168.3" font-family="Helvetica,sans-Serif" font-size="11.00" fill="#000000">id</text>
<polygon fill="none" stroke="#000000" points="376.5,-139.2 376.5,-161.2 567.5,-161.2 567.5,-139.2 376.5,-139.2"/>
<image xlink:href="../../images/foreignKeys.png" width="11px" height="12px" preserveAspectRatio="xMinYMin meet" x="381.5" y="-156.2"/>
<text text-anchor="start" x="396.5" y="-146.3" font-family="Helvetica,sans-Serif" font-size="11.00" fill="#000000">company_id</text>
<polygon fill="none" stroke="#000000" points="376.5,-120.2 376.5,-139.2 567.5,-139.2 567.5,-120.2 376.5,-120.2"/>
<text text-anchor="start" x="379.5" y="-126.3" font-family="Helvetica,sans-Serif" font-size="11.00" fill="#000000">...</text>
<polygon fill="#ffffff" stroke="transparent" points="376.5,-101.2 376.5,-120.2 452.5,-120.2 452.5,-101.2 376.5,-101.2"/>
<polygon fill="none" stroke="#000000" points="376.5,-101.2 376.5,-120.2 452.5,-120.2 452.5,-101.2 376.5,-101.2"/>
<text text-anchor="start" x="379.5" y="-107.3" font-family="Helvetica,sans-Serif" font-size="11.00" fill="#000000">&lt; 1</text>
<polygon fill="#ffffff" stroke="transparent" points="452.5,-101.2 452.5,-120.2 518.5,-120.2 518.5,-101.2 452.5,-101.2"/>
<polygon fill="none" stroke="#000000" points="452.5,-101.2 452.5,-120.2 518.5,-120.2 518.5,-101.2 452.5,-101.2"/>
<text text-anchor="start" x="483.1105" y="-107.3" font-family="Helvetica,sans-Serif" font-size="11.00" fill="#000000">0 rows</text>
<polygon fill="#ffffff" stroke="transparent" points="518.5,-101.2 518.5,-120.2 567.5,-120.2 567.5,-101.2 518.5,-101.2"/>
<polygon fill="none" stroke="#000000" points="518.5,-101.2 518.5,-120.2 567.5,-120.2 567.5,-101.2 518.5,-101.2"/>
<text text-anchor="start" x="548.9053" y="-107.3" font-family="Helvetica,sans-Serif" font-size="11.00" fill="#000000">1 &gt;</text>
</a>
</g>
</g>
<!-- company_doing_business_as&#45;&gt;companies -->
<g id="edge2" class="edge">
<title>company_doing_business_as:w&#45;&gt;companies:e</title>
<path fill="none" stroke="#000000" d="M362.0062,-152.4236C301.513,-174.1766 412.4888,-348.2 327.5,-348.2"/>
<polygon fill="#000000" stroke="#000000" points="368.5925,-151.4132 377.0459,-153.7584 372.5463,-150.8066 376.5,-150.2 376.5,-150.2 376.5,-150.2 372.5463,-150.8066 375.9541,-146.6416 368.5925,-151.4132 368.5925,-151.4132"/>
<ellipse fill="none" stroke="#000000" cx="365.4295" cy="-151.8985" rx="3.2" ry="3.2"/>
</g>
<!-- patients -->
<g id="node4" class="node">
<title>patients</title>
<g id="a_node4"><a xlink:href="../../tables/patients.html" xlink:title="patients" target="_top">
<polygon fill="#ffffff" stroke="transparent" points="972,-145.7 972,-448.7 1182,-448.7 1182,-145.7 972,-145.7"/>
<polygon fill="#f5f5f5" stroke="transparent" points="972,-425.2 972,-448.2 1182,-448.2 1182,-425.2 972,-425.2"/>
<polygon fill="none" stroke="#000000" points="972,-425.2 972,-448.2 1182,-448.2 1182,-425.2 972,-425.2"/>
<text text-anchor="start" x="977" y="-434.3" font-family="Helvetica,sans-Serif" font-weight="bold" font-size="11.00" fill="#000000">patients</text>
<text text-anchor="start" x="1147.0437" y="-433.3" font-family="Helvetica,sans-Serif" font-size="11.00" fill="#000000">[table]</text>
<polygon fill="none" stroke="#000000" points="972,-403.2 972,-425.2 1182,-425.2 1182,-403.2 972,-403.2"/>
<image xlink:href="../../images/primaryKeys.png" width="11px" height="12px" preserveAspectRatio="xMinYMin meet" x="977" y="-420.2"/>
<text text-anchor="start" x="992" y="-410.3" font-family="Helvetica,sans-Serif" font-size="11.00" fill="#000000">id</text>
<polygon fill="none" stroke="#000000" points="972,-381.2 972,-403.2 1182,-403.2 1182,-381.2 972,-381.2"/>
<image xlink:href="../../images/foreignKeys.png" width="11px" height="12px" preserveAspectRatio="xMinYMin meet" x="977" y="-398.2"/>
<text text-anchor="start" x="992" y="-388.3" font-family="Helvetica,sans-Serif" font-size="11.00" fill="#000000">profile_id</text>
<polygon fill="none" stroke="#000000" points="972,-359.2 972,-381.2 1182,-381.2 1182,-359.2 972,-359.2"/>
<image xlink:href="../../images/foreignKeys.png" width="11px" height="12px" preserveAspectRatio="xMinYMin meet" x="977" y="-376.2"/>
<text text-anchor="start" x="992" y="-366.3" font-family="Helvetica,sans-Serif" font-size="11.00" fill="#000000">user_id</text>
<polygon fill="none" stroke="#000000" points="972,-337.2 972,-359.2 1182,-359.2 1182,-337.2 972,-337.2"/>
<image xlink:href="../../images/foreignKeys.png" width="11px" height="12px" preserveAspectRatio="xMinYMin meet" x="977" y="-354.2"/>
<text text-anchor="start" x="992" y="-344.3" font-family="Helvetica,sans-Serif" font-size="11.00" fill="#000000">company_id</text>
<polygon fill="none" stroke="#000000" points="972,-315.2 972,-337.2 1182,-337.2 1182,-315.2 972,-315.2"/>
<image xlink:href="../../images/foreignKeys.png" width="11px" height="12px" preserveAspectRatio="xMinYMin meet" x="977" y="-332.2"/>
<text text-anchor="start" x="992" y="-322.3" font-family="Helvetica,sans-Serif" font-size="11.00" fill="#000000">provider_location_id</text>
<polygon fill="none" stroke="#000000" points="972,-293.2 972,-315.2 1182,-315.2 1182,-293.2 972,-293.2"/>
<image xlink:href="../../images/foreignKeys.png" width="11px" height="12px" preserveAspectRatio="xMinYMin meet" x="977" y="-310.2"/>
<text text-anchor="start" x="992" y="-300.3" font-family="Helvetica,sans-Serif" font-size="11.00" fill="#000000">professional_id</text>
<polygon fill="#ffffff" stroke="transparent" points="972,-271.2 972,-293.2 1182,-293.2 1182,-271.2 972,-271.2"/>
<polygon fill="none" stroke="#000000" points="972,-271.2 972,-293.2 1182,-293.2 1182,-271.2 972,-271.2"/>
<text text-anchor="start" x="992" y="-278.3" font-family="Helvetica,sans-Serif" font-size="11.00" fill="#000000">insurance_policy_id</text>
<polygon fill="none" stroke="#000000" points="972,-249.2 972,-271.2 1182,-271.2 1182,-249.2 972,-249.2"/>
<image xlink:href="../../images/foreignKeys.png" width="11px" height="12px" preserveAspectRatio="xMinYMin meet" x="977" y="-266.2"/>
<text text-anchor="start" x="992" y="-256.3" font-family="Helvetica,sans-Serif" font-size="11.00" fill="#000000">main_member_id</text>
<polygon fill="none" stroke="#000000" points="972,-227.2 972,-249.2 1182,-249.2 1182,-227.2 972,-227.2"/>
<image xlink:href="../../images/foreignKeys.png" width="11px" height="12px" preserveAspectRatio="xMinYMin meet" x="977" y="-244.2"/>
<text text-anchor="start" x="992" y="-234.3" font-family="Helvetica,sans-Serif" font-size="11.00" fill="#000000">relationship_to_main_member</text>
<polygon fill="none" stroke="#000000" points="972,-205.2 972,-227.2 1182,-227.2 1182,-205.2 972,-205.2"/>
<image xlink:href="../../images/foreignKeys.png" width="11px" height="12px" preserveAspectRatio="xMinYMin meet" x="977" y="-222.2"/>
<text text-anchor="start" x="992" y="-212.3" font-family="Helvetica,sans-Serif" font-size="11.00" fill="#000000">accepted_agreement_by_user_id</text>
<polygon fill="none" stroke="#000000" points="972,-183.2 972,-205.2 1182,-205.2 1182,-183.2 972,-183.2"/>
<image xlink:href="../../images/foreignKeys.png" width="11px" height="12px" preserveAspectRatio="xMinYMin meet" x="977" y="-200.2"/>
<text text-anchor="start" x="992" y="-190.3" font-family="Helvetica,sans-Serif" font-size="11.00" fill="#000000">created_by_user_id</text>
<polygon fill="none" stroke="#000000" points="972,-164.2 972,-183.2 1182,-183.2 1182,-164.2 972,-164.2"/>
<text text-anchor="start" x="975" y="-170.3" font-family="Helvetica,sans-Serif" font-size="11.00" fill="#000000">...</text>
<polygon fill="#ffffff" stroke="transparent" points="972,-145.2 972,-164.2 1058,-164.2 1058,-145.2 972,-145.2"/>
<polygon fill="none" stroke="#000000" points="972,-145.2 972,-164.2 1058,-164.2 1058,-145.2 972,-145.2"/>
<text text-anchor="start" x="975" y="-151.3" font-family="Helvetica,sans-Serif" font-size="11.00" fill="#000000">&lt; 9</text>
<polygon fill="#ffffff" stroke="transparent" points="1058,-145.2 1058,-164.2 1128,-164.2 1128,-145.2 1058,-145.2"/>
<polygon fill="none" stroke="#000000" points="1058,-145.2 1058,-164.2 1128,-164.2 1128,-145.2 1058,-145.2"/>
<text text-anchor="start" x="1092.6105" y="-151.3" font-family="Helvetica,sans-Serif" font-size="11.00" fill="#000000">0 rows</text>
<polygon fill="#ffffff" stroke="transparent" points="1128,-145.2 1128,-164.2 1182,-164.2 1182,-145.2 1128,-145.2"/>
<polygon fill="none" stroke="#000000" points="1128,-145.2 1128,-164.2 1182,-164.2 1182,-145.2 1128,-145.2"/>
<text text-anchor="start" x="1163.4053" y="-151.3" font-family="Helvetica,sans-Serif" font-size="11.00" fill="#000000">2 &gt;</text>
</a>
</g>
</g>
<!-- patients&#45;&gt;companies -->
<g id="edge3" class="edge">
<title>patients:w&#45;&gt;companies:e</title>
<path fill="none" stroke="#000000" d="M957.5002,-348.2C683.0452,-348.2 609.0492,-348.2 327.5,-348.2"/>
<polygon fill="#000000" stroke="#000000" points="964,-348.2001 972,-351.8 968,-348.2 972,-348.2 972,-348.2 972,-348.2 968,-348.2 972,-344.6 964,-348.2001 964,-348.2001"/>
<ellipse fill="none" stroke="#000000" cx="960.8" cy="-348.2001" rx="3.2" ry="3.2"/>
</g>
<!-- provider_locations -->
<g id="node5" class="node">
<title>provider_locations</title>
<g id="a_node5"><a xlink:href="../../tables/provider_locations.html" xlink:title="provider_locations" target="_top">
<polygon fill="#ffffff" stroke="transparent" points="616,-67.2 616,-311.2 923,-311.2 923,-67.2 616,-67.2"/>
<polygon fill="#f5f5f5" stroke="transparent" points="618.5,-286.2 618.5,-309.2 921.5,-309.2 921.5,-286.2 618.5,-286.2"/>
<polygon fill="none" stroke="#000000" points="618.5,-286.2 618.5,-309.2 921.5,-309.2 921.5,-286.2 618.5,-286.2"/>
<text text-anchor="start" x="623.5" y="-295.3" font-family="Helvetica,sans-Serif" font-weight="bold" font-size="11.00" fill="#000000">provider_locations</text>
<text text-anchor="start" x="886.5437" y="-294.3" font-family="Helvetica,sans-Serif" font-size="11.00" fill="#000000">[table]</text>
<polygon fill="none" stroke="#000000" points="618.5,-264.2 618.5,-286.2 827.5,-286.2 827.5,-264.2 618.5,-264.2"/>
<image xlink:href="../../images/primaryKeys.png" width="11px" height="12px" preserveAspectRatio="xMinYMin meet" x="623.5" y="-281.2"/>
<text text-anchor="start" x="638.5" y="-271.3" font-family="Helvetica,sans-Serif" font-size="11.00" fill="#000000">id</text>
<polygon fill="none" stroke="#000000" points="827.5,-264.2 827.5,-286.2 921.5,-286.2 921.5,-264.2 827.5,-264.2"/>
<text text-anchor="start" x="830.4758" y="-271.9" font-family="Helvetica,sans-Serif" font-size="11.00" fill="#000000">uuid[2147483647]</text>
<polygon fill="none" stroke="#000000" points="618.5,-242.2 618.5,-264.2 827.5,-264.2 827.5,-242.2 618.5,-242.2"/>
<image xlink:href="../../images/foreignKeys.png" width="11px" height="12px" preserveAspectRatio="xMinYMin meet" x="623.5" y="-259.2"/>
<text text-anchor="start" x="638.5" y="-249.3" font-family="Helvetica,sans-Serif" font-size="11.00" fill="#000000">company_id</text>
<polygon fill="none" stroke="#000000" points="827.5,-242.2 827.5,-264.2 921.5,-264.2 921.5,-242.2 827.5,-242.2"/>
<text text-anchor="start" x="830.4758" y="-249.9" font-family="Helvetica,sans-Serif" font-size="11.00" fill="#000000">uuid[2147483647]</text>
<polygon fill="none" stroke="#000000" points="618.5,-220.2 618.5,-242.2 827.5,-242.2 827.5,-220.2 618.5,-220.2"/>
<image xlink:href="../../images/foreignKeys.png" width="11px" height="12px" preserveAspectRatio="xMinYMin meet" x="623.5" y="-237.2"/>
<text text-anchor="start" x="638.5" y="-227.3" font-family="Helvetica,sans-Serif" font-size="11.00" fill="#000000">address_id</text>
<polygon fill="none" stroke="#000000" points="827.5,-220.2 827.5,-242.2 921.5,-242.2 921.5,-220.2 827.5,-220.2"/>
<text text-anchor="start" x="830.4758" y="-227.9" font-family="Helvetica,sans-Serif" font-size="11.00" fill="#000000">uuid[2147483647]</text>
<polygon fill="none" stroke="#000000" points="618.5,-198.2 618.5,-220.2 827.5,-220.2 827.5,-198.2 618.5,-198.2"/>
<image xlink:href="../../images/foreignKeys.png" width="11px" height="12px" preserveAspectRatio="xMinYMin meet" x="623.5" y="-215.2"/>
<text text-anchor="start" x="638.5" y="-205.3" font-family="Helvetica,sans-Serif" font-size="11.00" fill="#000000">company_doing_business_as_id</text>
<polygon fill="none" stroke="#000000" points="827.5,-198.2 827.5,-220.2 921.5,-220.2 921.5,-198.2 827.5,-198.2"/>
<text text-anchor="start" x="830.4758" y="-205.9" font-family="Helvetica,sans-Serif" font-size="11.00" fill="#000000">uuid[2147483647]</text>
<polygon fill="none" stroke="#000000" points="618.5,-176.2 618.5,-198.2 827.5,-198.2 827.5,-176.2 618.5,-176.2"/>
<text text-anchor="start" x="638.5" y="-183.3" font-family="Helvetica,sans-Serif" font-size="11.00" fill="#000000">website</text>
<polygon fill="none" stroke="#000000" points="827.5,-176.2 827.5,-198.2 921.5,-198.2 921.5,-176.2 827.5,-176.2"/>
<text text-anchor="start" x="830.5" y="-183.9" font-family="Helvetica,sans-Serif" font-size="11.00" fill="#000000">text[2147483647]</text>
<polygon fill="none" stroke="#000000" points="618.5,-154.2 618.5,-176.2 827.5,-176.2 827.5,-154.2 618.5,-154.2"/>
<text text-anchor="start" x="638.5" y="-161.3" font-family="Helvetica,sans-Serif" font-size="11.00" fill="#000000">phone_number</text>
<polygon fill="none" stroke="#000000" points="827.5,-154.2 827.5,-176.2 921.5,-176.2 921.5,-154.2 827.5,-154.2"/>
<text text-anchor="start" x="830.5" y="-161.9" font-family="Helvetica,sans-Serif" font-size="11.00" fill="#000000">text[2147483647]</text>
<polygon fill="none" stroke="#000000" points="618.5,-132.2 618.5,-154.2 827.5,-154.2 827.5,-132.2 618.5,-132.2"/>
<text text-anchor="start" x="638.5" y="-139.3" font-family="Helvetica,sans-Serif" font-size="11.00" fill="#000000">created_at</text>
<polygon fill="none" stroke="#000000" points="827.5,-132.2 827.5,-154.2 921.5,-154.2 921.5,-132.2 827.5,-132.2"/>
<text text-anchor="start" x="830.5" y="-139.9" font-family="Helvetica,sans-Serif" font-size="11.00" fill="#000000">timestamptz[35,6]</text>
<polygon fill="none" stroke="#000000" points="618.5,-110.2 618.5,-132.2 827.5,-132.2 827.5,-110.2 618.5,-110.2"/>
<text text-anchor="start" x="638.5" y="-117.3" font-family="Helvetica,sans-Serif" font-size="11.00" fill="#000000">updated_at</text>
<polygon fill="none" stroke="#000000" points="827.5,-110.2 827.5,-132.2 921.5,-132.2 921.5,-110.2 827.5,-110.2"/>
<text text-anchor="start" x="830.5" y="-117.9" font-family="Helvetica,sans-Serif" font-size="11.00" fill="#000000">timestamptz[35,6]</text>
<polygon fill="none" stroke="#000000" points="618.5,-88.2 618.5,-110.2 827.5,-110.2 827.5,-88.2 618.5,-88.2"/>
<text text-anchor="start" x="638.5" y="-95.3" font-family="Helvetica,sans-Serif" font-size="11.00" fill="#000000">deleted_at</text>
<polygon fill="none" stroke="#000000" points="827.5,-88.2 827.5,-110.2 921.5,-110.2 921.5,-88.2 827.5,-88.2"/>
<text text-anchor="start" x="830.5" y="-95.9" font-family="Helvetica,sans-Serif" font-size="11.00" fill="#000000">timestamptz[35,6]</text>
<polygon fill="#ffffff" stroke="transparent" points="618.5,-69.2 618.5,-88.2 714.5,-88.2 714.5,-69.2 618.5,-69.2"/>
<polygon fill="none" stroke="#000000" points="618.5,-69.2 618.5,-88.2 714.5,-88.2 714.5,-69.2 618.5,-69.2"/>
<text text-anchor="start" x="621.5" y="-75.3" font-family="Helvetica,sans-Serif" font-size="11.00" fill="#000000">&lt; 3</text>
<polygon fill="#ffffff" stroke="transparent" points="714.5,-69.2 714.5,-88.2 827.5,-88.2 827.5,-69.2 714.5,-69.2"/>
<polygon fill="none" stroke="#000000" points="714.5,-69.2 714.5,-88.2 827.5,-88.2 827.5,-69.2 714.5,-69.2"/>
<text text-anchor="start" x="792.1105" y="-75.3" font-family="Helvetica,sans-Serif" font-size="11.00" fill="#000000">0 rows</text>
<polygon fill="#ffffff" stroke="transparent" points="827.5,-69.2 827.5,-88.2 921.5,-88.2 921.5,-69.2 827.5,-69.2"/>
<polygon fill="none" stroke="#000000" points="827.5,-69.2 827.5,-88.2 921.5,-88.2 921.5,-69.2 827.5,-69.2"/>
<text text-anchor="start" x="902.9053" y="-75.3" font-family="Helvetica,sans-Serif" font-size="11.00" fill="#000000">2 &gt;</text>
<polygon fill="none" stroke="#000000" stroke-width="2" points="617,-68.2 617,-310.2 922,-310.2 922,-68.2 617,-68.2"/>
</a>
</g>
</g>
<!-- patients&#45;&gt;provider_locations -->
<g id="edge4" class="edge">
<title>patients:w&#45;&gt;provider_locations:e</title>
<path fill="none" stroke="#000000" d="M958.2279,-321.4935C943.4989,-308.868 947.4177,-275.2 921.5,-275.2"/>
<polygon fill="#000000" stroke="#000000" points="964.4298,-323.6129 970.8358,-329.6066 968.2149,-324.9065 972,-326.2 972,-326.2 972,-326.2 968.2149,-324.9065 973.1642,-322.7934 964.4298,-323.6129 964.4298,-323.6129"/>
<ellipse fill="none" stroke="#000000" cx="961.4018" cy="-322.5781" rx="3.2" ry="3.2"/>
</g>
<!-- provider_locations&#45;&gt;companies -->
<g id="edge8" class="edge">
<title>provider_locations:w&#45;&gt;companies:e</title>
<path fill="none" stroke="#000000" d="M604.2629,-255.5483C544.3404,-270.1775 358.324,-348.2 327.5,-348.2"/>
<polygon fill="#000000" stroke="#000000" points="610.6067,-254.502 619.0859,-256.752 614.5533,-253.851 618.5,-253.2 618.5,-253.2 618.5,-253.2 614.5533,-253.851 617.9141,-249.648 610.6067,-254.502 610.6067,-254.502"/>
<ellipse fill="none" stroke="#000000" cx="607.4493" cy="-255.0228" rx="3.2" ry="3.2"/>
</g>
<!-- provider_locations&#45;&gt;addresses -->
<g id="edge6" class="edge">
<title>provider_locations:w&#45;&gt;addresses:e</title>
<path fill="none" stroke="#000000" d="M603.9552,-231.0793C489.5688,-229.3363 237.0067,-209.8139 142,-245.2 120.2415,-253.3042 124.7188,-278.2 101.5,-278.2"/>
<polygon fill="#000000" stroke="#000000" points="610.5003,-231.1336 618.4701,-234.7999 614.5001,-231.1668 618.5,-231.2 618.5,-231.2 618.5,-231.2 614.5001,-231.1668 618.5299,-227.6001 610.5003,-231.1336 610.5003,-231.1336"/>
<ellipse fill="none" stroke="#000000" cx="607.3004" cy="-231.107" rx="3.2" ry="3.2"/>
</g>
<!-- provider_locations&#45;&gt;company_doing_business_as -->
<g id="edge7" class="edge">
<title>provider_locations:w&#45;&gt;company_doing_business_as:e</title>
<path fill="none" stroke="#000000" d="M604.5658,-204.9556C591.14,-195.2369 589.5965,-172.2 567.5,-172.2"/>
<polygon fill="#000000" stroke="#000000" points="610.8471,-206.8689 617.451,-212.6438 614.6736,-208.0345 618.5,-209.2 618.5,-209.2 618.5,-209.2 614.6736,-208.0345 619.549,-205.7562 610.8471,-206.8689 610.8471,-206.8689"/>
<ellipse fill="none" stroke="#000000" cx="607.786" cy="-205.9365" rx="3.2" ry="3.2"/>
</g>
<!-- professional_locations -->
<g id="node6" class="node">
<title>professional_locations</title>
<g id="a_node6"><a xlink:href="../../tables/professional_locations.html" xlink:title="professional_locations" target="_top">
<polygon fill="#ffffff" stroke="transparent" points="1001.5,-38.2 1001.5,-124.2 1152.5,-124.2 1152.5,-38.2 1001.5,-38.2"/>
<polygon fill="#f5f5f5" stroke="transparent" points="1002,-101.2 1002,-124.2 1153,-124.2 1153,-101.2 1002,-101.2"/>
<polygon fill="none" stroke="#000000" points="1002,-101.2 1002,-124.2 1153,-124.2 1153,-101.2 1002,-101.2"/>
<text text-anchor="start" x="1006.5984" y="-110.3" font-family="Helvetica,sans-Serif" font-weight="bold" font-size="11.00" fill="#000000">professional_locations</text>
<text text-anchor="start" x="1118.5219" y="-109.3" font-family="Helvetica,sans-Serif" font-size="11.00" fill="#000000">[table]</text>
<polygon fill="none" stroke="#000000" points="1002,-79.2 1002,-101.2 1153,-101.2 1153,-79.2 1002,-79.2"/>
<image xlink:href="../../images/primaryKeys.png" width="11px" height="12px" preserveAspectRatio="xMinYMin meet" x="1007" y="-96.2"/>
<text text-anchor="start" x="1022" y="-86.3" font-family="Helvetica,sans-Serif" font-size="11.00" fill="#000000">professional_id</text>
<polygon fill="none" stroke="#000000" points="1002,-57.2 1002,-79.2 1153,-79.2 1153,-57.2 1002,-57.2"/>
<image xlink:href="../../images/primaryKeys.png" width="11px" height="12px" preserveAspectRatio="xMinYMin meet" x="1007" y="-74.2"/>
<text text-anchor="start" x="1022" y="-64.3" font-family="Helvetica,sans-Serif" font-size="11.00" fill="#000000">provider_location_id</text>
<polygon fill="#ffffff" stroke="transparent" points="1002,-38.2 1002,-57.2 1063,-57.2 1063,-38.2 1002,-38.2"/>
<polygon fill="none" stroke="#000000" points="1002,-38.2 1002,-57.2 1063,-57.2 1063,-38.2 1002,-38.2"/>
<text text-anchor="start" x="1005" y="-44.3" font-family="Helvetica,sans-Serif" font-size="11.00" fill="#000000">&lt; 2</text>
<polygon fill="#ffffff" stroke="transparent" points="1063,-38.2 1063,-57.2 1121,-57.2 1121,-38.2 1063,-38.2"/>
<polygon fill="none" stroke="#000000" points="1063,-38.2 1063,-57.2 1121,-57.2 1121,-38.2 1063,-38.2"/>
<text text-anchor="start" x="1085.6105" y="-44.3" font-family="Helvetica,sans-Serif" font-size="11.00" fill="#000000">0 rows</text>
<polygon fill="#ffffff" stroke="transparent" points="1121,-38.2 1121,-57.2 1153,-57.2 1153,-38.2 1121,-38.2"/>
<polygon fill="none" stroke="#000000" points="1121,-38.2 1121,-57.2 1153,-57.2 1153,-38.2 1121,-38.2"/>
<text text-anchor="start" x="1143.8862" y="-44.3" font-family="Helvetica,sans-Serif" font-size="11.00" fill="#000000"> &#160;</text>
</a>
</g>
</g>
<!-- professional_locations&#45;&gt;provider_locations -->
<g id="edge5" class="edge">
<title>professional_locations:w&#45;&gt;provider_locations:e</title>
<path fill="none" stroke="#000000" d="M987.9035,-71.1485C970.4256,-80.2964 975.1789,-109.1473 964,-135.2 938.3589,-194.9573 986.5261,-275.2 921.5,-275.2"/>
<polygon fill="#000000" stroke="#000000" points="994.1695,-69.8379 1002.7371,-71.7237 998.0847,-69.019 1002,-68.2 1002,-68.2 1002,-68.2 998.0847,-69.019 1001.2629,-64.6763 994.1695,-69.8379 994.1695,-69.8379"/>
<ellipse fill="none" stroke="#000000" cx="991.0372" cy="-70.4931" rx="3.2" ry="3.2"/>
</g>
</g>
</svg>
