<?xml version="1.0" encoding="UTF-8" standalone="no"?>
<!DOCTYPE svg PUBLIC "-//W3C//DTD SVG 1.1//EN"
 "http://www.w3.org/Graphics/SVG/1.1/DTD/svg11.dtd">
<!-- Generated by graphviz version 2.40.1 (20161225.0304)
 -->
<!-- Title: oneDegreeRelationshipsDiagram Pages: 1 -->
<svg width="472pt" height="353pt"
 viewBox="0.00 0.00 472.00 353.20" xmlns="http://www.w3.org/2000/svg" xmlns:xlink="http://www.w3.org/1999/xlink">
<g id="graph0" class="graph" transform="scale(1 1) rotate(0) translate(4 349.2)">
<title>oneDegreeRelationshipsDiagram</title>
<polygon fill="#ffffff" stroke="transparent" points="-4,4 -4,-349.2 468,-349.2 468,4 -4,4"/>
<text text-anchor="middle" x="72.4936" y="-7.3" font-family="Helvetica,sans-Serif" font-size="11.00" fill="#000000">Generated by SchemaSpy</text>
<!-- patients -->
<g id="node1" class="node">
<title>patients</title>
<g id="a_node1"><a xlink:href="../../tables/patients.html" xlink:title="patients" target="_top">
<polygon fill="#ffffff" stroke="transparent" points="246,-38.2 246,-341.2 456,-341.2 456,-38.2 246,-38.2"/>
<polygon fill="#f5f5f5" stroke="transparent" points="246,-317.7 246,-340.7 456,-340.7 456,-317.7 246,-317.7"/>
<polygon fill="none" stroke="#000000" points="246,-317.7 246,-340.7 456,-340.7 456,-317.7 246,-317.7"/>
<text text-anchor="start" x="251" y="-326.8" font-family="Helvetica,sans-Serif" font-weight="bold" font-size="11.00" fill="#000000">patients</text>
<text text-anchor="start" x="421.0437" y="-325.8" font-family="Helvetica,sans-Serif" font-size="11.00" fill="#000000">[table]</text>
<polygon fill="none" stroke="#000000" points="246,-295.7 246,-317.7 456,-317.7 456,-295.7 246,-295.7"/>
<image xlink:href="../../images/primaryKeys.png" width="11px" height="12px" preserveAspectRatio="xMinYMin meet" x="251" y="-312.7"/>
<text text-anchor="start" x="266" y="-302.8" font-family="Helvetica,sans-Serif" font-size="11.00" fill="#000000">id</text>
<polygon fill="none" stroke="#000000" points="246,-273.7 246,-295.7 456,-295.7 456,-273.7 246,-273.7"/>
<image xlink:href="../../images/foreignKeys.png" width="11px" height="12px" preserveAspectRatio="xMinYMin meet" x="251" y="-290.7"/>
<text text-anchor="start" x="266" y="-280.8" font-family="Helvetica,sans-Serif" font-size="11.00" fill="#000000">profile_id</text>
<polygon fill="none" stroke="#000000" points="246,-251.7 246,-273.7 456,-273.7 456,-251.7 246,-251.7"/>
<image xlink:href="../../images/foreignKeys.png" width="11px" height="12px" preserveAspectRatio="xMinYMin meet" x="251" y="-268.7"/>
<text text-anchor="start" x="266" y="-258.8" font-family="Helvetica,sans-Serif" font-size="11.00" fill="#000000">user_id</text>
<polygon fill="none" stroke="#000000" points="246,-229.7 246,-251.7 456,-251.7 456,-229.7 246,-229.7"/>
<image xlink:href="../../images/foreignKeys.png" width="11px" height="12px" preserveAspectRatio="xMinYMin meet" x="251" y="-246.7"/>
<text text-anchor="start" x="266" y="-236.8" font-family="Helvetica,sans-Serif" font-size="11.00" fill="#000000">company_id</text>
<polygon fill="none" stroke="#000000" points="246,-207.7 246,-229.7 456,-229.7 456,-207.7 246,-207.7"/>
<image xlink:href="../../images/foreignKeys.png" width="11px" height="12px" preserveAspectRatio="xMinYMin meet" x="251" y="-224.7"/>
<text text-anchor="start" x="266" y="-214.8" font-family="Helvetica,sans-Serif" font-size="11.00" fill="#000000">provider_location_id</text>
<polygon fill="none" stroke="#000000" points="246,-185.7 246,-207.7 456,-207.7 456,-185.7 246,-185.7"/>
<image xlink:href="../../images/foreignKeys.png" width="11px" height="12px" preserveAspectRatio="xMinYMin meet" x="251" y="-202.7"/>
<text text-anchor="start" x="266" y="-192.8" font-family="Helvetica,sans-Serif" font-size="11.00" fill="#000000">professional_id</text>
<polygon fill="#ffffff" stroke="transparent" points="246,-163.7 246,-185.7 456,-185.7 456,-163.7 246,-163.7"/>
<polygon fill="none" stroke="#000000" points="246,-163.7 246,-185.7 456,-185.7 456,-163.7 246,-163.7"/>
<text text-anchor="start" x="266" y="-170.8" font-family="Helvetica,sans-Serif" font-size="11.00" fill="#000000">insurance_policy_id</text>
<polygon fill="none" stroke="#000000" points="246,-141.7 246,-163.7 456,-163.7 456,-141.7 246,-141.7"/>
<image xlink:href="../../images/foreignKeys.png" width="11px" height="12px" preserveAspectRatio="xMinYMin meet" x="251" y="-158.7"/>
<text text-anchor="start" x="266" y="-148.8" font-family="Helvetica,sans-Serif" font-size="11.00" fill="#000000">main_member_id</text>
<polygon fill="none" stroke="#000000" points="246,-119.7 246,-141.7 456,-141.7 456,-119.7 246,-119.7"/>
<image xlink:href="../../images/foreignKeys.png" width="11px" height="12px" preserveAspectRatio="xMinYMin meet" x="251" y="-136.7"/>
<text text-anchor="start" x="266" y="-126.8" font-family="Helvetica,sans-Serif" font-size="11.00" fill="#000000">relationship_to_main_member</text>
<polygon fill="none" stroke="#000000" points="246,-97.7 246,-119.7 456,-119.7 456,-97.7 246,-97.7"/>
<image xlink:href="../../images/foreignKeys.png" width="11px" height="12px" preserveAspectRatio="xMinYMin meet" x="251" y="-114.7"/>
<text text-anchor="start" x="266" y="-104.8" font-family="Helvetica,sans-Serif" font-size="11.00" fill="#000000">accepted_agreement_by_user_id</text>
<polygon fill="none" stroke="#000000" points="246,-75.7 246,-97.7 456,-97.7 456,-75.7 246,-75.7"/>
<image xlink:href="../../images/foreignKeys.png" width="11px" height="12px" preserveAspectRatio="xMinYMin meet" x="251" y="-92.7"/>
<text text-anchor="start" x="266" y="-82.8" font-family="Helvetica,sans-Serif" font-size="11.00" fill="#000000">created_by_user_id</text>
<polygon fill="none" stroke="#000000" points="246,-56.7 246,-75.7 456,-75.7 456,-56.7 246,-56.7"/>
<text text-anchor="start" x="249" y="-62.8" font-family="Helvetica,sans-Serif" font-size="11.00" fill="#000000">...</text>
<polygon fill="#ffffff" stroke="transparent" points="246,-37.7 246,-56.7 332,-56.7 332,-37.7 246,-37.7"/>
<polygon fill="none" stroke="#000000" points="246,-37.7 246,-56.7 332,-56.7 332,-37.7 246,-37.7"/>
<text text-anchor="start" x="249" y="-43.8" font-family="Helvetica,sans-Serif" font-size="11.00" fill="#000000">&lt; 9</text>
<polygon fill="#ffffff" stroke="transparent" points="332,-37.7 332,-56.7 402,-56.7 402,-37.7 332,-37.7"/>
<polygon fill="none" stroke="#000000" points="332,-37.7 332,-56.7 402,-56.7 402,-37.7 332,-37.7"/>
<text text-anchor="start" x="366.6105" y="-43.8" font-family="Helvetica,sans-Serif" font-size="11.00" fill="#000000">0 rows</text>
<polygon fill="#ffffff" stroke="transparent" points="402,-37.7 402,-56.7 456,-56.7 456,-37.7 402,-37.7"/>
<polygon fill="none" stroke="#000000" points="402,-37.7 402,-56.7 456,-56.7 456,-37.7 402,-37.7"/>
<text text-anchor="start" x="437.4053" y="-43.8" font-family="Helvetica,sans-Serif" font-size="11.00" fill="#000000">2 &gt;</text>
</a>
</g>
</g>
<!-- relationships -->
<g id="node2" class="node">
<title>relationships</title>
<g id="a_node2"><a xlink:href="../../tables/relationships.html" xlink:title="relationships" target="_top">
<polygon fill="#ffffff" stroke="transparent" points="8,-98.7 8,-166.7 197,-166.7 197,-98.7 8,-98.7"/>
<polygon fill="#f5f5f5" stroke="transparent" points="10.5,-141.7 10.5,-164.7 195.5,-164.7 195.5,-141.7 10.5,-141.7"/>
<polygon fill="none" stroke="#000000" points="10.5,-141.7 10.5,-164.7 195.5,-164.7 195.5,-141.7 10.5,-141.7"/>
<text text-anchor="start" x="15.5" y="-150.8" font-family="Helvetica,sans-Serif" font-weight="bold" font-size="11.00" fill="#000000">relationships</text>
<text text-anchor="start" x="160.5437" y="-149.8" font-family="Helvetica,sans-Serif" font-size="11.00" fill="#000000">[table]</text>
<polygon fill="none" stroke="#000000" points="10.5,-119.7 10.5,-141.7 105.5,-141.7 105.5,-119.7 10.5,-119.7"/>
<image xlink:href="../../images/primaryKeys.png" width="11px" height="12px" preserveAspectRatio="xMinYMin meet" x="15.5" y="-136.7"/>
<text text-anchor="start" x="30.5" y="-126.8" font-family="Helvetica,sans-Serif" font-size="11.00" fill="#000000">name</text>
<polygon fill="none" stroke="#000000" points="105.5,-119.7 105.5,-141.7 195.5,-141.7 195.5,-119.7 105.5,-119.7"/>
<text text-anchor="start" x="108.0042" y="-127.4" font-family="Helvetica,sans-Serif" font-size="11.00" fill="#000000">text[2147483647]</text>
<polygon fill="#ffffff" stroke="transparent" points="10.5,-100.7 10.5,-119.7 49.5,-119.7 49.5,-100.7 10.5,-100.7"/>
<polygon fill="none" stroke="#000000" points="10.5,-100.7 10.5,-119.7 49.5,-119.7 49.5,-100.7 10.5,-100.7"/>
<text text-anchor="start" x="13.5" y="-106.8" font-family="Helvetica,sans-Serif" font-size="11.00" fill="#000000">&lt; 0</text>
<polygon fill="#ffffff" stroke="transparent" points="49.5,-100.7 49.5,-119.7 105.5,-119.7 105.5,-100.7 49.5,-100.7"/>
<polygon fill="none" stroke="#000000" points="49.5,-100.7 49.5,-119.7 105.5,-119.7 105.5,-100.7 49.5,-100.7"/>
<text text-anchor="start" x="70.1105" y="-106.8" font-family="Helvetica,sans-Serif" font-size="11.00" fill="#000000">0 rows</text>
<polygon fill="#ffffff" stroke="transparent" points="105.5,-100.7 105.5,-119.7 195.5,-119.7 195.5,-100.7 105.5,-100.7"/>
<polygon fill="none" stroke="#000000" points="105.5,-100.7 105.5,-119.7 195.5,-119.7 195.5,-100.7 105.5,-100.7"/>
<text text-anchor="start" x="176.9053" y="-106.8" font-family="Helvetica,sans-Serif" font-size="11.00" fill="#000000">1 &gt;</text>
<polygon fill="none" stroke="#000000" stroke-width="2" points="9,-99.7 9,-165.7 196,-165.7 196,-99.7 9,-99.7"/>
</a>
</g>
</g>
<!-- patients&#45;&gt;relationships -->
<g id="edge1" class="edge">
<title>patients:w&#45;&gt;relationships:e</title>
<path fill="none" stroke="#000000" d="M231.4203,-130.7C219.5435,-130.7 212.158,-130.7 195.5,-130.7"/>
<polygon fill="#000000" stroke="#000000" points="238,-130.7001 246,-134.3 242,-130.7 246,-130.7 246,-130.7 246,-130.7 242,-130.7 246,-127.1 238,-130.7001 238,-130.7001"/>
<ellipse fill="none" stroke="#000000" cx="234.8" cy="-130.7001" rx="3.2" ry="3.2"/>
</g>
</g>
</svg>
