<?xml version="1.0" encoding="UTF-8" standalone="no"?>
<!DOCTYPE svg PUBLIC "-//W3C//DTD SVG 1.1//EN"
 "http://www.w3.org/Graphics/SVG/1.1/DTD/svg11.dtd">
<!-- Generated by graphviz version 2.40.1 (20161225.0304)
 -->
<!-- Title: twoDegreesRelationshipsDiagram Pages: 1 -->
<svg width="1079pt" height="401pt"
 viewBox="0.00 0.00 1079.00 401.46" xmlns="http://www.w3.org/2000/svg" xmlns:xlink="http://www.w3.org/1999/xlink">
<g id="graph0" class="graph" transform="scale(1 1) rotate(0) translate(4 397.4583)">
<title>twoDegreesRelationshipsDiagram</title>
<polygon fill="#ffffff" stroke="transparent" points="-4,4 -4,-397.4583 1075,-397.4583 1075,4 -4,4"/>
<text text-anchor="middle" x="72.4936" y="-7.3" font-family="Helvetica,sans-Serif" font-size="11.00" fill="#000000">Generated by SchemaSpy</text>
<!-- companies -->
<g id="node1" class="node">
<title>companies</title>
<g id="a_node1"><a xlink:href="../../tables/companies.html" xlink:title="companies" target="_top">
<polygon fill="#ffffff" stroke="transparent" points="271.5,-260.2912 271.5,-321.2912 367.5,-321.2912 367.5,-260.2912 271.5,-260.2912"/>
<polygon fill="#f5f5f5" stroke="transparent" points="271.5,-297.7912 271.5,-320.7912 367.5,-320.7912 367.5,-297.7912 271.5,-297.7912"/>
<polygon fill="none" stroke="#000000" points="271.5,-297.7912 271.5,-320.7912 367.5,-320.7912 367.5,-297.7912 271.5,-297.7912"/>
<text text-anchor="start" x="276.4114" y="-306.8912" font-family="Helvetica,sans-Serif" font-weight="bold" font-size="11.00" fill="#000000">companies</text>
<text text-anchor="start" x="333.0219" y="-305.8912" font-family="Helvetica,sans-Serif" font-size="11.00" fill="#000000">[table]</text>
<polygon fill="none" stroke="#000000" points="271.5,-278.7912 271.5,-297.7912 367.5,-297.7912 367.5,-278.7912 271.5,-278.7912"/>
<text text-anchor="start" x="274.5" y="-284.8912" font-family="Helvetica,sans-Serif" font-size="11.00" fill="#000000">...</text>
<polygon fill="#ffffff" stroke="transparent" points="271.5,-259.7912 271.5,-278.7912 300.5,-278.7912 300.5,-259.7912 271.5,-259.7912"/>
<polygon fill="none" stroke="#000000" points="271.5,-259.7912 271.5,-278.7912 300.5,-278.7912 300.5,-259.7912 271.5,-259.7912"/>
<text text-anchor="start" x="274.5" y="-265.8912" font-family="Helvetica,sans-Serif" font-size="11.00" fill="#000000">&lt; 2</text>
<polygon fill="#ffffff" stroke="transparent" points="300.5,-259.7912 300.5,-278.7912 342.5,-278.7912 342.5,-259.7912 300.5,-259.7912"/>
<polygon fill="none" stroke="#000000" points="300.5,-259.7912 300.5,-278.7912 342.5,-278.7912 342.5,-259.7912 300.5,-259.7912"/>
<text text-anchor="start" x="307.1105" y="-265.8912" font-family="Helvetica,sans-Serif" font-size="11.00" fill="#000000">0 rows</text>
<polygon fill="#ffffff" stroke="transparent" points="342.5,-259.7912 342.5,-278.7912 367.5,-278.7912 367.5,-259.7912 342.5,-259.7912"/>
<polygon fill="none" stroke="#000000" points="342.5,-259.7912 342.5,-278.7912 367.5,-278.7912 367.5,-259.7912 342.5,-259.7912"/>
<text text-anchor="start" x="348.9053" y="-265.8912" font-family="Helvetica,sans-Serif" font-size="11.00" fill="#000000">4 &gt;</text>
</a>
</g>
</g>
<!-- users -->
<g id="node2" class="node">
<title>users</title>
<g id="a_node2"><a xlink:href="../../tables/users.html" xlink:title="users" target="_top">
<polygon fill="#ffffff" stroke="transparent" points="137,-178.2912 137,-239.2912 217,-239.2912 217,-178.2912 137,-178.2912"/>
<polygon fill="#f5f5f5" stroke="transparent" points="137,-215.7912 137,-238.7912 217,-238.7912 217,-215.7912 137,-215.7912"/>
<polygon fill="none" stroke="#000000" points="137,-215.7912 137,-238.7912 217,-238.7912 217,-215.7912 137,-215.7912"/>
<text text-anchor="start" x="142" y="-224.8912" font-family="Helvetica,sans-Serif" font-weight="bold" font-size="11.00" fill="#000000">users</text>
<text text-anchor="start" x="182.0437" y="-223.8912" font-family="Helvetica,sans-Serif" font-size="11.00" fill="#000000">[table]</text>
<polygon fill="none" stroke="#000000" points="137,-196.7912 137,-215.7912 217,-215.7912 217,-196.7912 137,-196.7912"/>
<text text-anchor="start" x="140" y="-202.8912" font-family="Helvetica,sans-Serif" font-size="11.00" fill="#000000">...</text>
<polygon fill="#ffffff" stroke="transparent" points="137,-177.7912 137,-196.7912 158,-196.7912 158,-177.7912 137,-177.7912"/>
<polygon fill="none" stroke="#000000" points="137,-177.7912 137,-196.7912 158,-196.7912 158,-177.7912 137,-177.7912"/>
<text text-anchor="start" x="139.7027" y="-183.8912" font-family="Helvetica,sans-Serif" font-size="11.00" fill="#000000">&lt; 1</text>
<polygon fill="#ffffff" stroke="transparent" points="158,-177.7912 158,-196.7912 196,-196.7912 196,-177.7912 158,-177.7912"/>
<polygon fill="none" stroke="#000000" points="158,-177.7912 158,-196.7912 196,-196.7912 196,-177.7912 158,-177.7912"/>
<text text-anchor="start" x="160.8053" y="-183.8912" font-family="Helvetica,sans-Serif" font-size="11.00" fill="#000000">0 rows</text>
<polygon fill="#ffffff" stroke="transparent" points="196,-177.7912 196,-196.7912 217,-196.7912 217,-177.7912 196,-177.7912"/>
<polygon fill="none" stroke="#000000" points="196,-177.7912 196,-196.7912 217,-196.7912 217,-177.7912 196,-177.7912"/>
<text text-anchor="start" x="198.7027" y="-183.8912" font-family="Helvetica,sans-Serif" font-size="11.00" fill="#000000">8 &gt;</text>
</a>
</g>
</g>
<!-- companies&#45;&gt;users -->
<g id="edge1" class="edge">
<title>companies:w&#45;&gt;users:e</title>
<path fill="none" stroke="#000000" d="M257.4647,-283.6121C235.3339,-266.9021 254.777,-205.7912 217,-205.7912"/>
<polygon fill="#000000" stroke="#000000" points="263.8327,-285.5082 270.4726,-291.2415 267.6663,-286.6497 271.5,-287.7912 271.5,-287.7912 271.5,-287.7912 267.6663,-286.6497 272.5274,-284.3409 263.8327,-285.5082 263.8327,-285.5082"/>
<ellipse fill="none" stroke="#000000" cx="260.7657" cy="-284.595" rx="3.2" ry="3.2"/>
</g>
<!-- profiles -->
<g id="node5" class="node">
<title>profiles</title>
<g id="a_node5"><a xlink:href="../../tables/profiles.html" xlink:title="profiles" target="_top">
<polygon fill="#ffffff" stroke="transparent" points="8,-268.2912 8,-329.2912 88,-329.2912 88,-268.2912 8,-268.2912"/>
<polygon fill="#f5f5f5" stroke="transparent" points="8,-305.7912 8,-328.7912 88,-328.7912 88,-305.7912 8,-305.7912"/>
<polygon fill="none" stroke="#000000" points="8,-305.7912 8,-328.7912 88,-328.7912 88,-305.7912 8,-305.7912"/>
<text text-anchor="start" x="13" y="-314.8912" font-family="Helvetica,sans-Serif" font-weight="bold" font-size="11.00" fill="#000000">profiles</text>
<text text-anchor="start" x="53.0437" y="-313.8912" font-family="Helvetica,sans-Serif" font-size="11.00" fill="#000000">[table]</text>
<polygon fill="none" stroke="#000000" points="8,-286.7912 8,-305.7912 88,-305.7912 88,-286.7912 8,-286.7912"/>
<text text-anchor="start" x="11" y="-292.8912" font-family="Helvetica,sans-Serif" font-size="11.00" fill="#000000">...</text>
<polygon fill="#ffffff" stroke="transparent" points="8,-267.7912 8,-286.7912 29,-286.7912 29,-267.7912 8,-267.7912"/>
<polygon fill="none" stroke="#000000" points="8,-267.7912 8,-286.7912 29,-286.7912 29,-267.7912 8,-267.7912"/>
<text text-anchor="start" x="10.7027" y="-273.8912" font-family="Helvetica,sans-Serif" font-size="11.00" fill="#000000">&lt; 3</text>
<polygon fill="#ffffff" stroke="transparent" points="29,-267.7912 29,-286.7912 67,-286.7912 67,-267.7912 29,-267.7912"/>
<polygon fill="none" stroke="#000000" points="29,-267.7912 29,-286.7912 67,-286.7912 67,-267.7912 29,-267.7912"/>
<text text-anchor="start" x="31.8053" y="-273.8912" font-family="Helvetica,sans-Serif" font-size="11.00" fill="#000000">0 rows</text>
<polygon fill="#ffffff" stroke="transparent" points="67,-267.7912 67,-286.7912 88,-286.7912 88,-267.7912 67,-267.7912"/>
<polygon fill="none" stroke="#000000" points="67,-267.7912 67,-286.7912 88,-286.7912 88,-267.7912 67,-267.7912"/>
<text text-anchor="start" x="69.7027" y="-273.8912" font-family="Helvetica,sans-Serif" font-size="11.00" fill="#000000">2 &gt;</text>
</a>
</g>
</g>
<!-- users&#45;&gt;profiles -->
<g id="edge14" class="edge">
<title>users:w&#45;&gt;profiles:e</title>
<path fill="none" stroke="#000000" d="M126.7194,-207.8401C98.3112,-221.2366 129.4523,-295.7912 88,-295.7912"/>
<polygon fill="#000000" stroke="#000000" points="135.4336,-202.0247 136.9973,-209.8705 135.4281,-210.1832 133.8645,-202.3375 135.4336,-202.0247"/>
<polyline fill="none" stroke="#000000" points="137,-205.7912 133.0771,-206.5731 "/>
<ellipse fill="none" stroke="#000000" cx="129.9389" cy="-207.1985" rx="3.2" ry="3.2"/>
</g>
<!-- patients -->
<g id="node3" class="node">
<title>patients</title>
<g id="a_node3"><a xlink:href="../../tables/patients.html" xlink:title="patients" target="_top">
<polygon fill="#ffffff" stroke="transparent" points="660,-76.2912 660,-379.2912 870,-379.2912 870,-76.2912 660,-76.2912"/>
<polygon fill="#f5f5f5" stroke="transparent" points="660,-355.7912 660,-378.7912 870,-378.7912 870,-355.7912 660,-355.7912"/>
<polygon fill="none" stroke="#000000" points="660,-355.7912 660,-378.7912 870,-378.7912 870,-355.7912 660,-355.7912"/>
<text text-anchor="start" x="665" y="-364.8912" font-family="Helvetica,sans-Serif" font-weight="bold" font-size="11.00" fill="#000000">patients</text>
<text text-anchor="start" x="835.0437" y="-363.8912" font-family="Helvetica,sans-Serif" font-size="11.00" fill="#000000">[table]</text>
<polygon fill="none" stroke="#000000" points="660,-333.7912 660,-355.7912 870,-355.7912 870,-333.7912 660,-333.7912"/>
<image xlink:href="../../images/primaryKeys.png" width="11px" height="12px" preserveAspectRatio="xMinYMin meet" x="665" y="-350.791"/>
<text text-anchor="start" x="680" y="-340.8912" font-family="Helvetica,sans-Serif" font-size="11.00" fill="#000000">id</text>
<polygon fill="none" stroke="#000000" points="660,-311.7912 660,-333.7912 870,-333.7912 870,-311.7912 660,-311.7912"/>
<image xlink:href="../../images/foreignKeys.png" width="11px" height="12px" preserveAspectRatio="xMinYMin meet" x="665" y="-328.791"/>
<text text-anchor="start" x="680" y="-318.8912" font-family="Helvetica,sans-Serif" font-size="11.00" fill="#000000">profile_id</text>
<polygon fill="none" stroke="#000000" points="660,-289.7912 660,-311.7912 870,-311.7912 870,-289.7912 660,-289.7912"/>
<image xlink:href="../../images/foreignKeys.png" width="11px" height="12px" preserveAspectRatio="xMinYMin meet" x="665" y="-306.791"/>
<text text-anchor="start" x="680" y="-296.8912" font-family="Helvetica,sans-Serif" font-size="11.00" fill="#000000">user_id</text>
<polygon fill="none" stroke="#000000" points="660,-267.7912 660,-289.7912 870,-289.7912 870,-267.7912 660,-267.7912"/>
<image xlink:href="../../images/foreignKeys.png" width="11px" height="12px" preserveAspectRatio="xMinYMin meet" x="665" y="-284.791"/>
<text text-anchor="start" x="680" y="-274.8912" font-family="Helvetica,sans-Serif" font-size="11.00" fill="#000000">company_id</text>
<polygon fill="none" stroke="#000000" points="660,-245.7912 660,-267.7912 870,-267.7912 870,-245.7912 660,-245.7912"/>
<image xlink:href="../../images/foreignKeys.png" width="11px" height="12px" preserveAspectRatio="xMinYMin meet" x="665" y="-262.791"/>
<text text-anchor="start" x="680" y="-252.8912" font-family="Helvetica,sans-Serif" font-size="11.00" fill="#000000">provider_location_id</text>
<polygon fill="none" stroke="#000000" points="660,-223.7912 660,-245.7912 870,-245.7912 870,-223.7912 660,-223.7912"/>
<image xlink:href="../../images/foreignKeys.png" width="11px" height="12px" preserveAspectRatio="xMinYMin meet" x="665" y="-240.791"/>
<text text-anchor="start" x="680" y="-230.8912" font-family="Helvetica,sans-Serif" font-size="11.00" fill="#000000">professional_id</text>
<polygon fill="#ffffff" stroke="transparent" points="660,-201.7912 660,-223.7912 870,-223.7912 870,-201.7912 660,-201.7912"/>
<polygon fill="none" stroke="#000000" points="660,-201.7912 660,-223.7912 870,-223.7912 870,-201.7912 660,-201.7912"/>
<text text-anchor="start" x="680" y="-208.8912" font-family="Helvetica,sans-Serif" font-size="11.00" fill="#000000">insurance_policy_id</text>
<polygon fill="none" stroke="#000000" points="660,-179.7912 660,-201.7912 870,-201.7912 870,-179.7912 660,-179.7912"/>
<image xlink:href="../../images/foreignKeys.png" width="11px" height="12px" preserveAspectRatio="xMinYMin meet" x="665" y="-196.791"/>
<text text-anchor="start" x="680" y="-186.8912" font-family="Helvetica,sans-Serif" font-size="11.00" fill="#000000">main_member_id</text>
<polygon fill="none" stroke="#000000" points="660,-157.7912 660,-179.7912 870,-179.7912 870,-157.7912 660,-157.7912"/>
<image xlink:href="../../images/foreignKeys.png" width="11px" height="12px" preserveAspectRatio="xMinYMin meet" x="665" y="-174.791"/>
<text text-anchor="start" x="680" y="-164.8912" font-family="Helvetica,sans-Serif" font-size="11.00" fill="#000000">relationship_to_main_member</text>
<polygon fill="none" stroke="#000000" points="660,-135.7912 660,-157.7912 870,-157.7912 870,-135.7912 660,-135.7912"/>
<image xlink:href="../../images/foreignKeys.png" width="11px" height="12px" preserveAspectRatio="xMinYMin meet" x="665" y="-152.791"/>
<text text-anchor="start" x="680" y="-142.8912" font-family="Helvetica,sans-Serif" font-size="11.00" fill="#000000">accepted_agreement_by_user_id</text>
<polygon fill="none" stroke="#000000" points="660,-113.7912 660,-135.7912 870,-135.7912 870,-113.7912 660,-113.7912"/>
<image xlink:href="../../images/foreignKeys.png" width="11px" height="12px" preserveAspectRatio="xMinYMin meet" x="665" y="-130.791"/>
<text text-anchor="start" x="680" y="-120.8912" font-family="Helvetica,sans-Serif" font-size="11.00" fill="#000000">created_by_user_id</text>
<polygon fill="none" stroke="#000000" points="660,-94.7912 660,-113.7912 870,-113.7912 870,-94.7912 660,-94.7912"/>
<text text-anchor="start" x="663" y="-100.8912" font-family="Helvetica,sans-Serif" font-size="11.00" fill="#000000">...</text>
<polygon fill="#ffffff" stroke="transparent" points="660,-75.7912 660,-94.7912 746,-94.7912 746,-75.7912 660,-75.7912"/>
<polygon fill="none" stroke="#000000" points="660,-75.7912 660,-94.7912 746,-94.7912 746,-75.7912 660,-75.7912"/>
<text text-anchor="start" x="663" y="-81.8912" font-family="Helvetica,sans-Serif" font-size="11.00" fill="#000000">&lt; 9</text>
<polygon fill="#ffffff" stroke="transparent" points="746,-75.7912 746,-94.7912 816,-94.7912 816,-75.7912 746,-75.7912"/>
<polygon fill="none" stroke="#000000" points="746,-75.7912 746,-94.7912 816,-94.7912 816,-75.7912 746,-75.7912"/>
<text text-anchor="start" x="780.6105" y="-81.8912" font-family="Helvetica,sans-Serif" font-size="11.00" fill="#000000">0 rows</text>
<polygon fill="#ffffff" stroke="transparent" points="816,-75.7912 816,-94.7912 870,-94.7912 870,-75.7912 816,-75.7912"/>
<polygon fill="none" stroke="#000000" points="816,-75.7912 816,-94.7912 870,-94.7912 870,-75.7912 816,-75.7912"/>
<text text-anchor="start" x="851.4053" y="-81.8912" font-family="Helvetica,sans-Serif" font-size="11.00" fill="#000000">2 &gt;</text>
</a>
</g>
</g>
<!-- patients&#45;&gt;companies -->
<g id="edge3" class="edge">
<title>patients:w&#45;&gt;companies:e</title>
<path fill="none" stroke="#000000" d="M646.2679,-283.5725C636.6735,-292.3538 636.5151,-310.7914 619,-317.7912 534.3952,-351.6033 501.3978,-343.5374 414,-317.7912 390.4079,-310.8413 392.0945,-287.7912 367.5,-287.7912"/>
<polygon fill="#000000" stroke="#000000" points="652.4449,-281.4218 661.1838,-282.191 656.2224,-280.1065 660,-278.7912 660,-278.7912 660,-278.7912 656.2224,-280.1065 658.8162,-275.3914 652.4449,-281.4218 652.4449,-281.4218"/>
<ellipse fill="none" stroke="#000000" cx="649.4228" cy="-282.4741" rx="3.2" ry="3.2"/>
</g>
<!-- patients&#45;&gt;users -->
<g id="edge2" class="edge">
<title>patients:w&#45;&gt;users:e</title>
<path fill="none" stroke="#000000" d="M646.1492,-142.6537C637.359,-136.2718 634.022,-124.2932 619,-119.7912 531.724,-93.6351 504.0982,-106.2434 414,-119.7912 342.2653,-130.5778 320.8453,-131.5601 258,-167.7912 236.4756,-180.2003 241.8452,-205.7912 217,-205.7912"/>
<polygon fill="#000000" stroke="#000000" points="652.3347,-144.5014 658.9696,-150.2406 656.1673,-145.6463 660,-146.7912 660,-146.7912 660,-146.7912 656.1673,-145.6463 661.0304,-143.3418 652.3347,-144.5014 652.3347,-144.5014"/>
<ellipse fill="none" stroke="#000000" cx="649.2686" cy="-143.5855" rx="3.2" ry="3.2"/>
</g>
<!-- patients&#45;&gt;users -->
<g id="edge4" class="edge">
<title>patients:w&#45;&gt;users:e</title>
<path fill="none" stroke="#000000" d="M646.0801,-120.9193C637.4266,-115.1928 633.488,-104.7198 619,-100.7912 541.4429,-79.7607 323.1548,-74.7568 258,-121.7912 224.3165,-146.1069 258.5431,-205.7912 217,-205.7912"/>
<polygon fill="#000000" stroke="#000000" points="652.2926,-122.6473 659.0352,-128.2596 656.1463,-123.7193 660,-124.7912 660,-124.7912 660,-124.7912 656.1463,-123.7193 660.9648,-121.3229 652.2926,-122.6473 652.2926,-122.6473"/>
<ellipse fill="none" stroke="#000000" cx="649.2097" cy="-121.7897" rx="3.2" ry="3.2"/>
</g>
<!-- patients&#45;&gt;users -->
<g id="edge9" class="edge">
<title>patients:w&#45;&gt;users:e</title>
<path fill="none" stroke="#000000" d="M646.3649,-305.4532C636.7609,-314.0148 636.3477,-331.9883 619,-338.7912 544.301,-368.0844 321.8502,-380.3832 258,-331.7912 211.1372,-296.1272 275.8901,-205.7912 217,-205.7912"/>
<polygon fill="#000000" stroke="#000000" points="652.4302,-303.3794 661.1647,-304.1976 656.2151,-302.0853 660,-300.7912 660,-300.7912 660,-300.7912 656.2151,-302.0853 658.8353,-297.3848 652.4302,-303.3794 652.4302,-303.3794"/>
<ellipse fill="none" stroke="#000000" cx="649.4023" cy="-304.4147" rx="3.2" ry="3.2"/>
</g>
<!-- professionals -->
<g id="node4" class="node">
<title>professionals</title>
<g id="a_node4"><a xlink:href="../../tables/professionals.html" xlink:title="professionals" target="_top">
<polygon fill="#ffffff" stroke="transparent" points="266,-178.2912 266,-239.2912 373,-239.2912 373,-178.2912 266,-178.2912"/>
<polygon fill="#f5f5f5" stroke="transparent" points="266.5,-215.7912 266.5,-238.7912 373.5,-238.7912 373.5,-215.7912 266.5,-215.7912"/>
<polygon fill="none" stroke="#000000" points="266.5,-215.7912 266.5,-238.7912 373.5,-238.7912 373.5,-215.7912 266.5,-215.7912"/>
<text text-anchor="start" x="271.105" y="-224.8912" font-family="Helvetica,sans-Serif" font-weight="bold" font-size="11.00" fill="#000000">professionals</text>
<text text-anchor="start" x="339.0219" y="-223.8912" font-family="Helvetica,sans-Serif" font-size="11.00" fill="#000000">[table]</text>
<polygon fill="none" stroke="#000000" points="266.5,-196.7912 266.5,-215.7912 373.5,-215.7912 373.5,-196.7912 266.5,-196.7912"/>
<text text-anchor="start" x="269.5" y="-202.8912" font-family="Helvetica,sans-Serif" font-size="11.00" fill="#000000">...</text>
<polygon fill="#ffffff" stroke="transparent" points="266.5,-177.7912 266.5,-196.7912 300.5,-196.7912 300.5,-177.7912 266.5,-177.7912"/>
<polygon fill="none" stroke="#000000" points="266.5,-177.7912 266.5,-196.7912 300.5,-196.7912 300.5,-177.7912 266.5,-177.7912"/>
<text text-anchor="start" x="269.5" y="-183.8912" font-family="Helvetica,sans-Serif" font-size="11.00" fill="#000000">&lt; 2</text>
<polygon fill="#ffffff" stroke="transparent" points="300.5,-177.7912 300.5,-196.7912 345.5,-196.7912 345.5,-177.7912 300.5,-177.7912"/>
<polygon fill="none" stroke="#000000" points="300.5,-177.7912 300.5,-196.7912 345.5,-196.7912 345.5,-177.7912 300.5,-177.7912"/>
<text text-anchor="start" x="310.1105" y="-183.8912" font-family="Helvetica,sans-Serif" font-size="11.00" fill="#000000">0 rows</text>
<polygon fill="#ffffff" stroke="transparent" points="345.5,-177.7912 345.5,-196.7912 373.5,-196.7912 373.5,-177.7912 345.5,-177.7912"/>
<polygon fill="none" stroke="#000000" points="345.5,-177.7912 345.5,-196.7912 373.5,-196.7912 373.5,-177.7912 345.5,-177.7912"/>
<text text-anchor="start" x="354.9053" y="-183.8912" font-family="Helvetica,sans-Serif" font-size="11.00" fill="#000000">2 &gt;</text>
</a>
</g>
</g>
<!-- patients&#45;&gt;professionals -->
<g id="edge5" class="edge">
<title>patients:w&#45;&gt;professionals:e</title>
<path fill="none" stroke="#000000" d="M645.5304,-234.0155C586.3623,-229.4037 402.3714,-205.7912 373.5,-205.7912"/>
<polygon fill="#000000" stroke="#000000" points="652.0115,-234.3629 659.8073,-238.3861 656.0057,-234.5771 660,-234.7912 660,-234.7912 660,-234.7912 656.0057,-234.5771 660.1927,-231.1964 652.0115,-234.3629 652.0115,-234.3629"/>
<ellipse fill="none" stroke="#000000" cx="648.8161" cy="-234.1916" rx="3.2" ry="3.2"/>
</g>
<!-- patients&#45;&gt;profiles -->
<g id="edge6" class="edge">
<title>patients:w&#45;&gt;profiles:e</title>
<path fill="none" stroke="#000000" d="M646.3649,-327.4532C636.7609,-336.0148 636.3477,-353.9883 619,-360.7912 469.621,-419.3702 415.7141,-386.318 258,-356.7912 179.0985,-342.0195 168.2724,-295.7912 88,-295.7912"/>
<polygon fill="#000000" stroke="#000000" points="652.4302,-325.3794 661.1647,-326.1976 656.2151,-324.0853 660,-322.7912 660,-322.7912 660,-322.7912 656.2151,-324.0853 658.8353,-319.3848 652.4302,-325.3794 652.4302,-325.3794"/>
<ellipse fill="none" stroke="#000000" cx="649.4023" cy="-326.4147" rx="3.2" ry="3.2"/>
</g>
<!-- provider_locations -->
<g id="node6" class="node">
<title>provider_locations</title>
<g id="a_node6"><a xlink:href="../../tables/provider_locations.html" xlink:title="provider_locations" target="_top">
<polygon fill="#ffffff" stroke="transparent" points="450.5,-246.2912 450.5,-307.2912 582.5,-307.2912 582.5,-246.2912 450.5,-246.2912"/>
<polygon fill="#f5f5f5" stroke="transparent" points="450.5,-283.7912 450.5,-306.7912 582.5,-306.7912 582.5,-283.7912 450.5,-283.7912"/>
<polygon fill="none" stroke="#000000" points="450.5,-283.7912 450.5,-306.7912 582.5,-306.7912 582.5,-283.7912 450.5,-283.7912"/>
<text text-anchor="start" x="455.3813" y="-292.8912" font-family="Helvetica,sans-Serif" font-weight="bold" font-size="11.00" fill="#000000">provider_locations</text>
<text text-anchor="start" x="548.0219" y="-291.8912" font-family="Helvetica,sans-Serif" font-size="11.00" fill="#000000">[table]</text>
<polygon fill="none" stroke="#000000" points="450.5,-264.7912 450.5,-283.7912 582.5,-283.7912 582.5,-264.7912 450.5,-264.7912"/>
<text text-anchor="start" x="453.5" y="-270.8912" font-family="Helvetica,sans-Serif" font-size="11.00" fill="#000000">...</text>
<polygon fill="#ffffff" stroke="transparent" points="450.5,-245.7912 450.5,-264.7912 497.5,-264.7912 497.5,-245.7912 450.5,-245.7912"/>
<polygon fill="none" stroke="#000000" points="450.5,-245.7912 450.5,-264.7912 497.5,-264.7912 497.5,-245.7912 450.5,-245.7912"/>
<text text-anchor="start" x="453.5" y="-251.8912" font-family="Helvetica,sans-Serif" font-size="11.00" fill="#000000">&lt; 3</text>
<polygon fill="#ffffff" stroke="transparent" points="497.5,-245.7912 497.5,-264.7912 548.5,-264.7912 548.5,-245.7912 497.5,-245.7912"/>
<polygon fill="none" stroke="#000000" points="497.5,-245.7912 497.5,-264.7912 548.5,-264.7912 548.5,-245.7912 497.5,-245.7912"/>
<text text-anchor="start" x="513.1105" y="-251.8912" font-family="Helvetica,sans-Serif" font-size="11.00" fill="#000000">0 rows</text>
<polygon fill="#ffffff" stroke="transparent" points="548.5,-245.7912 548.5,-264.7912 582.5,-264.7912 582.5,-245.7912 548.5,-245.7912"/>
<polygon fill="none" stroke="#000000" points="548.5,-245.7912 548.5,-264.7912 582.5,-264.7912 582.5,-245.7912 548.5,-245.7912"/>
<text text-anchor="start" x="563.9053" y="-251.8912" font-family="Helvetica,sans-Serif" font-size="11.00" fill="#000000">2 &gt;</text>
</a>
</g>
</g>
<!-- patients&#45;&gt;provider_locations -->
<g id="edge7" class="edge">
<title>patients:w&#45;&gt;provider_locations:e</title>
<path fill="none" stroke="#000000" d="M645.3265,-257.9066C621.8668,-261.6887 612.2535,-273.7912 582.5,-273.7912"/>
<polygon fill="#000000" stroke="#000000" points="652.023,-257.3977 660.2729,-260.3809 656.0115,-257.0944 660,-256.7912 660,-256.7912 660,-256.7912 656.0115,-257.0944 659.7271,-253.2016 652.023,-257.3977 652.023,-257.3977"/>
<ellipse fill="none" stroke="#000000" cx="648.8322" cy="-257.6402" rx="3.2" ry="3.2"/>
</g>
<!-- relationships -->
<g id="node7" class="node">
<title>relationships</title>
<g id="a_node7"><a xlink:href="../../tables/relationships.html" xlink:title="relationships" target="_top">
<polygon fill="#ffffff" stroke="transparent" points="422,-129.7912 422,-197.7912 611,-197.7912 611,-129.7912 422,-129.7912"/>
<polygon fill="#f5f5f5" stroke="transparent" points="424.5,-172.7912 424.5,-195.7912 609.5,-195.7912 609.5,-172.7912 424.5,-172.7912"/>
<polygon fill="none" stroke="#000000" points="424.5,-172.7912 424.5,-195.7912 609.5,-195.7912 609.5,-172.7912 424.5,-172.7912"/>
<text text-anchor="start" x="429.5" y="-181.8912" font-family="Helvetica,sans-Serif" font-weight="bold" font-size="11.00" fill="#000000">relationships</text>
<text text-anchor="start" x="574.5437" y="-180.8912" font-family="Helvetica,sans-Serif" font-size="11.00" fill="#000000">[table]</text>
<polygon fill="none" stroke="#000000" points="424.5,-150.7912 424.5,-172.7912 519.5,-172.7912 519.5,-150.7912 424.5,-150.7912"/>
<image xlink:href="../../images/primaryKeys.png" width="11px" height="12px" preserveAspectRatio="xMinYMin meet" x="429.5" y="-167.791"/>
<text text-anchor="start" x="444.5" y="-157.8912" font-family="Helvetica,sans-Serif" font-size="11.00" fill="#000000">name</text>
<polygon fill="none" stroke="#000000" points="519.5,-150.7912 519.5,-172.7912 609.5,-172.7912 609.5,-150.7912 519.5,-150.7912"/>
<text text-anchor="start" x="522.0043" y="-158.4912" font-family="Helvetica,sans-Serif" font-size="11.00" fill="#000000">text[2147483647]</text>
<polygon fill="#ffffff" stroke="transparent" points="424.5,-131.7912 424.5,-150.7912 463.5,-150.7912 463.5,-131.7912 424.5,-131.7912"/>
<polygon fill="none" stroke="#000000" points="424.5,-131.7912 424.5,-150.7912 463.5,-150.7912 463.5,-131.7912 424.5,-131.7912"/>
<text text-anchor="start" x="427.5" y="-137.8912" font-family="Helvetica,sans-Serif" font-size="11.00" fill="#000000">&lt; 0</text>
<polygon fill="#ffffff" stroke="transparent" points="463.5,-131.7912 463.5,-150.7912 519.5,-150.7912 519.5,-131.7912 463.5,-131.7912"/>
<polygon fill="none" stroke="#000000" points="463.5,-131.7912 463.5,-150.7912 519.5,-150.7912 519.5,-131.7912 463.5,-131.7912"/>
<text text-anchor="start" x="484.1105" y="-137.8912" font-family="Helvetica,sans-Serif" font-size="11.00" fill="#000000">0 rows</text>
<polygon fill="#ffffff" stroke="transparent" points="519.5,-131.7912 519.5,-150.7912 609.5,-150.7912 609.5,-131.7912 519.5,-131.7912"/>
<polygon fill="none" stroke="#000000" points="519.5,-131.7912 519.5,-150.7912 609.5,-150.7912 609.5,-131.7912 519.5,-131.7912"/>
<text text-anchor="start" x="590.9053" y="-137.8912" font-family="Helvetica,sans-Serif" font-size="11.00" fill="#000000">1 &gt;</text>
<polygon fill="none" stroke="#000000" stroke-width="2" points="423,-130.7912 423,-196.7912 610,-196.7912 610,-130.7912 423,-130.7912"/>
</a>
</g>
</g>
<!-- patients&#45;&gt;relationships -->
<g id="edge8" class="edge">
<title>patients:w&#45;&gt;relationships:e</title>
<path fill="none" stroke="#000000" d="M645.3606,-167.6353C633.5074,-165.6471 626.3173,-161.7912 609.5,-161.7912"/>
<polygon fill="#000000" stroke="#000000" points="652.0248,-168.1615 659.7166,-172.3801 656.0124,-168.4763 660,-168.7912 660,-168.7912 660,-168.7912 656.0124,-168.4763 660.2834,-165.2024 652.0248,-168.1615 652.0248,-168.1615"/>
<ellipse fill="none" stroke="#000000" cx="648.8348" cy="-167.9096" rx="3.2" ry="3.2"/>
</g>
<!-- professionals&#45;&gt;users -->
<g id="edge10" class="edge">
<title>professionals:w&#45;&gt;users:e</title>
<path fill="none" stroke="#000000" d="M256.0474,-205.7912C241.9907,-205.7912 235.0469,-205.7912 217,-205.7912"/>
<polygon fill="#000000" stroke="#000000" points="265.7,-201.7912 265.7,-209.7912 264.1,-209.7913 264.1,-201.7913 265.7,-201.7912"/>
<polyline fill="none" stroke="#000000" points="266.5,-205.7912 262.5,-205.7913 "/>
<ellipse fill="none" stroke="#000000" cx="259.3" cy="-205.7913" rx="3.2" ry="3.2"/>
</g>
<!-- provider_locations&#45;&gt;companies -->
<g id="edge11" class="edge">
<title>provider_locations:w&#45;&gt;companies:e</title>
<path fill="none" stroke="#000000" d="M435.9345,-274.584C410.1149,-277.5457 399.5031,-287.7912 367.5,-287.7912"/>
<polygon fill="#000000" stroke="#000000" points="442.5118,-274.2261 450.6957,-277.3859 446.5059,-274.0087 450.5,-273.7912 450.5,-273.7912 450.5,-273.7912 446.5059,-274.0087 450.3043,-270.1965 442.5118,-274.2261 442.5118,-274.2261"/>
<ellipse fill="none" stroke="#000000" cx="439.3166" cy="-274.4" rx="3.2" ry="3.2"/>
</g>
<!-- responsible_persons -->
<g id="node8" class="node">
<title>responsible_persons</title>
<g id="a_node8"><a xlink:href="../../tables/responsible_persons.html" xlink:title="responsible_persons" target="_top">
<polygon fill="#ffffff" stroke="transparent" points="919,-170.2912 919,-231.2912 1063,-231.2912 1063,-170.2912 919,-170.2912"/>
<polygon fill="#f5f5f5" stroke="transparent" points="919,-207.7912 919,-230.7912 1063,-230.7912 1063,-207.7912 919,-207.7912"/>
<polygon fill="none" stroke="#000000" points="919,-207.7912 919,-230.7912 1063,-230.7912 1063,-207.7912 919,-207.7912"/>
<text text-anchor="start" x="923.7653" y="-216.8912" font-family="Helvetica,sans-Serif" font-weight="bold" font-size="11.00" fill="#000000">responsible_persons</text>
<text text-anchor="start" x="1028.5219" y="-215.8912" font-family="Helvetica,sans-Serif" font-size="11.00" fill="#000000">[table]</text>
<polygon fill="none" stroke="#000000" points="919,-188.7912 919,-207.7912 1063,-207.7912 1063,-188.7912 919,-188.7912"/>
<text text-anchor="start" x="922" y="-194.8912" font-family="Helvetica,sans-Serif" font-size="11.00" fill="#000000">...</text>
<polygon fill="#ffffff" stroke="transparent" points="919,-169.7912 919,-188.7912 976,-188.7912 976,-169.7912 919,-169.7912"/>
<polygon fill="none" stroke="#000000" points="919,-169.7912 919,-188.7912 976,-188.7912 976,-169.7912 919,-169.7912"/>
<text text-anchor="start" x="922" y="-175.8912" font-family="Helvetica,sans-Serif" font-size="11.00" fill="#000000">&lt; 2</text>
<polygon fill="#ffffff" stroke="transparent" points="976,-169.7912 976,-188.7912 1032,-188.7912 1032,-169.7912 976,-169.7912"/>
<polygon fill="none" stroke="#000000" points="976,-169.7912 976,-188.7912 1032,-188.7912 1032,-169.7912 976,-169.7912"/>
<text text-anchor="start" x="996.6105" y="-175.8912" font-family="Helvetica,sans-Serif" font-size="11.00" fill="#000000">0 rows</text>
<polygon fill="#ffffff" stroke="transparent" points="1032,-169.7912 1032,-188.7912 1063,-188.7912 1063,-169.7912 1032,-169.7912"/>
<polygon fill="none" stroke="#000000" points="1032,-169.7912 1032,-188.7912 1063,-188.7912 1063,-169.7912 1032,-169.7912"/>
<text text-anchor="start" x="1053.8862" y="-175.8912" font-family="Helvetica,sans-Serif" font-size="11.00" fill="#000000"> &#160;</text>
</a>
</g>
</g>
<!-- responsible_persons&#45;&gt;users -->
<g id="edge13" class="edge">
<title>responsible_persons:w&#45;&gt;users:e</title>
<path fill="none" stroke="#000000" d="M904.5263,-195.2011C870.0816,-179.6894 922.6329,-98.6643 878,-65.7912 797.1242,-6.2245 752.4121,-63.2443 652,-65.7912 476.7198,-70.2371 397.991,19.7807 258,-85.7912 213.0011,-119.7264 273.3604,-205.7912 217,-205.7912"/>
<polygon fill="#000000" stroke="#000000" points="911.1251,-196.3819 918.3658,-201.3349 915.0626,-197.0866 919,-197.7912 919,-197.7912 919,-197.7912 915.0626,-197.0866 919.6342,-194.2475 911.1251,-196.3819 911.1251,-196.3819"/>
<ellipse fill="none" stroke="#000000" cx="907.9751" cy="-195.8182" rx="3.2" ry="3.2"/>
</g>
<!-- responsible_persons&#45;&gt;patients -->
<g id="edge12" class="edge">
<title>responsible_persons:w&#45;&gt;patients:e</title>
<path fill="none" stroke="#000000" d="M904.7968,-200.7276C863.9257,-221.4458 933.0836,-344.7912 870,-344.7912"/>
<polygon fill="#000000" stroke="#000000" points="911.1657,-199.4109 919.7289,-201.3167 915.0828,-198.6011 919,-197.7912 919,-197.7912 919,-197.7912 915.0828,-198.6011 918.2711,-194.2658 911.1657,-199.4109 911.1657,-199.4109"/>
<ellipse fill="none" stroke="#000000" cx="908.0319" cy="-200.0588" rx="3.2" ry="3.2"/>
</g>
</g>
</svg>
