<?xml version="1.0" encoding="UTF-8" standalone="no"?>
<!DOCTYPE svg PUBLIC "-//W3C//DTD SVG 1.1//EN"
 "http://www.w3.org/Graphics/SVG/1.1/DTD/svg11.dtd">
<!-- Generated by graphviz version 2.40.1 (20161225.0304)
 -->
<!-- Title: twoDegreesRelationshipsDiagram Pages: 1 -->
<svg width="1238pt" height="493pt"
 viewBox="0.00 0.00 1238.00 492.88" xmlns="http://www.w3.org/2000/svg" xmlns:xlink="http://www.w3.org/1999/xlink">
<g id="graph0" class="graph" transform="scale(1 1) rotate(0) translate(4 488.8773)">
<title>twoDegreesRelationshipsDiagram</title>
<polygon fill="#ffffff" stroke="transparent" points="-4,4 -4,-488.8773 1234,-488.8773 1234,4 -4,4"/>
<text text-anchor="middle" x="72.4936" y="-7.3" font-family="Helvetica,sans-Serif" font-size="11.00" fill="#000000">Generated by SchemaSpy</text>
<!-- companies -->
<g id="node1" class="node">
<title>companies</title>
<g id="a_node1"><a xlink:href="../../tables/companies.html" xlink:title="companies" target="_top">
<polygon fill="#ffffff" stroke="transparent" points="330.5,-297.9593 330.5,-358.9593 426.5,-358.9593 426.5,-297.9593 330.5,-297.9593"/>
<polygon fill="#f5f5f5" stroke="transparent" points="330.5,-335.4593 330.5,-358.4593 426.5,-358.4593 426.5,-335.4593 330.5,-335.4593"/>
<polygon fill="none" stroke="#000000" points="330.5,-335.4593 330.5,-358.4593 426.5,-358.4593 426.5,-335.4593 330.5,-335.4593"/>
<text text-anchor="start" x="335.4114" y="-344.5593" font-family="Helvetica,sans-Serif" font-weight="bold" font-size="11.00" fill="#000000">companies</text>
<text text-anchor="start" x="392.0219" y="-343.5593" font-family="Helvetica,sans-Serif" font-size="11.00" fill="#000000">[table]</text>
<polygon fill="none" stroke="#000000" points="330.5,-316.4593 330.5,-335.4593 426.5,-335.4593 426.5,-316.4593 330.5,-316.4593"/>
<text text-anchor="start" x="333.5" y="-322.5593" font-family="Helvetica,sans-Serif" font-size="11.00" fill="#000000">...</text>
<polygon fill="#ffffff" stroke="transparent" points="330.5,-297.4593 330.5,-316.4593 359.5,-316.4593 359.5,-297.4593 330.5,-297.4593"/>
<polygon fill="none" stroke="#000000" points="330.5,-297.4593 330.5,-316.4593 359.5,-316.4593 359.5,-297.4593 330.5,-297.4593"/>
<text text-anchor="start" x="333.5" y="-303.5593" font-family="Helvetica,sans-Serif" font-size="11.00" fill="#000000">&lt; 2</text>
<polygon fill="#ffffff" stroke="transparent" points="359.5,-297.4593 359.5,-316.4593 401.5,-316.4593 401.5,-297.4593 359.5,-297.4593"/>
<polygon fill="none" stroke="#000000" points="359.5,-297.4593 359.5,-316.4593 401.5,-316.4593 401.5,-297.4593 359.5,-297.4593"/>
<text text-anchor="start" x="366.1105" y="-303.5593" font-family="Helvetica,sans-Serif" font-size="11.00" fill="#000000">0 rows</text>
<polygon fill="#ffffff" stroke="transparent" points="401.5,-297.4593 401.5,-316.4593 426.5,-316.4593 426.5,-297.4593 401.5,-297.4593"/>
<polygon fill="none" stroke="#000000" points="401.5,-297.4593 401.5,-316.4593 426.5,-316.4593 426.5,-297.4593 401.5,-297.4593"/>
<text text-anchor="start" x="407.9053" y="-303.5593" font-family="Helvetica,sans-Serif" font-size="11.00" fill="#000000">4 &gt;</text>
</a>
</g>
</g>
<!-- users -->
<g id="node2" class="node">
<title>users</title>
<g id="a_node2"><a xlink:href="../../tables/users.html" xlink:title="users" target="_top">
<polygon fill="#ffffff" stroke="transparent" points="137,-210.9593 137,-359.9593 276,-359.9593 276,-210.9593 137,-210.9593"/>
<polygon fill="#f5f5f5" stroke="transparent" points="137.5,-336.4593 137.5,-359.4593 276.5,-359.4593 276.5,-336.4593 137.5,-336.4593"/>
<polygon fill="none" stroke="#000000" points="137.5,-336.4593 137.5,-359.4593 276.5,-359.4593 276.5,-336.4593 137.5,-336.4593"/>
<text text-anchor="start" x="142.5" y="-345.5593" font-family="Helvetica,sans-Serif" font-weight="bold" font-size="11.00" fill="#000000">users</text>
<text text-anchor="start" x="241.5437" y="-344.5593" font-family="Helvetica,sans-Serif" font-size="11.00" fill="#000000">[table]</text>
<polygon fill="none" stroke="#000000" points="137.5,-314.4593 137.5,-336.4593 276.5,-336.4593 276.5,-314.4593 137.5,-314.4593"/>
<image xlink:href="../../images/primaryKeys.png" width="11px" height="12px" preserveAspectRatio="xMinYMin meet" x="142.5" y="-331.459"/>
<text text-anchor="start" x="157.5" y="-321.5593" font-family="Helvetica,sans-Serif" font-size="11.00" fill="#000000">id</text>
<polygon fill="#ffffff" stroke="transparent" points="137.5,-292.4593 137.5,-314.4593 276.5,-314.4593 276.5,-292.4593 137.5,-292.4593"/>
<polygon fill="none" stroke="#000000" points="137.5,-292.4593 137.5,-314.4593 276.5,-314.4593 276.5,-292.4593 137.5,-292.4593"/>
<text text-anchor="start" x="157.5" y="-299.5593" font-family="Helvetica,sans-Serif" font-size="11.00" fill="#000000">email</text>
<polygon fill="#ffffff" stroke="transparent" points="137.5,-270.4593 137.5,-292.4593 276.5,-292.4593 276.5,-270.4593 137.5,-270.4593"/>
<polygon fill="none" stroke="#000000" points="137.5,-270.4593 137.5,-292.4593 276.5,-292.4593 276.5,-270.4593 137.5,-270.4593"/>
<text text-anchor="start" x="157.5" y="-277.5593" font-family="Helvetica,sans-Serif" font-size="11.00" fill="#000000">cognito_id</text>
<polygon fill="#ffffff" stroke="transparent" points="137.5,-248.4593 137.5,-270.4593 276.5,-270.4593 276.5,-248.4593 137.5,-248.4593"/>
<polygon fill="none" stroke="#000000" points="137.5,-248.4593 137.5,-270.4593 276.5,-270.4593 276.5,-248.4593 137.5,-248.4593"/>
<image xlink:href="../../images/foreignKeys.png" width="11px" height="12px" preserveAspectRatio="xMinYMin meet" x="142.5" y="-265.459"/>
<text text-anchor="start" x="157.5" y="-255.5593" font-family="Helvetica,sans-Serif" font-size="11.00" fill="#000000">profile_id</text>
<polygon fill="none" stroke="#000000" points="137.5,-229.4593 137.5,-248.4593 276.5,-248.4593 276.5,-229.4593 137.5,-229.4593"/>
<text text-anchor="start" x="140.5" y="-235.5593" font-family="Helvetica,sans-Serif" font-size="11.00" fill="#000000">...</text>
<polygon fill="#ffffff" stroke="transparent" points="137.5,-210.4593 137.5,-229.4593 187.5,-229.4593 187.5,-210.4593 137.5,-210.4593"/>
<polygon fill="none" stroke="#000000" points="137.5,-210.4593 137.5,-229.4593 187.5,-229.4593 187.5,-210.4593 137.5,-210.4593"/>
<text text-anchor="start" x="140.5" y="-216.5593" font-family="Helvetica,sans-Serif" font-size="11.00" fill="#000000">&lt; 1</text>
<polygon fill="#ffffff" stroke="transparent" points="187.5,-210.4593 187.5,-229.4593 240.5,-229.4593 240.5,-210.4593 187.5,-210.4593"/>
<polygon fill="none" stroke="#000000" points="187.5,-210.4593 187.5,-229.4593 240.5,-229.4593 240.5,-210.4593 187.5,-210.4593"/>
<text text-anchor="start" x="205.1105" y="-216.5593" font-family="Helvetica,sans-Serif" font-size="11.00" fill="#000000">0 rows</text>
<polygon fill="#ffffff" stroke="transparent" points="240.5,-210.4593 240.5,-229.4593 276.5,-229.4593 276.5,-210.4593 240.5,-210.4593"/>
<polygon fill="none" stroke="#000000" points="240.5,-210.4593 240.5,-229.4593 276.5,-229.4593 276.5,-210.4593 240.5,-210.4593"/>
<text text-anchor="start" x="257.9053" y="-216.5593" font-family="Helvetica,sans-Serif" font-size="11.00" fill="#000000">8 &gt;</text>
</a>
</g>
</g>
<!-- companies&#45;&gt;users -->
<g id="edge1" class="edge">
<title>companies:w&#45;&gt;users:e</title>
<path fill="none" stroke="#000000" d="M315.7185,-325.4593C302.538,-325.4593 294.6875,-325.4593 276.5,-325.4593"/>
<polygon fill="#000000" stroke="#000000" points="322.5,-325.4593 330.5,-329.0593 326.5,-325.4593 330.5,-325.4593 330.5,-325.4593 330.5,-325.4593 326.5,-325.4593 330.5,-321.8593 322.5,-325.4593 322.5,-325.4593"/>
<ellipse fill="none" stroke="#000000" cx="319.3" cy="-325.4594" rx="3.2" ry="3.2"/>
</g>
<!-- profiles -->
<g id="node7" class="node">
<title>profiles</title>
<g id="a_node7"><a xlink:href="../../tables/profiles.html" xlink:title="profiles" target="_top">
<polygon fill="#ffffff" stroke="transparent" points="8,-326.9593 8,-387.9593 88,-387.9593 88,-326.9593 8,-326.9593"/>
<polygon fill="#f5f5f5" stroke="transparent" points="8,-364.4593 8,-387.4593 88,-387.4593 88,-364.4593 8,-364.4593"/>
<polygon fill="none" stroke="#000000" points="8,-364.4593 8,-387.4593 88,-387.4593 88,-364.4593 8,-364.4593"/>
<text text-anchor="start" x="13" y="-373.5593" font-family="Helvetica,sans-Serif" font-weight="bold" font-size="11.00" fill="#000000">profiles</text>
<text text-anchor="start" x="53.0437" y="-372.5593" font-family="Helvetica,sans-Serif" font-size="11.00" fill="#000000">[table]</text>
<polygon fill="none" stroke="#000000" points="8,-345.4593 8,-364.4593 88,-364.4593 88,-345.4593 8,-345.4593"/>
<text text-anchor="start" x="11" y="-351.5593" font-family="Helvetica,sans-Serif" font-size="11.00" fill="#000000">...</text>
<polygon fill="#ffffff" stroke="transparent" points="8,-326.4593 8,-345.4593 29,-345.4593 29,-326.4593 8,-326.4593"/>
<polygon fill="none" stroke="#000000" points="8,-326.4593 8,-345.4593 29,-345.4593 29,-326.4593 8,-326.4593"/>
<text text-anchor="start" x="10.7027" y="-332.5593" font-family="Helvetica,sans-Serif" font-size="11.00" fill="#000000">&lt; 3</text>
<polygon fill="#ffffff" stroke="transparent" points="29,-326.4593 29,-345.4593 67,-345.4593 67,-326.4593 29,-326.4593"/>
<polygon fill="none" stroke="#000000" points="29,-326.4593 29,-345.4593 67,-345.4593 67,-326.4593 29,-326.4593"/>
<text text-anchor="start" x="31.8053" y="-332.5593" font-family="Helvetica,sans-Serif" font-size="11.00" fill="#000000">0 rows</text>
<polygon fill="#ffffff" stroke="transparent" points="67,-326.4593 67,-345.4593 88,-345.4593 88,-326.4593 67,-326.4593"/>
<polygon fill="none" stroke="#000000" points="67,-326.4593 67,-345.4593 88,-345.4593 88,-326.4593 67,-326.4593"/>
<text text-anchor="start" x="69.7027" y="-332.5593" font-family="Helvetica,sans-Serif" font-size="11.00" fill="#000000">2 &gt;</text>
</a>
</g>
</g>
<!-- users&#45;&gt;profiles -->
<g id="edge17" class="edge">
<title>users:w&#45;&gt;profiles:e</title>
<path fill="none" stroke="#000000" d="M127.1749,-261.4435C97.0588,-275.0858 131.5186,-354.4593 88,-354.4593"/>
<polygon fill="#000000" stroke="#000000" points="135.9595,-255.6821 137.4693,-263.5384 135.898,-263.8404 134.3882,-255.9841 135.9595,-255.6821"/>
<polyline fill="none" stroke="#000000" points="137.5,-259.4593 133.5719,-260.2142 "/>
<ellipse fill="none" stroke="#000000" cx="130.4294" cy="-260.8181" rx="3.2" ry="3.2"/>
</g>
<!-- company_users -->
<g id="node3" class="node">
<title>company_users</title>
<g id="a_node3"><a xlink:href="../../tables/company_users.html" xlink:title="company_users" target="_top">
<polygon fill="#ffffff" stroke="transparent" points="487,-336.9593 487,-397.9593 607,-397.9593 607,-336.9593 487,-336.9593"/>
<polygon fill="#f5f5f5" stroke="transparent" points="487,-374.4593 487,-397.4593 607,-397.4593 607,-374.4593 487,-374.4593"/>
<polygon fill="none" stroke="#000000" points="487,-374.4593 487,-397.4593 607,-397.4593 607,-374.4593 487,-374.4593"/>
<text text-anchor="start" x="491.686" y="-383.5593" font-family="Helvetica,sans-Serif" font-weight="bold" font-size="11.00" fill="#000000">company_users</text>
<text text-anchor="start" x="572.5219" y="-382.5593" font-family="Helvetica,sans-Serif" font-size="11.00" fill="#000000">[table]</text>
<polygon fill="none" stroke="#000000" points="487,-355.4593 487,-374.4593 607,-374.4593 607,-355.4593 487,-355.4593"/>
<text text-anchor="start" x="490" y="-361.5593" font-family="Helvetica,sans-Serif" font-size="11.00" fill="#000000">...</text>
<polygon fill="#ffffff" stroke="transparent" points="487,-336.4593 487,-355.4593 532,-355.4593 532,-336.4593 487,-336.4593"/>
<polygon fill="none" stroke="#000000" points="487,-336.4593 487,-355.4593 532,-355.4593 532,-336.4593 487,-336.4593"/>
<text text-anchor="start" x="490" y="-342.5593" font-family="Helvetica,sans-Serif" font-size="11.00" fill="#000000">&lt; 2</text>
<polygon fill="#ffffff" stroke="transparent" points="532,-336.4593 532,-355.4593 582,-355.4593 582,-336.4593 532,-336.4593"/>
<polygon fill="none" stroke="#000000" points="532,-336.4593 532,-355.4593 582,-355.4593 582,-336.4593 532,-336.4593"/>
<text text-anchor="start" x="546.6105" y="-342.5593" font-family="Helvetica,sans-Serif" font-size="11.00" fill="#000000">0 rows</text>
<polygon fill="#ffffff" stroke="transparent" points="582,-336.4593 582,-355.4593 607,-355.4593 607,-336.4593 582,-336.4593"/>
<polygon fill="none" stroke="#000000" points="582,-336.4593 582,-355.4593 607,-355.4593 607,-336.4593 582,-336.4593"/>
<text text-anchor="start" x="597.8862" y="-342.5593" font-family="Helvetica,sans-Serif" font-size="11.00" fill="#000000"> &#160;</text>
</a>
</g>
</g>
<!-- company_users&#45;&gt;companies -->
<g id="edge2" class="edge">
<title>company_users:w&#45;&gt;companies:e</title>
<path fill="none" stroke="#000000" d="M472.7791,-361.1342C455.1148,-351.7029 452.743,-325.4593 426.5,-325.4593"/>
<polygon fill="#000000" stroke="#000000" points="479.2101,-362.6378 486.1803,-367.9647 483.1051,-363.5486 487,-364.4593 487,-364.4593 487,-364.4593 483.1051,-363.5486 487.8197,-360.9538 479.2101,-362.6378 479.2101,-362.6378"/>
<ellipse fill="none" stroke="#000000" cx="476.0942" cy="-361.9092" rx="3.2" ry="3.2"/>
</g>
<!-- company_users&#45;&gt;users -->
<g id="edge3" class="edge">
<title>company_users:w&#45;&gt;users:e</title>
<path fill="none" stroke="#000000" d="M472.3594,-365.2336C461.9092,-366.4264 455.0774,-368.6596 440,-369.4593 385.4101,-372.3548 367.0616,-391.4201 317,-369.4593 292.6604,-358.7821 303.0786,-325.4593 276.5,-325.4593"/>
<polygon fill="#000000" stroke="#000000" points="479.0112,-364.8818 487.1901,-368.0543 483.0056,-364.6706 487,-364.4593 487,-364.4593 487,-364.4593 483.0056,-364.6706 486.8099,-360.8643 479.0112,-364.8818 479.0112,-364.8818"/>
<ellipse fill="none" stroke="#000000" cx="475.8156" cy="-365.0508" rx="3.2" ry="3.2"/>
</g>
<!-- feedback -->
<g id="node4" class="node">
<title>feedback</title>
<g id="a_node4"><a xlink:href="../../tables/feedback.html" xlink:title="feedback" target="_top">
<polygon fill="#ffffff" stroke="transparent" points="335,-215.9593 335,-276.9593 422,-276.9593 422,-215.9593 335,-215.9593"/>
<polygon fill="#f5f5f5" stroke="transparent" points="335.5,-253.4593 335.5,-276.4593 422.5,-276.4593 422.5,-253.4593 335.5,-253.4593"/>
<polygon fill="none" stroke="#000000" points="335.5,-253.4593 335.5,-276.4593 422.5,-276.4593 422.5,-253.4593 335.5,-253.4593"/>
<text text-anchor="start" x="340.1843" y="-262.5593" font-family="Helvetica,sans-Serif" font-weight="bold" font-size="11.00" fill="#000000">feedback</text>
<text text-anchor="start" x="388.0219" y="-261.5593" font-family="Helvetica,sans-Serif" font-size="11.00" fill="#000000">[table]</text>
<polygon fill="none" stroke="#000000" points="335.5,-234.4593 335.5,-253.4593 422.5,-253.4593 422.5,-234.4593 335.5,-234.4593"/>
<text text-anchor="start" x="338.5" y="-240.5593" font-family="Helvetica,sans-Serif" font-size="11.00" fill="#000000">...</text>
<polygon fill="#ffffff" stroke="transparent" points="335.5,-215.4593 335.5,-234.4593 364.5,-234.4593 364.5,-215.4593 335.5,-215.4593"/>
<polygon fill="none" stroke="#000000" points="335.5,-215.4593 335.5,-234.4593 364.5,-234.4593 364.5,-215.4593 335.5,-215.4593"/>
<text text-anchor="start" x="338.5" y="-221.5593" font-family="Helvetica,sans-Serif" font-size="11.00" fill="#000000">&lt; 1</text>
<polygon fill="#ffffff" stroke="transparent" points="364.5,-215.4593 364.5,-234.4593 406.5,-234.4593 406.5,-215.4593 364.5,-215.4593"/>
<polygon fill="none" stroke="#000000" points="364.5,-215.4593 364.5,-234.4593 406.5,-234.4593 406.5,-215.4593 364.5,-215.4593"/>
<text text-anchor="start" x="371.1105" y="-221.5593" font-family="Helvetica,sans-Serif" font-size="11.00" fill="#000000">0 rows</text>
<polygon fill="#ffffff" stroke="transparent" points="406.5,-215.4593 406.5,-234.4593 422.5,-234.4593 422.5,-215.4593 406.5,-215.4593"/>
<polygon fill="none" stroke="#000000" points="406.5,-215.4593 406.5,-234.4593 422.5,-234.4593 422.5,-215.4593 406.5,-215.4593"/>
<text text-anchor="start" x="413.3862" y="-221.5593" font-family="Helvetica,sans-Serif" font-size="11.00" fill="#000000"> &#160;</text>
</a>
</g>
</g>
<!-- feedback&#45;&gt;users -->
<g id="edge4" class="edge">
<title>feedback:w&#45;&gt;users:e</title>
<path fill="none" stroke="#000000" d="M321.5863,-247.1957C297.284,-263.2373 315.6101,-325.4593 276.5,-325.4593"/>
<polygon fill="#000000" stroke="#000000" points="327.7737,-245.5342 336.4337,-246.9361 331.6369,-244.4967 335.5,-243.4593 335.5,-243.4593 335.5,-243.4593 331.6369,-244.4967 334.5663,-239.9825 327.7737,-245.5342 327.7737,-245.5342"/>
<ellipse fill="none" stroke="#000000" cx="324.6832" cy="-246.3641" rx="3.2" ry="3.2"/>
</g>
<!-- patients -->
<g id="node5" class="node">
<title>patients</title>
<g id="a_node5"><a xlink:href="../../tables/patients.html" xlink:title="patients" target="_top">
<polygon fill="#ffffff" stroke="transparent" points="662,-73.9593 662,-376.9593 872,-376.9593 872,-73.9593 662,-73.9593"/>
<polygon fill="#f5f5f5" stroke="transparent" points="662,-353.4593 662,-376.4593 872,-376.4593 872,-353.4593 662,-353.4593"/>
<polygon fill="none" stroke="#000000" points="662,-353.4593 662,-376.4593 872,-376.4593 872,-353.4593 662,-353.4593"/>
<text text-anchor="start" x="667" y="-362.5593" font-family="Helvetica,sans-Serif" font-weight="bold" font-size="11.00" fill="#000000">patients</text>
<text text-anchor="start" x="837.0437" y="-361.5593" font-family="Helvetica,sans-Serif" font-size="11.00" fill="#000000">[table]</text>
<polygon fill="none" stroke="#000000" points="662,-331.4593 662,-353.4593 872,-353.4593 872,-331.4593 662,-331.4593"/>
<image xlink:href="../../images/primaryKeys.png" width="11px" height="12px" preserveAspectRatio="xMinYMin meet" x="667" y="-348.459"/>
<text text-anchor="start" x="682" y="-338.5593" font-family="Helvetica,sans-Serif" font-size="11.00" fill="#000000">id</text>
<polygon fill="none" stroke="#000000" points="662,-309.4593 662,-331.4593 872,-331.4593 872,-309.4593 662,-309.4593"/>
<image xlink:href="../../images/foreignKeys.png" width="11px" height="12px" preserveAspectRatio="xMinYMin meet" x="667" y="-326.459"/>
<text text-anchor="start" x="682" y="-316.5593" font-family="Helvetica,sans-Serif" font-size="11.00" fill="#000000">profile_id</text>
<polygon fill="none" stroke="#000000" points="662,-287.4593 662,-309.4593 872,-309.4593 872,-287.4593 662,-287.4593"/>
<image xlink:href="../../images/foreignKeys.png" width="11px" height="12px" preserveAspectRatio="xMinYMin meet" x="667" y="-304.459"/>
<text text-anchor="start" x="682" y="-294.5593" font-family="Helvetica,sans-Serif" font-size="11.00" fill="#000000">user_id</text>
<polygon fill="none" stroke="#000000" points="662,-265.4593 662,-287.4593 872,-287.4593 872,-265.4593 662,-265.4593"/>
<image xlink:href="../../images/foreignKeys.png" width="11px" height="12px" preserveAspectRatio="xMinYMin meet" x="667" y="-282.459"/>
<text text-anchor="start" x="682" y="-272.5593" font-family="Helvetica,sans-Serif" font-size="11.00" fill="#000000">company_id</text>
<polygon fill="none" stroke="#000000" points="662,-243.4593 662,-265.4593 872,-265.4593 872,-243.4593 662,-243.4593"/>
<image xlink:href="../../images/foreignKeys.png" width="11px" height="12px" preserveAspectRatio="xMinYMin meet" x="667" y="-260.459"/>
<text text-anchor="start" x="682" y="-250.5593" font-family="Helvetica,sans-Serif" font-size="11.00" fill="#000000">provider_location_id</text>
<polygon fill="none" stroke="#000000" points="662,-221.4593 662,-243.4593 872,-243.4593 872,-221.4593 662,-221.4593"/>
<image xlink:href="../../images/foreignKeys.png" width="11px" height="12px" preserveAspectRatio="xMinYMin meet" x="667" y="-238.459"/>
<text text-anchor="start" x="682" y="-228.5593" font-family="Helvetica,sans-Serif" font-size="11.00" fill="#000000">professional_id</text>
<polygon fill="#ffffff" stroke="transparent" points="662,-199.4593 662,-221.4593 872,-221.4593 872,-199.4593 662,-199.4593"/>
<polygon fill="none" stroke="#000000" points="662,-199.4593 662,-221.4593 872,-221.4593 872,-199.4593 662,-199.4593"/>
<text text-anchor="start" x="682" y="-206.5593" font-family="Helvetica,sans-Serif" font-size="11.00" fill="#000000">insurance_policy_id</text>
<polygon fill="none" stroke="#000000" points="662,-177.4593 662,-199.4593 872,-199.4593 872,-177.4593 662,-177.4593"/>
<image xlink:href="../../images/foreignKeys.png" width="11px" height="12px" preserveAspectRatio="xMinYMin meet" x="667" y="-194.459"/>
<text text-anchor="start" x="682" y="-184.5593" font-family="Helvetica,sans-Serif" font-size="11.00" fill="#000000">main_member_id</text>
<polygon fill="none" stroke="#000000" points="662,-155.4593 662,-177.4593 872,-177.4593 872,-155.4593 662,-155.4593"/>
<image xlink:href="../../images/foreignKeys.png" width="11px" height="12px" preserveAspectRatio="xMinYMin meet" x="667" y="-172.459"/>
<text text-anchor="start" x="682" y="-162.5593" font-family="Helvetica,sans-Serif" font-size="11.00" fill="#000000">relationship_to_main_member</text>
<polygon fill="none" stroke="#000000" points="662,-133.4593 662,-155.4593 872,-155.4593 872,-133.4593 662,-133.4593"/>
<image xlink:href="../../images/foreignKeys.png" width="11px" height="12px" preserveAspectRatio="xMinYMin meet" x="667" y="-150.459"/>
<text text-anchor="start" x="682" y="-140.5593" font-family="Helvetica,sans-Serif" font-size="11.00" fill="#000000">accepted_agreement_by_user_id</text>
<polygon fill="none" stroke="#000000" points="662,-111.4593 662,-133.4593 872,-133.4593 872,-111.4593 662,-111.4593"/>
<image xlink:href="../../images/foreignKeys.png" width="11px" height="12px" preserveAspectRatio="xMinYMin meet" x="667" y="-128.459"/>
<text text-anchor="start" x="682" y="-118.5593" font-family="Helvetica,sans-Serif" font-size="11.00" fill="#000000">created_by_user_id</text>
<polygon fill="none" stroke="#000000" points="662,-92.4593 662,-111.4593 872,-111.4593 872,-92.4593 662,-92.4593"/>
<text text-anchor="start" x="665" y="-98.5593" font-family="Helvetica,sans-Serif" font-size="11.00" fill="#000000">...</text>
<polygon fill="#ffffff" stroke="transparent" points="662,-73.4593 662,-92.4593 748,-92.4593 748,-73.4593 662,-73.4593"/>
<polygon fill="none" stroke="#000000" points="662,-73.4593 662,-92.4593 748,-92.4593 748,-73.4593 662,-73.4593"/>
<text text-anchor="start" x="665" y="-79.5593" font-family="Helvetica,sans-Serif" font-size="11.00" fill="#000000">&lt; 9</text>
<polygon fill="#ffffff" stroke="transparent" points="748,-73.4593 748,-92.4593 818,-92.4593 818,-73.4593 748,-73.4593"/>
<polygon fill="none" stroke="#000000" points="748,-73.4593 748,-92.4593 818,-92.4593 818,-73.4593 748,-73.4593"/>
<text text-anchor="start" x="782.6105" y="-79.5593" font-family="Helvetica,sans-Serif" font-size="11.00" fill="#000000">0 rows</text>
<polygon fill="#ffffff" stroke="transparent" points="818,-73.4593 818,-92.4593 872,-92.4593 872,-73.4593 818,-73.4593"/>
<polygon fill="none" stroke="#000000" points="818,-73.4593 818,-92.4593 872,-92.4593 872,-73.4593 818,-73.4593"/>
<text text-anchor="start" x="853.4053" y="-79.5593" font-family="Helvetica,sans-Serif" font-size="11.00" fill="#000000">2 &gt;</text>
</a>
</g>
</g>
<!-- patients&#45;&gt;companies -->
<g id="edge6" class="edge">
<title>patients:w&#45;&gt;companies:e</title>
<path fill="none" stroke="#000000" d="M647.8545,-279.933C639.2541,-284.9063 634.8241,-293.9515 621,-298.4593 538.0265,-325.5155 513.7734,-325.4593 426.5,-325.4593"/>
<polygon fill="#000000" stroke="#000000" points="654.2308,-278.3672 662.8586,-279.9554 658.1154,-277.4133 662,-276.4593 662,-276.4593 662,-276.4593 658.1154,-277.4133 661.1414,-272.9632 654.2308,-278.3672 654.2308,-278.3672"/>
<ellipse fill="none" stroke="#000000" cx="651.1232" cy="-279.1304" rx="3.2" ry="3.2"/>
</g>
<!-- patients&#45;&gt;users -->
<g id="edge5" class="edge">
<title>patients:w&#45;&gt;users:e</title>
<path fill="none" stroke="#000000" d="M648.3649,-139.7973C638.7609,-131.2357 638.3477,-113.2622 621,-106.4593 558.0092,-81.7574 366.932,-77.7995 317,-123.4593 249.428,-185.2498 368.0645,-325.4593 276.5,-325.4593"/>
<polygon fill="#000000" stroke="#000000" points="654.4302,-141.8711 660.8353,-147.8657 658.2151,-143.1652 662,-144.4593 662,-144.4593 662,-144.4593 658.2151,-143.1652 663.1647,-141.0529 654.4302,-141.8711 654.4302,-141.8711"/>
<ellipse fill="none" stroke="#000000" cx="651.4023" cy="-140.8358" rx="3.2" ry="3.2"/>
</g>
<!-- patients&#45;&gt;users -->
<g id="edge7" class="edge">
<title>patients:w&#45;&gt;users:e</title>
<path fill="none" stroke="#000000" d="M648.1629,-117.6532C638.8314,-109.2116 638.0035,-91.9973 621,-85.4593 494.8874,-36.9679 419.6824,.3594 317,-87.4593 276.2283,-122.3291 330.1492,-325.4593 276.5,-325.4593"/>
<polygon fill="#000000" stroke="#000000" points="654.4429,-119.8344 660.8188,-125.86 658.2214,-121.1468 662,-122.4593 662,-122.4593 662,-122.4593 658.2214,-121.1468 663.1812,-119.0586 654.4429,-119.8344 654.4429,-119.8344"/>
<ellipse fill="none" stroke="#000000" cx="651.42" cy="-118.7844" rx="3.2" ry="3.2"/>
</g>
<!-- patients&#45;&gt;users -->
<g id="edge12" class="edge">
<title>patients:w&#45;&gt;users:e</title>
<path fill="none" stroke="#000000" d="M647.706,-301.5547C621.158,-316.5721 658.8319,-382.1859 621,-408.4593 565.3542,-447.1041 374.3386,-421.5448 317,-385.4593 289.7705,-368.3227 308.6731,-325.4593 276.5,-325.4593"/>
<polygon fill="#000000" stroke="#000000" points="654.1812,-300.1525 662.7619,-301.9777 658.0906,-299.3059 662,-298.4593 662,-298.4593 662,-298.4593 658.0906,-299.3059 661.2381,-294.9408 654.1812,-300.1525 654.1812,-300.1525"/>
<ellipse fill="none" stroke="#000000" cx="651.0537" cy="-300.8298" rx="3.2" ry="3.2"/>
</g>
<!-- professionals -->
<g id="node6" class="node">
<title>professionals</title>
<g id="a_node6"><a xlink:href="../../tables/professionals.html" xlink:title="professionals" target="_top">
<polygon fill="#ffffff" stroke="transparent" points="325,-133.9593 325,-194.9593 432,-194.9593 432,-133.9593 325,-133.9593"/>
<polygon fill="#f5f5f5" stroke="transparent" points="325.5,-171.4593 325.5,-194.4593 432.5,-194.4593 432.5,-171.4593 325.5,-171.4593"/>
<polygon fill="none" stroke="#000000" points="325.5,-171.4593 325.5,-194.4593 432.5,-194.4593 432.5,-171.4593 325.5,-171.4593"/>
<text text-anchor="start" x="330.105" y="-180.5593" font-family="Helvetica,sans-Serif" font-weight="bold" font-size="11.00" fill="#000000">professionals</text>
<text text-anchor="start" x="398.0219" y="-179.5593" font-family="Helvetica,sans-Serif" font-size="11.00" fill="#000000">[table]</text>
<polygon fill="none" stroke="#000000" points="325.5,-152.4593 325.5,-171.4593 432.5,-171.4593 432.5,-152.4593 325.5,-152.4593"/>
<text text-anchor="start" x="328.5" y="-158.5593" font-family="Helvetica,sans-Serif" font-size="11.00" fill="#000000">...</text>
<polygon fill="#ffffff" stroke="transparent" points="325.5,-133.4593 325.5,-152.4593 359.5,-152.4593 359.5,-133.4593 325.5,-133.4593"/>
<polygon fill="none" stroke="#000000" points="325.5,-133.4593 325.5,-152.4593 359.5,-152.4593 359.5,-133.4593 325.5,-133.4593"/>
<text text-anchor="start" x="328.5" y="-139.5593" font-family="Helvetica,sans-Serif" font-size="11.00" fill="#000000">&lt; 2</text>
<polygon fill="#ffffff" stroke="transparent" points="359.5,-133.4593 359.5,-152.4593 404.5,-152.4593 404.5,-133.4593 359.5,-133.4593"/>
<polygon fill="none" stroke="#000000" points="359.5,-133.4593 359.5,-152.4593 404.5,-152.4593 404.5,-133.4593 359.5,-133.4593"/>
<text text-anchor="start" x="369.1105" y="-139.5593" font-family="Helvetica,sans-Serif" font-size="11.00" fill="#000000">0 rows</text>
<polygon fill="#ffffff" stroke="transparent" points="404.5,-133.4593 404.5,-152.4593 432.5,-152.4593 432.5,-133.4593 404.5,-133.4593"/>
<polygon fill="none" stroke="#000000" points="404.5,-133.4593 404.5,-152.4593 432.5,-152.4593 432.5,-133.4593 404.5,-133.4593"/>
<text text-anchor="start" x="413.9053" y="-139.5593" font-family="Helvetica,sans-Serif" font-size="11.00" fill="#000000">2 &gt;</text>
</a>
</g>
</g>
<!-- patients&#45;&gt;professionals -->
<g id="edge8" class="edge">
<title>patients:w&#45;&gt;professionals:e</title>
<path fill="none" stroke="#000000" d="M647.61,-229.8353C639.2122,-226.3407 633.926,-220.1695 621,-216.4593 556.6537,-197.9894 534.9813,-213.7554 473,-188.4593 452.9706,-180.2848 454.1333,-161.4593 432.5,-161.4593"/>
<polygon fill="#000000" stroke="#000000" points="654.1298,-231.0241 661.3542,-236.0009 658.0649,-231.7417 662,-232.4593 662,-232.4593 662,-232.4593 658.0649,-231.7417 662.6458,-228.9177 654.1298,-231.0241 654.1298,-231.0241"/>
<ellipse fill="none" stroke="#000000" cx="650.9817" cy="-230.4501" rx="3.2" ry="3.2"/>
</g>
<!-- patients&#45;&gt;profiles -->
<g id="edge9" class="edge">
<title>patients:w&#45;&gt;profiles:e</title>
<path fill="none" stroke="#000000" d="M647.9123,-323.5006C621.6833,-338.2554 658.3067,-402.7175 621,-428.4593 566.8598,-465.8163 538.7022,-431.6108 473,-428.4593 318.1313,-421.0308 277.1922,-416.0508 129,-370.4593 110.3042,-364.7075 107.5606,-354.4593 88,-354.4593"/>
<polygon fill="#000000" stroke="#000000" points="654.1802,-322.1475 662.7597,-323.9782 658.0901,-321.3034 662,-320.4593 662,-320.4593 662,-320.4593 658.0901,-321.3034 661.2403,-316.9404 654.1802,-322.1475 654.1802,-322.1475"/>
<ellipse fill="none" stroke="#000000" cx="651.0522" cy="-322.8228" rx="3.2" ry="3.2"/>
</g>
<!-- provider_locations -->
<g id="node8" class="node">
<title>provider_locations</title>
<g id="a_node8"><a xlink:href="../../tables/provider_locations.html" xlink:title="provider_locations" target="_top">
<polygon fill="#ffffff" stroke="transparent" points="481,-226.9593 481,-287.9593 613,-287.9593 613,-226.9593 481,-226.9593"/>
<polygon fill="#f5f5f5" stroke="transparent" points="481,-264.4593 481,-287.4593 613,-287.4593 613,-264.4593 481,-264.4593"/>
<polygon fill="none" stroke="#000000" points="481,-264.4593 481,-287.4593 613,-287.4593 613,-264.4593 481,-264.4593"/>
<text text-anchor="start" x="485.8813" y="-273.5593" font-family="Helvetica,sans-Serif" font-weight="bold" font-size="11.00" fill="#000000">provider_locations</text>
<text text-anchor="start" x="578.5219" y="-272.5593" font-family="Helvetica,sans-Serif" font-size="11.00" fill="#000000">[table]</text>
<polygon fill="none" stroke="#000000" points="481,-245.4593 481,-264.4593 613,-264.4593 613,-245.4593 481,-245.4593"/>
<text text-anchor="start" x="484" y="-251.5593" font-family="Helvetica,sans-Serif" font-size="11.00" fill="#000000">...</text>
<polygon fill="#ffffff" stroke="transparent" points="481,-226.4593 481,-245.4593 528,-245.4593 528,-226.4593 481,-226.4593"/>
<polygon fill="none" stroke="#000000" points="481,-226.4593 481,-245.4593 528,-245.4593 528,-226.4593 481,-226.4593"/>
<text text-anchor="start" x="484" y="-232.5593" font-family="Helvetica,sans-Serif" font-size="11.00" fill="#000000">&lt; 3</text>
<polygon fill="#ffffff" stroke="transparent" points="528,-226.4593 528,-245.4593 579,-245.4593 579,-226.4593 528,-226.4593"/>
<polygon fill="none" stroke="#000000" points="528,-226.4593 528,-245.4593 579,-245.4593 579,-226.4593 528,-226.4593"/>
<text text-anchor="start" x="543.6105" y="-232.5593" font-family="Helvetica,sans-Serif" font-size="11.00" fill="#000000">0 rows</text>
<polygon fill="#ffffff" stroke="transparent" points="579,-226.4593 579,-245.4593 613,-245.4593 613,-226.4593 579,-226.4593"/>
<polygon fill="none" stroke="#000000" points="579,-226.4593 579,-245.4593 613,-245.4593 613,-226.4593 579,-226.4593"/>
<text text-anchor="start" x="594.4053" y="-232.5593" font-family="Helvetica,sans-Serif" font-size="11.00" fill="#000000">2 &gt;</text>
</a>
</g>
</g>
<!-- patients&#45;&gt;provider_locations -->
<g id="edge10" class="edge">
<title>patients:w&#45;&gt;provider_locations:e</title>
<path fill="none" stroke="#000000" d="M647.4909,-254.4593C636.1774,-254.4593 628.9931,-254.4593 613,-254.4593"/>
<polygon fill="#000000" stroke="#000000" points="654,-254.4593 662,-258.0593 658,-254.4593 662,-254.4593 662,-254.4593 662,-254.4593 658,-254.4593 662,-250.8593 654,-254.4593 654,-254.4593"/>
<ellipse fill="none" stroke="#000000" cx="650.8" cy="-254.4594" rx="3.2" ry="3.2"/>
</g>
<!-- relationships -->
<g id="node9" class="node">
<title>relationships</title>
<g id="a_node9"><a xlink:href="../../tables/relationships.html" xlink:title="relationships" target="_top">
<polygon fill="#ffffff" stroke="transparent" points="495,-116.9593 495,-177.9593 599,-177.9593 599,-116.9593 495,-116.9593"/>
<polygon fill="#f5f5f5" stroke="transparent" points="495,-154.4593 495,-177.4593 599,-177.4593 599,-154.4593 495,-154.4593"/>
<polygon fill="none" stroke="#000000" points="495,-154.4593 495,-177.4593 599,-177.4593 599,-154.4593 495,-154.4593"/>
<text text-anchor="start" x="499.6346" y="-163.5593" font-family="Helvetica,sans-Serif" font-weight="bold" font-size="11.00" fill="#000000">relationships</text>
<text text-anchor="start" x="564.5219" y="-162.5593" font-family="Helvetica,sans-Serif" font-size="11.00" fill="#000000">[table]</text>
<polygon fill="none" stroke="#000000" points="495,-135.4593 495,-154.4593 599,-154.4593 599,-135.4593 495,-135.4593"/>
<text text-anchor="start" x="498" y="-141.5593" font-family="Helvetica,sans-Serif" font-size="11.00" fill="#000000">...</text>
<polygon fill="#ffffff" stroke="transparent" points="495,-116.4593 495,-135.4593 523,-135.4593 523,-116.4593 495,-116.4593"/>
<polygon fill="none" stroke="#000000" points="495,-116.4593 495,-135.4593 523,-135.4593 523,-116.4593 495,-116.4593"/>
<text text-anchor="start" x="498" y="-122.5593" font-family="Helvetica,sans-Serif" font-size="11.00" fill="#000000"> &#160;</text>
<polygon fill="#ffffff" stroke="transparent" points="523,-116.4593 523,-135.4593 569,-135.4593 569,-116.4593 523,-116.4593"/>
<polygon fill="none" stroke="#000000" points="523,-116.4593 523,-135.4593 569,-135.4593 569,-116.4593 523,-116.4593"/>
<text text-anchor="start" x="533.6105" y="-122.5593" font-family="Helvetica,sans-Serif" font-size="11.00" fill="#000000">0 rows</text>
<polygon fill="#ffffff" stroke="transparent" points="569,-116.4593 569,-135.4593 599,-135.4593 599,-116.4593 569,-116.4593"/>
<polygon fill="none" stroke="#000000" points="569,-116.4593 569,-135.4593 599,-135.4593 599,-116.4593 569,-116.4593"/>
<text text-anchor="start" x="580.4053" y="-122.5593" font-family="Helvetica,sans-Serif" font-size="11.00" fill="#000000">1 &gt;</text>
</a>
</g>
</g>
<!-- patients&#45;&gt;relationships -->
<g id="edge11" class="edge">
<title>patients:w&#45;&gt;relationships:e</title>
<path fill="none" stroke="#000000" d="M647.7144,-164.429C630.0473,-158.9827 623.0972,-144.4593 599,-144.4593"/>
<polygon fill="#000000" stroke="#000000" points="654.0796,-165.3336 661.4934,-170.0235 658.0398,-165.8964 662,-166.4593 662,-166.4593 662,-166.4593 658.0398,-165.8964 662.5066,-162.8951 654.0796,-165.3336 654.0796,-165.3336"/>
<ellipse fill="none" stroke="#000000" cx="650.9114" cy="-164.8833" rx="3.2" ry="3.2"/>
</g>
<!-- professionals&#45;&gt;users -->
<g id="edge13" class="edge">
<title>professionals:w&#45;&gt;users:e</title>
<path fill="none" stroke="#000000" d="M314.9077,-162.7794C259.8075,-178.3001 348.5611,-325.4593 276.5,-325.4593"/>
<polygon fill="#000000" stroke="#000000" points="324.2114,-157.5889 325.2009,-165.5275 323.6131,-165.7254 322.6237,-157.7868 324.2114,-157.5889"/>
<polyline fill="none" stroke="#000000" points="325.5,-161.4593 321.5307,-161.954 "/>
<ellipse fill="none" stroke="#000000" cx="318.3553" cy="-162.3498" rx="3.2" ry="3.2"/>
</g>
<!-- provider_locations&#45;&gt;companies -->
<g id="edge14" class="edge">
<title>provider_locations:w&#45;&gt;companies:e</title>
<path fill="none" stroke="#000000" d="M467.1473,-258.688C447.2309,-273.973 460.3754,-325.4593 426.5,-325.4593"/>
<polygon fill="#000000" stroke="#000000" points="473.3486,-256.795 482.0511,-257.9024 477.1743,-255.6272 481,-254.4593 481,-254.4593 481,-254.4593 477.1743,-255.6272 479.9489,-251.0161 473.3486,-256.795 473.3486,-256.795"/>
<ellipse fill="none" stroke="#000000" cx="470.288" cy="-257.7293" rx="3.2" ry="3.2"/>
</g>
<!-- responsible_persons -->
<g id="node10" class="node">
<title>responsible_persons</title>
<g id="a_node10"><a xlink:href="../../tables/responsible_persons.html" xlink:title="responsible_persons" target="_top">
<polygon fill="#ffffff" stroke="transparent" points="921,-256.4593 921,-456.4593 1222,-456.4593 1222,-256.4593 921,-256.4593"/>
<polygon fill="#f5f5f5" stroke="transparent" points="923.5,-431.4593 923.5,-454.4593 1220.5,-454.4593 1220.5,-431.4593 923.5,-431.4593"/>
<polygon fill="none" stroke="#000000" points="923.5,-431.4593 923.5,-454.4593 1220.5,-454.4593 1220.5,-431.4593 923.5,-431.4593"/>
<text text-anchor="start" x="928.5" y="-440.5593" font-family="Helvetica,sans-Serif" font-weight="bold" font-size="11.00" fill="#000000">responsible_persons</text>
<text text-anchor="start" x="1185.5437" y="-439.5593" font-family="Helvetica,sans-Serif" font-size="11.00" fill="#000000">[table]</text>
<polygon fill="none" stroke="#000000" points="923.5,-409.4593 923.5,-431.4593 1126.5,-431.4593 1126.5,-409.4593 923.5,-409.4593"/>
<image xlink:href="../../images/foreignKeys.png" width="11px" height="12px" preserveAspectRatio="xMinYMin meet" x="928.5" y="-426.459"/>
<text text-anchor="start" x="943.5" y="-416.5593" font-family="Helvetica,sans-Serif" font-size="11.00" fill="#000000">user_id</text>
<polygon fill="none" stroke="#000000" points="1126.5,-409.4593 1126.5,-431.4593 1220.5,-431.4593 1220.5,-409.4593 1126.5,-409.4593"/>
<text text-anchor="start" x="1129.4758" y="-417.1593" font-family="Helvetica,sans-Serif" font-size="11.00" fill="#000000">uuid[2147483647]</text>
<polygon fill="none" stroke="#000000" points="923.5,-387.4593 923.5,-409.4593 1126.5,-409.4593 1126.5,-387.4593 923.5,-387.4593"/>
<image xlink:href="../../images/foreignKeys.png" width="11px" height="12px" preserveAspectRatio="xMinYMin meet" x="928.5" y="-404.459"/>
<text text-anchor="start" x="943.5" y="-394.5593" font-family="Helvetica,sans-Serif" font-size="11.00" fill="#000000">patient_id</text>
<polygon fill="none" stroke="#000000" points="1126.5,-387.4593 1126.5,-409.4593 1220.5,-409.4593 1220.5,-387.4593 1126.5,-387.4593"/>
<text text-anchor="start" x="1129.4758" y="-395.1593" font-family="Helvetica,sans-Serif" font-size="11.00" fill="#000000">uuid[2147483647]</text>
<polygon fill="none" stroke="#000000" points="923.5,-365.4593 923.5,-387.4593 1126.5,-387.4593 1126.5,-365.4593 923.5,-365.4593"/>
<text text-anchor="start" x="943.5" y="-372.5593" font-family="Helvetica,sans-Serif" font-size="11.00" fill="#000000">relationship_to_patient</text>
<polygon fill="none" stroke="#000000" points="1126.5,-365.4593 1126.5,-387.4593 1220.5,-387.4593 1220.5,-365.4593 1126.5,-365.4593"/>
<text text-anchor="start" x="1129.5" y="-373.1593" font-family="Helvetica,sans-Serif" font-size="11.00" fill="#000000">text[2147483647]</text>
<polygon fill="none" stroke="#000000" points="923.5,-343.4593 923.5,-365.4593 1126.5,-365.4593 1126.5,-343.4593 923.5,-343.4593"/>
<text text-anchor="start" x="943.5" y="-350.5593" font-family="Helvetica,sans-Serif" font-size="11.00" fill="#000000">is_permitted_to_access_patient</text>
<polygon fill="none" stroke="#000000" points="1126.5,-343.4593 1126.5,-365.4593 1220.5,-365.4593 1220.5,-343.4593 1126.5,-343.4593"/>
<text text-anchor="start" x="1129.5" y="-351.1593" font-family="Helvetica,sans-Serif" font-size="11.00" fill="#000000">bool[1]</text>
<polygon fill="none" stroke="#000000" points="923.5,-321.4593 923.5,-343.4593 1126.5,-343.4593 1126.5,-321.4593 923.5,-321.4593"/>
<image xlink:href="../../images/primaryKeys.png" width="11px" height="12px" preserveAspectRatio="xMinYMin meet" x="928.5" y="-338.459"/>
<text text-anchor="start" x="943.5" y="-328.5593" font-family="Helvetica,sans-Serif" font-size="11.00" fill="#000000">id</text>
<polygon fill="none" stroke="#000000" points="1126.5,-321.4593 1126.5,-343.4593 1220.5,-343.4593 1220.5,-321.4593 1126.5,-321.4593"/>
<text text-anchor="start" x="1129.5" y="-329.1593" font-family="Helvetica,sans-Serif" font-size="11.00" fill="#000000">serial[10]</text>
<polygon fill="none" stroke="#000000" points="923.5,-299.4593 923.5,-321.4593 1126.5,-321.4593 1126.5,-299.4593 923.5,-299.4593"/>
<text text-anchor="start" x="943.5" y="-306.5593" font-family="Helvetica,sans-Serif" font-size="11.00" fill="#000000">created_at</text>
<polygon fill="none" stroke="#000000" points="1126.5,-299.4593 1126.5,-321.4593 1220.5,-321.4593 1220.5,-299.4593 1126.5,-299.4593"/>
<text text-anchor="start" x="1129.5" y="-307.1593" font-family="Helvetica,sans-Serif" font-size="11.00" fill="#000000">timestamptz[35,6]</text>
<polygon fill="none" stroke="#000000" points="923.5,-277.4593 923.5,-299.4593 1126.5,-299.4593 1126.5,-277.4593 923.5,-277.4593"/>
<text text-anchor="start" x="943.5" y="-284.5593" font-family="Helvetica,sans-Serif" font-size="11.00" fill="#000000">updated_at</text>
<polygon fill="none" stroke="#000000" points="1126.5,-277.4593 1126.5,-299.4593 1220.5,-299.4593 1220.5,-277.4593 1126.5,-277.4593"/>
<text text-anchor="start" x="1129.5" y="-285.1593" font-family="Helvetica,sans-Serif" font-size="11.00" fill="#000000">timestamptz[35,6]</text>
<polygon fill="#ffffff" stroke="transparent" points="923.5,-258.4593 923.5,-277.4593 1016.5,-277.4593 1016.5,-258.4593 923.5,-258.4593"/>
<polygon fill="none" stroke="#000000" points="923.5,-258.4593 923.5,-277.4593 1016.5,-277.4593 1016.5,-258.4593 923.5,-258.4593"/>
<text text-anchor="start" x="926.5" y="-264.5593" font-family="Helvetica,sans-Serif" font-size="11.00" fill="#000000">&lt; 2</text>
<polygon fill="#ffffff" stroke="transparent" points="1016.5,-258.4593 1016.5,-277.4593 1126.5,-277.4593 1126.5,-258.4593 1016.5,-258.4593"/>
<polygon fill="none" stroke="#000000" points="1016.5,-258.4593 1016.5,-277.4593 1126.5,-277.4593 1126.5,-258.4593 1016.5,-258.4593"/>
<text text-anchor="start" x="1091.1105" y="-264.5593" font-family="Helvetica,sans-Serif" font-size="11.00" fill="#000000">0 rows</text>
<polygon fill="#ffffff" stroke="transparent" points="1126.5,-258.4593 1126.5,-277.4593 1220.5,-277.4593 1220.5,-258.4593 1126.5,-258.4593"/>
<polygon fill="none" stroke="#000000" points="1126.5,-258.4593 1126.5,-277.4593 1220.5,-277.4593 1220.5,-258.4593 1126.5,-258.4593"/>
<text text-anchor="start" x="1201.9053" y="-264.5593" font-family="Helvetica,sans-Serif" font-size="11.00" fill="#000000">0 &gt;</text>
<polygon fill="none" stroke="#000000" stroke-width="2" points="922,-257.4593 922,-455.4593 1221,-455.4593 1221,-257.4593 922,-257.4593"/>
</a>
</g>
</g>
<!-- responsible_persons&#45;&gt;users -->
<g id="edge16" class="edge">
<title>responsible_persons:w&#45;&gt;users:e</title>
<path fill="none" stroke="#000000" d="M909.0371,-420.6026C649.6596,-425.7477 532.7949,-566.7577 317,-413.4593 281.9006,-388.5251 319.5544,-325.4593 276.5,-325.4593"/>
<polygon fill="#000000" stroke="#000000" points="915.5004,-420.5386 923.5357,-424.0591 919.5002,-420.499 923.5,-420.4593 923.5,-420.4593 923.5,-420.4593 919.5002,-420.499 923.4643,-416.8595 915.5004,-420.5386 915.5004,-420.5386"/>
<ellipse fill="none" stroke="#000000" cx="912.3005" cy="-420.5704" rx="3.2" ry="3.2"/>
</g>
<!-- responsible_persons&#45;&gt;patients -->
<g id="edge15" class="edge">
<title>responsible_persons:w&#45;&gt;patients:e</title>
<path fill="none" stroke="#000000" d="M909.5303,-393.6848C893.8697,-380.1424 899.7377,-342.4593 872,-342.4593"/>
<polygon fill="#000000" stroke="#000000" points="915.9299,-395.872 922.3357,-401.8658 919.715,-397.1656 923.5,-398.4593 923.5,-398.4593 923.5,-398.4593 919.715,-397.1656 924.6643,-395.0528 915.9299,-395.872 915.9299,-395.872"/>
<ellipse fill="none" stroke="#000000" cx="912.9019" cy="-394.837" rx="3.2" ry="3.2"/>
</g>
</g>
</svg>
