<?xml version="1.0" encoding="UTF-8" standalone="no"?>
<!DOCTYPE svg PUBLIC "-//W3C//DTD SVG 1.1//EN"
 "http://www.w3.org/Graphics/SVG/1.1/DTD/svg11.dtd">
<!-- Generated by graphviz version 2.40.1 (20161225.0304)
 -->
<!-- Title: oneDegreeRelationshipsDiagram Pages: 1 -->
<svg width="772pt" height="395pt"
 viewBox="0.00 0.00 772.00 394.70" xmlns="http://www.w3.org/2000/svg" xmlns:xlink="http://www.w3.org/1999/xlink">
<g id="graph0" class="graph" transform="scale(1 1) rotate(0) translate(4 390.7)">
<title>oneDegreeRelationshipsDiagram</title>
<polygon fill="#ffffff" stroke="transparent" points="-4,4 -4,-390.7 768,-390.7 768,4 -4,4"/>
<text text-anchor="middle" x="72.4936" y="-7.3" font-family="Helvetica,sans-Serif" font-size="11.00" fill="#000000">Generated by SchemaSpy</text>
<!-- patients -->
<g id="node1" class="node">
<title>patients</title>
<g id="a_node1"><a xlink:href="../../tables/patients.html" xlink:title="patients" target="_top">
<polygon fill="#ffffff" stroke="transparent" points="196,-38.2 196,-341.2 406,-341.2 406,-38.2 196,-38.2"/>
<polygon fill="#f5f5f5" stroke="transparent" points="196,-317.7 196,-340.7 406,-340.7 406,-317.7 196,-317.7"/>
<polygon fill="none" stroke="#000000" points="196,-317.7 196,-340.7 406,-340.7 406,-317.7 196,-317.7"/>
<text text-anchor="start" x="201" y="-326.8" font-family="Helvetica,sans-Serif" font-weight="bold" font-size="11.00" fill="#000000">patients</text>
<text text-anchor="start" x="371.0437" y="-325.8" font-family="Helvetica,sans-Serif" font-size="11.00" fill="#000000">[table]</text>
<polygon fill="none" stroke="#000000" points="196,-295.7 196,-317.7 406,-317.7 406,-295.7 196,-295.7"/>
<image xlink:href="../../images/primaryKeys.png" width="11px" height="12px" preserveAspectRatio="xMinYMin meet" x="201" y="-312.7"/>
<text text-anchor="start" x="216" y="-302.8" font-family="Helvetica,sans-Serif" font-size="11.00" fill="#000000">id</text>
<polygon fill="none" stroke="#000000" points="196,-273.7 196,-295.7 406,-295.7 406,-273.7 196,-273.7"/>
<image xlink:href="../../images/foreignKeys.png" width="11px" height="12px" preserveAspectRatio="xMinYMin meet" x="201" y="-290.7"/>
<text text-anchor="start" x="216" y="-280.8" font-family="Helvetica,sans-Serif" font-size="11.00" fill="#000000">profile_id</text>
<polygon fill="none" stroke="#000000" points="196,-251.7 196,-273.7 406,-273.7 406,-251.7 196,-251.7"/>
<image xlink:href="../../images/foreignKeys.png" width="11px" height="12px" preserveAspectRatio="xMinYMin meet" x="201" y="-268.7"/>
<text text-anchor="start" x="216" y="-258.8" font-family="Helvetica,sans-Serif" font-size="11.00" fill="#000000">user_id</text>
<polygon fill="none" stroke="#000000" points="196,-229.7 196,-251.7 406,-251.7 406,-229.7 196,-229.7"/>
<image xlink:href="../../images/foreignKeys.png" width="11px" height="12px" preserveAspectRatio="xMinYMin meet" x="201" y="-246.7"/>
<text text-anchor="start" x="216" y="-236.8" font-family="Helvetica,sans-Serif" font-size="11.00" fill="#000000">company_id</text>
<polygon fill="none" stroke="#000000" points="196,-207.7 196,-229.7 406,-229.7 406,-207.7 196,-207.7"/>
<image xlink:href="../../images/foreignKeys.png" width="11px" height="12px" preserveAspectRatio="xMinYMin meet" x="201" y="-224.7"/>
<text text-anchor="start" x="216" y="-214.8" font-family="Helvetica,sans-Serif" font-size="11.00" fill="#000000">provider_location_id</text>
<polygon fill="none" stroke="#000000" points="196,-185.7 196,-207.7 406,-207.7 406,-185.7 196,-185.7"/>
<image xlink:href="../../images/foreignKeys.png" width="11px" height="12px" preserveAspectRatio="xMinYMin meet" x="201" y="-202.7"/>
<text text-anchor="start" x="216" y="-192.8" font-family="Helvetica,sans-Serif" font-size="11.00" fill="#000000">professional_id</text>
<polygon fill="#ffffff" stroke="transparent" points="196,-163.7 196,-185.7 406,-185.7 406,-163.7 196,-163.7"/>
<polygon fill="none" stroke="#000000" points="196,-163.7 196,-185.7 406,-185.7 406,-163.7 196,-163.7"/>
<text text-anchor="start" x="216" y="-170.8" font-family="Helvetica,sans-Serif" font-size="11.00" fill="#000000">insurance_policy_id</text>
<polygon fill="none" stroke="#000000" points="196,-141.7 196,-163.7 406,-163.7 406,-141.7 196,-141.7"/>
<image xlink:href="../../images/foreignKeys.png" width="11px" height="12px" preserveAspectRatio="xMinYMin meet" x="201" y="-158.7"/>
<text text-anchor="start" x="216" y="-148.8" font-family="Helvetica,sans-Serif" font-size="11.00" fill="#000000">main_member_id</text>
<polygon fill="none" stroke="#000000" points="196,-119.7 196,-141.7 406,-141.7 406,-119.7 196,-119.7"/>
<image xlink:href="../../images/foreignKeys.png" width="11px" height="12px" preserveAspectRatio="xMinYMin meet" x="201" y="-136.7"/>
<text text-anchor="start" x="216" y="-126.8" font-family="Helvetica,sans-Serif" font-size="11.00" fill="#000000">relationship_to_main_member</text>
<polygon fill="none" stroke="#000000" points="196,-97.7 196,-119.7 406,-119.7 406,-97.7 196,-97.7"/>
<image xlink:href="../../images/foreignKeys.png" width="11px" height="12px" preserveAspectRatio="xMinYMin meet" x="201" y="-114.7"/>
<text text-anchor="start" x="216" y="-104.8" font-family="Helvetica,sans-Serif" font-size="11.00" fill="#000000">accepted_agreement_by_user_id</text>
<polygon fill="none" stroke="#000000" points="196,-75.7 196,-97.7 406,-97.7 406,-75.7 196,-75.7"/>
<image xlink:href="../../images/foreignKeys.png" width="11px" height="12px" preserveAspectRatio="xMinYMin meet" x="201" y="-92.7"/>
<text text-anchor="start" x="216" y="-82.8" font-family="Helvetica,sans-Serif" font-size="11.00" fill="#000000">created_by_user_id</text>
<polygon fill="none" stroke="#000000" points="196,-56.7 196,-75.7 406,-75.7 406,-56.7 196,-56.7"/>
<text text-anchor="start" x="199" y="-62.8" font-family="Helvetica,sans-Serif" font-size="11.00" fill="#000000">...</text>
<polygon fill="#ffffff" stroke="transparent" points="196,-37.7 196,-56.7 282,-56.7 282,-37.7 196,-37.7"/>
<polygon fill="none" stroke="#000000" points="196,-37.7 196,-56.7 282,-56.7 282,-37.7 196,-37.7"/>
<text text-anchor="start" x="199" y="-43.8" font-family="Helvetica,sans-Serif" font-size="11.00" fill="#000000">&lt; 9</text>
<polygon fill="#ffffff" stroke="transparent" points="282,-37.7 282,-56.7 352,-56.7 352,-37.7 282,-37.7"/>
<polygon fill="none" stroke="#000000" points="282,-37.7 282,-56.7 352,-56.7 352,-37.7 282,-37.7"/>
<text text-anchor="start" x="316.6105" y="-43.8" font-family="Helvetica,sans-Serif" font-size="11.00" fill="#000000">0 rows</text>
<polygon fill="#ffffff" stroke="transparent" points="352,-37.7 352,-56.7 406,-56.7 406,-37.7 352,-37.7"/>
<polygon fill="none" stroke="#000000" points="352,-37.7 352,-56.7 406,-56.7 406,-37.7 352,-37.7"/>
<text text-anchor="start" x="387.4053" y="-43.8" font-family="Helvetica,sans-Serif" font-size="11.00" fill="#000000">2 &gt;</text>
</a>
</g>
</g>
<!-- users -->
<g id="node2" class="node">
<title>users</title>
<g id="a_node2"><a xlink:href="../../tables/users.html" xlink:title="users" target="_top">
<polygon fill="#ffffff" stroke="transparent" points="8,-71.2 8,-220.2 147,-220.2 147,-71.2 8,-71.2"/>
<polygon fill="#f5f5f5" stroke="transparent" points="8.5,-196.7 8.5,-219.7 147.5,-219.7 147.5,-196.7 8.5,-196.7"/>
<polygon fill="none" stroke="#000000" points="8.5,-196.7 8.5,-219.7 147.5,-219.7 147.5,-196.7 8.5,-196.7"/>
<text text-anchor="start" x="13.5" y="-205.8" font-family="Helvetica,sans-Serif" font-weight="bold" font-size="11.00" fill="#000000">users</text>
<text text-anchor="start" x="112.5437" y="-204.8" font-family="Helvetica,sans-Serif" font-size="11.00" fill="#000000">[table]</text>
<polygon fill="none" stroke="#000000" points="8.5,-174.7 8.5,-196.7 147.5,-196.7 147.5,-174.7 8.5,-174.7"/>
<image xlink:href="../../images/primaryKeys.png" width="11px" height="12px" preserveAspectRatio="xMinYMin meet" x="13.5" y="-191.7"/>
<text text-anchor="start" x="28.5" y="-181.8" font-family="Helvetica,sans-Serif" font-size="11.00" fill="#000000">id</text>
<polygon fill="#ffffff" stroke="transparent" points="8.5,-152.7 8.5,-174.7 147.5,-174.7 147.5,-152.7 8.5,-152.7"/>
<polygon fill="none" stroke="#000000" points="8.5,-152.7 8.5,-174.7 147.5,-174.7 147.5,-152.7 8.5,-152.7"/>
<text text-anchor="start" x="28.5" y="-159.8" font-family="Helvetica,sans-Serif" font-size="11.00" fill="#000000">email</text>
<polygon fill="#ffffff" stroke="transparent" points="8.5,-130.7 8.5,-152.7 147.5,-152.7 147.5,-130.7 8.5,-130.7"/>
<polygon fill="none" stroke="#000000" points="8.5,-130.7 8.5,-152.7 147.5,-152.7 147.5,-130.7 8.5,-130.7"/>
<text text-anchor="start" x="28.5" y="-137.8" font-family="Helvetica,sans-Serif" font-size="11.00" fill="#000000">cognito_id</text>
<polygon fill="#ffffff" stroke="transparent" points="8.5,-108.7 8.5,-130.7 147.5,-130.7 147.5,-108.7 8.5,-108.7"/>
<polygon fill="none" stroke="#000000" points="8.5,-108.7 8.5,-130.7 147.5,-130.7 147.5,-108.7 8.5,-108.7"/>
<image xlink:href="../../images/foreignKeys.png" width="11px" height="12px" preserveAspectRatio="xMinYMin meet" x="13.5" y="-125.7"/>
<text text-anchor="start" x="28.5" y="-115.8" font-family="Helvetica,sans-Serif" font-size="11.00" fill="#000000">profile_id</text>
<polygon fill="none" stroke="#000000" points="8.5,-89.7 8.5,-108.7 147.5,-108.7 147.5,-89.7 8.5,-89.7"/>
<text text-anchor="start" x="11.5" y="-95.8" font-family="Helvetica,sans-Serif" font-size="11.00" fill="#000000">...</text>
<polygon fill="#ffffff" stroke="transparent" points="8.5,-70.7 8.5,-89.7 58.5,-89.7 58.5,-70.7 8.5,-70.7"/>
<polygon fill="none" stroke="#000000" points="8.5,-70.7 8.5,-89.7 58.5,-89.7 58.5,-70.7 8.5,-70.7"/>
<text text-anchor="start" x="11.5" y="-76.8" font-family="Helvetica,sans-Serif" font-size="11.00" fill="#000000">&lt; 1</text>
<polygon fill="#ffffff" stroke="transparent" points="58.5,-70.7 58.5,-89.7 111.5,-89.7 111.5,-70.7 58.5,-70.7"/>
<polygon fill="none" stroke="#000000" points="58.5,-70.7 58.5,-89.7 111.5,-89.7 111.5,-70.7 58.5,-70.7"/>
<text text-anchor="start" x="76.1105" y="-76.8" font-family="Helvetica,sans-Serif" font-size="11.00" fill="#000000">0 rows</text>
<polygon fill="#ffffff" stroke="transparent" points="111.5,-70.7 111.5,-89.7 147.5,-89.7 147.5,-70.7 111.5,-70.7"/>
<polygon fill="none" stroke="#000000" points="111.5,-70.7 111.5,-89.7 147.5,-89.7 147.5,-70.7 111.5,-70.7"/>
<text text-anchor="start" x="128.9053" y="-76.8" font-family="Helvetica,sans-Serif" font-size="11.00" fill="#000000">8 &gt;</text>
</a>
</g>
</g>
<!-- patients&#45;&gt;users -->
<g id="edge1" class="edge">
<title>patients:w&#45;&gt;users:e</title>
<path fill="none" stroke="#000000" d="M182.3274,-113.2861C163.5659,-129.8628 181.9415,-185.7 147.5,-185.7"/>
<polygon fill="#000000" stroke="#000000" points="188.4153,-111.2441 197.1449,-112.1131 192.2076,-109.9721 196,-108.7 196,-108.7 196,-108.7 192.2076,-109.9721 194.8551,-105.2869 188.4153,-111.2441 188.4153,-111.2441"/>
<ellipse fill="none" stroke="#000000" cx="185.3814" cy="-112.2618" rx="3.2" ry="3.2"/>
</g>
<!-- patients&#45;&gt;users -->
<g id="edge2" class="edge">
<title>patients:w&#45;&gt;users:e</title>
<path fill="none" stroke="#000000" d="M181.8583,-90.9539C157.8379,-109.9031 190.3718,-185.7 147.5,-185.7"/>
<polygon fill="#000000" stroke="#000000" points="188.3391,-89.0045 197.037,-90.1474 192.1695,-87.8522 196,-86.7 196,-86.7 196,-86.7 192.1695,-87.8522 194.963,-83.2526 188.3391,-89.0045 188.3391,-89.0045"/>
<ellipse fill="none" stroke="#000000" cx="185.2747" cy="-89.9263" rx="3.2" ry="3.2"/>
</g>
<!-- patients&#45;&gt;users -->
<g id="edge3" class="edge">
<title>patients:w&#45;&gt;users:e</title>
<path fill="none" stroke="#000000" d="M182.3274,-258.1139C163.5659,-241.5372 181.9415,-185.7 147.5,-185.7"/>
<polygon fill="#000000" stroke="#000000" points="188.4153,-260.1559 194.8551,-266.1131 192.2076,-261.4279 196,-262.7 196,-262.7 196,-262.7 192.2076,-261.4279 197.1449,-259.2869 188.4153,-260.1559 188.4153,-260.1559"/>
<ellipse fill="none" stroke="#000000" cx="185.3814" cy="-259.1382" rx="3.2" ry="3.2"/>
</g>
<!-- responsible_persons -->
<g id="node3" class="node">
<title>responsible_persons</title>
<g id="a_node3"><a xlink:href="../../tables/responsible_persons.html" xlink:title="responsible_persons" target="_top">
<polygon fill="#ffffff" stroke="transparent" points="455,-182.7 455,-382.7 756,-382.7 756,-182.7 455,-182.7"/>
<polygon fill="#f5f5f5" stroke="transparent" points="457.5,-357.7 457.5,-380.7 754.5,-380.7 754.5,-357.7 457.5,-357.7"/>
<polygon fill="none" stroke="#000000" points="457.5,-357.7 457.5,-380.7 754.5,-380.7 754.5,-357.7 457.5,-357.7"/>
<text text-anchor="start" x="462.5" y="-366.8" font-family="Helvetica,sans-Serif" font-weight="bold" font-size="11.00" fill="#000000">responsible_persons</text>
<text text-anchor="start" x="719.5437" y="-365.8" font-family="Helvetica,sans-Serif" font-size="11.00" fill="#000000">[table]</text>
<polygon fill="none" stroke="#000000" points="457.5,-335.7 457.5,-357.7 660.5,-357.7 660.5,-335.7 457.5,-335.7"/>
<image xlink:href="../../images/foreignKeys.png" width="11px" height="12px" preserveAspectRatio="xMinYMin meet" x="462.5" y="-352.7"/>
<text text-anchor="start" x="477.5" y="-342.8" font-family="Helvetica,sans-Serif" font-size="11.00" fill="#000000">user_id</text>
<polygon fill="none" stroke="#000000" points="660.5,-335.7 660.5,-357.7 754.5,-357.7 754.5,-335.7 660.5,-335.7"/>
<text text-anchor="start" x="663.4758" y="-343.4" font-family="Helvetica,sans-Serif" font-size="11.00" fill="#000000">uuid[2147483647]</text>
<polygon fill="none" stroke="#000000" points="457.5,-313.7 457.5,-335.7 660.5,-335.7 660.5,-313.7 457.5,-313.7"/>
<image xlink:href="../../images/foreignKeys.png" width="11px" height="12px" preserveAspectRatio="xMinYMin meet" x="462.5" y="-330.7"/>
<text text-anchor="start" x="477.5" y="-320.8" font-family="Helvetica,sans-Serif" font-size="11.00" fill="#000000">patient_id</text>
<polygon fill="none" stroke="#000000" points="660.5,-313.7 660.5,-335.7 754.5,-335.7 754.5,-313.7 660.5,-313.7"/>
<text text-anchor="start" x="663.4758" y="-321.4" font-family="Helvetica,sans-Serif" font-size="11.00" fill="#000000">uuid[2147483647]</text>
<polygon fill="none" stroke="#000000" points="457.5,-291.7 457.5,-313.7 660.5,-313.7 660.5,-291.7 457.5,-291.7"/>
<text text-anchor="start" x="477.5" y="-298.8" font-family="Helvetica,sans-Serif" font-size="11.00" fill="#000000">relationship_to_patient</text>
<polygon fill="none" stroke="#000000" points="660.5,-291.7 660.5,-313.7 754.5,-313.7 754.5,-291.7 660.5,-291.7"/>
<text text-anchor="start" x="663.5" y="-299.4" font-family="Helvetica,sans-Serif" font-size="11.00" fill="#000000">text[2147483647]</text>
<polygon fill="none" stroke="#000000" points="457.5,-269.7 457.5,-291.7 660.5,-291.7 660.5,-269.7 457.5,-269.7"/>
<text text-anchor="start" x="477.5" y="-276.8" font-family="Helvetica,sans-Serif" font-size="11.00" fill="#000000">is_permitted_to_access_patient</text>
<polygon fill="none" stroke="#000000" points="660.5,-269.7 660.5,-291.7 754.5,-291.7 754.5,-269.7 660.5,-269.7"/>
<text text-anchor="start" x="663.5" y="-277.4" font-family="Helvetica,sans-Serif" font-size="11.00" fill="#000000">bool[1]</text>
<polygon fill="none" stroke="#000000" points="457.5,-247.7 457.5,-269.7 660.5,-269.7 660.5,-247.7 457.5,-247.7"/>
<image xlink:href="../../images/primaryKeys.png" width="11px" height="12px" preserveAspectRatio="xMinYMin meet" x="462.5" y="-264.7"/>
<text text-anchor="start" x="477.5" y="-254.8" font-family="Helvetica,sans-Serif" font-size="11.00" fill="#000000">id</text>
<polygon fill="none" stroke="#000000" points="660.5,-247.7 660.5,-269.7 754.5,-269.7 754.5,-247.7 660.5,-247.7"/>
<text text-anchor="start" x="663.5" y="-255.4" font-family="Helvetica,sans-Serif" font-size="11.00" fill="#000000">serial[10]</text>
<polygon fill="none" stroke="#000000" points="457.5,-225.7 457.5,-247.7 660.5,-247.7 660.5,-225.7 457.5,-225.7"/>
<text text-anchor="start" x="477.5" y="-232.8" font-family="Helvetica,sans-Serif" font-size="11.00" fill="#000000">created_at</text>
<polygon fill="none" stroke="#000000" points="660.5,-225.7 660.5,-247.7 754.5,-247.7 754.5,-225.7 660.5,-225.7"/>
<text text-anchor="start" x="663.5" y="-233.4" font-family="Helvetica,sans-Serif" font-size="11.00" fill="#000000">timestamptz[35,6]</text>
<polygon fill="none" stroke="#000000" points="457.5,-203.7 457.5,-225.7 660.5,-225.7 660.5,-203.7 457.5,-203.7"/>
<text text-anchor="start" x="477.5" y="-210.8" font-family="Helvetica,sans-Serif" font-size="11.00" fill="#000000">updated_at</text>
<polygon fill="none" stroke="#000000" points="660.5,-203.7 660.5,-225.7 754.5,-225.7 754.5,-203.7 660.5,-203.7"/>
<text text-anchor="start" x="663.5" y="-211.4" font-family="Helvetica,sans-Serif" font-size="11.00" fill="#000000">timestamptz[35,6]</text>
<polygon fill="#ffffff" stroke="transparent" points="457.5,-184.7 457.5,-203.7 550.5,-203.7 550.5,-184.7 457.5,-184.7"/>
<polygon fill="none" stroke="#000000" points="457.5,-184.7 457.5,-203.7 550.5,-203.7 550.5,-184.7 457.5,-184.7"/>
<text text-anchor="start" x="460.5" y="-190.8" font-family="Helvetica,sans-Serif" font-size="11.00" fill="#000000">&lt; 2</text>
<polygon fill="#ffffff" stroke="transparent" points="550.5,-184.7 550.5,-203.7 660.5,-203.7 660.5,-184.7 550.5,-184.7"/>
<polygon fill="none" stroke="#000000" points="550.5,-184.7 550.5,-203.7 660.5,-203.7 660.5,-184.7 550.5,-184.7"/>
<text text-anchor="start" x="625.1105" y="-190.8" font-family="Helvetica,sans-Serif" font-size="11.00" fill="#000000">0 rows</text>
<polygon fill="#ffffff" stroke="transparent" points="660.5,-184.7 660.5,-203.7 754.5,-203.7 754.5,-184.7 660.5,-184.7"/>
<polygon fill="none" stroke="#000000" points="660.5,-184.7 660.5,-203.7 754.5,-203.7 754.5,-184.7 660.5,-184.7"/>
<text text-anchor="start" x="735.9053" y="-190.8" font-family="Helvetica,sans-Serif" font-size="11.00" fill="#000000">0 &gt;</text>
<polygon fill="none" stroke="#000000" stroke-width="2" points="456,-183.7 456,-381.7 755,-381.7 755,-183.7 456,-183.7"/>
</a>
</g>
</g>
<!-- responsible_persons&#45;&gt;patients -->
<g id="edge4" class="edge">
<title>responsible_persons:w&#45;&gt;patients:e</title>
<path fill="none" stroke="#000000" d="M443.0173,-322.044C430.5511,-317.037 424.3744,-306.7 406,-306.7"/>
<polygon fill="#000000" stroke="#000000" points="449.6312,-323.2569 456.8506,-328.2409 453.5656,-323.9785 457.5,-324.7 457.5,-324.7 457.5,-324.7 453.5656,-323.9785 458.1494,-321.1591 449.6312,-323.2569 449.6312,-323.2569"/>
<ellipse fill="none" stroke="#000000" cx="446.4837" cy="-322.6797" rx="3.2" ry="3.2"/>
</g>
<!-- responsible_persons&#45;&gt;users -->
<g id="edge5" class="edge">
<title>responsible_persons:w&#45;&gt;users:e</title>
<path fill="none" stroke="#000000" d="M443.0084,-347.5941C433.8542,-348.8111 427.5091,-350.9262 414,-351.7 313.7199,-357.4443 266.9951,-413.7392 188,-351.7 128.2752,-304.7947 223.4418,-185.7 147.5,-185.7"/>
<polygon fill="#000000" stroke="#000000" points="449.5152,-347.1927 457.7217,-350.2932 453.5076,-346.9464 457.5,-346.7 457.5,-346.7 457.5,-346.7 453.5076,-346.9464 457.2783,-343.1068 449.5152,-347.1927 449.5152,-347.1927"/>
<ellipse fill="none" stroke="#000000" cx="446.3213" cy="-347.3898" rx="3.2" ry="3.2"/>
</g>
</g>
</svg>
