<?xml version="1.0" encoding="UTF-8" standalone="no"?>
<!DOCTYPE svg PUBLIC "-//W3C//DTD SVG 1.1//EN"
 "http://www.w3.org/Graphics/SVG/1.1/DTD/svg11.dtd">
<!-- Generated by graphviz version 2.40.1 (20161225.0304)
 -->
<!-- Title: oneDegreeRelationshipsDiagram Pages: 1 -->
<svg width="1205pt" height="642pt"
 viewBox="0.00 0.00 1205.00 641.90" xmlns="http://www.w3.org/2000/svg" xmlns:xlink="http://www.w3.org/1999/xlink">
<g id="graph0" class="graph" transform="scale(1 1) rotate(0) translate(4 637.8995)">
<title>oneDegreeRelationshipsDiagram</title>
<polygon fill="#ffffff" stroke="transparent" points="-4,4 -4,-637.8995 1201,-637.8995 1201,4 -4,4"/>
<text text-anchor="middle" x="72.4936" y="-7.3" font-family="Helvetica,sans-Serif" font-size="11.00" fill="#000000">Generated by SchemaSpy</text>
<!-- companies -->
<g id="node1" class="node">
<title>companies</title>
<g id="a_node1"><a xlink:href="../../tables/companies.html" xlink:title="companies" target="_top">
<polygon fill="#ffffff" stroke="transparent" points="501,-98.6814 501,-225.6814 678,-225.6814 678,-98.6814 501,-98.6814"/>
<polygon fill="#f5f5f5" stroke="transparent" points="501.5,-202.1814 501.5,-225.1814 678.5,-225.1814 678.5,-202.1814 501.5,-202.1814"/>
<polygon fill="none" stroke="#000000" points="501.5,-202.1814 501.5,-225.1814 678.5,-225.1814 678.5,-202.1814 501.5,-202.1814"/>
<text text-anchor="start" x="506.5" y="-211.2814" font-family="Helvetica,sans-Serif" font-weight="bold" font-size="11.00" fill="#000000">companies</text>
<text text-anchor="start" x="643.5437" y="-210.2814" font-family="Helvetica,sans-Serif" font-size="11.00" fill="#000000">[table]</text>
<polygon fill="none" stroke="#000000" points="501.5,-180.1814 501.5,-202.1814 678.5,-202.1814 678.5,-180.1814 501.5,-180.1814"/>
<image xlink:href="../../images/primaryKeys.png" width="11px" height="12px" preserveAspectRatio="xMinYMin meet" x="506.5" y="-197.181"/>
<text text-anchor="start" x="521.5" y="-187.2814" font-family="Helvetica,sans-Serif" font-size="11.00" fill="#000000">id</text>
<polygon fill="none" stroke="#000000" points="501.5,-158.1814 501.5,-180.1814 678.5,-180.1814 678.5,-158.1814 501.5,-158.1814"/>
<image xlink:href="../../images/foreignKeys.png" width="11px" height="12px" preserveAspectRatio="xMinYMin meet" x="506.5" y="-175.181"/>
<text text-anchor="start" x="521.5" y="-165.2814" font-family="Helvetica,sans-Serif" font-size="11.00" fill="#000000">physical_address_id</text>
<polygon fill="none" stroke="#000000" points="501.5,-136.1814 501.5,-158.1814 678.5,-158.1814 678.5,-136.1814 501.5,-136.1814"/>
<image xlink:href="../../images/foreignKeys.png" width="11px" height="12px" preserveAspectRatio="xMinYMin meet" x="506.5" y="-153.181"/>
<text text-anchor="start" x="521.5" y="-143.2814" font-family="Helvetica,sans-Serif" font-size="11.00" fill="#000000">created_by_user_id</text>
<polygon fill="none" stroke="#000000" points="501.5,-117.1814 501.5,-136.1814 678.5,-136.1814 678.5,-117.1814 501.5,-117.1814"/>
<text text-anchor="start" x="504.5" y="-123.2814" font-family="Helvetica,sans-Serif" font-size="11.00" fill="#000000">...</text>
<polygon fill="#ffffff" stroke="transparent" points="501.5,-98.1814 501.5,-117.1814 570.5,-117.1814 570.5,-98.1814 501.5,-98.1814"/>
<polygon fill="none" stroke="#000000" points="501.5,-98.1814 501.5,-117.1814 570.5,-117.1814 570.5,-98.1814 501.5,-98.1814"/>
<text text-anchor="start" x="504.5" y="-104.2814" font-family="Helvetica,sans-Serif" font-size="11.00" fill="#000000">&lt; 2</text>
<polygon fill="#ffffff" stroke="transparent" points="570.5,-98.1814 570.5,-117.1814 632.5,-117.1814 632.5,-98.1814 570.5,-98.1814"/>
<polygon fill="none" stroke="#000000" points="570.5,-98.1814 570.5,-117.1814 632.5,-117.1814 632.5,-98.1814 570.5,-98.1814"/>
<text text-anchor="start" x="597.1105" y="-104.2814" font-family="Helvetica,sans-Serif" font-size="11.00" fill="#000000">0 rows</text>
<polygon fill="#ffffff" stroke="transparent" points="632.5,-98.1814 632.5,-117.1814 678.5,-117.1814 678.5,-98.1814 632.5,-98.1814"/>
<polygon fill="none" stroke="#000000" points="632.5,-98.1814 632.5,-117.1814 678.5,-117.1814 678.5,-98.1814 632.5,-98.1814"/>
<text text-anchor="start" x="659.9053" y="-104.2814" font-family="Helvetica,sans-Serif" font-size="11.00" fill="#000000">4 &gt;</text>
</a>
</g>
</g>
<!-- users -->
<g id="node2" class="node">
<title>users</title>
<g id="a_node2"><a xlink:href="../../tables/users.html" xlink:title="users" target="_top">
<polygon fill="#ffffff" stroke="transparent" points="215,-93.1814 215,-359.1814 452,-359.1814 452,-93.1814 215,-93.1814"/>
<polygon fill="#f5f5f5" stroke="transparent" points="217.5,-334.1814 217.5,-357.1814 450.5,-357.1814 450.5,-334.1814 217.5,-334.1814"/>
<polygon fill="none" stroke="#000000" points="217.5,-334.1814 217.5,-357.1814 450.5,-357.1814 450.5,-334.1814 217.5,-334.1814"/>
<text text-anchor="start" x="222.5" y="-343.2814" font-family="Helvetica,sans-Serif" font-weight="bold" font-size="11.00" fill="#000000">users</text>
<text text-anchor="start" x="415.5437" y="-342.2814" font-family="Helvetica,sans-Serif" font-size="11.00" fill="#000000">[table]</text>
<polygon fill="none" stroke="#000000" points="217.5,-312.1814 217.5,-334.1814 356.5,-334.1814 356.5,-312.1814 217.5,-312.1814"/>
<image xlink:href="../../images/primaryKeys.png" width="11px" height="12px" preserveAspectRatio="xMinYMin meet" x="222.5" y="-329.181"/>
<text text-anchor="start" x="237.5" y="-319.2814" font-family="Helvetica,sans-Serif" font-size="11.00" fill="#000000">id</text>
<polygon fill="none" stroke="#000000" points="356.5,-312.1814 356.5,-334.1814 450.5,-334.1814 450.5,-312.1814 356.5,-312.1814"/>
<text text-anchor="start" x="359.4758" y="-319.8814" font-family="Helvetica,sans-Serif" font-size="11.00" fill="#000000">uuid[2147483647]</text>
<polygon fill="#ffffff" stroke="transparent" points="217.5,-290.1814 217.5,-312.1814 356.5,-312.1814 356.5,-290.1814 217.5,-290.1814"/>
<polygon fill="none" stroke="#000000" points="217.5,-290.1814 217.5,-312.1814 356.5,-312.1814 356.5,-290.1814 217.5,-290.1814"/>
<text text-anchor="start" x="237.5" y="-297.2814" font-family="Helvetica,sans-Serif" font-size="11.00" fill="#000000">email</text>
<polygon fill="none" stroke="#000000" points="356.5,-290.1814 356.5,-312.1814 450.5,-312.1814 450.5,-290.1814 356.5,-290.1814"/>
<text text-anchor="start" x="359.5" y="-297.8814" font-family="Helvetica,sans-Serif" font-size="11.00" fill="#000000">text[2147483647]</text>
<polygon fill="none" stroke="#000000" points="217.5,-268.1814 217.5,-290.1814 356.5,-290.1814 356.5,-268.1814 217.5,-268.1814"/>
<text text-anchor="start" x="237.5" y="-275.2814" font-family="Helvetica,sans-Serif" font-size="11.00" fill="#000000">has_accepted_terms</text>
<polygon fill="none" stroke="#000000" points="356.5,-268.1814 356.5,-290.1814 450.5,-290.1814 450.5,-268.1814 356.5,-268.1814"/>
<text text-anchor="start" x="359.5" y="-275.8814" font-family="Helvetica,sans-Serif" font-size="11.00" fill="#000000">bool[1]</text>
<polygon fill="#ffffff" stroke="transparent" points="217.5,-246.1814 217.5,-268.1814 356.5,-268.1814 356.5,-246.1814 217.5,-246.1814"/>
<polygon fill="none" stroke="#000000" points="217.5,-246.1814 217.5,-268.1814 356.5,-268.1814 356.5,-246.1814 217.5,-246.1814"/>
<text text-anchor="start" x="237.5" y="-253.2814" font-family="Helvetica,sans-Serif" font-size="11.00" fill="#000000">cognito_id</text>
<polygon fill="none" stroke="#000000" points="356.5,-246.1814 356.5,-268.1814 450.5,-268.1814 450.5,-246.1814 356.5,-246.1814"/>
<text text-anchor="start" x="359.5" y="-253.8814" font-family="Helvetica,sans-Serif" font-size="11.00" fill="#000000">text[2147483647]</text>
<polygon fill="#ffffff" stroke="transparent" points="217.5,-224.1814 217.5,-246.1814 356.5,-246.1814 356.5,-224.1814 217.5,-224.1814"/>
<polygon fill="none" stroke="#000000" points="217.5,-224.1814 217.5,-246.1814 356.5,-246.1814 356.5,-224.1814 217.5,-224.1814"/>
<image xlink:href="../../images/foreignKeys.png" width="11px" height="12px" preserveAspectRatio="xMinYMin meet" x="222.5" y="-241.181"/>
<text text-anchor="start" x="237.5" y="-231.2814" font-family="Helvetica,sans-Serif" font-size="11.00" fill="#000000">profile_id</text>
<polygon fill="none" stroke="#000000" points="356.5,-224.1814 356.5,-246.1814 450.5,-246.1814 450.5,-224.1814 356.5,-224.1814"/>
<text text-anchor="start" x="359.4758" y="-231.8814" font-family="Helvetica,sans-Serif" font-size="11.00" fill="#000000">uuid[2147483647]</text>
<polygon fill="none" stroke="#000000" points="217.5,-202.1814 217.5,-224.1814 356.5,-224.1814 356.5,-202.1814 217.5,-202.1814"/>
<text text-anchor="start" x="237.5" y="-209.2814" font-family="Helvetica,sans-Serif" font-size="11.00" fill="#000000">can_be_support</text>
<polygon fill="none" stroke="#000000" points="356.5,-202.1814 356.5,-224.1814 450.5,-224.1814 450.5,-202.1814 356.5,-202.1814"/>
<text text-anchor="start" x="359.5" y="-209.8814" font-family="Helvetica,sans-Serif" font-size="11.00" fill="#000000">bool[1]</text>
<polygon fill="none" stroke="#000000" points="217.5,-180.1814 217.5,-202.1814 356.5,-202.1814 356.5,-180.1814 217.5,-180.1814"/>
<text text-anchor="start" x="237.5" y="-187.2814" font-family="Helvetica,sans-Serif" font-size="11.00" fill="#000000">created_at</text>
<polygon fill="none" stroke="#000000" points="356.5,-180.1814 356.5,-202.1814 450.5,-202.1814 450.5,-180.1814 356.5,-180.1814"/>
<text text-anchor="start" x="359.5" y="-187.8814" font-family="Helvetica,sans-Serif" font-size="11.00" fill="#000000">timestamptz[35,6]</text>
<polygon fill="none" stroke="#000000" points="217.5,-158.1814 217.5,-180.1814 356.5,-180.1814 356.5,-158.1814 217.5,-158.1814"/>
<text text-anchor="start" x="237.5" y="-165.2814" font-family="Helvetica,sans-Serif" font-size="11.00" fill="#000000">updated_at</text>
<polygon fill="none" stroke="#000000" points="356.5,-158.1814 356.5,-180.1814 450.5,-180.1814 450.5,-158.1814 356.5,-158.1814"/>
<text text-anchor="start" x="359.5" y="-165.8814" font-family="Helvetica,sans-Serif" font-size="11.00" fill="#000000">timestamptz[35,6]</text>
<polygon fill="none" stroke="#000000" points="217.5,-136.1814 217.5,-158.1814 356.5,-158.1814 356.5,-136.1814 217.5,-136.1814"/>
<text text-anchor="start" x="237.5" y="-143.2814" font-family="Helvetica,sans-Serif" font-size="11.00" fill="#000000">deleted_at</text>
<polygon fill="none" stroke="#000000" points="356.5,-136.1814 356.5,-158.1814 450.5,-158.1814 450.5,-136.1814 356.5,-136.1814"/>
<text text-anchor="start" x="359.5" y="-143.8814" font-family="Helvetica,sans-Serif" font-size="11.00" fill="#000000">timestamptz[35,6]</text>
<polygon fill="none" stroke="#000000" points="217.5,-114.1814 217.5,-136.1814 356.5,-136.1814 356.5,-114.1814 217.5,-114.1814"/>
<text text-anchor="start" x="237.5" y="-121.2814" font-family="Helvetica,sans-Serif" font-size="11.00" fill="#000000">core_person_id</text>
<polygon fill="none" stroke="#000000" points="356.5,-114.1814 356.5,-136.1814 450.5,-136.1814 450.5,-114.1814 356.5,-114.1814"/>
<text text-anchor="start" x="359.5" y="-121.8814" font-family="Helvetica,sans-Serif" font-size="11.00" fill="#000000">text[2147483647]</text>
<polygon fill="#ffffff" stroke="transparent" points="217.5,-95.1814 217.5,-114.1814 278.5,-114.1814 278.5,-95.1814 217.5,-95.1814"/>
<polygon fill="none" stroke="#000000" points="217.5,-95.1814 217.5,-114.1814 278.5,-114.1814 278.5,-95.1814 217.5,-95.1814"/>
<text text-anchor="start" x="220.5" y="-101.2814" font-family="Helvetica,sans-Serif" font-size="11.00" fill="#000000">&lt; 1</text>
<polygon fill="#ffffff" stroke="transparent" points="278.5,-95.1814 278.5,-114.1814 356.5,-114.1814 356.5,-95.1814 278.5,-95.1814"/>
<polygon fill="none" stroke="#000000" points="278.5,-95.1814 278.5,-114.1814 356.5,-114.1814 356.5,-95.1814 278.5,-95.1814"/>
<text text-anchor="start" x="321.1105" y="-101.2814" font-family="Helvetica,sans-Serif" font-size="11.00" fill="#000000">0 rows</text>
<polygon fill="#ffffff" stroke="transparent" points="356.5,-95.1814 356.5,-114.1814 450.5,-114.1814 450.5,-95.1814 356.5,-95.1814"/>
<polygon fill="none" stroke="#000000" points="356.5,-95.1814 356.5,-114.1814 450.5,-114.1814 450.5,-95.1814 356.5,-95.1814"/>
<text text-anchor="start" x="431.9053" y="-101.2814" font-family="Helvetica,sans-Serif" font-size="11.00" fill="#000000">8 &gt;</text>
<polygon fill="none" stroke="#000000" stroke-width="2" points="216,-94.1814 216,-358.1814 451,-358.1814 451,-94.1814 216,-94.1814"/>
</a>
</g>
</g>
<!-- companies&#45;&gt;users -->
<g id="edge1" class="edge">
<title>companies:w&#45;&gt;users:e</title>
<path fill="none" stroke="#000000" d="M487.0541,-149.6694C434.8373,-171.0613 526.2139,-323.1814 450.5,-323.1814"/>
<polygon fill="#000000" stroke="#000000" points="493.6161,-148.5393 502.111,-150.7292 497.558,-147.8604 501.5,-147.1814 501.5,-147.1814 501.5,-147.1814 497.558,-147.8604 500.889,-143.6337 493.6161,-148.5393 493.6161,-148.5393"/>
<ellipse fill="none" stroke="#000000" cx="490.4625" cy="-149.0825" rx="3.2" ry="3.2"/>
</g>
<!-- profiles -->
<g id="node7" class="node">
<title>profiles</title>
<g id="a_node7"><a xlink:href="../../tables/profiles.html" xlink:title="profiles" target="_top">
<polygon fill="#ffffff" stroke="transparent" points="8,-292.6814 8,-441.6814 166,-441.6814 166,-292.6814 8,-292.6814"/>
<polygon fill="#f5f5f5" stroke="transparent" points="8,-418.1814 8,-441.1814 166,-441.1814 166,-418.1814 8,-418.1814"/>
<polygon fill="none" stroke="#000000" points="8,-418.1814 8,-441.1814 166,-441.1814 166,-418.1814 8,-418.1814"/>
<text text-anchor="start" x="13" y="-427.2814" font-family="Helvetica,sans-Serif" font-weight="bold" font-size="11.00" fill="#000000">profiles</text>
<text text-anchor="start" x="131.0437" y="-426.2814" font-family="Helvetica,sans-Serif" font-size="11.00" fill="#000000">[table]</text>
<polygon fill="none" stroke="#000000" points="8,-396.1814 8,-418.1814 166,-418.1814 166,-396.1814 8,-396.1814"/>
<image xlink:href="../../images/primaryKeys.png" width="11px" height="12px" preserveAspectRatio="xMinYMin meet" x="13" y="-413.181"/>
<text text-anchor="start" x="28" y="-403.2814" font-family="Helvetica,sans-Serif" font-size="11.00" fill="#000000">id</text>
<polygon fill="none" stroke="#000000" points="8,-374.1814 8,-396.1814 166,-396.1814 166,-374.1814 8,-374.1814"/>
<image xlink:href="../../images/foreignKeys.png" width="11px" height="12px" preserveAspectRatio="xMinYMin meet" x="13" y="-391.181"/>
<text text-anchor="start" x="28" y="-381.2814" font-family="Helvetica,sans-Serif" font-size="11.00" fill="#000000">gender</text>
<polygon fill="none" stroke="#000000" points="8,-352.1814 8,-374.1814 166,-374.1814 166,-352.1814 8,-352.1814"/>
<image xlink:href="../../images/foreignKeys.png" width="11px" height="12px" preserveAspectRatio="xMinYMin meet" x="13" y="-369.181"/>
<text text-anchor="start" x="28" y="-359.2814" font-family="Helvetica,sans-Serif" font-size="11.00" fill="#000000">address_id</text>
<polygon fill="none" stroke="#000000" points="8,-330.1814 8,-352.1814 166,-352.1814 166,-330.1814 8,-330.1814"/>
<image xlink:href="../../images/foreignKeys.png" width="11px" height="12px" preserveAspectRatio="xMinYMin meet" x="13" y="-347.181"/>
<text text-anchor="start" x="28" y="-337.2814" font-family="Helvetica,sans-Serif" font-size="11.00" fill="#000000">marital_status</text>
<polygon fill="none" stroke="#000000" points="8,-311.1814 8,-330.1814 166,-330.1814 166,-311.1814 8,-311.1814"/>
<text text-anchor="start" x="11" y="-317.2814" font-family="Helvetica,sans-Serif" font-size="11.00" fill="#000000">...</text>
<polygon fill="#ffffff" stroke="transparent" points="8,-292.1814 8,-311.1814 68,-311.1814 68,-292.1814 8,-292.1814"/>
<polygon fill="none" stroke="#000000" points="8,-292.1814 8,-311.1814 68,-311.1814 68,-292.1814 8,-292.1814"/>
<text text-anchor="start" x="11" y="-298.2814" font-family="Helvetica,sans-Serif" font-size="11.00" fill="#000000">&lt; 3</text>
<polygon fill="#ffffff" stroke="transparent" points="68,-292.1814 68,-311.1814 125,-311.1814 125,-292.1814 68,-292.1814"/>
<polygon fill="none" stroke="#000000" points="68,-292.1814 68,-311.1814 125,-311.1814 125,-292.1814 68,-292.1814"/>
<text text-anchor="start" x="89.6105" y="-298.2814" font-family="Helvetica,sans-Serif" font-size="11.00" fill="#000000">0 rows</text>
<polygon fill="#ffffff" stroke="transparent" points="125,-292.1814 125,-311.1814 166,-311.1814 166,-292.1814 125,-292.1814"/>
<polygon fill="none" stroke="#000000" points="125,-292.1814 125,-311.1814 166,-311.1814 166,-292.1814 125,-292.1814"/>
<text text-anchor="start" x="147.4053" y="-298.2814" font-family="Helvetica,sans-Serif" font-size="11.00" fill="#000000">2 &gt;</text>
</a>
</g>
</g>
<!-- users&#45;&gt;profiles -->
<g id="edge14" class="edge">
<title>users:w&#45;&gt;profiles:e</title>
<path fill="none" stroke="#000000" d="M207.1111,-236.3716C147.8106,-251.5682 241.9012,-407.1814 166,-407.1814"/>
<polygon fill="#000000" stroke="#000000" points="216.2499,-231.2985 217.1605,-239.2465 215.5709,-239.4286 214.6603,-231.4806 216.2499,-231.2985"/>
<polyline fill="none" stroke="#000000" points="217.5,-235.1814 213.526,-235.6368 "/>
<ellipse fill="none" stroke="#000000" cx="210.3468" cy="-236.001" rx="3.2" ry="3.2"/>
</g>
<!-- company_users -->
<g id="node3" class="node">
<title>company_users</title>
<g id="a_node3"><a xlink:href="../../tables/company_users.html" xlink:title="company_users" target="_top">
<polygon fill="#ffffff" stroke="transparent" points="772,-56.1814 772,-164.1814 892,-164.1814 892,-56.1814 772,-56.1814"/>
<polygon fill="#f5f5f5" stroke="transparent" points="772,-141.1814 772,-164.1814 892,-164.1814 892,-141.1814 772,-141.1814"/>
<polygon fill="none" stroke="#000000" points="772,-141.1814 772,-164.1814 892,-164.1814 892,-141.1814 772,-141.1814"/>
<text text-anchor="start" x="776.686" y="-150.2814" font-family="Helvetica,sans-Serif" font-weight="bold" font-size="11.00" fill="#000000">company_users</text>
<text text-anchor="start" x="857.5219" y="-149.2814" font-family="Helvetica,sans-Serif" font-size="11.00" fill="#000000">[table]</text>
<polygon fill="none" stroke="#000000" points="772,-119.1814 772,-141.1814 892,-141.1814 892,-119.1814 772,-119.1814"/>
<image xlink:href="../../images/primaryKeys.png" width="11px" height="12px" preserveAspectRatio="xMinYMin meet" x="777" y="-136.181"/>
<text text-anchor="start" x="796" y="-126.2814" font-family="Helvetica,sans-Serif" font-size="11.00" fill="#000000">company_id</text>
<polygon fill="none" stroke="#000000" points="772,-97.1814 772,-119.1814 892,-119.1814 892,-97.1814 772,-97.1814"/>
<image xlink:href="../../images/primaryKeys.png" width="11px" height="12px" preserveAspectRatio="xMinYMin meet" x="777" y="-114.181"/>
<text text-anchor="start" x="796" y="-104.2814" font-family="Helvetica,sans-Serif" font-size="11.00" fill="#000000">user_id</text>
<polygon fill="none" stroke="#000000" points="772,-75.1814 772,-97.1814 892,-97.1814 892,-75.1814 772,-75.1814"/>
<image xlink:href="../../images/primaryKeys.png" width="11px" height="12px" preserveAspectRatio="xMinYMin meet" x="777" y="-92.1814"/>
<text text-anchor="start" x="796" y="-82.2814" font-family="Helvetica,sans-Serif" font-size="11.00" fill="#000000">role</text>
<polygon fill="#ffffff" stroke="transparent" points="772,-56.1814 772,-75.1814 817,-75.1814 817,-56.1814 772,-56.1814"/>
<polygon fill="none" stroke="#000000" points="772,-56.1814 772,-75.1814 817,-75.1814 817,-56.1814 772,-56.1814"/>
<text text-anchor="start" x="775" y="-62.2814" font-family="Helvetica,sans-Serif" font-size="11.00" fill="#000000">&lt; 2</text>
<polygon fill="#ffffff" stroke="transparent" points="817,-56.1814 817,-75.1814 867,-75.1814 867,-56.1814 817,-56.1814"/>
<polygon fill="none" stroke="#000000" points="817,-56.1814 817,-75.1814 867,-75.1814 867,-56.1814 817,-56.1814"/>
<text text-anchor="start" x="831.6105" y="-62.2814" font-family="Helvetica,sans-Serif" font-size="11.00" fill="#000000">0 rows</text>
<polygon fill="#ffffff" stroke="transparent" points="867,-56.1814 867,-75.1814 892,-75.1814 892,-56.1814 867,-56.1814"/>
<polygon fill="none" stroke="#000000" points="867,-56.1814 867,-75.1814 892,-75.1814 892,-56.1814 867,-56.1814"/>
<text text-anchor="start" x="882.8862" y="-62.2814" font-family="Helvetica,sans-Serif" font-size="11.00" fill="#000000"> &#160;</text>
</a>
</g>
</g>
<!-- company_users&#45;&gt;companies -->
<g id="edge2" class="edge">
<title>company_users:w&#45;&gt;companies:e</title>
<path fill="none" stroke="#000000" d="M757.561,-132.211C722.975,-142.7955 722.6904,-191.1814 678.5,-191.1814"/>
<polygon fill="#000000" stroke="#000000" points="764.0779,-131.295 772.5011,-133.7464 768.0389,-130.7382 772,-130.1814 772,-130.1814 772,-130.1814 768.0389,-130.7382 771.4989,-126.6165 764.0779,-131.295 764.0779,-131.295"/>
<ellipse fill="none" stroke="#000000" cx="760.909" cy="-131.7405" rx="3.2" ry="3.2"/>
</g>
<!-- company_users&#45;&gt;users -->
<g id="edge3" class="edge">
<title>company_users:w&#45;&gt;users:e</title>
<path fill="none" stroke="#000000" d="M757.295,-106.6133C728.0523,-99.8276 722.3592,-72.9426 686,-64.1814 602.609,-44.0875 558.3806,-8.6549 493,-64.1814 448.5439,-101.9372 508.8253,-323.1814 450.5,-323.1814"/>
<polygon fill="#000000" stroke="#000000" points="764.0451,-107.3331 771.6182,-111.7611 768.0226,-107.7573 772,-108.1814 772,-108.1814 772,-108.1814 768.0226,-107.7573 772.3818,-104.6017 764.0451,-107.3331 764.0451,-107.3331"/>
<ellipse fill="none" stroke="#000000" cx="760.8631" cy="-106.9937" rx="3.2" ry="3.2"/>
</g>
<!-- feedback -->
<g id="node4" class="node">
<title>feedback</title>
<g id="a_node4"><a xlink:href="../../tables/feedback.html" xlink:title="feedback" target="_top">
<polygon fill="#ffffff" stroke="transparent" points="546,-274.6814 546,-379.6814 633,-379.6814 633,-274.6814 546,-274.6814"/>
<polygon fill="#f5f5f5" stroke="transparent" points="546.5,-356.1814 546.5,-379.1814 633.5,-379.1814 633.5,-356.1814 546.5,-356.1814"/>
<polygon fill="none" stroke="#000000" points="546.5,-356.1814 546.5,-379.1814 633.5,-379.1814 633.5,-356.1814 546.5,-356.1814"/>
<text text-anchor="start" x="551.1843" y="-365.2814" font-family="Helvetica,sans-Serif" font-weight="bold" font-size="11.00" fill="#000000">feedback</text>
<text text-anchor="start" x="599.0219" y="-364.2814" font-family="Helvetica,sans-Serif" font-size="11.00" fill="#000000">[table]</text>
<polygon fill="none" stroke="#000000" points="546.5,-334.1814 546.5,-356.1814 633.5,-356.1814 633.5,-334.1814 546.5,-334.1814"/>
<image xlink:href="../../images/primaryKeys.png" width="11px" height="12px" preserveAspectRatio="xMinYMin meet" x="551.5" y="-351.181"/>
<text text-anchor="start" x="569.5" y="-341.2814" font-family="Helvetica,sans-Serif" font-size="11.00" fill="#000000">id</text>
<polygon fill="none" stroke="#000000" points="546.5,-312.1814 546.5,-334.1814 633.5,-334.1814 633.5,-312.1814 546.5,-312.1814"/>
<image xlink:href="../../images/foreignKeys.png" width="11px" height="12px" preserveAspectRatio="xMinYMin meet" x="551.5" y="-329.181"/>
<text text-anchor="start" x="569.5" y="-319.2814" font-family="Helvetica,sans-Serif" font-size="11.00" fill="#000000">user_id</text>
<polygon fill="none" stroke="#000000" points="546.5,-293.1814 546.5,-312.1814 633.5,-312.1814 633.5,-293.1814 546.5,-293.1814"/>
<text text-anchor="start" x="549.5" y="-299.2814" font-family="Helvetica,sans-Serif" font-size="11.00" fill="#000000">...</text>
<polygon fill="#ffffff" stroke="transparent" points="546.5,-274.1814 546.5,-293.1814 575.5,-293.1814 575.5,-274.1814 546.5,-274.1814"/>
<polygon fill="none" stroke="#000000" points="546.5,-274.1814 546.5,-293.1814 575.5,-293.1814 575.5,-274.1814 546.5,-274.1814"/>
<text text-anchor="start" x="549.5" y="-280.2814" font-family="Helvetica,sans-Serif" font-size="11.00" fill="#000000">&lt; 1</text>
<polygon fill="#ffffff" stroke="transparent" points="575.5,-274.1814 575.5,-293.1814 617.5,-293.1814 617.5,-274.1814 575.5,-274.1814"/>
<polygon fill="none" stroke="#000000" points="575.5,-274.1814 575.5,-293.1814 617.5,-293.1814 617.5,-274.1814 575.5,-274.1814"/>
<text text-anchor="start" x="582.1105" y="-280.2814" font-family="Helvetica,sans-Serif" font-size="11.00" fill="#000000">0 rows</text>
<polygon fill="#ffffff" stroke="transparent" points="617.5,-274.1814 617.5,-293.1814 633.5,-293.1814 633.5,-274.1814 617.5,-274.1814"/>
<polygon fill="none" stroke="#000000" points="617.5,-274.1814 617.5,-293.1814 633.5,-293.1814 633.5,-274.1814 617.5,-274.1814"/>
<text text-anchor="start" x="624.3862" y="-280.2814" font-family="Helvetica,sans-Serif" font-size="11.00" fill="#000000"> &#160;</text>
</a>
</g>
</g>
<!-- feedback&#45;&gt;users -->
<g id="edge4" class="edge">
<title>feedback:w&#45;&gt;users:e</title>
<path fill="none" stroke="#000000" d="M531.875,-323.1814C500.6667,-323.1814 487.8333,-323.1814 450.5,-323.1814"/>
<polygon fill="#000000" stroke="#000000" points="538.5,-323.1815 546.5,-326.7814 542.5,-323.1815 546.5,-323.1814 546.5,-323.1814 546.5,-323.1814 542.5,-323.1815 546.5,-319.5814 538.5,-323.1815 538.5,-323.1815"/>
<ellipse fill="none" stroke="#000000" cx="535.3" cy="-323.1815" rx="3.2" ry="3.2"/>
</g>
<!-- patients -->
<g id="node5" class="node">
<title>patients</title>
<g id="a_node5"><a xlink:href="../../tables/patients.html" xlink:title="patients" target="_top">
<polygon fill="#ffffff" stroke="transparent" points="727,-278.6814 727,-581.6814 937,-581.6814 937,-278.6814 727,-278.6814"/>
<polygon fill="#f5f5f5" stroke="transparent" points="727,-558.1814 727,-581.1814 937,-581.1814 937,-558.1814 727,-558.1814"/>
<polygon fill="none" stroke="#000000" points="727,-558.1814 727,-581.1814 937,-581.1814 937,-558.1814 727,-558.1814"/>
<text text-anchor="start" x="732" y="-567.2814" font-family="Helvetica,sans-Serif" font-weight="bold" font-size="11.00" fill="#000000">patients</text>
<text text-anchor="start" x="902.0437" y="-566.2814" font-family="Helvetica,sans-Serif" font-size="11.00" fill="#000000">[table]</text>
<polygon fill="none" stroke="#000000" points="727,-536.1814 727,-558.1814 937,-558.1814 937,-536.1814 727,-536.1814"/>
<image xlink:href="../../images/primaryKeys.png" width="11px" height="12px" preserveAspectRatio="xMinYMin meet" x="732" y="-553.181"/>
<text text-anchor="start" x="747" y="-543.2814" font-family="Helvetica,sans-Serif" font-size="11.00" fill="#000000">id</text>
<polygon fill="none" stroke="#000000" points="727,-514.1814 727,-536.1814 937,-536.1814 937,-514.1814 727,-514.1814"/>
<image xlink:href="../../images/foreignKeys.png" width="11px" height="12px" preserveAspectRatio="xMinYMin meet" x="732" y="-531.181"/>
<text text-anchor="start" x="747" y="-521.2814" font-family="Helvetica,sans-Serif" font-size="11.00" fill="#000000">profile_id</text>
<polygon fill="none" stroke="#000000" points="727,-492.1814 727,-514.1814 937,-514.1814 937,-492.1814 727,-492.1814"/>
<image xlink:href="../../images/foreignKeys.png" width="11px" height="12px" preserveAspectRatio="xMinYMin meet" x="732" y="-509.181"/>
<text text-anchor="start" x="747" y="-499.2814" font-family="Helvetica,sans-Serif" font-size="11.00" fill="#000000">user_id</text>
<polygon fill="none" stroke="#000000" points="727,-470.1814 727,-492.1814 937,-492.1814 937,-470.1814 727,-470.1814"/>
<image xlink:href="../../images/foreignKeys.png" width="11px" height="12px" preserveAspectRatio="xMinYMin meet" x="732" y="-487.181"/>
<text text-anchor="start" x="747" y="-477.2814" font-family="Helvetica,sans-Serif" font-size="11.00" fill="#000000">company_id</text>
<polygon fill="none" stroke="#000000" points="727,-448.1814 727,-470.1814 937,-470.1814 937,-448.1814 727,-448.1814"/>
<image xlink:href="../../images/foreignKeys.png" width="11px" height="12px" preserveAspectRatio="xMinYMin meet" x="732" y="-465.181"/>
<text text-anchor="start" x="747" y="-455.2814" font-family="Helvetica,sans-Serif" font-size="11.00" fill="#000000">provider_location_id</text>
<polygon fill="none" stroke="#000000" points="727,-426.1814 727,-448.1814 937,-448.1814 937,-426.1814 727,-426.1814"/>
<image xlink:href="../../images/foreignKeys.png" width="11px" height="12px" preserveAspectRatio="xMinYMin meet" x="732" y="-443.181"/>
<text text-anchor="start" x="747" y="-433.2814" font-family="Helvetica,sans-Serif" font-size="11.00" fill="#000000">professional_id</text>
<polygon fill="#ffffff" stroke="transparent" points="727,-404.1814 727,-426.1814 937,-426.1814 937,-404.1814 727,-404.1814"/>
<polygon fill="none" stroke="#000000" points="727,-404.1814 727,-426.1814 937,-426.1814 937,-404.1814 727,-404.1814"/>
<text text-anchor="start" x="747" y="-411.2814" font-family="Helvetica,sans-Serif" font-size="11.00" fill="#000000">insurance_policy_id</text>
<polygon fill="none" stroke="#000000" points="727,-382.1814 727,-404.1814 937,-404.1814 937,-382.1814 727,-382.1814"/>
<image xlink:href="../../images/foreignKeys.png" width="11px" height="12px" preserveAspectRatio="xMinYMin meet" x="732" y="-399.181"/>
<text text-anchor="start" x="747" y="-389.2814" font-family="Helvetica,sans-Serif" font-size="11.00" fill="#000000">main_member_id</text>
<polygon fill="none" stroke="#000000" points="727,-360.1814 727,-382.1814 937,-382.1814 937,-360.1814 727,-360.1814"/>
<image xlink:href="../../images/foreignKeys.png" width="11px" height="12px" preserveAspectRatio="xMinYMin meet" x="732" y="-377.181"/>
<text text-anchor="start" x="747" y="-367.2814" font-family="Helvetica,sans-Serif" font-size="11.00" fill="#000000">relationship_to_main_member</text>
<polygon fill="none" stroke="#000000" points="727,-338.1814 727,-360.1814 937,-360.1814 937,-338.1814 727,-338.1814"/>
<image xlink:href="../../images/foreignKeys.png" width="11px" height="12px" preserveAspectRatio="xMinYMin meet" x="732" y="-355.181"/>
<text text-anchor="start" x="747" y="-345.2814" font-family="Helvetica,sans-Serif" font-size="11.00" fill="#000000">accepted_agreement_by_user_id</text>
<polygon fill="none" stroke="#000000" points="727,-316.1814 727,-338.1814 937,-338.1814 937,-316.1814 727,-316.1814"/>
<image xlink:href="../../images/foreignKeys.png" width="11px" height="12px" preserveAspectRatio="xMinYMin meet" x="732" y="-333.181"/>
<text text-anchor="start" x="747" y="-323.2814" font-family="Helvetica,sans-Serif" font-size="11.00" fill="#000000">created_by_user_id</text>
<polygon fill="none" stroke="#000000" points="727,-297.1814 727,-316.1814 937,-316.1814 937,-297.1814 727,-297.1814"/>
<text text-anchor="start" x="730" y="-303.2814" font-family="Helvetica,sans-Serif" font-size="11.00" fill="#000000">...</text>
<polygon fill="#ffffff" stroke="transparent" points="727,-278.1814 727,-297.1814 813,-297.1814 813,-278.1814 727,-278.1814"/>
<polygon fill="none" stroke="#000000" points="727,-278.1814 727,-297.1814 813,-297.1814 813,-278.1814 727,-278.1814"/>
<text text-anchor="start" x="730" y="-284.2814" font-family="Helvetica,sans-Serif" font-size="11.00" fill="#000000">&lt; 9</text>
<polygon fill="#ffffff" stroke="transparent" points="813,-278.1814 813,-297.1814 883,-297.1814 883,-278.1814 813,-278.1814"/>
<polygon fill="none" stroke="#000000" points="813,-278.1814 813,-297.1814 883,-297.1814 883,-278.1814 813,-278.1814"/>
<text text-anchor="start" x="847.6105" y="-284.2814" font-family="Helvetica,sans-Serif" font-size="11.00" fill="#000000">0 rows</text>
<polygon fill="#ffffff" stroke="transparent" points="883,-278.1814 883,-297.1814 937,-297.1814 937,-278.1814 883,-278.1814"/>
<polygon fill="none" stroke="#000000" points="883,-278.1814 883,-297.1814 937,-297.1814 937,-278.1814 883,-278.1814"/>
<text text-anchor="start" x="918.4053" y="-284.2814" font-family="Helvetica,sans-Serif" font-size="11.00" fill="#000000">2 &gt;</text>
</a>
</g>
</g>
<!-- patients&#45;&gt;companies -->
<g id="edge6" class="edge">
<title>patients:w&#45;&gt;companies:e</title>
<path fill="none" stroke="#000000" d="M713.4843,-475.3886C674.4235,-434.516 738.352,-191.1814 678.5,-191.1814"/>
<polygon fill="#000000" stroke="#000000" points="719.6469,-478.0299 725.5818,-484.4903 723.3235,-479.6057 727,-481.1814 727,-481.1814 727,-481.1814 723.3235,-479.6057 728.4182,-477.8726 719.6469,-478.0299 719.6469,-478.0299"/>
<ellipse fill="none" stroke="#000000" cx="716.7057" cy="-476.7692" rx="3.2" ry="3.2"/>
</g>
<!-- patients&#45;&gt;users -->
<g id="edge5" class="edge">
<title>patients:w&#45;&gt;users:e</title>
<path fill="none" stroke="#000000" d="M713.0132,-345.3743C694.2962,-331.4585 716.2485,-283.1745 686,-264.1814 649.6777,-241.3747 531.1746,-244.6325 493,-264.1814 464.2352,-278.9117 482.8171,-323.1814 450.5,-323.1814"/>
<polygon fill="#000000" stroke="#000000" points="719.2808,-347.0803 726.0545,-352.6551 723.1404,-348.1309 727,-349.1814 727,-349.1814 727,-349.1814 723.1404,-348.1309 727.9455,-345.7078 719.2808,-347.0803 719.2808,-347.0803"/>
<ellipse fill="none" stroke="#000000" cx="716.1932" cy="-346.2398" rx="3.2" ry="3.2"/>
</g>
<!-- patients&#45;&gt;users -->
<g id="edge7" class="edge">
<title>patients:w&#45;&gt;users:e</title>
<path fill="none" stroke="#000000" d="M712.5051,-325.9052C633.7793,-310.2213 764.2144,-154.1208 686,-88.1814 653.2092,-60.5369 525.9151,-60.6851 493,-88.1814 411.5436,-156.2277 556.6387,-323.1814 450.5,-323.1814"/>
<polygon fill="#000000" stroke="#000000" points="719.0308,-326.4797 726.6842,-330.7676 723.0154,-326.8306 727,-327.1814 727,-327.1814 727,-327.1814 723.0154,-326.8306 727.3158,-323.5953 719.0308,-326.4797 719.0308,-326.4797"/>
<ellipse fill="none" stroke="#000000" cx="715.8432" cy="-326.199" rx="3.2" ry="3.2"/>
</g>
<!-- patients&#45;&gt;users -->
<g id="edge10" class="edge">
<title>patients:w&#45;&gt;users:e</title>
<path fill="none" stroke="#000000" d="M713.0561,-507.9894C703.9603,-516.0716 702.508,-532.0936 686,-538.1814 645.7602,-553.0211 526.1373,-565.4096 493,-538.1814 417.742,-476.3438 547.9046,-323.1814 450.5,-323.1814"/>
<polygon fill="#000000" stroke="#000000" points="719.437,-505.7892 728.1735,-506.5848 723.2185,-504.4853 727,-503.1814 727,-503.1814 727,-503.1814 723.2185,-504.4853 725.8265,-499.7781 719.437,-505.7892 719.437,-505.7892"/>
<ellipse fill="none" stroke="#000000" cx="716.4117" cy="-506.8324" rx="3.2" ry="3.2"/>
</g>
<!-- professionals -->
<g id="node6" class="node">
<title>professionals</title>
<g id="a_node6"><a xlink:href="../../tables/professionals.html" xlink:title="professionals" target="_top">
<polygon fill="#ffffff" stroke="transparent" points="501.5,-400.6814 501.5,-527.6814 677.5,-527.6814 677.5,-400.6814 501.5,-400.6814"/>
<polygon fill="#f5f5f5" stroke="transparent" points="501.5,-504.1814 501.5,-527.1814 677.5,-527.1814 677.5,-504.1814 501.5,-504.1814"/>
<polygon fill="none" stroke="#000000" points="501.5,-504.1814 501.5,-527.1814 677.5,-527.1814 677.5,-504.1814 501.5,-504.1814"/>
<text text-anchor="start" x="506.5" y="-513.2814" font-family="Helvetica,sans-Serif" font-weight="bold" font-size="11.00" fill="#000000">professionals</text>
<text text-anchor="start" x="642.5437" y="-512.2814" font-family="Helvetica,sans-Serif" font-size="11.00" fill="#000000">[table]</text>
<polygon fill="none" stroke="#000000" points="501.5,-482.1814 501.5,-504.1814 677.5,-504.1814 677.5,-482.1814 501.5,-482.1814"/>
<image xlink:href="../../images/primaryKeys.png" width="11px" height="12px" preserveAspectRatio="xMinYMin meet" x="506.5" y="-499.181"/>
<text text-anchor="start" x="521.5" y="-489.2814" font-family="Helvetica,sans-Serif" font-size="11.00" fill="#000000">id</text>
<polygon fill="#ffffff" stroke="transparent" points="501.5,-460.1814 501.5,-482.1814 677.5,-482.1814 677.5,-460.1814 501.5,-460.1814"/>
<polygon fill="none" stroke="#000000" points="501.5,-460.1814 501.5,-482.1814 677.5,-482.1814 677.5,-460.1814 501.5,-460.1814"/>
<image xlink:href="../../images/foreignKeys.png" width="11px" height="12px" preserveAspectRatio="xMinYMin meet" x="506.5" y="-477.181"/>
<text text-anchor="start" x="521.5" y="-467.2814" font-family="Helvetica,sans-Serif" font-size="11.00" fill="#000000">user_id</text>
<polygon fill="none" stroke="#000000" points="501.5,-438.1814 501.5,-460.1814 677.5,-460.1814 677.5,-438.1814 501.5,-438.1814"/>
<image xlink:href="../../images/foreignKeys.png" width="11px" height="12px" preserveAspectRatio="xMinYMin meet" x="506.5" y="-455.181"/>
<text text-anchor="start" x="521.5" y="-445.2814" font-family="Helvetica,sans-Serif" font-size="11.00" fill="#000000">license_id</text>
<polygon fill="none" stroke="#000000" points="501.5,-419.1814 501.5,-438.1814 677.5,-438.1814 677.5,-419.1814 501.5,-419.1814"/>
<text text-anchor="start" x="504.5" y="-425.2814" font-family="Helvetica,sans-Serif" font-size="11.00" fill="#000000">...</text>
<polygon fill="#ffffff" stroke="transparent" points="501.5,-400.1814 501.5,-419.1814 570.5,-419.1814 570.5,-400.1814 501.5,-400.1814"/>
<polygon fill="none" stroke="#000000" points="501.5,-400.1814 501.5,-419.1814 570.5,-419.1814 570.5,-400.1814 501.5,-400.1814"/>
<text text-anchor="start" x="504.5" y="-406.2814" font-family="Helvetica,sans-Serif" font-size="11.00" fill="#000000">&lt; 2</text>
<polygon fill="#ffffff" stroke="transparent" points="570.5,-400.1814 570.5,-419.1814 632.5,-419.1814 632.5,-400.1814 570.5,-400.1814"/>
<polygon fill="none" stroke="#000000" points="570.5,-400.1814 570.5,-419.1814 632.5,-419.1814 632.5,-400.1814 570.5,-400.1814"/>
<text text-anchor="start" x="597.1105" y="-406.2814" font-family="Helvetica,sans-Serif" font-size="11.00" fill="#000000">0 rows</text>
<polygon fill="#ffffff" stroke="transparent" points="632.5,-400.1814 632.5,-419.1814 677.5,-419.1814 677.5,-400.1814 632.5,-400.1814"/>
<polygon fill="none" stroke="#000000" points="632.5,-400.1814 632.5,-419.1814 677.5,-419.1814 677.5,-400.1814 632.5,-400.1814"/>
<text text-anchor="start" x="658.9053" y="-406.2814" font-family="Helvetica,sans-Serif" font-size="11.00" fill="#000000">2 &gt;</text>
</a>
</g>
</g>
<!-- patients&#45;&gt;professionals -->
<g id="edge8" class="edge">
<title>patients:w&#45;&gt;professionals:e</title>
<path fill="none" stroke="#000000" d="M713.3694,-441.956C698.2489,-455.4983 704.7494,-493.1814 677.5,-493.1814"/>
<polygon fill="#000000" stroke="#000000" points="719.4498,-439.8262 728.1901,-440.579 723.2249,-438.5038 727,-437.1814 727,-437.1814 727,-437.1814 723.2249,-438.5038 725.8099,-433.7839 719.4498,-439.8262 719.4498,-439.8262"/>
<ellipse fill="none" stroke="#000000" cx="716.4297" cy="-440.8841" rx="3.2" ry="3.2"/>
</g>
<!-- patients&#45;&gt;profiles -->
<g id="edge9" class="edge">
<title>patients:w&#45;&gt;profiles:e</title>
<path fill="none" stroke="#000000" d="M713.1171,-529.6831C704.1897,-536.9296 701.736,-550.9021 686,-556.1814 604.677,-583.465 576.8252,-574.3792 493,-556.1814 336.9258,-522.2991 325.7096,-407.1814 166,-407.1814"/>
<polygon fill="#000000" stroke="#000000" points="719.3901,-527.6491 728.1104,-528.6059 723.195,-526.4153 727,-525.1814 727,-525.1814 727,-525.1814 723.195,-526.4153 725.8896,-521.757 719.3901,-527.6491 719.3901,-527.6491"/>
<ellipse fill="none" stroke="#000000" cx="716.3461" cy="-528.6361" rx="3.2" ry="3.2"/>
</g>
<!-- professionals&#45;&gt;users -->
<g id="edge11" class="edge">
<title>professionals:w&#45;&gt;users:e</title>
<path fill="none" stroke="#000000" d="M491.1386,-469.8108C441.4058,-454.8906 516.133,-323.1814 450.5,-323.1814"/>
<polygon fill="#000000" stroke="#000000" points="501.2315,-467.1111 500.1823,-475.042 498.5961,-474.8321 499.6453,-466.9012 501.2315,-467.1111"/>
<polyline fill="none" stroke="#000000" points="501.5,-471.1814 497.5345,-470.6569 "/>
<ellipse fill="none" stroke="#000000" cx="494.3622" cy="-470.2372" rx="3.2" ry="3.2"/>
</g>
<!-- responsible_persons -->
<g id="node8" class="node">
<title>responsible_persons</title>
<g id="a_node8"><a xlink:href="../../tables/responsible_persons.html" xlink:title="responsible_persons" target="_top">
<polygon fill="#ffffff" stroke="transparent" points="986,-494.6814 986,-621.6814 1189,-621.6814 1189,-494.6814 986,-494.6814"/>
<polygon fill="#f5f5f5" stroke="transparent" points="986.5,-598.1814 986.5,-621.1814 1189.5,-621.1814 1189.5,-598.1814 986.5,-598.1814"/>
<polygon fill="none" stroke="#000000" points="986.5,-598.1814 986.5,-621.1814 1189.5,-621.1814 1189.5,-598.1814 986.5,-598.1814"/>
<text text-anchor="start" x="991.5" y="-607.2814" font-family="Helvetica,sans-Serif" font-weight="bold" font-size="11.00" fill="#000000">responsible_persons</text>
<text text-anchor="start" x="1154.5437" y="-606.2814" font-family="Helvetica,sans-Serif" font-size="11.00" fill="#000000">[table]</text>
<polygon fill="none" stroke="#000000" points="986.5,-576.1814 986.5,-598.1814 1189.5,-598.1814 1189.5,-576.1814 986.5,-576.1814"/>
<image xlink:href="../../images/foreignKeys.png" width="11px" height="12px" preserveAspectRatio="xMinYMin meet" x="991.5" y="-593.181"/>
<text text-anchor="start" x="1006.5" y="-583.2814" font-family="Helvetica,sans-Serif" font-size="11.00" fill="#000000">user_id</text>
<polygon fill="none" stroke="#000000" points="986.5,-554.1814 986.5,-576.1814 1189.5,-576.1814 1189.5,-554.1814 986.5,-554.1814"/>
<image xlink:href="../../images/foreignKeys.png" width="11px" height="12px" preserveAspectRatio="xMinYMin meet" x="991.5" y="-571.181"/>
<text text-anchor="start" x="1006.5" y="-561.2814" font-family="Helvetica,sans-Serif" font-size="11.00" fill="#000000">patient_id</text>
<polygon fill="none" stroke="#000000" points="986.5,-532.1814 986.5,-554.1814 1189.5,-554.1814 1189.5,-532.1814 986.5,-532.1814"/>
<image xlink:href="../../images/primaryKeys.png" width="11px" height="12px" preserveAspectRatio="xMinYMin meet" x="991.5" y="-549.181"/>
<text text-anchor="start" x="1006.5" y="-539.2814" font-family="Helvetica,sans-Serif" font-size="11.00" fill="#000000">id</text>
<polygon fill="none" stroke="#000000" points="986.5,-513.1814 986.5,-532.1814 1189.5,-532.1814 1189.5,-513.1814 986.5,-513.1814"/>
<text text-anchor="start" x="989.5" y="-519.2814" font-family="Helvetica,sans-Serif" font-size="11.00" fill="#000000">...</text>
<polygon fill="#ffffff" stroke="transparent" points="986.5,-494.1814 986.5,-513.1814 1073.5,-513.1814 1073.5,-494.1814 986.5,-494.1814"/>
<polygon fill="none" stroke="#000000" points="986.5,-494.1814 986.5,-513.1814 1073.5,-513.1814 1073.5,-494.1814 986.5,-494.1814"/>
<text text-anchor="start" x="989.5" y="-500.2814" font-family="Helvetica,sans-Serif" font-size="11.00" fill="#000000">&lt; 2</text>
<polygon fill="#ffffff" stroke="transparent" points="1073.5,-494.1814 1073.5,-513.1814 1144.5,-513.1814 1144.5,-494.1814 1073.5,-494.1814"/>
<polygon fill="none" stroke="#000000" points="1073.5,-494.1814 1073.5,-513.1814 1144.5,-513.1814 1144.5,-494.1814 1073.5,-494.1814"/>
<text text-anchor="start" x="1109.1105" y="-500.2814" font-family="Helvetica,sans-Serif" font-size="11.00" fill="#000000">0 rows</text>
<polygon fill="#ffffff" stroke="transparent" points="1144.5,-494.1814 1144.5,-513.1814 1189.5,-513.1814 1189.5,-494.1814 1144.5,-494.1814"/>
<polygon fill="none" stroke="#000000" points="1144.5,-494.1814 1144.5,-513.1814 1189.5,-513.1814 1189.5,-494.1814 1144.5,-494.1814"/>
<text text-anchor="start" x="1180.3862" y="-500.2814" font-family="Helvetica,sans-Serif" font-size="11.00" fill="#000000"> &#160;</text>
</a>
</g>
</g>
<!-- responsible_persons&#45;&gt;users -->
<g id="edge13" class="edge">
<title>responsible_persons:w&#45;&gt;users:e</title>
<path fill="none" stroke="#000000" d="M972.0864,-588.1589C963.6642,-589.3869 957.6044,-591.4249 945,-592.1814 743.837,-604.256 637.0906,-697.0723 493,-556.1814 417.736,-482.5888 555.7642,-323.1814 450.5,-323.1814"/>
<polygon fill="#000000" stroke="#000000" points="978.5183,-587.7228 986.7436,-590.7732 982.5092,-587.4521 986.5,-587.1814 986.5,-587.1814 986.5,-587.1814 982.5092,-587.4521 986.2564,-583.5897 978.5183,-587.7228 978.5183,-587.7228"/>
<ellipse fill="none" stroke="#000000" cx="975.3257" cy="-587.9393" rx="3.2" ry="3.2"/>
</g>
<!-- responsible_persons&#45;&gt;patients -->
<g id="edge12" class="edge">
<title>responsible_persons:w&#45;&gt;patients:e</title>
<path fill="none" stroke="#000000" d="M972.1817,-562.3689C960.4545,-557.3064 954.557,-547.1814 937,-547.1814"/>
<polygon fill="#000000" stroke="#000000" points="978.65,-563.6394 985.8061,-568.7139 982.575,-564.4104 986.5,-565.1814 986.5,-565.1814 986.5,-565.1814 982.575,-564.4104 987.1939,-561.6489 978.65,-563.6394 978.65,-563.6394"/>
<ellipse fill="none" stroke="#000000" cx="975.51" cy="-563.0226" rx="3.2" ry="3.2"/>
</g>
</g>
</svg>
